<svg width="360" height="780" viewBox="0 0 360 780" fill="none" xmlns="http://www.w3.org/2000/svg">
<rect width="360" height="780" rx="30" fill="#0F0F0F"/>
<g clip-path="url(#clip0_85_31726)">
<path d="M159.156 145.664L162.744 156.272L156.409 175L147.707 149.271C150.576 148.691 154.113 147.807 157.215 146.541C157.887 146.266 158.538 145.974 159.156 145.664V145.664ZM152.07 132.929H152.566L152.105 133.16L152.07 132.929Z" fill="#0E8F8D"/>
<path fill-rule="evenodd" clip-rule="evenodd" d="M154.919 147.389L162.745 156.272L159.157 145.664C158.539 145.974 157.888 146.266 157.216 146.541C156.47 146.845 155.699 147.127 154.919 147.389ZM152.567 132.929H152.07L152.105 133.16L152.567 132.929Z" fill="#0E8F8D"/>
<path fill-rule="evenodd" clip-rule="evenodd" d="M155.379 147.231L156.409 175L162.744 156.272L159.156 145.664C158.538 145.974 157.887 146.266 157.215 146.541C156.616 146.785 156.002 147.015 155.379 147.231V147.231Z" fill="#0E8F8D" fill-opacity="0.701961"/>
<path d="M146.364 145.814C144.819 141.871 140.994 134.645 143.137 130.497C144.237 128.367 147.516 126.851 149.943 128.105C152.141 129.241 152.742 130.774 152.844 133.271C154.94 131.909 156.538 131.512 158.736 132.648C161.163 133.902 161.824 137.452 160.723 139.582C158.582 143.727 150.48 144.791 146.364 145.814V145.814Z" fill="#FFF2F4"/>
<path d="M147.184 144.229C145.956 141.095 142.917 135.354 144.619 132.057C145.494 130.364 148.099 129.16 150.027 130.156C151.775 131.059 152.252 132.277 152.333 134.262C153.999 133.179 155.268 132.864 157.015 133.766C158.944 134.763 159.469 137.584 158.594 139.277C156.893 142.571 150.455 143.416 147.184 144.229V144.229Z" fill="#FF415B"/>
<path d="M148.13 142.398C147.269 140.2 145.137 136.172 146.332 133.86C146.945 132.672 148.773 131.827 150.125 132.526C151.351 133.159 151.686 134.014 151.742 135.406C152.911 134.647 153.802 134.425 155.027 135.059C156.38 135.758 156.749 137.737 156.135 138.924C154.941 141.235 150.425 141.828 148.13 142.398V142.398Z" fill="#FF415B"/>
<path fill-rule="evenodd" clip-rule="evenodd" d="M215.278 142.239C216.375 142.522 217.22 143.057 217.812 143.844C218.404 144.631 218.701 145.608 218.701 146.776C218.701 148.404 218.104 149.69 216.91 150.636C215.716 151.583 214.093 152.056 212.041 152.056C210.785 152.056 209.578 151.861 208.419 151.472C207.883 151.292 207.389 151.082 206.938 150.84L207.836 148.183C209.126 148.943 210.484 149.323 211.909 149.323C213.094 149.323 213.978 149.089 214.562 148.62C215.145 148.151 215.437 147.439 215.437 146.484C215.437 145.547 215.141 144.852 214.549 144.401C213.956 143.95 213.041 143.725 211.803 143.725H209.344L210.259 141.018H211.351C213.774 141.018 214.986 140.107 214.986 138.285C214.986 137.437 214.725 136.782 214.203 136.322C213.699 135.877 212.992 135.648 212.081 135.633L212.996 132.929C214.468 133.042 215.671 133.479 216.605 134.239C217.701 135.133 218.25 136.34 218.25 137.861C218.232 138.904 217.962 139.811 217.441 140.581C216.919 141.35 216.198 141.903 215.278 142.239V142.239Z" fill="#29364F"/>
<path d="M188.277 156.272L196.173 132.929H208.842L194.612 175L188.277 156.272Z" fill="#C43739"/>
<path d="M167.698 175H156.41L169.177 137.255L175.511 155.983L169.08 175H167.698Z" fill="#E9CC32"/>
<path d="M175.513 155.983L167.715 132.928H170.642H180.384L181.847 137.254L194.614 175H191.926H181.945L175.513 155.983Z" fill="#8D45BA"/>
<path fill-rule="evenodd" clip-rule="evenodd" d="M194.614 175L180.384 132.928H167.715L194.614 175Z" fill="#B570E0"/>
<path fill-rule="evenodd" clip-rule="evenodd" d="M181.944 175H194.613L180.383 132.928L181.944 175Z" fill="#8E5AAF" fill-opacity="0.701961"/>
<path fill-rule="evenodd" clip-rule="evenodd" d="M194.613 175L208.843 132.929H196.174L194.613 175Z" fill="#C43739"/>
<path fill-rule="evenodd" clip-rule="evenodd" d="M208.842 132.929L188.277 156.272L196.173 132.929H208.842Z" fill="#D9383A" fill-opacity="0.701961"/>
<path fill-rule="evenodd" clip-rule="evenodd" d="M169.177 137.255L175.511 155.983L156.41 175L169.177 137.255Z" fill="#F9E051"/>
<path fill-rule="evenodd" clip-rule="evenodd" d="M156.41 175L169.177 137.255L169.08 175H156.41Z" fill="#E9CC32" fill-opacity="0.701961"/>
</g>
<path d="M65.96 246.16C64.9333 246.16 64.04 246 63.28 245.68C62.5333 245.36 61.9533 244.907 61.54 244.32C61.14 243.733 60.94 243.047 60.94 242.26V241.68C60.94 241.547 61.0067 241.48 61.14 241.48H62.6C62.7333 241.48 62.8 241.547 62.8 241.68V242.16C62.8 242.84 63.0933 243.4 63.68 243.84C64.2667 244.28 65.0733 244.5 66.1 244.5C67.02 244.5 67.7133 244.307 68.18 243.92C68.6467 243.533 68.88 243.027 68.88 242.4C68.88 241.987 68.76 241.633 68.52 241.34C68.28 241.047 67.9267 240.78 67.46 240.54C67.0067 240.287 66.34 239.987 65.46 239.64C64.4867 239.267 63.7133 238.927 63.14 238.62C62.58 238.313 62.1133 237.913 61.74 237.42C61.3667 236.913 61.18 236.28 61.18 235.52C61.18 234.373 61.5867 233.473 62.4 232.82C63.2267 232.167 64.34 231.84 65.74 231.84C66.7267 231.84 67.5933 232.007 68.34 232.34C69.0867 232.673 69.66 233.14 70.06 233.74C70.4733 234.34 70.68 235.033 70.68 235.82V236.22C70.68 236.353 70.6133 236.42 70.48 236.42H68.98C68.8467 236.42 68.78 236.353 68.78 236.22V235.92C68.78 235.227 68.5 234.653 67.94 234.2C67.3933 233.733 66.6333 233.5 65.66 233.5C64.8333 233.5 64.1933 233.673 63.74 234.02C63.2867 234.353 63.06 234.84 63.06 235.48C63.06 235.92 63.1733 236.28 63.4 236.56C63.6267 236.84 63.96 237.093 64.4 237.32C64.8533 237.533 65.54 237.813 66.46 238.16C67.4067 238.533 68.1733 238.88 68.76 239.2C69.3467 239.507 69.8333 239.92 70.22 240.44C70.6067 240.947 70.8 241.58 70.8 242.34C70.8 243.513 70.3667 244.447 69.5 245.14C68.6467 245.82 67.4667 246.16 65.96 246.16ZM78.1778 237.2C78.1778 237.333 78.1111 237.4 77.9778 237.4H75.8178C75.7645 237.4 75.7378 237.427 75.7378 237.48V242.78C75.7378 243.34 75.8645 243.747 76.1178 244C76.3711 244.24 76.7645 244.36 77.2978 244.36H77.8778C78.0111 244.36 78.0778 244.427 78.0778 244.56V245.8C78.0778 245.933 78.0111 246 77.8778 246C77.4511 246.027 77.1445 246.04 76.9578 246.04C75.9445 246.04 75.1778 245.86 74.6578 245.5C74.1511 245.127 73.8978 244.447 73.8978 243.46V237.48C73.8978 237.427 73.8711 237.4 73.8178 237.4H72.5978C72.4645 237.4 72.3978 237.333 72.3978 237.2V236.02C72.3978 235.887 72.4645 235.82 72.5978 235.82H73.8178C73.8711 235.82 73.8978 235.793 73.8978 235.74V233.38C73.8978 233.247 73.9645 233.18 74.0978 233.18H75.5378C75.6711 233.18 75.7378 233.247 75.7378 233.38V235.74C75.7378 235.793 75.7645 235.82 75.8178 235.82H77.9778C78.1111 235.82 78.1778 235.887 78.1778 236.02V237.2ZM88.5463 239.64C88.5996 240.187 88.6196 240.8 88.6063 241.48C88.6063 241.613 88.5396 241.68 88.4063 241.68H82.0263C81.9729 241.68 81.9463 241.707 81.9463 241.76C81.9463 242.213 81.9863 242.56 82.0663 242.8C82.2129 243.333 82.5063 243.753 82.9463 244.06C83.3996 244.353 83.9663 244.5 84.6463 244.5C85.6329 244.5 86.3929 244.093 86.9263 243.28C86.9929 243.147 87.0796 243.127 87.1863 243.22L88.3263 243.98C88.4196 244.06 88.4396 244.147 88.3863 244.24C88.0129 244.84 87.4796 245.313 86.7863 245.66C86.1063 246.007 85.3329 246.18 84.4663 246.18C83.4929 246.18 82.6729 245.967 82.0063 245.54C81.3396 245.113 80.8396 244.507 80.5063 243.72C80.1863 242.933 80.0263 241.98 80.0263 240.86C80.0263 239.887 80.0996 239.147 80.2463 238.64C80.4863 237.72 80.9663 236.993 81.6863 236.46C82.4063 235.927 83.2796 235.66 84.3063 235.66C85.6529 235.66 86.6596 236 87.3263 236.68C87.9929 237.347 88.3996 238.333 88.5463 239.64ZM84.3063 237.32C83.7329 237.32 83.2596 237.467 82.8863 237.76C82.5129 238.04 82.2596 238.42 82.1263 238.9C82.0329 239.193 81.9729 239.567 81.9463 240.02C81.9463 240.073 81.9729 240.1 82.0263 240.1H86.6063C86.6596 240.1 86.6863 240.073 86.6863 240.02C86.6596 239.58 86.6196 239.253 86.5663 239.04C86.4329 238.52 86.1663 238.107 85.7663 237.8C85.3796 237.48 84.8929 237.32 84.3063 237.32ZM99.2889 238.38C99.5422 239.1 99.6689 239.953 99.6689 240.94C99.6689 241.873 99.5622 242.68 99.3489 243.36C99.0689 244.253 98.6089 244.947 97.9689 245.44C97.3289 245.92 96.5089 246.16 95.5089 246.16C95.0556 246.16 94.6222 246.073 94.2089 245.9C93.8089 245.713 93.4622 245.453 93.1689 245.12C93.1422 245.093 93.1156 245.087 93.0889 245.1C93.0756 245.113 93.0689 245.133 93.0689 245.16V249.62C93.0689 249.753 93.0022 249.82 92.8689 249.82H91.3489C91.2156 249.82 91.1489 249.753 91.1489 249.62V236.02C91.1489 235.887 91.2156 235.82 91.3489 235.82H92.8689C93.0022 235.82 93.0689 235.887 93.0689 236.02V236.68C93.0689 236.707 93.0756 236.727 93.0889 236.74C93.1156 236.753 93.1422 236.747 93.1689 236.72C93.4622 236.387 93.8089 236.127 94.2089 235.94C94.6089 235.753 95.0422 235.66 95.5089 235.66C96.4689 235.66 97.2622 235.9 97.8889 236.38C98.5289 236.847 98.9956 237.513 99.2889 238.38ZM97.0889 243.54C97.5156 242.9 97.7289 242.02 97.7289 240.9C97.7289 239.873 97.5622 239.047 97.2289 238.42C96.8422 237.687 96.2089 237.32 95.3289 237.32C94.5556 237.32 93.9689 237.68 93.5689 238.4C93.2489 238.973 93.0889 239.813 93.0889 240.92C93.0889 242.04 93.2622 242.893 93.6089 243.48C93.9956 244.16 94.5622 244.5 95.3089 244.5C96.1089 244.5 96.7022 244.18 97.0889 243.54ZM106.625 246C106.492 246 106.425 245.933 106.425 245.8V232.2C106.425 232.067 106.492 232 106.625 232H108.145C108.278 232 108.345 232.067 108.345 232.2V245.8C108.345 245.933 108.278 246 108.145 246H106.625ZM115.92 235.68C117.014 235.68 117.88 236 118.52 236.64C119.16 237.267 119.48 238.12 119.48 239.2V245.8C119.48 245.933 119.414 246 119.28 246H117.76C117.627 246 117.56 245.933 117.56 245.8V239.58C117.56 238.913 117.367 238.373 116.98 237.96C116.594 237.547 116.08 237.34 115.44 237.34C114.814 237.34 114.3 237.547 113.9 237.96C113.5 238.373 113.3 238.907 113.3 239.56V245.8C113.3 245.933 113.234 246 113.1 246H111.58C111.447 246 111.38 245.933 111.38 245.8V236.02C111.38 235.887 111.447 235.82 111.58 235.82H113.1C113.234 235.82 113.3 235.887 113.3 236.02V236.74C113.3 236.767 113.307 236.787 113.32 236.8C113.347 236.813 113.367 236.807 113.38 236.78C113.954 236.047 114.8 235.68 115.92 235.68ZM127.24 237.2C127.24 237.333 127.174 237.4 127.04 237.4H124.88C124.827 237.4 124.8 237.427 124.8 237.48V242.78C124.8 243.34 124.927 243.747 125.18 244C125.434 244.24 125.827 244.36 126.36 244.36H126.94C127.074 244.36 127.14 244.427 127.14 244.56V245.8C127.14 245.933 127.074 246 126.94 246C126.514 246.027 126.207 246.04 126.02 246.04C125.007 246.04 124.24 245.86 123.72 245.5C123.214 245.127 122.96 244.447 122.96 243.46V237.48C122.96 237.427 122.934 237.4 122.88 237.4H121.66C121.527 237.4 121.46 237.333 121.46 237.2V236.02C121.46 235.887 121.527 235.82 121.66 235.82H122.88C122.934 235.82 122.96 235.793 122.96 235.74V233.38C122.96 233.247 123.027 233.18 123.16 233.18H124.6C124.734 233.18 124.8 233.247 124.8 233.38V235.74C124.8 235.793 124.827 235.82 124.88 235.82H127.04C127.174 235.82 127.24 235.887 127.24 236.02V237.2ZM133.529 246.16C132.542 246.16 131.682 245.913 130.949 245.42C130.215 244.913 129.702 244.213 129.409 243.32C129.169 242.6 129.049 241.787 129.049 240.88C129.049 239.933 129.162 239.133 129.389 238.48C129.682 237.6 130.195 236.913 130.929 236.42C131.662 235.913 132.535 235.66 133.549 235.66C134.509 235.66 135.342 235.913 136.049 236.42C136.769 236.913 137.282 237.593 137.589 238.46C137.829 239.14 137.949 239.94 137.949 240.86C137.949 241.793 137.829 242.613 137.589 243.32C137.295 244.213 136.789 244.913 136.069 245.42C135.349 245.913 134.502 246.16 133.529 246.16ZM133.529 244.5C134.062 244.5 134.529 244.353 134.929 244.06C135.329 243.753 135.615 243.327 135.789 242.78C135.935 242.273 136.009 241.647 136.009 240.9C136.009 240.153 135.942 239.533 135.809 239.04C135.635 238.493 135.349 238.073 134.949 237.78C134.549 237.473 134.062 237.32 133.489 237.32C132.942 237.32 132.469 237.473 132.069 237.78C131.669 238.073 131.382 238.493 131.209 239.04C131.062 239.507 130.989 240.127 130.989 240.9C130.989 241.673 131.062 242.3 131.209 242.78C131.369 243.327 131.649 243.753 132.049 244.06C132.462 244.353 132.955 244.5 133.529 244.5ZM147.566 246C147.446 246 147.373 245.947 147.346 245.84L143.586 232.22L143.566 232.16C143.566 232.053 143.633 232 143.766 232H145.386C145.506 232 145.58 232.06 145.606 232.18L148.226 242.14C148.24 242.167 148.253 242.18 148.266 242.18C148.293 242.18 148.313 242.167 148.326 242.14L150.806 232.18C150.833 232.06 150.906 232 151.026 232H152.606C152.726 232 152.8 232.06 152.826 232.18L155.446 242.16C155.46 242.187 155.473 242.2 155.486 242.2C155.5 242.2 155.513 242.187 155.526 242.16L158.166 232.18C158.193 232.06 158.266 232 158.386 232H159.906C159.973 232 160.02 232.02 160.046 232.06C160.086 232.1 160.1 232.153 160.086 232.22L156.466 245.82C156.44 245.94 156.366 246 156.246 246H154.706C154.586 246 154.513 245.94 154.486 245.82L151.866 235.5C151.853 235.46 151.84 235.44 151.826 235.44C151.813 235.44 151.8 235.46 151.786 235.5L149.246 245.82C149.233 245.94 149.16 246 149.026 246H147.566ZM169.21 239.64C169.264 240.187 169.284 240.8 169.27 241.48C169.27 241.613 169.204 241.68 169.07 241.68H162.69C162.637 241.68 162.61 241.707 162.61 241.76C162.61 242.213 162.65 242.56 162.73 242.8C162.877 243.333 163.17 243.753 163.61 244.06C164.064 244.353 164.63 244.5 165.31 244.5C166.297 244.5 167.057 244.093 167.59 243.28C167.657 243.147 167.744 243.127 167.85 243.22L168.99 243.98C169.084 244.06 169.104 244.147 169.05 244.24C168.677 244.84 168.144 245.313 167.45 245.66C166.77 246.007 165.997 246.18 165.13 246.18C164.157 246.18 163.337 245.967 162.67 245.54C162.004 245.113 161.504 244.507 161.17 243.72C160.85 242.933 160.69 241.98 160.69 240.86C160.69 239.887 160.764 239.147 160.91 238.64C161.15 237.72 161.63 236.993 162.35 236.46C163.07 235.927 163.944 235.66 164.97 235.66C166.317 235.66 167.324 236 167.99 236.68C168.657 237.347 169.064 238.333 169.21 239.64ZM164.97 237.32C164.397 237.32 163.924 237.467 163.55 237.76C163.177 238.04 162.924 238.42 162.79 238.9C162.697 239.193 162.637 239.567 162.61 240.02C162.61 240.073 162.637 240.1 162.69 240.1H167.27C167.324 240.1 167.35 240.073 167.35 240.02C167.324 239.58 167.284 239.253 167.23 239.04C167.097 238.52 166.83 238.107 166.43 237.8C166.044 237.48 165.557 237.32 164.97 237.32ZM171.893 246C171.76 246 171.693 245.933 171.693 245.8V232.2C171.693 232.067 171.76 232 171.893 232H173.413C173.546 232 173.613 232.067 173.613 232.2V245.8C173.613 245.933 173.546 246 173.413 246H171.893ZM176.6 246C176.467 246 176.4 245.933 176.4 245.8V232.2C176.4 232.067 176.467 232 176.6 232H178.12C178.253 232 178.32 232.067 178.32 232.2V245.8C178.32 245.933 178.253 246 178.12 246H176.6ZM185.647 235.68C186.74 235.68 187.607 236 188.247 236.64C188.887 237.267 189.207 238.12 189.207 239.2V245.8C189.207 245.933 189.14 246 189.007 246H187.487C187.354 246 187.287 245.933 187.287 245.8V239.58C187.287 238.913 187.094 238.373 186.707 237.96C186.32 237.547 185.807 237.34 185.167 237.34C184.54 237.34 184.027 237.547 183.627 237.96C183.227 238.373 183.027 238.907 183.027 239.56V245.8C183.027 245.933 182.96 246 182.827 246H181.307C181.174 246 181.107 245.933 181.107 245.8V236.02C181.107 235.887 181.174 235.82 181.307 235.82H182.827C182.96 235.82 183.027 235.887 183.027 236.02V236.74C183.027 236.767 183.034 236.787 183.047 236.8C183.074 236.813 183.094 236.807 183.107 236.78C183.68 236.047 184.527 235.68 185.647 235.68ZM200.07 239.64C200.123 240.187 200.143 240.8 200.13 241.48C200.13 241.613 200.063 241.68 199.93 241.68H193.55C193.496 241.68 193.47 241.707 193.47 241.76C193.47 242.213 193.51 242.56 193.59 242.8C193.736 243.333 194.03 243.753 194.47 244.06C194.923 244.353 195.49 244.5 196.17 244.5C197.156 244.5 197.916 244.093 198.45 243.28C198.516 243.147 198.603 243.127 198.71 243.22L199.85 243.98C199.943 244.06 199.963 244.147 199.91 244.24C199.536 244.84 199.003 245.313 198.31 245.66C197.63 246.007 196.856 246.18 195.99 246.18C195.016 246.18 194.196 245.967 193.53 245.54C192.863 245.113 192.363 244.507 192.03 243.72C191.71 242.933 191.55 241.98 191.55 240.86C191.55 239.887 191.623 239.147 191.77 238.64C192.01 237.72 192.49 236.993 193.21 236.46C193.93 235.927 194.803 235.66 195.83 235.66C197.176 235.66 198.183 236 198.85 236.68C199.516 237.347 199.923 238.333 200.07 239.64ZM195.83 237.32C195.256 237.32 194.783 237.467 194.41 237.76C194.036 238.04 193.783 238.42 193.65 238.9C193.556 239.193 193.496 239.567 193.47 240.02C193.47 240.073 193.496 240.1 193.55 240.1H198.13C198.183 240.1 198.21 240.073 198.21 240.02C198.183 239.58 198.143 239.253 198.09 239.04C197.956 238.52 197.69 238.107 197.29 237.8C196.903 237.48 196.416 237.32 195.83 237.32ZM205.976 246.12C205.176 246.12 204.469 246 203.856 245.76C203.256 245.52 202.789 245.193 202.456 244.78C202.123 244.353 201.956 243.887 201.956 243.38V243.16C201.956 243.027 202.023 242.96 202.156 242.96H203.596C203.729 242.96 203.796 243.027 203.796 243.16V243.26C203.796 243.633 203.996 243.96 204.396 244.24C204.809 244.52 205.329 244.66 205.956 244.66C206.556 244.66 207.043 244.533 207.416 244.28C207.789 244.013 207.976 243.68 207.976 243.28C207.976 242.893 207.803 242.607 207.456 242.42C207.109 242.22 206.549 242.013 205.776 241.8C205.016 241.587 204.376 241.373 203.856 241.16C203.349 240.933 202.916 240.62 202.556 240.22C202.209 239.807 202.036 239.28 202.036 238.64C202.036 237.747 202.383 237.04 203.076 236.52C203.783 235.987 204.716 235.72 205.876 235.72C206.649 235.72 207.329 235.847 207.916 236.1C208.516 236.34 208.976 236.68 209.296 237.12C209.616 237.56 209.776 238.053 209.776 238.6V238.66C209.776 238.793 209.709 238.86 209.576 238.86H208.176C208.043 238.86 207.976 238.793 207.976 238.66V238.6C207.976 238.213 207.783 237.893 207.396 237.64C207.023 237.373 206.509 237.24 205.856 237.24C205.269 237.24 204.789 237.353 204.416 237.58C204.056 237.807 203.876 238.113 203.876 238.5C203.876 238.887 204.049 239.18 204.396 239.38C204.756 239.58 205.329 239.793 206.116 240.02C206.889 240.233 207.529 240.447 208.036 240.66C208.556 240.86 208.996 241.167 209.356 241.58C209.716 241.98 209.896 242.507 209.896 243.16C209.896 244.067 209.536 244.787 208.816 245.32C208.109 245.853 207.163 246.12 205.976 246.12ZM215.488 246.12C214.688 246.12 213.981 246 213.368 245.76C212.768 245.52 212.301 245.193 211.968 244.78C211.634 244.353 211.468 243.887 211.468 243.38V243.16C211.468 243.027 211.534 242.96 211.668 242.96H213.108C213.241 242.96 213.308 243.027 213.308 243.16V243.26C213.308 243.633 213.508 243.96 213.908 244.24C214.321 244.52 214.841 244.66 215.468 244.66C216.068 244.66 216.554 244.533 216.928 244.28C217.301 244.013 217.488 243.68 217.488 243.28C217.488 242.893 217.314 242.607 216.968 242.42C216.621 242.22 216.061 242.013 215.288 241.8C214.528 241.587 213.888 241.373 213.368 241.16C212.861 240.933 212.428 240.62 212.068 240.22C211.721 239.807 211.548 239.28 211.548 238.64C211.548 237.747 211.894 237.04 212.588 236.52C213.294 235.987 214.228 235.72 215.388 235.72C216.161 235.72 216.841 235.847 217.428 236.1C218.028 236.34 218.488 236.68 218.808 237.12C219.128 237.56 219.288 238.053 219.288 238.6V238.66C219.288 238.793 219.221 238.86 219.088 238.86H217.688C217.554 238.86 217.488 238.793 217.488 238.66V238.6C217.488 238.213 217.294 237.893 216.908 237.64C216.534 237.373 216.021 237.24 215.368 237.24C214.781 237.24 214.301 237.353 213.928 237.58C213.568 237.807 213.388 238.113 213.388 238.5C213.388 238.887 213.561 239.18 213.908 239.38C214.268 239.58 214.841 239.793 215.628 240.02C216.401 240.233 217.041 240.447 217.548 240.66C218.068 240.86 218.508 241.167 218.868 241.58C219.228 241.98 219.408 242.507 219.408 243.16C219.408 244.067 219.048 244.787 218.328 245.32C217.621 245.853 216.674 246.12 215.488 246.12ZM226.098 246C225.964 246 225.898 245.933 225.898 245.8V232.2C225.898 232.067 225.964 232 226.098 232H227.618C227.751 232 227.818 232.067 227.818 232.2V244.26C227.818 244.313 227.844 244.34 227.898 244.34H234.798C234.931 244.34 234.998 244.407 234.998 244.54V245.8C234.998 245.933 234.931 246 234.798 246H226.098ZM238.224 234.22C237.851 234.22 237.544 234.1 237.304 233.86C237.064 233.62 236.944 233.313 236.944 232.94C236.944 232.567 237.064 232.26 237.304 232.02C237.544 231.78 237.851 231.66 238.224 231.66C238.597 231.66 238.904 231.78 239.144 232.02C239.384 232.26 239.504 232.567 239.504 232.94C239.504 233.313 239.384 233.62 239.144 233.86C238.904 234.1 238.597 234.22 238.224 234.22ZM237.424 245.98C237.291 245.98 237.224 245.913 237.224 245.78V236.02C237.224 235.887 237.291 235.82 237.424 235.82H238.944C239.077 235.82 239.144 235.887 239.144 236.02V245.78C239.144 245.913 239.077 245.98 238.944 245.98H237.424ZM246.642 233.68C245.975 233.68 245.522 233.807 245.282 234.06C245.042 234.313 244.922 234.793 244.922 235.5V235.74C244.922 235.793 244.948 235.82 245.002 235.82H247.102C247.235 235.82 247.302 235.887 247.302 236.02V237.38C247.302 237.513 247.235 237.58 247.102 237.58H245.002C244.948 237.58 244.922 237.607 244.922 237.66V245.8C244.922 245.933 244.855 246 244.722 246H243.202C243.068 246 243.002 245.933 243.002 245.8V237.66C243.002 237.607 242.975 237.58 242.922 237.58H241.582C241.448 237.58 241.382 237.513 241.382 237.38V236.02C241.382 235.887 241.448 235.82 241.582 235.82H242.922C242.975 235.82 243.002 235.793 243.002 235.74V235.38C243.002 234.5 243.102 233.82 243.302 233.34C243.515 232.86 243.868 232.52 244.362 232.32C244.855 232.107 245.548 232 246.442 232H247.122C247.255 232 247.322 232.067 247.322 232.2V233.48C247.322 233.613 247.255 233.68 247.122 233.68H246.642ZM256.925 239.64C256.978 240.187 256.998 240.8 256.985 241.48C256.985 241.613 256.918 241.68 256.785 241.68H250.405C250.352 241.68 250.325 241.707 250.325 241.76C250.325 242.213 250.365 242.56 250.445 242.8C250.592 243.333 250.885 243.753 251.325 244.06C251.778 244.353 252.345 244.5 253.025 244.5C254.012 244.5 254.772 244.093 255.305 243.28C255.372 243.147 255.458 243.127 255.565 243.22L256.705 243.98C256.798 244.06 256.818 244.147 256.765 244.24C256.392 244.84 255.858 245.313 255.165 245.66C254.485 246.007 253.712 246.18 252.845 246.18C251.872 246.18 251.052 245.967 250.385 245.54C249.718 245.113 249.218 244.507 248.885 243.72C248.565 242.933 248.405 241.98 248.405 240.86C248.405 239.887 248.478 239.147 248.625 238.64C248.865 237.72 249.345 236.993 250.065 236.46C250.785 235.927 251.658 235.66 252.685 235.66C254.032 235.66 255.038 236 255.705 236.68C256.372 237.347 256.778 238.333 256.925 239.64ZM252.685 237.32C252.112 237.32 251.638 237.467 251.265 237.76C250.892 238.04 250.638 238.42 250.505 238.9C250.412 239.193 250.352 239.567 250.325 240.02C250.325 240.073 250.352 240.1 250.405 240.1H254.985C255.038 240.1 255.065 240.073 255.065 240.02C255.038 239.58 254.998 239.253 254.945 239.04C254.812 238.52 254.545 238.107 254.145 237.8C253.758 237.48 253.272 237.32 252.685 237.32ZM262.832 246.12C262.032 246.12 261.325 246 260.712 245.76C260.112 245.52 259.645 245.193 259.312 244.78C258.978 244.353 258.812 243.887 258.812 243.38V243.16C258.812 243.027 258.878 242.96 259.012 242.96H260.452C260.585 242.96 260.652 243.027 260.652 243.16V243.26C260.652 243.633 260.852 243.96 261.252 244.24C261.665 244.52 262.185 244.66 262.812 244.66C263.412 244.66 263.898 244.533 264.272 244.28C264.645 244.013 264.832 243.68 264.832 243.28C264.832 242.893 264.658 242.607 264.312 242.42C263.965 242.22 263.405 242.013 262.632 241.8C261.872 241.587 261.232 241.373 260.712 241.16C260.205 240.933 259.772 240.62 259.412 240.22C259.065 239.807 258.892 239.28 258.892 238.64C258.892 237.747 259.238 237.04 259.932 236.52C260.638 235.987 261.572 235.72 262.732 235.72C263.505 235.72 264.185 235.847 264.772 236.1C265.372 236.34 265.832 236.68 266.152 237.12C266.472 237.56 266.632 238.053 266.632 238.6V238.66C266.632 238.793 266.565 238.86 266.432 238.86H265.032C264.898 238.86 264.832 238.793 264.832 238.66V238.6C264.832 238.213 264.638 237.893 264.252 237.64C263.878 237.373 263.365 237.24 262.712 237.24C262.125 237.24 261.645 237.353 261.272 237.58C260.912 237.807 260.732 238.113 260.732 238.5C260.732 238.887 260.905 239.18 261.252 239.38C261.612 239.58 262.185 239.793 262.972 240.02C263.745 240.233 264.385 240.447 264.892 240.66C265.412 240.86 265.852 241.167 266.212 241.58C266.572 241.98 266.752 242.507 266.752 243.16C266.752 244.067 266.392 244.787 265.672 245.32C264.965 245.853 264.018 246.12 262.832 246.12ZM273.998 237.2C273.998 237.333 273.931 237.4 273.798 237.4H271.638C271.585 237.4 271.558 237.427 271.558 237.48V242.78C271.558 243.34 271.685 243.747 271.938 244C272.191 244.24 272.585 244.36 273.118 244.36H273.698C273.831 244.36 273.898 244.427 273.898 244.56V245.8C273.898 245.933 273.831 246 273.698 246C273.271 246.027 272.965 246.04 272.778 246.04C271.765 246.04 270.998 245.86 270.478 245.5C269.971 245.127 269.718 244.447 269.718 243.46V237.48C269.718 237.427 269.691 237.4 269.638 237.4H268.418C268.285 237.4 268.218 237.333 268.218 237.2V236.02C268.218 235.887 268.285 235.82 268.418 235.82H269.638C269.691 235.82 269.718 235.793 269.718 235.74V233.38C269.718 233.247 269.785 233.18 269.918 233.18H271.358C271.491 233.18 271.558 233.247 271.558 233.38V235.74C271.558 235.793 271.585 235.82 271.638 235.82H273.798C273.931 235.82 273.998 235.887 273.998 236.02V237.2ZM276.061 249.98C275.968 249.98 275.921 249.913 275.921 249.78V248.6C275.921 248.467 275.988 248.4 276.121 248.4H276.161C276.694 248.387 277.114 248.32 277.421 248.2C277.728 248.08 277.981 247.853 278.181 247.52C278.381 247.2 278.574 246.713 278.761 246.06C278.774 246.047 278.774 246.027 278.761 246C278.761 245.96 278.761 245.94 278.761 245.94L275.421 236.04L275.401 235.96C275.401 235.867 275.461 235.82 275.581 235.82H277.201C277.321 235.82 277.401 235.873 277.441 235.98L279.701 243.52C279.714 243.547 279.734 243.56 279.761 243.56C279.788 243.56 279.808 243.547 279.821 243.52L282.061 235.98C282.101 235.873 282.181 235.82 282.301 235.82H283.881C284.028 235.82 284.081 235.893 284.041 236.04L280.401 246.7C280.094 247.62 279.788 248.3 279.481 248.74C279.174 249.193 278.774 249.513 278.281 249.7C277.788 249.887 277.094 249.98 276.201 249.98H276.061ZM286.092 246C285.959 246 285.892 245.933 285.892 245.8V232.2C285.892 232.067 285.959 232 286.092 232H287.612C287.746 232 287.812 232.067 287.812 232.2V245.8C287.812 245.933 287.746 246 287.612 246H286.092ZM298.839 239.64C298.893 240.187 298.913 240.8 298.899 241.48C298.899 241.613 298.833 241.68 298.699 241.68H292.319C292.266 241.68 292.239 241.707 292.239 241.76C292.239 242.213 292.279 242.56 292.359 242.8C292.506 243.333 292.799 243.753 293.239 244.06C293.693 244.353 294.259 244.5 294.939 244.5C295.926 244.5 296.686 244.093 297.219 243.28C297.286 243.147 297.373 243.127 297.479 243.22L298.619 243.98C298.713 244.06 298.733 244.147 298.679 244.24C298.306 244.84 297.773 245.313 297.079 245.66C296.399 246.007 295.626 246.18 294.759 246.18C293.786 246.18 292.966 245.967 292.299 245.54C291.633 245.113 291.133 244.507 290.799 243.72C290.479 242.933 290.319 241.98 290.319 240.86C290.319 239.887 290.393 239.147 290.539 238.64C290.779 237.72 291.259 236.993 291.979 236.46C292.699 235.927 293.573 235.66 294.599 235.66C295.946 235.66 296.953 236 297.619 236.68C298.286 237.347 298.693 238.333 298.839 239.64ZM294.599 237.32C294.026 237.32 293.553 237.467 293.179 237.76C292.806 238.04 292.553 238.42 292.419 238.9C292.326 239.193 292.266 239.567 292.239 240.02C292.239 240.073 292.266 240.1 292.319 240.1H296.899C296.953 240.1 296.979 240.073 296.979 240.02C296.953 239.58 296.913 239.253 296.859 239.04C296.726 238.52 296.459 238.107 296.059 237.8C295.673 237.48 295.186 237.32 294.599 237.32Z" fill="#E6E6E6"/>
<path d="M123.658 282.928C123.658 283.021 123.611 283.068 123.518 283.068H118.366C118.329 283.068 118.31 283.087 118.31 283.124V286.582C118.31 286.619 118.329 286.638 118.366 286.638H121.978C122.071 286.638 122.118 286.685 122.118 286.778V287.366C122.118 287.459 122.071 287.506 121.978 287.506H118.366C118.329 287.506 118.31 287.525 118.31 287.562V291.076C118.31 291.113 118.329 291.132 118.366 291.132H123.518C123.611 291.132 123.658 291.179 123.658 291.272V291.86C123.658 291.953 123.611 292 123.518 292H117.456C117.363 292 117.316 291.953 117.316 291.86V282.34C117.316 282.247 117.363 282.2 117.456 282.2H123.518C123.611 282.2 123.658 282.247 123.658 282.34V282.928ZM128.537 284.818C129.283 284.818 129.876 285.037 130.315 285.476C130.763 285.915 130.987 286.503 130.987 287.24V291.86C130.987 291.953 130.94 292 130.847 292H130.133C130.039 292 129.993 291.953 129.993 291.86V287.436C129.993 286.923 129.834 286.503 129.517 286.176C129.209 285.849 128.807 285.686 128.313 285.686C127.799 285.686 127.384 285.845 127.067 286.162C126.749 286.479 126.591 286.895 126.591 287.408V291.86C126.591 291.953 126.544 292 126.451 292H125.737C125.643 292 125.597 291.953 125.597 291.86V285.056C125.597 284.963 125.643 284.916 125.737 284.916H126.451C126.544 284.916 126.591 284.963 126.591 285.056V285.658C126.591 285.677 126.595 285.691 126.605 285.7C126.623 285.709 126.637 285.705 126.647 285.686C127.057 285.107 127.687 284.818 128.537 284.818ZM136.321 285.602C136.321 285.695 136.275 285.742 136.181 285.742H134.599C134.562 285.742 134.543 285.761 134.543 285.798V289.928C134.543 290.376 134.641 290.693 134.837 290.88C135.043 291.057 135.36 291.146 135.789 291.146H136.139C136.233 291.146 136.279 291.193 136.279 291.286V291.86C136.279 291.953 136.233 292 136.139 292C136.027 292.009 135.855 292.014 135.621 292.014C134.949 292.014 134.441 291.888 134.095 291.636C133.75 291.384 133.577 290.917 133.577 290.236V285.798C133.577 285.761 133.559 285.742 133.521 285.742H132.667C132.574 285.742 132.527 285.695 132.527 285.602V285.056C132.527 284.963 132.574 284.916 132.667 284.916H133.521C133.559 284.916 133.577 284.897 133.577 284.86V283.236C133.577 283.143 133.624 283.096 133.717 283.096H134.403C134.497 283.096 134.543 283.143 134.543 283.236V284.86C134.543 284.897 134.562 284.916 134.599 284.916H136.181C136.275 284.916 136.321 284.963 136.321 285.056V285.602ZM143.47 287.268C143.507 287.529 143.526 287.856 143.526 288.248V288.696C143.526 288.789 143.479 288.836 143.386 288.836H138.864C138.827 288.836 138.808 288.855 138.808 288.892C138.827 289.405 138.855 289.737 138.892 289.886C138.995 290.306 139.214 290.637 139.55 290.88C139.886 291.123 140.315 291.244 140.838 291.244C141.23 291.244 141.575 291.155 141.874 290.978C142.173 290.801 142.406 290.549 142.574 290.222C142.63 290.138 142.695 290.119 142.77 290.166L143.316 290.488C143.391 290.535 143.409 290.6 143.372 290.684C143.139 291.132 142.789 291.487 142.322 291.748C141.855 292 141.319 292.126 140.712 292.126C140.049 292.117 139.494 291.958 139.046 291.65C138.598 291.342 138.276 290.913 138.08 290.362C137.912 289.914 137.828 289.27 137.828 288.43C137.828 288.038 137.833 287.721 137.842 287.478C137.861 287.226 137.898 287.002 137.954 286.806C138.113 286.199 138.43 285.714 138.906 285.35C139.391 284.986 139.975 284.804 140.656 284.804C141.505 284.804 142.159 285.019 142.616 285.448C143.073 285.877 143.358 286.484 143.47 287.268ZM140.656 285.672C140.199 285.672 139.816 285.793 139.508 286.036C139.209 286.269 139.013 286.587 138.92 286.988C138.864 287.184 138.827 287.501 138.808 287.94C138.808 287.977 138.827 287.996 138.864 287.996H142.49C142.527 287.996 142.546 287.977 142.546 287.94C142.527 287.52 142.499 287.221 142.462 287.044C142.359 286.624 142.149 286.293 141.832 286.05C141.524 285.798 141.132 285.672 140.656 285.672ZM148.359 284.846C148.667 284.846 148.933 284.907 149.157 285.028C149.231 285.065 149.259 285.126 149.241 285.21L149.087 285.896C149.059 285.989 148.998 286.017 148.905 285.98C148.746 285.915 148.564 285.882 148.359 285.882L148.177 285.896C147.691 285.915 147.29 286.097 146.973 286.442C146.655 286.778 146.497 287.207 146.497 287.73V291.86C146.497 291.953 146.45 292 146.357 292H145.643C145.549 292 145.503 291.953 145.503 291.86V285.056C145.503 284.963 145.549 284.916 145.643 284.916H146.357C146.45 284.916 146.497 284.963 146.497 285.056V285.91C146.497 285.938 146.501 285.957 146.511 285.966C146.529 285.966 146.543 285.957 146.553 285.938C146.749 285.593 146.996 285.327 147.295 285.14C147.603 284.944 147.957 284.846 148.359 284.846ZM159.957 282.298C160.004 282.233 160.06 282.2 160.125 282.2H160.853C160.946 282.2 160.993 282.247 160.993 282.34V291.86C160.993 291.953 160.946 292 160.853 292H160.139C160.046 292 159.999 291.953 159.999 291.86V284.076C159.999 284.048 159.99 284.029 159.971 284.02C159.952 284.011 159.938 284.02 159.929 284.048L157.647 287.548C157.6 287.613 157.544 287.646 157.479 287.646H157.115C157.05 287.646 156.994 287.618 156.947 287.562L154.665 284.09C154.656 284.062 154.642 284.053 154.623 284.062C154.604 284.071 154.595 284.09 154.595 284.118V291.86C154.595 291.953 154.548 292 154.455 292H153.741C153.648 292 153.601 291.953 153.601 291.86V282.34C153.601 282.247 153.648 282.2 153.741 282.2H154.469C154.544 282.2 154.6 282.228 154.637 282.284L157.269 286.274C157.278 286.283 157.292 286.288 157.311 286.288C157.33 286.288 157.344 286.283 157.353 286.274L159.957 282.298ZM166.115 292.112C165.443 292.112 164.864 291.939 164.379 291.594C163.894 291.249 163.558 290.773 163.371 290.166C163.24 289.737 163.175 289.163 163.175 288.444C163.175 287.725 163.24 287.156 163.371 286.736C163.548 286.139 163.88 285.667 164.365 285.322C164.85 284.977 165.438 284.804 166.129 284.804C166.792 284.804 167.361 284.977 167.837 285.322C168.322 285.667 168.654 286.134 168.831 286.722C168.962 287.123 169.027 287.697 169.027 288.444C169.027 289.2 168.962 289.774 168.831 290.166C168.654 290.773 168.322 291.249 167.837 291.594C167.361 291.939 166.787 292.112 166.115 292.112ZM166.115 291.244C166.563 291.244 166.946 291.123 167.263 290.88C167.58 290.628 167.795 290.292 167.907 289.872C167.991 289.536 168.033 289.065 168.033 288.458C168.033 287.842 167.996 287.371 167.921 287.044C167.809 286.624 167.59 286.293 167.263 286.05C166.946 285.798 166.558 285.672 166.101 285.672C165.644 285.672 165.256 285.798 164.939 286.05C164.622 286.293 164.407 286.624 164.295 287.044C164.22 287.371 164.183 287.842 164.183 288.458C164.183 289.074 164.22 289.545 164.295 289.872C164.398 290.292 164.608 290.628 164.925 290.88C165.252 291.123 165.648 291.244 166.115 291.244ZM176.488 286.722C176.6 287.142 176.656 287.721 176.656 288.458C176.656 289.223 176.591 289.816 176.46 290.236C176.283 290.815 175.975 291.272 175.536 291.608C175.097 291.944 174.551 292.112 173.898 292.112C173.525 292.112 173.184 292.037 172.876 291.888C172.568 291.739 172.311 291.524 172.106 291.244C172.097 291.225 172.083 291.221 172.064 291.23C172.045 291.23 172.036 291.239 172.036 291.258V291.86C172.036 291.953 171.989 292 171.896 292H171.182C171.089 292 171.042 291.953 171.042 291.86V282.34C171.042 282.247 171.089 282.2 171.182 282.2H171.896C171.989 282.2 172.036 282.247 172.036 282.34V285.644C172.036 285.663 172.041 285.677 172.05 285.686C172.069 285.686 172.087 285.677 172.106 285.658C172.311 285.387 172.568 285.177 172.876 285.028C173.184 284.879 173.525 284.804 173.898 284.804C174.561 284.804 175.116 284.977 175.564 285.322C176.012 285.658 176.32 286.125 176.488 286.722ZM175.41 290.152C175.503 289.956 175.569 289.737 175.606 289.494C175.643 289.242 175.662 288.897 175.662 288.458C175.662 288.001 175.634 287.646 175.578 287.394C175.531 287.133 175.452 286.899 175.34 286.694C175.219 286.386 175.023 286.139 174.752 285.952C174.481 285.765 174.159 285.672 173.786 285.672C173.431 285.672 173.123 285.77 172.862 285.966C172.61 286.153 172.428 286.405 172.316 286.722C172.223 286.918 172.153 287.142 172.106 287.394C172.069 287.646 172.05 288.001 172.05 288.458C172.05 288.906 172.069 289.256 172.106 289.508C172.153 289.751 172.218 289.97 172.302 290.166C172.423 290.493 172.61 290.754 172.862 290.95C173.114 291.146 173.427 291.244 173.8 291.244C174.192 291.244 174.528 291.146 174.808 290.95C175.097 290.754 175.298 290.488 175.41 290.152ZM179.356 283.628C179.132 283.628 178.946 283.553 178.796 283.404C178.647 283.255 178.572 283.068 178.572 282.844C178.572 282.611 178.647 282.424 178.796 282.284C178.946 282.135 179.132 282.06 179.356 282.06C179.58 282.06 179.767 282.135 179.916 282.284C180.066 282.424 180.14 282.611 180.14 282.844C180.14 283.068 180.066 283.255 179.916 283.404C179.767 283.553 179.58 283.628 179.356 283.628ZM178.964 291.986C178.871 291.986 178.824 291.939 178.824 291.846V285.042C178.824 284.949 178.871 284.902 178.964 284.902H179.678C179.772 284.902 179.818 284.949 179.818 285.042V291.846C179.818 291.939 179.772 291.986 179.678 291.986H178.964ZM182.393 292C182.299 292 182.253 291.953 182.253 291.86V282.34C182.253 282.247 182.299 282.2 182.393 282.2H183.107C183.2 282.2 183.247 282.247 183.247 282.34V291.86C183.247 291.953 183.2 292 183.107 292H182.393ZM190.911 287.268C190.949 287.529 190.967 287.856 190.967 288.248V288.696C190.967 288.789 190.921 288.836 190.827 288.836H186.305C186.268 288.836 186.249 288.855 186.249 288.892C186.268 289.405 186.296 289.737 186.333 289.886C186.436 290.306 186.655 290.637 186.991 290.88C187.327 291.123 187.757 291.244 188.279 291.244C188.671 291.244 189.017 291.155 189.315 290.978C189.614 290.801 189.847 290.549 190.015 290.222C190.071 290.138 190.137 290.119 190.211 290.166L190.757 290.488C190.832 290.535 190.851 290.6 190.813 290.684C190.58 291.132 190.23 291.487 189.763 291.748C189.297 292 188.76 292.126 188.153 292.126C187.491 292.117 186.935 291.958 186.487 291.65C186.039 291.342 185.717 290.913 185.521 290.362C185.353 289.914 185.269 289.27 185.269 288.43C185.269 288.038 185.274 287.721 185.283 287.478C185.302 287.226 185.339 287.002 185.395 286.806C185.554 286.199 185.871 285.714 186.347 285.35C186.833 284.986 187.416 284.804 188.097 284.804C188.947 284.804 189.6 285.019 190.057 285.448C190.515 285.877 190.799 286.484 190.911 287.268ZM188.097 285.672C187.64 285.672 187.257 285.793 186.949 286.036C186.651 286.269 186.455 286.587 186.361 286.988C186.305 287.184 186.268 287.501 186.249 287.94C186.249 287.977 186.268 287.996 186.305 287.996H189.931C189.969 287.996 189.987 287.977 189.987 287.94C189.969 287.52 189.941 287.221 189.903 287.044C189.801 286.624 189.591 286.293 189.273 286.05C188.965 285.798 188.573 285.672 188.097 285.672ZM201.781 282.34C201.781 282.247 201.828 282.2 201.921 282.2H202.635C202.728 282.2 202.775 282.247 202.775 282.34V291.86C202.775 291.953 202.728 292 202.635 292H201.935C201.87 292 201.814 291.967 201.767 291.902L196.993 284.132C196.984 284.104 196.97 284.095 196.951 284.104C196.932 284.104 196.923 284.118 196.923 284.146L196.937 291.86C196.937 291.953 196.89 292 196.797 292H196.083C195.99 292 195.943 291.953 195.943 291.86V282.34C195.943 282.247 195.99 282.2 196.083 282.2H196.783C196.848 282.2 196.904 282.233 196.951 282.298L201.725 290.068C201.734 290.096 201.748 290.11 201.767 290.11C201.786 290.101 201.795 290.082 201.795 290.054L201.781 282.34ZM209.492 285.056C209.492 284.963 209.539 284.916 209.632 284.916H210.346C210.439 284.916 210.486 284.963 210.486 285.056V291.86C210.486 291.953 210.439 292 210.346 292H209.632C209.539 292 209.492 291.953 209.492 291.86V291.258C209.492 291.239 209.483 291.225 209.464 291.216C209.445 291.207 209.431 291.211 209.422 291.23C209.03 291.809 208.409 292.098 207.56 292.098C207.112 292.098 206.697 292.009 206.314 291.832C205.941 291.645 205.642 291.379 205.418 291.034C205.203 290.689 205.096 290.273 205.096 289.788V285.056C205.096 284.963 205.143 284.916 205.236 284.916H205.95C206.043 284.916 206.09 284.963 206.09 285.056V289.494C206.09 290.026 206.239 290.451 206.538 290.768C206.837 291.076 207.243 291.23 207.756 291.23C208.288 291.23 208.708 291.071 209.016 290.754C209.333 290.437 209.492 290.017 209.492 289.494V285.056ZM219.882 284.818C220.582 284.818 221.132 285.028 221.534 285.448C221.944 285.868 222.15 286.442 222.15 287.17V291.86C222.15 291.953 222.103 292 222.01 292H221.31C221.216 292 221.17 291.953 221.17 291.86V287.366C221.17 286.853 221.02 286.447 220.722 286.148C220.432 285.84 220.05 285.686 219.574 285.686C219.079 285.686 218.678 285.835 218.37 286.134C218.071 286.433 217.922 286.834 217.922 287.338V291.86C217.922 291.953 217.875 292 217.782 292H217.068C216.974 292 216.928 291.953 216.928 291.86V287.366C216.928 286.853 216.783 286.447 216.494 286.148C216.204 285.84 215.817 285.686 215.332 285.686C214.837 285.686 214.44 285.835 214.142 286.134C213.852 286.433 213.708 286.834 213.708 287.338V291.86C213.708 291.953 213.661 292 213.568 292H212.854C212.76 292 212.714 291.953 212.714 291.86V285.056C212.714 284.963 212.76 284.916 212.854 284.916H213.568C213.661 284.916 213.708 284.963 213.708 285.056V285.616C213.708 285.635 213.712 285.649 213.722 285.658C213.74 285.658 213.759 285.649 213.778 285.63C213.983 285.359 214.244 285.159 214.562 285.028C214.888 284.888 215.248 284.818 215.64 284.818C216.125 284.818 216.54 284.916 216.886 285.112C217.231 285.308 217.492 285.593 217.67 285.966C217.688 286.013 217.712 286.013 217.74 285.966C217.945 285.583 218.234 285.299 218.608 285.112C218.981 284.916 219.406 284.818 219.882 284.818ZM229.726 286.722C229.838 287.142 229.894 287.721 229.894 288.458C229.894 289.223 229.829 289.816 229.698 290.236C229.521 290.815 229.213 291.272 228.774 291.608C228.335 291.944 227.789 292.112 227.136 292.112C226.763 292.112 226.422 292.037 226.114 291.888C225.806 291.739 225.549 291.524 225.344 291.244C225.335 291.225 225.321 291.221 225.302 291.23C225.283 291.23 225.274 291.239 225.274 291.258V291.86C225.274 291.953 225.227 292 225.134 292H224.42C224.327 292 224.28 291.953 224.28 291.86V282.34C224.28 282.247 224.327 282.2 224.42 282.2H225.134C225.227 282.2 225.274 282.247 225.274 282.34V285.644C225.274 285.663 225.279 285.677 225.288 285.686C225.307 285.686 225.325 285.677 225.344 285.658C225.549 285.387 225.806 285.177 226.114 285.028C226.422 284.879 226.763 284.804 227.136 284.804C227.799 284.804 228.354 284.977 228.802 285.322C229.25 285.658 229.558 286.125 229.726 286.722ZM228.648 290.152C228.741 289.956 228.807 289.737 228.844 289.494C228.881 289.242 228.9 288.897 228.9 288.458C228.9 288.001 228.872 287.646 228.816 287.394C228.769 287.133 228.69 286.899 228.578 286.694C228.457 286.386 228.261 286.139 227.99 285.952C227.719 285.765 227.397 285.672 227.024 285.672C226.669 285.672 226.361 285.77 226.1 285.966C225.848 286.153 225.666 286.405 225.554 286.722C225.461 286.918 225.391 287.142 225.344 287.394C225.307 287.646 225.288 288.001 225.288 288.458C225.288 288.906 225.307 289.256 225.344 289.508C225.391 289.751 225.456 289.97 225.54 290.166C225.661 290.493 225.848 290.754 226.1 290.95C226.352 291.146 226.665 291.244 227.038 291.244C227.43 291.244 227.766 291.146 228.046 290.95C228.335 290.754 228.536 290.488 228.648 290.152ZM237.259 287.268C237.296 287.529 237.315 287.856 237.315 288.248V288.696C237.315 288.789 237.268 288.836 237.175 288.836H232.653C232.616 288.836 232.597 288.855 232.597 288.892C232.616 289.405 232.644 289.737 232.681 289.886C232.784 290.306 233.003 290.637 233.339 290.88C233.675 291.123 234.104 291.244 234.627 291.244C235.019 291.244 235.364 291.155 235.663 290.978C235.962 290.801 236.195 290.549 236.363 290.222C236.419 290.138 236.484 290.119 236.559 290.166L237.105 290.488C237.18 290.535 237.198 290.6 237.161 290.684C236.928 291.132 236.578 291.487 236.111 291.748C235.644 292 235.108 292.126 234.501 292.126C233.838 292.117 233.283 291.958 232.835 291.65C232.387 291.342 232.065 290.913 231.869 290.362C231.701 289.914 231.617 289.27 231.617 288.43C231.617 288.038 231.622 287.721 231.631 287.478C231.65 287.226 231.687 287.002 231.743 286.806C231.902 286.199 232.219 285.714 232.695 285.35C233.18 284.986 233.764 284.804 234.445 284.804C235.294 284.804 235.948 285.019 236.405 285.448C236.862 285.877 237.147 286.484 237.259 287.268ZM234.445 285.672C233.988 285.672 233.605 285.793 233.297 286.036C232.998 286.269 232.802 286.587 232.709 286.988C232.653 287.184 232.616 287.501 232.597 287.94C232.597 287.977 232.616 287.996 232.653 287.996H236.279C236.316 287.996 236.335 287.977 236.335 287.94C236.316 287.52 236.288 287.221 236.251 287.044C236.148 286.624 235.938 286.293 235.621 286.05C235.313 285.798 234.921 285.672 234.445 285.672ZM242.148 284.846C242.456 284.846 242.722 284.907 242.946 285.028C243.021 285.065 243.049 285.126 243.03 285.21L242.876 285.896C242.848 285.989 242.787 286.017 242.694 285.98C242.535 285.915 242.353 285.882 242.148 285.882L241.966 285.896C241.481 285.915 241.079 286.097 240.762 286.442C240.445 286.778 240.286 287.207 240.286 287.73V291.86C240.286 291.953 240.239 292 240.146 292H239.432C239.339 292 239.292 291.953 239.292 291.86V285.056C239.292 284.963 239.339 284.916 239.432 284.916H240.146C240.239 284.916 240.286 284.963 240.286 285.056V285.91C240.286 285.938 240.291 285.957 240.3 285.966C240.319 285.966 240.333 285.957 240.342 285.938C240.538 285.593 240.785 285.327 241.084 285.14C241.392 284.944 241.747 284.846 242.148 284.846Z" fill="#999999"/>
<rect x="40.5" y="344.5" width="279" height="55" rx="7.5" fill="white" fill-opacity="0.05"/>
<path d="M73.4716 374.612L69.7286 375.338C67.2 374.069 65.6385 372.611 64.7296 370.339L65.4294 366.585L64.107 363.067H60.6976C59.6723 363.067 58.8652 363.914 59.0188 364.928C59.4006 367.457 60.5276 372.045 63.8206 375.338C67.2791 378.796 72.2609 380.297 75.0022 380.894C76.0611 381.124 77 380.299 77 379.214V375.957L73.4716 374.612Z" stroke="#E6E6E6" stroke-width="1.5" stroke-linecap="round" stroke-linejoin="round"/>
<path d="M96.624 378C96.5173 378 96.464 377.947 96.464 377.84V377.248C96.464 377.141 96.5173 377.088 96.624 377.088H103.12C103.227 377.088 103.28 377.141 103.28 377.248V377.84C103.28 377.947 103.227 378 103.12 378H96.624ZM112.377 378C112.27 378 112.217 377.947 112.217 377.84V377.248C112.217 377.141 112.27 377.088 112.377 377.088H118.873C118.98 377.088 119.033 377.141 119.033 377.248V377.84C119.033 377.947 118.98 378 118.873 378H112.377ZM128.13 378C128.024 378 127.97 377.947 127.97 377.84V377.248C127.97 377.141 128.024 377.088 128.13 377.088H134.626C134.733 377.088 134.786 377.141 134.786 377.248V377.84C134.786 377.947 134.733 378 134.626 378H128.13ZM143.883 378C143.777 378 143.723 377.947 143.723 377.84V377.248C143.723 377.141 143.777 377.088 143.883 377.088H150.379C150.486 377.088 150.539 377.141 150.539 377.248V377.84C150.539 377.947 150.486 378 150.379 378H143.883ZM159.637 378C159.53 378 159.477 377.947 159.477 377.84V377.248C159.477 377.141 159.53 377.088 159.637 377.088H166.133C166.239 377.088 166.293 377.141 166.293 377.248V377.84C166.293 377.947 166.239 378 166.133 378H159.637ZM175.39 378C175.283 378 175.23 377.947 175.23 377.84V377.248C175.23 377.141 175.283 377.088 175.39 377.088H181.886C181.992 377.088 182.046 377.141 182.046 377.248V377.84C182.046 377.947 181.992 378 181.886 378H175.39ZM191.143 378C191.036 378 190.983 377.947 190.983 377.84V377.248C190.983 377.141 191.036 377.088 191.143 377.088H197.639C197.745 377.088 197.799 377.141 197.799 377.248V377.84C197.799 377.947 197.745 378 197.639 378H191.143ZM206.896 378C206.789 378 206.736 377.947 206.736 377.84V377.248C206.736 377.141 206.789 377.088 206.896 377.088H213.392C213.499 377.088 213.552 377.141 213.552 377.248V377.84C213.552 377.947 213.499 378 213.392 378H206.896ZM222.649 378C222.542 378 222.489 377.947 222.489 377.84V377.248C222.489 377.141 222.542 377.088 222.649 377.088H229.145C229.252 377.088 229.305 377.141 229.305 377.248V377.84C229.305 377.947 229.252 378 229.145 378H222.649ZM238.402 378C238.295 378 238.242 377.947 238.242 377.84V377.248C238.242 377.141 238.295 377.088 238.402 377.088H244.898C245.005 377.088 245.058 377.141 245.058 377.248V377.84C245.058 377.947 245.005 378 244.898 378H238.402Z" fill="#E6E6E6"/>
<rect x="40.5" y="344.5" width="279" height="55" rx="7.5" stroke="white"/>
<path d="M43.684 431.108C43.108 431.108 42.596 430.996 42.148 430.772C41.708 430.54 41.364 430.216 41.116 429.8C40.876 429.376 40.756 428.892 40.756 428.348V425.24C40.756 424.696 40.876 424.22 41.116 423.812C41.364 423.396 41.708 423.076 42.148 422.852C42.596 422.62 43.108 422.504 43.684 422.504C44.26 422.504 44.768 422.616 45.208 422.84C45.648 423.056 45.988 423.364 46.228 423.764C46.476 424.164 46.6 424.628 46.6 425.156V425.168C46.6 425.208 46.588 425.24 46.564 425.264C46.54 425.288 46.512 425.3 46.48 425.3L45.568 425.348C45.488 425.348 45.448 425.312 45.448 425.24V425.204C45.448 424.692 45.288 424.28 44.968 423.968C44.648 423.656 44.22 423.5 43.684 423.5C43.148 423.5 42.716 423.656 42.388 423.968C42.068 424.28 41.908 424.692 41.908 425.204V428.396C41.908 428.908 42.068 429.32 42.388 429.632C42.716 429.944 43.148 430.1 43.684 430.1C44.22 430.1 44.648 429.944 44.968 429.632C45.288 429.32 45.448 428.908 45.448 428.396V428.372C45.448 428.3 45.488 428.264 45.568 428.264L46.48 428.312C46.56 428.312 46.6 428.352 46.6 428.432C46.6 428.96 46.476 429.428 46.228 429.836C45.988 430.236 45.648 430.548 45.208 430.772C44.768 430.996 44.26 431.108 43.684 431.108ZM50.2908 424.796C50.7788 424.796 51.2028 424.884 51.5628 425.06C51.9308 425.228 52.2108 425.468 52.4028 425.78C52.6028 426.084 52.7028 426.432 52.7028 426.824V430.88C52.7028 430.96 52.6628 431 52.5828 431H51.6708C51.5908 431 51.5508 430.96 51.5508 430.88V430.448C51.5508 430.408 51.5308 430.4 51.4908 430.424C51.2828 430.64 51.0268 430.808 50.7228 430.928C50.4268 431.04 50.0948 431.096 49.7268 431.096C49.1348 431.096 48.6428 430.948 48.2508 430.652C47.8668 430.348 47.6748 429.892 47.6748 429.284C47.6748 428.66 47.8908 428.172 48.3228 427.82C48.7628 427.46 49.3748 427.28 50.1588 427.28H51.5028C51.5348 427.28 51.5508 427.264 51.5508 427.232V426.908C51.5508 426.556 51.4468 426.284 51.2388 426.092C51.0388 425.892 50.7308 425.792 50.3148 425.792C49.9788 425.792 49.7028 425.86 49.4868 425.996C49.2788 426.124 49.1508 426.3 49.1028 426.524C49.0788 426.604 49.0308 426.64 48.9588 426.632L47.9868 426.5C47.9068 426.484 47.8708 426.452 47.8788 426.404C47.9428 425.932 48.1948 425.548 48.6348 425.252C49.0748 424.948 49.6268 424.796 50.2908 424.796ZM49.9788 430.124C50.4028 430.124 50.7708 430.012 51.0828 429.788C51.3948 429.564 51.5508 429.28 51.5508 428.936V428.228C51.5508 428.196 51.5348 428.18 51.5028 428.18H50.3748C49.9028 428.18 49.5268 428.272 49.2468 428.456C48.9668 428.64 48.8268 428.896 48.8268 429.224C48.8268 429.52 48.9308 429.744 49.1388 429.896C49.3548 430.048 49.6348 430.124 49.9788 430.124ZM56.934 424.832C57.19 424.832 57.422 424.884 57.63 424.988C57.686 425.012 57.706 425.06 57.69 425.132L57.498 426.032C57.49 426.104 57.442 426.128 57.354 426.104C57.218 426.048 57.058 426.02 56.874 426.02L56.706 426.032C56.33 426.048 56.018 426.18 55.77 426.428C55.53 426.668 55.41 426.984 55.41 427.376V430.88C55.41 430.96 55.37 431 55.29 431H54.378C54.298 431 54.258 430.96 54.258 430.88V425.012C54.258 424.932 54.298 424.892 54.378 424.892H55.29C55.37 424.892 55.41 424.932 55.41 425.012V425.648C55.41 425.672 55.414 425.688 55.422 425.696C55.438 425.696 55.45 425.688 55.458 425.672C55.818 425.112 56.31 424.832 56.934 424.832ZM61.3871 424.832C61.6431 424.832 61.8751 424.884 62.0831 424.988C62.1391 425.012 62.1591 425.06 62.1431 425.132L61.9511 426.032C61.9431 426.104 61.8951 426.128 61.8071 426.104C61.6711 426.048 61.5111 426.02 61.3271 426.02L61.1591 426.032C60.7831 426.048 60.4711 426.18 60.2231 426.428C59.9831 426.668 59.8631 426.984 59.8631 427.376V430.88C59.8631 430.96 59.8231 431 59.7431 431H58.8311C58.7511 431 58.7111 430.96 58.7111 430.88V425.012C58.7111 424.932 58.7511 424.892 58.8311 424.892H59.7431C59.8231 424.892 59.8631 424.932 59.8631 425.012V425.648C59.8631 425.672 59.8671 425.688 59.8751 425.696C59.8911 425.696 59.9031 425.688 59.9111 425.672C60.2711 425.112 60.7631 424.832 61.3871 424.832ZM63.8602 423.932C63.6362 423.932 63.4522 423.86 63.3082 423.716C63.1642 423.572 63.0922 423.388 63.0922 423.164C63.0922 422.94 63.1642 422.756 63.3082 422.612C63.4522 422.468 63.6362 422.396 63.8602 422.396C64.0842 422.396 64.2682 422.468 64.4122 422.612C64.5562 422.756 64.6282 422.94 64.6282 423.164C64.6282 423.388 64.5562 423.572 64.4122 423.716C64.2682 423.86 64.0842 423.932 63.8602 423.932ZM63.3802 430.988C63.3002 430.988 63.2602 430.948 63.2602 430.868V425.012C63.2602 424.932 63.3002 424.892 63.3802 424.892H64.2922C64.3722 424.892 64.4122 424.932 64.4122 425.012V430.868C64.4122 430.948 64.3722 430.988 64.2922 430.988H63.3802ZM71.1668 427.184C71.1988 427.512 71.2108 427.88 71.2028 428.288C71.2028 428.368 71.1628 428.408 71.0828 428.408H67.2548C67.2228 428.408 67.2068 428.424 67.2068 428.456C67.2068 428.728 67.2308 428.936 67.2788 429.08C67.3668 429.4 67.5428 429.652 67.8068 429.836C68.0788 430.012 68.4188 430.1 68.8268 430.1C69.4188 430.1 69.8748 429.856 70.1948 429.368C70.2348 429.288 70.2868 429.276 70.3508 429.332L71.0348 429.788C71.0908 429.836 71.1028 429.888 71.0708 429.944C70.8468 430.304 70.5268 430.588 70.1108 430.796C69.7028 431.004 69.2388 431.108 68.7188 431.108C68.1348 431.108 67.6428 430.98 67.2428 430.724C66.8428 430.468 66.5428 430.104 66.3428 429.632C66.1508 429.16 66.0548 428.588 66.0548 427.916C66.0548 427.332 66.0988 426.888 66.1868 426.584C66.3308 426.032 66.6188 425.596 67.0508 425.276C67.4828 424.956 68.0068 424.796 68.6228 424.796C69.4308 424.796 70.0348 425 70.4348 425.408C70.8348 425.808 71.0788 426.4 71.1668 427.184ZM68.6228 425.792C68.2788 425.792 67.9948 425.88 67.7708 426.056C67.5468 426.224 67.3948 426.452 67.3148 426.74C67.2588 426.916 67.2228 427.14 67.2068 427.412C67.2068 427.444 67.2228 427.46 67.2548 427.46H70.0028C70.0348 427.46 70.0508 427.444 70.0508 427.412C70.0348 427.148 70.0108 426.952 69.9788 426.824C69.8988 426.512 69.7388 426.264 69.4988 426.08C69.2668 425.888 68.9748 425.792 68.6228 425.792ZM75.3324 424.832C75.5884 424.832 75.8204 424.884 76.0284 424.988C76.0844 425.012 76.1044 425.06 76.0884 425.132L75.8964 426.032C75.8884 426.104 75.8404 426.128 75.7524 426.104C75.6164 426.048 75.4564 426.02 75.2724 426.02L75.1044 426.032C74.7284 426.048 74.4164 426.18 74.1684 426.428C73.9284 426.668 73.8084 426.984 73.8084 427.376V430.88C73.8084 430.96 73.7684 431 73.6884 431H72.7764C72.6964 431 72.6564 430.96 72.6564 430.88V425.012C72.6564 424.932 72.6964 424.892 72.7764 424.892H73.6884C73.7684 424.892 73.8084 424.932 73.8084 425.012V425.648C73.8084 425.672 73.8124 425.688 73.8204 425.696C73.8364 425.696 73.8484 425.688 73.8564 425.672C74.2164 425.112 74.7084 424.832 75.3324 424.832ZM81.9599 431.096C81.3519 431.096 80.8319 430.944 80.3999 430.64C79.9679 430.328 79.6719 429.908 79.5119 429.38C79.3919 429.012 79.3319 428.528 79.3319 427.928C79.3319 427.376 79.3919 426.892 79.5119 426.476C79.6719 425.964 79.9679 425.556 80.3999 425.252C80.8399 424.948 81.3599 424.796 81.9599 424.796C82.5599 424.796 83.0839 424.948 83.5319 425.252C83.9799 425.556 84.2719 425.94 84.4079 426.404C84.4559 426.532 84.4879 426.664 84.5039 426.8C84.5039 426.864 84.4679 426.904 84.3959 426.92L83.4959 427.052H83.4719C83.4159 427.052 83.3759 427.016 83.3519 426.944L83.3159 426.752C83.2519 426.48 83.0959 426.252 82.8479 426.068C82.5999 425.884 82.2999 425.792 81.9479 425.792C81.6039 425.792 81.3119 425.884 81.0719 426.068C80.8319 426.252 80.6759 426.496 80.6039 426.8C80.5319 427.088 80.4959 427.468 80.4959 427.94C80.4959 428.404 80.5319 428.78 80.6039 429.068C80.6839 429.388 80.8399 429.64 81.0719 429.824C81.3119 430.008 81.6039 430.1 81.9479 430.1C82.2999 430.1 82.5999 430.008 82.8479 429.824C83.1039 429.64 83.2639 429.4 83.3279 429.104C83.3359 429.096 83.3359 429.088 83.3279 429.08C83.3279 429.064 83.3319 429.052 83.3399 429.044V428.996C83.3639 428.932 83.4079 428.908 83.4719 428.924L84.3719 429.068C84.4359 429.084 84.4679 429.116 84.4679 429.164V429.212C84.4679 429.284 84.4479 429.372 84.4079 429.476C84.2719 429.964 83.9799 430.356 83.5319 430.652C83.0839 430.948 82.5599 431.096 81.9599 431.096ZM88.5523 424.808C89.2083 424.808 89.7283 425 90.1123 425.384C90.4963 425.76 90.6883 426.272 90.6883 426.92V430.88C90.6883 430.96 90.6483 431 90.5683 431H89.6563C89.5763 431 89.5363 430.96 89.5363 430.88V427.148C89.5363 426.748 89.4203 426.424 89.1883 426.176C88.9563 425.928 88.6483 425.804 88.2643 425.804C87.8883 425.804 87.5803 425.928 87.3403 426.176C87.1003 426.424 86.9803 426.744 86.9803 427.136V430.88C86.9803 430.96 86.9403 431 86.8603 431H85.9483C85.8683 431 85.8283 430.96 85.8283 430.88V422.72C85.8283 422.64 85.8683 422.6 85.9483 422.6H86.8603C86.9403 422.6 86.9803 422.64 86.9803 422.72V425.444C86.9803 425.46 86.9843 425.472 86.9923 425.48C87.0083 425.488 87.0203 425.484 87.0283 425.468C87.3723 425.028 87.8803 424.808 88.5523 424.808ZM94.5642 424.796C95.0522 424.796 95.4762 424.884 95.8362 425.06C96.2042 425.228 96.4842 425.468 96.6762 425.78C96.8762 426.084 96.9762 426.432 96.9762 426.824V430.88C96.9762 430.96 96.9362 431 96.8562 431H95.9442C95.8642 431 95.8242 430.96 95.8242 430.88V430.448C95.8242 430.408 95.8042 430.4 95.7642 430.424C95.5562 430.64 95.3002 430.808 94.9962 430.928C94.7002 431.04 94.3682 431.096 94.0002 431.096C93.4082 431.096 92.9162 430.948 92.5242 430.652C92.1402 430.348 91.9482 429.892 91.9482 429.284C91.9482 428.66 92.1642 428.172 92.5962 427.82C93.0362 427.46 93.6482 427.28 94.4322 427.28H95.7762C95.8082 427.28 95.8242 427.264 95.8242 427.232V426.908C95.8242 426.556 95.7202 426.284 95.5122 426.092C95.3122 425.892 95.0042 425.792 94.5882 425.792C94.2522 425.792 93.9762 425.86 93.7602 425.996C93.5522 426.124 93.4242 426.3 93.3762 426.524C93.3522 426.604 93.3042 426.64 93.2322 426.632L92.2602 426.5C92.1802 426.484 92.1442 426.452 92.1522 426.404C92.2162 425.932 92.4682 425.548 92.9082 425.252C93.3482 424.948 93.9002 424.796 94.5642 424.796ZM94.2522 430.124C94.6762 430.124 95.0442 430.012 95.3562 429.788C95.6682 429.564 95.8242 429.28 95.8242 428.936V428.228C95.8242 428.196 95.8082 428.18 95.7762 428.18H94.6482C94.1762 428.18 93.8002 428.272 93.5202 428.456C93.2402 428.64 93.1002 428.896 93.1002 429.224C93.1002 429.52 93.2042 429.744 93.4122 429.896C93.6282 430.048 93.9082 430.124 94.2522 430.124ZM101.207 424.832C101.463 424.832 101.695 424.884 101.903 424.988C101.959 425.012 101.979 425.06 101.963 425.132L101.771 426.032C101.763 426.104 101.715 426.128 101.627 426.104C101.491 426.048 101.331 426.02 101.147 426.02L100.979 426.032C100.603 426.048 100.291 426.18 100.043 426.428C99.8034 426.668 99.6834 426.984 99.6834 427.376V430.88C99.6834 430.96 99.6434 431 99.5634 431H98.6514C98.5714 431 98.5314 430.96 98.5314 430.88V425.012C98.5314 424.932 98.5714 424.892 98.6514 424.892H99.5634C99.6434 424.892 99.6834 424.932 99.6834 425.012V425.648C99.6834 425.672 99.6874 425.688 99.6954 425.696C99.7114 425.696 99.7234 425.688 99.7314 425.672C100.091 425.112 100.583 424.832 101.207 424.832ZM106.553 425.012C106.553 424.932 106.593 424.892 106.673 424.892H107.585C107.665 424.892 107.705 424.932 107.705 425.012V430.688C107.705 431.656 107.429 432.348 106.877 432.764C106.333 433.18 105.601 433.388 104.681 433.388C104.553 433.388 104.353 433.38 104.081 433.364C104.001 433.356 103.961 433.312 103.961 433.232L103.997 432.404C103.997 432.372 104.009 432.344 104.033 432.32C104.057 432.296 104.089 432.288 104.129 432.296C104.241 432.304 104.405 432.308 104.621 432.308C105.301 432.308 105.793 432.18 106.097 431.924C106.401 431.676 106.553 431.252 106.553 430.652V430.436C106.553 430.42 106.545 430.408 106.529 430.4C106.521 430.392 106.509 430.396 106.493 430.412C106.157 430.804 105.665 431 105.017 431C104.497 431 104.025 430.864 103.601 430.592C103.185 430.32 102.897 429.92 102.737 429.392C102.633 429.04 102.581 428.552 102.581 427.928C102.581 427.264 102.641 426.752 102.761 426.392C102.913 425.912 103.181 425.528 103.565 425.24C103.957 424.944 104.417 424.796 104.945 424.796C105.601 424.796 106.117 424.996 106.493 425.396C106.509 425.412 106.521 425.42 106.529 425.42C106.545 425.412 106.553 425.4 106.553 425.384V425.012ZM106.481 429.044C106.505 428.916 106.521 428.78 106.529 428.636C106.545 428.492 106.553 428.252 106.553 427.916C106.553 427.58 106.545 427.344 106.529 427.208C106.521 427.064 106.501 426.928 106.469 426.8C106.405 426.504 106.261 426.264 106.037 426.08C105.813 425.888 105.533 425.792 105.197 425.792C104.861 425.792 104.581 425.888 104.357 426.08C104.133 426.264 103.973 426.504 103.877 426.8C103.789 427.04 103.745 427.412 103.745 427.916C103.745 428.468 103.785 428.844 103.865 429.044C103.945 429.34 104.101 429.584 104.333 429.776C104.573 429.96 104.861 430.052 105.197 430.052C105.549 430.052 105.833 429.96 106.049 429.776C106.273 429.584 106.417 429.34 106.481 429.044ZM114.257 427.184C114.289 427.512 114.301 427.88 114.293 428.288C114.293 428.368 114.253 428.408 114.173 428.408H110.345C110.313 428.408 110.297 428.424 110.297 428.456C110.297 428.728 110.321 428.936 110.369 429.08C110.457 429.4 110.633 429.652 110.897 429.836C111.169 430.012 111.509 430.1 111.917 430.1C112.509 430.1 112.965 429.856 113.285 429.368C113.325 429.288 113.377 429.276 113.441 429.332L114.125 429.788C114.181 429.836 114.193 429.888 114.161 429.944C113.937 430.304 113.617 430.588 113.201 430.796C112.793 431.004 112.329 431.108 111.809 431.108C111.225 431.108 110.733 430.98 110.333 430.724C109.933 430.468 109.633 430.104 109.433 429.632C109.241 429.16 109.145 428.588 109.145 427.916C109.145 427.332 109.189 426.888 109.277 426.584C109.421 426.032 109.709 425.596 110.141 425.276C110.573 424.956 111.097 424.796 111.713 424.796C112.521 424.796 113.125 425 113.525 425.408C113.925 425.808 114.169 426.4 114.257 427.184ZM111.713 425.792C111.369 425.792 111.085 425.88 110.861 426.056C110.637 426.224 110.485 426.452 110.405 426.74C110.349 426.916 110.313 427.14 110.297 427.412C110.297 427.444 110.313 427.46 110.345 427.46H113.093C113.125 427.46 113.141 427.444 113.141 427.412C113.125 427.148 113.101 426.952 113.069 426.824C112.989 426.512 112.829 426.264 112.589 426.08C112.357 425.888 112.065 425.792 111.713 425.792ZM117.801 431.072C117.321 431.072 116.897 431 116.529 430.856C116.169 430.712 115.889 430.516 115.689 430.268C115.489 430.012 115.389 429.732 115.389 429.428V429.296C115.389 429.216 115.429 429.176 115.509 429.176H116.373C116.453 429.176 116.493 429.216 116.493 429.296V429.356C116.493 429.58 116.613 429.776 116.853 429.944C117.101 430.112 117.413 430.196 117.789 430.196C118.149 430.196 118.441 430.12 118.665 429.968C118.889 429.808 119.001 429.608 119.001 429.368C119.001 429.136 118.897 428.964 118.689 428.852C118.481 428.732 118.145 428.608 117.681 428.48C117.225 428.352 116.841 428.224 116.529 428.096C116.225 427.96 115.965 427.772 115.749 427.532C115.541 427.284 115.437 426.968 115.437 426.584C115.437 426.048 115.645 425.624 116.061 425.312C116.485 424.992 117.045 424.832 117.741 424.832C118.205 424.832 118.613 424.908 118.965 425.06C119.325 425.204 119.601 425.408 119.793 425.672C119.985 425.936 120.081 426.232 120.081 426.56V426.596C120.081 426.676 120.041 426.716 119.961 426.716H119.121C119.041 426.716 119.001 426.676 119.001 426.596V426.56C119.001 426.328 118.885 426.136 118.653 425.984C118.429 425.824 118.121 425.744 117.729 425.744C117.377 425.744 117.089 425.812 116.865 425.948C116.649 426.084 116.541 426.268 116.541 426.5C116.541 426.732 116.645 426.908 116.853 427.028C117.069 427.148 117.413 427.276 117.885 427.412C118.349 427.54 118.733 427.668 119.037 427.796C119.349 427.916 119.613 428.1 119.829 428.348C120.045 428.588 120.153 428.904 120.153 429.296C120.153 429.84 119.937 430.272 119.505 430.592C119.081 430.912 118.513 431.072 117.801 431.072ZM130.251 424.808C130.859 424.808 131.339 424.992 131.691 425.36C132.043 425.72 132.219 426.224 132.219 426.872V430.88C132.219 430.96 132.179 431 132.099 431H131.199C131.119 431 131.079 430.96 131.079 430.88V427.112C131.079 426.712 130.967 426.396 130.743 426.164C130.527 425.924 130.235 425.804 129.867 425.804C129.499 425.804 129.199 425.92 128.967 426.152C128.735 426.384 128.619 426.696 128.619 427.088V430.88C128.619 430.96 128.579 431 128.499 431H127.599C127.519 431 127.479 430.96 127.479 430.88V427.112C127.479 426.712 127.367 426.396 127.143 426.164C126.927 425.924 126.635 425.804 126.267 425.804C125.899 425.804 125.603 425.92 125.379 426.152C125.163 426.384 125.055 426.696 125.055 427.088V430.88C125.055 430.96 125.015 431 124.935 431H124.023C123.943 431 123.903 430.96 123.903 430.88V425.012C123.903 424.932 123.943 424.892 124.023 424.892H124.935C125.015 424.892 125.055 424.932 125.055 425.012V425.42C125.055 425.436 125.059 425.448 125.067 425.456C125.083 425.464 125.099 425.46 125.115 425.444C125.467 425.02 125.979 424.808 126.651 424.808C127.059 424.808 127.407 424.888 127.695 425.048C127.983 425.2 128.207 425.428 128.367 425.732C128.391 425.764 128.415 425.764 128.439 425.732C128.631 425.42 128.883 425.188 129.195 425.036C129.515 424.884 129.867 424.808 130.251 424.808ZM136.049 424.796C136.537 424.796 136.961 424.884 137.321 425.06C137.689 425.228 137.969 425.468 138.161 425.78C138.361 426.084 138.461 426.432 138.461 426.824V430.88C138.461 430.96 138.421 431 138.341 431H137.429C137.349 431 137.309 430.96 137.309 430.88V430.448C137.309 430.408 137.289 430.4 137.249 430.424C137.041 430.64 136.785 430.808 136.481 430.928C136.185 431.04 135.853 431.096 135.485 431.096C134.893 431.096 134.401 430.948 134.009 430.652C133.625 430.348 133.433 429.892 133.433 429.284C133.433 428.66 133.649 428.172 134.081 427.82C134.521 427.46 135.133 427.28 135.917 427.28H137.261C137.293 427.28 137.309 427.264 137.309 427.232V426.908C137.309 426.556 137.205 426.284 136.997 426.092C136.797 425.892 136.489 425.792 136.073 425.792C135.737 425.792 135.461 425.86 135.245 425.996C135.037 426.124 134.909 426.3 134.861 426.524C134.837 426.604 134.789 426.64 134.717 426.632L133.745 426.5C133.665 426.484 133.629 426.452 133.637 426.404C133.701 425.932 133.953 425.548 134.393 425.252C134.833 424.948 135.385 424.796 136.049 424.796ZM135.737 430.124C136.161 430.124 136.529 430.012 136.841 429.788C137.153 429.564 137.309 429.28 137.309 428.936V428.228C137.309 428.196 137.293 428.18 137.261 428.18H136.133C135.661 428.18 135.285 428.272 135.005 428.456C134.725 428.64 134.585 428.896 134.585 429.224C134.585 429.52 134.689 429.744 134.897 429.896C135.113 430.048 135.393 430.124 135.737 430.124ZM139.73 433.388C139.674 433.388 139.646 433.348 139.646 433.268V432.56C139.646 432.48 139.686 432.44 139.766 432.44H139.79C140.11 432.432 140.362 432.392 140.546 432.32C140.73 432.248 140.882 432.112 141.002 431.912C141.122 431.72 141.238 431.428 141.35 431.036C141.358 431.028 141.358 431.016 141.35 431C141.35 430.976 141.35 430.964 141.35 430.964L139.346 425.024L139.334 424.976C139.334 424.92 139.37 424.892 139.442 424.892H140.414C140.486 424.892 140.534 424.924 140.558 424.988L141.914 429.512C141.922 429.528 141.934 429.536 141.95 429.536C141.966 429.536 141.978 429.528 141.986 429.512L143.33 424.988C143.354 424.924 143.402 424.892 143.474 424.892H144.422C144.51 424.892 144.542 424.936 144.518 425.024L142.334 431.42C142.15 431.972 141.966 432.38 141.782 432.644C141.598 432.916 141.358 433.108 141.062 433.22C140.766 433.332 140.35 433.388 139.814 433.388H139.73ZM150.252 424.796C150.74 424.796 151.164 424.884 151.524 425.06C151.892 425.228 152.172 425.468 152.364 425.78C152.564 426.084 152.664 426.432 152.664 426.824V430.88C152.664 430.96 152.624 431 152.544 431H151.632C151.552 431 151.512 430.96 151.512 430.88V430.448C151.512 430.408 151.492 430.4 151.452 430.424C151.244 430.64 150.988 430.808 150.684 430.928C150.388 431.04 150.056 431.096 149.688 431.096C149.096 431.096 148.604 430.948 148.212 430.652C147.828 430.348 147.636 429.892 147.636 429.284C147.636 428.66 147.852 428.172 148.284 427.82C148.724 427.46 149.336 427.28 150.12 427.28H151.464C151.496 427.28 151.512 427.264 151.512 427.232V426.908C151.512 426.556 151.408 426.284 151.2 426.092C151 425.892 150.692 425.792 150.276 425.792C149.94 425.792 149.664 425.86 149.448 425.996C149.24 426.124 149.112 426.3 149.064 426.524C149.04 426.604 148.992 426.64 148.92 426.632L147.948 426.5C147.868 426.484 147.832 426.452 147.84 426.404C147.904 425.932 148.156 425.548 148.596 425.252C149.036 424.948 149.588 424.796 150.252 424.796ZM149.94 430.124C150.364 430.124 150.732 430.012 151.044 429.788C151.356 429.564 151.512 429.28 151.512 428.936V428.228C151.512 428.196 151.496 428.18 151.464 428.18H150.336C149.864 428.18 149.488 428.272 149.208 428.456C148.928 428.64 148.788 428.896 148.788 429.224C148.788 429.52 148.892 429.744 149.1 429.896C149.316 430.048 149.596 430.124 149.94 430.124ZM159.175 426.428C159.327 426.86 159.403 427.372 159.403 427.964C159.403 428.524 159.339 429.008 159.211 429.416C159.043 429.952 158.767 430.368 158.383 430.664C157.999 430.952 157.507 431.096 156.907 431.096C156.635 431.096 156.375 431.044 156.127 430.94C155.887 430.828 155.679 430.672 155.503 430.472C155.487 430.456 155.471 430.452 155.455 430.46C155.447 430.468 155.443 430.48 155.443 430.496V433.172C155.443 433.252 155.403 433.292 155.323 433.292H154.411C154.331 433.292 154.291 433.252 154.291 433.172V425.012C154.291 424.932 154.331 424.892 154.411 424.892H155.323C155.403 424.892 155.443 424.932 155.443 425.012V425.408C155.443 425.424 155.447 425.436 155.455 425.444C155.471 425.452 155.487 425.448 155.503 425.432C155.679 425.232 155.887 425.076 156.127 424.964C156.367 424.852 156.627 424.796 156.907 424.796C157.483 424.796 157.959 424.94 158.335 425.228C158.719 425.508 158.999 425.908 159.175 426.428ZM157.855 429.524C158.111 429.14 158.239 428.612 158.239 427.94C158.239 427.324 158.139 426.828 157.939 426.452C157.707 426.012 157.327 425.792 156.799 425.792C156.335 425.792 155.983 426.008 155.743 426.44C155.551 426.784 155.455 427.288 155.455 427.952C155.455 428.624 155.559 429.136 155.767 429.488C155.999 429.896 156.339 430.1 156.787 430.1C157.267 430.1 157.623 429.908 157.855 429.524ZM165.866 426.428C166.018 426.86 166.094 427.372 166.094 427.964C166.094 428.524 166.03 429.008 165.902 429.416C165.734 429.952 165.458 430.368 165.074 430.664C164.69 430.952 164.198 431.096 163.598 431.096C163.326 431.096 163.066 431.044 162.818 430.94C162.578 430.828 162.37 430.672 162.194 430.472C162.178 430.456 162.162 430.452 162.146 430.46C162.138 430.468 162.134 430.48 162.134 430.496V433.172C162.134 433.252 162.094 433.292 162.014 433.292H161.102C161.022 433.292 160.982 433.252 160.982 433.172V425.012C160.982 424.932 161.022 424.892 161.102 424.892H162.014C162.094 424.892 162.134 424.932 162.134 425.012V425.408C162.134 425.424 162.138 425.436 162.146 425.444C162.162 425.452 162.178 425.448 162.194 425.432C162.37 425.232 162.578 425.076 162.818 424.964C163.058 424.852 163.318 424.796 163.598 424.796C164.174 424.796 164.65 424.94 165.026 425.228C165.41 425.508 165.69 425.908 165.866 426.428ZM164.546 429.524C164.802 429.14 164.93 428.612 164.93 427.94C164.93 427.324 164.83 426.828 164.63 426.452C164.398 426.012 164.018 425.792 163.49 425.792C163.026 425.792 162.674 426.008 162.434 426.44C162.242 426.784 162.146 427.288 162.146 427.952C162.146 428.624 162.25 429.136 162.458 429.488C162.69 429.896 163.03 430.1 163.478 430.1C163.958 430.1 164.314 429.908 164.546 429.524ZM167.722 431C167.642 431 167.602 430.96 167.602 430.88V422.72C167.602 422.64 167.642 422.6 167.722 422.6H168.634C168.714 422.6 168.754 422.64 168.754 422.72V430.88C168.754 430.96 168.714 431 168.634 431H167.722ZM170.246 433.388C170.19 433.388 170.162 433.348 170.162 433.268V432.56C170.162 432.48 170.202 432.44 170.282 432.44H170.306C170.626 432.432 170.878 432.392 171.062 432.32C171.246 432.248 171.398 432.112 171.518 431.912C171.638 431.72 171.754 431.428 171.866 431.036C171.874 431.028 171.874 431.016 171.866 431C171.866 430.976 171.866 430.964 171.866 430.964L169.862 425.024L169.85 424.976C169.85 424.92 169.886 424.892 169.958 424.892H170.93C171.002 424.892 171.05 424.924 171.074 424.988L172.43 429.512C172.438 429.528 172.45 429.536 172.466 429.536C172.482 429.536 172.494 429.528 172.502 429.512L173.846 424.988C173.87 424.924 173.918 424.892 173.99 424.892H174.938C175.026 424.892 175.058 424.936 175.034 425.024L172.85 431.42C172.666 431.972 172.482 432.38 172.298 432.644C172.114 432.916 171.874 433.108 171.578 433.22C171.282 433.332 170.866 433.388 170.33 433.388H170.246Z" fill="#999999"/>
<rect x="60" y="560" width="240" height="48" rx="8" fill="url(#paint0_linear_85_31726)"/>
<path d="M156.653 582.04C156.544 581.695 156.396 581.386 156.21 581.114C156.028 580.837 155.811 580.602 155.557 580.409C155.303 580.212 155.013 580.062 154.688 579.96C154.366 579.858 154.011 579.807 153.625 579.807C152.97 579.807 152.379 579.975 151.852 580.312C151.326 580.65 150.909 581.144 150.602 581.795C150.299 582.443 150.148 583.237 150.148 584.176C150.148 585.119 150.301 585.917 150.608 586.568C150.915 587.22 151.335 587.714 151.869 588.051C152.403 588.388 153.011 588.557 153.693 588.557C154.326 588.557 154.877 588.428 155.347 588.17C155.82 587.913 156.186 587.549 156.443 587.08C156.705 586.606 156.835 586.049 156.835 585.409L157.29 585.494H153.96V584.045H158.534V585.369C158.534 586.347 158.326 587.195 157.909 587.915C157.496 588.631 156.924 589.184 156.193 589.574C155.466 589.964 154.633 590.159 153.693 590.159C152.64 590.159 151.716 589.917 150.92 589.432C150.129 588.947 149.511 588.259 149.068 587.369C148.625 586.475 148.403 585.415 148.403 584.188C148.403 583.259 148.532 582.426 148.79 581.688C149.047 580.949 149.409 580.322 149.875 579.807C150.345 579.288 150.896 578.892 151.528 578.619C152.165 578.343 152.86 578.205 153.614 578.205C154.242 578.205 154.828 578.297 155.369 578.483C155.915 578.669 156.4 578.932 156.824 579.273C157.252 579.614 157.606 580.019 157.886 580.489C158.167 580.955 158.356 581.472 158.455 582.04H156.653ZM164.388 590.176C163.528 590.176 162.787 589.992 162.166 589.625C161.549 589.254 161.071 588.733 160.734 588.062C160.401 587.388 160.234 586.598 160.234 585.693C160.234 584.799 160.401 584.011 160.734 583.33C161.071 582.648 161.541 582.116 162.143 581.733C162.75 581.35 163.458 581.159 164.268 581.159C164.761 581.159 165.238 581.241 165.7 581.403C166.162 581.566 166.577 581.822 166.945 582.17C167.312 582.519 167.602 582.972 167.814 583.528C168.026 584.081 168.132 584.754 168.132 585.545V586.148H161.195V584.875H166.467C166.467 584.428 166.376 584.032 166.195 583.688C166.013 583.339 165.757 583.064 165.428 582.864C165.102 582.663 164.719 582.562 164.28 582.562C163.803 582.562 163.386 582.68 163.03 582.915C162.678 583.146 162.405 583.449 162.212 583.824C162.022 584.195 161.928 584.598 161.928 585.034V586.028C161.928 586.612 162.03 587.108 162.234 587.517C162.443 587.926 162.732 588.239 163.104 588.455C163.475 588.667 163.909 588.773 164.405 588.773C164.727 588.773 165.02 588.727 165.286 588.636C165.551 588.542 165.78 588.402 165.973 588.216C166.166 588.03 166.314 587.801 166.416 587.528L168.024 587.818C167.895 588.292 167.664 588.706 167.331 589.062C167.001 589.415 166.587 589.689 166.087 589.886C165.59 590.08 165.024 590.176 164.388 590.176ZM174.091 581.273V582.636H169.324V581.273H174.091ZM170.602 579.182H172.301V587.438C172.301 587.767 172.35 588.015 172.449 588.182C172.547 588.345 172.674 588.456 172.83 588.517C172.989 588.574 173.161 588.602 173.347 588.602C173.483 588.602 173.602 588.593 173.705 588.574C173.807 588.555 173.886 588.54 173.943 588.528L174.25 589.932C174.152 589.97 174.011 590.008 173.83 590.045C173.648 590.087 173.42 590.11 173.148 590.114C172.701 590.121 172.284 590.042 171.898 589.875C171.511 589.708 171.199 589.451 170.96 589.102C170.722 588.754 170.602 588.316 170.602 587.79V579.182ZM190.449 584.182C190.449 585.424 190.222 586.492 189.767 587.386C189.313 588.277 188.689 588.962 187.898 589.443C187.11 589.92 186.214 590.159 185.21 590.159C184.203 590.159 183.303 589.92 182.511 589.443C181.723 588.962 181.102 588.275 180.648 587.381C180.193 586.487 179.966 585.42 179.966 584.182C179.966 582.939 180.193 581.873 180.648 580.983C181.102 580.089 181.723 579.403 182.511 578.926C183.303 578.445 184.203 578.205 185.21 578.205C186.214 578.205 187.11 578.445 187.898 578.926C188.689 579.403 189.313 580.089 189.767 580.983C190.222 581.873 190.449 582.939 190.449 584.182ZM188.71 584.182C188.71 583.235 188.557 582.437 188.25 581.79C187.947 581.138 187.53 580.646 187 580.312C186.473 579.975 185.877 579.807 185.21 579.807C184.54 579.807 183.941 579.975 183.415 580.312C182.888 580.646 182.472 581.138 182.165 581.79C181.862 582.437 181.71 583.235 181.71 584.182C181.71 585.129 181.862 585.928 182.165 586.58C182.472 587.227 182.888 587.72 183.415 588.057C183.941 588.39 184.54 588.557 185.21 588.557C185.877 588.557 186.473 588.39 187 588.057C187.53 587.72 187.947 587.227 188.25 586.58C188.557 585.928 188.71 585.129 188.71 584.182ZM191.564 579.875V578.364H200.57V579.875H196.939V590H195.189V579.875H191.564ZM202.56 590V578.364H206.707C207.613 578.364 208.363 578.528 208.957 578.858C209.552 579.187 209.997 579.638 210.293 580.21C210.588 580.778 210.736 581.419 210.736 582.131C210.736 582.847 210.586 583.491 210.287 584.062C209.991 584.631 209.545 585.081 208.946 585.415C208.351 585.744 207.603 585.909 206.702 585.909H203.849V584.42H206.543C207.115 584.42 207.579 584.322 207.935 584.125C208.291 583.924 208.552 583.652 208.719 583.307C208.885 582.962 208.969 582.57 208.969 582.131C208.969 581.691 208.885 581.301 208.719 580.96C208.552 580.619 208.289 580.352 207.929 580.159C207.573 579.966 207.103 579.869 206.52 579.869H204.315V590H202.56Z" fill="#E6E6E6"/>
<defs>
<linearGradient id="paint0_linear_85_31726" x1="60" y1="608" x2="300" y2="608" gradientUnits="userSpaceOnUse">
<stop stop-color="#6F3399"/>
<stop offset="1" stop-color="#DF206E"/>
</linearGradient>
<clipPath id="clip0_85_31726">
<rect width="80" height="50" fill="white" transform="translate(142.5 125)"/>
</clipPath>
</defs>
</svg>
