<svg width="360" height="780" viewBox="0 0 360 780" fill="none" xmlns="http://www.w3.org/2000/svg">
<rect width="360" height="780" rx="30" fill="#0F0F0F"/>
<g clip-path="url(#clip0_85_31733)">
<path d="M159.156 145.664L162.744 156.272L156.409 175L147.707 149.271C150.576 148.691 154.113 147.807 157.215 146.541C157.887 146.266 158.538 145.974 159.156 145.664V145.664ZM152.07 132.929H152.566L152.105 133.16L152.07 132.929Z" fill="#0E8F8D"/>
<path fill-rule="evenodd" clip-rule="evenodd" d="M154.919 147.389L162.745 156.272L159.157 145.664C158.539 145.974 157.888 146.266 157.216 146.541C156.47 146.845 155.699 147.127 154.919 147.389ZM152.567 132.929H152.07L152.105 133.16L152.567 132.929Z" fill="#0E8F8D"/>
<path fill-rule="evenodd" clip-rule="evenodd" d="M155.379 147.231L156.409 175L162.744 156.272L159.156 145.664C158.538 145.974 157.887 146.266 157.215 146.541C156.616 146.785 156.002 147.015 155.379 147.231V147.231Z" fill="#0E8F8D" fill-opacity="0.701961"/>
<path d="M146.364 145.814C144.819 141.871 140.994 134.645 143.137 130.497C144.237 128.367 147.516 126.851 149.943 128.105C152.141 129.241 152.742 130.774 152.844 133.271C154.94 131.909 156.538 131.512 158.736 132.648C161.163 133.902 161.824 137.452 160.723 139.582C158.582 143.727 150.48 144.791 146.364 145.814V145.814Z" fill="#FFF2F4"/>
<path d="M147.184 144.229C145.956 141.095 142.917 135.354 144.619 132.057C145.494 130.364 148.099 129.16 150.027 130.156C151.775 131.059 152.252 132.277 152.333 134.262C153.999 133.179 155.268 132.864 157.015 133.766C158.944 134.763 159.469 137.584 158.594 139.277C156.893 142.571 150.455 143.416 147.184 144.229V144.229Z" fill="#FF415B"/>
<path d="M148.13 142.398C147.269 140.2 145.137 136.172 146.332 133.86C146.945 132.672 148.773 131.827 150.125 132.526C151.351 133.159 151.686 134.014 151.742 135.406C152.911 134.647 153.802 134.425 155.027 135.059C156.38 135.758 156.749 137.737 156.135 138.924C154.941 141.235 150.425 141.828 148.13 142.398V142.398Z" fill="#FF415B"/>
<path fill-rule="evenodd" clip-rule="evenodd" d="M215.278 142.239C216.375 142.522 217.22 143.057 217.812 143.844C218.404 144.631 218.701 145.608 218.701 146.776C218.701 148.404 218.104 149.69 216.91 150.636C215.716 151.583 214.093 152.056 212.041 152.056C210.785 152.056 209.578 151.861 208.419 151.472C207.883 151.292 207.389 151.082 206.938 150.84L207.836 148.183C209.126 148.943 210.484 149.323 211.909 149.323C213.094 149.323 213.978 149.089 214.562 148.62C215.145 148.151 215.437 147.439 215.437 146.484C215.437 145.547 215.141 144.852 214.549 144.401C213.956 143.95 213.041 143.725 211.803 143.725H209.344L210.259 141.018H211.351C213.774 141.018 214.986 140.107 214.986 138.285C214.986 137.437 214.725 136.782 214.203 136.322C213.699 135.877 212.992 135.648 212.081 135.633L212.996 132.929C214.468 133.042 215.671 133.479 216.605 134.239C217.701 135.133 218.25 136.34 218.25 137.861C218.232 138.904 217.962 139.811 217.441 140.581C216.919 141.35 216.198 141.903 215.278 142.239V142.239Z" fill="#29364F"/>
<path d="M188.277 156.272L196.173 132.929H208.842L194.612 175L188.277 156.272Z" fill="#C43739"/>
<path d="M167.698 175H156.41L169.177 137.255L175.511 155.983L169.08 175H167.698Z" fill="#E9CC32"/>
<path d="M175.513 155.983L167.715 132.928H170.642H180.384L181.847 137.254L194.614 175H191.926H181.945L175.513 155.983Z" fill="#8D45BA"/>
<path fill-rule="evenodd" clip-rule="evenodd" d="M194.614 175L180.384 132.928H167.715L194.614 175Z" fill="#B570E0"/>
<path fill-rule="evenodd" clip-rule="evenodd" d="M181.944 175H194.613L180.383 132.928L181.944 175Z" fill="#8E5AAF" fill-opacity="0.701961"/>
<path fill-rule="evenodd" clip-rule="evenodd" d="M194.613 175L208.843 132.929H196.174L194.613 175Z" fill="#C43739"/>
<path fill-rule="evenodd" clip-rule="evenodd" d="M208.842 132.929L188.277 156.272L196.173 132.929H208.842Z" fill="#D9383A" fill-opacity="0.701961"/>
<path fill-rule="evenodd" clip-rule="evenodd" d="M169.177 137.255L175.511 155.983L156.41 175L169.177 137.255Z" fill="#F9E051"/>
<path fill-rule="evenodd" clip-rule="evenodd" d="M156.41 175L169.177 137.255L169.08 175H156.41Z" fill="#E9CC32" fill-opacity="0.701961"/>
</g>
<path d="M65.96 246.16C64.9333 246.16 64.04 246 63.28 245.68C62.5333 245.36 61.9533 244.907 61.54 244.32C61.14 243.733 60.94 243.047 60.94 242.26V241.68C60.94 241.547 61.0067 241.48 61.14 241.48H62.6C62.7333 241.48 62.8 241.547 62.8 241.68V242.16C62.8 242.84 63.0933 243.4 63.68 243.84C64.2667 244.28 65.0733 244.5 66.1 244.5C67.02 244.5 67.7133 244.307 68.18 243.92C68.6467 243.533 68.88 243.027 68.88 242.4C68.88 241.987 68.76 241.633 68.52 241.34C68.28 241.047 67.9267 240.78 67.46 240.54C67.0067 240.287 66.34 239.987 65.46 239.64C64.4867 239.267 63.7133 238.927 63.14 238.62C62.58 238.313 62.1133 237.913 61.74 237.42C61.3667 236.913 61.18 236.28 61.18 235.52C61.18 234.373 61.5867 233.473 62.4 232.82C63.2267 232.167 64.34 231.84 65.74 231.84C66.7267 231.84 67.5933 232.007 68.34 232.34C69.0867 232.673 69.66 233.14 70.06 233.74C70.4733 234.34 70.68 235.033 70.68 235.82V236.22C70.68 236.353 70.6133 236.42 70.48 236.42H68.98C68.8467 236.42 68.78 236.353 68.78 236.22V235.92C68.78 235.227 68.5 234.653 67.94 234.2C67.3933 233.733 66.6333 233.5 65.66 233.5C64.8333 233.5 64.1933 233.673 63.74 234.02C63.2867 234.353 63.06 234.84 63.06 235.48C63.06 235.92 63.1733 236.28 63.4 236.56C63.6267 236.84 63.96 237.093 64.4 237.32C64.8533 237.533 65.54 237.813 66.46 238.16C67.4067 238.533 68.1733 238.88 68.76 239.2C69.3467 239.507 69.8333 239.92 70.22 240.44C70.6067 240.947 70.8 241.58 70.8 242.34C70.8 243.513 70.3667 244.447 69.5 245.14C68.6467 245.82 67.4667 246.16 65.96 246.16ZM78.1778 237.2C78.1778 237.333 78.1111 237.4 77.9778 237.4H75.8178C75.7645 237.4 75.7378 237.427 75.7378 237.48V242.78C75.7378 243.34 75.8645 243.747 76.1178 244C76.3711 244.24 76.7645 244.36 77.2978 244.36H77.8778C78.0111 244.36 78.0778 244.427 78.0778 244.56V245.8C78.0778 245.933 78.0111 246 77.8778 246C77.4511 246.027 77.1445 246.04 76.9578 246.04C75.9445 246.04 75.1778 245.86 74.6578 245.5C74.1511 245.127 73.8978 244.447 73.8978 243.46V237.48C73.8978 237.427 73.8711 237.4 73.8178 237.4H72.5978C72.4645 237.4 72.3978 237.333 72.3978 237.2V236.02C72.3978 235.887 72.4645 235.82 72.5978 235.82H73.8178C73.8711 235.82 73.8978 235.793 73.8978 235.74V233.38C73.8978 233.247 73.9645 233.18 74.0978 233.18H75.5378C75.6711 233.18 75.7378 233.247 75.7378 233.38V235.74C75.7378 235.793 75.7645 235.82 75.8178 235.82H77.9778C78.1111 235.82 78.1778 235.887 78.1778 236.02V237.2ZM88.5463 239.64C88.5996 240.187 88.6196 240.8 88.6063 241.48C88.6063 241.613 88.5396 241.68 88.4063 241.68H82.0263C81.9729 241.68 81.9463 241.707 81.9463 241.76C81.9463 242.213 81.9863 242.56 82.0663 242.8C82.2129 243.333 82.5063 243.753 82.9463 244.06C83.3996 244.353 83.9663 244.5 84.6463 244.5C85.6329 244.5 86.3929 244.093 86.9263 243.28C86.9929 243.147 87.0796 243.127 87.1863 243.22L88.3263 243.98C88.4196 244.06 88.4396 244.147 88.3863 244.24C88.0129 244.84 87.4796 245.313 86.7863 245.66C86.1063 246.007 85.3329 246.18 84.4663 246.18C83.4929 246.18 82.6729 245.967 82.0063 245.54C81.3396 245.113 80.8396 244.507 80.5063 243.72C80.1863 242.933 80.0263 241.98 80.0263 240.86C80.0263 239.887 80.0996 239.147 80.2463 238.64C80.4863 237.72 80.9663 236.993 81.6863 236.46C82.4063 235.927 83.2796 235.66 84.3063 235.66C85.6529 235.66 86.6596 236 87.3263 236.68C87.9929 237.347 88.3996 238.333 88.5463 239.64ZM84.3063 237.32C83.7329 237.32 83.2596 237.467 82.8863 237.76C82.5129 238.04 82.2596 238.42 82.1263 238.9C82.0329 239.193 81.9729 239.567 81.9463 240.02C81.9463 240.073 81.9729 240.1 82.0263 240.1H86.6063C86.6596 240.1 86.6863 240.073 86.6863 240.02C86.6596 239.58 86.6196 239.253 86.5663 239.04C86.4329 238.52 86.1663 238.107 85.7663 237.8C85.3796 237.48 84.8929 237.32 84.3063 237.32ZM99.2889 238.38C99.5422 239.1 99.6689 239.953 99.6689 240.94C99.6689 241.873 99.5622 242.68 99.3489 243.36C99.0689 244.253 98.6089 244.947 97.9689 245.44C97.3289 245.92 96.5089 246.16 95.5089 246.16C95.0556 246.16 94.6222 246.073 94.2089 245.9C93.8089 245.713 93.4622 245.453 93.1689 245.12C93.1422 245.093 93.1156 245.087 93.0889 245.1C93.0756 245.113 93.0689 245.133 93.0689 245.16V249.62C93.0689 249.753 93.0022 249.82 92.8689 249.82H91.3489C91.2156 249.82 91.1489 249.753 91.1489 249.62V236.02C91.1489 235.887 91.2156 235.82 91.3489 235.82H92.8689C93.0022 235.82 93.0689 235.887 93.0689 236.02V236.68C93.0689 236.707 93.0756 236.727 93.0889 236.74C93.1156 236.753 93.1422 236.747 93.1689 236.72C93.4622 236.387 93.8089 236.127 94.2089 235.94C94.6089 235.753 95.0422 235.66 95.5089 235.66C96.4689 235.66 97.2622 235.9 97.8889 236.38C98.5289 236.847 98.9956 237.513 99.2889 238.38ZM97.0889 243.54C97.5156 242.9 97.7289 242.02 97.7289 240.9C97.7289 239.873 97.5622 239.047 97.2289 238.42C96.8422 237.687 96.2089 237.32 95.3289 237.32C94.5556 237.32 93.9689 237.68 93.5689 238.4C93.2489 238.973 93.0889 239.813 93.0889 240.92C93.0889 242.04 93.2622 242.893 93.6089 243.48C93.9956 244.16 94.5622 244.5 95.3089 244.5C96.1089 244.5 96.7022 244.18 97.0889 243.54ZM106.625 246C106.492 246 106.425 245.933 106.425 245.8V232.2C106.425 232.067 106.492 232 106.625 232H108.145C108.278 232 108.345 232.067 108.345 232.2V245.8C108.345 245.933 108.278 246 108.145 246H106.625ZM115.92 235.68C117.014 235.68 117.88 236 118.52 236.64C119.16 237.267 119.48 238.12 119.48 239.2V245.8C119.48 245.933 119.414 246 119.28 246H117.76C117.627 246 117.56 245.933 117.56 245.8V239.58C117.56 238.913 117.367 238.373 116.98 237.96C116.594 237.547 116.08 237.34 115.44 237.34C114.814 237.34 114.3 237.547 113.9 237.96C113.5 238.373 113.3 238.907 113.3 239.56V245.8C113.3 245.933 113.234 246 113.1 246H111.58C111.447 246 111.38 245.933 111.38 245.8V236.02C111.38 235.887 111.447 235.82 111.58 235.82H113.1C113.234 235.82 113.3 235.887 113.3 236.02V236.74C113.3 236.767 113.307 236.787 113.32 236.8C113.347 236.813 113.367 236.807 113.38 236.78C113.954 236.047 114.8 235.68 115.92 235.68ZM127.24 237.2C127.24 237.333 127.174 237.4 127.04 237.4H124.88C124.827 237.4 124.8 237.427 124.8 237.48V242.78C124.8 243.34 124.927 243.747 125.18 244C125.434 244.24 125.827 244.36 126.36 244.36H126.94C127.074 244.36 127.14 244.427 127.14 244.56V245.8C127.14 245.933 127.074 246 126.94 246C126.514 246.027 126.207 246.04 126.02 246.04C125.007 246.04 124.24 245.86 123.72 245.5C123.214 245.127 122.96 244.447 122.96 243.46V237.48C122.96 237.427 122.934 237.4 122.88 237.4H121.66C121.527 237.4 121.46 237.333 121.46 237.2V236.02C121.46 235.887 121.527 235.82 121.66 235.82H122.88C122.934 235.82 122.96 235.793 122.96 235.74V233.38C122.96 233.247 123.027 233.18 123.16 233.18H124.6C124.734 233.18 124.8 233.247 124.8 233.38V235.74C124.8 235.793 124.827 235.82 124.88 235.82H127.04C127.174 235.82 127.24 235.887 127.24 236.02V237.2ZM133.529 246.16C132.542 246.16 131.682 245.913 130.949 245.42C130.215 244.913 129.702 244.213 129.409 243.32C129.169 242.6 129.049 241.787 129.049 240.88C129.049 239.933 129.162 239.133 129.389 238.48C129.682 237.6 130.195 236.913 130.929 236.42C131.662 235.913 132.535 235.66 133.549 235.66C134.509 235.66 135.342 235.913 136.049 236.42C136.769 236.913 137.282 237.593 137.589 238.46C137.829 239.14 137.949 239.94 137.949 240.86C137.949 241.793 137.829 242.613 137.589 243.32C137.295 244.213 136.789 244.913 136.069 245.42C135.349 245.913 134.502 246.16 133.529 246.16ZM133.529 244.5C134.062 244.5 134.529 244.353 134.929 244.06C135.329 243.753 135.615 243.327 135.789 242.78C135.935 242.273 136.009 241.647 136.009 240.9C136.009 240.153 135.942 239.533 135.809 239.04C135.635 238.493 135.349 238.073 134.949 237.78C134.549 237.473 134.062 237.32 133.489 237.32C132.942 237.32 132.469 237.473 132.069 237.78C131.669 238.073 131.382 238.493 131.209 239.04C131.062 239.507 130.989 240.127 130.989 240.9C130.989 241.673 131.062 242.3 131.209 242.78C131.369 243.327 131.649 243.753 132.049 244.06C132.462 244.353 132.955 244.5 133.529 244.5ZM147.566 246C147.446 246 147.373 245.947 147.346 245.84L143.586 232.22L143.566 232.16C143.566 232.053 143.633 232 143.766 232H145.386C145.506 232 145.58 232.06 145.606 232.18L148.226 242.14C148.24 242.167 148.253 242.18 148.266 242.18C148.293 242.18 148.313 242.167 148.326 242.14L150.806 232.18C150.833 232.06 150.906 232 151.026 232H152.606C152.726 232 152.8 232.06 152.826 232.18L155.446 242.16C155.46 242.187 155.473 242.2 155.486 242.2C155.5 242.2 155.513 242.187 155.526 242.16L158.166 232.18C158.193 232.06 158.266 232 158.386 232H159.906C159.973 232 160.02 232.02 160.046 232.06C160.086 232.1 160.1 232.153 160.086 232.22L156.466 245.82C156.44 245.94 156.366 246 156.246 246H154.706C154.586 246 154.513 245.94 154.486 245.82L151.866 235.5C151.853 235.46 151.84 235.44 151.826 235.44C151.813 235.44 151.8 235.46 151.786 235.5L149.246 245.82C149.233 245.94 149.16 246 149.026 246H147.566ZM169.21 239.64C169.264 240.187 169.284 240.8 169.27 241.48C169.27 241.613 169.204 241.68 169.07 241.68H162.69C162.637 241.68 162.61 241.707 162.61 241.76C162.61 242.213 162.65 242.56 162.73 242.8C162.877 243.333 163.17 243.753 163.61 244.06C164.064 244.353 164.63 244.5 165.31 244.5C166.297 244.5 167.057 244.093 167.59 243.28C167.657 243.147 167.744 243.127 167.85 243.22L168.99 243.98C169.084 244.06 169.104 244.147 169.05 244.24C168.677 244.84 168.144 245.313 167.45 245.66C166.77 246.007 165.997 246.18 165.13 246.18C164.157 246.18 163.337 245.967 162.67 245.54C162.004 245.113 161.504 244.507 161.17 243.72C160.85 242.933 160.69 241.98 160.69 240.86C160.69 239.887 160.764 239.147 160.91 238.64C161.15 237.72 161.63 236.993 162.35 236.46C163.07 235.927 163.944 235.66 164.97 235.66C166.317 235.66 167.324 236 167.99 236.68C168.657 237.347 169.064 238.333 169.21 239.64ZM164.97 237.32C164.397 237.32 163.924 237.467 163.55 237.76C163.177 238.04 162.924 238.42 162.79 238.9C162.697 239.193 162.637 239.567 162.61 240.02C162.61 240.073 162.637 240.1 162.69 240.1H167.27C167.324 240.1 167.35 240.073 167.35 240.02C167.324 239.58 167.284 239.253 167.23 239.04C167.097 238.52 166.83 238.107 166.43 237.8C166.044 237.48 165.557 237.32 164.97 237.32ZM171.893 246C171.76 246 171.693 245.933 171.693 245.8V232.2C171.693 232.067 171.76 232 171.893 232H173.413C173.546 232 173.613 232.067 173.613 232.2V245.8C173.613 245.933 173.546 246 173.413 246H171.893ZM176.6 246C176.467 246 176.4 245.933 176.4 245.8V232.2C176.4 232.067 176.467 232 176.6 232H178.12C178.253 232 178.32 232.067 178.32 232.2V245.8C178.32 245.933 178.253 246 178.12 246H176.6ZM185.647 235.68C186.74 235.68 187.607 236 188.247 236.64C188.887 237.267 189.207 238.12 189.207 239.2V245.8C189.207 245.933 189.14 246 189.007 246H187.487C187.354 246 187.287 245.933 187.287 245.8V239.58C187.287 238.913 187.094 238.373 186.707 237.96C186.32 237.547 185.807 237.34 185.167 237.34C184.54 237.34 184.027 237.547 183.627 237.96C183.227 238.373 183.027 238.907 183.027 239.56V245.8C183.027 245.933 182.96 246 182.827 246H181.307C181.174 246 181.107 245.933 181.107 245.8V236.02C181.107 235.887 181.174 235.82 181.307 235.82H182.827C182.96 235.82 183.027 235.887 183.027 236.02V236.74C183.027 236.767 183.034 236.787 183.047 236.8C183.074 236.813 183.094 236.807 183.107 236.78C183.68 236.047 184.527 235.68 185.647 235.68ZM200.07 239.64C200.123 240.187 200.143 240.8 200.13 241.48C200.13 241.613 200.063 241.68 199.93 241.68H193.55C193.496 241.68 193.47 241.707 193.47 241.76C193.47 242.213 193.51 242.56 193.59 242.8C193.736 243.333 194.03 243.753 194.47 244.06C194.923 244.353 195.49 244.5 196.17 244.5C197.156 244.5 197.916 244.093 198.45 243.28C198.516 243.147 198.603 243.127 198.71 243.22L199.85 243.98C199.943 244.06 199.963 244.147 199.91 244.24C199.536 244.84 199.003 245.313 198.31 245.66C197.63 246.007 196.856 246.18 195.99 246.18C195.016 246.18 194.196 245.967 193.53 245.54C192.863 245.113 192.363 244.507 192.03 243.72C191.71 242.933 191.55 241.98 191.55 240.86C191.55 239.887 191.623 239.147 191.77 238.64C192.01 237.72 192.49 236.993 193.21 236.46C193.93 235.927 194.803 235.66 195.83 235.66C197.176 235.66 198.183 236 198.85 236.68C199.516 237.347 199.923 238.333 200.07 239.64ZM195.83 237.32C195.256 237.32 194.783 237.467 194.41 237.76C194.036 238.04 193.783 238.42 193.65 238.9C193.556 239.193 193.496 239.567 193.47 240.02C193.47 240.073 193.496 240.1 193.55 240.1H198.13C198.183 240.1 198.21 240.073 198.21 240.02C198.183 239.58 198.143 239.253 198.09 239.04C197.956 238.52 197.69 238.107 197.29 237.8C196.903 237.48 196.416 237.32 195.83 237.32ZM205.976 246.12C205.176 246.12 204.469 246 203.856 245.76C203.256 245.52 202.789 245.193 202.456 244.78C202.123 244.353 201.956 243.887 201.956 243.38V243.16C201.956 243.027 202.023 242.96 202.156 242.96H203.596C203.729 242.96 203.796 243.027 203.796 243.16V243.26C203.796 243.633 203.996 243.96 204.396 244.24C204.809 244.52 205.329 244.66 205.956 244.66C206.556 244.66 207.043 244.533 207.416 244.28C207.789 244.013 207.976 243.68 207.976 243.28C207.976 242.893 207.803 242.607 207.456 242.42C207.109 242.22 206.549 242.013 205.776 241.8C205.016 241.587 204.376 241.373 203.856 241.16C203.349 240.933 202.916 240.62 202.556 240.22C202.209 239.807 202.036 239.28 202.036 238.64C202.036 237.747 202.383 237.04 203.076 236.52C203.783 235.987 204.716 235.72 205.876 235.72C206.649 235.72 207.329 235.847 207.916 236.1C208.516 236.34 208.976 236.68 209.296 237.12C209.616 237.56 209.776 238.053 209.776 238.6V238.66C209.776 238.793 209.709 238.86 209.576 238.86H208.176C208.043 238.86 207.976 238.793 207.976 238.66V238.6C207.976 238.213 207.783 237.893 207.396 237.64C207.023 237.373 206.509 237.24 205.856 237.24C205.269 237.24 204.789 237.353 204.416 237.58C204.056 237.807 203.876 238.113 203.876 238.5C203.876 238.887 204.049 239.18 204.396 239.38C204.756 239.58 205.329 239.793 206.116 240.02C206.889 240.233 207.529 240.447 208.036 240.66C208.556 240.86 208.996 241.167 209.356 241.58C209.716 241.98 209.896 242.507 209.896 243.16C209.896 244.067 209.536 244.787 208.816 245.32C208.109 245.853 207.163 246.12 205.976 246.12ZM215.488 246.12C214.688 246.12 213.981 246 213.368 245.76C212.768 245.52 212.301 245.193 211.968 244.78C211.634 244.353 211.468 243.887 211.468 243.38V243.16C211.468 243.027 211.534 242.96 211.668 242.96H213.108C213.241 242.96 213.308 243.027 213.308 243.16V243.26C213.308 243.633 213.508 243.96 213.908 244.24C214.321 244.52 214.841 244.66 215.468 244.66C216.068 244.66 216.554 244.533 216.928 244.28C217.301 244.013 217.488 243.68 217.488 243.28C217.488 242.893 217.314 242.607 216.968 242.42C216.621 242.22 216.061 242.013 215.288 241.8C214.528 241.587 213.888 241.373 213.368 241.16C212.861 240.933 212.428 240.62 212.068 240.22C211.721 239.807 211.548 239.28 211.548 238.64C211.548 237.747 211.894 237.04 212.588 236.52C213.294 235.987 214.228 235.72 215.388 235.72C216.161 235.72 216.841 235.847 217.428 236.1C218.028 236.34 218.488 236.68 218.808 237.12C219.128 237.56 219.288 238.053 219.288 238.6V238.66C219.288 238.793 219.221 238.86 219.088 238.86H217.688C217.554 238.86 217.488 238.793 217.488 238.66V238.6C217.488 238.213 217.294 237.893 216.908 237.64C216.534 237.373 216.021 237.24 215.368 237.24C214.781 237.24 214.301 237.353 213.928 237.58C213.568 237.807 213.388 238.113 213.388 238.5C213.388 238.887 213.561 239.18 213.908 239.38C214.268 239.58 214.841 239.793 215.628 240.02C216.401 240.233 217.041 240.447 217.548 240.66C218.068 240.86 218.508 241.167 218.868 241.58C219.228 241.98 219.408 242.507 219.408 243.16C219.408 244.067 219.048 244.787 218.328 245.32C217.621 245.853 216.674 246.12 215.488 246.12ZM226.098 246C225.964 246 225.898 245.933 225.898 245.8V232.2C225.898 232.067 225.964 232 226.098 232H227.618C227.751 232 227.818 232.067 227.818 232.2V244.26C227.818 244.313 227.844 244.34 227.898 244.34H234.798C234.931 244.34 234.998 244.407 234.998 244.54V245.8C234.998 245.933 234.931 246 234.798 246H226.098ZM238.224 234.22C237.851 234.22 237.544 234.1 237.304 233.86C237.064 233.62 236.944 233.313 236.944 232.94C236.944 232.567 237.064 232.26 237.304 232.02C237.544 231.78 237.851 231.66 238.224 231.66C238.597 231.66 238.904 231.78 239.144 232.02C239.384 232.26 239.504 232.567 239.504 232.94C239.504 233.313 239.384 233.62 239.144 233.86C238.904 234.1 238.597 234.22 238.224 234.22ZM237.424 245.98C237.291 245.98 237.224 245.913 237.224 245.78V236.02C237.224 235.887 237.291 235.82 237.424 235.82H238.944C239.077 235.82 239.144 235.887 239.144 236.02V245.78C239.144 245.913 239.077 245.98 238.944 245.98H237.424ZM246.642 233.68C245.975 233.68 245.522 233.807 245.282 234.06C245.042 234.313 244.922 234.793 244.922 235.5V235.74C244.922 235.793 244.948 235.82 245.002 235.82H247.102C247.235 235.82 247.302 235.887 247.302 236.02V237.38C247.302 237.513 247.235 237.58 247.102 237.58H245.002C244.948 237.58 244.922 237.607 244.922 237.66V245.8C244.922 245.933 244.855 246 244.722 246H243.202C243.068 246 243.002 245.933 243.002 245.8V237.66C243.002 237.607 242.975 237.58 242.922 237.58H241.582C241.448 237.58 241.382 237.513 241.382 237.38V236.02C241.382 235.887 241.448 235.82 241.582 235.82H242.922C242.975 235.82 243.002 235.793 243.002 235.74V235.38C243.002 234.5 243.102 233.82 243.302 233.34C243.515 232.86 243.868 232.52 244.362 232.32C244.855 232.107 245.548 232 246.442 232H247.122C247.255 232 247.322 232.067 247.322 232.2V233.48C247.322 233.613 247.255 233.68 247.122 233.68H246.642ZM256.925 239.64C256.978 240.187 256.998 240.8 256.985 241.48C256.985 241.613 256.918 241.68 256.785 241.68H250.405C250.352 241.68 250.325 241.707 250.325 241.76C250.325 242.213 250.365 242.56 250.445 242.8C250.592 243.333 250.885 243.753 251.325 244.06C251.778 244.353 252.345 244.5 253.025 244.5C254.012 244.5 254.772 244.093 255.305 243.28C255.372 243.147 255.458 243.127 255.565 243.22L256.705 243.98C256.798 244.06 256.818 244.147 256.765 244.24C256.392 244.84 255.858 245.313 255.165 245.66C254.485 246.007 253.712 246.18 252.845 246.18C251.872 246.18 251.052 245.967 250.385 245.54C249.718 245.113 249.218 244.507 248.885 243.72C248.565 242.933 248.405 241.98 248.405 240.86C248.405 239.887 248.478 239.147 248.625 238.64C248.865 237.72 249.345 236.993 250.065 236.46C250.785 235.927 251.658 235.66 252.685 235.66C254.032 235.66 255.038 236 255.705 236.68C256.372 237.347 256.778 238.333 256.925 239.64ZM252.685 237.32C252.112 237.32 251.638 237.467 251.265 237.76C250.892 238.04 250.638 238.42 250.505 238.9C250.412 239.193 250.352 239.567 250.325 240.02C250.325 240.073 250.352 240.1 250.405 240.1H254.985C255.038 240.1 255.065 240.073 255.065 240.02C255.038 239.58 254.998 239.253 254.945 239.04C254.812 238.52 254.545 238.107 254.145 237.8C253.758 237.48 253.272 237.32 252.685 237.32ZM262.832 246.12C262.032 246.12 261.325 246 260.712 245.76C260.112 245.52 259.645 245.193 259.312 244.78C258.978 244.353 258.812 243.887 258.812 243.38V243.16C258.812 243.027 258.878 242.96 259.012 242.96H260.452C260.585 242.96 260.652 243.027 260.652 243.16V243.26C260.652 243.633 260.852 243.96 261.252 244.24C261.665 244.52 262.185 244.66 262.812 244.66C263.412 244.66 263.898 244.533 264.272 244.28C264.645 244.013 264.832 243.68 264.832 243.28C264.832 242.893 264.658 242.607 264.312 242.42C263.965 242.22 263.405 242.013 262.632 241.8C261.872 241.587 261.232 241.373 260.712 241.16C260.205 240.933 259.772 240.62 259.412 240.22C259.065 239.807 258.892 239.28 258.892 238.64C258.892 237.747 259.238 237.04 259.932 236.52C260.638 235.987 261.572 235.72 262.732 235.72C263.505 235.72 264.185 235.847 264.772 236.1C265.372 236.34 265.832 236.68 266.152 237.12C266.472 237.56 266.632 238.053 266.632 238.6V238.66C266.632 238.793 266.565 238.86 266.432 238.86H265.032C264.898 238.86 264.832 238.793 264.832 238.66V238.6C264.832 238.213 264.638 237.893 264.252 237.64C263.878 237.373 263.365 237.24 262.712 237.24C262.125 237.24 261.645 237.353 261.272 237.58C260.912 237.807 260.732 238.113 260.732 238.5C260.732 238.887 260.905 239.18 261.252 239.38C261.612 239.58 262.185 239.793 262.972 240.02C263.745 240.233 264.385 240.447 264.892 240.66C265.412 240.86 265.852 241.167 266.212 241.58C266.572 241.98 266.752 242.507 266.752 243.16C266.752 244.067 266.392 244.787 265.672 245.32C264.965 245.853 264.018 246.12 262.832 246.12ZM273.998 237.2C273.998 237.333 273.931 237.4 273.798 237.4H271.638C271.585 237.4 271.558 237.427 271.558 237.48V242.78C271.558 243.34 271.685 243.747 271.938 244C272.191 244.24 272.585 244.36 273.118 244.36H273.698C273.831 244.36 273.898 244.427 273.898 244.56V245.8C273.898 245.933 273.831 246 273.698 246C273.271 246.027 272.965 246.04 272.778 246.04C271.765 246.04 270.998 245.86 270.478 245.5C269.971 245.127 269.718 244.447 269.718 243.46V237.48C269.718 237.427 269.691 237.4 269.638 237.4H268.418C268.285 237.4 268.218 237.333 268.218 237.2V236.02C268.218 235.887 268.285 235.82 268.418 235.82H269.638C269.691 235.82 269.718 235.793 269.718 235.74V233.38C269.718 233.247 269.785 233.18 269.918 233.18H271.358C271.491 233.18 271.558 233.247 271.558 233.38V235.74C271.558 235.793 271.585 235.82 271.638 235.82H273.798C273.931 235.82 273.998 235.887 273.998 236.02V237.2ZM276.061 249.98C275.968 249.98 275.921 249.913 275.921 249.78V248.6C275.921 248.467 275.988 248.4 276.121 248.4H276.161C276.694 248.387 277.114 248.32 277.421 248.2C277.728 248.08 277.981 247.853 278.181 247.52C278.381 247.2 278.574 246.713 278.761 246.06C278.774 246.047 278.774 246.027 278.761 246C278.761 245.96 278.761 245.94 278.761 245.94L275.421 236.04L275.401 235.96C275.401 235.867 275.461 235.82 275.581 235.82H277.201C277.321 235.82 277.401 235.873 277.441 235.98L279.701 243.52C279.714 243.547 279.734 243.56 279.761 243.56C279.788 243.56 279.808 243.547 279.821 243.52L282.061 235.98C282.101 235.873 282.181 235.82 282.301 235.82H283.881C284.028 235.82 284.081 235.893 284.041 236.04L280.401 246.7C280.094 247.62 279.788 248.3 279.481 248.74C279.174 249.193 278.774 249.513 278.281 249.7C277.788 249.887 277.094 249.98 276.201 249.98H276.061ZM286.092 246C285.959 246 285.892 245.933 285.892 245.8V232.2C285.892 232.067 285.959 232 286.092 232H287.612C287.746 232 287.812 232.067 287.812 232.2V245.8C287.812 245.933 287.746 246 287.612 246H286.092ZM298.839 239.64C298.893 240.187 298.913 240.8 298.899 241.48C298.899 241.613 298.833 241.68 298.699 241.68H292.319C292.266 241.68 292.239 241.707 292.239 241.76C292.239 242.213 292.279 242.56 292.359 242.8C292.506 243.333 292.799 243.753 293.239 244.06C293.693 244.353 294.259 244.5 294.939 244.5C295.926 244.5 296.686 244.093 297.219 243.28C297.286 243.147 297.373 243.127 297.479 243.22L298.619 243.98C298.713 244.06 298.733 244.147 298.679 244.24C298.306 244.84 297.773 245.313 297.079 245.66C296.399 246.007 295.626 246.18 294.759 246.18C293.786 246.18 292.966 245.967 292.299 245.54C291.633 245.113 291.133 244.507 290.799 243.72C290.479 242.933 290.319 241.98 290.319 240.86C290.319 239.887 290.393 239.147 290.539 238.64C290.779 237.72 291.259 236.993 291.979 236.46C292.699 235.927 293.573 235.66 294.599 235.66C295.946 235.66 296.953 236 297.619 236.68C298.286 237.347 298.693 238.333 298.839 239.64ZM294.599 237.32C294.026 237.32 293.553 237.467 293.179 237.76C292.806 238.04 292.553 238.42 292.419 238.9C292.326 239.193 292.266 239.567 292.239 240.02C292.239 240.073 292.266 240.1 292.319 240.1H296.899C296.953 240.1 296.979 240.073 296.979 240.02C296.953 239.58 296.913 239.253 296.859 239.04C296.726 238.52 296.459 238.107 296.059 237.8C295.673 237.48 295.186 237.32 294.599 237.32Z" fill="#E6E6E6"/>
<rect x="40.5" y="344.5" width="279" height="55" rx="7.5" fill="white" fill-opacity="0.05"/>
<path d="M73.4716 374.612L69.7286 375.338C67.2 374.069 65.6385 372.611 64.7296 370.339L65.4294 366.585L64.107 363.067H60.6976C59.6723 363.067 58.8652 363.914 59.0188 364.928C59.4006 367.457 60.5276 372.045 63.8206 375.338C67.2791 378.796 72.2609 380.297 75.0022 380.894C76.0611 381.124 77 380.299 77 379.214V375.957L73.4716 374.612Z" stroke="#E6E6E6" stroke-width="1.5" stroke-linecap="round" stroke-linejoin="round"/>
<path d="M103.104 368.768C103.232 369.195 103.296 369.696 103.296 370.272V375.264C103.296 376.139 103.008 376.837 102.432 377.36C101.856 377.872 101.104 378.128 100.176 378.128C99.28 378.128 98.5493 377.877 97.984 377.376C97.4293 376.864 97.152 376.203 97.152 375.392V375.168C97.152 375.061 97.2053 375.008 97.312 375.008H98.128C98.2347 375.008 98.288 375.061 98.288 375.168V375.296C98.288 375.84 98.464 376.283 98.816 376.624C99.168 376.965 99.6213 377.136 100.176 377.136C100.752 377.136 101.227 376.96 101.6 376.608C101.973 376.245 102.16 375.771 102.16 375.184V372.848C102.16 372.827 102.149 372.816 102.128 372.816C102.107 372.805 102.091 372.811 102.08 372.832C101.611 373.461 100.907 373.776 99.968 373.776C99.296 373.776 98.7307 373.627 98.272 373.328C97.824 373.029 97.4827 372.608 97.248 372.064C97.024 371.616 96.912 371.008 96.912 370.24C96.912 369.589 96.992 369.056 97.152 368.64C97.376 368.021 97.7333 367.541 98.224 367.2C98.7253 366.859 99.3387 366.688 100.064 366.688C100.832 366.688 101.477 366.875 102 367.248C102.533 367.611 102.901 368.117 103.104 368.768ZM100.112 372.784C100.581 372.784 100.976 372.672 101.296 372.448C101.627 372.213 101.856 371.893 101.984 371.488C102.101 371.179 102.16 370.747 102.16 370.192C102.16 369.733 102.112 369.344 102.016 369.024C101.888 368.619 101.659 368.293 101.328 368.048C100.997 367.803 100.592 367.68 100.112 367.68C99.6533 367.68 99.2587 367.797 98.928 368.032C98.5973 368.256 98.3627 368.587 98.224 369.024C98.1067 369.323 98.048 369.728 98.048 370.24C98.048 370.784 98.1173 371.211 98.256 371.52C98.384 371.904 98.608 372.213 98.928 372.448C99.248 372.672 99.6427 372.784 100.112 372.784ZM114.427 372.704C114.64 373.227 114.747 373.851 114.747 374.576C114.747 375.163 114.667 375.68 114.507 376.128C114.294 376.768 113.931 377.264 113.419 377.616C112.918 377.957 112.294 378.128 111.547 378.128C110.8 378.128 110.16 377.936 109.627 377.552C109.094 377.157 108.726 376.629 108.523 375.968C108.427 375.669 108.368 375.264 108.347 374.752C108.347 374.645 108.4 374.592 108.507 374.592H109.323C109.43 374.592 109.483 374.645 109.483 374.752C109.504 375.061 109.542 375.349 109.595 375.616C109.712 376.085 109.936 376.459 110.267 376.736C110.608 377.003 111.03 377.136 111.531 377.136C112.491 377.136 113.115 376.709 113.403 375.856C113.531 375.504 113.595 375.067 113.595 374.544C113.595 373.904 113.51 373.381 113.339 372.976C112.998 372.208 112.395 371.824 111.531 371.824C111.371 371.824 111.174 371.883 110.939 372C110.896 372.021 110.864 372.032 110.843 372.032C110.8 372.032 110.763 372.005 110.731 371.952L110.315 371.392C110.262 371.307 110.267 371.232 110.331 371.168L113.147 367.872C113.179 367.819 113.168 367.792 113.115 367.792H108.603C108.496 367.792 108.443 367.739 108.443 367.632V366.96C108.443 366.853 108.496 366.8 108.603 366.8H114.523C114.63 366.8 114.683 366.853 114.683 366.96V367.744C114.683 367.797 114.656 367.861 114.603 367.936L112.043 371.008C112.022 371.029 112.016 371.051 112.027 371.072C112.038 371.083 112.059 371.088 112.091 371.088C113.232 371.163 114.011 371.701 114.427 372.704ZM123.48 378.16C122.456 378.16 121.64 377.867 121.032 377.28C120.424 376.693 120.12 375.909 120.12 374.928V369.872C120.12 368.891 120.424 368.112 121.032 367.536C121.64 366.949 122.456 366.656 123.48 366.656C124.515 366.656 125.342 366.949 125.96 367.536C126.579 368.123 126.888 368.901 126.888 369.872V374.928C126.888 375.909 126.579 376.693 125.96 377.28C125.342 377.867 124.515 378.16 123.48 378.16ZM123.48 377.168C124.163 377.168 124.712 376.971 125.128 376.576C125.544 376.181 125.752 375.653 125.752 374.992V369.824C125.752 369.173 125.544 368.651 125.128 368.256C124.723 367.861 124.174 367.664 123.48 367.664C122.808 367.664 122.27 367.861 121.864 368.256C121.459 368.651 121.256 369.173 121.256 369.824V374.992C121.256 375.653 121.459 376.181 121.864 376.576C122.27 376.971 122.808 377.168 123.48 377.168ZM138.338 368.768C138.466 369.195 138.53 369.696 138.53 370.272V375.264C138.53 376.139 138.242 376.837 137.666 377.36C137.09 377.872 136.338 378.128 135.41 378.128C134.514 378.128 133.784 377.877 133.218 377.376C132.664 376.864 132.386 376.203 132.386 375.392V375.168C132.386 375.061 132.44 375.008 132.546 375.008H133.362C133.469 375.008 133.522 375.061 133.522 375.168V375.296C133.522 375.84 133.698 376.283 134.05 376.624C134.402 376.965 134.856 377.136 135.41 377.136C135.986 377.136 136.461 376.96 136.834 376.608C137.208 376.245 137.394 375.771 137.394 375.184V372.848C137.394 372.827 137.384 372.816 137.362 372.816C137.341 372.805 137.325 372.811 137.314 372.832C136.845 373.461 136.141 373.776 135.202 373.776C134.53 373.776 133.965 373.627 133.506 373.328C133.058 373.029 132.717 372.608 132.482 372.064C132.258 371.616 132.146 371.008 132.146 370.24C132.146 369.589 132.226 369.056 132.386 368.64C132.61 368.021 132.968 367.541 133.458 367.2C133.96 366.859 134.573 366.688 135.298 366.688C136.066 366.688 136.712 366.875 137.234 367.248C137.768 367.611 138.136 368.117 138.338 368.768ZM135.346 372.784C135.816 372.784 136.21 372.672 136.53 372.448C136.861 372.213 137.09 371.893 137.218 371.488C137.336 371.179 137.394 370.747 137.394 370.192C137.394 369.733 137.346 369.344 137.25 369.024C137.122 368.619 136.893 368.293 136.562 368.048C136.232 367.803 135.826 367.68 135.346 367.68C134.888 367.68 134.493 367.797 134.162 368.032C133.832 368.256 133.597 368.587 133.458 369.024C133.341 369.323 133.282 369.728 133.282 370.24C133.282 370.784 133.352 371.211 133.49 371.52C133.618 371.904 133.842 372.213 134.162 372.448C134.482 372.672 134.877 372.784 135.346 372.784ZM150.061 373.104C150.157 373.573 150.205 374.053 150.205 374.544C150.205 375.067 150.157 375.515 150.061 375.888C149.88 376.571 149.517 377.115 148.973 377.52C148.429 377.915 147.773 378.112 147.005 378.112C146.248 378.112 145.603 377.92 145.069 377.536C144.536 377.152 144.173 376.64 143.981 376C143.907 375.765 143.859 375.531 143.837 375.296V375.264C143.837 375.179 143.885 375.136 143.981 375.136H144.829C144.936 375.136 144.995 375.189 145.005 375.296C145.005 375.36 145.027 375.467 145.069 375.616C145.176 376.075 145.395 376.443 145.725 376.72C146.067 376.987 146.488 377.12 146.989 377.12C147.501 377.12 147.928 376.976 148.269 376.688C148.621 376.4 148.851 376.005 148.957 375.504C149.021 375.259 149.053 374.939 149.053 374.544C149.053 374.181 149.027 373.835 148.973 373.504C148.899 373.013 148.685 372.64 148.333 372.384C147.981 372.128 147.544 372 147.021 372C146.552 372 146.131 372.107 145.757 372.32C145.384 372.533 145.144 372.816 145.037 373.168C145.005 373.264 144.947 373.312 144.861 373.312H143.997C143.891 373.312 143.837 373.259 143.837 373.152V366.96C143.837 366.853 143.891 366.8 143.997 366.8H149.597C149.704 366.8 149.757 366.853 149.757 366.96V367.632C149.757 367.739 149.704 367.792 149.597 367.792H145.037C144.995 367.792 144.973 367.813 144.973 367.856L144.957 371.728C144.957 371.749 144.963 371.765 144.973 371.776C144.995 371.787 145.016 371.781 145.037 371.76C145.304 371.515 145.619 371.328 145.981 371.2C146.344 371.061 146.728 370.992 147.133 370.992C147.891 370.992 148.531 371.179 149.053 371.552C149.576 371.915 149.912 372.432 150.061 373.104ZM161.083 372.704C161.296 373.227 161.403 373.851 161.403 374.576C161.403 375.163 161.323 375.68 161.163 376.128C160.95 376.768 160.587 377.264 160.075 377.616C159.574 377.957 158.95 378.128 158.203 378.128C157.456 378.128 156.816 377.936 156.283 377.552C155.75 377.157 155.382 376.629 155.179 375.968C155.083 375.669 155.024 375.264 155.003 374.752C155.003 374.645 155.056 374.592 155.163 374.592H155.979C156.086 374.592 156.139 374.645 156.139 374.752C156.16 375.061 156.198 375.349 156.251 375.616C156.368 376.085 156.592 376.459 156.923 376.736C157.264 377.003 157.686 377.136 158.187 377.136C159.147 377.136 159.771 376.709 160.059 375.856C160.187 375.504 160.251 375.067 160.251 374.544C160.251 373.904 160.166 373.381 159.995 372.976C159.654 372.208 159.051 371.824 158.187 371.824C158.027 371.824 157.83 371.883 157.595 372C157.552 372.021 157.52 372.032 157.499 372.032C157.456 372.032 157.419 372.005 157.387 371.952L156.971 371.392C156.918 371.307 156.923 371.232 156.987 371.168L159.803 367.872C159.835 367.819 159.824 367.792 159.771 367.792H155.259C155.152 367.792 155.099 367.739 155.099 367.632V366.96C155.099 366.853 155.152 366.8 155.259 366.8H161.179C161.286 366.8 161.339 366.853 161.339 366.96V367.744C161.339 367.797 161.312 367.861 161.259 367.936L158.699 371.008C158.678 371.029 158.672 371.051 158.683 371.072C158.694 371.083 158.715 371.088 158.747 371.088C159.888 371.163 160.667 371.701 161.083 372.704ZM168.073 376.928C168.041 376.981 168.051 377.008 168.105 377.008H173.129C173.235 377.008 173.289 377.061 173.289 377.168V377.84C173.289 377.947 173.235 378 173.129 378H166.745C166.638 378 166.585 377.947 166.585 377.84V377.168C166.585 377.093 166.611 377.029 166.665 376.976C167.027 376.549 167.843 375.547 169.113 373.968L170.297 372.496C171.299 371.227 171.801 370.24 171.801 369.536C171.801 368.971 171.609 368.517 171.225 368.176C170.841 367.835 170.339 367.664 169.721 367.664C169.113 367.664 168.622 367.84 168.249 368.192C167.875 368.533 167.694 368.987 167.705 369.552V370.048C167.705 370.155 167.651 370.208 167.545 370.208H166.713C166.606 370.208 166.553 370.155 166.553 370.048V369.408C166.574 368.587 166.878 367.925 167.465 367.424C168.062 366.923 168.814 366.672 169.721 366.672C170.361 366.672 170.926 366.795 171.417 367.04C171.907 367.285 172.286 367.627 172.553 368.064C172.819 368.491 172.953 368.976 172.953 369.52C172.953 370.427 172.451 371.52 171.449 372.8C170.926 373.472 169.918 374.709 168.425 376.512L168.073 376.928ZM181.918 378.16C180.894 378.16 180.078 377.867 179.47 377.28C178.862 376.693 178.558 375.909 178.558 374.928V369.872C178.558 368.891 178.862 368.112 179.47 367.536C180.078 366.949 180.894 366.656 181.918 366.656C182.953 366.656 183.779 366.949 184.398 367.536C185.017 368.123 185.326 368.901 185.326 369.872V374.928C185.326 375.909 185.017 376.693 184.398 377.28C183.779 377.867 182.953 378.16 181.918 378.16ZM181.918 377.168C182.601 377.168 183.15 376.971 183.566 376.576C183.982 376.181 184.19 375.653 184.19 374.992V369.824C184.19 369.173 183.982 368.651 183.566 368.256C183.161 367.861 182.611 367.664 181.918 367.664C181.246 367.664 180.707 367.861 180.302 368.256C179.897 368.651 179.694 369.173 179.694 369.824V374.992C179.694 375.653 179.897 376.181 180.302 376.576C180.707 376.971 181.246 377.168 181.918 377.168ZM196.728 373.296C196.931 373.733 197.032 374.256 197.032 374.864C197.032 375.6 196.877 376.224 196.568 376.736C196.312 377.173 195.949 377.515 195.48 377.76C195.011 378.005 194.467 378.128 193.848 378.128C193.208 378.128 192.648 378.005 192.168 377.76C191.688 377.504 191.32 377.136 191.064 376.656C190.765 376.123 190.616 375.52 190.616 374.848C190.616 374.283 190.728 373.749 190.952 373.248C191.197 372.715 191.587 372.315 192.12 372.048C192.173 372.027 192.173 372 192.12 371.968C191.768 371.765 191.48 371.493 191.256 371.152C190.936 370.693 190.776 370.171 190.776 369.584C190.776 368.987 190.936 368.443 191.256 367.952C191.512 367.536 191.864 367.216 192.312 366.992C192.771 366.757 193.283 366.64 193.848 366.64C194.435 366.64 194.947 366.757 195.384 366.992C195.821 367.216 196.168 367.536 196.424 367.952C196.733 368.453 196.888 368.997 196.888 369.584C196.888 370.171 196.728 370.704 196.408 371.184C196.216 371.472 195.933 371.733 195.56 371.968C195.507 372 195.507 372.027 195.56 372.048C196.104 372.315 196.493 372.731 196.728 373.296ZM192.152 368.64C191.981 368.96 191.896 369.275 191.896 369.584C191.896 370.032 192.008 370.421 192.232 370.752C192.403 371.019 192.621 371.221 192.888 371.36C193.165 371.499 193.48 371.568 193.832 371.568C194.184 371.568 194.499 371.499 194.776 371.36C195.053 371.211 195.277 371.003 195.448 370.736C195.651 370.448 195.752 370.059 195.752 369.568C195.752 369.216 195.672 368.896 195.512 368.608C195.352 368.309 195.128 368.075 194.84 367.904C194.552 367.723 194.211 367.632 193.816 367.632C193.443 367.632 193.112 367.723 192.824 367.904C192.536 368.085 192.312 368.331 192.152 368.64ZM195.496 376.304C195.763 375.899 195.896 375.392 195.896 374.784C195.896 374.283 195.811 373.851 195.64 373.488C195.32 372.784 194.717 372.432 193.832 372.432C192.989 372.432 192.403 372.763 192.072 373.424C191.88 373.765 191.784 374.224 191.784 374.8C191.784 375.397 191.901 375.883 192.136 376.256C192.499 376.843 193.069 377.136 193.848 377.136C194.605 377.136 195.155 376.859 195.496 376.304ZM208.323 372.736C208.547 373.216 208.659 373.824 208.659 374.56C208.659 375.221 208.573 375.755 208.403 376.16C208.179 376.779 207.821 377.259 207.331 377.6C206.84 377.941 206.227 378.112 205.491 378.112C204.723 378.112 204.077 377.931 203.555 377.568C203.032 377.205 202.664 376.693 202.451 376.032C202.323 375.605 202.259 375.104 202.259 374.528V369.536C202.259 368.661 202.547 367.968 203.123 367.456C203.699 366.933 204.451 366.672 205.379 366.672C206.285 366.672 207.016 366.923 207.571 367.424C208.125 367.925 208.403 368.587 208.403 369.408V369.632C208.403 369.739 208.349 369.792 208.243 369.792H207.427C207.32 369.792 207.267 369.739 207.267 369.632V369.504C207.267 368.96 207.091 368.517 206.739 368.176C206.387 367.835 205.933 367.664 205.379 367.664C204.803 367.664 204.328 367.845 203.955 368.208C203.581 368.56 203.395 369.029 203.395 369.616V371.968C203.395 371.989 203.405 372.005 203.427 372.016C203.448 372.016 203.464 372.005 203.475 371.984C203.944 371.344 204.653 371.024 205.603 371.024C206.275 371.024 206.835 371.173 207.283 371.472C207.741 371.771 208.088 372.192 208.323 372.736ZM207.331 375.776C207.459 375.445 207.523 375.04 207.523 374.56C207.523 374.005 207.448 373.579 207.299 373.28C207.171 372.885 206.947 372.576 206.627 372.352C206.307 372.128 205.912 372.016 205.443 372.016C204.973 372.016 204.579 372.133 204.259 372.368C203.939 372.592 203.715 372.907 203.587 373.312C203.459 373.643 203.395 374.075 203.395 374.608C203.395 375.077 203.448 375.467 203.555 375.776C203.683 376.181 203.907 376.507 204.227 376.752C204.557 376.997 204.968 377.12 205.459 377.12C205.917 377.12 206.312 377.008 206.643 376.784C206.973 376.549 207.203 376.213 207.331 375.776Z" fill="#E6E6E6"/>
<path d="M287.5 372.45L290.2 375.15L296.5 368.85M292 381C296.971 381 301 376.971 301 372C301 367.029 296.971 363 292 363C287.029 363 283 367.029 283 372C283 376.971 287.029 381 292 381Z" stroke="#E6E6E6" stroke-width="1.5" stroke-linecap="round" stroke-linejoin="round"/>
<rect x="40.5" y="344.5" width="279" height="55" rx="7.5" stroke="white"/>
<rect x="40.5" y="420.5" width="279" height="55" rx="7.5" fill="white" fill-opacity="0.05"/>
<path d="M76.0202 447.572C76.0202 447.986 76.356 448.322 76.7702 448.322C77.1844 448.322 77.5202 447.986 77.5202 447.572H76.0202ZM74.7957 440.661V439.911V440.661ZM60.9745 440.661V439.911V440.661ZM59 442.636H58.25H59ZM59 448.559H58.25H59ZM67.8851 451.283C68.2993 451.283 68.6351 450.948 68.6351 450.533C68.6351 450.119 68.2993 449.783 67.8851 449.783V451.283ZM76.6507 451.439L77.0438 450.8L77.0437 450.8L76.6507 451.439ZM76.6063 452.526L76.6908 453.271L76.6914 453.271L76.6063 452.526ZM74.0721 452.813L73.9876 452.068L73.5824 452.114L73.4007 452.479L74.0721 452.813ZM72.9358 455.095L72.2644 454.761L72.2641 454.762L72.9358 455.095ZM71.8992 454.766L71.1645 454.916L71.1646 454.917L71.8992 454.766ZM70.6602 448.728L71.3949 448.577L71.3947 448.576L70.6602 448.728ZM71.4006 448.21L71.0071 448.848L71.0077 448.848L71.4006 448.21ZM67.3301 445.103C67.0515 445.409 67.0741 445.884 67.3806 446.162C67.6871 446.441 68.1614 446.418 68.4401 446.112L67.3301 445.103ZM68.4499 446.101C68.7286 445.794 68.706 445.32 68.3995 445.041C68.093 444.763 67.6186 444.785 67.34 445.092L68.4499 446.101ZM71.2791 445.103C71.0004 445.409 71.023 445.884 71.3295 446.162C71.636 446.441 72.1104 446.418 72.389 446.112L71.2791 445.103ZM72.3989 446.101C72.6775 445.794 72.6549 445.32 72.3484 445.041C72.0419 444.763 71.5676 444.785 71.2889 445.092L72.3989 446.101ZM63.3812 445.103C63.1026 445.409 63.1252 445.884 63.4317 446.162C63.7382 446.441 64.2125 446.418 64.4911 446.112L63.3812 445.103ZM64.501 446.101C64.7796 445.794 64.757 445.32 64.4505 445.041C64.144 444.763 63.6697 444.785 63.3911 445.092L64.501 446.101ZM77.5202 447.572V442.636H76.0202V447.572H77.5202ZM77.5202 442.636C77.5202 441.913 77.2331 441.22 76.7222 440.709L75.6615 441.77C75.8912 441.999 76.0202 442.311 76.0202 442.636H77.5202ZM76.7222 440.709C76.2113 440.198 75.5183 439.911 74.7957 439.911V441.411C75.1205 441.411 75.4319 441.54 75.6615 441.77L76.7222 440.709ZM74.7957 439.911H60.9745V441.411H74.7957V439.911ZM60.9745 439.911C60.2519 439.911 59.5589 440.198 59.048 440.709L60.1086 441.77C60.3383 441.54 60.6497 441.411 60.9745 441.411V439.911ZM59.048 440.709C58.537 441.22 58.25 441.913 58.25 442.636H59.75C59.75 442.311 59.879 441.999 60.1086 441.77L59.048 440.709ZM58.25 442.636V448.559H59.75V442.636H58.25ZM58.25 448.559C58.25 449.282 58.537 449.975 59.048 450.485L60.1086 449.425C59.879 449.195 59.75 448.884 59.75 448.559H58.25ZM59.048 450.485C59.5589 450.996 60.2519 451.283 60.9745 451.283V449.783C60.6497 449.783 60.3383 449.654 60.1086 449.425L59.048 450.485ZM60.9745 451.283H67.8851V449.783H60.9745V451.283ZM76.2577 452.077C76.2604 452.079 76.2488 452.075 76.2501 452.042C76.2509 452.023 76.2584 451.966 76.3108 451.902C76.3714 451.827 76.4557 451.788 76.5212 451.781L76.6914 453.271C77.3946 453.191 77.728 452.608 77.7488 452.104C77.7689 451.618 77.5288 451.098 77.0438 450.8L76.2577 452.077ZM76.5218 451.78L73.9876 452.068L74.1566 453.558L76.6908 453.271L76.5218 451.78ZM73.4007 452.479L72.2644 454.761L73.6072 455.43L74.7435 453.147L73.4007 452.479ZM72.2641 454.762C72.2932 454.703 72.3584 454.637 72.45 454.605C72.5291 454.578 72.5855 454.59 72.604 454.596C72.6348 454.606 72.6345 454.618 72.6338 454.614L71.1646 454.917C71.2794 455.474 71.6848 455.878 72.1488 456.025C72.6297 456.179 73.2921 456.064 73.6075 455.429L72.2641 454.762ZM72.6339 454.615L71.3949 448.577L69.9255 448.879L71.1645 454.916L72.6339 454.615ZM71.3947 448.576C71.3955 448.58 71.4009 448.614 71.3823 448.666C71.3638 448.717 71.3263 448.77 71.2693 448.81C71.2124 448.85 71.1494 448.867 71.095 448.867C71.0405 448.867 71.0104 448.85 71.0071 448.848L71.7941 447.571C71.3675 447.308 70.8315 447.286 70.4094 447.581C69.9872 447.877 69.8243 448.388 69.9257 448.879L71.3947 448.576ZM71.0077 448.848L76.2578 452.078L77.0437 450.8L71.7936 447.571L71.0077 448.848ZM68.4401 446.112L68.4499 446.101L67.34 445.092L67.3301 445.103L68.4401 446.112ZM72.389 446.112L72.3989 446.101L71.2889 445.092L71.2791 445.103L72.389 446.112ZM64.4911 446.112L64.501 446.101L63.3911 445.092L63.3812 445.103L64.4911 446.112Z" fill="#E6E6E6"/>
<path d="M96.624 454C96.5173 454 96.464 453.947 96.464 453.84V453.248C96.464 453.141 96.5173 453.088 96.624 453.088H103.12C103.227 453.088 103.28 453.141 103.28 453.248V453.84C103.28 453.947 103.227 454 103.12 454H96.624ZM113.977 454C113.87 454 113.817 453.947 113.817 453.84V453.248C113.817 453.141 113.87 453.088 113.977 453.088H120.473C120.58 453.088 120.633 453.141 120.633 453.248V453.84C120.633 453.947 120.58 454 120.473 454H113.977ZM131.33 454C131.224 454 131.17 453.947 131.17 453.84V453.248C131.17 453.141 131.224 453.088 131.33 453.088H137.826C137.933 453.088 137.986 453.141 137.986 453.248V453.84C137.986 453.947 137.933 454 137.826 454H131.33ZM148.683 454C148.577 454 148.523 453.947 148.523 453.84V453.248C148.523 453.141 148.577 453.088 148.683 453.088H155.179C155.286 453.088 155.339 453.141 155.339 453.248V453.84C155.339 453.947 155.286 454 155.179 454H148.683ZM166.036 454C165.93 454 165.876 453.947 165.876 453.84V453.248C165.876 453.141 165.93 453.088 166.036 453.088H172.532C172.639 453.088 172.692 453.141 172.692 453.248V453.84C172.692 453.947 172.639 454 172.532 454H166.036ZM183.39 454C183.283 454 183.23 453.947 183.23 453.84V453.248C183.23 453.141 183.283 453.088 183.39 453.088H189.886C189.992 453.088 190.046 453.141 190.046 453.248V453.84C190.046 453.947 189.992 454 189.886 454H183.39Z" fill="#E6E6E6"/>
<path d="M283 439L301 457M290.5 446.677C290.163 447.059 289.984 447.554 290 448.063C290.016 448.572 290.225 449.055 290.585 449.415C290.945 449.775 291.428 449.984 291.937 450C292.446 450.016 292.941 449.837 293.323 449.5M287.362 443.561C285.68 444.74 284.279 446.42 283 448C284.889 450.991 288.282 454 292 454C293.55 454 295.043 453.477 296.395 452.65M292 442C296.008 442 298.701 445.158 301 448C300.67 448.521 300.311 449.022 299.922 449.5" stroke="#E6E6E6" stroke-width="1.5" stroke-linecap="round" stroke-linejoin="round"/>
<rect x="40.5" y="420.5" width="279" height="55" rx="7.5" stroke="white"/>
<rect x="60" y="560" width="240" height="48" rx="8" fill="url(#paint0_linear_85_31733)"/>
<path d="M141.295 578.364L144.534 587.841H144.665L147.903 578.364H149.801L145.614 590H143.585L139.398 578.364H141.295ZM154.232 590.176C153.372 590.176 152.631 589.992 152.01 589.625C151.393 589.254 150.915 588.733 150.578 588.062C150.245 587.388 150.078 586.598 150.078 585.693C150.078 584.799 150.245 584.011 150.578 583.33C150.915 582.648 151.385 582.116 151.987 581.733C152.593 581.35 153.302 581.159 154.112 581.159C154.605 581.159 155.082 581.241 155.544 581.403C156.006 581.566 156.421 581.822 156.788 582.17C157.156 582.519 157.446 582.972 157.658 583.528C157.87 584.081 157.976 584.754 157.976 585.545V586.148H151.038V584.875H156.311C156.311 584.428 156.22 584.032 156.038 583.688C155.857 583.339 155.601 583.064 155.271 582.864C154.946 582.663 154.563 582.562 154.124 582.562C153.646 582.562 153.23 582.68 152.874 582.915C152.521 583.146 152.249 583.449 152.055 583.824C151.866 584.195 151.771 584.598 151.771 585.034V586.028C151.771 586.612 151.874 587.108 152.078 587.517C152.286 587.926 152.576 588.239 152.947 588.455C153.319 588.667 153.752 588.773 154.249 588.773C154.571 588.773 154.864 588.727 155.129 588.636C155.394 588.542 155.624 588.402 155.817 588.216C156.01 588.03 156.158 587.801 156.26 587.528L157.868 587.818C157.739 588.292 157.508 588.706 157.175 589.062C156.845 589.415 156.43 589.689 155.93 589.886C155.434 590.08 154.868 590.176 154.232 590.176ZM159.861 590V581.273H161.503V582.659H161.594C161.753 582.189 162.033 581.82 162.435 581.551C162.84 581.278 163.298 581.142 163.81 581.142C163.916 581.142 164.041 581.146 164.185 581.153C164.332 581.161 164.448 581.17 164.531 581.182V582.807C164.463 582.788 164.342 582.767 164.168 582.744C163.993 582.718 163.819 582.705 163.645 582.705C163.243 582.705 162.885 582.79 162.571 582.96C162.26 583.127 162.014 583.36 161.832 583.659C161.651 583.955 161.56 584.292 161.56 584.67V590H159.861ZM166.001 590V581.273H167.7V590H166.001ZM166.859 579.926C166.564 579.926 166.31 579.828 166.098 579.631C165.89 579.43 165.786 579.191 165.786 578.915C165.786 578.634 165.89 578.396 166.098 578.199C166.31 577.998 166.564 577.898 166.859 577.898C167.155 577.898 167.407 577.998 167.615 578.199C167.827 578.396 167.933 578.634 167.933 578.915C167.933 579.191 167.827 579.43 167.615 579.631C167.407 579.828 167.155 579.926 166.859 579.926ZM174.139 581.273V582.636H169.207V581.273H174.139ZM170.56 590V580.261C170.56 579.716 170.679 579.263 170.918 578.903C171.156 578.54 171.473 578.269 171.866 578.091C172.26 577.909 172.688 577.818 173.151 577.818C173.491 577.818 173.783 577.847 174.026 577.903C174.268 577.956 174.448 578.006 174.565 578.051L174.168 579.426C174.088 579.403 173.986 579.377 173.861 579.347C173.736 579.312 173.584 579.295 173.406 579.295C172.993 579.295 172.698 579.398 172.52 579.602C172.346 579.807 172.259 580.102 172.259 580.489V590H170.56ZM176.966 593.273C176.712 593.273 176.481 593.252 176.273 593.21C176.064 593.172 175.909 593.131 175.807 593.085L176.216 591.693C176.527 591.777 176.803 591.813 177.045 591.801C177.288 591.79 177.502 591.699 177.688 591.528C177.877 591.358 178.044 591.08 178.188 590.693L178.398 590.114L175.205 581.273H177.023L179.233 588.045H179.324L181.534 581.273H183.358L179.761 591.165C179.595 591.619 179.383 592.004 179.125 592.318C178.867 592.636 178.561 592.875 178.205 593.034C177.848 593.193 177.436 593.273 176.966 593.273ZM199.433 584.182C199.433 585.424 199.206 586.492 198.751 587.386C198.297 588.277 197.674 588.962 196.882 589.443C196.094 589.92 195.198 590.159 194.195 590.159C193.187 590.159 192.287 589.92 191.496 589.443C190.708 588.962 190.087 588.275 189.632 587.381C189.178 586.487 188.95 585.42 188.95 584.182C188.95 582.939 189.178 581.873 189.632 580.983C190.087 580.089 190.708 579.403 191.496 578.926C192.287 578.445 193.187 578.205 194.195 578.205C195.198 578.205 196.094 578.445 196.882 578.926C197.674 579.403 198.297 580.089 198.751 580.983C199.206 581.873 199.433 582.939 199.433 584.182ZM197.695 584.182C197.695 583.235 197.541 582.437 197.234 581.79C196.931 581.138 196.515 580.646 195.984 580.312C195.458 579.975 194.861 579.807 194.195 579.807C193.524 579.807 192.926 579.975 192.399 580.312C191.873 580.646 191.456 581.138 191.149 581.79C190.846 582.437 190.695 583.235 190.695 584.182C190.695 585.129 190.846 585.928 191.149 586.58C191.456 587.227 191.873 587.72 192.399 588.057C192.926 588.39 193.524 588.557 194.195 588.557C194.861 588.557 195.458 588.39 195.984 588.057C196.515 587.72 196.931 587.227 197.234 586.58C197.541 585.928 197.695 585.129 197.695 584.182ZM200.548 579.875V578.364H209.554V579.875H205.923V590H204.173V579.875H200.548ZM211.544 590V578.364H215.692C216.597 578.364 217.347 578.528 217.942 578.858C218.536 579.187 218.982 579.638 219.277 580.21C219.572 580.778 219.72 581.419 219.72 582.131C219.72 582.847 219.571 583.491 219.271 584.062C218.976 584.631 218.529 585.081 217.93 585.415C217.336 585.744 216.588 585.909 215.686 585.909H212.834V584.42H215.527C216.099 584.42 216.563 584.322 216.919 584.125C217.275 583.924 217.536 583.652 217.703 583.307C217.87 582.962 217.953 582.57 217.953 582.131C217.953 581.691 217.87 581.301 217.703 580.96C217.536 580.619 217.273 580.352 216.913 580.159C216.557 579.966 216.088 579.869 215.504 579.869H213.3V590H211.544Z" fill="#E6E6E6"/>
<path d="M100.443 638.148H98.6705C98.6023 637.769 98.4754 637.436 98.2898 637.148C98.1042 636.86 97.8769 636.616 97.608 636.415C97.339 636.214 97.0379 636.062 96.7045 635.96C96.375 635.858 96.0246 635.807 95.6534 635.807C94.983 635.807 94.3826 635.975 93.8523 636.312C93.3258 636.65 92.9091 637.144 92.6023 637.795C92.2992 638.447 92.1477 639.242 92.1477 640.182C92.1477 641.129 92.2992 641.928 92.6023 642.58C92.9091 643.231 93.3277 643.723 93.858 644.057C94.3883 644.39 94.9848 644.557 95.6477 644.557C96.0152 644.557 96.3636 644.508 96.6932 644.409C97.0265 644.307 97.3277 644.157 97.5966 643.96C97.8655 643.763 98.0928 643.523 98.2784 643.239C98.4678 642.951 98.5985 642.621 98.6705 642.25L100.443 642.256C100.348 642.828 100.165 643.354 99.892 643.835C99.6231 644.312 99.2765 644.725 98.8523 645.074C98.4318 645.419 97.9508 645.686 97.4091 645.875C96.8674 646.064 96.2765 646.159 95.6364 646.159C94.6288 646.159 93.7311 645.92 92.9432 645.443C92.1553 644.962 91.5341 644.275 91.0795 643.381C90.6288 642.487 90.4034 641.42 90.4034 640.182C90.4034 638.939 90.6307 637.873 91.0852 636.983C91.5398 636.089 92.161 635.403 92.9489 634.926C93.7367 634.445 94.6326 634.205 95.6364 634.205C96.2538 634.205 96.8295 634.294 97.3636 634.472C97.9015 634.646 98.3845 634.903 98.8125 635.244C99.2405 635.581 99.5947 635.994 99.875 636.483C100.155 636.968 100.345 637.523 100.443 638.148ZM104.107 640.818V646H102.408V634.364H104.084V638.693H104.192C104.396 638.223 104.709 637.85 105.129 637.574C105.55 637.297 106.099 637.159 106.777 637.159C107.375 637.159 107.898 637.282 108.345 637.528C108.796 637.775 109.144 638.142 109.391 638.631C109.641 639.116 109.766 639.722 109.766 640.449V646H108.067V640.653C108.067 640.013 107.902 639.517 107.572 639.165C107.243 638.809 106.785 638.631 106.197 638.631C105.796 638.631 105.436 638.716 105.118 638.886C104.804 639.057 104.555 639.307 104.374 639.636C104.196 639.962 104.107 640.356 104.107 640.818ZM114.572 646.193C114.019 646.193 113.519 646.091 113.072 645.886C112.625 645.678 112.271 645.377 112.01 644.983C111.752 644.589 111.624 644.106 111.624 643.534C111.624 643.042 111.718 642.636 111.908 642.318C112.097 642 112.353 641.748 112.675 641.562C112.997 641.377 113.357 641.237 113.754 641.142C114.152 641.047 114.557 640.975 114.97 640.926C115.493 640.866 115.917 640.816 116.243 640.778C116.569 640.737 116.805 640.67 116.953 640.58C117.101 640.489 117.175 640.341 117.175 640.136V640.097C117.175 639.6 117.035 639.216 116.754 638.943C116.478 638.67 116.065 638.534 115.516 638.534C114.944 638.534 114.493 638.661 114.163 638.915C113.838 639.165 113.612 639.443 113.487 639.75L111.891 639.386C112.08 638.856 112.357 638.428 112.72 638.102C113.088 637.773 113.51 637.534 113.987 637.386C114.464 637.235 114.966 637.159 115.493 637.159C115.841 637.159 116.211 637.201 116.601 637.284C116.995 637.364 117.362 637.511 117.703 637.727C118.048 637.943 118.33 638.252 118.55 638.653C118.769 639.051 118.879 639.568 118.879 640.205V646H117.22V644.807H117.152C117.042 645.027 116.877 645.242 116.658 645.455C116.438 645.667 116.156 645.843 115.811 645.983C115.466 646.123 115.054 646.193 114.572 646.193ZM114.942 644.83C115.411 644.83 115.813 644.737 116.146 644.551C116.483 644.366 116.739 644.123 116.913 643.824C117.091 643.521 117.18 643.197 117.18 642.852V641.727C117.12 641.788 117.002 641.845 116.828 641.898C116.658 641.947 116.463 641.991 116.243 642.028C116.023 642.062 115.809 642.095 115.601 642.125C115.393 642.152 115.218 642.174 115.078 642.193C114.749 642.235 114.447 642.305 114.175 642.403C113.906 642.502 113.69 642.644 113.527 642.83C113.368 643.011 113.288 643.254 113.288 643.557C113.288 643.977 113.444 644.295 113.754 644.511C114.065 644.723 114.461 644.83 114.942 644.83ZM122.841 640.818V646H121.142V637.273H122.773V638.693H122.881C123.081 638.231 123.396 637.86 123.824 637.58C124.256 637.299 124.799 637.159 125.455 637.159C126.049 637.159 126.57 637.284 127.017 637.534C127.464 637.78 127.811 638.148 128.057 638.636C128.303 639.125 128.426 639.729 128.426 640.449V646H126.727V640.653C126.727 640.021 126.563 639.527 126.233 639.17C125.903 638.811 125.451 638.631 124.875 638.631C124.481 638.631 124.131 638.716 123.824 638.886C123.521 639.057 123.28 639.307 123.102 639.636C122.928 639.962 122.841 640.356 122.841 640.818ZM134.364 649.455C133.67 649.455 133.074 649.364 132.574 649.182C132.078 649 131.672 648.759 131.358 648.46C131.044 648.161 130.809 647.833 130.653 647.477L132.114 646.875C132.216 647.042 132.352 647.218 132.523 647.403C132.697 647.593 132.932 647.754 133.227 647.886C133.527 648.019 133.911 648.085 134.381 648.085C135.025 648.085 135.557 647.928 135.977 647.614C136.398 647.303 136.608 646.807 136.608 646.125V644.409H136.5C136.398 644.595 136.25 644.801 136.057 645.028C135.867 645.256 135.606 645.453 135.273 645.619C134.939 645.786 134.506 645.869 133.972 645.869C133.282 645.869 132.661 645.708 132.108 645.386C131.559 645.061 131.123 644.581 130.801 643.949C130.483 643.312 130.324 642.53 130.324 641.602C130.324 640.674 130.481 639.879 130.795 639.216C131.114 638.553 131.549 638.045 132.102 637.693C132.655 637.337 133.282 637.159 133.983 637.159C134.525 637.159 134.962 637.25 135.295 637.432C135.629 637.61 135.888 637.818 136.074 638.057C136.263 638.295 136.409 638.506 136.511 638.688H136.636V637.273H138.301V646.193C138.301 646.943 138.127 647.559 137.778 648.04C137.43 648.521 136.958 648.877 136.364 649.108C135.773 649.339 135.106 649.455 134.364 649.455ZM134.347 644.46C134.835 644.46 135.248 644.347 135.585 644.119C135.926 643.888 136.184 643.559 136.358 643.131C136.536 642.699 136.625 642.182 136.625 641.58C136.625 640.992 136.538 640.475 136.364 640.028C136.189 639.581 135.934 639.233 135.597 638.983C135.259 638.729 134.843 638.602 134.347 638.602C133.835 638.602 133.409 638.735 133.068 639C132.727 639.261 132.47 639.617 132.295 640.068C132.125 640.519 132.04 641.023 132.04 641.58C132.04 642.152 132.127 642.653 132.301 643.085C132.475 643.517 132.733 643.854 133.074 644.097C133.419 644.339 133.843 644.46 134.347 644.46ZM144.341 646.176C143.481 646.176 142.741 645.992 142.119 645.625C141.502 645.254 141.025 644.733 140.688 644.062C140.354 643.388 140.188 642.598 140.188 641.693C140.188 640.799 140.354 640.011 140.688 639.33C141.025 638.648 141.494 638.116 142.097 637.733C142.703 637.35 143.411 637.159 144.222 637.159C144.714 637.159 145.191 637.241 145.653 637.403C146.116 637.566 146.53 637.822 146.898 638.17C147.265 638.519 147.555 638.972 147.767 639.528C147.979 640.081 148.085 640.754 148.085 641.545V642.148H141.148V640.875H146.42C146.42 640.428 146.33 640.032 146.148 639.688C145.966 639.339 145.71 639.064 145.381 638.864C145.055 638.663 144.672 638.562 144.233 638.562C143.756 638.562 143.339 638.68 142.983 638.915C142.631 639.146 142.358 639.449 142.165 639.824C141.975 640.195 141.881 640.598 141.881 641.034V642.028C141.881 642.612 141.983 643.108 142.188 643.517C142.396 643.926 142.686 644.239 143.057 644.455C143.428 644.667 143.862 644.773 144.358 644.773C144.68 644.773 144.973 644.727 145.239 644.636C145.504 644.542 145.733 644.402 145.926 644.216C146.119 644.03 146.267 643.801 146.369 643.528L147.977 643.818C147.848 644.292 147.617 644.706 147.284 645.062C146.955 645.415 146.54 645.689 146.04 645.886C145.544 646.08 144.977 646.176 144.341 646.176ZM154.341 634.364H156.472L160.176 643.409H160.312L164.017 634.364H166.148V646H164.477V637.58H164.369L160.938 645.983H159.551L156.119 637.574H156.011V646H154.341V634.364ZM172.24 646.176C171.422 646.176 170.708 645.989 170.098 645.614C169.488 645.239 169.015 644.714 168.678 644.04C168.34 643.366 168.172 642.578 168.172 641.676C168.172 640.771 168.34 639.979 168.678 639.301C169.015 638.623 169.488 638.097 170.098 637.722C170.708 637.347 171.422 637.159 172.24 637.159C173.058 637.159 173.772 637.347 174.382 637.722C174.992 638.097 175.465 638.623 175.803 639.301C176.14 639.979 176.308 640.771 176.308 641.676C176.308 642.578 176.14 643.366 175.803 644.04C175.465 644.714 174.992 645.239 174.382 645.614C173.772 645.989 173.058 646.176 172.24 646.176ZM172.246 644.75C172.776 644.75 173.215 644.61 173.564 644.33C173.912 644.049 174.17 643.676 174.337 643.21C174.507 642.744 174.592 642.231 174.592 641.67C174.592 641.114 174.507 640.602 174.337 640.136C174.17 639.667 173.912 639.29 173.564 639.006C173.215 638.722 172.776 638.58 172.246 638.58C171.712 638.58 171.268 638.722 170.916 639.006C170.568 639.29 170.308 639.667 170.138 640.136C169.971 640.602 169.888 641.114 169.888 641.67C169.888 642.231 169.971 642.744 170.138 643.21C170.308 643.676 170.568 644.049 170.916 644.33C171.268 644.61 171.712 644.75 172.246 644.75ZM178.341 646V634.364H180.04V638.688H180.142C180.241 638.506 180.383 638.295 180.568 638.057C180.754 637.818 181.011 637.61 181.341 637.432C181.67 637.25 182.106 637.159 182.648 637.159C183.352 637.159 183.981 637.337 184.534 637.693C185.087 638.049 185.521 638.562 185.835 639.233C186.153 639.903 186.312 640.71 186.312 641.653C186.312 642.597 186.155 643.405 185.841 644.08C185.527 644.75 185.095 645.267 184.545 645.631C183.996 645.991 183.369 646.17 182.665 646.17C182.134 646.17 181.701 646.081 181.364 645.903C181.03 645.725 180.769 645.517 180.58 645.278C180.39 645.04 180.244 644.828 180.142 644.642H180V646H178.341ZM180.006 641.636C180.006 642.25 180.095 642.788 180.273 643.25C180.451 643.712 180.708 644.074 181.045 644.335C181.383 644.593 181.795 644.722 182.284 644.722C182.792 644.722 183.216 644.587 183.557 644.318C183.898 644.045 184.155 643.676 184.33 643.21C184.508 642.744 184.597 642.22 184.597 641.636C184.597 641.061 184.509 640.544 184.335 640.085C184.165 639.627 183.907 639.265 183.562 639C183.222 638.735 182.795 638.602 182.284 638.602C181.792 638.602 181.375 638.729 181.034 638.983C180.697 639.237 180.441 639.591 180.267 640.045C180.093 640.5 180.006 641.03 180.006 641.636ZM188.22 646V637.273H189.919V646H188.22ZM189.078 635.926C188.783 635.926 188.529 635.828 188.317 635.631C188.108 635.43 188.004 635.191 188.004 634.915C188.004 634.634 188.108 634.396 188.317 634.199C188.529 633.998 188.783 633.898 189.078 633.898C189.374 633.898 189.625 633.998 189.834 634.199C190.046 634.396 190.152 634.634 190.152 634.915C190.152 635.191 190.046 635.43 189.834 635.631C189.625 635.828 189.374 635.926 189.078 635.926ZM193.903 634.364V646H192.205V634.364H193.903ZM199.95 646.176C199.09 646.176 198.35 645.992 197.729 645.625C197.111 645.254 196.634 644.733 196.297 644.062C195.964 643.388 195.797 642.598 195.797 641.693C195.797 640.799 195.964 640.011 196.297 639.33C196.634 638.648 197.104 638.116 197.706 637.733C198.312 637.35 199.02 637.159 199.831 637.159C200.323 637.159 200.801 637.241 201.263 637.403C201.725 637.566 202.14 637.822 202.507 638.17C202.875 638.519 203.164 638.972 203.376 639.528C203.589 640.081 203.695 640.754 203.695 641.545V642.148H196.757V640.875H202.03C202.03 640.428 201.939 640.032 201.757 639.688C201.575 639.339 201.32 639.064 200.99 638.864C200.664 638.663 200.282 638.562 199.842 638.562C199.365 638.562 198.948 638.68 198.592 638.915C198.24 639.146 197.967 639.449 197.774 639.824C197.585 640.195 197.49 640.598 197.49 641.034V642.028C197.49 642.612 197.592 643.108 197.797 643.517C198.005 643.926 198.295 644.239 198.666 644.455C199.037 644.667 199.471 644.773 199.967 644.773C200.289 644.773 200.583 644.727 200.848 644.636C201.113 644.542 201.342 644.402 201.536 644.216C201.729 644.03 201.876 643.801 201.979 643.528L203.587 643.818C203.458 644.292 203.227 644.706 202.893 645.062C202.564 645.415 202.149 645.689 201.649 645.886C201.153 646.08 200.587 646.176 199.95 646.176ZM219.342 634.364V646H217.729L211.814 637.466H211.706V646H209.95V634.364H211.575L217.496 642.909H217.604V634.364H219.342ZM227.295 642.381V637.273H229V646H227.33V644.489H227.239C227.038 644.955 226.716 645.343 226.273 645.653C225.833 645.96 225.286 646.114 224.631 646.114C224.07 646.114 223.574 645.991 223.142 645.744C222.714 645.494 222.377 645.125 222.131 644.636C221.888 644.148 221.767 643.544 221.767 642.824V637.273H223.466V642.619C223.466 643.214 223.631 643.687 223.96 644.04C224.29 644.392 224.718 644.568 225.244 644.568C225.563 644.568 225.879 644.489 226.193 644.33C226.511 644.17 226.775 643.93 226.983 643.608C227.195 643.286 227.299 642.877 227.295 642.381ZM231.283 646V637.273H232.913V638.693H233.021C233.203 638.212 233.5 637.837 233.913 637.568C234.326 637.295 234.821 637.159 235.396 637.159C235.98 637.159 236.468 637.295 236.862 637.568C237.26 637.841 237.554 638.216 237.743 638.693H237.834C238.042 638.227 238.374 637.856 238.828 637.58C239.283 637.299 239.824 637.159 240.453 637.159C241.245 637.159 241.891 637.407 242.391 637.903C242.894 638.4 243.146 639.148 243.146 640.148V646H241.447V640.307C241.447 639.716 241.286 639.288 240.964 639.023C240.643 638.758 240.258 638.625 239.811 638.625C239.258 638.625 238.828 638.795 238.521 639.136C238.214 639.473 238.061 639.907 238.061 640.438V646H236.368V640.199C236.368 639.725 236.22 639.345 235.925 639.057C235.629 638.769 235.245 638.625 234.771 638.625C234.449 638.625 234.152 638.71 233.879 638.881C233.61 639.047 233.393 639.28 233.226 639.58C233.063 639.879 232.982 640.225 232.982 640.619V646H231.283ZM245.56 646V634.364H247.259V638.688H247.361C247.459 638.506 247.601 638.295 247.787 638.057C247.973 637.818 248.23 637.61 248.56 637.432C248.889 637.25 249.325 637.159 249.866 637.159C250.571 637.159 251.2 637.337 251.753 637.693C252.306 638.049 252.74 638.562 253.054 639.233C253.372 639.903 253.531 640.71 253.531 641.653C253.531 642.597 253.374 643.405 253.06 644.08C252.745 644.75 252.313 645.267 251.764 645.631C251.215 645.991 250.588 646.17 249.884 646.17C249.353 646.17 248.92 646.081 248.582 645.903C248.249 645.725 247.988 645.517 247.798 645.278C247.609 645.04 247.463 644.828 247.361 644.642H247.219V646H245.56ZM247.224 641.636C247.224 642.25 247.313 642.788 247.491 643.25C247.67 643.712 247.927 644.074 248.264 644.335C248.601 644.593 249.014 644.722 249.503 644.722C250.01 644.722 250.435 644.587 250.776 644.318C251.116 644.045 251.374 643.676 251.548 643.21C251.726 642.744 251.815 642.22 251.815 641.636C251.815 641.061 251.728 640.544 251.554 640.085C251.384 639.627 251.126 639.265 250.781 639C250.44 638.735 250.014 638.602 249.503 638.602C249.01 638.602 248.594 638.729 248.253 638.983C247.916 639.237 247.66 639.591 247.486 640.045C247.312 640.5 247.224 641.03 247.224 641.636ZM259.2 646.176C258.34 646.176 257.6 645.992 256.979 645.625C256.361 645.254 255.884 644.733 255.547 644.062C255.214 643.388 255.047 642.598 255.047 641.693C255.047 640.799 255.214 640.011 255.547 639.33C255.884 638.648 256.354 638.116 256.956 637.733C257.562 637.35 258.27 637.159 259.081 637.159C259.573 637.159 260.051 637.241 260.513 637.403C260.975 637.566 261.39 637.822 261.757 638.17C262.125 638.519 262.414 638.972 262.626 639.528C262.839 640.081 262.945 640.754 262.945 641.545V642.148H256.007V640.875H261.28C261.28 640.428 261.189 640.032 261.007 639.688C260.825 639.339 260.57 639.064 260.24 638.864C259.914 638.663 259.532 638.562 259.092 638.562C258.615 638.562 258.198 638.68 257.842 638.915C257.49 639.146 257.217 639.449 257.024 639.824C256.835 640.195 256.74 640.598 256.74 641.034V642.028C256.74 642.612 256.842 643.108 257.047 643.517C257.255 643.926 257.545 644.239 257.916 644.455C258.287 644.667 258.721 644.773 259.217 644.773C259.539 644.773 259.833 644.727 260.098 644.636C260.363 644.542 260.592 644.402 260.786 644.216C260.979 644.03 261.126 643.801 261.229 643.528L262.837 643.818C262.708 644.292 262.477 644.706 262.143 645.062C261.814 645.415 261.399 645.689 260.899 645.886C260.403 646.08 259.837 646.176 259.2 646.176ZM264.83 646V637.273H266.472V638.659H266.562C266.722 638.189 267.002 637.82 267.403 637.551C267.809 637.278 268.267 637.142 268.778 637.142C268.884 637.142 269.009 637.146 269.153 637.153C269.301 637.161 269.417 637.17 269.5 637.182V638.807C269.432 638.788 269.311 638.767 269.136 638.744C268.962 638.718 268.788 638.705 268.614 638.705C268.212 638.705 267.854 638.79 267.54 638.96C267.229 639.127 266.983 639.36 266.801 639.659C266.619 639.955 266.528 640.292 266.528 640.67V646H264.83Z" fill="#FF415B"/>
<path d="M89.5 649.182H269.835V650.273H89.5V649.182Z" fill="#FF415B"/>
<path d="M119.224 292C119.14 292 119.084 291.963 119.056 291.888L116.004 282.354L115.99 282.298C115.99 282.233 116.032 282.2 116.116 282.2H116.872C116.956 282.2 117.012 282.237 117.04 282.312L119.588 290.516C119.597 290.535 119.611 290.544 119.63 290.544C119.649 290.544 119.663 290.535 119.672 290.516L122.22 282.312C122.248 282.237 122.304 282.2 122.388 282.2H123.13C123.233 282.2 123.27 282.251 123.242 282.354L120.162 291.888C120.134 291.963 120.078 292 119.994 292H119.224ZM129.613 287.268C129.65 287.529 129.669 287.856 129.669 288.248V288.696C129.669 288.789 129.622 288.836 129.529 288.836H125.007C124.969 288.836 124.951 288.855 124.951 288.892C124.969 289.405 124.997 289.737 125.035 289.886C125.137 290.306 125.357 290.637 125.693 290.88C126.029 291.123 126.458 291.244 126.981 291.244C127.373 291.244 127.718 291.155 128.017 290.978C128.315 290.801 128.549 290.549 128.717 290.222C128.773 290.138 128.838 290.119 128.913 290.166L129.459 290.488C129.533 290.535 129.552 290.6 129.515 290.684C129.281 291.132 128.931 291.487 128.465 291.748C127.998 292 127.461 292.126 126.855 292.126C126.192 292.117 125.637 291.958 125.189 291.65C124.741 291.342 124.419 290.913 124.223 290.362C124.055 289.914 123.971 289.27 123.971 288.43C123.971 288.038 123.975 287.721 123.985 287.478C124.003 287.226 124.041 287.002 124.097 286.806C124.255 286.199 124.573 285.714 125.049 285.35C125.534 284.986 126.117 284.804 126.799 284.804C127.648 284.804 128.301 285.019 128.759 285.448C129.216 285.877 129.501 286.484 129.613 287.268ZM126.799 285.672C126.341 285.672 125.959 285.793 125.651 286.036C125.352 286.269 125.156 286.587 125.063 286.988C125.007 287.184 124.969 287.501 124.951 287.94C124.951 287.977 124.969 287.996 125.007 287.996H128.633C128.67 287.996 128.689 287.977 128.689 287.94C128.67 287.52 128.642 287.221 128.605 287.044C128.502 286.624 128.292 286.293 127.975 286.05C127.667 285.798 127.275 285.672 126.799 285.672ZM134.501 284.846C134.809 284.846 135.075 284.907 135.299 285.028C135.374 285.065 135.402 285.126 135.383 285.21L135.229 285.896C135.201 285.989 135.141 286.017 135.047 285.98C134.889 285.915 134.707 285.882 134.501 285.882L134.319 285.896C133.834 285.915 133.433 286.097 133.115 286.442C132.798 286.778 132.639 287.207 132.639 287.73V291.86C132.639 291.953 132.593 292 132.499 292H131.785C131.692 292 131.645 291.953 131.645 291.86V285.056C131.645 284.963 131.692 284.916 131.785 284.916H132.499C132.593 284.916 132.639 284.963 132.639 285.056V285.91C132.639 285.938 132.644 285.957 132.653 285.966C132.672 285.966 132.686 285.957 132.695 285.938C132.891 285.593 133.139 285.327 133.437 285.14C133.745 284.944 134.1 284.846 134.501 284.846ZM137.417 283.628C137.193 283.628 137.006 283.553 136.857 283.404C136.708 283.255 136.633 283.068 136.633 282.844C136.633 282.611 136.708 282.424 136.857 282.284C137.006 282.135 137.193 282.06 137.417 282.06C137.641 282.06 137.828 282.135 137.977 282.284C138.126 282.424 138.201 282.611 138.201 282.844C138.201 283.068 138.126 283.255 137.977 283.404C137.828 283.553 137.641 283.628 137.417 283.628ZM137.025 291.986C136.932 291.986 136.885 291.939 136.885 291.846V285.042C136.885 284.949 136.932 284.902 137.025 284.902H137.739C137.832 284.902 137.879 284.949 137.879 285.042V291.846C137.879 291.939 137.832 291.986 137.739 291.986H137.025ZM143.113 283.068C142.6 283.068 142.25 283.185 142.063 283.418C141.877 283.642 141.783 284.029 141.783 284.58V284.86C141.783 284.897 141.802 284.916 141.839 284.916H143.407C143.501 284.916 143.547 284.963 143.547 285.056V285.686C143.547 285.779 143.501 285.826 143.407 285.826H141.839C141.802 285.826 141.783 285.845 141.783 285.882V291.86C141.783 291.953 141.737 292 141.643 292H140.943C140.85 292 140.803 291.953 140.803 291.86V285.882C140.803 285.845 140.785 285.826 140.747 285.826H139.809C139.716 285.826 139.669 285.779 139.669 285.686V285.056C139.669 284.963 139.716 284.916 139.809 284.916H140.747C140.785 284.916 140.803 284.897 140.803 284.86V284.524C140.803 283.945 140.869 283.493 140.999 283.166C141.13 282.83 141.354 282.587 141.671 282.438C141.998 282.279 142.451 282.2 143.029 282.2H143.435C143.529 282.2 143.575 282.247 143.575 282.34V282.928C143.575 283.021 143.529 283.068 143.435 283.068H143.113ZM144.982 294.8C144.916 294.8 144.884 294.753 144.884 294.66V294.1C144.884 294.007 144.93 293.96 145.024 293.96H145.08C145.444 293.951 145.724 293.895 145.92 293.792C146.125 293.699 146.298 293.517 146.438 293.246C146.587 292.985 146.746 292.583 146.914 292.042C146.932 292.005 146.932 291.977 146.914 291.958L144.548 285.07L144.534 285.014C144.534 284.949 144.576 284.916 144.66 284.916H145.402C145.486 284.916 145.542 284.953 145.57 285.028L147.39 290.684C147.399 290.703 147.413 290.712 147.432 290.712C147.45 290.712 147.464 290.703 147.474 290.684L149.266 285.028C149.294 284.953 149.35 284.916 149.434 284.916H150.162C150.264 284.916 150.302 284.967 150.274 285.07L147.684 292.616C147.46 293.241 147.25 293.703 147.054 294.002C146.858 294.301 146.61 294.506 146.312 294.618C146.022 294.739 145.612 294.8 145.08 294.8H144.982ZM161.111 282.298C161.158 282.233 161.214 282.2 161.279 282.2H162.007C162.101 282.2 162.147 282.247 162.147 282.34V291.86C162.147 291.953 162.101 292 162.007 292H161.293C161.2 292 161.153 291.953 161.153 291.86V284.076C161.153 284.048 161.144 284.029 161.125 284.02C161.107 284.011 161.093 284.02 161.083 284.048L158.801 287.548C158.755 287.613 158.699 287.646 158.633 287.646H158.269C158.204 287.646 158.148 287.618 158.101 287.562L155.819 284.09C155.81 284.062 155.796 284.053 155.777 284.062C155.759 284.071 155.749 284.09 155.749 284.118V291.86C155.749 291.953 155.703 292 155.609 292H154.895C154.802 292 154.755 291.953 154.755 291.86V282.34C154.755 282.247 154.802 282.2 154.895 282.2H155.623C155.698 282.2 155.754 282.228 155.791 282.284L158.423 286.274C158.433 286.283 158.447 286.288 158.465 286.288C158.484 286.288 158.498 286.283 158.507 286.274L161.111 282.298ZM167.269 292.112C166.597 292.112 166.019 291.939 165.533 291.594C165.048 291.249 164.712 290.773 164.525 290.166C164.395 289.737 164.329 289.163 164.329 288.444C164.329 287.725 164.395 287.156 164.525 286.736C164.703 286.139 165.034 285.667 165.519 285.322C166.005 284.977 166.593 284.804 167.283 284.804C167.946 284.804 168.515 284.977 168.991 285.322C169.477 285.667 169.808 286.134 169.985 286.722C170.116 287.123 170.181 287.697 170.181 288.444C170.181 289.2 170.116 289.774 169.985 290.166C169.808 290.773 169.477 291.249 168.991 291.594C168.515 291.939 167.941 292.112 167.269 292.112ZM167.269 291.244C167.717 291.244 168.1 291.123 168.417 290.88C168.735 290.628 168.949 290.292 169.061 289.872C169.145 289.536 169.187 289.065 169.187 288.458C169.187 287.842 169.15 287.371 169.075 287.044C168.963 286.624 168.744 286.293 168.417 286.05C168.1 285.798 167.713 285.672 167.255 285.672C166.798 285.672 166.411 285.798 166.093 286.05C165.776 286.293 165.561 286.624 165.449 287.044C165.375 287.371 165.337 287.842 165.337 288.458C165.337 289.074 165.375 289.545 165.449 289.872C165.552 290.292 165.762 290.628 166.079 290.88C166.406 291.123 166.803 291.244 167.269 291.244ZM177.642 286.722C177.754 287.142 177.81 287.721 177.81 288.458C177.81 289.223 177.745 289.816 177.614 290.236C177.437 290.815 177.129 291.272 176.69 291.608C176.252 291.944 175.706 292.112 175.052 292.112C174.679 292.112 174.338 292.037 174.03 291.888C173.722 291.739 173.466 291.524 173.26 291.244C173.251 291.225 173.237 291.221 173.218 291.23C173.2 291.23 173.19 291.239 173.19 291.258V291.86C173.19 291.953 173.144 292 173.05 292H172.336C172.243 292 172.196 291.953 172.196 291.86V282.34C172.196 282.247 172.243 282.2 172.336 282.2H173.05C173.144 282.2 173.19 282.247 173.19 282.34V285.644C173.19 285.663 173.195 285.677 173.204 285.686C173.223 285.686 173.242 285.677 173.26 285.658C173.466 285.387 173.722 285.177 174.03 285.028C174.338 284.879 174.679 284.804 175.052 284.804C175.715 284.804 176.27 284.977 176.718 285.322C177.166 285.658 177.474 286.125 177.642 286.722ZM176.564 290.152C176.658 289.956 176.723 289.737 176.76 289.494C176.798 289.242 176.816 288.897 176.816 288.458C176.816 288.001 176.788 287.646 176.732 287.394C176.686 287.133 176.606 286.899 176.494 286.694C176.373 286.386 176.177 286.139 175.906 285.952C175.636 285.765 175.314 285.672 174.94 285.672C174.586 285.672 174.278 285.77 174.016 285.966C173.764 286.153 173.582 286.405 173.47 286.722C173.377 286.918 173.307 287.142 173.26 287.394C173.223 287.646 173.204 288.001 173.204 288.458C173.204 288.906 173.223 289.256 173.26 289.508C173.307 289.751 173.372 289.97 173.456 290.166C173.578 290.493 173.764 290.754 174.016 290.95C174.268 291.146 174.581 291.244 174.954 291.244C175.346 291.244 175.682 291.146 175.962 290.95C176.252 290.754 176.452 290.488 176.564 290.152ZM180.511 283.628C180.287 283.628 180.1 283.553 179.951 283.404C179.801 283.255 179.727 283.068 179.727 282.844C179.727 282.611 179.801 282.424 179.951 282.284C180.1 282.135 180.287 282.06 180.511 282.06C180.735 282.06 180.921 282.135 181.071 282.284C181.22 282.424 181.295 282.611 181.295 282.844C181.295 283.068 181.22 283.255 181.071 283.404C180.921 283.553 180.735 283.628 180.511 283.628ZM180.119 291.986C180.025 291.986 179.979 291.939 179.979 291.846V285.042C179.979 284.949 180.025 284.902 180.119 284.902H180.833C180.926 284.902 180.973 284.949 180.973 285.042V291.846C180.973 291.939 180.926 291.986 180.833 291.986H180.119ZM183.547 292C183.454 292 183.407 291.953 183.407 291.86V282.34C183.407 282.247 183.454 282.2 183.547 282.2H184.261C184.354 282.2 184.401 282.247 184.401 282.34V291.86C184.401 291.953 184.354 292 184.261 292H183.547ZM192.066 287.268C192.103 287.529 192.122 287.856 192.122 288.248V288.696C192.122 288.789 192.075 288.836 191.982 288.836H187.46C187.422 288.836 187.404 288.855 187.404 288.892C187.422 289.405 187.45 289.737 187.488 289.886C187.59 290.306 187.81 290.637 188.146 290.88C188.482 291.123 188.911 291.244 189.434 291.244C189.826 291.244 190.171 291.155 190.47 290.978C190.768 290.801 191.002 290.549 191.17 290.222C191.226 290.138 191.291 290.119 191.366 290.166L191.912 290.488C191.986 290.535 192.005 290.6 191.968 290.684C191.734 291.132 191.384 291.487 190.918 291.748C190.451 292 189.914 292.126 189.308 292.126C188.645 292.117 188.09 291.958 187.642 291.65C187.194 291.342 186.872 290.913 186.676 290.362C186.508 289.914 186.424 289.27 186.424 288.43C186.424 288.038 186.428 287.721 186.438 287.478C186.456 287.226 186.494 287.002 186.55 286.806C186.708 286.199 187.026 285.714 187.502 285.35C187.987 284.986 188.57 284.804 189.252 284.804C190.101 284.804 190.754 285.019 191.212 285.448C191.669 285.877 191.954 286.484 192.066 287.268ZM189.252 285.672C188.794 285.672 188.412 285.793 188.104 286.036C187.805 286.269 187.609 286.587 187.516 286.988C187.46 287.184 187.422 287.501 187.404 287.94C187.404 287.977 187.422 287.996 187.46 287.996H191.086C191.123 287.996 191.142 287.977 191.142 287.94C191.123 287.52 191.095 287.221 191.058 287.044C190.955 286.624 190.745 286.293 190.428 286.05C190.12 285.798 189.728 285.672 189.252 285.672ZM202.935 282.34C202.935 282.247 202.982 282.2 203.075 282.2H203.789C203.883 282.2 203.929 282.247 203.929 282.34V291.86C203.929 291.953 203.883 292 203.789 292H203.089C203.024 292 202.968 291.967 202.921 291.902L198.147 284.132C198.138 284.104 198.124 284.095 198.105 284.104C198.087 284.104 198.077 284.118 198.077 284.146L198.091 291.86C198.091 291.953 198.045 292 197.951 292H197.237C197.144 292 197.097 291.953 197.097 291.86V282.34C197.097 282.247 197.144 282.2 197.237 282.2H197.937C198.003 282.2 198.059 282.233 198.105 282.298L202.879 290.068C202.889 290.096 202.903 290.11 202.921 290.11C202.94 290.101 202.949 290.082 202.949 290.054L202.935 282.34ZM210.646 285.056C210.646 284.963 210.693 284.916 210.786 284.916H211.5C211.594 284.916 211.64 284.963 211.64 285.056V291.86C211.64 291.953 211.594 292 211.5 292H210.786C210.693 292 210.646 291.953 210.646 291.86V291.258C210.646 291.239 210.637 291.225 210.618 291.216C210.6 291.207 210.586 291.211 210.576 291.23C210.184 291.809 209.564 292.098 208.714 292.098C208.266 292.098 207.851 292.009 207.468 291.832C207.095 291.645 206.796 291.379 206.572 291.034C206.358 290.689 206.25 290.273 206.25 289.788V285.056C206.25 284.963 206.297 284.916 206.39 284.916H207.104C207.198 284.916 207.244 284.963 207.244 285.056V289.494C207.244 290.026 207.394 290.451 207.692 290.768C207.991 291.076 208.397 291.23 208.91 291.23C209.442 291.23 209.862 291.071 210.17 290.754C210.488 290.437 210.646 290.017 210.646 289.494V285.056ZM221.036 284.818C221.736 284.818 222.287 285.028 222.688 285.448C223.099 285.868 223.304 286.442 223.304 287.17V291.86C223.304 291.953 223.257 292 223.164 292H222.464C222.371 292 222.324 291.953 222.324 291.86V287.366C222.324 286.853 222.175 286.447 221.876 286.148C221.587 285.84 221.204 285.686 220.728 285.686C220.233 285.686 219.832 285.835 219.524 286.134C219.225 286.433 219.076 286.834 219.076 287.338V291.86C219.076 291.953 219.029 292 218.936 292H218.222C218.129 292 218.082 291.953 218.082 291.86V287.366C218.082 286.853 217.937 286.447 217.648 286.148C217.359 285.84 216.971 285.686 216.486 285.686C215.991 285.686 215.595 285.835 215.296 286.134C215.007 286.433 214.862 286.834 214.862 287.338V291.86C214.862 291.953 214.815 292 214.722 292H214.008C213.915 292 213.868 291.953 213.868 291.86V285.056C213.868 284.963 213.915 284.916 214.008 284.916H214.722C214.815 284.916 214.862 284.963 214.862 285.056V285.616C214.862 285.635 214.867 285.649 214.876 285.658C214.895 285.658 214.913 285.649 214.932 285.63C215.137 285.359 215.399 285.159 215.716 285.028C216.043 284.888 216.402 284.818 216.794 284.818C217.279 284.818 217.695 284.916 218.04 285.112C218.385 285.308 218.647 285.593 218.824 285.966C218.843 286.013 218.866 286.013 218.894 285.966C219.099 285.583 219.389 285.299 219.762 285.112C220.135 284.916 220.56 284.818 221.036 284.818ZM230.88 286.722C230.992 287.142 231.048 287.721 231.048 288.458C231.048 289.223 230.983 289.816 230.852 290.236C230.675 290.815 230.367 291.272 229.928 291.608C229.49 291.944 228.944 292.112 228.29 292.112C227.917 292.112 227.576 292.037 227.268 291.888C226.96 291.739 226.704 291.524 226.498 291.244C226.489 291.225 226.475 291.221 226.456 291.23C226.438 291.23 226.428 291.239 226.428 291.258V291.86C226.428 291.953 226.382 292 226.288 292H225.574C225.481 292 225.434 291.953 225.434 291.86V282.34C225.434 282.247 225.481 282.2 225.574 282.2H226.288C226.382 282.2 226.428 282.247 226.428 282.34V285.644C226.428 285.663 226.433 285.677 226.442 285.686C226.461 285.686 226.48 285.677 226.498 285.658C226.704 285.387 226.96 285.177 227.268 285.028C227.576 284.879 227.917 284.804 228.29 284.804C228.953 284.804 229.508 284.977 229.956 285.322C230.404 285.658 230.712 286.125 230.88 286.722ZM229.802 290.152C229.896 289.956 229.961 289.737 229.998 289.494C230.036 289.242 230.054 288.897 230.054 288.458C230.054 288.001 230.026 287.646 229.97 287.394C229.924 287.133 229.844 286.899 229.732 286.694C229.611 286.386 229.415 286.139 229.144 285.952C228.874 285.765 228.552 285.672 228.178 285.672C227.824 285.672 227.516 285.77 227.254 285.966C227.002 286.153 226.82 286.405 226.708 286.722C226.615 286.918 226.545 287.142 226.498 287.394C226.461 287.646 226.442 288.001 226.442 288.458C226.442 288.906 226.461 289.256 226.498 289.508C226.545 289.751 226.61 289.97 226.694 290.166C226.816 290.493 227.002 290.754 227.254 290.95C227.506 291.146 227.819 291.244 228.192 291.244C228.584 291.244 228.92 291.146 229.2 290.95C229.49 290.754 229.69 290.488 229.802 290.152ZM238.413 287.268C238.451 287.529 238.469 287.856 238.469 288.248V288.696C238.469 288.789 238.423 288.836 238.329 288.836H233.807C233.77 288.836 233.751 288.855 233.751 288.892C233.77 289.405 233.798 289.737 233.835 289.886C233.938 290.306 234.157 290.637 234.493 290.88C234.829 291.123 235.259 291.244 235.781 291.244C236.173 291.244 236.519 291.155 236.817 290.978C237.116 290.801 237.349 290.549 237.517 290.222C237.573 290.138 237.639 290.119 237.713 290.166L238.259 290.488C238.334 290.535 238.353 290.6 238.315 290.684C238.082 291.132 237.732 291.487 237.265 291.748C236.799 292 236.262 292.126 235.655 292.126C234.993 292.117 234.437 291.958 233.989 291.65C233.541 291.342 233.219 290.913 233.023 290.362C232.855 289.914 232.771 289.27 232.771 288.43C232.771 288.038 232.776 287.721 232.785 287.478C232.804 287.226 232.841 287.002 232.897 286.806C233.056 286.199 233.373 285.714 233.849 285.35C234.335 284.986 234.918 284.804 235.599 284.804C236.449 284.804 237.102 285.019 237.559 285.448C238.017 285.877 238.301 286.484 238.413 287.268ZM235.599 285.672C235.142 285.672 234.759 285.793 234.451 286.036C234.153 286.269 233.957 286.587 233.863 286.988C233.807 287.184 233.77 287.501 233.751 287.94C233.751 287.977 233.77 287.996 233.807 287.996H237.433C237.471 287.996 237.489 287.977 237.489 287.94C237.471 287.52 237.443 287.221 237.405 287.044C237.303 286.624 237.093 286.293 236.775 286.05C236.467 285.798 236.075 285.672 235.599 285.672ZM243.302 284.846C243.61 284.846 243.876 284.907 244.1 285.028C244.175 285.065 244.203 285.126 244.184 285.21L244.03 285.896C244.002 285.989 243.942 286.017 243.848 285.98C243.69 285.915 243.508 285.882 243.302 285.882L243.12 285.896C242.635 285.915 242.234 286.097 241.916 286.442C241.599 286.778 241.44 287.207 241.44 287.73V291.86C241.44 291.953 241.394 292 241.3 292H240.586C240.493 292 240.446 291.953 240.446 291.86V285.056C240.446 284.963 240.493 284.916 240.586 284.916H241.3C241.394 284.916 241.44 284.963 241.44 285.056V285.91C241.44 285.938 241.445 285.957 241.454 285.966C241.473 285.966 241.487 285.957 241.496 285.938C241.692 285.593 241.94 285.327 242.238 285.14C242.546 284.944 242.901 284.846 243.302 284.846Z" fill="#999999"/>
<defs>
<linearGradient id="paint0_linear_85_31733" x1="60" y1="608" x2="300" y2="608" gradientUnits="userSpaceOnUse">
<stop stop-color="#6F3399"/>
<stop offset="1" stop-color="#DF206E"/>
</linearGradient>
<clipPath id="clip0_85_31733">
<rect width="80" height="50" fill="white" transform="translate(142.5 125)"/>
</clipPath>
</defs>
</svg>
