<svg width="360" height="780" viewBox="0 0 360 780" fill="none" xmlns="http://www.w3.org/2000/svg">
<g clip-path="url(#clip0_85_32724)">
<rect width="360" height="780" rx="30" fill="#0F0F0F"/>
<rect width="360" height="780" fill="#0F0F0F"/>
<path d="M130.381 170.344V168.455H141.638V170.344H137.099V183H134.912V170.344H130.381ZM146.078 176.523V183H143.955V168.455H146.05V173.866H146.185C146.441 173.279 146.831 172.813 147.357 172.467C147.882 172.122 148.569 171.949 149.417 171.949C150.165 171.949 150.818 172.103 151.377 172.411C151.94 172.718 152.376 173.178 152.684 173.788C152.996 174.394 153.152 175.152 153.152 176.061V183H151.029V176.317C151.029 175.517 150.823 174.896 150.411 174.456C149.999 174.011 149.426 173.788 148.692 173.788C148.19 173.788 147.74 173.895 147.343 174.108C146.95 174.321 146.64 174.634 146.412 175.045C146.19 175.453 146.078 175.945 146.078 176.523ZM159.161 183.241C158.47 183.241 157.845 183.114 157.286 182.858C156.727 182.598 156.284 182.221 155.958 181.729C155.636 181.236 155.475 180.633 155.475 179.918C155.475 179.302 155.593 178.795 155.83 178.398C156.067 178 156.386 177.685 156.789 177.453C157.191 177.221 157.641 177.046 158.138 176.928C158.635 176.809 159.142 176.719 159.658 176.658C160.311 176.582 160.842 176.52 161.249 176.473C161.656 176.421 161.952 176.338 162.137 176.224C162.321 176.111 162.414 175.926 162.414 175.67V175.621C162.414 175 162.239 174.52 161.888 174.179C161.542 173.838 161.026 173.668 160.34 173.668C159.625 173.668 159.061 173.826 158.65 174.143C158.242 174.456 157.961 174.804 157.804 175.188L155.809 174.733C156.045 174.07 156.391 173.535 156.846 173.128C157.305 172.716 157.833 172.418 158.429 172.233C159.026 172.044 159.653 171.949 160.311 171.949C160.747 171.949 161.209 172.001 161.696 172.105C162.189 172.205 162.648 172.389 163.074 172.659C163.505 172.929 163.858 173.315 164.132 173.817C164.407 174.314 164.544 174.96 164.544 175.756V183H162.471V181.509H162.385C162.248 181.783 162.042 182.053 161.767 182.318C161.493 182.583 161.14 182.804 160.709 182.979C160.278 183.154 159.762 183.241 159.161 183.241ZM159.623 181.537C160.21 181.537 160.712 181.421 161.128 181.189C161.55 180.957 161.869 180.654 162.087 180.28C162.31 179.901 162.421 179.496 162.421 179.065V177.659C162.345 177.735 162.198 177.806 161.98 177.872C161.767 177.934 161.524 177.988 161.249 178.036C160.974 178.078 160.707 178.118 160.446 178.156C160.186 178.189 159.968 178.218 159.793 178.241C159.381 178.294 159.005 178.381 158.664 178.504C158.328 178.627 158.058 178.805 157.854 179.037C157.655 179.264 157.556 179.567 157.556 179.946C157.556 180.472 157.75 180.869 158.138 181.139C158.526 181.404 159.021 181.537 159.623 181.537ZM169.496 176.523V183H167.373V172.091H169.411V173.866H169.546C169.797 173.289 170.19 172.825 170.725 172.474C171.265 172.124 171.944 171.949 172.763 171.949C173.507 171.949 174.158 172.105 174.717 172.418C175.275 172.725 175.709 173.185 176.016 173.795C176.324 174.406 176.478 175.161 176.478 176.061V183H174.354V176.317C174.354 175.526 174.148 174.908 173.737 174.463C173.325 174.013 172.759 173.788 172.039 173.788C171.547 173.788 171.109 173.895 170.725 174.108C170.346 174.321 170.046 174.634 169.823 175.045C169.605 175.453 169.496 175.945 169.496 176.523ZM181.279 179.3L181.265 176.707H181.634L185.981 172.091H188.523L183.566 177.347H183.232L181.279 179.3ZM179.326 183V168.455H181.45V183H179.326ZM186.215 183L182.309 177.815L183.772 176.331L188.822 183H186.215ZM194.8 168.455H197.293L201.093 175.067H201.249L205.049 168.455H207.542L202.265 177.29V183H200.077V177.29L194.8 168.455ZM212.241 183.22C211.219 183.22 210.326 182.986 209.564 182.517C208.802 182.048 208.21 181.393 207.788 180.55C207.367 179.707 207.156 178.722 207.156 177.595C207.156 176.464 207.367 175.474 207.788 174.626C208.21 173.779 208.802 173.121 209.564 172.652C210.326 172.183 211.219 171.949 212.241 171.949C213.264 171.949 214.157 172.183 214.919 172.652C215.681 173.121 216.273 173.779 216.695 174.626C217.116 175.474 217.327 176.464 217.327 177.595C217.327 178.722 217.116 179.707 216.695 180.55C216.273 181.393 215.681 182.048 214.919 182.517C214.157 182.986 213.264 183.22 212.241 183.22ZM212.249 181.438C212.911 181.438 213.461 181.262 213.896 180.912C214.332 180.562 214.654 180.095 214.862 179.513C215.075 178.93 215.182 178.289 215.182 177.588C215.182 176.892 215.075 176.253 214.862 175.67C214.654 175.083 214.332 174.612 213.896 174.257C213.461 173.902 212.911 173.724 212.249 173.724C211.581 173.724 211.027 173.902 210.587 174.257C210.151 174.612 209.827 175.083 209.614 175.67C209.405 176.253 209.301 176.892 209.301 177.588C209.301 178.289 209.405 178.93 209.614 179.513C209.827 180.095 210.151 180.562 210.587 180.912C211.027 181.262 211.581 181.438 212.249 181.438ZM226.608 178.476V172.091H228.738V183H226.65V181.111H226.537C226.286 181.693 225.883 182.179 225.329 182.567C224.78 182.95 224.096 183.142 223.277 183.142C222.576 183.142 221.956 182.988 221.416 182.68C220.881 182.368 220.459 181.906 220.152 181.295C219.849 180.685 219.697 179.929 219.697 179.03V172.091H221.821V178.774C221.821 179.518 222.027 180.109 222.439 180.55C222.85 180.99 223.386 181.21 224.044 181.21C224.441 181.21 224.837 181.111 225.23 180.912C225.627 180.713 225.957 180.412 226.217 180.01C226.482 179.607 226.612 179.096 226.608 178.476Z" fill="#E6E6E6"/>
<rect x="60" y="206" width="240" height="240" rx="120" fill="#0E8F8D" fill-opacity="0.2"/>
<path d="M225.714 340.285L221.485 312.834C221.07 310.137 219.705 307.678 217.635 305.901C215.565 304.123 212.928 303.145 210.199 303.143H149.805C147.075 303.142 144.435 304.119 142.363 305.897C140.29 307.675 138.923 310.135 138.508 312.834L130.594 364.263C130.343 365.891 130.448 367.555 130.901 369.139C131.353 370.724 132.143 372.191 133.216 373.442C134.289 374.693 135.62 375.696 137.117 376.384C138.615 377.072 140.243 377.428 141.891 377.428H179.999" stroke="#0E8F8D" stroke-width="10" stroke-linecap="round" stroke-linejoin="round"/>
<path d="M191.427 366L208.57 383.143L237.142 354.571M191.427 286C191.427 282.969 190.223 280.062 188.08 277.919C185.937 275.775 183.03 274.571 179.999 274.571C176.968 274.571 174.061 275.775 171.918 277.919C169.774 280.062 168.57 282.969 168.57 286" stroke="#0E8F8D" stroke-width="10" stroke-linecap="round" stroke-linejoin="round"/>
<path d="M27.4759 468.455H29.9688L33.7685 475.067H33.9247L37.7244 468.455H40.2173L34.9403 477.29V483H32.7528V477.29L27.4759 468.455ZM44.9173 483.22C43.8945 483.22 43.002 482.986 42.2397 482.517C41.4774 482.048 40.8855 481.393 40.4641 480.55C40.0427 479.707 39.832 478.722 39.832 477.595C39.832 476.464 40.0427 475.474 40.4641 474.626C40.8855 473.779 41.4774 473.121 42.2397 472.652C43.002 472.183 43.8945 471.949 44.9173 471.949C45.94 471.949 46.8325 472.183 47.5948 472.652C48.3571 473.121 48.949 473.779 49.3704 474.626C49.7918 475.474 50.0025 476.464 50.0025 477.595C50.0025 478.722 49.7918 479.707 49.3704 480.55C48.949 481.393 48.3571 482.048 47.5948 482.517C46.8325 482.986 45.94 483.22 44.9173 483.22ZM44.9244 481.438C45.5872 481.438 46.1365 481.262 46.5721 480.912C47.0077 480.562 47.3297 480.095 47.538 479.513C47.7511 478.93 47.8576 478.289 47.8576 477.588C47.8576 476.892 47.7511 476.253 47.538 475.67C47.3297 475.083 47.0077 474.612 46.5721 474.257C46.1365 473.902 45.5872 473.724 44.9244 473.724C44.2567 473.724 43.7028 473.902 43.2624 474.257C42.8268 474.612 42.5025 475.083 42.2894 475.67C42.0811 476.253 41.9769 476.892 41.9769 477.588C41.9769 478.289 42.0811 478.93 42.2894 479.513C42.5025 480.095 42.8268 480.562 43.2624 480.912C43.7028 481.262 44.2567 481.438 44.9244 481.438ZM59.2834 478.476V472.091H61.4141V483H59.326V481.111H59.2124C58.9614 481.693 58.5589 482.179 58.005 482.567C57.4557 482.95 56.7715 483.142 55.9524 483.142C55.2517 483.142 54.6314 482.988 54.0916 482.68C53.5566 482.368 53.1352 481.906 52.8274 481.295C52.5244 480.685 52.3729 479.929 52.3729 479.03V472.091H54.4964V478.774C54.4964 479.518 54.7024 480.109 55.1143 480.55C55.5263 480.99 56.0613 481.21 56.7195 481.21C57.1172 481.21 57.5125 481.111 57.9055 480.912C58.3033 480.713 58.6323 480.412 58.8928 480.01C59.1579 479.607 59.2881 479.096 59.2834 478.476ZM64.2674 483V472.091H66.32V473.824H66.4336C66.6325 473.237 66.9828 472.775 67.4847 472.439C67.9914 472.098 68.5643 471.928 69.2035 471.928C69.3361 471.928 69.4923 471.932 69.6722 471.942C69.8569 471.951 70.0013 471.963 70.1055 471.977V474.009C70.0202 473.985 69.8687 473.959 69.6509 473.93C69.4331 473.897 69.2153 473.881 68.9975 473.881C68.4956 473.881 68.0482 473.987 67.6552 474.2C67.2669 474.409 66.9592 474.7 66.7319 475.074C66.5046 475.443 66.391 475.865 66.391 476.338V483H64.2674ZM90.0415 475.727C90.0415 477.28 89.7575 478.616 89.1893 479.733C88.6211 480.846 87.8422 481.703 86.8526 482.304C85.8678 482.901 84.748 483.199 83.4933 483.199C82.2338 483.199 81.1093 482.901 80.1197 482.304C79.1348 481.703 78.3583 480.843 77.7901 479.726C77.2219 478.608 76.9379 477.276 76.9379 475.727C76.9379 474.174 77.2219 472.841 77.7901 471.729C78.3583 470.611 79.1348 469.754 80.1197 469.158C81.1093 468.556 82.2338 468.256 83.4933 468.256C84.748 468.256 85.8678 468.556 86.8526 469.158C87.8422 469.754 88.6211 470.611 89.1893 471.729C89.7575 472.841 90.0415 474.174 90.0415 475.727ZM87.8683 475.727C87.8683 474.544 87.6765 473.547 87.293 472.737C86.9142 471.923 86.3933 471.307 85.7305 470.891C85.0723 470.469 84.3266 470.259 83.4933 470.259C82.6552 470.259 81.9071 470.469 81.2489 470.891C80.5908 471.307 80.07 471.923 79.6864 472.737C79.3076 473.547 79.1183 474.544 79.1183 475.727C79.1183 476.911 79.3076 477.91 79.6864 478.724C80.07 479.534 80.5908 480.15 81.2489 480.571C81.9071 480.988 82.6552 481.196 83.4933 481.196C84.3266 481.196 85.0723 480.988 85.7305 480.571C86.3933 480.15 86.9142 479.534 87.293 478.724C87.6765 477.91 87.8683 476.911 87.8683 475.727ZM92.6072 483V472.091H94.6598V473.824H94.7734C94.9723 473.237 95.3227 472.775 95.8246 472.439C96.3312 472.098 96.9041 471.928 97.5433 471.928C97.6759 471.928 97.8321 471.932 98.0121 471.942C98.1967 471.951 98.3411 471.963 98.4453 471.977V474.009C98.3601 473.985 98.2086 473.959 97.9908 473.93C97.773 473.897 97.5552 473.881 97.3374 473.881C96.8355 473.881 96.388 473.987 95.995 474.2C95.6068 474.409 95.299 474.7 95.0717 475.074C94.8445 475.443 94.7308 475.865 94.7308 476.338V483H92.6072ZM103.976 483.213C103.096 483.213 102.31 482.988 101.618 482.538C100.932 482.084 100.392 481.437 99.9989 480.599C99.6107 479.757 99.4165 478.746 99.4165 477.567C99.4165 476.388 99.613 475.379 100.006 474.541C100.404 473.703 100.948 473.062 101.64 472.616C102.331 472.171 103.114 471.949 103.99 471.949C104.667 471.949 105.212 472.062 105.624 472.29C106.041 472.512 106.363 472.773 106.59 473.071C106.822 473.369 107.002 473.632 107.13 473.859H107.257V468.455H109.381V483H107.307V481.303H107.13C107.002 481.535 106.817 481.8 106.576 482.098C106.339 482.396 106.012 482.657 105.596 482.879C105.179 483.102 104.639 483.213 103.976 483.213ZM104.445 481.402C105.056 481.402 105.572 481.241 105.993 480.919C106.419 480.592 106.741 480.14 106.959 479.562C107.182 478.985 107.293 478.312 107.293 477.545C107.293 476.788 107.184 476.125 106.966 475.557C106.748 474.989 106.429 474.546 106.007 474.229C105.586 473.911 105.065 473.753 104.445 473.753C103.806 473.753 103.273 473.919 102.847 474.25C102.421 474.581 102.099 475.034 101.881 475.607C101.668 476.179 101.561 476.826 101.561 477.545C101.561 478.275 101.67 478.93 101.888 479.513C102.106 480.095 102.428 480.557 102.854 480.898C103.285 481.234 103.815 481.402 104.445 481.402ZM117.114 483.22C116.039 483.22 115.113 482.991 114.337 482.531C113.565 482.067 112.968 481.416 112.547 480.578C112.13 479.735 111.922 478.748 111.922 477.616C111.922 476.499 112.13 475.514 112.547 474.662C112.968 473.81 113.555 473.144 114.308 472.666C115.066 472.188 115.951 471.949 116.964 471.949C117.58 471.949 118.177 472.051 118.754 472.254C119.332 472.458 119.85 472.777 120.31 473.213C120.769 473.649 121.131 474.214 121.396 474.911C121.661 475.602 121.794 476.442 121.794 477.432V478.185H113.122V476.594H119.713C119.713 476.035 119.599 475.54 119.372 475.109C119.145 474.674 118.825 474.33 118.413 474.08C118.006 473.829 117.528 473.703 116.979 473.703C116.382 473.703 115.861 473.85 115.416 474.143C114.976 474.432 114.635 474.811 114.393 475.28C114.157 475.744 114.038 476.248 114.038 476.793V478.036C114.038 478.765 114.166 479.385 114.422 479.896C114.682 480.408 115.045 480.798 115.509 481.068C115.973 481.333 116.515 481.466 117.135 481.466C117.537 481.466 117.904 481.409 118.236 481.295C118.567 481.177 118.854 481.002 119.095 480.77C119.337 480.538 119.521 480.251 119.649 479.911L121.659 480.273C121.498 480.865 121.209 481.383 120.793 481.828C120.381 482.268 119.862 482.612 119.237 482.858C118.617 483.099 117.909 483.22 117.114 483.22ZM124.15 483V472.091H126.203V473.824H126.316C126.515 473.237 126.866 472.775 127.368 472.439C127.874 472.098 128.447 471.928 129.086 471.928C129.219 471.928 129.375 471.932 129.555 471.942C129.74 471.951 129.884 471.963 129.988 471.977V474.009C129.903 473.985 129.752 473.959 129.534 473.93C129.316 473.897 129.098 473.881 128.88 473.881C128.378 473.881 127.931 473.987 127.538 474.2C127.15 474.409 126.842 474.7 126.615 475.074C126.387 475.443 126.274 475.865 126.274 476.338V483H124.15ZM137.289 483V468.455H142.474C143.606 468.455 144.543 468.661 145.287 469.072C146.03 469.484 146.586 470.048 146.956 470.763C147.325 471.473 147.51 472.273 147.51 473.163C147.51 474.058 147.323 474.863 146.949 475.578C146.579 476.288 146.02 476.852 145.272 477.268C144.529 477.68 143.594 477.886 142.467 477.886H138.902V476.026H142.268C142.983 476.026 143.563 475.902 144.008 475.656C144.453 475.405 144.78 475.064 144.988 474.634C145.197 474.203 145.301 473.713 145.301 473.163C145.301 472.614 145.197 472.126 144.988 471.7C144.78 471.274 144.451 470.94 144.001 470.699C143.556 470.457 142.969 470.337 142.24 470.337H139.484V483H137.289ZM152.036 468.455V483H149.912V468.455H152.036ZM158.067 483.241C157.376 483.241 156.751 483.114 156.192 482.858C155.633 482.598 155.191 482.221 154.864 481.729C154.542 481.236 154.381 480.633 154.381 479.918C154.381 479.302 154.499 478.795 154.736 478.398C154.973 478 155.292 477.685 155.695 477.453C156.097 477.221 156.547 477.046 157.044 476.928C157.542 476.809 158.048 476.719 158.564 476.658C159.218 476.582 159.748 476.52 160.155 476.473C160.562 476.421 160.858 476.338 161.043 476.224C161.228 476.111 161.32 475.926 161.32 475.67V475.621C161.32 475 161.145 474.52 160.794 474.179C160.449 473.838 159.933 473.668 159.246 473.668C158.531 473.668 157.968 473.826 157.556 474.143C157.149 474.456 156.867 474.804 156.711 475.188L154.715 474.733C154.952 474.07 155.297 473.535 155.752 473.128C156.211 472.716 156.739 472.418 157.336 472.233C157.932 472.044 158.56 471.949 159.218 471.949C159.653 471.949 160.115 472.001 160.603 472.105C161.095 472.205 161.554 472.389 161.98 472.659C162.411 472.929 162.764 473.315 163.039 473.817C163.313 474.314 163.451 474.96 163.451 475.756V483H161.377V481.509H161.292C161.154 481.783 160.948 482.053 160.674 482.318C160.399 482.583 160.046 482.804 159.615 482.979C159.185 483.154 158.668 483.241 158.067 483.241ZM158.529 481.537C159.116 481.537 159.618 481.421 160.034 481.189C160.456 480.957 160.775 480.654 160.993 480.28C161.216 479.901 161.327 479.496 161.327 479.065V477.659C161.251 477.735 161.105 477.806 160.887 477.872C160.674 477.934 160.43 477.988 160.155 478.036C159.881 478.078 159.613 478.118 159.353 478.156C159.092 478.189 158.874 478.218 158.699 478.241C158.287 478.294 157.911 478.381 157.57 478.504C157.234 478.627 156.964 478.805 156.76 479.037C156.561 479.264 156.462 479.567 156.462 479.946C156.462 480.472 156.656 480.869 157.044 481.139C157.433 481.404 157.927 481.537 158.529 481.537ZM170.874 483.22C169.818 483.22 168.909 482.981 168.147 482.503C167.389 482.02 166.807 481.355 166.4 480.507C165.993 479.66 165.789 478.689 165.789 477.595C165.789 476.487 165.997 475.509 166.414 474.662C166.831 473.81 167.418 473.144 168.175 472.666C168.933 472.188 169.826 471.949 170.853 471.949C171.682 471.949 172.42 472.103 173.069 472.411C173.718 472.714 174.241 473.14 174.638 473.689C175.041 474.238 175.28 474.88 175.356 475.614H173.289C173.175 475.102 172.915 474.662 172.508 474.293C172.105 473.923 171.566 473.739 170.888 473.739C170.297 473.739 169.778 473.895 169.333 474.207C168.893 474.515 168.549 474.955 168.303 475.528C168.057 476.097 167.934 476.769 167.934 477.545C167.934 478.341 168.055 479.027 168.296 479.605C168.538 480.183 168.879 480.63 169.319 480.947C169.764 481.265 170.287 481.423 170.888 481.423C171.291 481.423 171.656 481.35 171.982 481.203C172.314 481.052 172.591 480.836 172.813 480.557C173.04 480.277 173.199 479.941 173.289 479.548H175.356C175.28 480.254 175.05 480.884 174.667 481.438C174.283 481.991 173.77 482.427 173.126 482.744C172.487 483.062 171.736 483.22 170.874 483.22ZM182.328 483.22C181.254 483.22 180.328 482.991 179.551 482.531C178.78 482.067 178.183 481.416 177.762 480.578C177.345 479.735 177.137 478.748 177.137 477.616C177.137 476.499 177.345 475.514 177.762 474.662C178.183 473.81 178.77 473.144 179.523 472.666C180.281 472.188 181.166 471.949 182.179 471.949C182.795 471.949 183.391 472.051 183.969 472.254C184.547 472.458 185.065 472.777 185.525 473.213C185.984 473.649 186.346 474.214 186.611 474.911C186.876 475.602 187.009 476.442 187.009 477.432V478.185H178.337V476.594H184.928C184.928 476.035 184.814 475.54 184.587 475.109C184.36 474.674 184.04 474.33 183.628 474.08C183.221 473.829 182.743 473.703 182.194 473.703C181.597 473.703 181.076 473.85 180.631 474.143C180.191 474.432 179.85 474.811 179.608 475.28C179.372 475.744 179.253 476.248 179.253 476.793V478.036C179.253 478.765 179.381 479.385 179.637 479.896C179.897 480.408 180.259 480.798 180.723 481.068C181.187 481.333 181.73 481.466 182.35 481.466C182.752 481.466 183.119 481.409 183.451 481.295C183.782 481.177 184.069 481.002 184.31 480.77C184.551 480.538 184.736 480.251 184.864 479.911L186.874 480.273C186.713 480.865 186.424 481.383 186.007 481.828C185.596 482.268 185.077 482.612 184.452 482.858C183.832 483.099 183.124 483.22 182.328 483.22ZM193.449 483.213C192.568 483.213 191.782 482.988 191.091 482.538C190.404 482.084 189.865 481.437 189.472 480.599C189.083 479.757 188.889 478.746 188.889 477.567C188.889 476.388 189.086 475.379 189.479 474.541C189.876 473.703 190.421 473.062 191.112 472.616C191.804 472.171 192.587 471.949 193.463 471.949C194.14 471.949 194.685 472.062 195.097 472.29C195.513 472.512 195.835 472.773 196.062 473.071C196.295 473.369 196.474 473.632 196.602 473.859H196.73V468.455H198.854V483H196.78V481.303H196.602C196.474 481.535 196.29 481.8 196.048 482.098C195.812 482.396 195.485 482.657 195.068 482.879C194.652 483.102 194.112 483.213 193.449 483.213ZM193.918 481.402C194.528 481.402 195.045 481.241 195.466 480.919C195.892 480.592 196.214 480.14 196.432 479.562C196.654 478.985 196.766 478.312 196.766 477.545C196.766 476.788 196.657 476.125 196.439 475.557C196.221 474.989 195.902 474.546 195.48 474.229C195.059 473.911 194.538 473.753 193.918 473.753C193.278 473.753 192.746 473.919 192.32 474.25C191.893 474.581 191.571 475.034 191.354 475.607C191.141 476.179 191.034 476.826 191.034 477.545C191.034 478.275 191.143 478.93 191.361 479.513C191.579 480.095 191.901 480.557 192.327 480.898C192.758 481.234 193.288 481.402 193.918 481.402ZM215.281 472.276C215.205 471.603 214.893 471.082 214.344 470.713C213.795 470.339 213.103 470.152 212.27 470.152C211.673 470.152 211.157 470.247 210.722 470.436C210.286 470.621 209.947 470.876 209.706 471.203C209.469 471.525 209.351 471.892 209.351 472.304C209.351 472.65 209.431 472.948 209.592 473.199C209.758 473.45 209.973 473.661 210.239 473.831C210.509 473.997 210.797 474.136 211.105 474.25C211.413 474.359 211.709 474.449 211.993 474.52L213.413 474.889C213.877 475.003 214.353 475.157 214.841 475.351C215.329 475.545 215.781 475.801 216.197 476.118C216.614 476.435 216.95 476.828 217.206 477.297C217.466 477.766 217.597 478.327 217.597 478.98C217.597 479.804 217.384 480.536 216.957 481.175C216.536 481.814 215.923 482.318 215.118 482.688C214.318 483.057 213.349 483.241 212.213 483.241C211.124 483.241 210.182 483.069 209.386 482.723C208.591 482.377 207.968 481.887 207.518 481.253C207.069 480.614 206.82 479.856 206.773 478.98H208.974C209.017 479.506 209.188 479.944 209.486 480.294C209.789 480.64 210.175 480.898 210.643 481.068C211.117 481.234 211.635 481.317 212.199 481.317C212.819 481.317 213.371 481.22 213.854 481.026C214.341 480.827 214.725 480.552 215.004 480.202C215.284 479.847 215.423 479.432 215.423 478.959C215.423 478.528 215.3 478.175 215.054 477.901C214.813 477.626 214.483 477.399 214.067 477.219C213.655 477.039 213.188 476.88 212.668 476.743L210.949 476.274C209.784 475.957 208.861 475.491 208.179 474.875C207.502 474.259 207.163 473.445 207.163 472.432C207.163 471.594 207.391 470.862 207.845 470.237C208.3 469.612 208.915 469.127 209.692 468.781C210.468 468.431 211.344 468.256 212.32 468.256C213.304 468.256 214.173 468.429 214.926 468.774C215.684 469.12 216.28 469.596 216.716 470.202C217.152 470.803 217.379 471.494 217.398 472.276H215.281ZM226.959 478.476V472.091H229.09V483H227.002V481.111H226.888C226.637 481.693 226.235 482.179 225.681 482.567C225.132 482.95 224.447 483.142 223.628 483.142C222.927 483.142 222.307 482.988 221.767 482.68C221.232 482.368 220.811 481.906 220.503 481.295C220.2 480.685 220.049 479.929 220.049 479.03V472.091H222.172V478.774C222.172 479.518 222.378 480.109 222.79 480.55C223.202 480.99 223.737 481.21 224.395 481.21C224.793 481.21 225.188 481.111 225.581 480.912C225.979 480.713 226.308 480.412 226.569 480.01C226.834 479.607 226.964 479.096 226.959 478.476ZM236.538 483.22C235.482 483.22 234.573 482.981 233.811 482.503C233.054 482.02 232.471 481.355 232.064 480.507C231.657 479.66 231.453 478.689 231.453 477.595C231.453 476.487 231.661 475.509 232.078 474.662C232.495 473.81 233.082 473.144 233.839 472.666C234.597 472.188 235.49 471.949 236.517 471.949C237.346 471.949 238.084 472.103 238.733 472.411C239.382 472.714 239.905 473.14 240.303 473.689C240.705 474.238 240.944 474.88 241.02 475.614H238.953C238.839 475.102 238.579 474.662 238.172 474.293C237.769 473.923 237.23 473.739 236.553 473.739C235.961 473.739 235.442 473.895 234.997 474.207C234.557 474.515 234.214 474.955 233.967 475.528C233.721 476.097 233.598 476.769 233.598 477.545C233.598 478.341 233.719 479.027 233.96 479.605C234.202 480.183 234.543 480.63 234.983 480.947C235.428 481.265 235.951 481.423 236.553 481.423C236.955 481.423 237.32 481.35 237.646 481.203C237.978 481.052 238.255 480.836 238.477 480.557C238.705 480.277 238.863 479.941 238.953 479.548H241.02C240.944 480.254 240.714 480.884 240.331 481.438C239.947 481.991 239.434 482.427 238.79 482.744C238.151 483.062 237.4 483.22 236.538 483.22ZM247.886 483.22C246.83 483.22 245.921 482.981 245.159 482.503C244.401 482.02 243.819 481.355 243.412 480.507C243.004 479.66 242.801 478.689 242.801 477.595C242.801 476.487 243.009 475.509 243.426 474.662C243.842 473.81 244.43 473.144 245.187 472.666C245.945 472.188 246.837 471.949 247.865 471.949C248.693 471.949 249.432 472.103 250.081 472.411C250.729 472.714 251.252 473.14 251.65 473.689C252.053 474.238 252.292 474.88 252.368 475.614H250.301C250.187 475.102 249.927 474.662 249.52 474.293C249.117 473.923 248.577 473.739 247.9 473.739C247.308 473.739 246.79 473.895 246.345 474.207C245.904 474.515 245.561 474.955 245.315 475.528C245.069 476.097 244.946 476.769 244.946 477.545C244.946 478.341 245.066 479.027 245.308 479.605C245.549 480.183 245.89 480.63 246.331 480.947C246.776 481.265 247.299 481.423 247.9 481.423C248.303 481.423 248.667 481.35 248.994 481.203C249.325 481.052 249.602 480.836 249.825 480.557C250.052 480.277 250.211 479.941 250.301 479.548H252.368C252.292 480.254 252.062 480.884 251.679 481.438C251.295 481.991 250.781 482.427 250.137 482.744C249.498 483.062 248.748 483.22 247.886 483.22ZM259.34 483.22C258.265 483.22 257.34 482.991 256.563 482.531C255.791 482.067 255.195 481.416 254.773 480.578C254.357 479.735 254.148 478.748 254.148 477.616C254.148 476.499 254.357 475.514 254.773 474.662C255.195 473.81 255.782 473.144 256.535 472.666C257.292 472.188 258.178 471.949 259.191 471.949C259.807 471.949 260.403 472.051 260.981 472.254C261.558 472.458 262.077 472.777 262.536 473.213C262.996 473.649 263.358 474.214 263.623 474.911C263.888 475.602 264.021 476.442 264.021 477.432V478.185H255.349V476.594H261.94C261.94 476.035 261.826 475.54 261.599 475.109C261.371 474.674 261.052 474.33 260.64 474.08C260.233 473.829 259.754 473.703 259.205 473.703C258.609 473.703 258.088 473.85 257.643 474.143C257.202 474.432 256.862 474.811 256.62 475.28C256.383 475.744 256.265 476.248 256.265 476.793V478.036C256.265 478.765 256.393 479.385 256.648 479.896C256.909 480.408 257.271 480.798 257.735 481.068C258.199 481.333 258.741 481.466 259.362 481.466C259.764 481.466 260.131 481.409 260.462 481.295C260.794 481.177 261.08 481.002 261.322 480.77C261.563 480.538 261.748 480.251 261.876 479.911L263.886 480.273C263.725 480.865 263.436 481.383 263.019 481.828C262.607 482.268 262.089 482.612 261.464 482.858C260.844 483.099 260.136 483.22 259.34 483.22ZM274.551 474.754L272.627 475.095C272.546 474.849 272.418 474.615 272.243 474.392C272.073 474.17 271.841 473.987 271.547 473.845C271.254 473.703 270.887 473.632 270.446 473.632C269.845 473.632 269.343 473.767 268.941 474.037C268.538 474.302 268.337 474.645 268.337 475.067C268.337 475.431 268.472 475.725 268.742 475.947C269.012 476.17 269.447 476.352 270.049 476.494L271.782 476.892C272.785 477.124 273.533 477.482 274.026 477.964C274.518 478.447 274.765 479.075 274.765 479.847C274.765 480.5 274.575 481.082 274.196 481.594C273.822 482.1 273.299 482.498 272.627 482.787C271.959 483.076 271.185 483.22 270.304 483.22C269.083 483.22 268.086 482.96 267.314 482.439C266.542 481.913 266.069 481.168 265.894 480.202L267.946 479.889C268.074 480.424 268.337 480.829 268.735 481.104C269.132 481.374 269.651 481.509 270.29 481.509C270.986 481.509 271.542 481.364 271.959 481.075C272.376 480.782 272.584 480.424 272.584 480.003C272.584 479.662 272.456 479.375 272.201 479.143C271.95 478.911 271.564 478.736 271.043 478.618L269.196 478.213C268.178 477.981 267.426 477.612 266.938 477.105C266.455 476.598 266.213 475.957 266.213 475.18C266.213 474.536 266.393 473.973 266.753 473.49C267.113 473.007 267.61 472.631 268.245 472.361C268.879 472.086 269.606 471.949 270.425 471.949C271.604 471.949 272.532 472.205 273.209 472.716C273.886 473.223 274.334 473.902 274.551 474.754ZM285.274 474.754L283.349 475.095C283.269 474.849 283.141 474.615 282.966 474.392C282.795 474.17 282.563 473.987 282.27 473.845C281.976 473.703 281.609 473.632 281.169 473.632C280.568 473.632 280.066 473.767 279.663 474.037C279.261 474.302 279.06 474.645 279.06 475.067C279.06 475.431 279.195 475.725 279.464 475.947C279.734 476.17 280.17 476.352 280.771 476.494L282.504 476.892C283.508 477.124 284.256 477.482 284.749 477.964C285.241 478.447 285.487 479.075 285.487 479.847C285.487 480.5 285.298 481.082 284.919 481.594C284.545 482.1 284.022 482.498 283.349 482.787C282.682 483.076 281.908 483.22 281.027 483.22C279.805 483.22 278.809 482.96 278.037 482.439C277.265 481.913 276.792 481.168 276.616 480.202L278.669 479.889C278.797 480.424 279.06 480.829 279.457 481.104C279.855 481.374 280.374 481.509 281.013 481.509C281.709 481.509 282.265 481.364 282.682 481.075C283.098 480.782 283.307 480.424 283.307 480.003C283.307 479.662 283.179 479.375 282.923 479.143C282.672 478.911 282.286 478.736 281.766 478.618L279.919 478.213C278.901 477.981 278.148 477.612 277.661 477.105C277.178 476.598 276.936 475.957 276.936 475.18C276.936 474.536 277.116 473.973 277.476 473.49C277.836 473.007 278.333 472.631 278.967 472.361C279.602 472.086 280.329 471.949 281.148 471.949C282.327 471.949 283.255 472.205 283.932 472.716C284.609 473.223 285.056 473.902 285.274 474.754ZM293.014 472.091V473.795H286.849V472.091H293.014ZM288.539 483V470.827C288.539 470.145 288.689 469.579 288.987 469.129C289.285 468.675 289.681 468.336 290.173 468.114C290.665 467.886 291.2 467.773 291.778 467.773C292.204 467.773 292.569 467.808 292.872 467.879C293.175 467.946 293.4 468.007 293.547 468.064L293.049 469.783C292.95 469.754 292.822 469.721 292.666 469.683C292.51 469.641 292.32 469.619 292.098 469.619C291.582 469.619 291.212 469.747 290.99 470.003C290.772 470.259 290.663 470.628 290.663 471.111V483H288.539ZM302.115 478.476V472.091H304.246V483H302.158V481.111H302.044C301.793 481.693 301.391 482.179 300.837 482.567C300.288 482.95 299.604 483.142 298.784 483.142C298.084 483.142 297.463 482.988 296.924 482.68C296.389 482.368 295.967 481.906 295.659 481.295C295.356 480.685 295.205 479.929 295.205 479.03V472.091H297.328V478.774C297.328 479.518 297.534 480.109 297.946 480.55C298.358 480.99 298.893 481.21 299.551 481.21C299.949 481.21 300.345 481.111 300.738 480.912C301.135 480.713 301.464 480.412 301.725 480.01C301.99 479.607 302.12 479.096 302.115 478.476ZM309.223 468.455V483H307.099V468.455H309.223ZM314.203 468.455V483H312.08V468.455H314.203ZM318.403 487.091C318.085 487.091 317.797 487.065 317.536 487.013C317.276 486.965 317.082 486.913 316.954 486.857L317.465 485.116C317.853 485.221 318.199 485.266 318.502 485.251C318.805 485.237 319.073 485.124 319.305 484.911C319.541 484.697 319.75 484.349 319.93 483.866L320.192 483.142L316.201 472.091H318.474L321.237 480.557H321.35L324.113 472.091H326.393L321.897 484.456C321.689 485.024 321.424 485.505 321.102 485.898C320.78 486.295 320.396 486.594 319.951 486.793C319.506 486.991 318.99 487.091 318.403 487.091ZM331.066 468.455L330.881 478.817H328.914L328.729 468.455H331.066ZM329.901 483.135C329.508 483.135 329.172 482.998 328.893 482.723C328.613 482.444 328.476 482.107 328.481 481.714C328.476 481.326 328.613 480.995 328.893 480.72C329.172 480.441 329.508 480.301 329.901 480.301C330.285 480.301 330.616 480.441 330.896 480.72C331.175 480.995 331.317 481.326 331.322 481.714C331.317 481.975 331.248 482.214 331.116 482.432C330.988 482.645 330.817 482.815 330.604 482.943C330.391 483.071 330.157 483.135 329.901 483.135Z" fill="#E6E6E6"/>
<rect x="60.5" y="506.5" width="239" height="47" rx="7.5" fill="#0F0F0F"/>
<path d="M102 525.4V521.6C102 521.441 102.063 521.288 102.176 521.176C102.288 521.063 102.441 521 102.6 521H108.4C108.559 521 108.712 521.063 108.824 521.176C108.937 521.288 109 521.441 109 521.6V525.4C109 525.559 108.937 525.712 108.824 525.824C108.712 525.937 108.559 526 108.4 526H102.6C102.441 526 102.288 525.937 102.176 525.824C102.063 525.712 102 525.559 102 525.4V525.4ZM113 538.4V534.6C113 534.441 113.063 534.288 113.176 534.176C113.288 534.063 113.441 534 113.6 534H119.4C119.559 534 119.712 534.063 119.824 534.176C119.937 534.288 120 534.441 120 534.6V538.4C120 538.559 119.937 538.712 119.824 538.824C119.712 538.937 119.559 539 119.4 539H113.6C113.441 539 113.288 538.937 113.176 538.824C113.063 538.712 113 538.559 113 538.4V538.4ZM113 530.4V521.6C113 521.441 113.063 521.288 113.176 521.176C113.288 521.063 113.441 521 113.6 521H119.4C119.559 521 119.712 521.063 119.824 521.176C119.937 521.288 120 521.441 120 521.6V530.4C120 530.559 119.937 530.712 119.824 530.824C119.712 530.937 119.559 531 119.4 531H113.6C113.441 531 113.288 530.937 113.176 530.824C113.063 530.712 113 530.559 113 530.4V530.4ZM102 538.4V529.6C102 529.441 102.063 529.288 102.176 529.176C102.288 529.063 102.441 529 102.6 529H108.4C108.559 529 108.712 529.063 108.824 529.176C108.937 529.288 109 529.441 109 529.6V538.4C109 538.559 108.937 538.712 108.824 538.824C108.712 538.937 108.559 539 108.4 539H102.6C102.441 539 102.288 538.937 102.176 538.824C102.063 538.712 102 538.559 102 538.4V538.4Z" stroke="#E6E6E6" stroke-width="1.5"/>
<path d="M140.153 528.04C140.044 527.695 139.896 527.386 139.71 527.114C139.528 526.837 139.311 526.602 139.057 526.409C138.803 526.212 138.513 526.062 138.188 525.96C137.866 525.858 137.511 525.807 137.125 525.807C136.47 525.807 135.879 525.975 135.352 526.312C134.826 526.65 134.409 527.144 134.102 527.795C133.799 528.443 133.648 529.237 133.648 530.176C133.648 531.119 133.801 531.917 134.108 532.568C134.415 533.22 134.835 533.714 135.369 534.051C135.903 534.388 136.511 534.557 137.193 534.557C137.826 534.557 138.377 534.428 138.847 534.17C139.32 533.913 139.686 533.549 139.943 533.08C140.205 532.606 140.335 532.049 140.335 531.409L140.79 531.494H137.46V530.045H142.034V531.369C142.034 532.347 141.826 533.195 141.409 533.915C140.996 534.631 140.424 535.184 139.693 535.574C138.966 535.964 138.133 536.159 137.193 536.159C136.14 536.159 135.216 535.917 134.42 535.432C133.629 534.947 133.011 534.259 132.568 533.369C132.125 532.475 131.903 531.415 131.903 530.188C131.903 529.259 132.032 528.426 132.29 527.688C132.547 526.949 132.909 526.322 133.375 525.807C133.845 525.288 134.396 524.892 135.028 524.619C135.665 524.343 136.36 524.205 137.114 524.205C137.742 524.205 138.328 524.297 138.869 524.483C139.415 524.669 139.9 524.932 140.324 525.273C140.752 525.614 141.106 526.019 141.386 526.489C141.667 526.955 141.856 527.472 141.955 528.04H140.153ZM147.803 536.176C146.984 536.176 146.27 535.989 145.661 535.614C145.051 535.239 144.577 534.714 144.24 534.04C143.903 533.366 143.734 532.578 143.734 531.676C143.734 530.771 143.903 529.979 144.24 529.301C144.577 528.623 145.051 528.097 145.661 527.722C146.27 527.347 146.984 527.159 147.803 527.159C148.621 527.159 149.335 527.347 149.945 527.722C150.554 528.097 151.028 528.623 151.365 529.301C151.702 529.979 151.871 530.771 151.871 531.676C151.871 532.578 151.702 533.366 151.365 534.04C151.028 534.714 150.554 535.239 149.945 535.614C149.335 535.989 148.621 536.176 147.803 536.176ZM147.808 534.75C148.339 534.75 148.778 534.61 149.126 534.33C149.475 534.049 149.732 533.676 149.899 533.21C150.07 532.744 150.155 532.231 150.155 531.67C150.155 531.114 150.07 530.602 149.899 530.136C149.732 529.667 149.475 529.29 149.126 529.006C148.778 528.722 148.339 528.58 147.808 528.58C147.274 528.58 146.831 528.722 146.479 529.006C146.13 529.29 145.871 529.667 145.7 530.136C145.534 530.602 145.45 531.114 145.45 531.67C145.45 532.231 145.534 532.744 145.7 533.21C145.871 533.676 146.13 534.049 146.479 534.33C146.831 534.61 147.274 534.75 147.808 534.75ZM162.075 527.273V528.636H157.308V527.273H162.075ZM158.587 525.182H160.286V533.438C160.286 533.767 160.335 534.015 160.433 534.182C160.532 534.345 160.659 534.456 160.814 534.517C160.973 534.574 161.145 534.602 161.331 534.602C161.467 534.602 161.587 534.593 161.689 534.574C161.791 534.555 161.871 534.54 161.928 534.528L162.234 535.932C162.136 535.97 161.996 536.008 161.814 536.045C161.632 536.087 161.405 536.11 161.132 536.114C160.685 536.121 160.268 536.042 159.882 535.875C159.496 535.708 159.183 535.451 158.945 535.102C158.706 534.754 158.587 534.316 158.587 533.79V525.182ZM167.537 536.176C166.719 536.176 166.005 535.989 165.395 535.614C164.785 535.239 164.312 534.714 163.974 534.04C163.637 533.366 163.469 532.578 163.469 531.676C163.469 530.771 163.637 529.979 163.974 529.301C164.312 528.623 164.785 528.097 165.395 527.722C166.005 527.347 166.719 527.159 167.537 527.159C168.355 527.159 169.069 527.347 169.679 527.722C170.289 528.097 170.762 528.623 171.099 529.301C171.437 529.979 171.605 530.771 171.605 531.676C171.605 532.578 171.437 533.366 171.099 534.04C170.762 534.714 170.289 535.239 169.679 535.614C169.069 535.989 168.355 536.176 167.537 536.176ZM167.543 534.75C168.073 534.75 168.512 534.61 168.861 534.33C169.209 534.049 169.467 533.676 169.634 533.21C169.804 532.744 169.889 532.231 169.889 531.67C169.889 531.114 169.804 530.602 169.634 530.136C169.467 529.667 169.209 529.29 168.861 529.006C168.512 528.722 168.073 528.58 167.543 528.58C167.009 528.58 166.565 528.722 166.213 529.006C165.865 529.29 165.605 529.667 165.435 530.136C165.268 530.602 165.185 531.114 165.185 531.67C165.185 532.231 165.268 532.744 165.435 533.21C165.605 533.676 165.865 534.049 166.213 534.33C166.565 534.61 167.009 534.75 167.543 534.75ZM181.639 536H177.872V524.364H181.759C182.899 524.364 183.878 524.597 184.696 525.062C185.514 525.525 186.141 526.189 186.577 527.057C187.016 527.92 187.236 528.956 187.236 530.165C187.236 531.377 187.014 532.419 186.571 533.29C186.132 534.161 185.495 534.831 184.662 535.301C183.829 535.767 182.821 536 181.639 536ZM179.628 534.466H181.543C182.429 534.466 183.166 534.299 183.753 533.966C184.34 533.629 184.779 533.142 185.071 532.506C185.363 531.866 185.509 531.085 185.509 530.165C185.509 529.252 185.363 528.477 185.071 527.841C184.783 527.205 184.353 526.722 183.781 526.392C183.209 526.062 182.499 525.898 181.651 525.898H179.628V534.466ZM191.822 536.193C191.269 536.193 190.769 536.091 190.322 535.886C189.875 535.678 189.521 535.377 189.26 534.983C189.002 534.589 188.874 534.106 188.874 533.534C188.874 533.042 188.968 532.636 189.158 532.318C189.347 532 189.603 531.748 189.925 531.562C190.247 531.377 190.607 531.237 191.004 531.142C191.402 531.047 191.807 530.975 192.22 530.926C192.743 530.866 193.167 530.816 193.493 530.778C193.819 530.737 194.055 530.67 194.203 530.58C194.351 530.489 194.425 530.341 194.425 530.136V530.097C194.425 529.6 194.285 529.216 194.004 528.943C193.728 528.67 193.315 528.534 192.766 528.534C192.194 528.534 191.743 528.661 191.413 528.915C191.088 529.165 190.862 529.443 190.737 529.75L189.141 529.386C189.33 528.856 189.607 528.428 189.97 528.102C190.338 527.773 190.76 527.534 191.237 527.386C191.714 527.235 192.216 527.159 192.743 527.159C193.091 527.159 193.461 527.201 193.851 527.284C194.245 527.364 194.612 527.511 194.953 527.727C195.298 527.943 195.58 528.252 195.8 528.653C196.019 529.051 196.129 529.568 196.129 530.205V536H194.47V534.807H194.402C194.292 535.027 194.127 535.242 193.908 535.455C193.688 535.667 193.406 535.843 193.061 535.983C192.716 536.123 192.304 536.193 191.822 536.193ZM192.192 534.83C192.661 534.83 193.063 534.737 193.396 534.551C193.733 534.366 193.989 534.123 194.163 533.824C194.341 533.521 194.43 533.197 194.43 532.852V531.727C194.37 531.788 194.252 531.845 194.078 531.898C193.908 531.947 193.713 531.991 193.493 532.028C193.273 532.062 193.059 532.095 192.851 532.125C192.643 532.152 192.468 532.174 192.328 532.193C191.999 532.235 191.697 532.305 191.425 532.403C191.156 532.502 190.94 532.644 190.777 532.83C190.618 533.011 190.538 533.254 190.538 533.557C190.538 533.977 190.694 534.295 191.004 534.511C191.315 534.723 191.711 534.83 192.192 534.83ZM204.932 529.403L203.392 529.676C203.328 529.479 203.225 529.292 203.085 529.114C202.949 528.936 202.763 528.79 202.528 528.676C202.294 528.562 202 528.506 201.648 528.506C201.167 528.506 200.765 528.614 200.443 528.83C200.121 529.042 199.96 529.316 199.96 529.653C199.96 529.945 200.068 530.18 200.284 530.358C200.5 530.536 200.848 530.682 201.33 530.795L202.716 531.114C203.519 531.299 204.117 531.585 204.511 531.972C204.905 532.358 205.102 532.86 205.102 533.477C205.102 534 204.951 534.466 204.648 534.875C204.348 535.28 203.93 535.598 203.392 535.83C202.858 536.061 202.239 536.176 201.534 536.176C200.557 536.176 199.759 535.968 199.142 535.551C198.525 535.131 198.146 534.534 198.006 533.761L199.648 533.511C199.75 533.939 199.96 534.263 200.278 534.483C200.597 534.699 201.011 534.807 201.523 534.807C202.08 534.807 202.525 534.691 202.858 534.46C203.191 534.225 203.358 533.939 203.358 533.602C203.358 533.33 203.256 533.1 203.051 532.915C202.85 532.729 202.542 532.589 202.125 532.494L200.648 532.17C199.833 531.985 199.231 531.689 198.841 531.284C198.455 530.879 198.261 530.366 198.261 529.744C198.261 529.229 198.405 528.778 198.693 528.392C198.981 528.006 199.379 527.705 199.886 527.489C200.394 527.269 200.975 527.159 201.631 527.159C202.574 527.159 203.316 527.364 203.858 527.773C204.4 528.178 204.758 528.722 204.932 529.403ZM208.669 530.818V536H206.97V524.364H208.646V528.693H208.754C208.959 528.223 209.271 527.85 209.692 527.574C210.112 527.297 210.661 527.159 211.339 527.159C211.938 527.159 212.461 527.282 212.908 527.528C213.358 527.775 213.707 528.142 213.953 528.631C214.203 529.116 214.328 529.722 214.328 530.449V536H212.629V530.653C212.629 530.013 212.464 529.517 212.135 529.165C211.805 528.809 211.347 528.631 210.76 528.631C210.358 528.631 209.999 528.716 209.68 528.886C209.366 529.057 209.118 529.307 208.936 529.636C208.758 529.962 208.669 530.356 208.669 530.818ZM216.732 536V524.364H218.43V528.688H218.533C218.631 528.506 218.773 528.295 218.959 528.057C219.144 527.818 219.402 527.61 219.732 527.432C220.061 527.25 220.497 527.159 221.038 527.159C221.743 527.159 222.372 527.337 222.925 527.693C223.478 528.049 223.911 528.562 224.226 529.233C224.544 529.903 224.703 530.71 224.703 531.653C224.703 532.597 224.546 533.405 224.232 534.08C223.917 534.75 223.485 535.267 222.936 535.631C222.387 535.991 221.76 536.17 221.055 536.17C220.525 536.17 220.091 536.081 219.754 535.903C219.421 535.725 219.16 535.517 218.97 535.278C218.781 535.04 218.635 534.828 218.533 534.642H218.391V536H216.732ZM218.396 531.636C218.396 532.25 218.485 532.788 218.663 533.25C218.841 533.712 219.099 534.074 219.436 534.335C219.773 534.593 220.186 534.722 220.675 534.722C221.182 534.722 221.607 534.587 221.947 534.318C222.288 534.045 222.546 533.676 222.72 533.21C222.898 532.744 222.987 532.22 222.987 531.636C222.987 531.061 222.9 530.544 222.726 530.085C222.555 529.627 222.298 529.265 221.953 529C221.612 528.735 221.186 528.602 220.675 528.602C220.182 528.602 219.766 528.729 219.425 528.983C219.088 529.237 218.832 529.591 218.658 530.045C218.483 530.5 218.396 531.03 218.396 531.636ZM230.287 536.176C229.469 536.176 228.755 535.989 228.145 535.614C227.535 535.239 227.062 534.714 226.724 534.04C226.387 533.366 226.219 532.578 226.219 531.676C226.219 530.771 226.387 529.979 226.724 529.301C227.062 528.623 227.535 528.097 228.145 527.722C228.755 527.347 229.469 527.159 230.287 527.159C231.105 527.159 231.819 527.347 232.429 527.722C233.039 528.097 233.512 528.623 233.849 529.301C234.187 529.979 234.355 530.771 234.355 531.676C234.355 532.578 234.187 533.366 233.849 534.04C233.512 534.714 233.039 535.239 232.429 535.614C231.819 535.989 231.105 536.176 230.287 536.176ZM230.293 534.75C230.823 534.75 231.262 534.61 231.611 534.33C231.959 534.049 232.217 533.676 232.384 533.21C232.554 532.744 232.639 532.231 232.639 531.67C232.639 531.114 232.554 530.602 232.384 530.136C232.217 529.667 231.959 529.29 231.611 529.006C231.262 528.722 230.823 528.58 230.293 528.58C229.759 528.58 229.315 528.722 228.963 529.006C228.615 529.29 228.355 529.667 228.185 530.136C228.018 530.602 227.935 531.114 227.935 531.67C227.935 532.231 228.018 532.744 228.185 533.21C228.355 533.676 228.615 534.049 228.963 534.33C229.315 534.61 229.759 534.75 230.293 534.75ZM238.791 536.193C238.238 536.193 237.738 536.091 237.291 535.886C236.844 535.678 236.49 535.377 236.229 534.983C235.971 534.589 235.842 534.106 235.842 533.534C235.842 533.042 235.937 532.636 236.126 532.318C236.316 532 236.571 531.748 236.893 531.562C237.215 531.377 237.575 531.237 237.973 531.142C238.371 531.047 238.776 530.975 239.189 530.926C239.712 530.866 240.136 530.816 240.462 530.778C240.787 530.737 241.024 530.67 241.172 530.58C241.32 530.489 241.393 530.341 241.393 530.136V530.097C241.393 529.6 241.253 529.216 240.973 528.943C240.696 528.67 240.284 528.534 239.734 528.534C239.162 528.534 238.712 528.661 238.382 528.915C238.056 529.165 237.831 529.443 237.706 529.75L236.109 529.386C236.299 528.856 236.575 528.428 236.939 528.102C237.306 527.773 237.729 527.534 238.206 527.386C238.683 527.235 239.185 527.159 239.712 527.159C240.06 527.159 240.429 527.201 240.82 527.284C241.214 527.364 241.581 527.511 241.922 527.727C242.267 527.943 242.549 528.252 242.768 528.653C242.988 529.051 243.098 529.568 243.098 530.205V536H241.439V534.807H241.371C241.261 535.027 241.096 535.242 240.876 535.455C240.657 535.667 240.375 535.843 240.03 535.983C239.685 536.123 239.272 536.193 238.791 536.193ZM239.161 534.83C239.63 534.83 240.032 534.737 240.365 534.551C240.702 534.366 240.958 534.123 241.132 533.824C241.31 533.521 241.399 533.197 241.399 532.852V531.727C241.339 531.788 241.221 531.845 241.047 531.898C240.876 531.947 240.681 531.991 240.462 532.028C240.242 532.062 240.028 532.095 239.82 532.125C239.611 532.152 239.437 532.174 239.297 532.193C238.967 532.235 238.666 532.305 238.393 532.403C238.125 532.502 237.909 532.644 237.746 532.83C237.587 533.011 237.507 533.254 237.507 533.557C237.507 533.977 237.662 534.295 237.973 534.511C238.284 534.723 238.679 534.83 239.161 534.83ZM245.361 536V527.273H247.003V528.659H247.094C247.253 528.189 247.533 527.82 247.935 527.551C248.34 527.278 248.798 527.142 249.31 527.142C249.416 527.142 249.541 527.146 249.685 527.153C249.832 527.161 249.948 527.17 250.031 527.182V528.807C249.963 528.788 249.842 528.767 249.668 528.744C249.493 528.718 249.319 528.705 249.145 528.705C248.743 528.705 248.385 528.79 248.071 528.96C247.76 529.127 247.514 529.36 247.332 529.659C247.151 529.955 247.06 530.292 247.06 530.67V536H245.361ZM254.456 536.17C253.751 536.17 253.123 535.991 252.57 535.631C252.02 535.267 251.589 534.75 251.274 534.08C250.964 533.405 250.808 532.597 250.808 531.653C250.808 530.71 250.965 529.903 251.28 529.233C251.598 528.562 252.034 528.049 252.587 527.693C253.14 527.337 253.767 527.159 254.467 527.159C255.009 527.159 255.445 527.25 255.774 527.432C256.107 527.61 256.365 527.818 256.547 528.057C256.732 528.295 256.876 528.506 256.979 528.688H257.081V524.364H258.78V536H257.121V534.642H256.979C256.876 534.828 256.729 535.04 256.536 535.278C256.346 535.517 256.085 535.725 255.751 535.903C255.418 536.081 254.986 536.17 254.456 536.17ZM254.831 534.722C255.32 534.722 255.732 534.593 256.07 534.335C256.411 534.074 256.668 533.712 256.842 533.25C257.02 532.788 257.109 532.25 257.109 531.636C257.109 531.03 257.022 530.5 256.848 530.045C256.674 529.591 256.418 529.237 256.081 528.983C255.744 528.729 255.327 528.602 254.831 528.602C254.32 528.602 253.893 528.735 253.553 529C253.212 529.265 252.954 529.627 252.78 530.085C252.609 530.544 252.524 531.061 252.524 531.636C252.524 532.22 252.611 532.744 252.786 533.21C252.96 533.676 253.217 534.045 253.558 534.318C253.903 534.587 254.327 534.722 254.831 534.722Z" fill="#E6E6E6"/>
<rect x="60.5" y="506.5" width="239" height="47" rx="7.5" stroke="url(#paint0_linear_85_32724)"/>
<rect x="60" y="570" width="240" height="48" rx="8" fill="url(#paint1_linear_85_32724)"/>
<path d="M105.7 585.771H109.401C109.52 585.77 109.636 585.809 109.731 585.881C109.826 585.953 109.895 586.054 109.928 586.168L111.477 591.59C111.499 591.662 111.505 591.739 111.495 591.814C111.485 591.889 111.458 591.961 111.417 592.025C111.376 592.088 111.321 592.142 111.257 592.183C111.193 592.223 111.121 592.249 111.046 592.259C110.272 592.354 108.915 592.457 107.986 592.171C107.442 592.004 106.745 591.611 106.389 591.398C106.317 591.354 106.256 591.294 106.212 591.223C106.167 591.151 106.141 591.07 106.134 590.986L105.7 585.771ZM105.7 585.771L106.13 590.927C106.139 591.026 106.12 591.126 106.074 591.215C106.029 591.304 105.96 591.378 105.874 591.429C105.506 591.646 104.848 592.011 104.329 592.171C102.963 592.592 102.036 592.592 100.671 592.171C100.152 592.011 99.4932 591.646 99.1256 591.43C99.0398 591.379 98.9702 591.304 98.9249 591.215C98.8796 591.126 98.8604 591.026 98.8696 590.927L99.2994 585.771M105.7 585.771L99.2994 585.771M99.2994 585.771L98.865 590.986C98.8586 591.07 98.8322 591.151 98.788 591.223C98.7437 591.295 98.683 591.355 98.6108 591.399C98.2551 591.611 97.5575 592.004 97.0134 592.171C96.0844 592.457 94.7265 592.354 93.9538 592.258C93.8788 592.248 93.8069 592.222 93.7429 592.182C93.679 592.142 93.6246 592.088 93.5835 592.024C93.5425 591.961 93.5157 591.889 93.5051 591.814C93.4945 591.739 93.5004 591.663 93.5223 591.591L95.0712 586.168C95.104 586.054 95.1732 585.953 95.2684 585.881C95.3636 585.809 95.4796 585.77 95.5988 585.771L99.2994 585.771ZM94.2702 592.171V600.401C94.2702 600.886 94.4629 601.351 94.8059 601.694C95.1488 602.037 95.614 602.23 96.099 602.23H108.9C109.385 602.23 109.851 602.037 110.194 601.694C110.537 601.351 110.729 600.886 110.729 600.401V592.171" stroke="#E6E6E6" stroke-width="1.5"/>
<path d="M133.443 592.148H131.67C131.602 591.769 131.475 591.436 131.29 591.148C131.104 590.86 130.877 590.616 130.608 590.415C130.339 590.214 130.038 590.062 129.705 589.96C129.375 589.858 129.025 589.807 128.653 589.807C127.983 589.807 127.383 589.975 126.852 590.312C126.326 590.65 125.909 591.144 125.602 591.795C125.299 592.447 125.148 593.242 125.148 594.182C125.148 595.129 125.299 595.928 125.602 596.58C125.909 597.231 126.328 597.723 126.858 598.057C127.388 598.39 127.985 598.557 128.648 598.557C129.015 598.557 129.364 598.508 129.693 598.409C130.027 598.307 130.328 598.157 130.597 597.96C130.866 597.763 131.093 597.523 131.278 597.239C131.468 596.951 131.598 596.621 131.67 596.25L133.443 596.256C133.348 596.828 133.165 597.354 132.892 597.835C132.623 598.312 132.277 598.725 131.852 599.074C131.432 599.419 130.951 599.686 130.409 599.875C129.867 600.064 129.277 600.159 128.636 600.159C127.629 600.159 126.731 599.92 125.943 599.443C125.155 598.962 124.534 598.275 124.08 597.381C123.629 596.487 123.403 595.42 123.403 594.182C123.403 592.939 123.631 591.873 124.085 590.983C124.54 590.089 125.161 589.403 125.949 588.926C126.737 588.445 127.633 588.205 128.636 588.205C129.254 588.205 129.83 588.294 130.364 588.472C130.902 588.646 131.384 588.903 131.812 589.244C132.241 589.581 132.595 589.994 132.875 590.483C133.155 590.968 133.345 591.523 133.443 592.148ZM139.084 600.176C138.266 600.176 137.552 599.989 136.942 599.614C136.332 599.239 135.858 598.714 135.521 598.04C135.184 597.366 135.016 596.578 135.016 595.676C135.016 594.771 135.184 593.979 135.521 593.301C135.858 592.623 136.332 592.097 136.942 591.722C137.552 591.347 138.266 591.159 139.084 591.159C139.902 591.159 140.616 591.347 141.226 591.722C141.836 592.097 142.309 592.623 142.646 593.301C142.983 593.979 143.152 594.771 143.152 595.676C143.152 596.578 142.983 597.366 142.646 598.04C142.309 598.714 141.836 599.239 141.226 599.614C140.616 599.989 139.902 600.176 139.084 600.176ZM139.089 598.75C139.62 598.75 140.059 598.61 140.408 598.33C140.756 598.049 141.014 597.676 141.18 597.21C141.351 596.744 141.436 596.231 141.436 595.67C141.436 595.114 141.351 594.602 141.18 594.136C141.014 593.667 140.756 593.29 140.408 593.006C140.059 592.722 139.62 592.58 139.089 592.58C138.555 592.58 138.112 592.722 137.76 593.006C137.411 593.29 137.152 593.667 136.982 594.136C136.815 594.602 136.732 595.114 136.732 595.67C136.732 596.231 136.815 596.744 136.982 597.21C137.152 597.676 137.411 598.049 137.76 598.33C138.112 598.61 138.555 598.75 139.089 598.75ZM146.747 594.818V600H145.048V591.273H146.679V592.693H146.787C146.988 592.231 147.302 591.86 147.73 591.58C148.162 591.299 148.705 591.159 149.361 591.159C149.955 591.159 150.476 591.284 150.923 591.534C151.37 591.78 151.717 592.148 151.963 592.636C152.209 593.125 152.332 593.729 152.332 594.449V600H150.634V594.653C150.634 594.021 150.469 593.527 150.139 593.17C149.81 592.811 149.357 592.631 148.781 592.631C148.387 592.631 148.037 592.716 147.73 592.886C147.427 593.057 147.187 593.307 147.009 593.636C146.834 593.962 146.747 594.356 146.747 594.818ZM158.685 591.273V592.636H153.918V591.273H158.685ZM155.196 589.182H156.895V597.438C156.895 597.767 156.944 598.015 157.043 598.182C157.141 598.345 157.268 598.456 157.423 598.517C157.582 598.574 157.755 598.602 157.94 598.602C158.077 598.602 158.196 598.593 158.298 598.574C158.401 598.555 158.48 598.54 158.537 598.528L158.844 599.932C158.745 599.97 158.605 600.008 158.423 600.045C158.241 600.087 158.014 600.11 157.741 600.114C157.295 600.121 156.878 600.042 156.491 599.875C156.105 599.708 155.793 599.451 155.554 599.102C155.315 598.754 155.196 598.316 155.196 597.79V589.182ZM160.564 600V591.273H162.263V600H160.564ZM161.422 589.926C161.126 589.926 160.873 589.828 160.661 589.631C160.452 589.43 160.348 589.191 160.348 588.915C160.348 588.634 160.452 588.396 160.661 588.199C160.873 587.998 161.126 587.898 161.422 587.898C161.717 587.898 161.969 587.998 162.178 588.199C162.39 588.396 162.496 588.634 162.496 588.915C162.496 589.191 162.39 589.43 162.178 589.631C161.969 589.828 161.717 589.926 161.422 589.926ZM166.247 594.818V600H164.548V591.273H166.179V592.693H166.287C166.488 592.231 166.802 591.86 167.23 591.58C167.662 591.299 168.205 591.159 168.861 591.159C169.455 591.159 169.976 591.284 170.423 591.534C170.87 591.78 171.217 592.148 171.463 592.636C171.709 593.125 171.832 593.729 171.832 594.449V600H170.134V594.653C170.134 594.021 169.969 593.527 169.639 593.17C169.31 592.811 168.857 592.631 168.281 592.631C167.887 592.631 167.537 592.716 167.23 592.886C166.927 593.057 166.687 593.307 166.509 593.636C166.334 593.962 166.247 594.356 166.247 594.818ZM179.639 596.381V591.273H181.344V600H179.673V598.489H179.582C179.382 598.955 179.06 599.343 178.616 599.653C178.177 599.96 177.63 600.114 176.974 600.114C176.414 600.114 175.918 599.991 175.486 599.744C175.058 599.494 174.721 599.125 174.474 598.636C174.232 598.148 174.111 597.544 174.111 596.824V591.273H175.81V596.619C175.81 597.214 175.974 597.687 176.304 598.04C176.634 598.392 177.062 598.568 177.588 598.568C177.906 598.568 178.223 598.489 178.537 598.33C178.855 598.17 179.118 597.93 179.327 597.608C179.539 597.286 179.643 596.877 179.639 596.381ZM187.388 600.176C186.528 600.176 185.787 599.992 185.166 599.625C184.549 599.254 184.071 598.733 183.734 598.062C183.401 597.388 183.234 596.598 183.234 595.693C183.234 594.799 183.401 594.011 183.734 593.33C184.071 592.648 184.541 592.116 185.143 591.733C185.75 591.35 186.458 591.159 187.268 591.159C187.761 591.159 188.238 591.241 188.7 591.403C189.162 591.566 189.577 591.822 189.945 592.17C190.312 592.519 190.602 592.972 190.814 593.528C191.026 594.081 191.132 594.754 191.132 595.545V596.148H184.195V594.875H189.467C189.467 594.428 189.376 594.032 189.195 593.688C189.013 593.339 188.757 593.064 188.428 592.864C188.102 592.663 187.719 592.562 187.28 592.562C186.803 592.562 186.386 592.68 186.03 592.915C185.678 593.146 185.405 593.449 185.212 593.824C185.022 594.195 184.928 594.598 184.928 595.034V596.028C184.928 596.612 185.03 597.108 185.234 597.517C185.443 597.926 185.732 598.239 186.104 598.455C186.475 598.667 186.909 598.773 187.405 598.773C187.727 598.773 188.02 598.727 188.286 598.636C188.551 598.542 188.78 598.402 188.973 598.216C189.166 598.03 189.314 597.801 189.416 597.528L191.024 597.818C190.895 598.292 190.664 598.706 190.331 599.062C190.001 599.415 189.587 599.689 189.087 599.886C188.59 600.08 188.024 600.176 187.388 600.176ZM203.734 591.42C203.674 590.883 203.424 590.466 202.984 590.17C202.545 589.871 201.992 589.722 201.325 589.722C200.848 589.722 200.435 589.797 200.087 589.949C199.738 590.097 199.467 590.301 199.274 590.562C199.085 590.82 198.99 591.114 198.99 591.443C198.99 591.72 199.054 591.958 199.183 592.159C199.316 592.36 199.488 592.528 199.7 592.665C199.916 592.797 200.147 592.909 200.393 593C200.64 593.087 200.876 593.159 201.104 593.216L202.24 593.511C202.611 593.602 202.992 593.725 203.382 593.881C203.772 594.036 204.134 594.241 204.467 594.494C204.801 594.748 205.07 595.062 205.274 595.438C205.482 595.812 205.587 596.261 205.587 596.784C205.587 597.443 205.416 598.028 205.075 598.54C204.738 599.051 204.248 599.455 203.604 599.75C202.964 600.045 202.189 600.193 201.28 600.193C200.409 600.193 199.655 600.055 199.018 599.778C198.382 599.502 197.884 599.11 197.524 598.602C197.164 598.091 196.965 597.485 196.928 596.784H198.689C198.723 597.205 198.859 597.555 199.098 597.835C199.34 598.112 199.649 598.318 200.024 598.455C200.403 598.587 200.818 598.653 201.268 598.653C201.765 598.653 202.206 598.576 202.592 598.42C202.982 598.261 203.289 598.042 203.513 597.761C203.736 597.477 203.848 597.146 203.848 596.767C203.848 596.422 203.75 596.14 203.553 595.92C203.359 595.701 203.096 595.519 202.763 595.375C202.433 595.231 202.06 595.104 201.643 594.994L200.268 594.619C199.337 594.366 198.598 593.992 198.053 593.5C197.511 593.008 197.24 592.356 197.24 591.545C197.24 590.875 197.422 590.29 197.786 589.79C198.149 589.29 198.642 588.902 199.263 588.625C199.884 588.345 200.585 588.205 201.365 588.205C202.153 588.205 202.848 588.343 203.45 588.619C204.056 588.896 204.534 589.277 204.882 589.761C205.231 590.242 205.412 590.795 205.428 591.42H203.734ZM209.247 594.818V600H207.548V588.364H209.224V592.693H209.332C209.537 592.223 209.849 591.85 210.27 591.574C210.69 591.297 211.24 591.159 211.918 591.159C212.516 591.159 213.039 591.282 213.486 591.528C213.937 591.775 214.285 592.142 214.531 592.631C214.781 593.116 214.906 593.722 214.906 594.449V600H213.207V594.653C213.207 594.013 213.043 593.517 212.713 593.165C212.384 592.809 211.925 592.631 211.338 592.631C210.937 592.631 210.577 592.716 210.259 592.886C209.944 593.057 209.696 593.307 209.514 593.636C209.336 593.962 209.247 594.356 209.247 594.818ZM220.849 600.176C220.031 600.176 219.317 599.989 218.707 599.614C218.098 599.239 217.624 598.714 217.287 598.04C216.95 597.366 216.781 596.578 216.781 595.676C216.781 594.771 216.95 593.979 217.287 593.301C217.624 592.623 218.098 592.097 218.707 591.722C219.317 591.347 220.031 591.159 220.849 591.159C221.668 591.159 222.382 591.347 222.991 591.722C223.601 592.097 224.075 592.623 224.412 593.301C224.749 593.979 224.918 594.771 224.918 595.676C224.918 596.578 224.749 597.366 224.412 598.04C224.075 598.714 223.601 599.239 222.991 599.614C222.382 599.989 221.668 600.176 220.849 600.176ZM220.855 598.75C221.385 598.75 221.825 598.61 222.173 598.33C222.522 598.049 222.779 597.676 222.946 597.21C223.116 596.744 223.202 596.231 223.202 595.67C223.202 595.114 223.116 594.602 222.946 594.136C222.779 593.667 222.522 593.29 222.173 593.006C221.825 592.722 221.385 592.58 220.855 592.58C220.321 592.58 219.878 592.722 219.526 593.006C219.177 593.29 218.918 593.667 218.747 594.136C218.58 594.602 218.497 595.114 218.497 595.67C218.497 596.231 218.58 596.744 218.747 597.21C218.918 597.676 219.177 598.049 219.526 598.33C219.878 598.61 220.321 598.75 220.855 598.75ZM226.814 603.273V591.273H228.473V592.688H228.615C228.714 592.506 228.856 592.295 229.041 592.057C229.227 591.818 229.484 591.61 229.814 591.432C230.143 591.25 230.579 591.159 231.121 591.159C231.825 591.159 232.454 591.337 233.007 591.693C233.56 592.049 233.994 592.562 234.308 593.233C234.626 593.903 234.786 594.71 234.786 595.653C234.786 596.597 234.628 597.405 234.314 598.08C234 598.75 233.568 599.267 233.018 599.631C232.469 599.991 231.842 600.17 231.138 600.17C230.607 600.17 230.174 600.081 229.837 599.903C229.503 599.725 229.242 599.517 229.053 599.278C228.863 599.04 228.717 598.828 228.615 598.642H228.513V603.273H226.814ZM228.479 595.636C228.479 596.25 228.568 596.788 228.746 597.25C228.924 597.712 229.181 598.074 229.518 598.335C229.856 598.593 230.268 598.722 230.757 598.722C231.265 598.722 231.689 598.587 232.03 598.318C232.371 598.045 232.628 597.676 232.803 597.21C232.981 596.744 233.07 596.22 233.07 595.636C233.07 595.061 232.982 594.544 232.808 594.085C232.638 593.627 232.38 593.265 232.036 593C231.695 592.735 231.268 592.602 230.757 592.602C230.265 592.602 229.848 592.729 229.507 592.983C229.17 593.237 228.914 593.591 228.74 594.045C228.566 594.5 228.479 595.03 228.479 595.636ZM236.689 603.273V591.273H238.348V592.688H238.49C238.589 592.506 238.731 592.295 238.916 592.057C239.102 591.818 239.359 591.61 239.689 591.432C240.018 591.25 240.454 591.159 240.996 591.159C241.7 591.159 242.329 591.337 242.882 591.693C243.435 592.049 243.869 592.562 244.183 593.233C244.501 593.903 244.661 594.71 244.661 595.653C244.661 596.597 244.503 597.405 244.189 598.08C243.875 598.75 243.443 599.267 242.893 599.631C242.344 599.991 241.717 600.17 241.013 600.17C240.482 600.17 240.049 600.081 239.712 599.903C239.378 599.725 239.117 599.517 238.928 599.278C238.738 599.04 238.592 598.828 238.49 598.642H238.388V603.273H236.689ZM238.354 595.636C238.354 596.25 238.443 596.788 238.621 597.25C238.799 597.712 239.056 598.074 239.393 598.335C239.731 598.593 240.143 598.722 240.632 598.722C241.14 598.722 241.564 598.587 241.905 598.318C242.246 598.045 242.503 597.676 242.678 597.21C242.856 596.744 242.945 596.22 242.945 595.636C242.945 595.061 242.857 594.544 242.683 594.085C242.513 593.627 242.255 593.265 241.911 593C241.57 592.735 241.143 592.602 240.632 592.602C240.14 592.602 239.723 592.729 239.382 592.983C239.045 593.237 238.789 593.591 238.615 594.045C238.441 594.5 238.354 595.03 238.354 595.636ZM246.564 600V591.273H248.263V600H246.564ZM247.422 589.926C247.126 589.926 246.873 589.828 246.661 589.631C246.452 589.43 246.348 589.191 246.348 588.915C246.348 588.634 246.452 588.396 246.661 588.199C246.873 587.998 247.126 587.898 247.422 587.898C247.717 587.898 247.969 587.998 248.178 588.199C248.39 588.396 248.496 588.634 248.496 588.915C248.496 589.191 248.39 589.43 248.178 589.631C247.969 589.828 247.717 589.926 247.422 589.926ZM252.247 594.818V600H250.548V591.273H252.179V592.693H252.287C252.488 592.231 252.802 591.86 253.23 591.58C253.662 591.299 254.205 591.159 254.861 591.159C255.455 591.159 255.976 591.284 256.423 591.534C256.87 591.78 257.217 592.148 257.463 592.636C257.709 593.125 257.832 593.729 257.832 594.449V600H256.134V594.653C256.134 594.021 255.969 593.527 255.639 593.17C255.31 592.811 254.857 592.631 254.281 592.631C253.887 592.631 253.537 592.716 253.23 592.886C252.927 593.057 252.687 593.307 252.509 593.636C252.334 593.962 252.247 594.356 252.247 594.818ZM263.77 603.455C263.077 603.455 262.48 603.364 261.98 603.182C261.484 603 261.079 602.759 260.764 602.46C260.45 602.161 260.215 601.833 260.06 601.477L261.52 600.875C261.622 601.042 261.759 601.218 261.929 601.403C262.103 601.593 262.338 601.754 262.634 601.886C262.933 602.019 263.317 602.085 263.787 602.085C264.431 602.085 264.963 601.928 265.384 601.614C265.804 601.303 266.014 600.807 266.014 600.125V598.409H265.906C265.804 598.595 265.656 598.801 265.463 599.028C265.274 599.256 265.012 599.453 264.679 599.619C264.346 599.786 263.912 599.869 263.378 599.869C262.688 599.869 262.067 599.708 261.514 599.386C260.965 599.061 260.529 598.581 260.207 597.949C259.889 597.312 259.73 596.53 259.73 595.602C259.73 594.674 259.887 593.879 260.202 593.216C260.52 592.553 260.955 592.045 261.509 591.693C262.062 591.337 262.688 591.159 263.389 591.159C263.931 591.159 264.368 591.25 264.702 591.432C265.035 591.61 265.295 591.818 265.48 592.057C265.67 592.295 265.815 592.506 265.918 592.688H266.043V591.273H267.707V600.193C267.707 600.943 267.533 601.559 267.185 602.04C266.836 602.521 266.365 602.877 265.77 603.108C265.179 603.339 264.512 603.455 263.77 603.455ZM263.753 598.46C264.241 598.46 264.654 598.347 264.991 598.119C265.332 597.888 265.59 597.559 265.764 597.131C265.942 596.699 266.031 596.182 266.031 595.58C266.031 594.992 265.944 594.475 265.77 594.028C265.596 593.581 265.34 593.233 265.003 592.983C264.666 592.729 264.249 592.602 263.753 592.602C263.241 592.602 262.815 592.735 262.474 593C262.134 593.261 261.876 593.617 261.702 594.068C261.531 594.519 261.446 595.023 261.446 595.58C261.446 596.152 261.533 596.653 261.707 597.085C261.882 597.517 262.139 597.854 262.48 598.097C262.825 598.339 263.249 598.46 263.753 598.46Z" fill="#E6E6E6"/>
<path d="M38.5 60H26M26 60L32 54M26 60L32 66" stroke="#E6E6E6" stroke-width="1.5" stroke-linecap="round" stroke-linejoin="round"/>
<path d="M64.256 54.8C64.3627 54.8 64.416 54.8533 64.416 54.96V55.648C64.416 55.7547 64.3627 55.808 64.256 55.808H61.12C61.0773 55.808 61.056 55.8293 61.056 55.872V65.84C61.056 65.9467 61.0027 66 60.896 66H60.08C59.9733 66 59.92 65.9467 59.92 65.84V55.872C59.92 55.8293 59.8987 55.808 59.856 55.808H56.848C56.7413 55.808 56.688 55.7547 56.688 55.648V54.96C56.688 54.8533 56.7413 54.8 56.848 54.8H64.256ZM69.7494 57.792C70.6027 57.792 71.28 58.0427 71.7814 58.544C72.2934 59.0453 72.5494 59.7173 72.5494 60.56V65.84C72.5494 65.9467 72.496 66 72.3894 66H71.5734C71.4667 66 71.4134 65.9467 71.4134 65.84V60.784C71.4134 60.1973 71.232 59.7173 70.8694 59.344C70.5174 58.9707 70.0587 58.784 69.4934 58.784C68.9067 58.784 68.432 58.9653 68.0694 59.328C67.7067 59.6907 67.5254 60.1653 67.5254 60.752V65.84C67.5254 65.9467 67.472 66 67.3654 66H66.5494C66.4427 66 66.3894 65.9467 66.3894 65.84V54.96C66.3894 54.8533 66.4427 54.8 66.5494 54.8H67.3654C67.472 54.8 67.5254 54.8533 67.5254 54.96V58.752C67.5254 58.7733 67.5307 58.7893 67.5414 58.8C67.5627 58.8107 67.5787 58.8053 67.5894 58.784C68.0587 58.1227 68.7787 57.792 69.7494 57.792ZM77.8144 57.776C78.7744 57.776 79.5157 58.0213 80.0384 58.512C80.561 59.0027 80.8224 59.6533 80.8224 60.464V65.84C80.8224 65.9467 80.769 66 80.6624 66H79.8464C79.7397 66 79.6864 65.9467 79.6864 65.84V65.184C79.6864 65.1627 79.6757 65.1467 79.6544 65.136C79.6437 65.1253 79.6277 65.1307 79.6064 65.152C79.3397 65.472 78.993 65.7173 78.5664 65.888C78.1397 66.048 77.665 66.128 77.1424 66.128C76.385 66.128 75.7504 65.936 75.2384 65.552C74.7264 65.168 74.4704 64.5813 74.4704 63.792C74.4704 62.992 74.7584 62.3627 75.3344 61.904C75.921 61.4347 76.7317 61.2 77.7664 61.2H79.6224C79.665 61.2 79.6864 61.1787 79.6864 61.136V60.528C79.6864 59.984 79.5317 59.5573 79.2224 59.248C78.9237 58.928 78.4544 58.768 77.8144 58.768C77.3024 58.768 76.8864 58.8693 76.5664 59.072C76.2464 59.264 76.049 59.536 75.9744 59.888C75.9424 59.9947 75.8784 60.0427 75.7824 60.032L74.9184 59.92C74.801 59.8987 74.753 59.856 74.7744 59.792C74.8597 59.1947 75.1797 58.7093 75.7344 58.336C76.289 57.9627 76.9824 57.776 77.8144 57.776ZM77.3664 65.152C77.9957 65.152 78.5397 64.9973 78.9984 64.688C79.457 64.368 79.6864 63.9413 79.6864 63.408V62.16C79.6864 62.1173 79.665 62.096 79.6224 62.096H77.9424C77.2384 62.096 76.673 62.24 76.2464 62.528C75.8197 62.816 75.6064 63.216 75.6064 63.728C75.6064 64.1973 75.7664 64.5547 76.0864 64.8C76.417 65.0347 76.8437 65.152 77.3664 65.152ZM86.5463 57.792C87.3996 57.792 88.0769 58.0427 88.5783 58.544C89.0903 59.0453 89.3463 59.7173 89.3463 60.56V65.84C89.3463 65.9467 89.2929 66 89.1863 66H88.3703C88.2636 66 88.2103 65.9467 88.2103 65.84V60.784C88.2103 60.1973 88.0289 59.7173 87.6663 59.344C87.3143 58.9707 86.8556 58.784 86.2903 58.784C85.7036 58.784 85.2289 58.9653 84.8663 59.328C84.5036 59.6907 84.3223 60.1653 84.3223 60.752V65.84C84.3223 65.9467 84.2689 66 84.1623 66H83.3463C83.2396 66 83.1863 65.9467 83.1863 65.84V58.064C83.1863 57.9573 83.2396 57.904 83.3463 57.904H84.1623C84.2689 57.904 84.3223 57.9573 84.3223 58.064V58.752C84.3223 58.7733 84.3276 58.7893 84.3383 58.8C84.3596 58.8107 84.3756 58.8053 84.3863 58.784C84.8556 58.1227 85.5756 57.792 86.5463 57.792ZM91.9556 66C91.849 66 91.7956 65.9467 91.7956 65.84V54.96C91.7956 54.8533 91.849 54.8 91.9556 54.8H92.7716C92.8783 54.8 92.9316 54.8533 92.9316 54.96V61.504C92.9316 61.5253 92.937 61.5413 92.9476 61.552C92.969 61.5627 92.9903 61.5573 93.0116 61.536L96.4036 57.984C96.457 57.9307 96.521 57.904 96.5956 57.904H97.5556C97.6196 57.904 97.6623 57.9253 97.6836 57.968C97.705 58.0107 97.6943 58.0533 97.6516 58.096L95.6036 60.368C95.5823 60.3893 95.577 60.416 95.5876 60.448L98.0356 65.808L98.0516 65.872C98.0516 65.9573 98.0036 66 97.9076 66H97.0436C96.9583 66 96.8996 65.9573 96.8676 65.872L94.8036 61.2C94.7823 61.1573 94.7556 61.152 94.7236 61.184L92.9636 63.04C92.9423 63.0613 92.9316 63.088 92.9316 63.12V65.84C92.9316 65.9467 92.8783 66 92.7716 66H91.9556ZM102.646 69.2C102.572 69.2 102.534 69.1467 102.534 69.04V68.4C102.534 68.2933 102.588 68.24 102.694 68.24H102.758C103.174 68.2293 103.494 68.1653 103.718 68.048C103.953 67.9413 104.15 67.7333 104.31 67.424C104.481 67.1253 104.662 66.6667 104.854 66.048C104.876 66.0053 104.876 65.9733 104.854 65.952L102.15 58.08L102.134 58.016C102.134 57.9413 102.182 57.904 102.278 57.904H103.126C103.222 57.904 103.286 57.9467 103.318 58.032L105.398 64.496C105.409 64.5173 105.425 64.528 105.446 64.528C105.468 64.528 105.484 64.5173 105.494 64.496L107.542 58.032C107.574 57.9467 107.638 57.904 107.734 57.904H108.566C108.684 57.904 108.726 57.9627 108.694 58.08L105.734 66.704C105.478 67.4187 105.238 67.9467 105.014 68.288C104.79 68.6293 104.508 68.864 104.166 68.992C103.836 69.1307 103.366 69.2 102.758 69.2H102.646ZM113.212 66.128C112.444 66.128 111.782 65.9307 111.228 65.536C110.673 65.1413 110.289 64.5973 110.076 63.904C109.926 63.4133 109.852 62.7573 109.852 61.936C109.852 61.1147 109.926 60.464 110.076 59.984C110.278 59.3013 110.657 58.7627 111.212 58.368C111.766 57.9733 112.438 57.776 113.228 57.776C113.985 57.776 114.636 57.9733 115.18 58.368C115.734 58.7627 116.113 59.296 116.316 59.968C116.465 60.4267 116.54 61.0827 116.54 61.936C116.54 62.8 116.465 63.456 116.316 63.904C116.113 64.5973 115.734 65.1413 115.18 65.536C114.636 65.9307 113.98 66.128 113.212 66.128ZM113.212 65.136C113.724 65.136 114.161 64.9973 114.524 64.72C114.886 64.432 115.132 64.048 115.26 63.568C115.356 63.184 115.404 62.6453 115.404 61.952C115.404 61.248 115.361 60.7093 115.276 60.336C115.148 59.856 114.897 59.4773 114.524 59.2C114.161 58.912 113.718 58.768 113.196 58.768C112.673 58.768 112.23 58.912 111.868 59.2C111.505 59.4773 111.26 59.856 111.132 60.336C111.046 60.7093 111.004 61.248 111.004 61.952C111.004 62.656 111.046 63.1947 111.132 63.568C111.249 64.048 111.489 64.432 111.852 64.72C112.225 64.9973 112.678 65.136 113.212 65.136ZM123.739 58.064C123.739 57.9573 123.792 57.904 123.899 57.904H124.715C124.821 57.904 124.875 57.9573 124.875 58.064V65.84C124.875 65.9467 124.821 66 124.715 66H123.899C123.792 66 123.739 65.9467 123.739 65.84V65.152C123.739 65.1307 123.728 65.1147 123.707 65.104C123.685 65.0933 123.669 65.0987 123.659 65.12C123.211 65.7813 122.501 66.112 121.531 66.112C121.019 66.112 120.544 66.0107 120.107 65.808C119.68 65.5947 119.339 65.2907 119.083 64.896C118.837 64.5013 118.715 64.0267 118.715 63.472V58.064C118.715 57.9573 118.768 57.904 118.875 57.904H119.691C119.797 57.904 119.851 57.9573 119.851 58.064V63.136C119.851 63.744 120.021 64.2293 120.363 64.592C120.704 64.944 121.168 65.12 121.755 65.12C122.363 65.12 122.843 64.9387 123.195 64.576C123.557 64.2133 123.739 63.7333 123.739 63.136V58.064Z" fill="#E6E6E6"/>
<path d="M301 57.1763C301.003 58.5611 300.47 59.8934 299.511 60.8933C297.314 63.1712 295.183 65.5464 292.905 67.7406C292.382 68.2356 291.553 68.2176 291.054 67.7001L284.488 60.8942C282.504 58.8368 282.504 55.5157 284.488 53.4592C284.957 52.9669 285.522 52.575 286.147 52.3072C286.772 52.0394 287.444 51.9013 288.124 51.9013C288.804 51.9013 289.477 52.0394 290.102 52.3072C290.727 52.575 291.291 52.9669 291.76 53.4592L292 53.7058L292.238 53.4592C292.708 52.9681 293.273 52.5769 293.897 52.309C294.522 52.0411 295.195 51.9022 295.874 51.9004C297.242 51.9004 298.55 52.462 299.51 53.4592C300.469 54.459 301.003 55.7912 301 57.1763V57.1763Z" stroke="#E6E6E6" stroke-width="1.5" stroke-linejoin="round"/>
<path d="M334.75 66.3C335.108 66.3 335.451 66.4422 335.705 66.6954C335.958 66.9486 336.1 67.292 336.1 67.65C336.1 68.008 335.958 68.3514 335.705 68.6046C335.451 68.8578 335.108 69 334.75 69C334.392 69 334.049 68.8578 333.795 68.6046C333.542 68.3514 333.4 68.008 333.4 67.65C333.4 67.292 333.542 66.9486 333.795 66.6954C334.049 66.4422 334.392 66.3 334.75 66.3ZM334.75 66.3H321.907C320.301 66.3 319.45 65.5971 319.45 64.5C319.45 63.4029 320.301 62.7 321.907 62.7H335.2M321.7 52.8H337L335.2 62.7M321.7 52.8L323.5 62.7H335.2M321.7 52.8C321.55 52.1997 320.8 51 319 51M325.75 69C326.108 69 326.451 68.8578 326.705 68.6046C326.958 68.3514 327.1 68.008 327.1 67.65C327.1 67.292 326.958 66.9486 326.705 66.6954C326.451 66.4422 326.108 66.3 325.75 66.3C325.392 66.3 325.049 66.4422 324.795 66.6954C324.542 66.9486 324.4 67.292 324.4 67.65C324.4 68.008 324.542 68.3514 324.795 68.6046C325.049 68.8578 325.392 69 325.75 69Z" stroke="#E6E6E6" stroke-width="1.5" stroke-linecap="round" stroke-linejoin="round"/>
<path d="M30.2534 16.8422C30.2534 18.1881 29.9886 19.2175 29.459 19.9305C28.9294 20.6435 28.1541 21 27.1331 21C26.1247 21 25.3536 20.6502 24.8198 19.9505C24.286 19.2509 24.0127 18.2482 24 16.9425V15.1511C24 13.7919 24.2669 12.7602 24.8007 12.0561C25.3388 11.352 26.112 11 27.1204 11C28.1287 11 28.8998 11.3498 29.4336 12.0495C29.9674 12.7447 30.2407 13.7451 30.2534 15.0508V16.8422ZM28.4168 14.877C28.4168 14.0704 28.3109 13.4844 28.099 13.119C27.8914 12.7491 27.5652 12.5642 27.1204 12.5642C26.6882 12.5642 26.3683 12.7402 26.1607 13.0922C25.9574 13.4398 25.8493 13.9857 25.8366 14.7299V17.0963C25.8366 17.8895 25.9383 18.4799 26.1417 18.8676C26.3493 19.2509 26.6797 19.4425 27.1331 19.4425C27.5822 19.4425 27.9063 19.2576 28.1054 18.8877C28.3045 18.5178 28.4083 17.9519 28.4168 17.1898V14.877Z" fill="white" fill-opacity="0.8"/>
<path d="M37.53 13.7206C37.53 14.193 37.4177 14.6119 37.1932 14.9773C36.9686 15.3427 36.6594 15.6346 36.2654 15.8529C36.7144 16.0802 37.0703 16.3944 37.333 16.7955C37.5957 17.1921 37.727 17.66 37.727 18.1992C37.727 19.0637 37.4474 19.7478 36.8882 20.2513C36.3289 20.7504 35.5684 21 34.6067 21C33.6449 21 32.8823 20.7482 32.3188 20.2447C31.7553 19.7411 31.4736 19.0593 31.4736 18.1992C31.4736 17.66 31.6049 17.1898 31.8676 16.7888C32.1303 16.3877 32.4841 16.0758 32.9289 15.8529C32.5349 15.6346 32.2256 15.3427 32.0011 14.9773C31.7808 14.6119 31.6706 14.193 31.6706 13.7206C31.6706 12.8917 31.9333 12.2322 32.4586 11.742C32.984 11.2473 33.6979 11 34.6003 11C35.4985 11 36.2103 11.2451 36.7356 11.7353C37.2652 12.221 37.53 12.8828 37.53 13.7206ZM35.884 18.0588C35.884 17.6355 35.7675 17.2968 35.5345 17.0428C35.3015 16.7888 34.988 16.6618 34.594 16.6618C34.2042 16.6618 33.8928 16.7888 33.6598 17.0428C33.4267 17.2923 33.3102 17.631 33.3102 18.0588C33.3102 18.4733 33.4246 18.8075 33.6534 19.0615C33.8822 19.3155 34.1999 19.4425 34.6067 19.4425C35.0049 19.4425 35.3163 19.32 35.5409 19.0749C35.7697 18.8298 35.884 18.4911 35.884 18.0588ZM35.6934 13.8142C35.6934 13.4354 35.5981 13.1324 35.4074 12.9051C35.2168 12.6734 34.9477 12.5575 34.6003 12.5575C34.2571 12.5575 33.9902 12.6689 33.7996 12.8917C33.6089 13.1145 33.5136 13.422 33.5136 13.8142C33.5136 14.2019 33.6089 14.5138 33.7996 14.75C33.9902 14.9862 34.2593 15.1043 34.6067 15.1043C34.9541 15.1043 35.221 14.9862 35.4074 14.75C35.5981 14.5138 35.6934 14.2019 35.6934 13.8142Z" fill="white" fill-opacity="0.8"/>
<path d="M39.1379 19.9171C39.1379 19.6096 39.2353 19.3601 39.4302 19.1684C39.6293 18.9768 39.8772 18.881 40.1737 18.881C40.4745 18.881 40.7224 18.9768 40.9173 19.1684C41.1164 19.3601 41.216 19.6096 41.216 19.9171C41.216 20.2201 41.1185 20.4675 40.9236 20.6591C40.7288 20.8463 40.4788 20.9398 40.1737 20.9398C39.8729 20.9398 39.6251 20.8463 39.4302 20.6591C39.2353 20.4675 39.1379 20.2201 39.1379 19.9171ZM39.1379 14.4425C39.1379 14.135 39.2353 13.8855 39.4302 13.6939C39.6293 13.5022 39.8772 13.4064 40.1737 13.4064C40.4745 13.4064 40.7224 13.5022 40.9173 13.6939C41.1164 13.8855 41.216 14.135 41.216 14.4425C41.216 14.7455 41.1185 14.9929 40.9236 15.1845C40.7288 15.3717 40.4788 15.4652 40.1737 15.4652C39.8729 15.4652 39.6251 15.3717 39.4302 15.1845C39.2353 14.9929 39.1379 14.7455 39.1379 14.4425Z" fill="white" fill-opacity="0.8"/>
<path d="M48.8739 16.8422C48.8739 18.1881 48.6091 19.2175 48.0795 19.9305C47.5499 20.6435 46.7746 21 45.7535 21C44.7452 21 43.9741 20.6502 43.4403 19.9505C42.9064 19.2509 42.6332 18.2482 42.6205 16.9425V15.1511C42.6205 13.7919 42.8874 12.7602 43.4212 12.0561C43.9593 11.352 44.7325 11 45.7408 11C46.7492 11 47.5202 11.3498 48.0541 12.0495C48.5879 12.7447 48.8612 13.7451 48.8739 15.0508V16.8422ZM47.0373 14.877C47.0373 14.0704 46.9313 13.4844 46.7195 13.119C46.5119 12.7491 46.1857 12.5642 45.7408 12.5642C45.3087 12.5642 44.9888 12.7402 44.7812 13.0922C44.5778 13.4398 44.4698 13.9857 44.4571 14.7299V17.0963C44.4571 17.8895 44.5588 18.4799 44.7621 18.8676C44.9697 19.2509 45.3002 19.4425 45.7535 19.4425C46.2026 19.4425 46.5267 19.2576 46.7259 18.8877C46.925 18.5178 47.0288 17.9519 47.0373 17.1898V14.877Z" fill="white" fill-opacity="0.8"/>
<path d="M55.1019 11.0334V12.6243H54.9239C54.0935 12.6377 53.4241 12.865 52.9157 13.3061C52.4116 13.7473 52.1086 14.3601 52.0069 15.1444C52.4984 14.6185 53.1191 14.3556 53.869 14.3556C54.674 14.3556 55.3137 14.6586 55.7882 15.2647C56.2627 15.8708 56.5 16.6684 56.5 17.6578C56.5 18.2906 56.3687 18.8632 56.106 19.3757C55.8475 19.8881 55.4789 20.287 55.0002 20.5722C54.5257 20.8574 53.9876 21 53.386 21C52.4116 21 51.6235 20.6435 51.0219 19.9305C50.4245 19.2175 50.1258 18.266 50.1258 17.0762V16.381C50.1258 15.3249 50.3144 14.3935 50.6914 13.5869C51.0727 12.7758 51.6172 12.1497 52.3247 11.7086C53.0365 11.2629 53.8605 11.0379 54.7968 11.0334H55.1019ZM53.3097 15.9064C53.0132 15.9064 52.7441 15.9889 52.5026 16.1537C52.2611 16.3142 52.0832 16.5281 51.9688 16.7955V17.3837C51.9688 18.0299 52.0896 18.5357 52.3311 18.9011C52.5725 19.262 52.9115 19.4425 53.3479 19.4425C53.7419 19.4425 54.0596 19.2799 54.3011 18.9545C54.5469 18.6248 54.6697 18.1992 54.6697 17.6778C54.6697 17.1475 54.5469 16.7197 54.3011 16.3944C54.0554 16.0691 53.7249 15.9064 53.3097 15.9064Z" fill="white" fill-opacity="0.8"/>
<path d="M279.728 13.4795H280.258V14.0508H279.728V15H279.016V14.0508H277.173L277.152 13.6172L278.992 10.7344H279.728V13.4795ZM277.899 13.4795H279.016V11.6982L278.963 11.792L277.899 13.4795Z" fill="white" fill-opacity="0.8"/>
<path d="M284.113 14.4463C283.959 14.6475 283.745 14.7998 283.472 14.9033C283.198 15.0068 282.888 15.0586 282.54 15.0586C282.183 15.0586 281.866 14.9775 281.591 14.8154C281.315 14.6533 281.103 14.4219 280.952 14.1211C280.804 13.8184 280.727 13.4658 280.721 13.0635V12.7295C280.721 12.085 280.875 11.582 281.184 11.2207C281.492 10.8574 281.923 10.6758 282.476 10.6758C282.95 10.6758 283.327 10.793 283.606 11.0273C283.886 11.2617 284.054 11.5996 284.11 12.041H283.384C283.302 11.5273 283.004 11.2705 282.49 11.2705C282.158 11.2705 281.905 11.3906 281.731 11.6309C281.56 11.8691 281.471 12.2197 281.465 12.6826V13.0107C281.465 13.4717 281.562 13.8301 281.755 14.0859C281.95 14.3398 282.221 14.4668 282.566 14.4668C282.945 14.4668 283.215 14.3809 283.375 14.209V13.374H282.496V12.8115H284.113V14.4463Z" fill="white" fill-opacity="0.8"/>
<path d="M277 19.5C277 19.2239 277.224 19 277.5 19H279C279.276 19 279.5 19.2239 279.5 19.5V21.5C279.5 21.7761 279.276 22 279 22H277.5C277.224 22 277 21.7761 277 21.5V19.5Z" fill="white" fill-opacity="0.8"/>
<path d="M281 17.5C281 17.2239 281.224 17 281.5 17H283C283.276 17 283.5 17.2239 283.5 17.5V21.5C283.5 21.7761 283.276 22 283 22H281.5C281.224 22 281 21.7761 281 21.5V17.5Z" fill="white" fill-opacity="0.8"/>
<path d="M285 13.5C285 13.2239 285.224 13 285.5 13H287C287.276 13 287.5 13.2239 287.5 13.5V21.5C287.5 21.7761 287.276 22 287 22H285.5C285.224 22 285 21.7761 285 21.5V13.5Z" fill="white" fill-opacity="0.8"/>
<path d="M289 10.5C289 10.2239 289.224 10 289.5 10H291C291.276 10 291.5 10.2239 291.5 10.5V21.5C291.5 21.7761 291.276 22 291 22H289.5C289.224 22 289 21.7761 289 21.5V10.5Z" fill="white" fill-opacity="0.8"/>
<path d="M296.5 19.5C296.5 19.2239 296.724 19 297 19H298.5C298.776 19 299 19.2239 299 19.5V21.5C299 21.7761 298.776 22 298.5 22H297C296.724 22 296.5 21.7761 296.5 21.5V19.5Z" fill="white" fill-opacity="0.8"/>
<path d="M300.5 17.5C300.5 17.2239 300.724 17 301 17H302.5C302.776 17 303 17.2239 303 17.5V21.5C303 21.7761 302.776 22 302.5 22H301C300.724 22 300.5 21.7761 300.5 21.5V17.5Z" fill="white" fill-opacity="0.8"/>
<path d="M304.5 13.5C304.5 13.2239 304.724 13 305 13H306.5C306.776 13 307 13.2239 307 13.5V21.5C307 21.7761 306.776 22 306.5 22H305C304.724 22 304.5 21.7761 304.5 21.5V13.5Z" fill="white" fill-opacity="0.8"/>
<path d="M308.5 10.5C308.5 10.2239 308.724 10 309 10H310.5C310.776 10 311 10.2239 311 10.5V21.5C311 21.7761 310.776 22 310.5 22H309C308.724 22 308.5 21.7761 308.5 21.5V10.5Z" fill="white" fill-opacity="0.8"/>
<path fill-rule="evenodd" clip-rule="evenodd" d="M334.947 20.404V18.4C334.947 18.4 336 18.4 336 17.2V14.8C336 13.6 334.947 13.6 334.947 13.6V11.596C334.947 10.72 334.316 10 333.547 10H317.411C316.632 10 316 10.72 316 11.596V20.392C316 21.28 316.632 22 317.4 22H333.547C334.316 22 334.947 21.28 334.947 20.404ZM326 20.1053H324V18H326V20.1053ZM324 17.2632H326V12H324V17.2632Z" fill="white" fill-opacity="0.8"/>
<path d="M256.849 20.9243H259.283V22H255.45V16.1992H256.849V20.9243Z" fill="white" fill-opacity="0.8"/>
<path d="M263.606 17.2789H261.865V22H260.466V17.2789H258.757V16.1992H263.606V17.2789Z" fill="white" fill-opacity="0.8"/>
<path d="M267.797 19.5418H265.598V20.9243H268.195V22H264.199V16.1992H268.203V17.2789H265.598V18.502H267.797V19.5418Z" fill="white" fill-opacity="0.8"/>
<path d="M257.701 14.3028L258.857 10.0797H260.418L258.466 15.8805H256.936L255 10.0797H256.55L257.701 14.3028Z" fill="white" fill-opacity="0.8"/>
<path d="M265.701 13.0996C265.701 13.6653 265.596 14.166 265.386 14.6016C265.177 15.0372 264.878 15.3732 264.49 15.6096C264.105 15.8433 263.665 15.9602 263.171 15.9602C262.677 15.9602 262.239 15.8473 261.857 15.6215C261.474 15.3931 261.175 15.0677 260.96 14.6454C260.748 14.2231 260.636 13.7384 260.625 13.1912V12.8645C260.625 12.2961 260.729 11.7955 260.936 11.3625C261.146 10.927 261.445 10.591 261.833 10.3546C262.223 10.1182 262.667 10 263.163 10C263.655 10 264.093 10.1169 264.478 10.3506C264.863 10.5843 265.162 10.9177 265.375 11.3506C265.59 11.7809 265.699 12.2749 265.701 12.8327V13.0996ZM264.279 12.8566C264.279 12.2802 264.182 11.8433 263.988 11.5458C263.797 11.2457 263.522 11.0956 263.163 11.0956C262.462 11.0956 262.092 11.6215 262.052 12.6733L262.048 13.0996C262.048 13.668 262.142 14.1049 262.331 14.4104C262.519 14.7158 262.799 14.8685 263.171 14.8685C263.525 14.8685 263.797 14.7185 263.988 14.4183C264.179 14.1182 264.276 13.6866 264.279 13.1235V12.8566Z" fill="white" fill-opacity="0.8"/>
<path d="M247.148 10L249.881 12.3168L249.109 13.2079L246.376 10.8911L247.148 10Z" fill="white" fill-opacity="0.8"/>
<path d="M240.733 10.0594L241.505 10.9505L238.772 13.2079L238 12.3168L240.733 10.0594Z" fill="white" fill-opacity="0.8"/>
<path d="M244.238 13.6832H243.347V17.2475L246.139 18.9703L246.614 18.2574L244.238 16.8317V13.6832Z" fill="white" fill-opacity="0.8"/>
<path fill-rule="evenodd" clip-rule="evenodd" d="M243.941 11.3069C240.97 11.3069 238.594 13.6832 238.594 16.6535C238.594 19.6238 240.97 22 243.941 22C246.911 22 249.287 19.6238 249.287 16.6535C249.287 13.6832 246.911 11.3069 243.941 11.3069ZM243.941 20.8119C241.624 20.8119 239.782 18.9703 239.782 16.6535C239.782 14.3366 241.624 12.4951 243.941 12.4951C246.257 12.4951 248.099 14.3366 248.099 16.6535C248.099 18.9703 246.257 20.8119 243.941 20.8119Z" fill="white" fill-opacity="0.8"/>
<path fill-rule="evenodd" clip-rule="evenodd" d="M230.611 15.2308C230.611 13.3415 229.624 11.76 227.903 11.3415V10.9231C227.903 10.4123 227.499 10 227 10C226.5 10 226.097 10.4123 226.097 10.9231V11.3415C224.37 11.76 223.389 13.3354 223.389 15.2308V18.3077L222.186 19.5385V20.1538H231.814V19.5385L230.611 18.3077V15.2308ZM223.479 10.0923L224.34 10.9723C223.112 11.8646 222.294 13.2923 222.204 14.9231H221C221.084 12.9538 222.035 11.2185 223.479 10.0923ZM233 14.9231H231.796C231.706 13.2923 230.882 11.8646 229.666 10.9723L230.521 10.0923C231.959 11.2185 232.91 12.9538 233 14.9231ZM227.241 21.9754C227.162 21.9938 227.084 22 227 22C226.332 22 225.796 21.4462 225.79 20.7692H228.198C228.198 20.9415 228.167 21.1015 228.107 21.2492C227.951 21.6185 227.632 21.8892 227.241 21.9754Z" fill="white" fill-opacity="0.8"/>
<path d="M272.04 11.5467L273.14 10.08C273.22 9.97333 273.38 9.97333 273.46 10.08L274.56 11.5467C274.659 11.6785 274.565 11.8667 274.4 11.8667H272.2C272.036 11.8667 271.941 11.6785 272.04 11.5467Z" fill="white" fill-opacity="0.8"/>
<path d="M274.56 12.6867L273.46 14.1533C273.38 14.26 273.22 14.26 273.14 14.1533L272.04 12.6867C271.941 12.5548 272.036 12.3667 272.2 12.3667H274.4C274.565 12.3667 274.659 12.5548 274.56 12.6867Z" fill="white" fill-opacity="0.8"/>
</g>
<defs>
<linearGradient id="paint0_linear_85_32724" x1="60" y1="554" x2="300" y2="554" gradientUnits="userSpaceOnUse">
<stop stop-color="#682F90"/>
<stop offset="1" stop-color="#CA1F65"/>
</linearGradient>
<linearGradient id="paint1_linear_85_32724" x1="60" y1="618" x2="300" y2="618" gradientUnits="userSpaceOnUse">
<stop stop-color="#6F3399"/>
<stop offset="1" stop-color="#DF206E"/>
</linearGradient>
<clipPath id="clip0_85_32724">
<rect width="360" height="780" rx="30" fill="white"/>
</clipPath>
</defs>
</svg>
