<svg width="600" height="276" viewBox="0 0 600 276" fill="none" xmlns="http://www.w3.org/2000/svg">
<path d="M284.524 23.7812H277.431L275.962 29H273.868L280.431 6.59375H281.493L288.087 29H286.009L284.524 23.7812ZM277.978 21.8594H283.993L281.04 11.5312L280.978 10.7031L280.915 11.5312L277.978 21.8594ZM301.649 24.6094C301.649 25.2552 301.524 25.8646 301.274 26.4375C301.034 27.0104 300.701 27.5104 300.274 27.9375C299.847 28.3646 299.347 28.7031 298.774 28.9531C298.201 29.1927 297.591 29.3125 296.946 29.3125H295.664C295.019 29.3125 294.409 29.1927 293.836 28.9531C293.263 28.7031 292.763 28.3646 292.336 27.9375C291.909 27.5104 291.571 27.0104 291.321 26.4375C291.081 25.8646 290.961 25.2552 290.961 24.6094V6.59375H292.883V14.3438C293.321 13.8229 293.847 13.4167 294.461 13.125C295.076 12.8333 295.743 12.6875 296.461 12.6875H296.946C297.591 12.6875 298.201 12.8125 298.774 13.0625C299.347 13.3021 299.847 13.6354 300.274 14.0625C300.701 14.4896 301.034 14.9896 301.274 15.5625C301.524 16.1354 301.649 16.7448 301.649 17.3906V24.6094ZM299.727 17.2812C299.727 16.8958 299.654 16.5365 299.508 16.2031C299.362 15.8594 299.164 15.5625 298.914 15.3125C298.664 15.0625 298.368 14.8646 298.024 14.7188C297.69 14.5729 297.331 14.5 296.946 14.5H295.664C295.279 14.5 294.914 14.5729 294.571 14.7188C294.237 14.8646 293.946 15.0625 293.696 15.3125C293.446 15.5625 293.248 15.8594 293.102 16.2031C292.956 16.5365 292.883 16.8958 292.883 17.2812V24.7188C292.883 25.1042 292.956 25.4688 293.102 25.8125C293.248 26.1458 293.446 26.4375 293.696 26.6875C293.946 26.9375 294.237 27.1354 294.571 27.2812C294.914 27.4271 295.279 27.5 295.664 27.5H296.946C297.331 27.5 297.69 27.4271 298.024 27.2812C298.368 27.1354 298.664 26.9375 298.914 26.6875C299.164 26.4375 299.362 26.1458 299.508 25.8125C299.654 25.4688 299.727 25.1042 299.727 24.7188V17.2812ZM316.82 24.6094C316.82 25.2552 316.695 25.8646 316.445 26.4375C316.205 27.0104 315.872 27.5104 315.445 27.9375C315.018 28.3646 314.518 28.7031 313.945 28.9531C313.372 29.1927 312.763 29.3125 312.117 29.3125H310.836C310.19 29.3125 309.58 29.1927 309.008 28.9531C308.435 28.7031 307.935 28.3646 307.508 27.9375C307.08 27.5104 306.742 27.0104 306.492 26.4375C306.252 25.8646 306.133 25.2552 306.133 24.6094V17.3906C306.133 16.7448 306.252 16.1354 306.492 15.5625C306.742 14.9896 307.08 14.4896 307.508 14.0625C307.935 13.6354 308.435 13.3021 309.008 13.0625C309.58 12.8125 310.19 12.6875 310.836 12.6875H312.117C312.763 12.6875 313.372 12.8125 313.945 13.0625C314.518 13.3021 315.018 13.6354 315.445 14.0625C315.872 14.4896 316.205 14.9896 316.445 15.5625C316.695 16.1354 316.82 16.7448 316.82 17.3906V21.1562H308.054V24.7188C308.054 25.1042 308.127 25.4688 308.273 25.8125C308.419 26.1458 308.617 26.4375 308.867 26.6875C309.117 26.9375 309.409 27.1354 309.742 27.2812C310.086 27.4271 310.45 27.5 310.836 27.5H312.117C312.502 27.5 312.862 27.4271 313.195 27.2812C313.539 27.1354 313.836 26.9375 314.086 26.6875C314.336 26.4375 314.534 26.1458 314.679 25.8125C314.825 25.4688 314.898 25.1042 314.898 24.7188V23.6562L316.82 23.9688V24.6094ZM314.898 17.2812C314.898 16.8958 314.825 16.5365 314.679 16.2031C314.534 15.8594 314.336 15.5625 314.086 15.3125C313.836 15.0625 313.539 14.8646 313.195 14.7188C312.862 14.5729 312.502 14.5 312.117 14.5H310.836C310.45 14.5 310.086 14.5729 309.742 14.7188C309.409 14.8646 309.117 15.0625 308.867 15.3125C308.617 15.5625 308.419 15.8594 308.273 16.2031C308.127 16.5365 308.054 16.8958 308.054 17.2812V19.6562H314.898V17.2812ZM321.944 29V6.59375H323.866V29H321.944Z" fill="#F4C430"/>
<path d="M126.267 79.7812H119.173L117.704 85H115.611L122.173 62.5938H123.236L129.829 85H127.751L126.267 79.7812ZM119.72 77.8594H125.736L122.783 67.5312L122.72 66.7031L122.658 67.5312L119.72 77.8594ZM153.969 79.5C153.969 80.2604 153.823 80.974 153.531 81.6406C153.25 82.3073 152.859 82.8906 152.359 83.3906C151.859 83.8906 151.271 84.2865 150.594 84.5781C149.927 84.8594 149.214 85 148.453 85H141.359V62.5938H148.453C149.214 62.5938 149.927 62.7396 150.594 63.0312C151.271 63.3125 151.859 63.7031 152.359 64.2031C152.859 64.7031 153.25 65.2917 153.531 65.9688C153.823 66.6354 153.969 67.349 153.969 68.1094V68.3281C153.969 68.8594 153.896 69.3698 153.75 69.8594C153.615 70.3385 153.417 70.7865 153.156 71.2031C152.896 71.6198 152.589 72 152.234 72.3438C151.88 72.6771 151.484 72.9583 151.047 73.1875C151.484 73.4167 151.88 73.7031 152.234 74.0469C152.589 74.3802 152.896 74.7604 153.156 75.1875C153.417 75.6042 153.615 76.0573 153.75 76.5469C153.896 77.026 153.969 77.5312 153.969 78.0625V79.5ZM151.953 77.7344C151.953 77.2344 151.859 76.7708 151.672 76.3438C151.484 75.9062 151.224 75.526 150.891 75.2031C150.568 74.8802 150.188 74.625 149.75 74.4375C149.323 74.25 148.859 74.1562 148.359 74.1562H143.375V83.0781H148.359C148.859 83.0781 149.323 82.9844 149.75 82.7969C150.188 82.6094 150.568 82.3542 150.891 82.0312C151.224 81.7083 151.484 81.3333 151.672 80.9062C151.859 80.4688 151.953 80 151.953 79.5V77.7344ZM151.953 68.1094C151.953 67.6094 151.859 67.1458 151.672 66.7188C151.484 66.2812 151.224 65.901 150.891 65.5781C150.568 65.2448 150.188 64.9844 149.75 64.7969C149.323 64.6094 148.859 64.5156 148.359 64.5156H143.375V72.2344H148.359C148.859 72.2344 149.323 72.1406 149.75 71.9531C150.188 71.7656 150.568 71.5104 150.891 71.1875C151.224 70.8542 151.484 70.474 151.672 70.0469C151.859 69.6094 151.953 69.1406 151.953 68.6406V68.1094ZM178.764 79.8125C178.764 80.5729 178.619 81.2865 178.327 81.9531C178.046 82.6198 177.655 83.2031 177.155 83.7031C176.655 84.2031 176.072 84.599 175.405 84.8906C174.738 85.1719 174.025 85.3125 173.264 85.3125H171.671C170.91 85.3125 170.191 85.1719 169.514 84.8906C168.848 84.599 168.264 84.2031 167.764 83.7031C167.264 83.2031 166.869 82.6198 166.577 81.9531C166.296 81.2865 166.155 80.5729 166.155 79.8125V67.7812C166.155 67.0208 166.296 66.3073 166.577 65.6406C166.869 64.974 167.264 64.3906 167.764 63.8906C168.264 63.3906 168.848 63 169.514 62.7188C170.191 62.4271 170.91 62.2812 171.671 62.2812H173.264C174.025 62.2812 174.738 62.4271 175.405 62.7188C176.072 63 176.655 63.3906 177.155 63.8906C177.655 64.3906 178.046 64.974 178.327 65.6406C178.619 66.3073 178.764 67.0208 178.764 67.7812V68.6875L176.749 69V67.7812C176.749 67.2812 176.655 66.8177 176.468 66.3906C176.28 65.9531 176.025 65.5729 175.702 65.25C175.379 64.9271 174.999 64.6719 174.561 64.4844C174.134 64.2969 173.671 64.2031 173.171 64.2031H171.764C171.264 64.2031 170.796 64.2969 170.358 64.4844C169.931 64.6719 169.551 64.9271 169.218 65.25C168.895 65.5729 168.639 65.9531 168.452 66.3906C168.264 66.8177 168.171 67.2812 168.171 67.7812V79.8125C168.171 80.3125 168.264 80.7812 168.452 81.2188C168.639 81.6458 168.895 82.026 169.218 82.3594C169.551 82.6823 169.931 82.9375 170.358 83.125C170.796 83.3125 171.264 83.4062 171.764 83.4062H173.171C173.671 83.4062 174.134 83.3125 174.561 83.125C174.999 82.9375 175.379 82.6823 175.702 82.3594C176.025 82.026 176.28 81.6458 176.468 81.2188C176.655 80.7812 176.749 80.3125 176.749 79.8125V78.5938L178.764 78.9219V79.8125ZM204.529 79.5C204.529 80.2604 204.383 80.974 204.091 81.6406C203.81 82.3073 203.419 82.8906 202.919 83.3906C202.419 83.8906 201.831 84.2865 201.154 84.5781C200.487 84.8594 199.774 85 199.013 85H191.919V62.5938H199.013C199.774 62.5938 200.487 62.7396 201.154 63.0312C201.831 63.3125 202.419 63.7031 202.919 64.2031C203.419 64.7031 203.81 65.2917 204.091 65.9688C204.383 66.6354 204.529 67.349 204.529 68.1094V79.5ZM202.513 68.1094C202.513 67.6094 202.419 67.1458 202.232 66.7188C202.044 66.2812 201.784 65.901 201.451 65.5781C201.128 65.2448 200.747 64.9844 200.31 64.7969C199.883 64.6094 199.419 64.5156 198.919 64.5156H193.935V83.0781H198.919C199.419 83.0781 199.883 82.9844 200.31 82.7969C200.747 82.6094 201.128 82.3542 201.451 82.0312C201.784 81.7083 202.044 81.3333 202.232 80.9062C202.419 80.4688 202.513 80 202.513 79.5V68.1094ZM217.981 85V62.5938H230.59V64.5156H219.996V72.8438H228.574V74.7656H219.996V83.0781H230.59V85H217.981ZM245.12 64.5156V72.8438H253.698V74.7656H245.12V85H243.104V62.5938H255.714V64.5156H245.12ZM279.853 85H279.212L278.041 83.2031C277.551 83.849 276.957 84.3646 276.259 84.75C275.561 85.125 274.785 85.3125 273.931 85.3125H272.759C271.999 85.3125 271.28 85.1719 270.603 84.8906C269.936 84.599 269.353 84.2031 268.853 83.7031C268.353 83.2031 267.957 82.6198 267.666 81.9531C267.384 81.2865 267.244 80.5729 267.244 79.8125V67.7812C267.244 67.0208 267.384 66.3073 267.666 65.6406C267.957 64.974 268.353 64.3906 268.853 63.8906C269.353 63.3906 269.936 63 270.603 62.7188C271.28 62.4271 271.999 62.2812 272.759 62.2812H274.353C275.114 62.2812 275.827 62.4271 276.494 62.7188C277.16 63 277.744 63.3906 278.244 63.8906C278.744 64.3906 279.134 64.974 279.416 65.6406C279.707 66.3073 279.853 67.0208 279.853 67.7812V68.6875L277.837 69V67.7812C277.837 67.2812 277.744 66.8177 277.556 66.3906C277.369 65.9531 277.114 65.5729 276.791 65.25C276.468 64.9271 276.087 64.6719 275.65 64.4844C275.223 64.2969 274.759 64.2031 274.259 64.2031H272.853C272.353 64.2031 271.884 64.2969 271.447 64.4844C271.02 64.6719 270.64 64.9271 270.306 65.25C269.983 65.5729 269.728 65.9531 269.541 66.3906C269.353 66.8177 269.259 67.2812 269.259 67.7812V79.8125C269.259 80.3125 269.353 80.7812 269.541 81.2188C269.728 81.6458 269.983 82.026 270.306 82.3594C270.64 82.6823 271.02 82.9375 271.447 83.125C271.884 83.3125 272.353 83.4062 272.853 83.4062H274.259C274.759 83.4062 275.223 83.3125 275.65 83.125C276.087 82.9375 276.468 82.6823 276.791 82.3594C277.114 82.026 277.369 81.6458 277.556 81.2188C277.744 80.7812 277.837 80.3125 277.837 79.8125V75.1406H274.259V73.2188H279.853V85ZM303.914 85V74.7656H295.336V85H293.321V62.5938H295.336V72.8438H303.914V62.5938H305.93V85H303.914ZM319.726 85V62.5938H321.741V85H319.726ZM345.584 79.8125C345.584 80.5729 345.438 81.2865 345.146 81.9531C344.865 82.6198 344.474 83.2031 343.974 83.7031C343.474 84.2031 342.891 84.599 342.224 84.8906C341.558 85.1719 340.844 85.3125 340.084 85.3125H339.443C338.683 85.3125 337.964 85.1719 337.287 84.8906C336.62 84.599 336.037 84.2031 335.537 83.7031C335.037 83.2031 334.641 82.6198 334.349 81.9531C334.068 81.2865 333.928 80.5729 333.928 79.8125V78.9219L335.943 78.5938V79.8125C335.943 80.3125 336.037 80.7812 336.224 81.2188C336.412 81.6458 336.667 82.026 336.99 82.3594C337.323 82.6823 337.704 82.9375 338.131 83.125C338.568 83.3125 339.037 83.4062 339.537 83.4062H339.99C340.48 83.4062 340.943 83.3125 341.381 83.125C341.818 82.9375 342.198 82.6823 342.521 82.3594C342.844 82.026 343.099 81.6458 343.287 81.2188C343.474 80.7812 343.568 80.3125 343.568 79.8125V62.5938H345.584V79.8125ZM369.661 85L361.223 73.7969L369.661 62.5938H372.161L363.551 73.7969L372.161 85H369.661ZM358.723 85V62.5938H360.739V85H358.723ZM383.706 85V62.5938H385.722V83.0781H394.3V85H383.706ZM419.955 85V69.6406L419.814 70.5938L414.611 85H413.549L408.299 70.5938L408.174 69.6406V85H406.158V62.5938H407.205L414.002 80.9688L414.064 81.7969L414.127 80.9688L420.908 62.5938H421.971V85H419.955ZM447.298 85L437.954 68.6875L437.766 67.7188V85H435.751V62.5938H436.798L446.141 78.9219L446.344 79.875V62.5938H448.36V85H447.298ZM474.437 79.8125C474.437 80.5729 474.291 81.2865 473.999 81.9531C473.718 82.6198 473.328 83.2031 472.828 83.7031C472.328 84.2031 471.744 84.599 471.078 84.8906C470.411 85.1719 469.697 85.3125 468.937 85.3125H467.343C466.583 85.3125 465.864 85.1719 465.187 84.8906C464.52 84.599 463.937 84.2031 463.437 83.7031C462.937 83.2031 462.541 82.6198 462.249 81.9531C461.968 81.2865 461.828 80.5729 461.828 79.8125V67.7812C461.828 67.0208 461.968 66.3073 462.249 65.6406C462.541 64.974 462.937 64.3906 463.437 63.8906C463.937 63.3906 464.52 63 465.187 62.7188C465.864 62.4271 466.583 62.2812 467.343 62.2812H468.937C469.697 62.2812 470.411 62.4271 471.078 62.7188C471.744 63 472.328 63.3906 472.828 63.8906C473.328 64.3906 473.718 64.974 473.999 65.6406C474.291 66.3073 474.437 67.0208 474.437 67.7812V79.8125ZM472.421 67.7812C472.421 67.2812 472.328 66.8177 472.14 66.3906C471.953 65.9531 471.697 65.5729 471.374 65.25C471.051 64.9271 470.671 64.6719 470.234 64.4844C469.807 64.2969 469.343 64.2031 468.843 64.2031H467.437C466.937 64.2031 466.468 64.2969 466.031 64.4844C465.604 64.6719 465.223 64.9271 464.89 65.25C464.567 65.5729 464.312 65.9531 464.124 66.3906C463.937 66.8177 463.843 67.2812 463.843 67.7812V79.8125C463.843 80.3125 463.937 80.7812 464.124 81.2188C464.312 81.6458 464.567 82.026 464.89 82.3594C465.223 82.6823 465.604 82.9375 466.031 83.125C466.468 83.3125 466.937 83.4062 467.437 83.4062H468.843C469.343 83.4062 469.807 83.3125 470.234 83.125C470.671 82.9375 471.051 82.6823 471.374 82.3594C471.697 82.026 471.953 81.6458 472.14 81.2188C472.328 80.7812 472.421 80.3125 472.421 79.8125V67.7812ZM180.663 106.891C180.663 107.651 180.517 108.365 180.225 109.031C179.944 109.698 179.553 110.281 179.053 110.781C178.553 111.281 177.965 111.677 177.288 111.969C176.621 112.25 175.907 112.391 175.147 112.391H170.069V121H168.053V98.5938H175.147C175.907 98.5938 176.621 98.7396 177.288 99.0312C177.965 99.3125 178.553 99.7031 179.053 100.203C179.553 100.703 179.944 101.292 180.225 101.969C180.517 102.635 180.663 103.349 180.663 104.109V106.891ZM178.647 104.109C178.647 103.609 178.553 103.146 178.366 102.719C178.178 102.281 177.918 101.901 177.584 101.578C177.261 101.245 176.881 100.984 176.444 100.797C176.017 100.609 175.553 100.516 175.053 100.516H170.069V110.469H175.053C175.553 110.469 176.017 110.375 176.444 110.188C176.881 110 177.261 109.745 177.584 109.422C177.918 109.099 178.178 108.724 178.366 108.297C178.553 107.859 178.647 107.391 178.647 106.891V104.109ZM205.458 115.812C205.458 116.542 205.328 117.229 205.068 117.875C204.807 118.521 204.448 119.089 203.989 119.578C203.531 120.068 202.989 120.469 202.364 120.781C201.75 121.083 201.088 121.26 200.38 121.312L202.427 125.922H200.411L198.364 121.312C197.604 121.312 196.885 121.172 196.208 120.891C195.541 120.599 194.958 120.203 194.458 119.703C193.958 119.203 193.562 118.62 193.271 117.953C192.989 117.286 192.849 116.573 192.849 115.812V103.781C192.849 103.021 192.989 102.307 193.271 101.641C193.562 100.974 193.958 100.391 194.458 99.8906C194.958 99.3906 195.541 99 196.208 98.7188C196.885 98.4271 197.604 98.2812 198.364 98.2812H199.958C200.719 98.2812 201.432 98.4271 202.099 98.7188C202.765 99 203.349 99.3906 203.849 99.8906C204.349 100.391 204.739 100.974 205.021 101.641C205.312 102.307 205.458 103.021 205.458 103.781V115.812ZM203.443 103.781C203.443 103.281 203.349 102.818 203.161 102.391C202.974 101.953 202.719 101.573 202.396 101.25C202.073 100.927 201.693 100.672 201.255 100.484C200.828 100.297 200.364 100.203 199.864 100.203H198.458C197.958 100.203 197.489 100.297 197.052 100.484C196.625 100.672 196.245 100.927 195.911 101.25C195.588 101.573 195.333 101.953 195.146 102.391C194.958 102.818 194.864 103.281 194.864 103.781V115.812C194.864 116.312 194.958 116.781 195.146 117.219C195.333 117.646 195.588 118.026 195.911 118.359C196.245 118.682 196.625 118.938 197.052 119.125C197.489 119.312 197.958 119.406 198.458 119.406H199.864C200.364 119.406 200.828 119.312 201.255 119.125C201.693 118.938 202.073 118.682 202.396 118.359C202.719 118.026 202.974 117.646 203.161 117.219C203.349 116.781 203.443 116.312 203.443 115.812V103.781ZM229.457 121L223.379 111.438H220.613V121H218.598V98.5938H225.707C226.467 98.5938 227.181 98.7396 227.848 99.0312C228.514 99.3125 229.098 99.7031 229.598 100.203C230.098 100.703 230.488 101.292 230.769 101.969C231.061 102.635 231.207 103.349 231.207 104.109V105.922C231.207 106.682 231.061 107.401 230.769 108.078C230.488 108.745 230.098 109.328 229.598 109.828C229.098 110.328 228.514 110.724 227.848 111.016C227.181 111.297 226.467 111.438 225.707 111.438L231.785 121H229.457ZM229.191 104.109C229.191 103.609 229.098 103.146 228.91 102.719C228.723 102.281 228.467 101.901 228.144 101.578C227.821 101.245 227.441 100.984 227.004 100.797C226.577 100.609 226.113 100.516 225.613 100.516H220.613V109.516H225.613C226.113 109.516 226.577 109.422 227.004 109.234C227.441 109.047 227.821 108.792 228.144 108.469C228.467 108.135 228.723 107.755 228.91 107.328C229.098 106.891 229.191 106.422 229.191 105.922V104.109ZM256.581 115.812C256.581 116.573 256.424 117.286 256.112 117.953C255.81 118.62 255.398 119.203 254.878 119.703C254.367 120.203 253.768 120.599 253.081 120.891C252.404 121.172 251.685 121.312 250.924 121.312H249.315C248.555 121.312 247.831 121.172 247.143 120.891C246.466 120.599 245.867 120.203 245.346 119.703C244.836 119.203 244.424 118.62 244.112 117.953C243.81 117.286 243.659 116.573 243.659 115.812V114.922L245.674 114.594V115.812C245.674 116.312 245.773 116.781 245.971 117.219C246.18 117.646 246.456 118.026 246.799 118.359C247.143 118.682 247.539 118.938 247.987 119.125C248.445 119.312 248.924 119.406 249.424 119.406H250.831C251.331 119.406 251.805 119.312 252.253 119.125C252.7 118.938 253.096 118.682 253.44 118.359C253.784 118.026 254.055 117.646 254.253 117.219C254.461 116.781 254.565 116.312 254.565 115.812V115.141C254.565 114.37 254.414 113.729 254.112 113.219C253.81 112.708 253.409 112.276 252.909 111.922C252.409 111.557 251.841 111.25 251.206 111C250.581 110.75 249.935 110.5 249.268 110.25C248.601 110 247.95 109.724 247.315 109.422C246.69 109.12 246.128 108.745 245.628 108.297C245.128 107.839 244.726 107.281 244.424 106.625C244.122 105.969 243.971 105.161 243.971 104.203V103.781C243.971 103.021 244.112 102.307 244.393 101.641C244.685 100.974 245.081 100.391 245.581 99.8906C246.081 99.3906 246.664 99 247.331 98.7188C248.008 98.4271 248.726 98.2812 249.487 98.2812H250.924C251.685 98.2812 252.398 98.4271 253.065 98.7188C253.732 99 254.315 99.3906 254.815 99.8906C255.315 100.391 255.706 100.974 255.987 101.641C256.279 102.307 256.424 103.021 256.424 103.781V104.359L254.409 104.688V103.781C254.409 103.281 254.315 102.818 254.128 102.391C253.94 101.953 253.685 101.573 253.362 101.25C253.039 100.927 252.659 100.672 252.221 100.484C251.794 100.297 251.331 100.203 250.831 100.203H249.581C249.081 100.203 248.612 100.297 248.174 100.484C247.747 100.672 247.367 100.927 247.034 101.25C246.711 101.573 246.456 101.953 246.268 102.391C246.081 102.818 245.987 103.281 245.987 103.781V104.203C245.987 104.922 246.138 105.526 246.44 106.016C246.742 106.505 247.143 106.927 247.643 107.281C248.143 107.625 248.706 107.927 249.331 108.188C249.966 108.438 250.617 108.698 251.284 108.969C251.95 109.229 252.596 109.521 253.221 109.844C253.857 110.156 254.424 110.547 254.924 111.016C255.424 111.474 255.825 112.036 256.128 112.703C256.43 113.37 256.581 114.182 256.581 115.141V115.812ZM275.017 100.516V121H273.001V100.516H267.658V98.5938H280.361V100.516H275.017ZM304.516 115.812C304.516 116.573 304.37 117.286 304.078 117.953C303.797 118.62 303.406 119.203 302.906 119.703C302.406 120.203 301.823 120.599 301.156 120.891C300.49 121.172 299.776 121.312 299.016 121.312H297.422C296.661 121.312 295.943 121.172 295.266 120.891C294.599 120.599 294.016 120.203 293.516 119.703C293.016 119.203 292.62 118.62 292.328 117.953C292.047 117.286 291.906 116.573 291.906 115.812V98.5938H293.922V115.812C293.922 116.312 294.016 116.781 294.203 117.219C294.391 117.646 294.646 118.026 294.969 118.359C295.302 118.682 295.682 118.938 296.109 119.125C296.547 119.312 297.016 119.406 297.516 119.406H298.922C299.422 119.406 299.885 119.312 300.312 119.125C300.75 118.938 301.13 118.682 301.453 118.359C301.776 118.026 302.031 117.646 302.219 117.219C302.406 116.781 302.5 116.312 302.5 115.812V98.5938H304.516V115.812ZM322.78 116.078L322.842 116.906L322.905 116.078L327.874 98.5938H329.952L323.358 121H322.296L315.733 98.5938H317.827L322.78 116.078ZM356.451 121H355.404L351.044 104.141L350.982 103.266L350.888 104.141L346.56 121H345.513L339.56 98.5938H341.576L345.966 115.625L346.029 116.453L346.091 115.625L350.404 98.5938H351.529L355.841 115.625L355.904 116.453L355.982 115.625L360.357 98.5938H362.373L356.451 121ZM384.028 121L379.418 111.688L374.809 121H372.621L378.324 109.484L372.949 98.5938H375.121L379.418 107.266L383.699 98.5938H385.871L380.496 109.484L386.199 121H384.028ZM404.276 110.281V121H402.261V110.312L396.464 98.5938H398.636L403.245 107.906L407.854 98.5938H410.026L404.276 110.281ZM420.603 121V120.047L430.588 100.516H420.916V98.5938H433.213V99.5625L423.228 119.078H433.213V121H420.603Z" fill="#F4C430"/>
<path d="M148.204 177L147.142 175.406C146.704 175.979 146.158 176.443 145.501 176.797C144.845 177.141 144.126 177.312 143.345 177.312H142.861C142.215 177.312 141.605 177.193 141.033 176.953C140.46 176.703 139.96 176.365 139.533 175.938C139.105 175.51 138.767 175.01 138.517 174.438C138.277 173.865 138.158 173.255 138.158 172.609V172.453C138.158 171.807 138.277 171.198 138.517 170.625C138.767 170.052 139.105 169.552 139.533 169.125C139.96 168.698 140.46 168.365 141.033 168.125C141.605 167.875 142.215 167.75 142.861 167.75H146.923V165.281C146.923 164.896 146.85 164.536 146.704 164.203C146.559 163.859 146.361 163.562 146.111 163.312C145.861 163.062 145.564 162.865 145.22 162.719C144.887 162.573 144.527 162.5 144.142 162.5H143.017C142.631 162.5 142.267 162.573 141.923 162.719C141.59 162.865 141.298 163.062 141.048 163.312C140.798 163.562 140.6 163.859 140.454 164.203C140.309 164.536 140.236 164.896 140.236 165.281V165.859L138.314 165.547V165.391C138.314 164.745 138.434 164.135 138.673 163.562C138.923 162.99 139.262 162.49 139.689 162.062C140.116 161.635 140.616 161.302 141.189 161.062C141.762 160.812 142.371 160.688 143.017 160.688H144.142C144.788 160.688 145.397 160.812 145.97 161.062C146.543 161.302 147.043 161.635 147.47 162.062C147.897 162.49 148.23 162.99 148.47 163.562C148.72 164.135 148.845 164.745 148.845 165.391V177H148.204ZM146.923 169.25H142.861C142.475 169.25 142.111 169.323 141.767 169.469C141.434 169.615 141.142 169.818 140.892 170.078C140.642 170.328 140.444 170.625 140.298 170.969C140.152 171.302 140.079 171.661 140.079 172.047V172.719C140.079 173.104 140.152 173.469 140.298 173.812C140.444 174.146 140.642 174.438 140.892 174.688C141.142 174.938 141.434 175.135 141.767 175.281C142.111 175.427 142.475 175.5 142.861 175.5H144.142C144.527 175.5 144.887 175.427 145.22 175.281C145.564 175.135 145.861 174.938 146.111 174.688C146.361 174.438 146.559 174.146 146.704 173.812C146.85 173.469 146.923 173.104 146.923 172.719V169.25ZM172.031 172.609C172.031 173.255 171.906 173.865 171.656 174.438C171.417 175.01 171.083 175.51 170.656 175.938C170.229 176.365 169.729 176.703 169.156 176.953C168.583 177.193 167.974 177.312 167.328 177.312H166.047C165.401 177.312 164.792 177.193 164.219 176.953C163.646 176.703 163.146 176.365 162.719 175.938C162.292 175.51 161.953 175.01 161.703 174.438C161.464 173.865 161.344 173.255 161.344 172.609V154.594H163.266V162.344C163.703 161.823 164.229 161.417 164.844 161.125C165.458 160.833 166.125 160.688 166.844 160.688H167.328C167.974 160.688 168.583 160.812 169.156 161.062C169.729 161.302 170.229 161.635 170.656 162.062C171.083 162.49 171.417 162.99 171.656 163.562C171.906 164.135 172.031 164.745 172.031 165.391V172.609ZM170.109 165.281C170.109 164.896 170.036 164.536 169.891 164.203C169.745 163.859 169.547 163.562 169.297 163.312C169.047 163.062 168.75 162.865 168.406 162.719C168.073 162.573 167.714 162.5 167.328 162.5H166.047C165.661 162.5 165.297 162.573 164.953 162.719C164.62 162.865 164.328 163.062 164.078 163.312C163.828 163.562 163.63 163.859 163.484 164.203C163.339 164.536 163.266 164.896 163.266 165.281V172.719C163.266 173.104 163.339 173.469 163.484 173.812C163.63 174.146 163.828 174.438 164.078 174.688C164.328 174.938 164.62 175.135 164.953 175.281C165.297 175.427 165.661 175.5 166.047 175.5H167.328C167.714 175.5 168.073 175.427 168.406 175.281C168.75 175.135 169.047 174.938 169.297 174.688C169.547 174.438 169.745 174.146 169.891 173.812C170.036 173.469 170.109 173.104 170.109 172.719V165.281ZM195.218 172.609C195.218 173.255 195.093 173.865 194.843 174.438C194.603 175.01 194.27 175.51 193.843 175.938C193.415 176.365 192.915 176.703 192.343 176.953C191.77 177.193 191.16 177.312 190.514 177.312H189.233C188.587 177.312 187.978 177.193 187.405 176.953C186.832 176.703 186.332 176.365 185.905 175.938C185.478 175.51 185.139 175.01 184.889 174.438C184.65 173.865 184.53 173.255 184.53 172.609V165.391C184.53 164.745 184.65 164.135 184.889 163.562C185.139 162.99 185.478 162.49 185.905 162.062C186.332 161.635 186.832 161.302 187.405 161.062C187.978 160.812 188.587 160.688 189.233 160.688H190.514C191.16 160.688 191.77 160.812 192.343 161.062C192.915 161.302 193.415 161.635 193.843 162.062C194.27 162.49 194.603 162.99 194.843 163.562C195.093 164.135 195.218 164.745 195.218 165.391V166.031L193.296 166.344V165.281C193.296 164.896 193.223 164.536 193.077 164.203C192.931 163.859 192.733 163.562 192.483 163.312C192.233 163.062 191.936 162.865 191.593 162.719C191.259 162.573 190.9 162.5 190.514 162.5H189.233C188.848 162.5 188.483 162.573 188.139 162.719C187.806 162.865 187.514 163.062 187.264 163.312C187.014 163.562 186.816 163.859 186.671 164.203C186.525 164.536 186.452 164.896 186.452 165.281V172.719C186.452 173.104 186.525 173.469 186.671 173.812C186.816 174.146 187.014 174.438 187.264 174.688C187.514 174.938 187.806 175.135 188.139 175.281C188.483 175.427 188.848 175.5 189.233 175.5H190.514C190.9 175.5 191.259 175.427 191.593 175.281C191.936 175.135 192.233 174.938 192.483 174.688C192.733 174.438 192.931 174.146 193.077 173.812C193.223 173.469 193.296 173.104 193.296 172.719V171.656L195.218 171.969V172.609ZM217.763 177L216.701 175.375C216.263 175.969 215.716 176.443 215.06 176.797C214.404 177.141 213.685 177.312 212.904 177.312H212.419C211.774 177.312 211.164 177.193 210.591 176.953C210.018 176.703 209.518 176.365 209.091 175.938C208.664 175.51 208.326 175.01 208.076 174.438C207.836 173.865 207.716 173.255 207.716 172.609V165.391C207.716 164.745 207.836 164.135 208.076 163.562C208.326 162.99 208.664 162.49 209.091 162.062C209.518 161.635 210.018 161.302 210.591 161.062C211.164 160.812 211.774 160.688 212.419 160.688H212.904C213.622 160.688 214.289 160.833 214.904 161.125C215.518 161.417 216.044 161.823 216.482 162.344V154.594H218.404V177H217.763ZM216.482 165.281C216.482 164.896 216.409 164.536 216.263 164.203C216.117 163.859 215.919 163.562 215.669 163.312C215.419 163.062 215.122 162.865 214.779 162.719C214.445 162.573 214.086 162.5 213.701 162.5H212.419C212.034 162.5 211.669 162.573 211.326 162.719C210.992 162.865 210.701 163.062 210.451 163.312C210.201 163.562 210.003 163.859 209.857 164.203C209.711 164.536 209.638 164.896 209.638 165.281V172.719C209.638 173.104 209.711 173.469 209.857 173.812C210.003 174.146 210.201 174.438 210.451 174.688C210.701 174.938 210.992 175.135 211.326 175.281C211.669 175.427 212.034 175.5 212.419 175.5H213.701C214.086 175.5 214.445 175.427 214.779 175.281C215.122 175.135 215.419 174.938 215.669 174.688C215.919 174.438 216.117 174.146 216.263 173.812C216.409 173.469 216.482 173.104 216.482 172.719V165.281ZM241.59 172.609C241.59 173.255 241.465 173.865 241.215 174.438C240.975 175.01 240.642 175.51 240.215 175.938C239.788 176.365 239.288 176.703 238.715 176.953C238.142 177.193 237.533 177.312 236.887 177.312H235.606C234.96 177.312 234.35 177.193 233.778 176.953C233.205 176.703 232.705 176.365 232.278 175.938C231.85 175.51 231.512 175.01 231.262 174.438C231.022 173.865 230.903 173.255 230.903 172.609V165.391C230.903 164.745 231.022 164.135 231.262 163.562C231.512 162.99 231.85 162.49 232.278 162.062C232.705 161.635 233.205 161.302 233.778 161.062C234.35 160.812 234.96 160.688 235.606 160.688H236.887C237.533 160.688 238.142 160.812 238.715 161.062C239.288 161.302 239.788 161.635 240.215 162.062C240.642 162.49 240.975 162.99 241.215 163.562C241.465 164.135 241.59 164.745 241.59 165.391V169.156H232.824V172.719C232.824 173.104 232.897 173.469 233.043 173.812C233.189 174.146 233.387 174.438 233.637 174.688C233.887 174.938 234.179 175.135 234.512 175.281C234.856 175.427 235.22 175.5 235.606 175.5H236.887C237.272 175.5 237.632 175.427 237.965 175.281C238.309 175.135 238.606 174.938 238.856 174.688C239.106 174.438 239.304 174.146 239.449 173.812C239.595 173.469 239.668 173.104 239.668 172.719V171.656L241.59 171.969V172.609ZM239.668 165.281C239.668 164.896 239.595 164.536 239.449 164.203C239.304 163.859 239.106 163.562 238.856 163.312C238.606 163.062 238.309 162.865 237.965 162.719C237.632 162.573 237.272 162.5 236.887 162.5H235.606C235.22 162.5 234.856 162.573 234.512 162.719C234.179 162.865 233.887 163.062 233.637 163.312C233.387 163.562 233.189 163.859 233.043 164.203C232.897 164.536 232.824 164.896 232.824 165.281V167.656H239.668V165.281ZM259.589 156.422C259.266 156.422 258.964 156.484 258.683 156.609C258.412 156.724 258.172 156.885 257.964 157.094C257.755 157.302 257.589 157.547 257.464 157.828C257.349 158.109 257.292 158.411 257.292 158.734V161H261.026V162.828H257.292V177H255.37V162.828H252.479V161H255.37V158.828C255.37 158.245 255.479 157.698 255.698 157.188C255.917 156.667 256.219 156.214 256.604 155.828C256.99 155.443 257.438 155.141 257.948 154.922C258.459 154.703 259.005 154.594 259.589 154.594H261.354V156.422H259.589ZM282.775 179.016C282.775 179.661 282.65 180.255 282.4 180.797C282.16 181.339 281.827 181.802 281.4 182.188C280.973 182.573 280.473 182.87 279.9 183.078C279.327 183.297 278.718 183.406 278.072 183.406H277.275C276.629 183.406 276.02 183.297 275.447 183.078C274.874 182.87 274.374 182.573 273.947 182.188C273.52 181.802 273.181 181.339 272.931 180.797C272.692 180.255 272.572 179.661 272.572 179.016V178.953C272.572 178.328 272.686 177.755 272.916 177.234C273.145 176.714 273.457 176.26 273.853 175.875C273.353 175.573 272.952 175.167 272.65 174.656C272.358 174.135 272.212 173.562 272.212 172.938C272.212 172.375 272.332 171.854 272.572 171.375C272.811 170.885 273.14 170.49 273.556 170.188C273.056 169.75 272.66 169.224 272.369 168.609C272.077 167.995 271.931 167.323 271.931 166.594V165.391C271.931 164.745 272.051 164.135 272.291 163.562C272.541 162.99 272.879 162.49 273.306 162.062C273.733 161.635 274.233 161.302 274.806 161.062C275.379 160.812 275.989 160.688 276.634 160.688H277.431C278.212 160.688 278.931 160.865 279.587 161.219C280.254 161.562 280.806 162.031 281.244 162.625L282.291 161H282.931V166.594C282.931 167.24 282.806 167.849 282.556 168.422C282.317 168.995 281.983 169.495 281.556 169.922C281.129 170.349 280.629 170.688 280.056 170.938C279.483 171.177 278.874 171.297 278.228 171.297H275.447C275.228 171.297 275.02 171.344 274.822 171.438C274.624 171.521 274.447 171.635 274.291 171.781C274.145 171.927 274.03 172.104 273.947 172.312C273.864 172.51 273.822 172.719 273.822 172.938C273.822 173.156 273.864 173.365 273.947 173.562C274.03 173.76 274.145 173.938 274.291 174.094C274.447 174.24 274.624 174.354 274.822 174.438C275.02 174.521 275.228 174.562 275.447 174.562H278.072C278.718 174.562 279.327 174.672 279.9 174.891C280.473 175.099 280.973 175.396 281.4 175.781C281.827 176.167 282.16 176.63 282.4 177.172C282.65 177.714 282.775 178.307 282.775 178.953V179.016ZM281.025 165.281C281.025 164.896 280.952 164.536 280.806 164.203C280.66 163.859 280.457 163.562 280.197 163.312C279.947 163.062 279.65 162.865 279.306 162.719C278.973 162.573 278.614 162.5 278.228 162.5H276.634C276.249 162.5 275.884 162.573 275.541 162.719C275.207 162.865 274.916 163.062 274.666 163.312C274.416 163.562 274.218 163.859 274.072 164.203C273.926 164.536 273.853 164.896 273.853 165.281V166.703C273.853 167.089 273.926 167.453 274.072 167.797C274.218 168.13 274.416 168.422 274.666 168.672C274.916 168.922 275.207 169.12 275.541 169.266C275.884 169.411 276.249 169.484 276.634 169.484H278.228C278.614 169.484 278.973 169.411 279.306 169.266C279.65 169.12 279.947 168.922 280.197 168.672C280.457 168.422 280.66 168.13 280.806 167.797C280.952 167.453 281.025 167.089 281.025 166.703V165.281ZM280.947 178.859C280.947 178.474 280.874 178.125 280.728 177.812C280.582 177.51 280.384 177.255 280.134 177.047C279.884 176.839 279.587 176.677 279.244 176.562C278.91 176.448 278.551 176.391 278.166 176.391H277.181C276.796 176.391 276.431 176.448 276.087 176.562C275.754 176.677 275.462 176.839 275.212 177.047C274.962 177.255 274.765 177.51 274.619 177.812C274.473 178.125 274.4 178.474 274.4 178.859V179.109C274.4 179.495 274.473 179.839 274.619 180.141C274.765 180.443 274.962 180.698 275.212 180.906C275.462 181.125 275.754 181.292 276.087 181.406C276.431 181.521 276.796 181.578 277.181 181.578H278.166C278.551 181.578 278.91 181.521 279.244 181.406C279.587 181.292 279.884 181.125 280.134 180.906C280.384 180.698 280.582 180.443 280.728 180.141C280.874 179.839 280.947 179.495 280.947 179.109V178.859ZM303.883 177V165.281C303.883 164.896 303.81 164.536 303.664 164.203C303.519 163.859 303.321 163.562 303.071 163.312C302.821 163.062 302.524 162.865 302.18 162.719C301.847 162.573 301.487 162.5 301.102 162.5H299.821C299.435 162.5 299.071 162.573 298.727 162.719C298.394 162.865 298.102 163.062 297.852 163.312C297.602 163.562 297.404 163.859 297.258 164.203C297.112 164.536 297.039 164.896 297.039 165.281V177H295.118V154.594H297.039V162.344C297.477 161.823 298.003 161.417 298.618 161.125C299.232 160.833 299.899 160.688 300.618 160.688H301.102C301.748 160.688 302.357 160.812 302.93 161.062C303.503 161.302 304.003 161.635 304.43 162.062C304.857 162.49 305.19 162.99 305.43 163.562C305.68 164.135 305.805 164.745 305.805 165.391V177H303.883ZM318.788 157.156V154.594H321.023V157.156H318.788ZM318.944 177V161H320.866V177H318.944ZM334.506 157.156V154.594H336.74V157.156H334.506ZM336.584 178.703C336.584 179.349 336.459 179.953 336.209 180.516C335.969 181.089 335.636 181.589 335.209 182.016C334.782 182.443 334.282 182.781 333.709 183.031C333.136 183.281 332.526 183.406 331.881 183.406V181.578C332.266 181.578 332.625 181.505 332.959 181.359C333.303 181.214 333.599 181.016 333.849 180.766C334.099 180.516 334.297 180.219 334.443 179.875C334.589 179.542 334.662 179.182 334.662 178.797V161H336.584V178.703ZM359.208 177L352.676 169L359.208 161H361.708L355.02 169L361.708 177H359.208ZM350.379 177V154.594H352.301V177H350.379ZM373.566 177V154.594H375.488V177H373.566ZM405.533 177V165.281C405.533 164.896 405.46 164.536 405.314 164.203C405.169 163.859 404.971 163.562 404.721 163.312C404.471 163.062 404.174 162.865 403.83 162.719C403.497 162.573 403.137 162.5 402.752 162.5H401.799C401.413 162.5 401.049 162.573 400.705 162.719C400.372 162.865 400.075 163.062 399.814 163.312C399.564 163.562 399.366 163.859 399.221 164.203C399.075 164.536 399.002 164.896 399.002 165.281V177H397.096V165.281C397.096 164.896 397.023 164.536 396.877 164.203C396.731 163.859 396.528 163.562 396.268 163.312C396.018 163.062 395.721 162.865 395.377 162.719C395.044 162.573 394.684 162.5 394.299 162.5H393.346C392.96 162.5 392.596 162.573 392.252 162.719C391.919 162.865 391.627 163.062 391.377 163.312C391.127 163.562 390.929 163.859 390.783 164.203C390.637 164.536 390.564 164.896 390.564 165.281V177H388.643V161H389.283L390.33 162.625C390.768 162.031 391.314 161.562 391.971 161.219C392.637 160.865 393.361 160.688 394.143 160.688H394.299C395.205 160.688 396.023 160.911 396.752 161.359C397.481 161.807 398.044 162.401 398.439 163.141C398.637 162.776 398.882 162.443 399.174 162.141C399.465 161.839 399.788 161.583 400.143 161.375C400.497 161.156 400.882 160.99 401.299 160.875C401.715 160.75 402.148 160.688 402.596 160.688H402.752C403.398 160.688 404.007 160.812 404.58 161.062C405.153 161.302 405.653 161.635 406.08 162.062C406.507 162.49 406.84 162.99 407.08 163.562C407.33 164.135 407.455 164.745 407.455 165.391V177H405.533ZM428.719 177V165.281C428.719 164.896 428.646 164.536 428.501 164.203C428.355 163.859 428.157 163.562 427.907 163.312C427.657 163.062 427.36 162.865 427.016 162.719C426.683 162.573 426.324 162.5 425.938 162.5H424.657C424.271 162.5 423.907 162.573 423.563 162.719C423.23 162.865 422.938 163.062 422.688 163.312C422.438 163.562 422.24 163.859 422.094 164.203C421.949 164.536 421.876 164.896 421.876 165.281V177H419.954V161H420.594L421.641 162.625C422.079 162.031 422.626 161.562 423.282 161.219C423.949 160.865 424.673 160.688 425.454 160.688H425.938C426.584 160.688 427.193 160.812 427.766 161.062C428.339 161.302 428.839 161.635 429.266 162.062C429.693 162.49 430.027 162.99 430.266 163.562C430.516 164.135 430.641 164.745 430.641 165.391V177H428.719ZM453.828 172.609C453.828 173.255 453.703 173.865 453.453 174.438C453.213 175.01 452.88 175.51 452.453 175.938C452.025 176.365 451.525 176.703 450.953 176.953C450.38 177.193 449.77 177.312 449.124 177.312H447.843C447.197 177.312 446.588 177.193 446.015 176.953C445.442 176.703 444.942 176.365 444.515 175.938C444.088 175.51 443.749 175.01 443.499 174.438C443.26 173.865 443.14 173.255 443.14 172.609V165.391C443.14 164.745 443.26 164.135 443.499 163.562C443.749 162.99 444.088 162.49 444.515 162.062C444.942 161.635 445.442 161.302 446.015 161.062C446.588 160.812 447.197 160.688 447.843 160.688H449.124C449.77 160.688 450.38 160.812 450.953 161.062C451.525 161.302 452.025 161.635 452.453 162.062C452.88 162.49 453.213 162.99 453.453 163.562C453.703 164.135 453.828 164.745 453.828 165.391V172.609ZM451.906 165.281C451.906 164.896 451.833 164.536 451.687 164.203C451.541 163.859 451.343 163.562 451.093 163.312C450.843 163.062 450.546 162.865 450.203 162.719C449.869 162.573 449.51 162.5 449.124 162.5H447.843C447.458 162.5 447.093 162.573 446.749 162.719C446.416 162.865 446.124 163.062 445.874 163.312C445.624 163.562 445.426 163.859 445.281 164.203C445.135 164.536 445.062 164.896 445.062 165.281V172.719C445.062 173.104 445.135 173.469 445.281 173.812C445.426 174.146 445.624 174.438 445.874 174.688C446.124 174.938 446.416 175.135 446.749 175.281C447.093 175.427 447.458 175.5 447.843 175.5H449.124C449.51 175.5 449.869 175.427 450.203 175.281C450.546 175.135 450.843 174.938 451.093 174.688C451.343 174.438 451.541 174.146 451.687 173.812C451.833 173.469 451.906 173.104 451.906 172.719V165.281ZM193.319 208.609C193.319 209.255 193.194 209.865 192.944 210.438C192.704 211.01 192.371 211.51 191.944 211.938C191.517 212.365 191.017 212.703 190.444 212.953C189.871 213.193 189.261 213.312 188.616 213.312H188.131C187.412 213.312 186.746 213.167 186.131 212.875C185.517 212.583 184.991 212.177 184.553 211.656V219.406H182.631V197H183.272L184.319 198.625C184.756 198.031 185.303 197.562 185.959 197.219C186.626 196.865 187.35 196.688 188.131 196.688H188.616C189.261 196.688 189.871 196.812 190.444 197.062C191.017 197.302 191.517 197.635 191.944 198.062C192.371 198.49 192.704 198.99 192.944 199.562C193.194 200.135 193.319 200.745 193.319 201.391V208.609ZM191.397 201.281C191.397 200.896 191.324 200.536 191.178 200.203C191.032 199.859 190.834 199.562 190.584 199.312C190.334 199.062 190.037 198.865 189.694 198.719C189.36 198.573 189.001 198.5 188.616 198.5H187.334C186.949 198.5 186.584 198.573 186.241 198.719C185.907 198.865 185.616 199.062 185.366 199.312C185.116 199.562 184.918 199.859 184.772 200.203C184.626 200.536 184.553 200.896 184.553 201.281V208.719C184.553 209.104 184.626 209.469 184.772 209.812C184.918 210.146 185.116 210.438 185.366 210.688C185.616 210.938 185.907 211.135 186.241 211.281C186.584 211.427 186.949 211.5 187.334 211.5H188.616C189.001 211.5 189.36 211.427 189.694 211.281C190.037 211.135 190.334 210.938 190.584 210.688C190.834 210.438 191.032 210.146 191.178 209.812C191.324 209.469 191.397 209.104 191.397 208.719V201.281ZM214.583 219.406V211.656C214.146 212.177 213.62 212.583 213.005 212.875C212.39 213.167 211.724 213.312 211.005 213.312H210.521C209.875 213.312 209.265 213.193 208.692 212.953C208.12 212.703 207.62 212.365 207.192 211.938C206.765 211.51 206.427 211.01 206.177 210.438C205.937 209.865 205.817 209.255 205.817 208.609V201.391C205.817 200.745 205.937 200.135 206.177 199.562C206.427 198.99 206.765 198.49 207.192 198.062C207.62 197.635 208.12 197.302 208.692 197.062C209.265 196.812 209.875 196.688 210.521 196.688H211.005C211.786 196.688 212.505 196.865 213.161 197.219C213.817 197.562 214.364 198.031 214.802 198.625L215.864 197H216.505V219.406H214.583ZM214.583 201.281C214.583 200.896 214.51 200.536 214.364 200.203C214.219 199.859 214.021 199.562 213.771 199.312C213.521 199.062 213.224 198.865 212.88 198.719C212.547 198.573 212.187 198.5 211.802 198.5H210.521C210.135 198.5 209.771 198.573 209.427 198.719C209.094 198.865 208.802 199.062 208.552 199.312C208.302 199.562 208.104 199.859 207.958 200.203C207.812 200.536 207.739 200.896 207.739 201.281V208.719C207.739 209.104 207.812 209.469 207.958 209.812C208.104 210.146 208.302 210.438 208.552 210.688C208.802 210.938 209.094 211.135 209.427 211.281C209.771 211.427 210.135 211.5 210.521 211.5H211.802C212.187 211.5 212.547 211.427 212.88 211.281C213.224 211.135 213.521 210.938 213.771 210.688C214.021 210.438 214.219 210.146 214.364 209.812C214.51 209.469 214.583 209.104 214.583 208.719V201.281ZM233.707 198.828C233.321 198.828 232.957 198.901 232.613 199.047C232.28 199.193 231.988 199.391 231.738 199.641C231.488 199.891 231.29 200.188 231.144 200.531C230.999 200.865 230.926 201.224 230.926 201.609V213H229.004V197H229.644L230.691 198.625C231.129 198.031 231.676 197.562 232.332 197.219C232.999 196.865 233.723 196.688 234.504 196.688H235.629V198.828H233.707ZM257.846 208.938C257.846 209.583 257.716 210.177 257.456 210.719C257.195 211.25 256.841 211.708 256.393 212.094C255.945 212.479 255.424 212.781 254.831 213C254.247 213.208 253.633 213.312 252.987 213.312H251.706C251.06 213.312 250.44 213.193 249.846 212.953C249.263 212.703 248.747 212.365 248.299 211.938C247.862 211.51 247.508 211.01 247.237 210.438C246.976 209.865 246.846 209.255 246.846 208.609V207.969L248.768 207.656V208.719C248.768 209.104 248.846 209.469 249.002 209.812C249.169 210.146 249.388 210.438 249.659 210.688C249.93 210.938 250.242 211.135 250.596 211.281C250.95 211.427 251.32 211.5 251.706 211.5H252.987C253.372 211.5 253.742 211.443 254.096 211.328C254.45 211.214 254.763 211.052 255.034 210.844C255.315 210.625 255.534 210.365 255.69 210.062C255.857 209.76 255.94 209.417 255.94 209.031C255.94 208.458 255.815 207.99 255.565 207.625C255.315 207.26 254.982 206.958 254.565 206.719C254.159 206.469 253.69 206.266 253.159 206.109C252.638 205.943 252.101 205.781 251.549 205.625C250.997 205.458 250.456 205.271 249.924 205.062C249.404 204.854 248.935 204.583 248.518 204.25C248.112 203.906 247.784 203.479 247.534 202.969C247.284 202.458 247.159 201.823 247.159 201.062C247.159 200.417 247.284 199.828 247.534 199.297C247.784 198.755 248.122 198.292 248.549 197.906C248.976 197.521 249.471 197.224 250.034 197.016C250.607 196.797 251.216 196.688 251.862 196.688H252.987C253.633 196.688 254.242 196.812 254.815 197.062C255.388 197.302 255.888 197.635 256.315 198.062C256.742 198.49 257.075 198.99 257.315 199.562C257.565 200.135 257.69 200.745 257.69 201.391V201.453L255.768 201.766V201.281C255.768 200.896 255.695 200.536 255.549 200.203C255.404 199.859 255.206 199.562 254.956 199.312C254.706 199.062 254.409 198.865 254.065 198.719C253.732 198.573 253.372 198.5 252.987 198.5H251.862C251.476 198.5 251.112 198.557 250.768 198.672C250.435 198.786 250.143 198.953 249.893 199.172C249.643 199.38 249.445 199.635 249.299 199.938C249.154 200.24 249.081 200.583 249.081 200.969C249.081 201.521 249.206 201.974 249.456 202.328C249.706 202.672 250.034 202.964 250.44 203.203C250.857 203.443 251.325 203.646 251.846 203.812C252.377 203.969 252.914 204.135 253.456 204.312C254.008 204.479 254.544 204.672 255.065 204.891C255.596 205.109 256.065 205.391 256.471 205.734C256.888 206.078 257.221 206.51 257.471 207.031C257.721 207.542 257.846 208.177 257.846 208.938ZM276.017 213C275.434 213 274.881 212.891 274.361 212.672C273.85 212.453 273.402 212.151 273.017 211.766C272.642 211.38 272.34 210.932 272.111 210.422C271.892 209.911 271.783 209.365 271.783 208.781V198.828H268.908V197H271.783V193.156L273.704 192.844V197H277.767V198.828H273.704V208.875C273.704 209.198 273.762 209.5 273.876 209.781C274.001 210.052 274.168 210.292 274.376 210.5C274.585 210.708 274.829 210.875 275.111 211C275.392 211.115 275.694 211.172 276.017 211.172H277.767V213H276.017ZM300.016 213L298.953 211.375C298.516 211.969 297.969 212.443 297.312 212.797C296.656 213.141 295.938 213.312 295.156 213.312H294.672C294.026 213.312 293.417 213.193 292.844 212.953C292.271 212.703 291.771 212.365 291.344 211.938C290.917 211.51 290.578 211.01 290.328 210.438C290.089 209.865 289.969 209.255 289.969 208.609V197H291.891V208.719C291.891 209.104 291.964 209.469 292.109 209.812C292.255 210.146 292.453 210.438 292.703 210.688C292.953 210.938 293.245 211.135 293.578 211.281C293.922 211.427 294.286 211.5 294.672 211.5H295.953C296.339 211.5 296.698 211.427 297.031 211.281C297.375 211.135 297.672 210.938 297.922 210.688C298.172 210.438 298.37 210.146 298.516 209.812C298.661 209.469 298.734 209.104 298.734 208.719V197H300.656V213H300.016ZM318.171 213H317.217L311.546 197H313.467L317.639 209.125L317.702 209.953L317.764 209.125L321.921 197H323.842L318.171 213ZM348.216 213H347.169L343.419 200.938L343.357 200.109L343.294 200.938L339.544 213H338.482L333.138 197H335.091L338.904 209.094L338.966 209.922L339.029 209.094L342.779 197H343.935L347.669 209.094L347.732 209.922L347.794 209.094L351.607 197H353.56L348.216 213ZM372.746 213L369.324 206.859L365.902 213H363.824L368.309 205L363.824 197H365.902L369.324 203.141L372.746 197H374.824L370.356 205L374.824 213H372.746ZM389.276 219.406H387.417L390.261 211.625L385.073 197H386.995L391.167 209.125L391.229 209.953L391.292 209.125L395.448 197H397.37L389.276 219.406ZM407.322 213V212.141L415.384 198.828H407.634V197H418.009V197.859L409.947 211.172H418.009V213H407.322Z" fill="#F4C430"/>
<path d="M181.724 269V267.078H187.068V248.516L181.724 250.766V248.844L187.068 246.594H189.084V267.078H194.427V269H181.724ZM211.739 248.203C211.239 248.203 210.77 248.297 210.332 248.484C209.905 248.672 209.53 248.927 209.207 249.25C208.885 249.573 208.629 249.953 208.442 250.391C208.254 250.818 208.161 251.281 208.161 251.781V252.688L206.145 252.359V251.781C206.145 251.021 206.286 250.307 206.567 249.641C206.859 248.974 207.254 248.391 207.754 247.891C208.254 247.391 208.838 247 209.504 246.719C210.171 246.427 210.885 246.281 211.645 246.281H212.598C213.359 246.281 214.072 246.417 214.739 246.688C215.416 246.958 216.004 247.349 216.504 247.859C217.004 248.37 217.395 248.984 217.676 249.703C217.968 250.411 218.114 251.214 218.114 252.109C218.114 252.995 217.978 253.885 217.707 254.781C217.447 255.677 217.098 256.557 216.661 257.422C216.234 258.286 215.739 259.125 215.176 259.938C214.624 260.75 214.056 261.516 213.473 262.234C212.109 263.911 210.562 265.526 208.832 267.078H218.27V269H205.661V267.406C207.609 265.802 209.348 264.141 210.879 262.422C211.536 261.682 212.176 260.896 212.801 260.062C213.426 259.229 213.984 258.375 214.473 257.5C214.963 256.615 215.353 255.719 215.645 254.812C215.947 253.896 216.098 252.995 216.098 252.109C216.098 251.453 215.999 250.88 215.801 250.391C215.603 249.901 215.338 249.495 215.004 249.172C214.671 248.849 214.286 248.609 213.848 248.453C213.421 248.286 212.973 248.203 212.504 248.203H211.739ZM243.05 263.812C243.05 264.573 242.904 265.286 242.612 265.953C242.331 266.62 241.941 267.203 241.441 267.703C240.941 268.203 240.357 268.599 239.691 268.891C239.024 269.172 238.31 269.312 237.55 269.312H236.597C235.836 269.312 235.118 269.172 234.441 268.891C233.774 268.599 233.191 268.203 232.691 267.703C232.191 267.203 231.795 266.62 231.503 265.953C231.222 265.286 231.081 264.573 231.081 263.812V263.234L233.097 262.922V263.812C233.097 264.312 233.191 264.781 233.378 265.219C233.566 265.646 233.821 266.026 234.144 266.359C234.477 266.682 234.857 266.938 235.284 267.125C235.722 267.312 236.191 267.406 236.691 267.406H237.456C237.956 267.406 238.42 267.312 238.847 267.125C239.284 266.938 239.665 266.682 239.987 266.359C240.31 266.026 240.566 265.646 240.753 265.219C240.941 264.781 241.034 264.312 241.034 263.812V261.953C241.034 261.453 240.941 260.99 240.753 260.562C240.566 260.125 240.31 259.745 239.987 259.422C239.665 259.099 239.284 258.844 238.847 258.656C238.42 258.469 237.956 258.375 237.456 258.375H235.956V256.453H237.456C237.956 256.453 238.42 256.359 238.847 256.172C239.284 255.984 239.665 255.729 239.987 255.406C240.31 255.083 240.566 254.708 240.753 254.281C240.941 253.844 241.034 253.375 241.034 252.875V251.781C241.034 251.281 240.941 250.818 240.753 250.391C240.566 249.953 240.31 249.573 239.987 249.25C239.665 248.927 239.284 248.672 238.847 248.484C238.42 248.297 237.956 248.203 237.456 248.203H236.691C236.191 248.203 235.722 248.297 235.284 248.484C234.857 248.672 234.477 248.927 234.144 249.25C233.821 249.573 233.566 249.953 233.378 250.391C233.191 250.818 233.097 251.281 233.097 251.781V252.688L231.081 252.359V251.781C231.081 251.021 231.222 250.307 231.503 249.641C231.795 248.974 232.191 248.391 232.691 247.891C233.191 247.391 233.774 247 234.441 246.719C235.118 246.427 235.836 246.281 236.597 246.281H237.55C238.31 246.281 239.024 246.427 239.691 246.719C240.357 247 240.941 247.391 241.441 247.891C241.941 248.391 242.331 248.974 242.612 249.641C242.904 250.307 243.05 251.021 243.05 251.781V252.547C243.05 253.078 242.977 253.589 242.831 254.078C242.696 254.557 242.498 255.005 242.237 255.422C241.987 255.839 241.685 256.219 241.331 256.562C240.977 256.896 240.581 257.182 240.144 257.422C240.581 257.651 240.977 257.938 241.331 258.281C241.685 258.615 241.987 258.99 242.237 259.406C242.498 259.823 242.696 260.276 242.831 260.766C242.977 261.245 243.05 261.75 243.05 262.281V263.812ZM265.939 265.125V269H263.924V265.125H254.924V264.172L264.877 246.594H265.939V263.203H267.861V265.125H265.939ZM263.924 252.109L257.752 263.203H263.924V252.109ZM292.954 263.812C292.954 264.573 292.808 265.286 292.516 265.953C292.235 266.62 291.844 267.203 291.344 267.703C290.844 268.203 290.261 268.599 289.594 268.891C288.928 269.172 288.214 269.312 287.454 269.312H286.501C285.74 269.312 285.021 269.172 284.344 268.891C283.678 268.599 283.094 268.203 282.594 267.703C282.094 267.203 281.699 266.62 281.407 265.953C281.126 265.286 280.985 264.573 280.985 263.812V263.469H283.001V263.812C283.001 264.312 283.094 264.781 283.282 265.219C283.469 265.646 283.725 266.026 284.048 266.359C284.381 266.682 284.761 266.938 285.188 267.125C285.626 267.312 286.094 267.406 286.594 267.406H287.36C287.86 267.406 288.324 267.312 288.751 267.125C289.188 266.938 289.568 266.682 289.891 266.359C290.214 266.026 290.469 265.646 290.657 265.219C290.844 264.781 290.938 264.312 290.938 263.812V259.469C290.938 258.969 290.844 258.505 290.657 258.078C290.469 257.641 290.214 257.26 289.891 256.938C289.568 256.604 289.188 256.344 288.751 256.156C288.324 255.969 287.86 255.875 287.36 255.875H286.594C286.094 255.875 285.626 255.969 285.188 256.156C284.761 256.344 284.381 256.604 284.048 256.938C283.725 257.26 283.469 257.641 283.282 258.078C283.094 258.505 283.001 258.969 283.001 259.469H280.985L282.266 246.594H291.844V248.516H284.157L283.423 255.406C283.902 254.948 284.459 254.594 285.094 254.344C285.73 254.083 286.412 253.953 287.141 253.953H287.454C288.214 253.953 288.928 254.099 289.594 254.391C290.261 254.672 290.844 255.062 291.344 255.562C291.844 256.062 292.235 256.651 292.516 257.328C292.808 257.995 292.954 258.708 292.954 259.469V263.812ZM318.406 263.812C318.406 264.573 318.26 265.286 317.968 265.953C317.687 266.62 317.296 267.203 316.796 267.703C316.296 268.203 315.713 268.599 315.046 268.891C314.38 269.172 313.666 269.312 312.906 269.312H311.937C311.176 269.312 310.463 269.172 309.796 268.891C309.13 268.599 308.546 268.203 308.046 267.703C307.546 267.203 307.15 266.62 306.859 265.953C306.577 265.286 306.437 264.573 306.437 263.812V251.781C306.437 251.021 306.577 250.307 306.859 249.641C307.15 248.974 307.546 248.391 308.046 247.891C308.546 247.391 309.13 247 309.796 246.719C310.463 246.427 311.176 246.281 311.937 246.281H312.906C313.666 246.281 314.38 246.427 315.046 246.719C315.713 247 316.296 247.391 316.796 247.891C317.296 248.391 317.687 248.974 317.968 249.641C318.26 250.307 318.406 251.021 318.406 251.781V252.359L316.39 252.688V251.781C316.39 251.281 316.296 250.818 316.109 250.391C315.921 249.953 315.661 249.573 315.327 249.25C315.005 248.927 314.624 248.672 314.187 248.484C313.76 248.297 313.296 248.203 312.796 248.203H312.031C311.531 248.203 311.062 248.297 310.624 248.484C310.197 248.672 309.822 248.927 309.499 249.25C309.176 249.573 308.921 249.953 308.734 250.391C308.546 250.818 308.452 251.281 308.452 251.781V257.359C308.963 256.797 309.572 256.349 310.281 256.016C310.999 255.672 311.765 255.5 312.577 255.5H312.906C313.666 255.5 314.38 255.646 315.046 255.938C315.713 256.219 316.296 256.609 316.796 257.109C317.296 257.609 317.687 258.193 317.968 258.859C318.26 259.526 318.406 260.24 318.406 261V263.812ZM316.39 261C316.39 260.5 316.296 260.036 316.109 259.609C315.921 259.172 315.661 258.792 315.327 258.469C315.005 258.146 314.624 257.891 314.187 257.703C313.76 257.516 313.296 257.422 312.796 257.422H312.031C311.531 257.422 311.062 257.516 310.624 257.703C310.197 257.891 309.822 258.146 309.499 258.469C309.176 258.792 308.921 259.172 308.734 259.609C308.546 260.036 308.452 260.5 308.452 261V263.812C308.452 264.312 308.546 264.781 308.734 265.219C308.921 265.646 309.176 266.026 309.499 266.359C309.822 266.682 310.197 266.938 310.624 267.125C311.062 267.312 311.531 267.406 312.031 267.406H312.796C313.296 267.406 313.76 267.312 314.187 267.125C314.624 266.938 315.005 266.682 315.327 266.359C315.661 266.026 315.921 265.646 316.109 265.219C316.296 264.781 316.39 264.312 316.39 263.812V261ZM335.076 269H332.967L341.357 248.516H333.576V251.5H331.561V246.594H343.842V247.562L335.076 269ZM368.325 263.812C368.325 264.573 368.179 265.286 367.888 265.953C367.606 266.62 367.216 267.203 366.716 267.703C366.216 268.203 365.632 268.599 364.966 268.891C364.299 269.172 363.585 269.312 362.825 269.312H361.872C361.111 269.312 360.393 269.172 359.716 268.891C359.049 268.599 358.466 268.203 357.966 267.703C357.466 267.203 357.07 266.62 356.778 265.953C356.497 265.286 356.356 264.573 356.356 263.812V261.953C356.356 261.005 356.575 260.141 357.013 259.359C357.46 258.568 358.044 257.922 358.763 257.422C358.044 256.922 357.46 256.276 357.013 255.484C356.575 254.693 356.356 253.823 356.356 252.875V251.781C356.356 251.021 356.497 250.307 356.778 249.641C357.07 248.974 357.466 248.391 357.966 247.891C358.466 247.391 359.049 247 359.716 246.719C360.393 246.427 361.111 246.281 361.872 246.281H362.825C363.585 246.281 364.299 246.427 364.966 246.719C365.632 247 366.216 247.391 366.716 247.891C367.216 248.391 367.606 248.974 367.888 249.641C368.179 250.307 368.325 251.021 368.325 251.781V252.875C368.325 253.823 368.106 254.693 367.669 255.484C367.231 256.276 366.653 256.922 365.934 257.422C366.653 257.922 367.231 258.568 367.669 259.359C368.106 260.141 368.325 261.005 368.325 261.953V263.812ZM366.309 251.781C366.309 251.281 366.216 250.818 366.028 250.391C365.841 249.953 365.585 249.573 365.263 249.25C364.94 248.927 364.559 248.672 364.122 248.484C363.695 248.297 363.231 248.203 362.731 248.203H361.966C361.466 248.203 360.997 248.297 360.559 248.484C360.132 248.672 359.752 248.927 359.419 249.25C359.096 249.573 358.841 249.953 358.653 250.391C358.466 250.818 358.372 251.281 358.372 251.781V252.875C358.372 253.375 358.466 253.844 358.653 254.281C358.841 254.708 359.096 255.083 359.419 255.406C359.752 255.729 360.132 255.984 360.559 256.172C360.997 256.359 361.466 256.453 361.966 256.453H362.731C363.231 256.453 363.695 256.359 364.122 256.172C364.559 255.984 364.94 255.729 365.263 255.406C365.585 255.083 365.841 254.708 366.028 254.281C366.216 253.844 366.309 253.375 366.309 252.875V251.781ZM366.309 261.953C366.309 261.453 366.216 260.99 366.028 260.562C365.841 260.125 365.585 259.745 365.263 259.422C364.94 259.099 364.559 258.844 364.122 258.656C363.695 258.469 363.231 258.375 362.731 258.375H361.966C361.466 258.375 360.997 258.469 360.559 258.656C360.132 258.844 359.752 259.099 359.419 259.422C359.096 259.745 358.841 260.125 358.653 260.562C358.466 260.99 358.372 261.453 358.372 261.953V263.812C358.372 264.312 358.466 264.781 358.653 265.219C358.841 265.646 359.096 266.026 359.419 266.359C359.752 266.682 360.132 266.938 360.559 267.125C360.997 267.312 361.466 267.406 361.966 267.406H362.731C363.231 267.406 363.695 267.312 364.122 267.125C364.559 266.938 364.94 266.682 365.263 266.359C365.585 266.026 365.841 265.646 366.028 265.219C366.216 264.781 366.309 264.312 366.309 263.812V261.953ZM393.777 263.812C393.777 264.573 393.631 265.286 393.339 265.953C393.058 266.62 392.668 267.203 392.168 267.703C391.668 268.203 391.084 268.599 390.418 268.891C389.751 269.172 389.037 269.312 388.277 269.312H387.308C386.548 269.312 385.834 269.172 385.168 268.891C384.501 268.599 383.918 268.203 383.418 267.703C382.918 267.203 382.522 266.62 382.23 265.953C381.949 265.286 381.808 264.573 381.808 263.812V263.234L383.824 262.922V263.812C383.824 264.312 383.918 264.781 384.105 265.219C384.293 265.646 384.548 266.026 384.871 266.359C385.194 266.682 385.569 266.938 385.996 267.125C386.433 267.312 386.902 267.406 387.402 267.406H388.168C388.668 267.406 389.131 267.312 389.558 267.125C389.996 266.938 390.376 266.682 390.699 266.359C391.032 266.026 391.293 265.646 391.48 265.219C391.668 264.781 391.761 264.312 391.761 263.812V258.25C391.24 258.812 390.626 259.266 389.918 259.609C389.209 259.943 388.449 260.109 387.636 260.109H387.308C386.548 260.109 385.834 259.969 385.168 259.688C384.501 259.396 383.918 259 383.418 258.5C382.918 258 382.522 257.417 382.23 256.75C381.949 256.073 381.808 255.354 381.808 254.594V251.781C381.808 251.021 381.949 250.307 382.23 249.641C382.522 248.974 382.918 248.391 383.418 247.891C383.918 247.391 384.501 247 385.168 246.719C385.834 246.427 386.548 246.281 387.308 246.281H388.277C389.037 246.281 389.751 246.427 390.418 246.719C391.084 247 391.668 247.391 392.168 247.891C392.668 248.391 393.058 248.974 393.339 249.641C393.631 250.307 393.777 251.021 393.777 251.781V263.812ZM391.761 251.781C391.761 251.281 391.668 250.818 391.48 250.391C391.293 249.953 391.032 249.573 390.699 249.25C390.376 248.927 389.996 248.672 389.558 248.484C389.131 248.297 388.668 248.203 388.168 248.203H387.402C386.902 248.203 386.433 248.297 385.996 248.484C385.569 248.672 385.194 248.927 384.871 249.25C384.548 249.573 384.293 249.953 384.105 250.391C383.918 250.818 383.824 251.281 383.824 251.781V254.594C383.824 255.094 383.918 255.562 384.105 256C384.293 256.427 384.548 256.807 384.871 257.141C385.194 257.464 385.569 257.719 385.996 257.906C386.433 258.094 386.902 258.188 387.402 258.188H388.168C388.668 258.188 389.131 258.094 389.558 257.906C389.996 257.719 390.376 257.464 390.699 257.141C391.032 256.807 391.293 256.427 391.48 256C391.668 255.562 391.761 255.094 391.761 254.594V251.781ZM418.573 263.812C418.573 264.573 418.427 265.286 418.135 265.953C417.854 266.62 417.463 267.203 416.963 267.703C416.463 268.203 415.88 268.599 415.213 268.891C414.546 269.172 413.833 269.312 413.073 269.312H412.119C411.359 269.312 410.64 269.172 409.963 268.891C409.296 268.599 408.713 268.203 408.213 267.703C407.713 267.203 407.317 266.62 407.026 265.953C406.744 265.286 406.604 264.573 406.604 263.812V251.781C406.604 251.021 406.744 250.307 407.026 249.641C407.317 248.974 407.713 248.391 408.213 247.891C408.713 247.391 409.296 247 409.963 246.719C410.64 246.427 411.359 246.281 412.119 246.281H413.073C413.833 246.281 414.546 246.427 415.213 246.719C415.88 247 416.463 247.391 416.963 247.891C417.463 248.391 417.854 248.974 418.135 249.641C418.427 250.307 418.573 251.021 418.573 251.781V263.812ZM416.557 251.781C416.557 251.281 416.463 250.818 416.276 250.391C416.088 249.953 415.833 249.573 415.51 249.25C415.187 248.927 414.807 248.672 414.369 248.484C413.942 248.297 413.479 248.203 412.979 248.203H412.213C411.713 248.203 411.244 248.297 410.807 248.484C410.38 248.672 410 248.927 409.666 249.25C409.343 249.573 409.088 249.953 408.901 250.391C408.713 250.818 408.619 251.281 408.619 251.781V263.812C408.619 264.312 408.713 264.781 408.901 265.219C409.088 265.646 409.343 266.026 409.666 266.359C410 266.682 410.38 266.938 410.807 267.125C411.244 267.312 411.713 267.406 412.213 267.406H412.979C413.479 267.406 413.942 267.312 414.369 267.125C414.807 266.938 415.187 266.682 415.51 266.359C415.833 266.026 416.088 265.646 416.276 265.219C416.463 264.781 416.557 264.312 416.557 263.812V251.781Z" fill="#F4C430"/>
</svg>
