<svg width="350" height="350" viewBox="0 0 350 350" fill="none" xmlns="http://www.w3.org/2000/svg">
<path d="M175 265V105M175 265H235M175 265H115M175 105V85M175 105L183.889 96.1111M175 135L159.444 119.444M121.793 141.793C117.173 163.854 125.219 192.664 144.523 207.143C163.828 221.621 175 220 175 220C175 220 186.172 221.621 205.477 207.143C224.781 192.664 232.827 163.854 228.207 141.793M121.793 141.793L175 195L228.207 141.793M121.793 141.793C123.334 134.43 126.287 127.263 130.702 120.702M130.702 120.702C131.627 119.327 132.617 117.979 133.671 116.661L143.889 103.889M130.702 120.702L175 165L219.298 120.702C223.713 127.263 226.665 134.43 228.207 141.793" stroke="#F4C430" stroke-width="3.5" stroke-linecap="round" stroke-linejoin="round"/>
</svg>
