<svg width="560" height="560" viewBox="0 0 560 560" fill="none" xmlns="http://www.w3.org/2000/svg">
<path d="M132.7 430.656C132.828 430.229 133.105 429.867 133.532 429.568C133.959 429.227 134.385 429.056 134.812 429.056C135.281 429.056 135.687 429.269 136.028 429.696C136.412 430.08 136.604 430.507 136.604 430.976C136.604 433.067 135.281 435.2 132.636 437.376C129.991 439.552 126.919 440.64 123.42 440.64C118.556 440.64 114.503 438.848 111.26 435.264C108.06 431.637 106.46 426.475 106.46 419.776C106.46 413.077 108.081 407.872 111.324 404.16C114.609 400.405 118.449 398.528 122.844 398.528C125.148 398.528 127.153 398.997 128.86 399.936C130.609 400.875 131.484 402.283 131.484 404.16C131.484 404.843 131.271 405.44 130.844 405.952C130.46 406.464 129.82 406.72 128.924 406.72C128.028 406.72 127.175 406.336 126.364 405.568C125.596 404.8 125.212 403.989 125.212 403.136C125.212 402.965 125.319 402.603 125.532 402.048C124.849 401.749 123.868 401.6 122.588 401.6C119.303 401.6 116.423 403.285 113.948 406.656C111.473 410.027 110.236 414.208 110.236 419.2C110.236 422.059 110.727 424.853 111.708 427.584C112.689 430.315 114.183 432.64 116.188 434.56C118.236 436.48 120.455 437.44 122.844 437.44C125.233 437.44 127.324 436.8 129.116 435.52C130.908 434.197 132.103 432.576 132.7 430.656ZM172.458 419.584C172.458 426.155 170.858 431.317 167.657 435.072C164.457 438.784 160.49 440.64 155.753 440.64C151.06 440.64 147.113 438.741 143.913 434.944C140.756 431.147 139.177 425.963 139.177 419.392C139.177 412.821 140.777 407.701 143.977 404.032C147.177 400.363 151.124 398.528 155.817 398.528C160.553 398.528 164.5 400.384 167.657 404.096C170.858 407.808 172.458 412.971 172.458 419.584ZM167.209 411.328C166.271 408.597 164.799 406.293 162.793 404.416C160.788 402.539 158.441 401.6 155.753 401.6C153.108 401.6 150.783 402.475 148.777 404.224C146.772 405.973 145.279 408.171 144.297 410.816C143.359 413.419 142.889 416.192 142.889 419.136C142.889 423.659 144.084 427.861 146.473 431.744C148.863 435.627 151.999 437.568 155.882 437.568C159.764 437.568 162.858 435.755 165.162 432.128C167.508 428.501 168.681 424.384 168.681 419.776C168.681 416.832 168.191 414.016 167.209 411.328ZM175.325 430.848C175.325 429.397 175.709 428.224 176.477 427.328C177.245 426.389 178.013 425.92 178.781 425.92C179.592 425.92 180.21 426.197 180.637 426.752C181.106 427.307 181.341 427.968 181.341 428.736C181.341 430.315 180.765 431.573 179.613 432.512C180.082 434.347 181.042 435.712 182.493 436.608C183.986 437.461 185.629 437.888 187.421 437.888C190.066 437.888 192.157 436.992 193.693 435.2C195.272 433.408 196.061 431.403 196.061 429.184C196.061 426.923 195.208 424.981 193.501 423.36C192.221 422.208 190.578 420.971 188.573 419.648L185.309 417.536C182.962 416.043 181.17 414.507 179.933 412.928C178.696 411.307 178.077 409.323 178.077 406.976C178.077 404.587 178.973 402.581 180.765 400.96C182.557 399.296 184.669 398.464 187.101 398.464C189.576 398.464 191.645 399.019 193.309 400.128C194.973 401.237 195.805 402.581 195.805 404.16C195.805 404.928 195.57 405.547 195.101 406.016C194.674 406.443 194.034 406.656 193.181 406.656C192.328 406.656 191.496 406.293 190.685 405.568C189.917 404.843 189.533 404.181 189.533 403.584C189.533 402.987 189.597 402.496 189.725 402.112C189.341 401.387 188.445 401.024 187.037 401.024C185.629 401.024 184.37 401.579 183.261 402.688C182.194 403.797 181.661 405.035 181.661 406.4C181.661 408.619 183.666 411.051 187.677 413.696L190.941 415.872C192.349 416.853 193.394 417.621 194.077 418.176C194.802 418.688 195.698 419.499 196.765 420.608C198.813 422.741 199.837 425.557 199.837 429.056C199.837 432.555 198.621 435.371 196.189 437.504C193.757 439.637 190.877 440.704 187.549 440.704C184.221 440.704 181.341 439.701 178.909 437.696C176.52 435.648 175.325 433.365 175.325 430.848ZM235.185 436.672C236.167 436.672 236.657 437.227 236.657 438.336C236.657 439.445 236.167 440 235.185 440H228.145C227.121 440 226.609 439.445 226.609 438.336C226.609 437.227 227.121 436.672 228.145 436.672H229.617L227.761 430.848H210.673L208.881 436.672H210.417C211.441 436.672 211.953 437.227 211.953 438.336C211.953 439.445 211.441 440 210.417 440H203.953C202.929 440 202.417 439.445 202.417 438.336C202.417 437.227 202.929 436.672 203.953 436.672H205.553L216.177 402.56H213.617C212.636 402.56 212.145 402.005 212.145 400.896C212.145 399.744 212.636 399.168 213.617 399.168H220.209C221.148 399.168 221.724 399.467 221.937 400.064L233.585 436.672H235.185ZM211.505 427.776H226.993L219.185 402.816L211.505 427.776ZM286.557 399.168C287.624 399.168 288.157 399.744 288.157 400.896C288.157 402.005 287.624 402.56 286.557 402.56H284.829V438.528C284.829 439.68 284.253 440.256 283.101 440.256C282.077 440.256 281.373 439.851 280.989 439.04L263.837 406.208V436.672H265.309C266.333 436.672 266.845 437.227 266.845 438.336C266.845 439.445 266.333 440 265.309 440H258.973C257.949 440 257.437 439.445 257.437 438.336C257.437 437.227 257.949 436.672 258.973 436.672H260.509V402.56H258.973C257.949 402.56 257.437 402.005 257.437 400.896C257.437 399.744 257.949 399.168 258.973 399.168H263.261C263.901 399.168 264.392 399.509 264.733 400.192L281.501 432.256V402.56H279.837C278.813 402.56 278.301 402.005 278.301 400.896C278.301 399.744 278.813 399.168 279.837 399.168H286.557ZM325.295 419.584C325.295 426.155 323.695 431.317 320.495 435.072C317.295 438.784 313.327 440.64 308.591 440.64C303.898 440.64 299.951 438.741 296.751 434.944C293.594 431.147 292.015 425.963 292.015 419.392C292.015 412.821 293.615 407.701 296.815 404.032C300.015 400.363 303.962 398.528 308.655 398.528C313.391 398.528 317.338 400.384 320.495 404.096C323.695 407.808 325.295 412.971 325.295 419.584ZM320.047 411.328C319.108 408.597 317.636 406.293 315.631 404.416C313.626 402.539 311.279 401.6 308.591 401.6C305.946 401.6 303.62 402.475 301.615 404.224C299.61 405.973 298.116 408.171 297.135 410.816C296.196 413.419 295.727 416.192 295.727 419.136C295.727 423.659 296.922 427.861 299.311 431.744C301.7 435.627 304.836 437.568 308.719 437.568C312.602 437.568 315.695 435.755 317.999 432.128C320.346 428.501 321.519 424.384 321.519 419.776C321.519 416.832 321.028 414.016 320.047 411.328ZM328.163 430.848C328.163 429.397 328.547 428.224 329.315 427.328C330.083 426.389 330.851 425.92 331.619 425.92C332.429 425.92 333.048 426.197 333.475 426.752C333.944 427.307 334.179 427.968 334.179 428.736C334.179 430.315 333.603 431.573 332.451 432.512C332.92 434.347 333.88 435.712 335.331 436.608C336.824 437.461 338.467 437.888 340.259 437.888C342.904 437.888 344.995 436.992 346.531 435.2C348.109 433.408 348.899 431.403 348.899 429.184C348.899 426.923 348.045 424.981 346.339 423.36C345.059 422.208 343.416 420.971 341.411 419.648L338.147 417.536C335.8 416.043 334.008 414.507 332.771 412.928C331.533 411.307 330.915 409.323 330.915 406.976C330.915 404.587 331.811 402.581 333.603 400.96C335.395 399.296 337.507 398.464 339.939 398.464C342.413 398.464 344.483 399.019 346.147 400.128C347.811 401.237 348.643 402.581 348.643 404.16C348.643 404.928 348.408 405.547 347.939 406.016C347.512 406.443 346.872 406.656 346.019 406.656C345.165 406.656 344.333 406.293 343.523 405.568C342.755 404.843 342.371 404.181 342.371 403.584C342.371 402.987 342.435 402.496 342.563 402.112C342.179 401.387 341.283 401.024 339.875 401.024C338.467 401.024 337.208 401.579 336.099 402.688C335.032 403.797 334.499 405.035 334.499 406.4C334.499 408.619 336.504 411.051 340.515 413.696L343.779 415.872C345.187 416.853 346.232 417.621 346.915 418.176C347.64 418.688 348.536 419.499 349.603 420.608C351.651 422.741 352.675 425.557 352.675 429.056C352.675 432.555 351.459 435.371 349.027 437.504C346.595 439.637 343.715 440.704 340.387 440.704C337.059 440.704 334.179 439.701 331.747 437.696C329.357 435.648 328.163 433.365 328.163 430.848ZM358.455 396.416C358.967 396.416 359.394 396.587 359.735 396.928C360.076 397.227 360.247 397.547 360.247 397.888C360.247 398.229 360.098 398.656 359.799 399.168H380.343L380.535 398.592C380.919 397.397 381.559 396.8 382.455 396.8C382.924 396.8 383.33 396.971 383.671 397.312C384.055 397.611 384.247 397.973 384.247 398.4C384.247 398.827 384.14 399.253 383.927 399.68L381.559 404.096C381.175 404.821 380.77 405.184 380.343 405.184C379.447 405.184 378.999 404.779 378.999 403.968C378.999 403.712 379.042 403.499 379.127 403.328L379.447 402.24H370.743V436.672H372.407C373.431 436.672 373.943 437.227 373.943 438.336C373.943 439.445 373.431 440 372.407 440H365.495C364.471 440 363.959 439.445 363.959 438.336C363.959 437.227 364.471 436.672 365.495 436.672H367.095V402.24H358.455L357.431 403.904C357.09 404.416 356.706 404.672 356.279 404.672C355.852 404.672 355.511 404.565 355.255 404.352C355.042 404.096 354.935 403.819 354.935 403.52C354.935 403.179 354.999 402.859 355.127 402.56L356.663 398.016C357.004 396.949 357.602 396.416 358.455 396.416ZM410.92 438.016C410.92 436.949 411.262 435.989 411.944 435.136C412.627 434.283 413.331 433.856 414.056 433.856C415.507 433.856 416.232 434.603 416.232 436.096C416.232 437.291 415.72 438.357 414.696 439.296C413.715 440.192 412.478 440.64 410.984 440.64C407.87 440.64 405.288 438.677 403.24 434.752C402.387 433.088 401.64 431.893 401 431.168C399.891 429.973 398.462 429.376 396.712 429.376C395.006 429.376 394.152 429.525 394.152 429.824V436.672H395.88C396.904 436.672 397.416 437.227 397.416 438.336C397.416 439.445 396.904 440 395.88 440H388.968C387.944 440 387.432 439.445 387.432 438.336C387.432 437.227 387.944 436.672 388.968 436.672H390.504V402.56H388.968C387.944 402.56 387.432 402.005 387.432 400.896C387.432 399.744 387.944 399.168 388.968 399.168H395.56C401.406 399.168 406.142 400.448 409.768 403.008C413.395 405.568 415.208 409.195 415.208 413.888C415.208 417.856 413.992 421.248 411.56 424.064C409.171 426.837 406.056 428.373 402.216 428.672C404.734 429.397 406.44 431.04 407.336 433.6C407.891 435.179 408.382 436.288 408.808 436.928C409.278 437.525 409.982 437.888 410.92 438.016ZM399.464 426.24C403.048 426.24 405.992 425.131 408.296 422.912C410.6 420.651 411.752 417.643 411.752 413.888C411.752 410.133 410.302 407.232 407.4 405.184C404.499 403.093 401 402.048 396.904 402.048C395.07 402.048 394.152 402.325 394.152 402.88V425.536C394.152 426.005 395.923 426.24 399.464 426.24ZM451.895 436.672C452.877 436.672 453.367 437.227 453.367 438.336C453.367 439.445 452.877 440 451.895 440H444.855C443.831 440 443.319 439.445 443.319 438.336C443.319 437.227 443.831 436.672 444.855 436.672H446.327L444.471 430.848H427.383L425.591 436.672H427.127C428.151 436.672 428.663 437.227 428.663 438.336C428.663 439.445 428.151 440 427.127 440H420.663C419.639 440 419.127 439.445 419.127 438.336C419.127 437.227 419.639 436.672 420.663 436.672H422.263L432.887 402.56H430.327C429.346 402.56 428.855 402.005 428.855 400.896C428.855 399.744 429.346 399.168 430.327 399.168H436.919C437.858 399.168 438.434 399.467 438.647 400.064L450.295 436.672H451.895ZM428.215 427.776H443.703L435.895 402.816L428.215 427.776Z" fill="#0D0C0C"/>
<path d="M157.5 486L157.798 484.189C158.634 479.113 162.613 475.134 167.689 474.298L169.5 474L167.689 473.702C162.613 472.866 158.634 468.887 157.798 463.811L157.5 462L157.202 463.811C156.366 468.887 152.387 472.866 147.311 473.702L145.5 474L147.311 474.298C152.387 475.134 156.366 479.113 157.202 484.189L157.5 486Z" fill="#0D0C0C"/>
<path d="M204.879 477.875C204.879 478.445 204.77 478.98 204.551 479.48C204.34 479.98 204.047 480.418 203.672 480.793C203.297 481.168 202.855 481.465 202.348 481.684C201.848 481.895 201.312 482 200.742 482H195.422V465.195H200.742C201.312 465.195 201.848 465.305 202.348 465.523C202.855 465.734 203.297 466.027 203.672 466.402C204.047 466.777 204.34 467.219 204.551 467.727C204.77 468.227 204.879 468.762 204.879 469.332V469.496C204.879 469.895 204.824 470.277 204.715 470.645C204.613 471.004 204.465 471.34 204.27 471.652C204.074 471.965 203.844 472.25 203.578 472.508C203.312 472.758 203.016 472.969 202.688 473.141C203.016 473.312 203.312 473.527 203.578 473.785C203.844 474.035 204.074 474.32 204.27 474.641C204.465 474.953 204.613 475.293 204.715 475.66C204.824 476.02 204.879 476.398 204.879 476.797V477.875ZM203.367 476.551C203.367 476.176 203.297 475.828 203.156 475.508C203.016 475.18 202.82 474.895 202.57 474.652C202.328 474.41 202.043 474.219 201.715 474.078C201.395 473.938 201.047 473.867 200.672 473.867H196.934V480.559H200.672C201.047 480.559 201.395 480.488 201.715 480.348C202.043 480.207 202.328 480.016 202.57 479.773C202.82 479.531 203.016 479.25 203.156 478.93C203.297 478.602 203.367 478.25 203.367 477.875V476.551ZM203.367 469.332C203.367 468.957 203.297 468.609 203.156 468.289C203.016 467.961 202.82 467.676 202.57 467.434C202.328 467.184 202.043 466.988 201.715 466.848C201.395 466.707 201.047 466.637 200.672 466.637H196.934V472.426H200.672C201.047 472.426 201.395 472.355 201.715 472.215C202.043 472.074 202.328 471.883 202.57 471.641C202.82 471.391 203.016 471.105 203.156 470.785C203.297 470.457 203.367 470.105 203.367 469.73V469.332ZM214.828 482L214.031 480.805C213.703 481.234 213.293 481.582 212.801 481.848C212.309 482.105 211.77 482.234 211.184 482.234H210.82C210.336 482.234 209.879 482.145 209.449 481.965C209.02 481.777 208.645 481.523 208.324 481.203C208.004 480.883 207.75 480.508 207.562 480.078C207.383 479.648 207.293 479.191 207.293 478.707V478.59C207.293 478.105 207.383 477.648 207.562 477.219C207.75 476.789 208.004 476.414 208.324 476.094C208.645 475.773 209.02 475.523 209.449 475.344C209.879 475.156 210.336 475.062 210.82 475.062H213.867V473.211C213.867 472.922 213.812 472.652 213.703 472.402C213.594 472.145 213.445 471.922 213.258 471.734C213.07 471.547 212.848 471.398 212.59 471.289C212.34 471.18 212.07 471.125 211.781 471.125H210.938C210.648 471.125 210.375 471.18 210.117 471.289C209.867 471.398 209.648 471.547 209.461 471.734C209.273 471.922 209.125 472.145 209.016 472.402C208.906 472.652 208.852 472.922 208.852 473.211V473.645L207.41 473.41V473.293C207.41 472.809 207.5 472.352 207.68 471.922C207.867 471.492 208.121 471.117 208.441 470.797C208.762 470.477 209.137 470.227 209.566 470.047C209.996 469.859 210.453 469.766 210.938 469.766H211.781C212.266 469.766 212.723 469.859 213.152 470.047C213.582 470.227 213.957 470.477 214.277 470.797C214.598 471.117 214.848 471.492 215.027 471.922C215.215 472.352 215.309 472.809 215.309 473.293V482H214.828ZM213.867 476.188H210.82C210.531 476.188 210.258 476.242 210 476.352C209.75 476.461 209.531 476.613 209.344 476.809C209.156 476.996 209.008 477.219 208.898 477.477C208.789 477.727 208.734 477.996 208.734 478.285V478.789C208.734 479.078 208.789 479.352 208.898 479.609C209.008 479.859 209.156 480.078 209.344 480.266C209.531 480.453 209.75 480.602 210 480.711C210.258 480.82 210.531 480.875 210.82 480.875H211.781C212.07 480.875 212.34 480.82 212.59 480.711C212.848 480.602 213.07 480.453 213.258 480.266C213.445 480.078 213.594 479.859 213.703 479.609C213.812 479.352 213.867 479.078 213.867 478.789V476.188ZM221.719 471.371C221.43 471.371 221.156 471.426 220.898 471.535C220.648 471.645 220.43 471.793 220.242 471.98C220.055 472.168 219.906 472.391 219.797 472.648C219.688 472.898 219.633 473.168 219.633 473.457V482H218.191V470H218.672L219.457 471.219C219.785 470.773 220.195 470.422 220.688 470.164C221.188 469.898 221.73 469.766 222.316 469.766H223.16V471.371H221.719ZM241.969 482.234C241.289 482.234 240.695 482.09 240.188 481.801C239.688 481.512 239.289 481.121 238.992 480.629C238.602 481.121 238.121 481.512 237.551 481.801C236.98 482.09 236.363 482.234 235.699 482.234H234.984C234.414 482.234 233.875 482.129 233.367 481.918C232.867 481.699 232.43 481.402 232.055 481.027C231.68 480.652 231.383 480.215 231.164 479.715C230.953 479.215 230.848 478.68 230.848 478.109V477.195C230.848 476.797 230.898 476.418 231 476.059C231.109 475.691 231.262 475.352 231.457 475.039C231.652 474.727 231.883 474.445 232.148 474.195C232.414 473.938 232.711 473.723 233.039 473.551C232.711 473.379 232.414 473.168 232.148 472.918C231.883 472.66 231.652 472.375 231.457 472.062C231.262 471.75 231.109 471.414 231 471.055C230.898 470.688 230.848 470.305 230.848 469.906V469.086C230.848 468.516 230.953 467.98 231.164 467.48C231.383 466.98 231.68 466.543 232.055 466.168C232.43 465.793 232.867 465.5 233.367 465.289C233.875 465.07 234.414 464.961 234.984 464.961H235.699C236.27 464.961 236.805 465.07 237.305 465.289C237.805 465.5 238.242 465.793 238.617 466.168C238.992 466.543 239.285 466.98 239.496 467.48C239.715 467.98 239.824 468.516 239.824 469.086V469.203L238.312 469.449V469.086C238.312 468.711 238.242 468.363 238.102 468.043C237.961 467.715 237.77 467.43 237.527 467.188C237.285 466.945 237 466.754 236.672 466.613C236.352 466.473 236.004 466.402 235.629 466.402H235.055C234.68 466.402 234.328 466.473 234 466.613C233.68 466.754 233.395 466.945 233.145 467.188C232.902 467.43 232.711 467.715 232.57 468.043C232.43 468.363 232.359 468.711 232.359 469.086V470.141C232.359 470.516 232.43 470.867 232.57 471.195C232.711 471.516 232.902 471.801 233.145 472.051C233.395 472.293 233.68 472.484 234 472.625C234.328 472.766 234.68 472.836 235.055 472.836H238.312V471.301L239.824 471.055V472.812H242.156V474.242H239.824V478.285C239.84 478.637 239.895 478.965 239.988 479.27C240.082 479.574 240.219 479.844 240.398 480.078C240.586 480.305 240.816 480.484 241.09 480.617C241.363 480.742 241.68 480.805 242.039 480.805H242.391L242.18 482.234H241.969ZM235.629 480.805C235.988 480.805 236.328 480.738 236.648 480.605C236.969 480.473 237.246 480.289 237.48 480.055C237.723 479.82 237.918 479.547 238.066 479.234C238.215 478.922 238.297 478.586 238.312 478.227V474.277H235.055C234.68 474.277 234.328 474.348 234 474.488C233.68 474.629 233.395 474.82 233.145 475.062C232.902 475.305 232.711 475.59 232.57 475.918C232.43 476.238 232.359 476.586 232.359 476.961V478.109C232.359 478.484 232.43 478.836 232.57 479.164C232.711 479.484 232.902 479.77 233.145 480.02C233.395 480.262 233.68 480.453 234 480.594C234.328 480.734 234.68 480.805 235.055 480.805H235.629ZM260.742 478.109C260.742 478.68 260.633 479.215 260.414 479.715C260.203 480.215 259.91 480.652 259.535 481.027C259.16 481.402 258.723 481.699 258.223 481.918C257.723 482.129 257.188 482.234 256.617 482.234H255.422C254.852 482.234 254.312 482.129 253.805 481.918C253.305 481.699 252.867 481.402 252.492 481.027C252.117 480.652 251.82 480.215 251.602 479.715C251.391 479.215 251.285 478.68 251.285 478.109V469.086C251.285 468.516 251.391 467.98 251.602 467.48C251.82 466.98 252.117 466.543 252.492 466.168C252.867 465.793 253.305 465.5 253.805 465.289C254.312 465.07 254.852 464.961 255.422 464.961H256.617C257.188 464.961 257.723 465.07 258.223 465.289C258.723 465.5 259.16 465.793 259.535 466.168C259.91 466.543 260.203 466.98 260.414 467.48C260.633 467.98 260.742 468.516 260.742 469.086V469.766L259.23 470V469.086C259.23 468.711 259.16 468.363 259.02 468.043C258.879 467.715 258.688 467.43 258.445 467.188C258.203 466.945 257.918 466.754 257.59 466.613C257.27 466.473 256.922 466.402 256.547 466.402H255.492C255.117 466.402 254.766 466.473 254.438 466.613C254.117 466.754 253.832 466.945 253.582 467.188C253.34 467.43 253.148 467.715 253.008 468.043C252.867 468.363 252.797 468.711 252.797 469.086V478.109C252.797 478.484 252.867 478.836 253.008 479.164C253.148 479.484 253.34 479.77 253.582 480.02C253.832 480.262 254.117 480.453 254.438 480.594C254.766 480.734 255.117 480.805 255.492 480.805H256.547C256.922 480.805 257.27 480.734 257.59 480.594C257.918 480.453 258.203 480.262 258.445 480.02C258.688 479.77 258.879 479.484 259.02 479.164C259.16 478.836 259.23 478.484 259.23 478.109V477.195L260.742 477.441V478.109ZM264 467.117V465.195H265.676V467.117H264ZM264.117 482V470H265.559V482H264.117ZM277.066 483.512C277.066 483.996 276.973 484.441 276.785 484.848C276.605 485.254 276.355 485.602 276.035 485.891C275.715 486.18 275.34 486.402 274.91 486.559C274.48 486.723 274.023 486.805 273.539 486.805H272.941C272.457 486.805 272 486.723 271.57 486.559C271.141 486.402 270.766 486.18 270.445 485.891C270.125 485.602 269.871 485.254 269.684 484.848C269.504 484.441 269.414 483.996 269.414 483.512V483.465C269.414 482.996 269.5 482.566 269.672 482.176C269.844 481.785 270.078 481.445 270.375 481.156C270 480.93 269.699 480.625 269.473 480.242C269.254 479.852 269.145 479.422 269.145 478.953C269.145 478.531 269.234 478.141 269.414 477.781C269.594 477.414 269.84 477.117 270.152 476.891C269.777 476.562 269.48 476.168 269.262 475.707C269.043 475.246 268.934 474.742 268.934 474.195V473.293C268.934 472.809 269.023 472.352 269.203 471.922C269.391 471.492 269.645 471.117 269.965 470.797C270.285 470.477 270.66 470.227 271.09 470.047C271.52 469.859 271.977 469.766 272.461 469.766H273.059C273.645 469.766 274.184 469.898 274.676 470.164C275.176 470.422 275.59 470.773 275.918 471.219L276.703 470H277.184V474.195C277.184 474.68 277.09 475.137 276.902 475.566C276.723 475.996 276.473 476.371 276.152 476.691C275.832 477.012 275.457 477.266 275.027 477.453C274.598 477.633 274.141 477.723 273.656 477.723H271.57C271.406 477.723 271.25 477.758 271.102 477.828C270.953 477.891 270.82 477.977 270.703 478.086C270.594 478.195 270.508 478.328 270.445 478.484C270.383 478.633 270.352 478.789 270.352 478.953C270.352 479.117 270.383 479.273 270.445 479.422C270.508 479.57 270.594 479.703 270.703 479.82C270.82 479.93 270.953 480.016 271.102 480.078C271.25 480.141 271.406 480.172 271.57 480.172H273.539C274.023 480.172 274.48 480.254 274.91 480.418C275.34 480.574 275.715 480.797 276.035 481.086C276.355 481.375 276.605 481.723 276.785 482.129C276.973 482.535 277.066 482.98 277.066 483.465V483.512ZM275.754 473.211C275.754 472.922 275.699 472.652 275.59 472.402C275.48 472.145 275.328 471.922 275.133 471.734C274.945 471.547 274.723 471.398 274.465 471.289C274.215 471.18 273.945 471.125 273.656 471.125H272.461C272.172 471.125 271.898 471.18 271.641 471.289C271.391 471.398 271.172 471.547 270.984 471.734C270.797 471.922 270.648 472.145 270.539 472.402C270.43 472.652 270.375 472.922 270.375 473.211V474.277C270.375 474.566 270.43 474.84 270.539 475.098C270.648 475.348 270.797 475.566 270.984 475.754C271.172 475.941 271.391 476.09 271.641 476.199C271.898 476.309 272.172 476.363 272.461 476.363H273.656C273.945 476.363 274.215 476.309 274.465 476.199C274.723 476.09 274.945 475.941 275.133 475.754C275.328 475.566 275.48 475.348 275.59 475.098C275.699 474.84 275.754 474.566 275.754 474.277V473.211ZM275.695 483.395C275.695 483.105 275.641 482.844 275.531 482.609C275.422 482.383 275.273 482.191 275.086 482.035C274.898 481.879 274.676 481.758 274.418 481.672C274.168 481.586 273.898 481.543 273.609 481.543H272.871C272.582 481.543 272.309 481.586 272.051 481.672C271.801 481.758 271.582 481.879 271.395 482.035C271.207 482.191 271.059 482.383 270.949 482.609C270.84 482.844 270.785 483.105 270.785 483.395V483.582C270.785 483.871 270.84 484.129 270.949 484.355C271.059 484.582 271.207 484.773 271.395 484.93C271.582 485.094 271.801 485.219 272.051 485.305C272.309 485.391 272.582 485.434 272.871 485.434H273.609C273.898 485.434 274.168 485.391 274.418 485.305C274.676 485.219 274.898 485.094 275.086 484.93C275.273 484.773 275.422 484.582 275.531 484.355C275.641 484.129 275.695 483.871 275.695 483.582V483.395ZM287.367 482L286.57 480.805C286.242 481.234 285.832 481.582 285.34 481.848C284.848 482.105 284.309 482.234 283.723 482.234H283.359C282.875 482.234 282.418 482.145 281.988 481.965C281.559 481.777 281.184 481.523 280.863 481.203C280.543 480.883 280.289 480.508 280.102 480.078C279.922 479.648 279.832 479.191 279.832 478.707V478.59C279.832 478.105 279.922 477.648 280.102 477.219C280.289 476.789 280.543 476.414 280.863 476.094C281.184 475.773 281.559 475.523 281.988 475.344C282.418 475.156 282.875 475.062 283.359 475.062H286.406V473.211C286.406 472.922 286.352 472.652 286.242 472.402C286.133 472.145 285.984 471.922 285.797 471.734C285.609 471.547 285.387 471.398 285.129 471.289C284.879 471.18 284.609 471.125 284.32 471.125H283.477C283.188 471.125 282.914 471.18 282.656 471.289C282.406 471.398 282.188 471.547 282 471.734C281.812 471.922 281.664 472.145 281.555 472.402C281.445 472.652 281.391 472.922 281.391 473.211V473.645L279.949 473.41V473.293C279.949 472.809 280.039 472.352 280.219 471.922C280.406 471.492 280.66 471.117 280.98 470.797C281.301 470.477 281.676 470.227 282.105 470.047C282.535 469.859 282.992 469.766 283.477 469.766H284.32C284.805 469.766 285.262 469.859 285.691 470.047C286.121 470.227 286.496 470.477 286.816 470.797C287.137 471.117 287.387 471.492 287.566 471.922C287.754 472.352 287.848 472.809 287.848 473.293V482H287.367ZM286.406 476.188H283.359C283.07 476.188 282.797 476.242 282.539 476.352C282.289 476.461 282.07 476.613 281.883 476.809C281.695 476.996 281.547 477.219 281.438 477.477C281.328 477.727 281.273 477.996 281.273 478.285V478.789C281.273 479.078 281.328 479.352 281.438 479.609C281.547 479.859 281.695 480.078 281.883 480.266C282.07 480.453 282.289 480.602 282.539 480.711C282.797 480.82 283.07 480.875 283.359 480.875H284.32C284.609 480.875 284.879 480.82 285.129 480.711C285.387 480.602 285.609 480.453 285.797 480.266C285.984 480.078 286.133 479.859 286.242 479.609C286.352 479.352 286.406 479.078 286.406 478.789V476.188ZM294.258 471.371C293.969 471.371 293.695 471.426 293.438 471.535C293.188 471.645 292.969 471.793 292.781 471.98C292.594 472.168 292.445 472.391 292.336 472.648C292.227 472.898 292.172 473.168 292.172 473.457V482H290.73V470H291.211L291.996 471.219C292.324 470.773 292.734 470.422 293.227 470.164C293.727 469.898 294.27 469.766 294.855 469.766H295.699V471.371H294.258ZM303.387 482V465.195H304.898V480.559H311.332V482H303.387ZM321.27 478.707C321.27 479.191 321.176 479.648 320.988 480.078C320.809 480.508 320.559 480.883 320.238 481.203C319.918 481.523 319.543 481.777 319.113 481.965C318.684 482.145 318.227 482.234 317.742 482.234H316.781C316.297 482.234 315.84 482.145 315.41 481.965C314.98 481.777 314.605 481.523 314.285 481.203C313.965 480.883 313.711 480.508 313.523 480.078C313.344 479.648 313.254 479.191 313.254 478.707V473.293C313.254 472.809 313.344 472.352 313.523 471.922C313.711 471.492 313.965 471.117 314.285 470.797C314.605 470.477 314.98 470.227 315.41 470.047C315.84 469.859 316.297 469.766 316.781 469.766H317.742C318.227 469.766 318.684 469.859 319.113 470.047C319.543 470.227 319.918 470.477 320.238 470.797C320.559 471.117 320.809 471.492 320.988 471.922C321.176 472.352 321.27 472.809 321.27 473.293V478.707ZM319.828 473.211C319.828 472.922 319.773 472.652 319.664 472.402C319.555 472.145 319.406 471.922 319.219 471.734C319.031 471.547 318.809 471.398 318.551 471.289C318.301 471.18 318.031 471.125 317.742 471.125H316.781C316.492 471.125 316.219 471.18 315.961 471.289C315.711 471.398 315.492 471.547 315.305 471.734C315.117 471.922 314.969 472.145 314.859 472.402C314.75 472.652 314.695 472.922 314.695 473.211V478.789C314.695 479.078 314.75 479.352 314.859 479.609C314.969 479.859 315.117 480.078 315.305 480.266C315.492 480.453 315.711 480.602 315.961 480.711C316.219 480.82 316.492 480.875 316.781 480.875H317.742C318.031 480.875 318.301 480.82 318.551 480.711C318.809 480.602 319.031 480.453 319.219 480.266C319.406 480.078 319.555 479.859 319.664 479.609C319.773 479.352 319.828 479.078 319.828 478.789V473.211ZM331.688 482L330.891 480.781C330.562 481.227 330.152 481.582 329.66 481.848C329.168 482.105 328.629 482.234 328.043 482.234H327.68C327.195 482.234 326.738 482.145 326.309 481.965C325.879 481.777 325.504 481.523 325.184 481.203C324.863 480.883 324.609 480.508 324.422 480.078C324.242 479.648 324.152 479.191 324.152 478.707V470H325.594V478.789C325.594 479.078 325.648 479.352 325.758 479.609C325.867 479.859 326.016 480.078 326.203 480.266C326.391 480.453 326.609 480.602 326.859 480.711C327.117 480.82 327.391 480.875 327.68 480.875H328.641C328.93 480.875 329.199 480.82 329.449 480.711C329.707 480.602 329.93 480.453 330.117 480.266C330.305 480.078 330.453 479.859 330.562 479.609C330.672 479.352 330.727 479.078 330.727 478.789V470H332.168V482H331.688ZM341.625 482V473.211C341.625 472.922 341.57 472.652 341.461 472.402C341.352 472.145 341.203 471.922 341.016 471.734C340.828 471.547 340.605 471.398 340.348 471.289C340.098 471.18 339.828 471.125 339.539 471.125H338.578C338.289 471.125 338.016 471.18 337.758 471.289C337.508 471.398 337.289 471.547 337.102 471.734C336.914 471.922 336.766 472.145 336.656 472.402C336.547 472.652 336.492 472.922 336.492 473.211V482H335.051V470H335.531L336.316 471.219C336.645 470.773 337.055 470.422 337.547 470.164C338.047 469.898 338.59 469.766 339.176 469.766H339.539C340.023 469.766 340.48 469.859 340.91 470.047C341.34 470.227 341.715 470.477 342.035 470.797C342.355 471.117 342.605 471.492 342.785 471.922C342.973 472.352 343.066 472.809 343.066 473.293V482H341.625ZM354.082 483.512C354.082 483.996 353.988 484.441 353.801 484.848C353.621 485.254 353.371 485.602 353.051 485.891C352.73 486.18 352.355 486.402 351.926 486.559C351.496 486.723 351.039 486.805 350.555 486.805H349.957C349.473 486.805 349.016 486.723 348.586 486.559C348.156 486.402 347.781 486.18 347.461 485.891C347.141 485.602 346.887 485.254 346.699 484.848C346.52 484.441 346.43 483.996 346.43 483.512V483.465C346.43 482.996 346.516 482.566 346.688 482.176C346.859 481.785 347.094 481.445 347.391 481.156C347.016 480.93 346.715 480.625 346.488 480.242C346.27 479.852 346.16 479.422 346.16 478.953C346.16 478.531 346.25 478.141 346.43 477.781C346.609 477.414 346.855 477.117 347.168 476.891C346.793 476.562 346.496 476.168 346.277 475.707C346.059 475.246 345.949 474.742 345.949 474.195V473.293C345.949 472.809 346.039 472.352 346.219 471.922C346.406 471.492 346.66 471.117 346.98 470.797C347.301 470.477 347.676 470.227 348.105 470.047C348.535 469.859 348.992 469.766 349.477 469.766H350.074C350.66 469.766 351.199 469.898 351.691 470.164C352.191 470.422 352.605 470.773 352.934 471.219L353.719 470H354.199V474.195C354.199 474.68 354.105 475.137 353.918 475.566C353.738 475.996 353.488 476.371 353.168 476.691C352.848 477.012 352.473 477.266 352.043 477.453C351.613 477.633 351.156 477.723 350.672 477.723H348.586C348.422 477.723 348.266 477.758 348.117 477.828C347.969 477.891 347.836 477.977 347.719 478.086C347.609 478.195 347.523 478.328 347.461 478.484C347.398 478.633 347.367 478.789 347.367 478.953C347.367 479.117 347.398 479.273 347.461 479.422C347.523 479.57 347.609 479.703 347.719 479.82C347.836 479.93 347.969 480.016 348.117 480.078C348.266 480.141 348.422 480.172 348.586 480.172H350.555C351.039 480.172 351.496 480.254 351.926 480.418C352.355 480.574 352.73 480.797 353.051 481.086C353.371 481.375 353.621 481.723 353.801 482.129C353.988 482.535 354.082 482.98 354.082 483.465V483.512ZM352.77 473.211C352.77 472.922 352.715 472.652 352.605 472.402C352.496 472.145 352.344 471.922 352.148 471.734C351.961 471.547 351.738 471.398 351.48 471.289C351.23 471.18 350.961 471.125 350.672 471.125H349.477C349.188 471.125 348.914 471.18 348.656 471.289C348.406 471.398 348.188 471.547 348 471.734C347.812 471.922 347.664 472.145 347.555 472.402C347.445 472.652 347.391 472.922 347.391 473.211V474.277C347.391 474.566 347.445 474.84 347.555 475.098C347.664 475.348 347.812 475.566 348 475.754C348.188 475.941 348.406 476.09 348.656 476.199C348.914 476.309 349.188 476.363 349.477 476.363H350.672C350.961 476.363 351.23 476.309 351.48 476.199C351.738 476.09 351.961 475.941 352.148 475.754C352.344 475.566 352.496 475.348 352.605 475.098C352.715 474.84 352.77 474.566 352.77 474.277V473.211ZM352.711 483.395C352.711 483.105 352.656 482.844 352.547 482.609C352.438 482.383 352.289 482.191 352.102 482.035C351.914 481.879 351.691 481.758 351.434 481.672C351.184 481.586 350.914 481.543 350.625 481.543H349.887C349.598 481.543 349.324 481.586 349.066 481.672C348.816 481.758 348.598 481.879 348.41 482.035C348.223 482.191 348.074 482.383 347.965 482.609C347.855 482.844 347.801 483.105 347.801 483.395V483.582C347.801 483.871 347.855 484.129 347.965 484.355C348.074 484.582 348.223 484.773 348.41 484.93C348.598 485.094 348.816 485.219 349.066 485.305C349.324 485.391 349.598 485.434 349.887 485.434H350.625C350.914 485.434 351.184 485.391 351.434 485.305C351.691 485.219 351.914 485.094 352.102 484.93C352.289 484.773 352.438 484.582 352.547 484.355C352.656 484.129 352.711 483.871 352.711 483.582V483.395ZM364.863 478.707C364.863 479.191 364.77 479.648 364.582 480.078C364.402 480.508 364.152 480.883 363.832 481.203C363.512 481.523 363.137 481.777 362.707 481.965C362.277 482.145 361.82 482.234 361.336 482.234H360.375C359.891 482.234 359.434 482.145 359.004 481.965C358.574 481.777 358.199 481.523 357.879 481.203C357.559 480.883 357.305 480.508 357.117 480.078C356.938 479.648 356.848 479.191 356.848 478.707V473.293C356.848 472.809 356.938 472.352 357.117 471.922C357.305 471.492 357.559 471.117 357.879 470.797C358.199 470.477 358.574 470.227 359.004 470.047C359.434 469.859 359.891 469.766 360.375 469.766H361.336C361.82 469.766 362.277 469.859 362.707 470.047C363.137 470.227 363.512 470.477 363.832 470.797C364.152 471.117 364.402 471.492 364.582 471.922C364.77 472.352 364.863 472.809 364.863 473.293V476.117H358.289V478.789C358.289 479.078 358.344 479.352 358.453 479.609C358.562 479.859 358.711 480.078 358.898 480.266C359.086 480.453 359.305 480.602 359.555 480.711C359.812 480.82 360.086 480.875 360.375 480.875H361.336C361.625 480.875 361.895 480.82 362.145 480.711C362.402 480.602 362.625 480.453 362.812 480.266C363 480.078 363.148 479.859 363.258 479.609C363.367 479.352 363.422 479.078 363.422 478.789V477.992L364.863 478.227V478.707ZM363.422 473.211C363.422 472.922 363.367 472.652 363.258 472.402C363.148 472.145 363 471.922 362.812 471.734C362.625 471.547 362.402 471.398 362.145 471.289C361.895 471.18 361.625 471.125 361.336 471.125H360.375C360.086 471.125 359.812 471.18 359.555 471.289C359.305 471.398 359.086 471.547 358.898 471.734C358.711 471.922 358.562 472.145 358.453 472.402C358.344 472.652 358.289 472.922 358.289 473.211V474.992H363.422V473.211Z" fill="#0D0C0C"/>
<path d="M402.5 486L402.798 484.189C403.634 479.113 407.613 475.134 412.689 474.298L414.5 474L412.689 473.702C407.613 472.866 403.634 468.887 402.798 463.811L402.5 462L402.202 463.811C401.366 468.887 397.387 472.866 392.311 473.702L390.5 474L392.311 474.298C397.387 475.134 401.366 479.113 402.202 484.189L402.5 486Z" fill="#0D0C0C"/>
<path d="M280 370H223.414C213.431 370 203.977 362.639 202.604 352.751L183.775 217.182C181.638 201.794 191.601 187.32 206.738 183.824L242.25 175.622C246.787 174.574 250 170.534 250 165.878V80C250 74.4772 254.477 70 260 70H300C305.523 70 310 74.4771 310 80V165.878C310 170.534 313.213 174.574 317.749 175.622L353.261 183.824C368.398 187.32 378.362 201.794 376.224 217.182L357.395 352.751C356.022 362.639 347.568 370 337.585 370H280ZM280 370L280 325M280 325C280 325 291.172 326.621 310.476 312.143C329.781 297.664 337.827 268.854 333.207 246.793M280 325C280 325 268.828 326.621 249.523 312.143C230.219 297.664 222.173 268.854 226.792 246.793M280 325V300M226.792 246.793L280 300M226.792 246.793C228.334 239.43 231.286 232.263 235.702 225.702M280 300L333.207 246.793M280 300V270M235.702 225.702C236.627 224.327 237.617 222.979 238.671 221.661L248.889 208.889M235.702 225.702L280 270M280 270L324.298 225.702C328.713 232.263 331.665 239.43 333.207 246.793M280 270V240M280 240V210M280 240L264.444 224.444M280 210V190M280 210L288.889 201.111" stroke="#0D0C0C" stroke-width="3.5" stroke-linecap="round" stroke-linejoin="round"/>
</svg>
