<svg width="600" height="276" viewBox="0 0 600 276" fill="none" xmlns="http://www.w3.org/2000/svg">
<path d="M224.016 28.32C221.733 28.32 219.824 27.392 218.288 25.536C216.752 23.68 215.984 21.12 215.984 17.856C215.984 14.592 216.805 12.0107 218.448 10.112C220.09 8.21333 222.032 7.264 224.272 7.264C225.424 7.264 226.448 7.50933 227.344 8C228.24 8.46933 228.688 9.14133 228.688 10.016C228.688 10.4213 228.581 10.752 228.368 11.008C228.154 11.264 227.824 11.392 227.376 11.392C226.928 11.392 226.501 11.2107 226.096 10.848C225.712 10.4853 225.52 10.1547 225.52 9.856C225.52 9.536 225.573 9.26933 225.68 9.056C225.296 8.88533 224.837 8.8 224.304 8.8C222.533 8.8 221.008 9.65333 219.728 11.36C218.469 13.0667 217.84 15.168 217.84 17.664C217.84 19.1573 218.074 20.5867 218.544 21.952C219.034 23.3173 219.76 24.4587 220.72 25.376C221.701 26.272 222.885 26.72 224.272 26.72C225.658 26.72 226.725 26.1653 227.472 25.056C228.218 23.9253 228.592 22.6667 228.592 21.28V19.392H224.784C224.293 19.392 224.048 19.1147 224.048 18.56C224.048 18.0053 224.293 17.728 224.784 17.728H232.08C232.528 17.728 232.752 18.0053 232.752 18.56C232.752 19.1147 232.528 19.392 232.08 19.392H230.416V21.12C230.416 22.7413 230.757 23.9573 231.44 24.768C231.866 25.1947 232.08 25.5467 232.08 25.824C232.08 26.1013 231.973 26.336 231.76 26.528C231.568 26.6987 231.354 26.784 231.12 26.784C230.544 26.784 229.978 26.208 229.424 25.056C229.061 25.952 228.41 26.72 227.472 27.36C226.533 28 225.381 28.32 224.016 28.32ZM236.427 9.28H235.403C235.147 9.28 234.944 9.20533 234.795 9.056C234.646 8.88533 234.571 8.68267 234.571 8.448C234.571 8.192 234.646 7.98933 234.795 7.84C234.944 7.69067 235.147 7.616 235.403 7.616H237.227C237.59 7.616 237.846 7.68 237.995 7.808C238.144 7.936 238.219 8.17067 238.219 8.512V26.336H239.019C239.275 26.336 239.467 26.4213 239.595 26.592C239.744 26.7627 239.819 26.9547 239.819 27.168C239.819 27.7227 239.552 28 239.019 28H235.627C235.392 28 235.2 27.9253 235.051 27.776C234.902 27.6053 234.827 27.4133 234.827 27.2C234.827 26.9653 234.902 26.7627 235.051 26.592C235.2 26.4213 235.392 26.336 235.627 26.336H236.427V9.28ZM247.362 12.256C249.197 12.256 250.616 12.8533 251.618 14.048C252.642 15.2427 253.154 16.768 253.154 18.624C253.154 21.568 253.261 23.5627 253.474 24.608C253.688 25.632 254.093 26.3573 254.69 26.784C255.053 26.9547 255.234 27.1893 255.234 27.488C255.234 28.0427 254.978 28.32 254.466 28.32C253.954 28.32 253.464 28.0853 252.994 27.616C252.546 27.1253 252.184 26.528 251.906 25.824C251.544 26.528 250.957 27.1253 250.146 27.616C249.357 28.0853 248.408 28.32 247.298 28.32C245.677 28.32 244.354 27.8187 243.33 26.816C242.328 25.792 241.826 24.5013 241.826 22.944C241.826 21.3653 242.36 20.0213 243.426 18.912C244.493 17.8027 245.816 17.248 247.394 17.248C248.994 17.248 250.328 17.7707 251.394 18.816C251.394 17.3227 251.074 16.0747 250.434 15.072C249.794 14.048 248.813 13.536 247.49 13.536C246.168 13.536 245.336 13.8987 244.994 14.624C245.186 15.072 245.282 15.4453 245.282 15.744C245.282 16.0427 245.154 16.3627 244.898 16.704C244.642 17.0453 244.322 17.216 243.938 17.216C243.576 17.216 243.288 17.056 243.074 16.736C242.861 16.416 242.754 16.0427 242.754 15.616C242.754 14.72 243.192 13.9413 244.066 13.28C244.962 12.5973 246.061 12.256 247.362 12.256ZM243.586 22.784C243.586 23.9573 243.981 24.9387 244.77 25.728C245.56 26.5173 246.498 26.912 247.586 26.912C248.696 26.912 249.624 26.5387 250.37 25.792C251.117 25.024 251.49 24.096 251.49 23.008V22.72C251.49 21.568 251.106 20.6187 250.338 19.872C249.57 19.1253 248.621 18.752 247.49 18.752C246.381 18.752 245.453 19.136 244.706 19.904C243.96 20.6507 243.586 21.6107 243.586 22.784ZM259.061 15.168C259.061 15.936 259.829 16.8853 261.365 18.016L262.421 18.816C263.019 19.2427 263.488 19.616 263.829 19.936C264.192 20.2347 264.565 20.736 264.949 21.44C265.355 22.1227 265.557 22.848 265.557 23.616C265.557 24.8107 265.163 25.8987 264.373 26.88C263.605 27.84 262.517 28.32 261.109 28.32C259.701 28.32 258.549 27.9893 257.653 27.328C256.779 26.6453 256.341 25.7813 256.341 24.736C256.341 24.096 256.512 23.552 256.853 23.104C257.195 22.6347 257.557 22.4 257.941 22.4C258.325 22.4 258.613 22.528 258.805 22.784C259.019 23.0187 259.125 23.328 259.125 23.712C259.125 24.48 258.869 25.056 258.357 25.44C258.4 25.8667 258.667 26.2293 259.157 26.528C259.669 26.8267 260.331 26.976 261.141 26.976C261.973 26.976 262.645 26.6773 263.157 26.08C263.669 25.4827 263.925 24.8533 263.925 24.192C263.925 23.5093 263.765 22.9227 263.445 22.432C263.125 21.9413 262.805 21.568 262.485 21.312C262.165 21.056 261.653 20.672 260.949 20.16L260.373 19.744C259.349 19.0187 258.581 18.3573 258.069 17.76C257.557 17.1413 257.301 16.3947 257.301 15.52C257.301 14.624 257.621 13.8773 258.261 13.28C258.901 12.6827 259.691 12.384 260.629 12.384C261.568 12.384 262.411 12.6507 263.157 13.184C263.904 13.7173 264.277 14.3787 264.277 15.168C264.277 15.5307 264.181 15.84 263.989 16.096C263.819 16.3307 263.563 16.448 263.221 16.448C262.88 16.448 262.539 16.256 262.197 15.872C261.877 15.4667 261.717 15.0933 261.717 14.752C261.717 14.3893 261.771 14.08 261.877 13.824C261.685 13.6747 261.301 13.6 260.725 13.6C260.171 13.6 259.755 13.7707 259.477 14.112C259.2 14.432 259.061 14.784 259.061 15.168ZM269.889 15.168C269.889 15.936 270.657 16.8853 272.193 18.016L273.249 18.816C273.846 19.2427 274.315 19.616 274.657 19.936C275.019 20.2347 275.393 20.736 275.777 21.44C276.182 22.1227 276.385 22.848 276.385 23.616C276.385 24.8107 275.99 25.8987 275.201 26.88C274.433 27.84 273.345 28.32 271.937 28.32C270.529 28.32 269.377 27.9893 268.481 27.328C267.606 26.6453 267.169 25.7813 267.169 24.736C267.169 24.096 267.339 23.552 267.681 23.104C268.022 22.6347 268.385 22.4 268.769 22.4C269.153 22.4 269.441 22.528 269.633 22.784C269.846 23.0187 269.953 23.328 269.953 23.712C269.953 24.48 269.697 25.056 269.185 25.44C269.227 25.8667 269.494 26.2293 269.985 26.528C270.497 26.8267 271.158 26.976 271.969 26.976C272.801 26.976 273.473 26.6773 273.985 26.08C274.497 25.4827 274.753 24.8533 274.753 24.192C274.753 23.5093 274.593 22.9227 274.273 22.432C273.953 21.9413 273.633 21.568 273.313 21.312C272.993 21.056 272.481 20.672 271.777 20.16L271.201 19.744C270.177 19.0187 269.409 18.3573 268.897 17.76C268.385 17.1413 268.129 16.3947 268.129 15.52C268.129 14.624 268.449 13.8773 269.089 13.28C269.729 12.6827 270.518 12.384 271.457 12.384C272.395 12.384 273.238 12.6507 273.985 13.184C274.731 13.7173 275.105 14.3787 275.105 15.168C275.105 15.5307 275.009 15.84 274.817 16.096C274.646 16.3307 274.39 16.448 274.049 16.448C273.707 16.448 273.366 16.256 273.025 15.872C272.705 15.4667 272.545 15.0933 272.545 14.752C272.545 14.3893 272.598 14.08 272.705 13.824C272.513 13.6747 272.129 13.6 271.553 13.6C270.998 13.6 270.582 13.7707 270.305 14.112C270.027 14.432 269.889 14.784 269.889 15.168ZM302.86 26.336C303.351 26.336 303.596 26.6133 303.596 27.168C303.596 27.7227 303.351 28 302.86 28H299.34C298.828 28 298.572 27.7227 298.572 27.168C298.572 26.6133 298.828 26.336 299.34 26.336H300.076L299.148 23.424H290.604L289.708 26.336H290.476C290.988 26.336 291.244 26.6133 291.244 27.168C291.244 27.7227 290.988 28 290.476 28H287.244C286.732 28 286.476 27.7227 286.476 27.168C286.476 26.6133 286.732 26.336 287.244 26.336H288.044L293.356 9.28H292.076C291.586 9.28 291.34 9.00267 291.34 8.448C291.34 7.872 291.586 7.584 292.076 7.584H295.372C295.842 7.584 296.13 7.73333 296.236 8.032L302.06 26.336H302.86ZM291.02 21.888H298.764L294.86 9.408L291.02 21.888ZM309.186 26.336H310.114C310.349 26.336 310.541 26.4213 310.69 26.592C310.84 26.7627 310.914 26.9547 310.914 27.168C310.914 27.3813 310.84 27.5733 310.69 27.744C310.541 27.9147 310.349 28 310.114 28H306.37C306.136 28 305.944 27.9253 305.794 27.776C305.666 27.6053 305.602 27.4133 305.602 27.2C305.602 26.9653 305.666 26.7627 305.794 26.592C305.944 26.4213 306.136 26.336 306.37 26.336H307.394V14.304H306.082C305.848 14.304 305.666 14.2293 305.538 14.08C305.41 13.9093 305.346 13.696 305.346 13.44C305.346 13.184 305.421 12.992 305.57 12.864C305.741 12.7147 305.912 12.64 306.082 12.64H308.546C308.781 12.64 308.941 12.6827 309.026 12.768C309.112 12.8533 309.154 13.0133 309.154 13.248V15.648C309.73 14.688 310.466 13.9093 311.362 13.312C312.258 12.7147 313.197 12.416 314.178 12.416C315.8 12.416 316.952 12.9067 317.634 13.888C318.317 14.848 318.658 16.0427 318.658 17.472V26.336H319.554C319.789 26.336 319.981 26.4213 320.13 26.592C320.28 26.7627 320.354 26.9547 320.354 27.168C320.354 27.3813 320.28 27.5733 320.13 27.744C319.981 27.9147 319.789 28 319.554 28H316.098C315.586 28 315.33 27.7227 315.33 27.168C315.33 26.6133 315.586 26.336 316.098 26.336H316.866V17.312C316.866 15.0507 315.96 13.92 314.146 13.92C312.93 13.92 311.8 14.4853 310.754 15.616C309.709 16.7467 309.186 18.1547 309.186 19.84V26.336ZM328.116 25.92C328.116 25.6427 328.201 25.4187 328.372 25.248C328.543 25.0773 328.767 24.992 329.044 24.992C329.321 24.992 329.545 25.0773 329.716 25.248C329.887 25.3973 329.972 25.6107 329.972 25.888C329.972 26.5067 329.695 27.072 329.14 27.584C328.607 28.0747 327.935 28.32 327.124 28.32C326.313 28.32 325.641 28.0427 325.108 27.488C324.575 26.912 324.308 26.208 324.308 25.376V14.304H322.932C322.697 14.304 322.495 14.2187 322.324 14.048C322.175 13.8773 322.1 13.6853 322.1 13.472C322.1 13.2587 322.175 13.0667 322.324 12.896C322.495 12.7253 322.697 12.64 322.932 12.64H323.7C324.041 12.64 324.255 12.5973 324.34 12.512C324.425 12.4053 324.468 12.2027 324.468 11.904V10.176C324.468 9.344 324.895 8.928 325.748 8.928C326.004 8.928 326.132 9.056 326.132 9.312V12.64H327.54C328.116 12.64 328.404 12.928 328.404 13.504C328.404 13.7173 328.329 13.9093 328.18 14.08C328.031 14.2293 327.817 14.304 327.54 14.304H326.132V25.344C326.132 26.3467 326.463 26.848 327.124 26.848C327.785 26.848 328.116 26.5387 328.116 25.92ZM333.324 14.272H332.492C332.236 14.272 332.033 14.1973 331.884 14.048C331.734 13.8773 331.66 13.6853 331.66 13.472C331.66 12.9173 331.937 12.64 332.492 12.64H334.092C334.753 12.64 335.094 12.928 335.116 13.504V26.336H335.916C336.172 26.336 336.364 26.4213 336.492 26.592C336.641 26.7627 336.716 26.9547 336.716 27.168C336.716 27.7227 336.449 28 335.916 28H332.524C332.31 28 332.118 27.9253 331.948 27.776C331.798 27.6053 331.724 27.4133 331.724 27.2C331.724 26.9867 331.798 26.7947 331.948 26.624C332.118 26.432 332.31 26.336 332.524 26.336L333.324 26.304V14.272ZM333.804 7.68C334.23 7.68 334.582 7.81867 334.86 8.096C335.158 8.37333 335.308 8.71467 335.308 9.12C335.308 9.504 335.158 9.83467 334.86 10.112C334.582 10.3893 334.23 10.528 333.804 10.528C333.398 10.528 333.046 10.3893 332.748 10.112C332.47 9.83467 332.332 9.504 332.332 9.12C332.332 8.71467 332.47 8.37333 332.748 8.096C333.025 7.81867 333.377 7.68 333.804 7.68ZM344.648 28.128C342.877 28.128 341.469 27.4027 340.424 25.952C339.4 24.5013 338.888 22.6133 338.888 20.288C338.888 17.9627 339.41 16.0747 340.456 14.624C341.522 13.1733 343.058 12.448 345.064 12.448C347.09 12.448 348.637 13.3867 349.704 15.264C349.981 14.4107 350.344 13.7067 350.792 13.152C351.261 12.5973 351.773 12.32 352.328 12.32C352.584 12.32 352.776 12.4053 352.904 12.576C353.032 12.7467 353.096 12.96 353.096 13.216C353.096 13.4507 352.946 13.6533 352.648 13.824C352.37 13.9733 352.146 14.1547 351.976 14.368C351.805 14.56 351.624 14.88 351.432 15.328C351.069 16.2027 350.888 17.9733 350.888 20.64V30.4H351.72C352.21 30.4 352.456 30.6773 352.456 31.232C352.456 31.7867 352.21 32.064 351.72 32.064H348.232C348.04 32.064 347.869 31.968 347.72 31.776C347.592 31.6053 347.528 31.4133 347.528 31.2C347.528 31.008 347.592 30.8267 347.72 30.656C347.869 30.4853 348.04 30.4 348.232 30.4H349.096V25.504C348.626 26.272 348.008 26.9013 347.24 27.392C346.472 27.8827 345.608 28.128 344.648 28.128ZM344.936 13.888C343.912 13.888 343.069 14.2507 342.408 14.976C341.234 16.2347 340.648 18.0267 340.648 20.352C340.648 21.9947 341 23.456 341.704 24.736C342.408 25.9947 343.442 26.624 344.808 26.624C346.194 26.624 347.272 26.08 348.04 24.992C348.829 23.8827 349.224 22.3787 349.224 20.48C349.224 18.56 348.85 16.9813 348.104 15.744C347.378 14.5067 346.322 13.888 344.936 13.888ZM365.468 14.304H364.732C364.497 14.304 364.294 14.2187 364.124 14.048C363.974 13.8773 363.9 13.6853 363.9 13.472C363.9 13.2587 363.974 13.0667 364.124 12.896C364.294 12.7253 364.497 12.64 364.732 12.64H367.964C368.476 12.64 368.732 12.9173 368.732 13.472C368.732 14.0267 368.476 14.304 367.964 14.304H367.26V26.336H368.444C368.934 26.336 369.18 26.6133 369.18 27.168C369.18 27.424 369.105 27.6267 368.956 27.776C368.806 27.9253 368.636 28 368.444 28H366.172C365.916 28 365.734 27.9573 365.628 27.872C365.542 27.7653 365.5 27.584 365.5 27.328V25.248C364.284 27.232 362.684 28.224 360.7 28.224C359.142 28.224 357.99 27.7013 357.244 26.656C356.497 25.5893 356.124 24.3627 356.124 22.976V14.304H355.42C355.185 14.304 355.004 14.2187 354.876 14.048C354.748 13.8773 354.684 13.6853 354.684 13.472C354.684 13.2587 354.748 13.0667 354.876 12.896C355.004 12.7253 355.185 12.64 355.42 12.64H358.684C358.918 12.64 359.11 12.7253 359.26 12.896C359.409 13.0667 359.484 13.2587 359.484 13.472C359.484 13.6853 359.409 13.8773 359.26 14.048C359.11 14.2187 358.918 14.304 358.684 14.304H357.916V23.008C357.916 23.9467 358.161 24.8 358.652 25.568C359.142 26.336 359.932 26.72 361.02 26.72C362.129 26.72 363.142 26.1653 364.06 25.056C364.998 23.9467 365.468 22.5387 365.468 20.832V14.304ZM376.637 12.256C378.472 12.256 379.891 12.8533 380.893 14.048C381.917 15.2427 382.429 16.768 382.429 18.624C382.429 21.568 382.536 23.5627 382.749 24.608C382.963 25.632 383.368 26.3573 383.965 26.784C384.328 26.9547 384.509 27.1893 384.509 27.488C384.509 28.0427 384.253 28.32 383.741 28.32C383.229 28.32 382.739 28.0853 382.269 27.616C381.821 27.1253 381.459 26.528 381.181 25.824C380.819 26.528 380.232 27.1253 379.421 27.616C378.632 28.0853 377.683 28.32 376.573 28.32C374.952 28.32 373.629 27.8187 372.605 26.816C371.603 25.792 371.101 24.5013 371.101 22.944C371.101 21.3653 371.635 20.0213 372.701 18.912C373.768 17.8027 375.091 17.248 376.669 17.248C378.269 17.248 379.603 17.7707 380.669 18.816C380.669 17.3227 380.349 16.0747 379.709 15.072C379.069 14.048 378.088 13.536 376.765 13.536C375.443 13.536 374.611 13.8987 374.269 14.624C374.461 15.072 374.557 15.4453 374.557 15.744C374.557 16.0427 374.429 16.3627 374.173 16.704C373.917 17.0453 373.597 17.216 373.213 17.216C372.851 17.216 372.563 17.056 372.349 16.736C372.136 16.416 372.029 16.0427 372.029 15.616C372.029 14.72 372.467 13.9413 373.341 13.28C374.237 12.5973 375.336 12.256 376.637 12.256ZM372.861 22.784C372.861 23.9573 373.256 24.9387 374.045 25.728C374.835 26.5173 375.773 26.912 376.861 26.912C377.971 26.912 378.899 26.5387 379.645 25.792C380.392 25.024 380.765 24.096 380.765 23.008V22.72C380.765 21.568 380.381 20.6187 379.613 19.872C378.845 19.1253 377.896 18.752 376.765 18.752C375.656 18.752 374.728 19.136 373.981 19.904C373.235 20.6507 372.861 21.6107 372.861 22.784Z" fill="#F4C430"/>
<path d="M129.596 82.336C130.087 82.336 130.332 82.6133 130.332 83.168C130.332 83.7227 130.087 84 129.596 84H126.076C125.564 84 125.308 83.7227 125.308 83.168C125.308 82.6133 125.564 82.336 126.076 82.336H126.812L125.884 79.424H117.34L116.444 82.336H117.212C117.724 82.336 117.98 82.6133 117.98 83.168C117.98 83.7227 117.724 84 117.212 84H113.98C113.468 84 113.212 83.7227 113.212 83.168C113.212 82.6133 113.468 82.336 113.98 82.336H114.78L120.092 65.28H118.812C118.321 65.28 118.076 65.0027 118.076 64.448C118.076 63.872 118.321 63.584 118.812 63.584H122.108C122.577 63.584 122.865 63.7333 122.972 64.032L128.796 82.336H129.596ZM117.756 77.888H125.5L121.596 65.408L117.756 77.888ZM142.258 65.28H141.49C140.978 65.28 140.722 65.0027 140.722 64.448C140.722 63.872 140.978 63.584 141.49 63.584H145.234C149.437 63.584 151.538 64.7467 151.538 67.072C151.538 67.7973 151.367 68.4267 151.026 68.96C150.685 69.4933 150.215 69.8347 149.618 69.984C150.727 70.24 151.655 71.008 152.402 72.288C153.17 73.568 153.554 74.9973 153.554 76.576C153.554 78.7093 152.925 80.48 151.666 81.888C150.429 83.296 148.445 84 145.714 84H141.49C141.277 84 141.095 83.9253 140.946 83.776C140.797 83.6053 140.722 83.4027 140.722 83.168C140.722 82.6133 140.978 82.336 141.49 82.336H142.258V65.28ZM144.082 69.248H146.418C147.527 69.248 148.381 69.1093 148.978 68.832C149.597 68.5333 149.906 68 149.906 67.232C149.906 65.7387 148.53 64.992 145.778 64.992C144.647 64.992 144.082 65.0773 144.082 65.248V69.248ZM144.082 70.816V82.304C144.082 82.4747 144.594 82.56 145.618 82.56C147.687 82.56 149.223 82.0587 150.226 81.056C151.229 80.0533 151.73 78.56 151.73 76.576C151.73 74.592 151.218 73.1413 150.194 72.224C149.191 71.2853 147.901 70.816 146.322 70.816H144.082ZM176.927 79.328C176.991 79.1147 177.13 78.9333 177.343 78.784C177.556 78.6133 177.77 78.528 177.983 78.528C178.218 78.528 178.42 78.6347 178.591 78.848C178.783 79.04 178.879 79.2533 178.879 79.488C178.879 80.5333 178.218 81.6 176.895 82.688C175.572 83.776 174.036 84.32 172.287 84.32C169.855 84.32 167.828 83.424 166.207 81.632C164.607 79.8187 163.807 77.2373 163.807 73.888C163.807 70.5387 164.618 67.936 166.239 66.08C167.882 64.2027 169.802 63.264 171.999 63.264C173.151 63.264 174.154 63.4987 175.007 63.968C175.882 64.4373 176.319 65.1413 176.319 66.08C176.319 66.4213 176.212 66.72 175.999 66.976C175.807 67.232 175.487 67.36 175.039 67.36C174.591 67.36 174.164 67.168 173.759 66.784C173.375 66.4 173.183 65.9947 173.183 65.568C173.183 65.4827 173.236 65.3013 173.343 65.024C173.002 64.8747 172.511 64.8 171.871 64.8C170.228 64.8 168.788 65.6427 167.551 67.328C166.314 69.0133 165.695 71.104 165.695 73.6C165.695 75.0293 165.94 76.4267 166.431 77.792C166.922 79.1573 167.668 80.32 168.671 81.28C169.695 82.24 170.804 82.72 171.999 82.72C173.194 82.72 174.239 82.4 175.135 81.76C176.031 81.0987 176.628 80.288 176.927 79.328ZM192.486 65.44V82.176C192.486 82.432 193.008 82.56 194.054 82.56C195.12 82.56 196.219 82.4 197.35 82.08C198.502 81.7387 199.558 81.248 200.518 80.608C201.499 79.9467 202.278 79.0507 202.854 77.92C203.43 76.768 203.718 75.3387 203.718 73.632C203.718 71.9253 203.238 70.3787 202.278 68.992C200.464 66.368 197.67 65.056 193.894 65.056C192.955 65.056 192.486 65.184 192.486 65.44ZM190.662 65.28H189.926C189.392 65.28 189.126 65.0027 189.126 64.448C189.126 63.872 189.382 63.584 189.894 63.584H193.702C197.136 63.6053 199.952 64.5227 202.15 66.336C204.368 68.128 205.478 70.656 205.478 73.92C205.478 77.184 204.379 79.68 202.182 81.408C200.006 83.136 197.126 84 193.542 84H189.894C189.382 84 189.126 83.7227 189.126 83.168C189.126 82.6133 189.382 82.336 189.894 82.336H190.662V65.28ZM219.391 82.336H226.495L229.791 79.136C229.94 78.9867 230.1 78.912 230.271 78.912C230.719 78.912 230.943 79.104 230.943 79.488C230.943 79.616 230.879 79.7867 230.751 80L228.447 83.584C228.276 83.8613 227.988 84 227.583 84H216.799C216.287 84 216.031 83.7227 216.031 83.168C216.031 82.6133 216.287 82.336 216.799 82.336H217.567V65.28H216.799C216.287 65.28 216.031 65.0027 216.031 64.448C216.031 63.872 216.287 63.584 216.799 63.584H224.383C224.788 63.584 225.097 63.6907 225.311 63.904L227.327 66.24C227.476 66.4107 227.551 66.5813 227.551 66.752C227.551 66.9227 227.487 67.072 227.359 67.2C227.252 67.3067 227.092 67.36 226.879 67.36C226.665 67.36 226.473 67.2747 226.303 67.104L224.031 65.12H219.391V68.736H222.751C222.623 68.544 222.559 68.3413 222.559 68.128C222.559 67.9147 222.633 67.7333 222.783 67.584C222.953 67.4133 223.177 67.328 223.455 67.328C223.732 67.328 223.945 67.4453 224.095 67.68L225.471 69.952C225.556 70.1013 225.599 70.2613 225.599 70.432C225.599 70.6027 225.535 70.7627 225.407 70.912C225.3 71.04 225.129 71.104 224.895 71.104C224.681 71.104 224.489 70.9867 224.319 70.752L223.903 70.272H219.391V82.336ZM244.546 82.336H245.506C246.039 82.336 246.306 82.6133 246.306 83.168C246.306 83.7227 246.039 84 245.506 84H241.954C241.442 84 241.186 83.7227 241.186 83.168C241.186 82.6133 241.442 82.336 241.954 82.336H242.722V65.28H241.954C241.442 65.28 241.186 65.0027 241.186 64.448C241.186 63.872 241.442 63.584 241.954 63.584H251.874C252.428 63.584 252.812 63.7227 253.026 64L254.946 66.24C255.095 66.432 255.17 66.6133 255.17 66.784C255.17 67.168 254.967 67.36 254.562 67.36C254.306 67.36 254.092 67.2747 253.922 67.104L251.618 65.12H244.546V68.736H250.402C250.252 68.5013 250.178 68.288 250.178 68.096C250.178 67.904 250.252 67.7333 250.402 67.584C250.572 67.4133 250.796 67.328 251.074 67.328C251.351 67.328 251.564 67.4453 251.714 67.68L253.122 69.952C253.228 70.1227 253.282 70.2827 253.282 70.432C253.282 70.9013 253.058 71.136 252.61 71.136C252.332 71.136 252.098 71.008 251.906 70.752L251.522 70.272H244.546V82.336ZM273.115 84.32C270.832 84.32 268.923 83.392 267.387 81.536C265.851 79.68 265.083 77.12 265.083 73.856C265.083 70.592 265.904 68.0107 267.547 66.112C269.19 64.2133 271.131 63.264 273.371 63.264C274.523 63.264 275.547 63.5093 276.443 64C277.339 64.4693 277.787 65.1413 277.787 66.016C277.787 66.4213 277.68 66.752 277.467 67.008C277.254 67.264 276.923 67.392 276.475 67.392C276.027 67.392 275.6 67.2107 275.195 66.848C274.811 66.4853 274.619 66.1547 274.619 65.856C274.619 65.536 274.672 65.2693 274.779 65.056C274.395 64.8853 273.936 64.8 273.403 64.8C271.632 64.8 270.107 65.6533 268.827 67.36C267.568 69.0667 266.939 71.168 266.939 73.664C266.939 75.1573 267.174 76.5867 267.643 77.952C268.134 79.3173 268.859 80.4587 269.819 81.376C270.8 82.272 271.984 82.72 273.371 82.72C274.758 82.72 275.824 82.1653 276.571 81.056C277.318 79.9253 277.691 78.6667 277.691 77.28V75.392H273.883C273.392 75.392 273.147 75.1147 273.147 74.56C273.147 74.0053 273.392 73.728 273.883 73.728H281.179C281.627 73.728 281.851 74.0053 281.851 74.56C281.851 75.1147 281.627 75.392 281.179 75.392H279.515V77.12C279.515 78.7413 279.856 79.9573 280.539 80.768C280.966 81.1947 281.179 81.5467 281.179 81.824C281.179 82.1013 281.072 82.336 280.859 82.528C280.667 82.6987 280.454 82.784 280.219 82.784C279.643 82.784 279.078 82.208 278.523 81.056C278.16 81.952 277.51 82.72 276.571 83.36C275.632 84 274.48 84.32 273.115 84.32ZM305.718 82.336C306.23 82.336 306.486 82.6133 306.486 83.168C306.486 83.7227 306.23 84 305.718 84H302.294C302.081 84 301.9 83.9253 301.75 83.776C301.601 83.6053 301.526 83.4027 301.526 83.168C301.526 82.6133 301.782 82.336 302.294 82.336H303.062V70.24H295.382V82.336H296.15C296.662 82.336 296.918 82.6133 296.918 83.168C296.918 83.7227 296.662 84 296.15 84H292.726C292.214 84 291.958 83.7227 291.958 83.168C291.958 82.6133 292.214 82.336 292.726 82.336H293.558V65.28H292.758C292.225 65.28 291.958 65.0027 291.958 64.448C291.958 63.872 292.225 63.584 292.758 63.584H296.182C296.694 63.584 296.95 63.872 296.95 64.448C296.95 65.0027 296.694 65.28 296.182 65.28H295.382V68.704H303.062V65.28H302.262C301.75 65.28 301.494 65.0027 301.494 64.448C301.494 63.872 301.75 63.584 302.262 63.584H305.686C306.22 63.584 306.486 63.872 306.486 64.448C306.486 65.0027 306.22 65.28 305.686 65.28H304.886V82.336H305.718ZM319.19 82.336V65.28H318.262C317.75 65.28 317.494 65.0027 317.494 64.448C317.494 63.872 317.75 63.584 318.262 63.584H321.942C322.476 63.584 322.742 63.872 322.742 64.448C322.742 65.0027 322.476 65.28 321.942 65.28H321.014V82.336H321.942C322.454 82.336 322.71 82.6133 322.71 83.168C322.71 83.7227 322.454 84 321.942 84H318.262C317.75 84 317.494 83.7227 317.494 83.168C317.494 82.6133 317.75 82.336 318.262 82.336H319.19ZM342.77 63.584C343.303 63.584 343.57 63.872 343.57 64.448C343.57 65.0027 343.303 65.28 342.77 65.28H341.81V79.328C341.81 80.9067 341.394 82.1333 340.562 83.008C339.73 83.8827 338.685 84.32 337.426 84.32C336.167 84.32 335.111 83.9573 334.258 83.232C333.405 82.5067 332.978 81.6427 332.978 80.64C332.978 80 333.127 79.4773 333.426 79.072C333.746 78.6453 334.109 78.432 334.514 78.432C335.303 78.432 335.698 78.7733 335.698 79.456C335.698 80.1387 335.41 80.704 334.834 81.152C334.983 81.6 335.293 81.9947 335.762 82.336C336.231 82.6773 336.818 82.848 337.522 82.848C338.226 82.848 338.813 82.5493 339.282 81.952C339.751 81.3333 339.986 80.4587 339.986 79.328V65.28H338.962C338.45 65.28 338.194 65.0027 338.194 64.448C338.194 63.872 338.45 63.584 338.962 63.584H342.77ZM369.309 82.336C369.821 82.336 370.077 82.6133 370.077 83.168C370.077 83.7227 369.821 84 369.309 84H365.565C365.053 84 364.797 83.7227 364.797 83.168C364.797 82.6133 365.053 82.336 365.565 82.336H366.237L360.957 70.528L357.821 72.992V82.336H358.589C359.101 82.336 359.357 82.6133 359.357 83.168C359.357 83.7227 359.101 84 358.589 84H355.229C355.015 84 354.834 83.9253 354.685 83.776C354.535 83.6053 354.461 83.4027 354.461 83.168C354.461 82.6133 354.717 82.336 355.229 82.336H355.997V65.28H355.229C354.994 65.28 354.802 65.2053 354.653 65.056C354.525 64.8853 354.461 64.6827 354.461 64.448C354.461 64.2133 354.525 64.0107 354.653 63.84C354.802 63.6693 354.994 63.584 355.229 63.584H358.589C359.122 63.584 359.389 63.872 359.389 64.448C359.389 65.0027 359.122 65.28 358.589 65.28H357.821V71.072L365.245 65.28H364.861C364.349 65.28 364.093 65.0027 364.093 64.448C364.093 63.872 364.349 63.584 364.861 63.584H368.637C369.17 63.584 369.437 63.872 369.437 64.448C369.437 65.0027 369.17 65.28 368.637 65.28H367.677L362.461 69.44L368.285 82.336H369.309ZM383.663 82.336H388.559L391.855 77.792C391.962 77.6427 392.1 77.568 392.271 77.568C392.463 77.568 392.612 77.6213 392.719 77.728C392.847 77.8347 392.911 77.9627 392.911 78.112C392.911 78.24 392.868 78.3893 392.783 78.56L390.447 83.488C390.255 83.8293 389.956 84 389.551 84H381.071C380.559 84 380.303 83.7227 380.303 83.168C380.303 82.6133 380.559 82.336 381.071 82.336H381.839V65.28H381.071C380.559 65.28 380.303 65.0027 380.303 64.448C380.303 63.872 380.559 63.584 381.071 63.584H384.431C384.964 63.584 385.231 63.872 385.231 64.448C385.231 65.0027 384.964 65.28 384.431 65.28H383.663V82.336ZM422.954 82.336H423.786C424.298 82.336 424.554 82.6133 424.554 83.168C424.554 83.7227 424.298 84 423.786 84H420.362C420.127 84 419.935 83.9253 419.786 83.776C419.658 83.6053 419.594 83.4027 419.594 83.168C419.594 82.6133 419.85 82.336 420.362 82.336H421.13V65.408L414.378 70.304C414.164 70.4747 413.951 70.56 413.738 70.56C413.524 70.56 413.29 70.4853 413.034 70.336L406.57 66.368V82.336H407.306C407.818 82.336 408.074 82.6133 408.074 83.168C408.074 83.7227 407.818 84 407.306 84H404.074C403.562 84 403.306 83.7227 403.306 83.168C403.306 82.6133 403.562 82.336 404.074 82.336H404.874V65.28H403.914C403.402 65.28 403.146 65.0027 403.146 64.448C403.146 64.192 403.21 63.9893 403.338 63.84C403.487 63.6693 403.679 63.584 403.914 63.584H404.906C405.29 63.584 405.684 63.7013 406.09 63.936L413.93 68.736L420.49 63.936C420.831 63.7013 421.119 63.584 421.354 63.584H423.754C424.287 63.584 424.554 63.872 424.554 64.448C424.554 65.0027 424.287 65.28 423.754 65.28H422.954V82.336ZM449.986 63.584C450.519 63.584 450.786 63.872 450.786 64.448C450.786 65.0027 450.519 65.28 449.986 65.28H449.122V83.264C449.122 83.84 448.834 84.128 448.258 84.128C447.746 84.128 447.394 83.9253 447.202 83.52L438.626 67.104V82.336H439.362C439.874 82.336 440.13 82.6133 440.13 83.168C440.13 83.7227 439.874 84 439.362 84H436.194C435.682 84 435.426 83.7227 435.426 83.168C435.426 82.6133 435.682 82.336 436.194 82.336H436.962V65.28H436.194C435.682 65.28 435.426 65.0027 435.426 64.448C435.426 63.872 435.682 63.584 436.194 63.584H438.338C438.658 63.584 438.903 63.7547 439.074 64.096L447.458 80.128V65.28H446.626C446.114 65.28 445.858 65.0027 445.858 64.448C445.858 63.872 446.114 63.584 446.626 63.584H449.986ZM477.994 73.792C477.994 77.0773 477.194 79.6587 475.594 81.536C473.994 83.392 472.01 84.32 469.642 84.32C467.296 84.32 465.322 83.3707 463.722 81.472C462.144 79.5733 461.354 76.9813 461.354 73.696C461.354 70.4107 462.154 67.8507 463.754 66.016C465.354 64.1813 467.328 63.264 469.674 63.264C472.042 63.264 474.016 64.192 475.594 66.048C477.194 67.904 477.994 70.4853 477.994 73.792ZM475.37 69.664C474.901 68.2987 474.165 67.1467 473.162 66.208C472.16 65.2693 470.986 64.8 469.642 64.8C468.32 64.8 467.157 65.2373 466.154 66.112C465.152 66.9867 464.405 68.0853 463.914 69.408C463.445 70.7093 463.21 72.096 463.21 73.568C463.21 75.8293 463.808 77.9307 465.002 79.872C466.197 81.8133 467.765 82.784 469.706 82.784C471.648 82.784 473.194 81.8773 474.346 80.064C475.52 78.2507 476.106 76.192 476.106 73.888C476.106 72.416 475.861 71.008 475.37 69.664ZM163.311 118.336V101.28H162.543C162.031 101.28 161.775 101.003 161.775 100.448C161.775 99.872 162.031 99.584 162.543 99.584H168.559C170.586 99.584 172.26 100.171 173.583 101.344C174.927 102.496 175.599 104.011 175.599 105.888C175.599 107.744 174.916 109.301 173.551 110.56C172.207 111.819 170.394 112.448 168.111 112.448H165.135V118.336H166.095C166.607 118.336 166.863 118.613 166.863 119.168C166.863 119.723 166.607 120 166.095 120H162.543C162.031 120 161.775 119.723 161.775 119.168C161.775 118.613 162.031 118.336 162.543 118.336H163.311ZM165.135 110.944H168.623C170.159 110.944 171.407 110.453 172.367 109.472C173.327 108.491 173.807 107.285 173.807 105.856C173.807 104.427 173.306 103.264 172.303 102.368C171.3 101.472 170.106 101.024 168.719 101.024H167.663C165.978 101.024 165.135 101.163 165.135 101.44V110.944ZM201.509 124.128C199.994 124.128 198.714 122.549 197.669 119.392C196.431 120.011 195.237 120.32 194.085 120.32C191.759 120.32 189.797 119.36 188.197 117.44C186.618 115.52 185.829 112.928 185.829 109.664C185.829 106.4 186.618 103.851 188.197 102.016C189.797 100.181 191.781 99.264 194.149 99.264C196.517 99.264 198.49 100.181 200.069 102.016C201.669 103.851 202.469 106.389 202.469 109.632C202.469 111.552 202.181 113.259 201.605 114.752C201.029 116.245 200.271 117.419 199.333 118.272L199.845 119.904C200.271 121.333 200.581 122.133 200.773 122.304C200.986 122.496 201.167 122.603 201.317 122.624C201.359 122.197 201.541 121.792 201.861 121.408C202.202 121.045 202.543 120.864 202.885 120.864C203.567 120.864 203.909 121.227 203.909 121.952C203.909 122.549 203.674 123.061 203.205 123.488C202.757 123.915 202.191 124.128 201.509 124.128ZM197.797 102.144C196.794 101.248 195.599 100.8 194.213 100.8C192.826 100.8 191.621 101.259 190.597 102.176C188.655 103.925 187.685 106.4 187.685 109.6C187.685 111.136 187.919 112.597 188.389 113.984C188.858 115.349 189.594 116.491 190.597 117.408C191.599 118.325 192.687 118.784 193.861 118.784C195.055 118.784 196.133 118.453 197.093 117.792C196.943 117.067 196.666 116.491 196.261 116.064C195.855 115.637 195.45 115.424 195.045 115.424C194.362 115.424 193.935 115.712 193.765 116.288C193.594 116.843 193.327 117.12 192.965 117.12C192.751 117.12 192.559 117.045 192.389 116.896C192.239 116.725 192.165 116.501 192.165 116.224C192.165 115.669 192.442 115.157 192.997 114.688C193.551 114.219 194.223 113.984 195.013 113.984C195.802 113.984 196.517 114.219 197.157 114.688C197.818 115.136 198.319 115.744 198.661 116.512C199.962 114.891 200.613 112.629 200.613 109.728C200.613 106.357 199.674 103.829 197.797 102.144ZM225.892 119.008C225.892 118.475 226.062 117.995 226.404 117.568C226.745 117.141 227.097 116.928 227.46 116.928C228.185 116.928 228.548 117.301 228.548 118.048C228.548 118.645 228.292 119.179 227.78 119.648C227.289 120.096 226.67 120.32 225.924 120.32C224.366 120.32 223.076 119.339 222.052 117.376C221.625 116.544 221.252 115.947 220.932 115.584C220.377 114.987 219.662 114.688 218.788 114.688C217.934 114.688 217.508 114.763 217.508 114.912V118.336H218.372C218.884 118.336 219.14 118.613 219.14 119.168C219.14 119.723 218.884 120 218.372 120H214.916C214.404 120 214.148 119.723 214.148 119.168C214.148 118.613 214.404 118.336 214.916 118.336H215.684V101.28H214.916C214.404 101.28 214.148 101.003 214.148 100.448C214.148 99.872 214.404 99.584 214.916 99.584H218.212C221.134 99.584 223.502 100.224 225.316 101.504C227.129 102.784 228.036 104.597 228.036 106.944C228.036 108.928 227.428 110.624 226.212 112.032C225.017 113.419 223.46 114.187 221.54 114.336C222.798 114.699 223.652 115.52 224.1 116.8C224.377 117.589 224.622 118.144 224.836 118.464C225.07 118.763 225.422 118.944 225.892 119.008ZM220.164 113.12C221.956 113.12 223.428 112.565 224.58 111.456C225.732 110.325 226.308 108.821 226.308 106.944C226.308 105.067 225.582 103.616 224.132 102.592C222.681 101.547 220.932 101.024 218.884 101.024C217.966 101.024 217.508 101.163 217.508 101.44V112.768C217.508 113.003 218.393 113.12 220.164 113.12ZM238.635 115.424C238.635 114.699 238.827 114.112 239.211 113.664C239.595 113.195 239.979 112.96 240.363 112.96C240.768 112.96 241.078 113.099 241.291 113.376C241.526 113.653 241.643 113.984 241.643 114.368C241.643 115.157 241.355 115.787 240.779 116.256C241.014 117.173 241.494 117.856 242.219 118.304C242.966 118.731 243.787 118.944 244.683 118.944C246.006 118.944 247.051 118.496 247.819 117.6C248.608 116.704 249.003 115.701 249.003 114.592C249.003 113.461 248.576 112.491 247.723 111.68C247.083 111.104 246.262 110.485 245.259 109.824L243.627 108.768C242.454 108.021 241.558 107.253 240.939 106.464C240.32 105.653 240.011 104.661 240.011 103.488C240.011 102.293 240.459 101.291 241.355 100.48C242.251 99.648 243.307 99.232 244.523 99.232C245.76 99.232 246.795 99.5093 247.627 100.064C248.459 100.619 248.875 101.291 248.875 102.08C248.875 102.464 248.758 102.773 248.523 103.008C248.31 103.221 247.99 103.328 247.563 103.328C247.136 103.328 246.72 103.147 246.315 102.784C245.931 102.421 245.739 102.091 245.739 101.792C245.739 101.493 245.771 101.248 245.835 101.056C245.643 100.693 245.195 100.512 244.491 100.512C243.787 100.512 243.158 100.789 242.603 101.344C242.07 101.899 241.803 102.517 241.803 103.2C241.803 104.309 242.806 105.525 244.811 106.848L246.443 107.936C247.147 108.427 247.67 108.811 248.011 109.088C248.374 109.344 248.822 109.749 249.355 110.304C250.379 111.371 250.891 112.779 250.891 114.528C250.891 116.277 250.283 117.685 249.067 118.752C247.851 119.819 246.411 120.352 244.747 120.352C243.083 120.352 241.643 119.851 240.427 118.848C239.232 117.824 238.635 116.683 238.635 115.424ZM262.421 98.208C262.677 98.208 262.891 98.2933 263.061 98.464C263.232 98.6133 263.317 98.7733 263.317 98.944C263.317 99.1147 263.243 99.328 263.093 99.584H273.365L273.461 99.296C273.653 98.6987 273.973 98.4 274.421 98.4C274.656 98.4 274.859 98.4853 275.029 98.656C275.221 98.8053 275.317 98.9867 275.317 99.2C275.317 99.4133 275.264 99.6267 275.157 99.84L273.973 102.048C273.781 102.411 273.579 102.592 273.365 102.592C272.917 102.592 272.693 102.389 272.693 101.984C272.693 101.856 272.715 101.749 272.757 101.664L272.917 101.12H268.565V118.336H269.397C269.909 118.336 270.165 118.613 270.165 119.168C270.165 119.723 269.909 120 269.397 120H265.941C265.429 120 265.173 119.723 265.173 119.168C265.173 118.613 265.429 118.336 265.941 118.336H266.741V101.12H262.421L261.909 101.952C261.739 102.208 261.547 102.336 261.333 102.336C261.12 102.336 260.949 102.283 260.821 102.176C260.715 102.048 260.661 101.909 260.661 101.76C260.661 101.589 260.693 101.429 260.757 101.28L261.525 99.008C261.696 98.4747 261.995 98.208 262.421 98.208ZM301.39 99.584C301.881 99.584 302.126 99.872 302.126 100.448C302.126 101.003 301.881 101.28 301.39 101.28H300.686V113.056C300.686 115.168 300.046 116.907 298.766 118.272C297.507 119.637 295.886 120.32 293.902 120.32C291.918 120.32 290.243 119.68 288.878 118.4C287.513 117.12 286.83 115.445 286.83 113.376V101.28H286.126C285.635 101.28 285.39 101.003 285.39 100.448C285.39 99.872 285.635 99.584 286.126 99.584H289.358C289.891 99.584 290.158 99.872 290.158 100.448C290.158 101.003 289.891 101.28 289.358 101.28H288.686V112.864C288.686 114.656 289.166 116.085 290.126 117.152C291.107 118.197 292.398 118.72 293.998 118.72C295.619 118.72 296.867 118.155 297.742 117.024C298.617 115.872 299.054 114.475 299.054 112.832V101.28H298.35C297.859 101.28 297.614 101.003 297.614 100.448C297.614 99.872 297.859 99.584 298.35 99.584H301.39ZM313.117 99.584H316.605C316.819 99.584 317 99.6693 317.149 99.84C317.299 100.011 317.373 100.224 317.373 100.48C317.373 100.715 317.299 100.907 317.149 101.056C317 101.205 316.819 101.28 316.605 101.28H315.869L321.661 117.856L326.525 103.872C326.867 102.848 327.037 102.261 327.037 102.112C327.037 101.579 326.877 101.269 326.557 101.184C326.173 101.632 325.715 101.856 325.181 101.856C324.669 101.856 324.275 101.739 323.997 101.504C323.72 101.248 323.581 100.981 323.581 100.704C323.581 99.5733 324.307 99.008 325.757 99.008C326.525 99.008 327.187 99.296 327.741 99.872C328.296 100.427 328.573 101.045 328.573 101.728C328.573 102.389 328.371 103.253 327.965 104.32L322.525 119.616C322.333 120.128 321.981 120.384 321.469 120.384C320.957 120.384 320.616 120.139 320.445 119.648L313.981 101.28H313.117C312.904 101.28 312.723 101.205 312.573 101.056C312.445 100.907 312.381 100.715 312.381 100.48C312.381 100.224 312.445 100.011 312.573 99.84C312.723 99.6693 312.904 99.584 313.117 99.584ZM339.273 101.28C338.761 101.28 338.505 101.003 338.505 100.448C338.505 99.872 338.761 99.584 339.273 99.584H342.537C343.006 99.584 343.241 99.872 343.241 100.448C343.241 101.003 343.006 101.28 342.537 101.28H341.897L347.305 117.536L350.025 109.952L347.145 101.28H346.441C346.206 101.28 346.014 101.205 345.865 101.056C345.716 100.885 345.641 100.683 345.641 100.448C345.641 100.213 345.716 100.011 345.865 99.84C346.014 99.6693 346.206 99.584 346.441 99.584H349.513C349.769 99.584 349.982 99.6693 350.153 99.84C350.324 100.011 350.409 100.213 350.409 100.448C350.409 100.683 350.324 100.885 350.153 101.056C350.004 101.205 349.79 101.28 349.513 101.28H348.969L354.441 117.728L359.273 103.872C359.55 103.083 359.689 102.464 359.689 102.016C359.689 101.547 359.529 101.269 359.209 101.184C358.825 101.632 358.377 101.856 357.865 101.856C357.353 101.856 356.958 101.749 356.681 101.536C356.425 101.301 356.297 100.971 356.297 100.544C356.297 100.117 356.5 99.7547 356.905 99.456C357.31 99.1573 357.876 99.008 358.601 99.008C359.326 99.008 359.945 99.296 360.457 99.872C360.969 100.448 361.225 101.088 361.225 101.792C361.225 102.475 361.044 103.317 360.681 104.32L355.273 119.552C355.102 120.064 354.782 120.32 354.313 120.32C354.1 120.32 353.876 120.256 353.641 120.128C353.428 120 353.289 119.829 353.225 119.616L350.761 112.224L348.105 119.552C347.913 120.064 347.582 120.32 347.113 120.32C346.665 120.32 346.356 120.075 346.185 119.584L340.041 101.28H339.273ZM373.08 101.248C372.589 101.248 372.344 100.971 372.344 100.416C372.344 100.203 372.408 100.011 372.536 99.84C372.685 99.6693 372.867 99.584 373.08 99.584H376.76C376.973 99.584 377.155 99.6693 377.304 99.84C377.453 100.011 377.528 100.213 377.528 100.448C377.528 100.661 377.453 100.853 377.304 101.024C377.155 101.173 376.973 101.248 376.76 101.248H376.088L378.872 106.784L381.72 101.248H380.952C380.739 101.248 380.557 101.173 380.408 101.024C380.259 100.853 380.184 100.661 380.184 100.448C380.184 100.213 380.259 100.011 380.408 99.84C380.557 99.6693 380.739 99.584 380.952 99.584H384.376C384.589 99.584 384.76 99.6693 384.888 99.84C385.037 100.011 385.112 100.203 385.112 100.416C385.112 100.971 384.867 101.248 384.376 101.248H383.448L379.704 108.512L384.728 118.336H385.592C386.083 118.336 386.328 118.613 386.328 119.168C386.328 119.723 386.083 120 385.592 120H382.008C381.496 120 381.24 119.723 381.24 119.168C381.24 118.613 381.496 118.336 382.008 118.336H382.68L378.648 110.336L374.584 118.336H375.384C375.597 118.336 375.779 118.421 375.928 118.592C376.077 118.741 376.152 118.933 376.152 119.168C376.152 119.403 376.077 119.605 375.928 119.776C375.779 119.925 375.597 120 375.384 120H371.928C371.416 120 371.16 119.723 371.16 119.168C371.16 118.613 371.416 118.336 371.928 118.336H372.792L377.784 108.544L374.04 101.248H373.08ZM405.884 118.304H406.652C407.164 118.304 407.42 118.592 407.42 119.168C407.42 119.723 407.164 120 406.652 120H403.26C402.748 120 402.492 119.723 402.492 119.168C402.492 118.592 402.748 118.304 403.26 118.304H404.028V112.576L397.916 101.28H396.924C396.476 101.28 396.252 100.992 396.252 100.416C396.252 100.203 396.316 100.011 396.444 99.84C396.572 99.6693 396.732 99.584 396.924 99.584H400.892C401.084 99.584 401.244 99.6693 401.372 99.84C401.5 100.011 401.564 100.203 401.564 100.416C401.564 100.992 401.34 101.28 400.892 101.28H399.996L405.084 110.72L410.076 101.28H409.308C408.818 101.28 408.572 100.992 408.572 100.416C408.572 100.203 408.636 100.011 408.764 99.84C408.892 99.6693 409.074 99.584 409.308 99.584H412.7C412.914 99.584 413.084 99.6693 413.212 99.84C413.362 100.011 413.436 100.213 413.436 100.448C413.436 100.683 413.362 100.885 413.212 101.056C413.084 101.205 412.914 101.28 412.7 101.28H411.868L405.884 112.544V118.304ZM435.633 116.672C435.633 116.352 435.74 116.075 435.953 115.84C436.188 115.605 436.529 115.488 436.977 115.488C437.446 115.488 437.852 115.68 438.193 116.064C438.534 116.448 438.705 116.949 438.705 117.568C438.705 118.187 438.449 118.816 437.937 119.456C437.425 120.075 436.668 120.384 435.665 120.384C434.662 120.384 433.585 120.032 432.433 119.328C431.302 118.603 430.396 118.24 429.713 118.24C428.71 118.24 427.409 118.72 425.809 119.68C425.51 119.872 425.34 119.979 425.297 120H424.817C423.836 120 423.345 119.669 423.345 119.008C423.345 118.731 423.441 118.443 423.633 118.144L430.001 108.576C429.745 108.363 429.414 108.256 429.009 108.256C428.604 108.256 428.23 108.597 427.889 109.28C427.804 109.493 427.622 109.6 427.345 109.6C427.089 109.6 426.854 109.525 426.641 109.376C426.449 109.205 426.353 108.949 426.353 108.608C426.353 108.245 426.641 107.861 427.217 107.456C427.793 107.051 428.369 106.848 428.945 106.848C429.521 106.848 430.15 107.008 430.833 107.328L434.129 102.272C433.702 102.528 433.244 102.656 432.753 102.656C431.878 102.656 430.844 102.293 429.649 101.568C428.476 100.843 427.633 100.48 427.121 100.48C426.63 100.48 426.278 100.725 426.065 101.216C426.385 101.323 426.641 101.515 426.833 101.792C427.025 102.069 427.121 102.357 427.121 102.656C427.121 102.933 427.004 103.168 426.769 103.36C426.556 103.552 426.257 103.648 425.873 103.648C425.489 103.648 425.126 103.477 424.785 103.136C424.465 102.773 424.305 102.283 424.305 101.664C424.305 101.045 424.582 100.491 425.137 100C425.692 99.488 426.492 99.232 427.537 99.232C428.604 99.232 429.67 99.5627 430.737 100.224C431.825 100.864 432.614 101.184 433.105 101.184C434.044 101.184 434.876 100.704 435.601 99.744C435.836 99.424 436.113 99.264 436.433 99.264C436.753 99.264 437.03 99.3707 437.265 99.584C437.5 99.7973 437.617 100.011 437.617 100.224C437.617 100.437 437.564 100.619 437.457 100.768C437.372 100.896 437.222 101.056 437.009 101.248C436.817 101.44 436.646 101.643 436.497 101.856L432.369 108.128C432.774 108.363 433.084 108.48 433.297 108.48C433.532 108.48 433.745 108.331 433.937 108.032C434.15 107.733 434.374 107.584 434.609 107.584C434.865 107.584 435.078 107.691 435.249 107.904C435.42 108.096 435.505 108.352 435.505 108.672C435.505 108.971 435.324 109.248 434.961 109.504C434.598 109.739 434.161 109.856 433.649 109.856C433.158 109.856 432.486 109.653 431.633 109.248L425.809 118.112C427.26 117.131 428.71 116.64 430.161 116.64C430.886 116.64 431.569 116.757 432.209 116.992C432.849 117.227 433.35 117.483 433.713 117.76C434.716 118.528 435.473 118.912 435.985 118.912C436.518 118.912 436.785 118.571 436.785 117.888C436.508 117.888 436.241 117.76 435.985 117.504C435.75 117.248 435.633 116.971 435.633 116.672Z" fill="#F4C430"/>
<path d="M136.674 160.256C138.508 160.256 139.927 160.853 140.93 162.048C141.954 163.243 142.466 164.768 142.466 166.624C142.466 169.568 142.572 171.563 142.786 172.608C142.999 173.632 143.404 174.357 144.002 174.784C144.364 174.955 144.546 175.189 144.546 175.488C144.546 176.043 144.29 176.32 143.778 176.32C143.266 176.32 142.775 176.085 142.306 175.616C141.858 175.125 141.495 174.528 141.218 173.824C140.855 174.528 140.268 175.125 139.458 175.616C138.668 176.085 137.719 176.32 136.61 176.32C134.988 176.32 133.666 175.819 132.642 174.816C131.639 173.792 131.138 172.501 131.138 170.944C131.138 169.365 131.671 168.021 132.738 166.912C133.804 165.803 135.127 165.248 136.706 165.248C138.306 165.248 139.639 165.771 140.706 166.816C140.706 165.323 140.386 164.075 139.746 163.072C139.106 162.048 138.124 161.536 136.802 161.536C135.479 161.536 134.647 161.899 134.306 162.624C134.498 163.072 134.594 163.445 134.594 163.744C134.594 164.043 134.466 164.363 134.21 164.704C133.954 165.045 133.634 165.216 133.25 165.216C132.887 165.216 132.599 165.056 132.386 164.736C132.172 164.416 132.066 164.043 132.066 163.616C132.066 162.72 132.503 161.941 133.378 161.28C134.274 160.597 135.372 160.256 136.674 160.256ZM132.898 170.784C132.898 171.957 133.292 172.939 134.082 173.728C134.871 174.517 135.81 174.912 136.898 174.912C138.007 174.912 138.935 174.539 139.682 173.792C140.428 173.024 140.802 172.096 140.802 171.008V170.72C140.802 169.568 140.418 168.619 139.65 167.872C138.882 167.125 137.932 166.752 136.802 166.752C135.692 166.752 134.764 167.136 134.018 167.904C133.271 168.651 132.898 169.611 132.898 170.784ZM157.461 163.04C158.485 161.397 159.914 160.576 161.749 160.576C163.605 160.576 165.045 161.312 166.069 162.784C167.114 164.256 167.637 166.144 167.637 168.448C167.637 170.731 167.103 172.597 166.037 174.048C164.97 175.499 163.498 176.224 161.621 176.224C159.765 176.224 158.303 175.531 157.237 174.144C156.191 172.757 155.669 170.795 155.669 168.256V157.28H154.837C154.367 157.28 154.133 157.003 154.133 156.448C154.133 155.893 154.367 155.616 154.837 155.616H158.293C158.527 155.616 158.709 155.701 158.837 155.872C158.965 156.021 159.029 156.213 159.029 156.448C159.029 156.661 158.965 156.853 158.837 157.024C158.709 157.195 158.527 157.28 158.293 157.28H157.461V163.04ZM157.333 168.64C157.333 170.624 157.749 172.149 158.581 173.216C159.413 174.261 160.383 174.784 161.493 174.784C162.623 174.784 163.519 174.432 164.181 173.728C165.311 172.533 165.877 170.773 165.877 168.448C165.877 166.912 165.589 165.504 165.013 164.224C164.714 163.563 164.277 163.029 163.701 162.624C163.125 162.219 162.453 162.016 161.685 162.016C160.341 162.016 159.274 162.624 158.485 163.84C157.717 165.035 157.333 166.635 157.333 168.64ZM188.633 171.616C189.017 171.616 189.295 171.712 189.465 171.904C189.636 172.075 189.721 172.267 189.721 172.48C189.721 173.227 189.241 174.059 188.281 174.976C187.343 175.872 186.116 176.32 184.601 176.32C182.681 176.32 181.135 175.563 179.961 174.048C178.788 172.512 178.201 170.592 178.201 168.288C178.201 165.984 178.767 164.085 179.897 162.592C181.028 161.077 182.468 160.32 184.217 160.32C185.177 160.32 186.02 160.555 186.745 161.024C187.471 161.472 187.833 162.069 187.833 162.816C187.833 163.2 187.727 163.52 187.513 163.776C187.321 164.032 187.033 164.16 186.649 164.16C186.265 164.16 185.924 163.947 185.625 163.52C185.327 163.072 185.167 162.56 185.145 161.984C184.804 161.835 184.505 161.76 184.249 161.76C183.076 161.76 182.073 162.368 181.241 163.584C180.409 164.779 179.993 166.336 179.993 168.256C179.993 170.155 180.431 171.733 181.305 172.992C182.201 174.229 183.3 174.848 184.601 174.848C185.903 174.848 186.937 174.027 187.705 172.384C187.94 171.872 188.249 171.616 188.633 171.616ZM211.637 174.336H213.141C213.333 174.336 213.493 174.421 213.621 174.592C213.749 174.763 213.813 174.955 213.813 175.168C213.813 175.381 213.749 175.573 213.621 175.744C213.493 175.915 213.333 176 213.141 176H210.453C210.048 176 209.845 175.787 209.845 175.36V173.536C209.376 174.283 208.747 174.901 207.957 175.392C207.168 175.861 206.315 176.096 205.397 176.096C203.627 176.096 202.219 175.392 201.173 173.984C200.149 172.555 199.637 170.709 199.637 168.448C199.637 166.165 200.16 164.277 201.205 162.784C202.251 161.269 203.659 160.512 205.429 160.512C206.389 160.512 207.264 160.736 208.053 161.184C208.843 161.632 209.44 162.229 209.845 162.976V157.248H208.341C207.829 157.248 207.573 156.971 207.573 156.416C207.573 155.861 207.829 155.584 208.341 155.584H210.805C211.104 155.584 211.317 155.648 211.445 155.776C211.573 155.883 211.637 156.096 211.637 156.416V174.336ZM201.397 168.448C201.397 170.091 201.749 171.531 202.453 172.768C203.157 174.005 204.203 174.624 205.589 174.624C206.976 174.624 208.053 174.08 208.821 172.992C209.589 171.904 209.973 170.411 209.973 168.512C209.973 166.613 209.6 165.045 208.853 163.808C208.128 162.571 207.072 161.952 205.685 161.952C204.661 161.952 203.819 162.325 203.157 163.072C201.984 164.331 201.397 166.123 201.397 168.448ZM233.991 165.376C233.905 164.523 233.521 163.701 232.839 162.912C232.156 162.123 231.303 161.728 230.279 161.728C229.276 161.728 228.444 162.101 227.783 162.848C227.121 163.595 226.663 164.437 226.407 165.376H233.991ZM230.631 176.32C228.689 176.32 227.132 175.563 225.959 174.048C224.785 172.533 224.199 170.603 224.199 168.256C224.199 165.909 224.753 164 225.863 162.528C226.993 161.056 228.476 160.32 230.311 160.32C231.249 160.32 232.092 160.533 232.839 160.96C233.585 161.365 234.161 161.877 234.567 162.496C235.42 163.755 235.847 164.949 235.847 166.08C235.847 166.677 235.569 166.976 235.015 166.976H226.055C226.012 167.253 225.991 167.648 225.991 168.16C225.991 170.123 226.428 171.733 227.303 172.992C228.199 174.251 229.308 174.88 230.631 174.88C231.207 174.88 231.729 174.731 232.199 174.432C232.668 174.112 232.999 173.813 233.191 173.536C233.383 173.237 233.596 172.843 233.831 172.352C234.087 171.861 234.428 171.616 234.855 171.616C235.495 171.616 235.815 171.904 235.815 172.48C235.815 173.227 235.335 174.059 234.375 174.976C233.436 175.872 232.188 176.32 230.631 176.32ZM248.896 157.088C249.621 156.213 250.432 155.776 251.328 155.776C252.224 155.776 252.896 155.989 253.344 156.416C253.813 156.821 254.048 157.237 254.048 157.664C254.048 158.091 253.941 158.411 253.728 158.624C253.515 158.816 253.216 158.912 252.832 158.912C252.448 158.912 252.085 158.72 251.744 158.336C251.424 157.931 251.232 157.515 251.168 157.088C250.677 157.131 250.261 157.525 249.92 158.272C249.579 158.997 249.387 159.829 249.344 160.768H250.976C251.189 160.768 251.36 160.843 251.488 160.992C251.616 161.141 251.68 161.323 251.68 161.536C251.68 161.728 251.605 161.899 251.456 162.048C251.328 162.197 251.168 162.272 250.976 162.272H249.44V174.336H250.464C250.656 174.336 250.827 174.421 250.976 174.592C251.125 174.763 251.2 174.955 251.2 175.168C251.2 175.381 251.125 175.573 250.976 175.744C250.848 175.915 250.677 176 250.464 176H246.752C246.197 176 245.92 175.712 245.92 175.136C245.92 174.923 245.984 174.741 246.112 174.592C246.261 174.421 246.475 174.336 246.752 174.336H247.648V162.272H246.592C246.379 162.272 246.208 162.197 246.08 162.048C245.973 161.899 245.92 161.728 245.92 161.536C245.92 161.024 246.144 160.768 246.592 160.768H247.744C247.808 159.189 248.192 157.963 248.896 157.088ZM270.537 176C270.58 176.704 270.804 177.259 271.209 177.664C271.636 178.091 272.148 178.304 272.745 178.304C273.343 178.304 273.769 178.176 274.025 177.92C274.303 177.664 274.441 177.344 274.441 176.96C274.441 176.235 273.833 175.872 272.617 175.872C271.913 175.872 271.22 175.915 270.537 176ZM271.017 171.04C272.468 171.04 273.673 170.603 274.633 169.728C275.593 168.832 276.073 167.723 276.073 166.4C276.073 165.077 275.508 163.957 274.377 163.04C273.268 162.123 272.009 161.664 270.601 161.664C269.215 161.664 268.009 162.101 266.985 162.976C265.983 163.829 265.481 164.939 265.481 166.304C265.481 167.648 266.047 168.768 267.177 169.664C268.308 170.56 269.588 171.019 271.017 171.04ZM277.737 166.432C277.737 168.139 277.065 169.568 275.721 170.72C274.399 171.851 272.767 172.416 270.825 172.416C270.057 172.416 269.321 172.309 268.617 172.096L267.369 174.336H272.937C274.025 174.336 274.804 174.592 275.273 175.104C275.764 175.595 276.009 176.192 276.009 176.896C276.009 177.621 275.689 178.251 275.049 178.784C274.409 179.339 273.577 179.616 272.553 179.616C271.551 179.616 270.623 179.243 269.769 178.496C268.916 177.749 268.468 176.917 268.425 176H266.025C265.343 176 265.001 175.765 265.001 175.296C265.001 175.147 265.055 174.987 265.161 174.816L267.113 171.52C266.153 171.051 265.364 170.336 264.745 169.376C264.127 168.416 263.817 167.371 263.817 166.24C263.817 164.576 264.489 163.179 265.833 162.048C267.177 160.896 268.82 160.32 270.761 160.32C271.657 160.32 272.457 160.427 273.161 160.64L274.345 158.72C274.964 157.696 275.721 157.184 276.617 157.184C277.215 157.184 277.716 157.408 278.121 157.856C278.548 158.304 278.761 158.741 278.761 159.168C278.761 159.573 278.665 159.883 278.473 160.096C278.281 160.288 278.015 160.384 277.673 160.384C277.353 160.384 277.012 160.224 276.649 159.904C276.287 159.584 276.063 159.189 275.977 158.72L274.441 161.184C275.444 161.76 276.244 162.507 276.841 163.424C277.439 164.32 277.737 165.323 277.737 166.432ZM290.807 157.248H289.559C289.09 157.248 288.855 156.971 288.855 156.416C288.855 155.861 289.09 155.584 289.559 155.584H291.895C292.172 155.584 292.354 155.637 292.439 155.744C292.546 155.829 292.599 156.011 292.599 156.288V163.456C292.983 162.688 293.602 161.995 294.455 161.376C295.308 160.757 296.343 160.448 297.559 160.448C298.796 160.448 299.746 160.928 300.407 161.888C301.068 162.827 301.399 163.925 301.399 165.184V174.336H302.327C302.562 174.336 302.743 174.421 302.871 174.592C302.999 174.763 303.063 174.955 303.063 175.168C303.063 175.381 302.999 175.573 302.871 175.744C302.743 175.915 302.562 176 302.327 176H298.807C298.252 176 297.975 175.723 297.975 175.168C297.975 174.613 298.252 174.336 298.807 174.336H299.607V165.088C299.607 164.32 299.426 163.605 299.063 162.944C298.7 162.283 298.082 161.952 297.207 161.952C296.034 161.952 294.967 162.56 294.007 163.776C293.068 164.992 292.599 166.272 292.599 167.616V174.336H293.527C293.762 174.336 293.954 174.421 294.103 174.592C294.252 174.763 294.327 174.955 294.327 175.168C294.327 175.381 294.252 175.573 294.103 175.744C293.954 175.915 293.762 176 293.527 176H289.815C289.303 176 289.047 175.723 289.047 175.168C289.047 174.613 289.303 174.336 289.815 174.336H290.807V157.248ZM315.551 162.272H314.719C314.463 162.272 314.261 162.197 314.111 162.048C313.962 161.877 313.887 161.685 313.887 161.472C313.887 160.917 314.165 160.64 314.719 160.64H316.319C316.981 160.64 317.322 160.928 317.343 161.504V174.336H318.143C318.399 174.336 318.591 174.421 318.719 174.592C318.869 174.763 318.943 174.955 318.943 175.168C318.943 175.723 318.677 176 318.143 176H314.751C314.538 176 314.346 175.925 314.175 175.776C314.026 175.605 313.951 175.413 313.951 175.2C313.951 174.987 314.026 174.795 314.175 174.624C314.346 174.432 314.538 174.336 314.751 174.336L315.551 174.304V162.272ZM316.031 155.68C316.458 155.68 316.81 155.819 317.087 156.096C317.386 156.373 317.535 156.715 317.535 157.12C317.535 157.504 317.386 157.835 317.087 158.112C316.81 158.389 316.458 158.528 316.031 158.528C315.626 158.528 315.274 158.389 314.975 158.112C314.698 157.835 314.559 157.504 314.559 157.12C314.559 156.715 314.698 156.373 314.975 156.096C315.253 155.819 315.605 155.68 316.031 155.68ZM333.627 162.272H332.635C332.144 162.272 331.899 162.005 331.899 161.472C331.899 160.917 332.144 160.64 332.635 160.64H336.219C336.731 160.64 336.987 160.917 336.987 161.472C336.987 162.005 336.731 162.272 336.219 162.272L335.419 162.304V172C335.419 174.667 335.238 176.48 334.875 177.44C334.427 178.635 333.83 179.403 333.083 179.744C332.635 179.957 332.102 180.064 331.483 180.064C330.864 180.064 330.31 179.851 329.819 179.424C329.35 179.019 329.115 178.539 329.115 177.984C329.115 177.28 329.478 176.928 330.203 176.928C330.758 176.928 331.184 177.131 331.483 177.536C331.782 177.941 331.952 178.357 331.995 178.784C332.55 178.592 332.955 178.059 333.211 177.184C333.488 176.331 333.627 175.424 333.627 174.464V162.272ZM334.331 155.68C334.758 155.68 335.11 155.819 335.387 156.096C335.686 156.373 335.835 156.715 335.835 157.12C335.835 157.504 335.686 157.835 335.387 158.112C335.11 158.389 334.758 158.528 334.331 158.528C333.926 158.528 333.574 158.389 333.275 158.112C332.998 157.835 332.859 157.504 332.859 157.12C332.859 156.715 332.998 156.373 333.275 156.096C333.552 155.819 333.904 155.68 334.331 155.68ZM349.48 157.248H348.808C348.318 157.248 348.072 156.971 348.072 156.416C348.072 155.861 348.318 155.584 348.808 155.584H352.104C352.595 155.584 352.84 155.861 352.84 156.416C352.84 156.971 352.595 157.248 352.104 157.248H351.272V166.112L356.168 162.272H355.496C355.304 162.272 355.134 162.197 354.984 162.048C354.856 161.877 354.792 161.685 354.792 161.472C354.792 161.237 354.856 161.045 354.984 160.896C355.112 160.747 355.283 160.672 355.496 160.672H359.304C359.752 160.672 359.976 160.939 359.976 161.472C359.976 162.005 359.752 162.272 359.304 162.272H358.344L355.08 164.896L360.36 174.336H361.288C361.736 174.336 361.96 174.613 361.96 175.168C361.96 175.723 361.736 176 361.288 176H357.64C357.107 176 356.84 175.723 356.84 175.168C356.84 174.613 357.107 174.336 357.64 174.336H358.344L353.704 165.984L351.272 167.808V174.336H351.912C352.382 174.336 352.616 174.613 352.616 175.168C352.616 175.723 352.382 176 351.912 176H348.648C348.2 176 347.976 175.723 347.976 175.168C347.976 174.613 348.2 174.336 348.648 174.336H349.48V157.248ZM374.146 157.28H373.122C372.866 157.28 372.663 157.205 372.514 157.056C372.364 156.885 372.29 156.683 372.29 156.448C372.29 156.192 372.364 155.989 372.514 155.84C372.663 155.691 372.866 155.616 373.122 155.616H374.946C375.308 155.616 375.564 155.68 375.714 155.808C375.863 155.936 375.938 156.171 375.938 156.512V174.336H376.738C376.994 174.336 377.186 174.421 377.314 174.592C377.463 174.763 377.538 174.955 377.538 175.168C377.538 175.723 377.271 176 376.738 176H373.346C373.111 176 372.919 175.925 372.77 175.776C372.62 175.605 372.546 175.413 372.546 175.2C372.546 174.965 372.62 174.763 372.77 174.592C372.919 174.421 373.111 174.336 373.346 174.336H374.146V157.28ZM407.737 174.336H408.473C408.708 174.336 408.889 174.421 409.017 174.592C409.145 174.763 409.209 174.955 409.209 175.168C409.209 175.381 409.145 175.573 409.017 175.744C408.889 175.915 408.708 176 408.473 176H405.401C405.166 176 404.985 175.915 404.857 175.744C404.729 175.573 404.665 175.381 404.665 175.168C404.665 174.955 404.729 174.763 404.857 174.592C404.985 174.421 405.166 174.336 405.401 174.336H405.945V165.888C405.945 164.565 405.806 163.584 405.529 162.944C405.252 162.283 404.686 161.952 403.833 161.952C403.001 161.952 402.276 162.304 401.657 163.008C400.505 164.288 399.929 165.867 399.929 167.744V174.336H400.569C400.825 174.336 401.017 174.421 401.145 174.592C401.294 174.763 401.369 174.965 401.369 175.2C401.369 175.413 401.294 175.605 401.145 175.776C401.017 175.925 400.825 176 400.569 176H397.529C396.974 176 396.697 175.723 396.697 175.168C396.697 174.613 396.974 174.336 397.529 174.336H398.169V165.664C398.169 164.96 398.126 164.363 398.041 163.872C397.956 163.381 397.742 162.944 397.401 162.56C397.06 162.155 396.59 161.952 395.993 161.952C394.82 161.952 393.881 162.571 393.177 163.808C392.494 165.045 392.153 166.336 392.153 167.68V174.336H392.793C392.985 174.336 393.156 174.432 393.305 174.624C393.476 174.795 393.561 174.987 393.561 175.2C393.561 175.392 393.486 175.573 393.337 175.744C393.188 175.915 393.006 176 392.793 176H389.529C389.273 176 389.07 175.915 388.921 175.744C388.772 175.573 388.697 175.381 388.697 175.168C388.697 174.955 388.772 174.763 388.921 174.592C389.07 174.421 389.273 174.336 389.529 174.336H390.361V162.304H389.241C389.028 162.304 388.846 162.229 388.697 162.08C388.569 161.931 388.505 161.728 388.505 161.472C388.505 161.195 388.58 160.992 388.729 160.864C388.9 160.715 389.07 160.64 389.241 160.64H391.609C391.822 160.64 391.961 160.672 392.025 160.736C392.11 160.8 392.153 160.949 392.153 161.184V163.264H392.217C393.156 161.387 394.489 160.448 396.217 160.448C397.966 160.448 399.108 161.451 399.641 163.456C400.836 161.451 402.308 160.448 404.057 160.448C405.401 160.448 406.35 160.939 406.905 161.92C407.46 162.88 407.737 164.053 407.737 165.44V174.336ZM423.938 174.336H424.866C425.1 174.336 425.292 174.421 425.442 174.592C425.591 174.763 425.666 174.955 425.666 175.168C425.666 175.381 425.591 175.573 425.442 175.744C425.292 175.915 425.1 176 424.866 176H421.122C420.887 176 420.695 175.925 420.546 175.776C420.418 175.605 420.354 175.413 420.354 175.2C420.354 174.965 420.418 174.763 420.546 174.592C420.695 174.421 420.887 174.336 421.122 174.336H422.146V162.304H420.834C420.599 162.304 420.418 162.229 420.29 162.08C420.162 161.909 420.098 161.696 420.098 161.44C420.098 161.184 420.172 160.992 420.322 160.864C420.492 160.715 420.663 160.64 420.834 160.64H423.298C423.532 160.64 423.692 160.683 423.778 160.768C423.863 160.853 423.906 161.013 423.906 161.248V163.648C424.482 162.688 425.218 161.909 426.114 161.312C427.01 160.715 427.948 160.416 428.93 160.416C430.551 160.416 431.703 160.907 432.386 161.888C433.068 162.848 433.41 164.043 433.41 165.472V174.336H434.306C434.54 174.336 434.732 174.421 434.882 174.592C435.031 174.763 435.106 174.955 435.106 175.168C435.106 175.381 435.031 175.573 434.882 175.744C434.732 175.915 434.54 176 434.306 176H430.85C430.338 176 430.082 175.723 430.082 175.168C430.082 174.613 430.338 174.336 430.85 174.336H431.618V165.312C431.618 163.051 430.711 161.92 428.898 161.92C427.682 161.92 426.551 162.485 425.506 163.616C424.46 164.747 423.938 166.155 423.938 167.84V174.336ZM445.651 168.288C445.651 165.984 446.302 164.096 447.603 162.624C448.926 161.131 450.697 160.384 452.915 160.384C455.155 160.384 456.926 161.12 458.227 162.592C459.55 164.064 460.211 165.952 460.211 168.256C460.211 170.539 459.561 172.437 458.259 173.952C456.958 175.445 455.166 176.192 452.883 176.192C450.622 176.192 448.851 175.445 447.571 173.952C446.291 172.459 445.651 170.571 445.651 168.288ZM449.011 172.832C450.057 174.069 451.358 174.688 452.915 174.688C454.473 174.688 455.774 174.08 456.819 172.864C457.886 171.627 458.419 170.101 458.419 168.288C458.419 166.475 457.886 164.96 456.819 163.744C455.753 162.507 454.451 161.888 452.915 161.888C451.379 161.888 450.078 162.496 449.011 163.712C447.966 164.928 447.443 166.443 447.443 168.256C447.443 170.069 447.966 171.595 449.011 172.832ZM180.772 214.4V198.304H179.588C179.396 198.304 179.236 198.219 179.108 198.048C178.98 197.877 178.916 197.685 178.916 197.472C178.916 197.259 178.98 197.067 179.108 196.896C179.236 196.725 179.396 196.64 179.588 196.64H181.956C182.212 196.64 182.372 196.683 182.436 196.768C182.5 196.832 182.532 196.981 182.532 197.216V199.168C182.98 198.4 183.609 197.781 184.42 197.312C185.23 196.821 186.094 196.576 187.012 196.576C188.804 196.576 190.212 197.291 191.236 198.72C192.26 200.128 192.772 201.973 192.772 204.256C192.772 206.517 192.249 208.384 191.204 209.856C190.18 211.328 188.761 212.064 186.948 212.064C186.03 212.064 185.166 211.84 184.356 211.392C183.545 210.923 182.948 210.347 182.564 209.664V214.4H183.524C183.758 214.4 183.95 214.475 184.1 214.624C184.249 214.773 184.324 214.965 184.324 215.2C184.324 215.776 184.057 216.064 183.524 216.064H179.78C179.268 216.064 179.012 215.776 179.012 215.2C179.012 214.965 179.086 214.773 179.236 214.624C179.385 214.475 179.566 214.4 179.78 214.4H180.772ZM190.98 203.776C190.98 202.453 190.649 201.163 189.988 199.904C189.326 198.645 188.292 198.016 186.884 198.016C185.476 198.016 184.377 198.571 183.588 199.68C182.82 200.789 182.436 202.315 182.436 204.256C182.436 206.176 182.82 207.723 183.588 208.896C184.377 210.048 185.476 210.624 186.884 210.624C187.908 210.624 188.74 210.261 189.38 209.536C190.02 208.811 190.446 208 190.66 207.104C190.873 206.208 190.98 205.099 190.98 203.776ZM209.077 212.128C207.306 212.128 205.898 211.403 204.853 209.952C203.829 208.501 203.317 206.613 203.317 204.288C203.317 201.963 203.84 200.075 204.885 198.624C205.952 197.173 207.488 196.448 209.493 196.448C211.52 196.448 213.066 197.387 214.133 199.264C214.41 198.411 214.773 197.707 215.221 197.152C215.69 196.597 216.202 196.32 216.757 196.32C217.013 196.32 217.205 196.405 217.333 196.576C217.461 196.747 217.525 196.96 217.525 197.216C217.525 197.451 217.376 197.653 217.077 197.824C216.8 197.973 216.576 198.155 216.405 198.368C216.234 198.56 216.053 198.88 215.861 199.328C215.498 200.203 215.317 201.973 215.317 204.64V214.4H216.149C216.64 214.4 216.885 214.677 216.885 215.232C216.885 215.787 216.64 216.064 216.149 216.064H212.661C212.469 216.064 212.298 215.968 212.149 215.776C212.021 215.605 211.957 215.413 211.957 215.2C211.957 215.008 212.021 214.827 212.149 214.656C212.298 214.485 212.469 214.4 212.661 214.4H213.525V209.504C213.056 210.272 212.437 210.901 211.669 211.392C210.901 211.883 210.037 212.128 209.077 212.128ZM209.365 197.888C208.341 197.888 207.498 198.251 206.837 198.976C205.664 200.235 205.077 202.027 205.077 204.352C205.077 205.995 205.429 207.456 206.133 208.736C206.837 209.995 207.872 210.624 209.237 210.624C210.624 210.624 211.701 210.08 212.469 208.992C213.258 207.883 213.653 206.379 213.653 204.48C213.653 202.56 213.28 200.981 212.533 199.744C211.808 198.507 210.752 197.888 209.365 197.888ZM231.209 198.08V210.336H231.817C232.073 210.336 232.265 210.421 232.393 210.592C232.542 210.741 232.617 210.933 232.617 211.168C232.617 211.723 232.35 212 231.817 212H228.777C228.222 212 227.945 211.723 227.945 211.168C227.945 210.613 228.222 210.336 228.777 210.336H229.417V198.304H228.777C228.5 198.304 228.286 198.219 228.137 198.048C227.988 197.877 227.913 197.685 227.913 197.472C227.913 197.237 227.988 197.045 228.137 196.896C228.286 196.725 228.5 196.64 228.777 196.64H234.697C235.785 196.64 236.606 196.875 237.161 197.344C237.716 197.792 237.993 198.368 237.993 199.072C237.993 199.435 237.908 199.765 237.737 200.064C237.566 200.341 237.289 200.48 236.905 200.48C236.521 200.48 236.169 200.309 235.849 199.968C235.55 199.605 235.39 199.232 235.369 198.848C235.369 198.443 235.39 198.187 235.433 198.08H231.209ZM250.624 199.168C250.624 199.936 251.392 200.885 252.928 202.016L253.984 202.816C254.582 203.243 255.051 203.616 255.392 203.936C255.755 204.235 256.128 204.736 256.512 205.44C256.918 206.123 257.12 206.848 257.12 207.616C257.12 208.811 256.726 209.899 255.936 210.88C255.168 211.84 254.08 212.32 252.672 212.32C251.264 212.32 250.112 211.989 249.216 211.328C248.342 210.645 247.904 209.781 247.904 208.736C247.904 208.096 248.075 207.552 248.416 207.104C248.758 206.635 249.12 206.4 249.504 206.4C249.888 206.4 250.176 206.528 250.368 206.784C250.582 207.019 250.688 207.328 250.688 207.712C250.688 208.48 250.432 209.056 249.92 209.44C249.963 209.867 250.23 210.229 250.72 210.528C251.232 210.827 251.894 210.976 252.704 210.976C253.536 210.976 254.208 210.677 254.72 210.08C255.232 209.483 255.488 208.853 255.488 208.192C255.488 207.509 255.328 206.923 255.008 206.432C254.688 205.941 254.368 205.568 254.048 205.312C253.728 205.056 253.216 204.672 252.512 204.16L251.936 203.744C250.912 203.019 250.144 202.357 249.632 201.76C249.12 201.141 248.864 200.395 248.864 199.52C248.864 198.624 249.184 197.877 249.824 197.28C250.464 196.683 251.254 196.384 252.192 196.384C253.131 196.384 253.974 196.651 254.72 197.184C255.467 197.717 255.84 198.379 255.84 199.168C255.84 199.531 255.744 199.84 255.552 200.096C255.382 200.331 255.126 200.448 254.784 200.448C254.443 200.448 254.102 200.256 253.76 199.872C253.44 199.467 253.28 199.093 253.28 198.752C253.28 198.389 253.334 198.08 253.44 197.824C253.248 197.675 252.864 197.6 252.288 197.6C251.734 197.6 251.318 197.771 251.04 198.112C250.763 198.432 250.624 198.784 250.624 199.168ZM273.228 209.92C273.228 209.643 273.313 209.419 273.484 209.248C273.655 209.077 273.879 208.992 274.156 208.992C274.433 208.992 274.657 209.077 274.828 209.248C274.999 209.397 275.084 209.611 275.084 209.888C275.084 210.507 274.807 211.072 274.252 211.584C273.719 212.075 273.047 212.32 272.236 212.32C271.425 212.32 270.753 212.043 270.22 211.488C269.687 210.912 269.42 210.208 269.42 209.376V198.304H268.044C267.809 198.304 267.607 198.219 267.436 198.048C267.287 197.877 267.212 197.685 267.212 197.472C267.212 197.259 267.287 197.067 267.436 196.896C267.607 196.725 267.809 196.64 268.044 196.64H268.812C269.153 196.64 269.367 196.597 269.452 196.512C269.537 196.405 269.58 196.203 269.58 195.904V194.176C269.58 193.344 270.007 192.928 270.86 192.928C271.116 192.928 271.244 193.056 271.244 193.312V196.64H272.652C273.228 196.64 273.516 196.928 273.516 197.504C273.516 197.717 273.441 197.909 273.292 198.08C273.143 198.229 272.929 198.304 272.652 198.304H271.244V209.344C271.244 210.347 271.575 210.848 272.236 210.848C272.897 210.848 273.228 210.539 273.228 209.92ZM295.94 198.304H295.204C294.969 198.304 294.766 198.219 294.596 198.048C294.446 197.877 294.372 197.685 294.372 197.472C294.372 197.259 294.446 197.067 294.596 196.896C294.766 196.725 294.969 196.64 295.204 196.64H298.436C298.948 196.64 299.204 196.917 299.204 197.472C299.204 198.027 298.948 198.304 298.436 198.304H297.732V210.336H298.916C299.406 210.336 299.652 210.613 299.652 211.168C299.652 211.424 299.577 211.627 299.428 211.776C299.278 211.925 299.108 212 298.916 212H296.644C296.388 212 296.206 211.957 296.1 211.872C296.014 211.765 295.972 211.584 295.972 211.328V209.248C294.756 211.232 293.156 212.224 291.172 212.224C289.614 212.224 288.462 211.701 287.716 210.656C286.969 209.589 286.596 208.363 286.596 206.976V198.304H285.892C285.657 198.304 285.476 198.219 285.348 198.048C285.22 197.877 285.156 197.685 285.156 197.472C285.156 197.259 285.22 197.067 285.348 196.896C285.476 196.725 285.657 196.64 285.892 196.64H289.156C289.39 196.64 289.582 196.725 289.732 196.896C289.881 197.067 289.956 197.259 289.956 197.472C289.956 197.685 289.881 197.877 289.732 198.048C289.582 198.219 289.39 198.304 289.156 198.304H288.388V207.008C288.388 207.947 288.633 208.8 289.124 209.568C289.614 210.336 290.404 210.72 291.492 210.72C292.601 210.72 293.614 210.165 294.532 209.056C295.47 207.947 295.94 206.539 295.94 204.832V198.304ZM312.197 198.304H311.269C310.778 198.304 310.533 198.027 310.533 197.472C310.533 196.917 310.778 196.64 311.269 196.64H314.853C315.066 196.64 315.258 196.725 315.429 196.896C315.6 197.067 315.685 197.259 315.685 197.472C315.685 197.685 315.6 197.877 315.429 198.048C315.258 198.219 315.066 198.304 314.853 198.304H313.989V210.624C314.992 210.624 316.016 210.048 317.061 208.896C318.128 207.723 318.992 206.283 319.653 204.576C320.336 202.869 320.677 201.259 320.677 199.744C320.677 198.933 320.57 198.507 320.357 198.464C320.101 198.528 319.898 198.56 319.749 198.56C319.322 198.56 318.938 198.368 318.597 197.984C318.277 197.6 318.117 197.216 318.117 196.832C318.117 195.936 318.554 195.488 319.429 195.488C320.176 195.488 320.816 195.84 321.349 196.544C321.882 197.248 322.149 198.443 322.149 200.128C322.149 201.813 321.722 203.637 320.869 205.6C320.016 207.541 318.896 209.152 317.509 210.432C316.144 211.691 314.757 212.32 313.349 212.32C312.922 212.32 312.624 212.245 312.453 212.096C312.282 211.968 312.197 211.744 312.197 211.424V198.304ZM341.587 198.304H340.883C340.392 198.304 340.147 198.027 340.147 197.472C340.147 196.917 340.392 196.64 340.883 196.64H343.955C344.168 196.64 344.339 196.725 344.467 196.896C344.616 197.045 344.691 197.237 344.691 197.472C344.691 197.707 344.616 197.909 344.467 198.08C344.339 198.229 344.168 198.304 343.955 198.304H343.315V210.464C344.36 210.464 345.416 209.888 346.483 208.736C347.55 207.563 348.403 206.144 349.043 204.48C349.683 202.795 350.003 201.216 350.003 199.744C350.003 198.933 349.896 198.507 349.683 198.464C349.427 198.528 349.224 198.56 349.075 198.56C348.648 198.56 348.264 198.368 347.923 197.984C347.603 197.6 347.443 197.216 347.443 196.832C347.443 195.936 347.88 195.488 348.755 195.488C349.502 195.488 350.142 195.84 350.675 196.544C351.23 197.248 351.507 198.411 351.507 200.032C351.507 201.653 351.112 203.435 350.323 205.376C349.534 207.296 348.435 208.939 347.027 210.304C345.619 211.648 344.147 212.32 342.611 212.32C341.928 212.32 341.587 212.011 341.587 211.392V207.68C341.054 208.96 340.136 210.059 338.835 210.976C337.555 211.872 336.371 212.32 335.283 212.32C334.579 212.32 334.227 212.032 334.227 211.456V198.304H333.299C332.808 198.304 332.563 198.027 332.563 197.472C332.563 196.917 332.808 196.64 333.299 196.64H336.563C336.776 196.64 336.968 196.725 337.139 196.896C337.31 197.067 337.395 197.259 337.395 197.472C337.395 197.685 337.31 197.877 337.139 198.048C336.968 198.219 336.776 198.304 336.563 198.304H335.987V210.464C337.139 210.464 338.355 209.664 339.635 208.064C340.936 206.443 341.587 204.757 341.587 203.008V198.304ZM362.93 198.304C362.695 198.304 362.514 198.229 362.386 198.08C362.258 197.909 362.194 197.717 362.194 197.504C362.194 197.269 362.258 197.067 362.386 196.896C362.514 196.725 362.695 196.64 362.93 196.64H366.386C366.834 196.64 367.058 196.917 367.058 197.472C367.058 198.027 366.834 198.304 366.386 198.304H365.906L368.53 202.144L371.058 198.304H370.578C370.364 198.304 370.194 198.229 370.066 198.08C369.938 197.909 369.874 197.717 369.874 197.504C369.874 197.269 369.938 197.067 370.066 196.896C370.194 196.725 370.364 196.64 370.578 196.64H373.682C373.916 196.64 374.098 196.725 374.226 196.896C374.354 197.067 374.418 197.269 374.418 197.504C374.418 197.717 374.354 197.909 374.226 198.08C374.098 198.229 373.916 198.304 373.682 198.304H372.786L369.362 203.424L374.13 210.336H375.026C375.516 210.336 375.762 210.613 375.762 211.168C375.762 211.723 375.516 212 375.026 212H371.442C371.015 212 370.802 211.723 370.802 211.168C370.802 210.613 371.015 210.336 371.442 210.336H371.986L368.274 204.704L364.626 210.336H365.202C365.671 210.336 365.906 210.613 365.906 211.168C365.906 211.723 365.671 212 365.202 212H362.002C361.511 212 361.266 211.723 361.266 211.168C361.266 210.613 361.511 210.336 362.002 210.336H362.898L367.378 203.456L363.826 198.304H362.93ZM386.03 198.304C385.859 198.304 385.699 198.219 385.55 198.048C385.422 197.856 385.358 197.664 385.358 197.472C385.358 197.259 385.422 197.067 385.55 196.896C385.699 196.725 385.859 196.64 386.03 196.64H389.838C390.009 196.64 390.158 196.725 390.286 196.896C390.435 197.067 390.51 197.259 390.51 197.472C390.51 197.664 390.435 197.856 390.286 198.048C390.158 198.219 390.009 198.304 389.838 198.304L388.942 198.336L393.23 208.256L397.614 198.304H396.846C396.654 198.304 396.483 198.219 396.334 198.048C396.185 197.856 396.11 197.664 396.11 197.472C396.11 197.259 396.174 197.067 396.302 196.896C396.451 196.725 396.633 196.64 396.846 196.64H400.046C400.259 196.64 400.43 196.725 400.558 196.896C400.707 197.067 400.782 197.259 400.782 197.472C400.782 197.664 400.707 197.856 400.558 198.048C400.409 198.219 400.238 198.304 400.046 198.304H399.278L393.198 211.936C392.302 214.005 391.385 215.264 390.446 215.712C389.977 215.947 389.39 216.064 388.686 216.064C387.982 216.064 387.395 215.84 386.926 215.392C386.478 214.965 386.254 214.549 386.254 214.144C386.254 213.333 386.606 212.928 387.31 212.928C387.843 212.928 388.259 213.131 388.558 213.536C388.878 213.963 389.059 214.4 389.102 214.848C389.998 214.784 390.862 213.792 391.694 211.872L392.302 210.368L387.15 198.304H386.03ZM411.54 212C411.241 212 410.996 211.925 410.804 211.776C410.633 211.605 410.548 211.413 410.548 211.2C410.548 210.987 410.612 210.784 410.74 210.592L418.548 198.08H413.204C412.905 198.08 412.649 198.144 412.436 198.272C412.223 198.4 412.095 198.56 412.052 198.752C412.543 198.816 412.98 198.997 413.364 199.296C413.769 199.573 413.972 199.904 413.972 200.288C413.972 200.672 413.865 200.949 413.652 201.12C413.46 201.269 413.236 201.344 412.98 201.344C412.383 201.344 411.86 201.099 411.412 200.608C410.985 200.117 410.772 199.552 410.772 198.912C410.772 198.272 411.007 197.739 411.476 197.312C411.967 196.864 412.543 196.64 413.204 196.64H419.732C420.415 196.64 420.756 196.875 420.756 197.344C420.756 197.557 420.681 197.771 420.532 197.984L413.268 209.76C413.993 209.312 414.729 209.088 415.476 209.088C416.223 209.088 417.044 209.515 417.94 210.368C418.409 210.837 418.783 211.072 419.06 211.072C419.359 211.072 419.529 210.923 419.572 210.624C419.359 210.453 419.167 210.187 418.996 209.824C418.847 209.461 418.772 209.131 418.772 208.832C418.772 208.533 418.868 208.245 419.06 207.968C419.252 207.691 419.54 207.552 419.924 207.552C420.329 207.552 420.703 207.765 421.044 208.192C421.385 208.619 421.556 209.205 421.556 209.952C421.556 210.677 421.268 211.253 420.692 211.68C420.137 212.107 419.529 212.32 418.868 212.32C418.228 212.32 417.46 212.043 416.564 211.488C415.668 210.933 414.911 210.656 414.292 210.656C413.673 210.656 413.065 210.944 412.468 211.52L411.924 212H411.54Z" fill="#F4C430"/>
<path d="M197.971 266.4V251.072C197.417 251.797 196.531 252.16 195.315 252.16H194.899C194.473 252.139 194.259 251.883 194.259 251.392C194.259 250.88 194.473 250.603 194.899 250.56C195.838 250.496 196.553 250.219 197.043 249.728C197.555 249.237 197.95 248.533 198.227 247.616C198.355 247.211 198.665 247.008 199.155 247.008C199.667 247.008 199.923 247.253 199.923 247.744C199.923 248.021 199.849 248.299 199.699 248.576V266.4H200.627C200.862 266.4 201.043 266.475 201.171 266.624C201.299 266.773 201.363 266.955 201.363 267.168C201.363 267.723 201.118 268 200.627 268H196.979C196.51 268 196.275 267.733 196.275 267.2C196.275 266.667 196.51 266.4 196.979 266.4H197.971ZM213.102 266.56C213.102 266.923 213.315 267.104 213.742 267.104C214.169 267.104 214.563 266.944 214.926 266.624C215.289 266.283 215.47 266.048 215.47 265.92C215.171 265.728 214.83 265.632 214.446 265.632C214.062 265.632 213.742 265.717 213.486 265.888C213.23 266.037 213.102 266.261 213.102 266.56ZM213.294 250.912C213.294 249.845 213.689 248.949 214.478 248.224C215.289 247.477 216.345 247.104 217.646 247.104C218.947 247.104 220.014 247.541 220.846 248.416C221.699 249.269 222.126 250.485 222.126 252.064C222.126 253.643 221.593 255.797 220.526 258.528C219.481 261.259 218.403 263.467 217.294 265.152C217.785 265.301 218.382 265.685 219.086 266.304C219.79 266.923 220.302 267.232 220.622 267.232C221.283 267.232 221.614 266.891 221.614 266.208C221.358 266.208 221.123 266.08 220.91 265.824C220.697 265.568 220.59 265.291 220.59 264.992C220.59 264.693 220.686 264.416 220.878 264.16C221.07 263.883 221.369 263.744 221.774 263.744C222.179 263.744 222.531 263.947 222.83 264.352C223.129 264.736 223.278 265.237 223.278 265.856C223.278 266.453 223.033 267.019 222.542 267.552C222.051 268.085 221.475 268.352 220.814 268.352C220.153 268.352 219.577 268.267 219.086 268.096C218.595 267.925 218.211 267.755 217.934 267.584C217.678 267.392 217.369 267.157 217.006 266.88C216.665 266.581 216.462 266.411 216.398 266.368C215.481 267.52 214.627 268.096 213.838 268.096C213.347 268.096 212.899 267.947 212.494 267.648C212.11 267.349 211.918 266.933 211.918 266.4C211.918 265.867 212.174 265.397 212.686 264.992C213.198 264.587 213.774 264.384 214.414 264.384C215.054 264.384 215.641 264.48 216.174 264.672C217.027 263.349 217.859 261.376 218.67 258.752C219.481 256.128 219.886 253.931 219.886 252.16C219.886 251.029 219.587 250.133 218.99 249.472C218.393 248.789 217.731 248.448 217.006 248.448C216.558 248.448 216.142 248.587 215.758 248.864C215.374 249.12 215.097 249.408 214.926 249.728C215.225 249.835 215.481 250.059 215.694 250.4C215.907 250.72 216.014 251.093 216.014 251.52C216.014 251.925 215.897 252.277 215.662 252.576C215.449 252.853 215.139 252.992 214.734 252.992C214.329 252.992 213.987 252.779 213.71 252.352C213.433 251.925 213.294 251.445 213.294 250.912ZM233.518 263.072C233.518 262.389 233.678 261.867 233.998 261.504C234.318 261.12 234.659 260.928 235.022 260.928C235.385 260.928 235.705 261.077 235.982 261.376C236.259 261.675 236.398 262.037 236.398 262.464C236.398 263.253 236.121 263.829 235.566 264.192C235.758 265.152 236.153 265.909 236.75 266.464C237.369 266.997 238.126 267.264 239.022 267.264C240.473 267.264 241.55 266.592 242.254 265.248C242.958 263.883 243.31 262.219 243.31 260.256C243.31 259.061 243.129 257.941 242.766 256.896C242.425 255.851 241.987 255.147 241.454 254.784C240.899 255.403 240.163 255.712 239.246 255.712C238.734 255.712 238.307 255.605 237.966 255.392C237.646 255.157 237.486 254.901 237.486 254.624C237.486 254.347 237.593 254.112 237.806 253.92C238.019 253.707 238.329 253.6 238.734 253.6C239.161 253.6 239.555 253.781 239.918 254.144C240.451 254.016 240.878 253.707 241.198 253.216C241.539 252.725 241.71 252.096 241.71 251.328C241.71 250.539 241.433 249.856 240.878 249.28C240.345 248.704 239.79 248.416 239.214 248.416C238.638 248.416 238.147 248.555 237.742 248.832C237.358 249.088 237.155 249.408 237.134 249.792C237.347 250.048 237.454 250.357 237.454 250.72C237.454 251.083 237.347 251.413 237.134 251.712C236.942 252.011 236.665 252.16 236.302 252.16C235.939 252.16 235.662 252.011 235.47 251.712C235.278 251.392 235.182 251.008 235.182 250.56C235.182 249.664 235.555 248.885 236.302 248.224C237.07 247.563 238.019 247.232 239.15 247.232C240.281 247.232 241.241 247.616 242.03 248.384C242.841 249.152 243.246 250.069 243.246 251.136C243.246 252.181 243.011 252.992 242.542 253.568C243.331 254.165 244.025 255.072 244.622 256.288C245.219 257.483 245.518 258.795 245.518 260.224C245.518 262.464 244.921 264.373 243.726 265.952C242.553 267.531 241.006 268.32 239.086 268.32C237.486 268.32 236.153 267.765 235.086 266.656C234.041 265.547 233.518 264.352 233.518 263.072ZM265.9 262.08H268.268C268.481 262.08 268.652 262.155 268.78 262.304C268.908 262.453 268.972 262.635 268.972 262.848C268.972 263.381 268.737 263.648 268.268 263.648H265.9V266.4H267.084C267.574 266.4 267.82 266.667 267.82 267.2C267.82 267.733 267.574 268 267.084 268H263.052C262.582 268 262.348 267.733 262.348 267.2C262.348 266.667 262.582 266.4 263.052 266.4H264.236V263.648H256.716C256.076 263.648 255.756 263.435 255.756 263.008C255.756 262.901 255.798 262.763 255.884 262.592L263.916 247.36C264.15 246.955 264.449 246.752 264.812 246.752C265.537 246.752 265.9 247.093 265.9 247.776V262.08ZM264.236 262.048V249.6L257.708 262.048H264.236ZM279.751 255.2V248.672C279.751 248.032 280.007 247.712 280.519 247.712C280.775 247.712 280.967 247.765 281.095 247.872C282.14 248.683 283.25 249.088 284.423 249.088C285.212 249.088 285.714 248.821 285.927 248.288C285.756 248.117 285.671 247.893 285.671 247.616C285.671 247.317 285.874 247.008 286.279 246.688C286.684 246.347 287.122 246.176 287.591 246.176C288.444 246.176 288.871 246.581 288.871 247.392C288.871 248.181 288.423 248.864 287.527 249.44C286.631 249.995 285.607 250.272 284.455 250.272C283.303 250.272 282.258 250.059 281.319 249.632V254.048C282.3 253.195 283.399 252.768 284.615 252.768C286.45 252.768 287.964 253.451 289.159 254.816C290.354 256.181 290.951 258.005 290.951 260.288C290.951 262.549 290.386 264.459 289.255 266.016C288.124 267.573 286.674 268.352 284.903 268.352C283.132 268.352 281.714 267.797 280.647 266.688C279.58 265.557 279.047 264.363 279.047 263.104C279.047 262.421 279.207 261.899 279.527 261.536C279.847 261.152 280.199 260.96 280.583 260.96C280.967 260.96 281.298 261.109 281.575 261.408C281.852 261.707 281.991 262.069 281.991 262.496C281.991 263.285 281.714 263.861 281.159 264.224C281.351 265.227 281.756 265.984 282.375 266.496C283.015 267.008 283.762 267.264 284.615 267.264C286.002 267.264 287.036 266.613 287.719 265.312C288.402 263.989 288.743 262.4 288.743 260.544C288.743 258.667 288.412 257.131 287.751 255.936C287.111 254.741 286.087 254.144 284.679 254.144C283.74 254.144 282.876 254.496 282.087 255.2L281.799 255.456C281.33 255.861 280.946 256.064 280.647 256.064C280.37 256.064 280.146 255.989 279.975 255.84C279.826 255.669 279.751 255.456 279.751 255.2ZM308.295 268.32C306.268 268.32 304.679 267.36 303.527 265.44C302.396 263.499 301.831 260.949 301.831 257.792C301.831 254.613 302.503 252.064 303.847 250.144C305.212 248.224 306.972 247.264 309.127 247.264C309.852 247.264 310.46 247.413 310.951 247.712C311.463 248.011 311.719 248.405 311.719 248.896C311.719 249.365 311.559 249.707 311.239 249.92C310.919 250.133 310.556 250.24 310.151 250.24C309.767 250.24 309.404 250.101 309.063 249.824C308.721 249.525 308.551 249.163 308.551 248.736C305.543 248.736 304.039 251.808 304.039 257.952C304.039 264.096 305.436 267.168 308.231 267.168C309.212 267.168 310.012 266.816 310.631 266.112C311.271 265.387 311.708 264.512 311.943 263.488C312.177 262.443 312.295 261.237 312.295 259.872C312.295 256.053 311.345 254.144 309.447 254.144C309.02 254.144 308.657 254.24 308.359 254.432C308.081 254.603 307.943 254.837 307.943 255.136C308.135 255.328 308.231 255.68 308.231 256.192C308.231 256.704 308.092 257.152 307.815 257.536C307.537 257.92 307.207 258.112 306.823 258.112C306.46 258.112 306.151 257.941 305.895 257.6C305.66 257.237 305.543 256.832 305.543 256.384C305.543 255.381 305.916 254.592 306.663 254.016C307.431 253.419 308.327 253.12 309.351 253.12C310.951 253.12 312.188 253.813 313.063 255.2C313.959 256.587 314.407 258.176 314.407 259.968C314.407 261.845 313.959 263.648 313.063 265.376C312.593 266.251 311.943 266.965 311.111 267.52C310.3 268.053 309.361 268.32 308.295 268.32ZM324.342 250.112C324.342 249.579 324.609 249.024 325.142 248.448C325.675 247.851 326.305 247.552 327.03 247.552C327.755 247.552 328.47 247.808 329.174 248.32C329.899 248.811 330.539 249.056 331.094 249.056C332.011 249.056 332.971 248.619 333.974 247.744C334.273 247.467 334.582 247.328 334.902 247.328C335.243 247.328 335.499 247.435 335.67 247.648C335.841 247.84 335.926 248.032 335.926 248.224C335.926 248.416 335.862 248.608 335.734 248.8C335.521 249.141 335.233 249.493 334.87 249.856C331.606 254.123 329.974 257.941 329.974 261.312C329.974 262.848 330.251 264.16 330.806 265.248C331.382 266.315 332.022 266.848 332.726 266.848C332.726 266.464 332.897 266.144 333.238 265.888C333.601 265.632 333.963 265.504 334.326 265.504C334.71 265.504 335.03 265.6 335.286 265.792C335.563 265.984 335.702 266.283 335.702 266.688C335.702 267.093 335.457 267.467 334.966 267.808C334.497 268.149 333.857 268.32 333.046 268.32C331.531 268.32 330.326 267.701 329.43 266.464C328.555 265.227 328.118 263.616 328.118 261.632C328.118 259.627 328.577 257.6 329.494 255.552C330.411 253.483 331.499 251.68 332.758 250.144C332.438 250.443 331.883 250.592 331.094 250.592C330.326 250.592 329.547 250.325 328.758 249.792C327.969 249.259 327.403 248.992 327.062 248.992C326.721 248.992 326.422 249.099 326.166 249.312C325.91 249.504 325.75 249.76 325.686 250.08C325.814 250.037 325.974 250.016 326.166 250.016C326.379 250.016 326.571 250.123 326.742 250.336C326.934 250.528 327.03 250.752 327.03 251.008C327.03 251.264 326.913 251.488 326.678 251.68C326.465 251.851 326.177 251.936 325.814 251.936C325.451 251.936 325.11 251.765 324.79 251.424C324.491 251.083 324.342 250.645 324.342 250.112ZM351.612 254.496C352.359 253.771 352.871 253.141 353.148 252.608C353.447 252.075 353.596 251.531 353.596 250.976C353.596 250.4 353.511 249.931 353.34 249.568C353.191 249.205 352.956 248.939 352.636 248.768C352.337 248.597 352.06 248.48 351.804 248.416C351.569 248.331 351.26 248.267 350.876 248.224C350.492 248.181 350.3 248.011 350.3 247.712C350.3 247.392 350.567 247.232 351.1 247.232C352.103 247.232 352.988 247.573 353.756 248.256C354.545 248.939 354.94 249.856 354.94 251.008C354.94 252.523 354.225 254.005 352.796 255.456C354.183 256.629 355.185 257.749 355.804 258.816C356.444 259.883 356.764 261.056 356.764 262.336C356.764 264.107 356.241 265.547 355.196 266.656C354.172 267.765 352.924 268.32 351.452 268.32C349.98 268.32 348.7 267.808 347.612 266.784C346.545 265.739 346.012 264.32 346.012 262.528C346.012 261.461 346.247 260.459 346.716 259.52C347.185 258.581 347.644 257.888 348.092 257.44C348.54 256.992 349.105 256.501 349.788 255.968C348.273 254.624 347.516 253.28 347.516 251.936C347.516 251.125 347.772 250.453 348.284 249.92C348.796 249.365 349.415 249.088 350.14 249.088C350.865 249.088 351.441 249.237 351.868 249.536C352.295 249.813 352.508 250.144 352.508 250.528C352.508 250.891 352.412 251.2 352.22 251.456C352.049 251.691 351.804 251.808 351.484 251.808C351.164 251.808 350.897 251.637 350.684 251.296C350.471 250.955 350.364 250.549 350.364 250.08C349.98 250.08 349.649 250.197 349.372 250.432C349.116 250.667 348.988 250.976 348.988 251.36C348.988 251.723 349.148 252.117 349.468 252.544C349.788 252.971 350.087 253.312 350.364 253.568C350.663 253.803 351.079 254.112 351.612 254.496ZM347.484 262.656C347.484 263.808 347.868 264.832 348.636 265.728C349.404 266.603 350.3 267.04 351.324 267.04C352.348 267.04 353.233 266.635 353.98 265.824C354.727 265.013 355.1 264.053 355.1 262.944C355.1 260.832 353.713 258.859 350.94 257.024C349.98 257.707 349.159 258.528 348.476 259.488C347.815 260.448 347.484 261.504 347.484 262.656ZM373.499 247.264C375.547 247.264 377.126 248.128 378.235 249.856C379.344 251.584 379.899 254.037 379.899 257.216C379.899 260.373 379.216 263.019 377.851 265.152C376.486 267.264 374.758 268.32 372.667 268.32C371.835 268.32 371.184 268.16 370.715 267.84C370.246 267.52 370.011 267.136 370.011 266.688C370.011 266.24 370.16 265.909 370.459 265.696C370.779 265.461 371.142 265.344 371.547 265.344C371.974 265.344 372.347 265.504 372.667 265.824C373.008 266.144 373.179 266.517 373.179 266.944C374.032 266.944 374.758 266.667 375.355 266.112C375.974 265.557 376.443 264.789 376.763 263.808C377.382 261.909 377.691 259.563 377.691 256.768C377.691 253.973 377.36 251.893 376.699 250.528C376.038 249.141 374.982 248.448 373.531 248.448C370.758 248.448 369.371 250.752 369.371 255.36C369.371 258.944 370.342 260.736 372.283 260.736C372.71 260.736 373.062 260.651 373.339 260.48C373.638 260.288 373.787 260.043 373.787 259.744C373.574 259.531 373.467 259.179 373.467 258.688C373.467 258.197 373.606 257.76 373.883 257.376C374.16 256.971 374.491 256.768 374.875 256.768C375.259 256.768 375.568 256.939 375.803 257.28C376.059 257.621 376.187 258.059 376.187 258.592C376.187 259.531 375.803 260.299 375.035 260.896C374.267 261.472 373.35 261.76 372.283 261.76C370.704 261.76 369.478 261.12 368.603 259.84C367.75 258.539 367.323 256.992 367.323 255.2C367.323 253.387 367.771 251.659 368.667 250.016C369.136 249.205 369.787 248.544 370.619 248.032C371.451 247.52 372.411 247.264 373.499 247.264ZM401.962 248.736C403.072 249.739 403.872 251.019 404.362 252.576C404.853 254.112 405.098 255.861 405.098 257.824C405.098 259.787 404.853 261.547 404.362 263.104C403.893 264.64 403.104 265.899 401.994 266.88C400.906 267.861 399.562 268.352 397.962 268.352C396.362 268.352 395.008 267.851 393.898 266.848C391.829 264.971 390.794 261.941 390.794 257.76C390.794 253.685 391.829 250.677 393.898 248.736C395.008 247.712 396.352 247.2 397.93 247.2C399.509 247.2 400.853 247.712 401.962 248.736ZM393.13 257.76C393.13 260.683 393.536 262.987 394.346 264.672C395.157 266.336 396.352 267.168 397.93 267.168C401.152 267.168 402.762 264.043 402.762 257.792C402.762 254.869 402.357 252.576 401.546 250.912C400.736 249.227 399.53 248.384 397.93 248.384C394.73 248.405 393.13 251.531 393.13 257.76Z" fill="#F4C430"/>
</svg>
