<svg width="560" height="560" viewBox="0 0 560 560" fill="none" xmlns="http://www.w3.org/2000/svg">
<path d="M258.78 226.979C258.919 226.515 259.221 226.121 259.685 225.796C260.148 225.425 260.612 225.24 261.076 225.24C261.586 225.24 262.027 225.472 262.398 225.936C262.815 226.353 263.024 226.817 263.024 227.327C263.024 229.599 261.586 231.918 258.711 234.283C255.835 236.649 252.496 237.831 248.693 237.831C243.406 237.831 239.001 235.883 235.476 231.988C231.998 228.046 230.259 222.434 230.259 215.153C230.259 207.872 232.021 202.214 235.546 198.179C239.117 194.098 243.29 192.057 248.067 192.057C250.572 192.057 252.751 192.568 254.606 193.588C256.508 194.608 257.459 196.139 257.459 198.179C257.459 198.921 257.227 199.57 256.763 200.127C256.346 200.683 255.65 200.962 254.676 200.962C253.702 200.962 252.774 200.544 251.893 199.71C251.059 198.875 250.641 197.994 250.641 197.066C250.641 196.881 250.757 196.486 250.989 195.883C250.247 195.559 249.18 195.396 247.789 195.396C244.218 195.396 241.088 197.228 238.398 200.892C235.708 204.556 234.363 209.101 234.363 214.527C234.363 217.634 234.896 220.672 235.963 223.64C237.03 226.608 238.653 229.136 240.832 231.223C243.059 233.31 245.47 234.353 248.067 234.353C250.664 234.353 252.937 233.657 254.885 232.266C256.832 230.828 258.131 229.066 258.78 226.979Z" fill="#F4C430"/>
<path d="M301.995 214.944C301.995 222.086 300.256 227.698 296.778 231.779C293.299 235.814 288.986 237.831 283.838 237.831C278.737 237.831 274.447 235.768 270.969 231.64C267.537 227.512 265.821 221.878 265.821 214.736C265.821 207.594 267.56 202.028 271.038 198.04C274.517 194.052 278.807 192.057 283.908 192.057C289.056 192.057 293.346 194.075 296.778 198.11C300.256 202.144 301.995 207.756 301.995 214.944ZM296.291 205.97C295.27 203.002 293.67 200.498 291.491 198.457C289.311 196.417 286.76 195.396 283.838 195.396C280.963 195.396 278.436 196.347 276.256 198.249C274.076 200.15 272.453 202.539 271.386 205.414C270.366 208.243 269.856 211.257 269.856 214.457C269.856 219.373 271.154 223.941 273.751 228.162C276.349 232.382 279.757 234.492 283.978 234.492C288.198 234.492 291.56 232.521 294.065 228.579C296.615 224.637 297.891 220.162 297.891 215.153C297.891 211.953 297.357 208.892 296.291 205.97Z" fill="#F4C430"/>
<path d="M305.112 227.188C305.112 225.611 305.529 224.336 306.364 223.362C307.199 222.341 308.034 221.831 308.868 221.831C309.749 221.831 310.422 222.133 310.886 222.736C311.396 223.339 311.651 224.057 311.651 224.892C311.651 226.608 311.025 227.976 309.773 228.996C310.283 230.991 311.326 232.475 312.903 233.449C314.526 234.376 316.312 234.84 318.26 234.84C321.135 234.84 323.407 233.866 325.077 231.918C326.793 229.97 327.651 227.791 327.651 225.379C327.651 222.921 326.723 220.811 324.868 219.049C323.477 217.796 321.692 216.452 319.512 215.014L315.964 212.718C313.413 211.095 311.465 209.425 310.121 207.71C308.776 205.947 308.103 203.791 308.103 201.24C308.103 198.643 309.077 196.463 311.025 194.701C312.973 192.892 315.268 191.988 317.912 191.988C320.602 191.988 322.851 192.591 324.66 193.796C326.468 195.002 327.373 196.463 327.373 198.179C327.373 199.014 327.118 199.686 326.607 200.196C326.144 200.66 325.448 200.892 324.521 200.892C323.593 200.892 322.689 200.498 321.807 199.71C320.973 198.921 320.555 198.202 320.555 197.553C320.555 196.904 320.625 196.37 320.764 195.953C320.347 195.165 319.373 194.77 317.842 194.77C316.312 194.77 314.944 195.373 313.738 196.579C312.578 197.785 311.999 199.13 311.999 200.614C311.999 203.025 314.178 205.669 318.538 208.544L322.086 210.91C323.616 211.976 324.752 212.811 325.494 213.414C326.283 213.97 327.257 214.852 328.416 216.057C330.642 218.376 331.755 221.437 331.755 225.24C331.755 229.043 330.434 232.104 327.79 234.423C325.147 236.741 322.016 237.901 318.399 237.901C314.781 237.901 311.651 236.811 309.007 234.631C306.41 232.405 305.112 229.924 305.112 227.188Z" fill="#F4C430"/>
<path d="M370.178 233.518C371.244 233.518 371.778 234.121 371.778 235.327C371.778 236.533 371.244 237.136 370.178 237.136H362.525C361.412 237.136 360.856 236.533 360.856 235.327C360.856 234.121 361.412 233.518 362.525 233.518H364.125L362.108 227.188H343.534L341.586 233.518H343.256C344.369 233.518 344.925 234.121 344.925 235.327C344.925 236.533 344.369 237.136 343.256 237.136H336.23C335.117 237.136 334.56 236.533 334.56 235.327C334.56 234.121 335.117 233.518 336.23 233.518H337.969L349.517 196.44H346.734C345.667 196.44 345.134 195.837 345.134 194.631C345.134 193.379 345.667 192.753 346.734 192.753H353.899C354.92 192.753 355.546 193.078 355.778 193.727L368.438 233.518H370.178ZM344.438 223.849H361.273L352.786 196.718L344.438 223.849Z" fill="#F4C430"/>
<path d="M262.606 262.318C263.766 262.318 264.346 262.944 264.346 264.196C264.346 265.402 263.766 266.005 262.606 266.005H260.728V305.101C260.728 306.353 260.102 306.979 258.85 306.979C257.737 306.979 256.972 306.539 256.554 305.657L237.911 269.97V303.083H239.511C240.624 303.083 241.18 303.686 241.18 304.892C241.18 306.098 240.624 306.701 239.511 306.701H232.624C231.511 306.701 230.954 306.098 230.954 304.892C230.954 303.686 231.511 303.083 232.624 303.083H234.293V266.005H232.624C231.511 266.005 230.954 265.402 230.954 264.196C230.954 262.944 231.511 262.318 232.624 262.318H237.285C237.98 262.318 238.514 262.689 238.885 263.431L257.111 298.283V266.005H255.302C254.189 266.005 253.632 265.402 253.632 264.196C253.632 262.944 254.189 262.318 255.302 262.318H262.606Z" fill="#F4C430"/>
<path d="M304.712 284.51C304.712 291.652 302.973 297.263 299.495 301.344C296.017 305.379 291.704 307.396 286.556 307.396C281.454 307.396 277.165 305.333 273.686 301.205C270.254 297.078 268.538 291.443 268.538 284.301C268.538 277.159 270.278 271.594 273.756 267.605C277.234 263.617 281.524 261.623 286.625 261.623C291.773 261.623 296.063 263.64 299.495 267.675C302.973 271.71 304.712 277.321 304.712 284.51ZM299.008 275.536C297.988 272.567 296.388 270.063 294.208 268.023C292.028 265.982 289.478 264.962 286.556 264.962C283.68 264.962 281.153 265.912 278.973 267.814C276.794 269.715 275.17 272.104 274.104 274.979C273.083 277.808 272.573 280.823 272.573 284.023C272.573 288.939 273.872 293.507 276.469 297.727C279.066 301.947 282.475 304.057 286.695 304.057C290.915 304.057 294.278 302.086 296.782 298.144C299.333 294.202 300.608 289.727 300.608 284.718C300.608 281.518 300.075 278.457 299.008 275.536Z" fill="#F4C430"/>
<path d="M307.829 296.753C307.829 295.176 308.247 293.901 309.081 292.927C309.916 291.907 310.751 291.396 311.586 291.396C312.467 291.396 313.139 291.698 313.603 292.301C314.113 292.904 314.368 293.623 314.368 294.457C314.368 296.173 313.742 297.541 312.49 298.562C313 300.556 314.044 302.04 315.621 303.014C317.244 303.941 319.029 304.405 320.977 304.405C323.852 304.405 326.125 303.431 327.794 301.483C329.51 299.536 330.368 297.356 330.368 294.944C330.368 292.486 329.441 290.376 327.586 288.614C326.194 287.362 324.409 286.017 322.229 284.579L318.681 282.283C316.131 280.66 314.183 278.991 312.838 277.275C311.493 275.512 310.821 273.356 310.821 270.805C310.821 268.208 311.794 266.028 313.742 264.266C315.69 262.457 317.986 261.553 320.629 261.553C323.319 261.553 325.568 262.156 327.377 263.362C329.186 264.568 330.09 266.028 330.09 267.744C330.09 268.579 329.835 269.252 329.325 269.762C328.861 270.225 328.165 270.457 327.238 270.457C326.31 270.457 325.406 270.063 324.525 269.275C323.69 268.486 323.273 267.768 323.273 267.118C323.273 266.469 323.342 265.936 323.481 265.518C323.064 264.73 322.09 264.336 320.56 264.336C319.029 264.336 317.661 264.939 316.455 266.144C315.296 267.35 314.716 268.695 314.716 270.179C314.716 272.591 316.896 275.234 321.255 278.11L324.803 280.475C326.334 281.541 327.47 282.376 328.212 282.979C329 283.536 329.974 284.417 331.134 285.623C333.36 287.941 334.473 291.002 334.473 294.805C334.473 298.608 333.151 301.669 330.507 303.988C327.864 306.307 324.734 307.466 321.116 307.466C317.499 307.466 314.368 306.376 311.725 304.196C309.128 301.97 307.829 299.489 307.829 296.753Z" fill="#F4C430"/>
<path d="M340.756 259.327C341.312 259.327 341.776 259.512 342.147 259.883C342.518 260.208 342.704 260.556 342.704 260.927C342.704 261.298 342.541 261.762 342.217 262.318H364.547L364.756 261.692C365.173 260.394 365.869 259.744 366.843 259.744C367.353 259.744 367.794 259.93 368.165 260.301C368.582 260.625 368.791 261.02 368.791 261.483C368.791 261.947 368.675 262.411 368.443 262.875L365.869 267.675C365.451 268.463 365.011 268.857 364.547 268.857C363.573 268.857 363.086 268.417 363.086 267.536C363.086 267.257 363.133 267.025 363.225 266.84L363.573 265.657H354.112V303.083H355.921C357.034 303.083 357.591 303.686 357.591 304.892C357.591 306.098 357.034 306.701 355.921 306.701H348.408C347.295 306.701 346.738 306.098 346.738 304.892C346.738 303.686 347.295 303.083 348.408 303.083H350.147V265.657H340.756L339.643 267.466C339.272 268.023 338.854 268.301 338.391 268.301C337.927 268.301 337.556 268.185 337.278 267.953C337.046 267.675 336.93 267.373 336.93 267.049C336.93 266.678 336.999 266.33 337.138 266.005L338.808 261.066C339.179 259.907 339.828 259.327 340.756 259.327Z" fill="#F4C430"/>
<path d="M397.784 304.544C397.784 303.385 398.155 302.341 398.897 301.414C399.639 300.486 400.404 300.023 401.192 300.023C402.769 300.023 403.557 300.834 403.557 302.457C403.557 303.756 403.001 304.915 401.888 305.936C400.821 306.91 399.476 307.396 397.853 307.396C394.468 307.396 391.662 305.263 389.436 300.996C388.508 299.188 387.697 297.889 387.001 297.101C385.795 295.802 384.242 295.153 382.34 295.153C380.485 295.153 379.557 295.315 379.557 295.64V303.083H381.436C382.549 303.083 383.105 303.686 383.105 304.892C383.105 306.098 382.549 306.701 381.436 306.701H373.923C372.81 306.701 372.253 306.098 372.253 304.892C372.253 303.686 372.81 303.083 373.923 303.083H375.592V266.005H373.923C372.81 266.005 372.253 265.402 372.253 264.196C372.253 262.944 372.81 262.318 373.923 262.318H381.088C387.442 262.318 392.589 263.71 396.531 266.492C400.473 269.275 402.444 273.217 402.444 278.318C402.444 282.631 401.123 286.318 398.479 289.379C395.882 292.394 392.497 294.063 388.323 294.388C391.059 295.176 392.914 296.962 393.888 299.744C394.491 301.46 395.024 302.666 395.488 303.362C395.998 304.011 396.763 304.405 397.784 304.544ZM385.331 291.744C389.227 291.744 392.427 290.539 394.931 288.127C397.436 285.669 398.688 282.399 398.688 278.318C398.688 274.237 397.111 271.083 393.957 268.857C390.804 266.585 387.001 265.449 382.549 265.449C380.555 265.449 379.557 265.75 379.557 266.353V290.979C379.557 291.489 381.482 291.744 385.331 291.744Z" fill="#F4C430"/>
<path d="M442.322 303.083C443.388 303.083 443.922 303.686 443.922 304.892C443.922 306.098 443.388 306.701 442.322 306.701H434.669C433.556 306.701 433 306.098 433 304.892C433 303.686 433.556 303.083 434.669 303.083H436.269L434.252 296.753H415.678L413.73 303.083H415.4C416.513 303.083 417.069 303.686 417.069 304.892C417.069 306.098 416.513 306.701 415.4 306.701H408.374C407.261 306.701 406.704 306.098 406.704 304.892C406.704 303.686 407.261 303.083 408.374 303.083H410.113L421.661 266.005H418.878C417.811 266.005 417.278 265.402 417.278 264.196C417.278 262.944 417.811 262.318 418.878 262.318H426.043C427.064 262.318 427.69 262.643 427.922 263.292L440.582 303.083H442.322ZM416.582 293.414H433.417L424.93 266.283L416.582 293.414Z" fill="#F4C430"/>
<path d="M245.706 355.07C245.706 355.897 245.548 356.673 245.231 357.397C244.925 358.122 244.5 358.756 243.957 359.299C243.413 359.843 242.774 360.273 242.038 360.59C241.313 360.896 240.538 361.049 239.711 361.049H232V336.694H239.711C240.538 336.694 241.313 336.853 242.038 337.17C242.774 337.475 243.413 337.9 243.957 338.443C244.5 338.987 244.925 339.627 245.231 340.363C245.548 341.087 245.706 341.863 245.706 342.689V342.927C245.706 343.505 245.627 344.059 245.468 344.591C245.321 345.112 245.106 345.599 244.823 346.052C244.54 346.505 244.206 346.918 243.821 347.292C243.436 347.654 243.006 347.96 242.53 348.209C243.006 348.458 243.436 348.769 243.821 349.143C244.206 349.505 244.54 349.919 244.823 350.383C245.106 350.836 245.321 351.328 245.468 351.86C245.627 352.381 245.706 352.93 245.706 353.508V355.07ZM243.515 353.151C243.515 352.608 243.413 352.104 243.21 351.64C243.006 351.164 242.723 350.751 242.36 350.4C242.009 350.049 241.596 349.771 241.121 349.568C240.656 349.364 240.153 349.262 239.609 349.262H234.191V358.96H239.609C240.153 358.96 240.656 358.858 241.121 358.654C241.596 358.45 242.009 358.173 242.36 357.822C242.723 357.471 243.006 357.063 243.21 356.599C243.413 356.123 243.515 355.614 243.515 355.07V353.151ZM243.515 342.689C243.515 342.146 243.413 341.642 243.21 341.178C243.006 340.702 242.723 340.289 242.36 339.938C242.009 339.576 241.596 339.293 241.121 339.089C240.656 338.885 240.153 338.783 239.609 338.783H234.191V347.173H239.609C240.153 347.173 240.656 347.071 241.121 346.867C241.596 346.663 242.009 346.386 242.36 346.035C242.723 345.673 243.006 345.259 243.21 344.795C243.413 344.32 243.515 343.81 243.515 343.267V342.689Z" fill="#F4C430"/>
<path d="M260.125 361.049L258.971 359.316C258.495 359.939 257.901 360.443 257.187 360.828C256.474 361.202 255.693 361.388 254.843 361.388H254.317C253.615 361.388 252.953 361.258 252.33 360.998C251.707 360.726 251.164 360.358 250.699 359.894C250.235 359.43 249.867 358.886 249.596 358.263C249.335 357.641 249.205 356.978 249.205 356.276V356.106C249.205 355.404 249.335 354.742 249.596 354.119C249.867 353.497 250.235 352.953 250.699 352.489C251.164 352.025 251.707 351.662 252.33 351.402C252.953 351.13 253.615 350.994 254.317 350.994H258.733V348.311C258.733 347.892 258.653 347.501 258.495 347.139C258.336 346.765 258.121 346.443 257.85 346.171C257.578 345.899 257.255 345.684 256.882 345.526C256.519 345.367 256.129 345.288 255.71 345.288H254.487C254.068 345.288 253.672 345.367 253.298 345.526C252.936 345.684 252.619 345.899 252.347 346.171C252.075 346.443 251.86 346.765 251.701 347.139C251.543 347.501 251.464 347.892 251.464 348.311V348.939L249.375 348.6V348.43C249.375 347.728 249.505 347.065 249.765 346.443C250.037 345.82 250.405 345.276 250.869 344.812C251.334 344.348 251.877 343.986 252.5 343.725C253.122 343.454 253.785 343.318 254.487 343.318H255.71C256.412 343.318 257.074 343.454 257.697 343.725C258.319 343.986 258.863 344.348 259.327 344.812C259.791 345.276 260.154 345.82 260.414 346.443C260.686 347.065 260.822 347.728 260.822 348.43V361.049H260.125ZM258.733 352.625H254.317C253.898 352.625 253.502 352.704 253.128 352.863C252.766 353.021 252.449 353.242 252.177 353.525C251.905 353.797 251.69 354.119 251.532 354.493C251.373 354.855 251.294 355.246 251.294 355.665V356.395C251.294 356.814 251.373 357.21 251.532 357.584C251.69 357.946 251.905 358.263 252.177 358.535C252.449 358.807 252.766 359.022 253.128 359.18C253.502 359.339 253.898 359.418 254.317 359.418H255.71C256.129 359.418 256.519 359.339 256.882 359.18C257.255 359.022 257.578 358.807 257.85 358.535C258.121 358.263 258.336 357.946 258.495 357.584C258.653 357.21 258.733 356.814 258.733 356.395V352.625Z" fill="#F4C430"/>
<path d="M270.112 345.644C269.693 345.644 269.297 345.724 268.923 345.882C268.561 346.041 268.244 346.256 267.972 346.528C267.7 346.799 267.485 347.122 267.326 347.496C267.168 347.858 267.089 348.249 267.089 348.668V361.049H265V343.657H265.696L266.834 345.424C267.31 344.778 267.904 344.269 268.617 343.895C269.342 343.51 270.129 343.318 270.978 343.318H272.201V345.644H270.112Z" fill="#F4C430"/>
<path d="M299.46 361.388C298.475 361.388 297.614 361.179 296.878 360.76C296.153 360.341 295.576 359.775 295.146 359.062C294.58 359.775 293.883 360.341 293.057 360.76C292.23 361.179 291.336 361.388 290.373 361.388H289.337C288.511 361.388 287.73 361.235 286.994 360.93C286.269 360.613 285.635 360.183 285.091 359.639C284.548 359.096 284.118 358.461 283.801 357.737C283.495 357.012 283.342 356.237 283.342 355.41V354.085C283.342 353.508 283.416 352.959 283.563 352.438C283.721 351.906 283.942 351.413 284.225 350.96C284.508 350.507 284.842 350.1 285.227 349.738C285.612 349.364 286.043 349.053 286.518 348.803C286.043 348.554 285.612 348.249 285.227 347.886C284.842 347.513 284.508 347.099 284.225 346.646C283.942 346.194 283.721 345.707 283.563 345.186C283.416 344.654 283.342 344.099 283.342 343.521V342.333C283.342 341.506 283.495 340.731 283.801 340.006C284.118 339.281 284.548 338.647 285.091 338.104C285.635 337.56 286.269 337.136 286.994 336.83C287.73 336.513 288.511 336.354 289.337 336.354H290.373C291.2 336.354 291.975 336.513 292.7 336.83C293.425 337.136 294.059 337.56 294.602 338.104C295.146 338.647 295.57 339.281 295.876 340.006C296.193 340.731 296.352 341.506 296.352 342.333V342.502L294.161 342.859V342.333C294.161 341.789 294.059 341.285 293.855 340.821C293.651 340.346 293.374 339.932 293.023 339.581C292.672 339.23 292.259 338.953 291.783 338.749C291.319 338.545 290.815 338.443 290.271 338.443H289.439C288.896 338.443 288.386 338.545 287.911 338.749C287.447 338.953 287.033 339.23 286.671 339.581C286.32 339.932 286.043 340.346 285.839 340.821C285.635 341.285 285.533 341.789 285.533 342.333V343.861C285.533 344.405 285.635 344.914 285.839 345.39C286.043 345.854 286.32 346.267 286.671 346.63C287.033 346.981 287.447 347.258 287.911 347.462C288.386 347.666 288.896 347.767 289.439 347.767H294.161V345.543L296.352 345.186V347.733H299.731V349.805H296.352V355.665C296.374 356.174 296.454 356.65 296.589 357.091C296.725 357.533 296.923 357.924 297.184 358.263C297.456 358.592 297.79 358.852 298.186 359.045C298.582 359.226 299.041 359.316 299.562 359.316H300.071L299.765 361.388H299.46ZM290.271 359.316C290.792 359.316 291.285 359.22 291.749 359.028C292.213 358.835 292.615 358.569 292.955 358.229C293.306 357.89 293.589 357.493 293.804 357.041C294.019 356.588 294.138 356.101 294.161 355.58V349.856H289.439C288.896 349.856 288.386 349.958 287.911 350.162C287.447 350.366 287.033 350.643 286.671 350.994C286.32 351.345 286.043 351.759 285.839 352.234C285.635 352.698 285.533 353.202 285.533 353.746V355.41C285.533 355.954 285.635 356.463 285.839 356.939C286.043 357.403 286.32 357.816 286.671 358.178C287.033 358.529 287.447 358.807 287.911 359.011C288.386 359.214 288.896 359.316 289.439 359.316H290.271Z" fill="#F4C430"/>
<path d="M326.668 355.41C326.668 356.237 326.509 357.012 326.192 357.737C325.886 358.461 325.462 359.096 324.918 359.639C324.375 360.183 323.741 360.613 323.016 360.93C322.291 361.235 321.516 361.388 320.689 361.388H318.957C318.13 361.388 317.349 361.235 316.613 360.93C315.889 360.613 315.254 360.183 314.711 359.639C314.168 359.096 313.737 358.461 313.42 357.737C313.115 357.012 312.962 356.237 312.962 355.41V342.333C312.962 341.506 313.115 340.731 313.42 340.006C313.737 339.281 314.168 338.647 314.711 338.104C315.254 337.56 315.889 337.136 316.613 336.83C317.349 336.513 318.13 336.354 318.957 336.354H320.689C321.516 336.354 322.291 336.513 323.016 336.83C323.741 337.136 324.375 337.56 324.918 338.104C325.462 338.647 325.886 339.281 326.192 340.006C326.509 340.731 326.668 341.506 326.668 342.333V343.318L324.477 343.657V342.333C324.477 341.789 324.375 341.285 324.171 340.821C323.967 340.346 323.69 339.932 323.339 339.581C322.988 339.23 322.574 338.953 322.099 338.749C321.635 338.545 321.131 338.443 320.587 338.443H319.059C318.515 338.443 318.006 338.545 317.53 338.749C317.066 338.953 316.653 339.23 316.29 339.581C315.939 339.932 315.662 340.346 315.458 340.821C315.254 341.285 315.153 341.789 315.153 342.333V355.41C315.153 355.954 315.254 356.463 315.458 356.939C315.662 357.403 315.939 357.816 316.29 358.178C316.653 358.529 317.066 358.807 317.53 359.011C318.006 359.214 318.515 359.316 319.059 359.316H320.587C321.131 359.316 321.635 359.214 322.099 359.011C322.574 358.807 322.988 358.529 323.339 358.178C323.69 357.816 323.967 357.403 324.171 356.939C324.375 356.463 324.477 355.954 324.477 355.41V354.085L326.668 354.442V355.41Z" fill="#F4C430"/>
<path d="M331.389 339.479V336.694H333.818V339.479H331.389ZM331.559 361.049V343.657H333.648V361.049H331.559Z" fill="#F4C430"/>
<path d="M350.326 363.24C350.326 363.942 350.19 364.587 349.918 365.176C349.658 365.764 349.295 366.268 348.831 366.687C348.367 367.106 347.824 367.429 347.201 367.655C346.578 367.893 345.916 368.012 345.214 368.012H344.348C343.646 368.012 342.983 367.893 342.36 367.655C341.738 367.429 341.194 367.106 340.73 366.687C340.266 366.268 339.898 365.764 339.626 365.176C339.366 364.587 339.235 363.942 339.235 363.24V363.172C339.235 362.492 339.36 361.87 339.609 361.303C339.858 360.737 340.198 360.245 340.628 359.826C340.085 359.497 339.649 359.056 339.32 358.501C339.003 357.935 338.845 357.312 338.845 356.633C338.845 356.021 338.975 355.455 339.235 354.935C339.496 354.402 339.853 353.972 340.305 353.644C339.762 353.168 339.332 352.596 339.015 351.928C338.698 351.26 338.539 350.53 338.539 349.738V348.43C338.539 347.728 338.669 347.065 338.93 346.443C339.201 345.82 339.569 345.276 340.034 344.812C340.498 344.348 341.041 343.986 341.664 343.725C342.287 343.454 342.949 343.318 343.651 343.318H344.517C345.367 343.318 346.148 343.51 346.861 343.895C347.586 344.269 348.186 344.778 348.661 345.424L349.799 343.657H350.496V349.738C350.496 350.44 350.36 351.102 350.088 351.725C349.828 352.347 349.465 352.891 349.001 353.355C348.537 353.819 347.993 354.187 347.371 354.459C346.748 354.719 346.086 354.85 345.384 354.85H342.36C342.123 354.85 341.896 354.901 341.681 355.002C341.466 355.093 341.274 355.218 341.104 355.376C340.945 355.535 340.821 355.727 340.73 355.954C340.639 356.169 340.594 356.395 340.594 356.633C340.594 356.871 340.639 357.097 340.73 357.312C340.821 357.527 340.945 357.72 341.104 357.89C341.274 358.048 341.466 358.173 341.681 358.263C341.896 358.354 342.123 358.399 342.36 358.399H345.214C345.916 358.399 346.578 358.518 347.201 358.756C347.824 358.982 348.367 359.305 348.831 359.724C349.295 360.143 349.658 360.647 349.918 361.235C350.19 361.824 350.326 362.47 350.326 363.172V363.24ZM348.424 348.311C348.424 347.892 348.344 347.501 348.186 347.139C348.027 346.765 347.807 346.443 347.524 346.171C347.252 345.899 346.929 345.684 346.555 345.526C346.193 345.367 345.802 345.288 345.384 345.288H343.651C343.232 345.288 342.836 345.367 342.462 345.526C342.1 345.684 341.783 345.899 341.511 346.171C341.24 346.443 341.024 346.765 340.866 347.139C340.707 347.501 340.628 347.892 340.628 348.311V349.856C340.628 350.275 340.707 350.672 340.866 351.045C341.024 351.408 341.24 351.725 341.511 351.996C341.783 352.268 342.1 352.483 342.462 352.642C342.836 352.8 343.232 352.88 343.651 352.88H345.384C345.802 352.88 346.193 352.8 346.555 352.642C346.929 352.483 347.252 352.268 347.524 351.996C347.807 351.725 348.027 351.408 348.186 351.045C348.344 350.672 348.424 350.275 348.424 349.856V348.311ZM348.339 363.07C348.339 362.651 348.259 362.271 348.101 361.932C347.942 361.603 347.727 361.326 347.456 361.1C347.184 360.873 346.861 360.698 346.487 360.573C346.125 360.449 345.735 360.386 345.316 360.386H344.246C343.827 360.386 343.43 360.449 343.057 360.573C342.694 360.698 342.377 360.873 342.106 361.1C341.834 361.326 341.619 361.603 341.46 361.932C341.302 362.271 341.223 362.651 341.223 363.07V363.341C341.223 363.76 341.302 364.134 341.46 364.462C341.619 364.791 341.834 365.068 342.106 365.295C342.377 365.532 342.694 365.714 343.057 365.838C343.43 365.963 343.827 366.025 344.246 366.025H345.316C345.735 366.025 346.125 365.963 346.487 365.838C346.861 365.714 347.184 365.532 347.456 365.295C347.727 365.068 347.942 364.791 348.101 364.462C348.259 364.134 348.339 363.76 348.339 363.341V363.07Z" fill="#F4C430"/>
<path d="M365.254 361.049L364.1 359.316C363.624 359.939 363.03 360.443 362.316 360.828C361.603 361.202 360.822 361.388 359.973 361.388H359.446C358.744 361.388 358.082 361.258 357.459 360.998C356.836 360.726 356.293 360.358 355.829 359.894C355.364 359.43 354.996 358.886 354.725 358.263C354.464 357.641 354.334 356.978 354.334 356.276V356.106C354.334 355.404 354.464 354.742 354.725 354.119C354.996 353.497 355.364 352.953 355.829 352.489C356.293 352.025 356.836 351.662 357.459 351.402C358.082 351.13 358.744 350.994 359.446 350.994H363.862V348.311C363.862 347.892 363.783 347.501 363.624 347.139C363.466 346.765 363.25 346.443 362.979 346.171C362.707 345.899 362.384 345.684 362.011 345.526C361.648 345.367 361.258 345.288 360.839 345.288H359.616C359.197 345.288 358.801 345.367 358.427 345.526C358.065 345.684 357.748 345.899 357.476 346.171C357.204 346.443 356.989 346.765 356.831 347.139C356.672 347.501 356.593 347.892 356.593 348.311V348.939L354.504 348.6V348.43C354.504 347.728 354.634 347.065 354.894 346.443C355.166 345.82 355.534 345.276 355.998 344.812C356.463 344.348 357.006 343.986 357.629 343.725C358.252 343.454 358.914 343.318 359.616 343.318H360.839C361.541 343.318 362.203 343.454 362.826 343.725C363.449 343.986 363.992 344.348 364.456 344.812C364.92 345.276 365.283 345.82 365.543 346.443C365.815 347.065 365.951 347.728 365.951 348.43V361.049H365.254ZM363.862 352.625H359.446C359.027 352.625 358.631 352.704 358.257 352.863C357.895 353.021 357.578 353.242 357.306 353.525C357.034 353.797 356.819 354.119 356.661 354.493C356.502 354.855 356.423 355.246 356.423 355.665V356.395C356.423 356.814 356.502 357.21 356.661 357.584C356.819 357.946 357.034 358.263 357.306 358.535C357.578 358.807 357.895 359.022 358.257 359.18C358.631 359.339 359.027 359.418 359.446 359.418H360.839C361.258 359.418 361.648 359.339 362.011 359.18C362.384 359.022 362.707 358.807 362.979 358.535C363.25 358.263 363.466 357.946 363.624 357.584C363.783 357.21 363.862 356.814 363.862 356.395V352.625Z" fill="#F4C430"/>
<path d="M375.241 345.644C374.822 345.644 374.426 345.724 374.052 345.882C373.69 346.041 373.373 346.256 373.101 346.528C372.829 346.799 372.614 347.122 372.456 347.496C372.297 347.858 372.218 348.249 372.218 348.668V361.049H370.129V343.657H370.825L371.963 345.424C372.439 344.778 373.033 344.269 373.746 343.895C374.471 343.51 375.258 343.318 376.107 343.318H377.33V345.644H375.241Z" fill="#F4C430"/>
<path d="M388.471 361.049V336.694H390.662V358.96H399.986V361.049H388.471Z" fill="#F4C430"/>
<path d="M414.388 356.276C414.388 356.978 414.252 357.641 413.981 358.263C413.72 358.886 413.358 359.43 412.894 359.894C412.43 360.358 411.886 360.726 411.263 360.998C410.641 361.258 409.978 361.388 409.276 361.388H407.884C407.182 361.388 406.519 361.258 405.896 360.998C405.274 360.726 404.73 360.358 404.266 359.894C403.802 359.43 403.434 358.886 403.162 358.263C402.902 357.641 402.771 356.978 402.771 356.276V348.43C402.771 347.728 402.902 347.065 403.162 346.443C403.434 345.82 403.802 345.276 404.266 344.812C404.73 344.348 405.274 343.986 405.896 343.725C406.519 343.454 407.182 343.318 407.884 343.318H409.276C409.978 343.318 410.641 343.454 411.263 343.725C411.886 343.986 412.43 344.348 412.894 344.812C413.358 345.276 413.72 345.82 413.981 346.443C414.252 347.065 414.388 347.728 414.388 348.43V356.276ZM412.299 348.311C412.299 347.892 412.22 347.501 412.062 347.139C411.903 346.765 411.688 346.443 411.416 346.171C411.144 345.899 410.822 345.684 410.448 345.526C410.086 345.367 409.695 345.288 409.276 345.288H407.884C407.465 345.288 407.068 345.367 406.695 345.526C406.332 345.684 406.015 345.899 405.744 346.171C405.472 346.443 405.257 346.765 405.098 347.139C404.94 347.501 404.86 347.892 404.86 348.311V356.395C404.86 356.814 404.94 357.21 405.098 357.584C405.257 357.946 405.472 358.263 405.744 358.535C406.015 358.807 406.332 359.022 406.695 359.18C407.068 359.339 407.465 359.418 407.884 359.418H409.276C409.695 359.418 410.086 359.339 410.448 359.18C410.822 359.022 411.144 358.807 411.416 358.535C411.688 358.263 411.903 357.946 412.062 357.584C412.22 357.21 412.299 356.814 412.299 356.395V348.311Z" fill="#F4C430"/>
<path d="M429.487 361.049L428.332 359.282C427.856 359.928 427.262 360.443 426.549 360.828C425.835 361.202 425.054 361.388 424.205 361.388H423.678C422.976 361.388 422.314 361.258 421.691 360.998C421.069 360.726 420.525 360.358 420.061 359.894C419.597 359.43 419.229 358.886 418.957 358.263C418.697 357.641 418.566 356.978 418.566 356.276V343.657H420.655V356.395C420.655 356.814 420.735 357.21 420.893 357.584C421.052 357.946 421.267 358.263 421.538 358.535C421.81 358.807 422.127 359.022 422.49 359.18C422.863 359.339 423.259 359.418 423.678 359.418H425.071C425.49 359.418 425.881 359.339 426.243 359.18C426.617 359.022 426.939 358.807 427.211 358.535C427.483 358.263 427.698 357.946 427.856 357.584C428.015 357.21 428.094 356.814 428.094 356.395V343.657H430.183V361.049H429.487Z" fill="#F4C430"/>
<path d="M443.889 361.049V348.311C443.889 347.892 443.81 347.501 443.651 347.139C443.493 346.765 443.278 346.443 443.006 346.171C442.734 345.899 442.411 345.684 442.038 345.526C441.675 345.367 441.285 345.288 440.866 345.288H439.473C439.054 345.288 438.658 345.367 438.284 345.526C437.922 345.684 437.605 345.899 437.333 346.171C437.062 346.443 436.846 346.765 436.688 347.139C436.529 347.501 436.45 347.892 436.45 348.311V361.049H434.361V343.657H435.057L436.195 345.424C436.671 344.778 437.265 344.269 437.979 343.895C438.703 343.51 439.49 343.318 440.339 343.318H440.866C441.568 343.318 442.23 343.454 442.853 343.725C443.476 343.986 444.019 344.348 444.483 344.812C444.948 345.276 445.31 345.82 445.57 346.443C445.842 347.065 445.978 347.728 445.978 348.43V361.049H443.889Z" fill="#F4C430"/>
<path d="M461.943 363.24C461.943 363.942 461.807 364.587 461.535 365.176C461.275 365.764 460.912 366.268 460.448 366.687C459.984 367.106 459.44 367.429 458.818 367.655C458.195 367.893 457.533 368.012 456.831 368.012H455.964C455.262 368.012 454.6 367.893 453.977 367.655C453.355 367.429 452.811 367.106 452.347 366.687C451.883 366.268 451.515 365.764 451.243 365.176C450.983 364.587 450.852 363.942 450.852 363.24V363.172C450.852 362.492 450.977 361.87 451.226 361.303C451.475 360.737 451.815 360.245 452.245 359.826C451.701 359.497 451.266 359.056 450.937 358.501C450.62 357.935 450.462 357.312 450.462 356.633C450.462 356.021 450.592 355.455 450.852 354.935C451.113 354.402 451.469 353.972 451.922 353.644C451.379 353.168 450.949 352.596 450.632 351.928C450.314 351.26 450.156 350.53 450.156 349.738V348.43C450.156 347.728 450.286 347.065 450.547 346.443C450.818 345.82 451.186 345.276 451.651 344.812C452.115 344.348 452.658 343.986 453.281 343.725C453.904 343.454 454.566 343.318 455.268 343.318H456.134C456.983 343.318 457.765 343.51 458.478 343.895C459.203 344.269 459.803 344.778 460.278 345.424L461.416 343.657H462.112V349.738C462.112 350.44 461.977 351.102 461.705 351.725C461.444 352.347 461.082 352.891 460.618 353.355C460.154 353.819 459.61 354.187 458.987 354.459C458.365 354.719 457.702 354.85 457 354.85H453.977C453.74 354.85 453.513 354.901 453.298 355.002C453.083 355.093 452.89 355.218 452.721 355.376C452.562 355.535 452.437 355.727 452.347 355.954C452.256 356.169 452.211 356.395 452.211 356.633C452.211 356.871 452.256 357.097 452.347 357.312C452.437 357.527 452.562 357.72 452.721 357.89C452.89 358.048 453.083 358.173 453.298 358.263C453.513 358.354 453.74 358.399 453.977 358.399H456.831C457.533 358.399 458.195 358.518 458.818 358.756C459.44 358.982 459.984 359.305 460.448 359.724C460.912 360.143 461.275 360.647 461.535 361.235C461.807 361.824 461.943 362.47 461.943 363.172V363.24ZM460.04 348.311C460.04 347.892 459.961 347.501 459.803 347.139C459.644 346.765 459.423 346.443 459.14 346.171C458.869 345.899 458.546 345.684 458.172 345.526C457.81 345.367 457.419 345.288 457 345.288H455.268C454.849 345.288 454.453 345.367 454.079 345.526C453.717 345.684 453.4 345.899 453.128 346.171C452.856 346.443 452.641 346.765 452.483 347.139C452.324 347.501 452.245 347.892 452.245 348.311V349.856C452.245 350.275 452.324 350.672 452.483 351.045C452.641 351.408 452.856 351.725 453.128 351.996C453.4 352.268 453.717 352.483 454.079 352.642C454.453 352.8 454.849 352.88 455.268 352.88H457C457.419 352.88 457.81 352.8 458.172 352.642C458.546 352.483 458.869 352.268 459.14 351.996C459.423 351.725 459.644 351.408 459.803 351.045C459.961 350.672 460.04 350.275 460.04 349.856V348.311ZM459.956 363.07C459.956 362.651 459.876 362.271 459.718 361.932C459.559 361.603 459.344 361.326 459.072 361.1C458.801 360.873 458.478 360.698 458.104 360.573C457.742 360.449 457.351 360.386 456.932 360.386H455.862C455.444 360.386 455.047 360.449 454.674 360.573C454.311 360.698 453.994 360.873 453.723 361.1C453.451 361.326 453.236 361.603 453.077 361.932C452.919 362.271 452.839 362.651 452.839 363.07V363.341C452.839 363.76 452.919 364.134 453.077 364.462C453.236 364.791 453.451 365.068 453.723 365.295C453.994 365.532 454.311 365.714 454.674 365.838C455.047 365.963 455.444 366.025 455.862 366.025H456.932C457.351 366.025 457.742 365.963 458.104 365.838C458.478 365.714 458.801 365.532 459.072 365.295C459.344 365.068 459.559 364.791 459.718 364.462C459.876 364.134 459.956 363.76 459.956 363.341V363.07Z" fill="#F4C430"/>
<path d="M477.568 356.276C477.568 356.978 477.432 357.641 477.16 358.263C476.9 358.886 476.537 359.43 476.073 359.894C475.609 360.358 475.065 360.726 474.443 360.998C473.82 361.258 473.158 361.388 472.456 361.388H471.063C470.361 361.388 469.699 361.258 469.076 360.998C468.453 360.726 467.91 360.358 467.445 359.894C466.981 359.43 466.613 358.886 466.341 358.263C466.081 357.641 465.951 356.978 465.951 356.276V348.43C465.951 347.728 466.081 347.065 466.341 346.443C466.613 345.82 466.981 345.276 467.445 344.812C467.91 344.348 468.453 343.986 469.076 343.725C469.699 343.454 470.361 343.318 471.063 343.318H472.456C473.158 343.318 473.82 343.454 474.443 343.725C475.065 343.986 475.609 344.348 476.073 344.812C476.537 345.276 476.9 345.82 477.16 346.443C477.432 347.065 477.568 347.728 477.568 348.43V352.523H468.04V356.395C468.04 356.814 468.119 357.21 468.278 357.584C468.436 357.946 468.651 358.263 468.923 358.535C469.195 358.807 469.512 359.022 469.874 359.18C470.248 359.339 470.644 359.418 471.063 359.418H472.456C472.875 359.418 473.265 359.339 473.627 359.18C474.001 359.022 474.324 358.807 474.596 358.535C474.867 358.263 475.082 357.946 475.241 357.584C475.399 357.21 475.479 356.814 475.479 356.395V355.24L477.568 355.58V356.276ZM475.479 348.311C475.479 347.892 475.399 347.501 475.241 347.139C475.082 346.765 474.867 346.443 474.596 346.171C474.324 345.899 474.001 345.684 473.627 345.526C473.265 345.367 472.875 345.288 472.456 345.288H471.063C470.644 345.288 470.248 345.367 469.874 345.526C469.512 345.684 469.195 345.899 468.923 346.171C468.651 346.443 468.436 346.765 468.278 347.139C468.119 347.501 468.04 347.892 468.04 348.311V350.892H475.479V348.311Z" fill="#F4C430"/>
<path fill-rule="evenodd" clip-rule="evenodd" d="M140.572 181.02C141.52 181.02 142.289 181.788 142.289 182.736V198.21L148.078 192.422C148.748 191.751 149.835 191.751 150.505 192.422C151.176 193.092 151.176 194.179 150.505 194.849L142.289 203.066V257.066L182.811 216.543C183.174 216.181 183.68 215.999 184.191 216.049C184.701 216.098 185.163 216.373 185.449 216.799C189.907 223.422 192.888 230.66 194.445 238.094C199.087 260.264 191.06 289.25 171.497 303.922C161.875 311.139 154.207 314.397 148.866 315.838C146.197 316.558 144.117 316.822 142.675 316.902C142.541 316.909 142.412 316.915 142.289 316.919V357.586H199.428C200.376 357.586 201.144 358.355 201.144 359.303C201.144 360.251 200.376 361.02 199.428 361.02H81.7166C80.7686 361.02 80 360.251 80 359.303C80 358.355 80.7686 357.586 81.7166 357.586H138.856V316.919C138.733 316.915 138.604 316.909 138.47 316.902C137.027 316.822 134.947 316.558 132.279 315.838C126.938 314.397 119.269 311.139 109.647 303.922C90.084 289.25 82.057 260.264 86.6996 238.094C88.2564 230.66 91.2378 223.422 95.695 216.799C96.629 215.411 97.6276 214.05 98.6913 212.721L108.714 200.192C109.306 199.452 110.387 199.332 111.127 199.924C111.867 200.517 111.987 201.597 111.395 202.337L101.372 214.866C100.666 215.748 99.9902 216.645 99.345 217.555L138.856 257.066V232.494L124.099 217.737C123.429 217.067 123.429 215.98 124.099 215.31C124.77 214.639 125.857 214.639 126.527 215.31L138.856 227.638V182.736C138.856 181.788 139.624 181.02 140.572 181.02ZM138.856 261.921L97.4069 220.473C93.9972 225.961 91.6248 231.852 90.2567 237.895L138.856 286.494V261.921ZM138.856 291.349L89.4917 241.985C86.4353 262.606 94.3057 288.125 111.707 301.176C121.021 308.162 128.3 311.209 133.173 312.524C135.611 313.181 137.454 313.407 138.658 313.474C138.726 313.477 138.792 313.481 138.856 313.483V291.349ZM142.289 313.483V291.349L191.653 241.985C194.709 262.606 186.839 288.125 169.437 301.176C160.123 308.162 152.844 311.209 147.972 312.524C145.534 313.181 143.69 313.407 142.486 313.474C142.418 313.477 142.353 313.481 142.289 313.483ZM190.888 237.895L142.289 286.494V261.921L183.737 220.473C187.147 225.961 189.52 231.852 190.888 237.895Z" fill="#F4C430"/>
</svg>
