<svg width="350" height="350" viewBox="0 0 350 350" fill="none" xmlns="http://www.w3.org/2000/svg">
<circle cx="175" cy="175" r="87" stroke="#F4C430"/>
<path d="M175 187L175.298 185.189C176.134 180.113 180.113 176.134 185.189 175.298L187 175L185.189 174.702C180.113 173.866 176.134 169.887 175.298 164.811L175 163L174.702 164.811C173.866 169.887 169.887 173.866 164.811 174.702L163 175L164.811 175.298C169.887 176.134 173.866 180.113 174.702 185.189L175 187Z" fill="#F4C430"/>
<path d="M128.653 144.276C128.537 144.155 128.47 143.998 128.451 143.803C128.419 143.601 128.442 143.43 128.521 143.291C128.607 143.138 128.752 143.045 128.954 143.013C129.151 142.958 129.325 142.974 129.478 143.061C130.161 143.447 130.612 144.273 130.834 145.538C131.055 146.804 130.843 148.007 130.196 149.149C129.298 150.736 127.964 151.728 126.195 152.124C124.421 152.498 122.44 152.066 120.254 150.829C118.068 149.591 116.669 148.101 116.057 146.357C115.439 144.591 115.535 142.991 116.347 141.557C116.773 140.805 117.297 140.237 117.918 139.854C118.548 139.456 119.169 139.431 119.782 139.778C120.004 139.904 120.16 140.084 120.248 140.318C120.344 140.538 120.31 140.794 120.144 141.086C119.978 141.378 119.695 141.586 119.295 141.709C118.903 141.817 118.567 141.793 118.289 141.635C118.233 141.604 118.134 141.502 117.993 141.33C117.769 141.497 117.539 141.79 117.303 142.208C116.696 143.28 116.714 144.531 117.356 145.961C117.999 147.392 119.135 148.568 120.764 149.49C121.697 150.018 122.7 150.375 123.772 150.559C124.844 150.743 125.879 150.685 126.876 150.386C127.881 150.072 128.604 149.525 129.046 148.746C129.487 147.966 129.664 147.165 129.578 146.344C129.477 145.515 129.169 144.826 128.653 144.276Z" fill="#F4C430"/>
<path d="M135.357 130.01C137.171 131.678 138.189 133.431 138.413 135.267C138.625 137.093 138.13 138.659 136.928 139.966C135.736 141.261 134.21 141.869 132.35 141.788C130.5 141.695 128.668 140.814 126.855 139.146C125.042 137.478 124.035 135.737 123.834 133.922C123.634 132.107 124.13 130.552 125.321 129.257C126.524 127.95 128.038 127.332 129.864 127.403C131.701 127.462 133.532 128.331 135.357 130.01ZM131.746 129.363C130.754 128.928 129.745 128.75 128.718 128.826C127.69 128.903 126.835 129.313 126.153 130.054C125.481 130.785 125.132 131.648 125.106 132.646C125.08 133.644 125.307 134.614 125.788 135.556C126.268 136.476 126.914 137.309 127.727 138.057C128.975 139.205 130.438 139.942 132.116 140.269C133.794 140.595 135.126 140.222 136.112 139.151C137.098 138.079 137.383 136.765 136.967 135.209C136.562 133.64 135.723 132.271 134.452 131.101C133.639 130.354 132.737 129.774 131.746 129.363Z" fill="#F4C430"/>
<path d="M138.718 132.817C138.402 132.374 138.264 131.932 138.304 131.491C138.334 131.037 138.467 130.727 138.702 130.56C138.949 130.383 139.198 130.333 139.449 130.41C139.713 130.477 139.929 130.628 140.096 130.863C140.439 131.345 140.537 131.855 140.39 132.392C140.932 132.851 141.522 133.059 142.16 133.017C142.802 132.953 143.397 132.726 143.944 132.336C144.752 131.761 145.196 131.032 145.275 130.151C145.368 129.26 145.173 128.476 144.69 127.798C144.198 127.107 143.515 126.7 142.641 126.576C142 126.502 141.229 126.482 140.328 126.514L138.872 126.579C137.83 126.633 136.949 126.554 136.227 126.34C135.497 126.114 134.876 125.643 134.366 124.926C133.846 124.196 133.684 123.389 133.878 122.504C134.064 121.606 134.528 120.892 135.271 120.363C136.027 119.825 136.779 119.544 137.529 119.521C138.279 119.498 138.825 119.727 139.169 120.21C139.336 120.444 139.398 120.684 139.357 120.93C139.32 121.153 139.171 121.357 138.91 121.543C138.649 121.728 138.316 121.799 137.911 121.753C137.518 121.699 137.257 121.58 137.127 121.398C136.997 121.215 136.91 121.052 136.866 120.907C136.591 120.769 136.238 120.853 135.808 121.159C135.378 121.465 135.114 121.908 135.017 122.489C134.932 123.059 135.038 123.553 135.335 123.97C135.818 124.648 136.959 124.955 138.76 124.891L140.23 124.845C140.874 124.839 141.36 124.846 141.689 124.867C142.022 124.866 142.472 124.918 143.04 125.025C144.129 125.231 145.055 125.869 145.816 126.937C146.577 128.006 146.818 129.131 146.539 130.312C146.26 131.492 145.612 132.444 144.596 133.168C143.579 133.892 142.481 134.212 141.302 134.129C140.127 134.023 139.265 133.586 138.718 132.817Z" fill="#F4C430"/>
<path d="M159.19 123.838C159.527 123.691 159.779 123.808 159.945 124.19C160.111 124.571 160.025 124.835 159.688 124.982L157.268 126.036C156.916 126.189 156.656 126.075 156.49 125.694C156.324 125.313 156.417 125.045 156.769 124.892L157.275 124.672L155.765 122.947L149.89 125.505L150.146 127.776L150.674 127.546C151.026 127.393 151.285 127.507 151.451 127.888C151.617 128.27 151.524 128.537 151.172 128.69L148.95 129.658C148.598 129.811 148.339 129.697 148.173 129.316C148.007 128.934 148.1 128.667 148.452 128.514L149.002 128.274L147.548 114.955L146.667 115.339C146.33 115.486 146.078 115.368 145.912 114.987C145.74 114.591 145.822 114.319 146.16 114.172L148.426 113.186C148.749 113.045 148.991 113.061 149.154 113.235L158.64 124.078L159.19 123.838ZM149.716 124.325L155.041 122.006L148.62 114.593L149.716 124.325Z" fill="#F4C430"/>
<path d="M176.609 107.454C177.009 107.429 177.222 107.632 177.249 108.063C177.276 108.478 177.089 108.698 176.69 108.724L176.043 108.765L176.899 122.226C176.926 122.657 176.724 122.886 176.293 122.914C175.91 122.938 175.637 122.803 175.474 122.509L168.274 110.629L168.999 122.03L169.549 121.995C169.933 121.971 170.137 122.167 170.164 122.582C170.19 122.997 170.012 123.217 169.629 123.241L167.257 123.392C166.874 123.416 166.669 123.221 166.643 122.805C166.617 122.39 166.795 122.17 167.178 122.146L167.753 122.11L166.942 109.343L166.367 109.38C165.984 109.404 165.779 109.209 165.752 108.794C165.725 108.363 165.903 108.135 166.286 108.11L167.891 108.008C168.131 107.993 168.322 108.109 168.466 108.357L175.504 119.958L174.798 108.844L174.175 108.884C173.792 108.908 173.587 108.713 173.561 108.297C173.533 107.866 173.711 107.639 174.094 107.614L176.609 107.454Z" fill="#F4C430"/>
<path d="M191.48 117.314C191.056 119.741 190.131 121.545 188.707 122.725C187.285 123.89 185.7 124.319 183.95 124.014C182.216 123.711 180.881 122.754 179.944 121.145C179.023 119.539 178.774 117.522 179.199 115.094C179.623 112.667 180.544 110.879 181.963 109.73C183.382 108.581 184.959 108.158 186.692 108.461C188.442 108.767 189.78 109.708 190.707 111.283C191.649 112.86 191.907 114.871 191.48 117.314ZM190.074 113.925C189.904 112.856 189.509 111.91 188.889 111.087C188.27 110.264 187.463 109.766 186.47 109.592C185.493 109.421 184.578 109.594 183.724 110.111C182.87 110.628 182.177 111.343 181.644 112.257C181.129 113.158 180.776 114.152 180.586 115.24C180.294 116.91 180.464 118.54 181.096 120.128C181.728 121.717 182.761 122.636 184.196 122.887C185.63 123.138 186.89 122.667 187.975 121.477C189.076 120.288 189.775 118.843 190.073 117.141C190.263 116.053 190.263 114.981 190.074 113.925Z" fill="#F4C430"/>
<path d="M190.957 121.682C191.159 121.176 191.456 120.821 191.848 120.616C192.246 120.396 192.579 120.34 192.846 120.446C193.129 120.559 193.305 120.742 193.377 120.994C193.463 121.253 193.453 121.516 193.346 121.783C193.126 122.333 192.75 122.691 192.219 122.858C192.127 123.562 192.271 124.171 192.652 124.685C193.053 125.19 193.566 125.567 194.19 125.816C195.111 126.184 195.963 126.163 196.748 125.753C197.547 125.349 198.101 124.76 198.409 123.988C198.724 123.2 198.697 122.405 198.328 121.603C198.043 121.024 197.643 120.365 197.129 119.625L196.286 118.435C195.677 117.589 195.267 116.804 195.055 116.083C194.85 115.346 194.911 114.569 195.237 113.752C195.57 112.92 196.161 112.346 197.011 112.031C197.866 111.701 198.717 111.705 199.564 112.043C200.426 112.388 201.069 112.869 201.494 113.487C201.919 114.104 202.022 114.688 201.803 115.238C201.696 115.505 201.528 115.688 201.299 115.786C201.091 115.876 200.839 115.861 200.541 115.742C200.244 115.623 200.005 115.381 199.824 115.016C199.657 114.656 199.615 114.373 199.699 114.165C199.782 113.957 199.872 113.795 199.97 113.679C199.938 113.373 199.676 113.122 199.186 112.926C198.695 112.73 198.18 112.748 197.639 112.98C197.113 113.218 196.755 113.574 196.566 114.05C196.257 114.822 196.617 115.948 197.645 117.428L198.479 118.64C198.833 119.177 199.09 119.59 199.25 119.878C199.432 120.158 199.631 120.564 199.848 121.099C200.264 122.127 200.229 123.25 199.742 124.469C199.255 125.687 198.44 126.498 197.296 126.903C196.152 127.307 195.001 127.278 193.842 126.815C192.683 126.352 191.82 125.602 191.252 124.565C190.705 123.519 190.607 122.558 190.957 121.682Z" fill="#F4C430"/>
<path d="M208.801 115.455C208.962 115.559 209.062 115.699 209.1 115.876C209.147 116.04 209.136 116.175 209.067 116.283C208.997 116.39 208.863 116.495 208.665 116.595L215.14 120.77L215.317 120.628C215.681 120.329 216.004 120.271 216.287 120.453C216.435 120.549 216.528 120.685 216.566 120.862C216.626 121.034 216.613 121.187 216.526 121.322C216.44 121.456 216.319 121.569 216.165 121.66L214.522 122.571C214.253 122.721 214.052 122.753 213.917 122.666C213.635 122.484 213.576 122.265 213.741 122.01C213.793 121.929 213.85 121.871 213.911 121.834L214.233 121.556L211.49 119.787L204.493 130.639L205.017 130.977C205.34 131.185 205.388 131.464 205.163 131.814C204.937 132.163 204.663 132.234 204.341 132.026L202.162 130.621C201.84 130.413 201.791 130.134 202.016 129.785C202.242 129.435 202.516 129.364 202.839 129.572L203.343 129.898L210.34 119.046L207.617 117.29L206.956 117.607C206.745 117.699 206.572 117.701 206.437 117.614C206.303 117.528 206.217 117.425 206.18 117.306C206.164 117.182 206.187 117.072 206.248 116.978C206.317 116.871 206.402 116.783 206.503 116.715L207.911 115.595C208.235 115.328 208.532 115.281 208.801 115.455Z" fill="#F4C430"/>
<path d="M214.492 139.853C214.775 139.57 215.12 139.406 215.527 139.361C215.934 139.315 216.234 139.389 216.427 139.581C216.811 139.966 216.806 140.356 216.41 140.752C216.093 141.069 215.675 141.216 215.154 141.194C214.657 141.171 214.21 140.962 213.813 140.566C212.987 139.741 212.823 138.536 213.32 136.952C213.535 136.284 213.653 135.769 213.676 135.407C213.698 134.796 213.477 134.259 213.013 133.795C212.561 133.343 212.295 133.156 212.215 133.236L210.4 135.052L210.859 135.51C211.13 135.782 211.119 136.065 210.825 136.359C210.531 136.653 210.248 136.664 209.977 136.393L208.143 134.561C207.871 134.29 207.883 134.007 208.177 133.712C208.471 133.418 208.753 133.407 209.025 133.678L209.433 134.085L218.474 125.036L218.067 124.629C217.795 124.358 217.807 124.075 218.101 123.781C218.406 123.475 218.694 123.458 218.966 123.73L220.715 125.477C222.265 127.026 223.182 128.621 223.466 130.262C223.749 131.902 223.269 133.345 222.025 134.59C220.973 135.642 219.751 136.22 218.36 136.322C216.991 136.424 215.758 136.006 214.66 135.068C215.135 135.927 215.153 136.815 214.712 137.732C214.441 138.298 214.277 138.722 214.22 139.005C214.186 139.288 214.277 139.571 214.492 139.853ZM214.575 133.693C215.525 134.643 216.6 135.129 217.799 135.151C219.01 135.162 220.113 134.669 221.108 133.674C222.103 132.678 222.488 131.523 222.261 130.211C222.045 128.887 221.394 127.683 220.308 126.597C219.821 126.111 219.504 125.941 219.357 126.088L213.352 132.098C213.228 132.223 213.635 132.754 214.575 133.693Z" fill="#F4C430"/>
<path d="M223.265 151.682C223.46 151.994 223.382 152.261 223.029 152.482C222.677 152.703 222.403 152.657 222.207 152.345L220.805 150.109C220.601 149.784 220.675 149.51 221.027 149.289C221.38 149.068 221.658 149.12 221.862 149.446L222.155 149.913L223.636 148.164L220.231 142.735L218.024 143.326L218.33 143.814C218.534 144.139 218.46 144.412 218.108 144.633C217.755 144.854 217.477 144.802 217.273 144.477L215.985 142.423C215.781 142.098 215.855 141.825 216.208 141.604C216.56 141.383 216.838 141.435 217.042 141.76L217.361 142.268L230.315 138.848L229.805 138.034C229.61 137.722 229.688 137.456 230.04 137.235C230.406 137.006 230.687 137.047 230.883 137.358L232.196 139.453C232.383 139.751 232.403 139.993 232.256 140.18L222.946 151.174L223.265 151.682ZM221.373 142.387L224.459 147.307L230.833 139.854L221.373 142.387Z" fill="#F4C430"/>
<path d="M120.907 174.703L120.879 174.128C120.86 173.745 121.059 173.543 121.474 173.522C121.906 173.501 122.131 173.682 122.15 174.066L122.287 176.87C122.441 180.019 121.647 181.635 119.906 181.721C119.362 181.747 118.884 181.643 118.472 181.407C118.06 181.17 117.787 180.831 117.654 180.389C117.503 181.23 116.961 181.953 116.03 182.559C115.099 183.182 114.043 183.522 112.86 183.58C111.262 183.658 109.912 183.252 108.812 182.36C107.711 181.485 107.111 180.025 107.011 177.979L106.856 174.815C106.848 174.655 106.897 174.517 107.004 174.399C107.126 174.281 107.275 174.218 107.451 174.209C107.867 174.189 108.084 174.37 108.102 174.754L108.131 175.329L120.907 174.703ZM118.002 176.215L118.088 177.965C118.128 178.796 118.263 179.43 118.493 179.868C118.74 180.32 119.15 180.532 119.726 180.504C120.844 180.449 121.353 179.391 121.252 177.33C121.211 176.483 121.126 176.062 120.998 176.069L118.002 176.215ZM116.827 176.273L108.222 176.694C108.094 176.701 108.049 177.087 108.086 177.855C108.162 179.405 108.594 180.537 109.382 181.251C110.17 181.965 111.307 182.286 112.793 182.213C114.279 182.141 115.347 181.704 115.997 180.903C116.663 180.118 116.967 179.133 116.909 177.951L116.827 176.273Z" fill="#F4C430"/>
<path d="M120.218 187.762C120.546 189.098 120.366 190.239 119.676 191.183C118.989 192.143 117.97 192.789 116.618 193.122C114.474 193.65 113.041 194.085 112.318 194.428C111.61 194.767 111.155 195.192 110.951 195.703C110.892 195.998 110.753 196.172 110.536 196.226C110.132 196.325 109.884 196.188 109.792 195.816C109.701 195.443 109.784 195.043 110.041 194.617C110.318 194.203 110.688 193.832 111.151 193.504C110.573 193.366 110.033 193.046 109.531 192.543C109.047 192.053 108.706 191.403 108.507 190.595C108.217 189.415 108.345 188.362 108.891 187.436C109.457 186.522 110.307 185.926 111.441 185.647C112.591 185.364 113.666 185.511 114.665 186.089C115.664 186.667 116.305 187.531 116.588 188.68C116.875 189.846 116.733 190.91 116.163 191.875C117.251 191.607 118.102 191.15 118.718 190.504C119.349 189.855 119.545 189.048 119.308 188.085C119.071 187.122 118.658 186.581 118.069 186.462C117.777 186.682 117.522 186.819 117.305 186.873C117.087 186.926 116.831 186.89 116.537 186.765C116.242 186.64 116.06 186.437 115.992 186.158C115.927 185.894 115.991 185.655 116.186 185.443C116.381 185.23 116.634 185.085 116.945 185.009C117.597 184.848 118.243 185.027 118.881 185.545C119.539 186.076 119.984 186.814 120.218 187.762ZM111.874 186.9C111.019 187.11 110.375 187.573 109.942 188.29C109.508 189.006 109.389 189.76 109.584 190.553C109.783 191.361 110.221 191.97 110.899 192.379C111.592 192.786 112.335 192.891 113.127 192.696L113.337 192.644C114.176 192.438 114.799 191.988 115.205 191.295C115.611 190.602 115.712 189.843 115.51 189.02C115.311 188.212 114.865 187.605 114.172 187.199C113.494 186.789 112.728 186.689 111.874 186.9Z" fill="#F4C430"/>
<path d="M121.735 196.956L113.306 200.623L113.488 201.041C113.564 201.217 113.563 201.374 113.484 201.514C113.426 201.661 113.316 201.77 113.155 201.84C112.773 202.006 112.503 201.905 112.343 201.539L111.434 199.448C111.268 199.066 111.376 198.793 111.757 198.627C112.139 198.461 112.412 198.569 112.578 198.95L112.77 199.39L121.045 195.791L120.854 195.351C120.771 195.16 120.765 194.988 120.838 194.834C120.911 194.68 121.021 194.572 121.167 194.508C121.329 194.438 121.483 194.431 121.63 194.489C121.793 194.541 121.915 194.662 121.998 194.853L123.769 198.925C124.094 199.673 124.179 200.308 124.022 200.83C123.88 201.345 123.566 201.708 123.082 201.919C122.833 202.027 122.58 202.068 122.323 202.04C122.082 202.005 121.903 201.856 121.788 201.592C121.673 201.328 121.686 201.035 121.825 200.712C121.985 200.399 122.194 200.177 122.451 200.047C122.73 199.926 122.912 199.864 122.999 199.862L121.735 196.956Z" fill="#F4C430"/>
<path d="M124.563 219.61C123.424 219.319 122.508 218.785 121.815 218.01C121.133 217.246 120.779 216.5 120.752 215.774C120.725 215.047 121.046 214.385 121.714 213.788C122.538 213.053 123.508 212.734 124.624 212.831C125.492 212.915 126.277 213.061 126.979 213.271L127.104 213.159C128.035 212.328 129.063 211.797 130.186 211.566C131.321 211.347 132.213 211.601 132.863 212.329C133.246 212.759 133.419 213.217 133.38 213.702C133.352 214.199 133.147 214.618 132.765 214.959C132.395 215.289 132.011 215.46 131.614 215.471C131.239 215.484 130.95 215.485 130.747 215.473C130.543 215.462 130.263 215.412 129.905 215.323C129.56 215.225 129.298 215.147 129.12 215.092C128.852 215.009 128.29 214.824 127.434 214.537C126.916 215.086 126.499 215.748 126.183 216.523C125.878 217.311 125.716 218.066 125.697 218.791C126.462 218.902 127.157 218.924 127.784 218.858C128.411 218.791 129.425 218.594 130.826 218.265C131.125 218.192 131.344 218.232 131.482 218.387C131.706 218.638 131.675 218.891 131.388 219.147C131.269 219.254 131.123 219.33 130.95 219.377C129.243 219.915 127.466 220.075 125.62 219.857C125.76 220.59 126.043 221.195 126.469 221.673C127.737 223.093 129.403 222.882 131.468 221.038C132.399 220.207 132.965 219.412 133.167 218.653C133.381 217.883 133.408 217.108 133.248 216.329C133.173 216.053 133.213 215.845 133.368 215.707C133.69 215.419 133.974 215.412 134.219 215.687C134.315 215.794 134.402 215.964 134.479 216.195C134.691 216.864 134.617 217.766 134.258 218.902C133.922 220.039 133.282 221.028 132.339 221.87L132.267 221.933C131.229 222.861 130.098 223.42 128.875 223.611C127.674 223.804 126.615 223.387 125.699 222.36C125.102 221.692 124.724 220.775 124.563 219.61ZM124.968 213.973C124.698 213.935 124.3 213.958 123.774 214.041C123.27 214.126 122.84 214.328 122.482 214.648C122.123 214.967 121.92 215.364 121.87 215.837C121.831 216.322 122.036 216.815 122.483 217.317C122.941 217.83 123.621 218.231 124.523 218.52C124.578 216.948 125.124 215.506 126.162 214.193C125.635 214.084 125.237 214.011 124.968 213.973ZM132.027 212.979C131.356 212.227 130.077 212.489 128.192 213.765C130.26 214.471 131.55 214.595 132.063 214.137C132.23 213.988 132.303 213.805 132.281 213.588C132.272 213.361 132.187 213.158 132.027 212.979Z" fill="#F4C430"/>
<path d="M147.662 233.568C147.78 233.449 147.936 233.379 148.13 233.356C148.331 233.319 148.503 233.338 148.644 233.414C148.799 233.497 148.895 233.639 148.932 233.841C148.991 234.036 148.978 234.211 148.895 234.366C148.524 235.057 147.709 235.527 146.449 235.777C145.189 236.026 143.981 235.841 142.825 235.221C141.218 234.358 140.197 233.047 139.761 231.288C139.347 229.522 139.734 227.532 140.922 225.319C142.11 223.106 143.569 221.673 145.299 221.022C147.05 220.364 148.652 220.425 150.104 221.204C150.865 221.613 151.444 222.124 151.842 222.737C152.253 223.357 152.293 223.977 151.96 224.598C151.839 224.823 151.662 224.983 151.43 225.076C151.213 225.177 150.956 225.148 150.66 224.989C150.364 224.83 150.15 224.552 150.018 224.155C149.901 223.765 149.918 223.429 150.069 223.147C150.099 223.09 150.199 222.99 150.368 222.844C150.195 222.624 149.897 222.401 149.474 222.174C148.389 221.591 147.138 221.637 145.723 222.312C144.307 222.987 143.157 224.149 142.272 225.798C141.765 226.743 141.431 227.753 141.271 228.83C141.111 229.906 141.192 230.939 141.514 231.929C141.85 232.927 142.413 233.637 143.202 234.061C143.992 234.485 144.796 234.644 145.615 234.539C146.442 234.42 147.124 234.096 147.662 233.568Z" fill="#F4C430"/>
<path d="M155.49 229.34L154.9 229.136C154.719 229.073 154.593 228.971 154.524 228.829C154.46 228.671 154.454 228.517 154.506 228.365C154.642 227.972 154.906 227.843 155.3 227.979L156.434 228.371C156.903 228.533 157.074 228.82 156.948 229.234L153.807 238.331L154.375 238.527C154.556 238.589 154.671 238.697 154.72 238.849C154.784 239.007 154.79 239.161 154.738 239.312C154.602 239.706 154.345 239.837 153.967 239.706L151.563 238.876C151.411 238.824 151.293 238.724 151.209 238.576C151.145 238.419 151.139 238.264 151.191 238.113C151.243 237.962 151.343 237.844 151.491 237.76C151.659 237.665 151.819 237.644 151.97 237.697L152.545 237.87L155.49 229.34ZM157.444 224.784C157.746 224.888 157.962 225.073 158.091 225.337C158.235 225.607 158.257 225.886 158.158 226.173C158.064 226.445 157.877 226.643 157.597 226.767C157.333 226.895 157.049 226.908 156.747 226.803C156.459 226.704 156.244 226.519 156.1 226.25C155.971 225.985 155.954 225.717 156.048 225.445C156.147 225.157 156.329 224.949 156.593 224.82C156.858 224.692 157.141 224.68 157.444 224.784Z" fill="#F4C430"/>
<path d="M162.149 241.809C162.088 242.334 162.181 242.773 162.427 243.126C162.686 243.497 163.036 243.722 163.477 243.8C163.918 243.878 164.25 243.84 164.473 243.685C164.711 243.532 164.855 243.314 164.906 243.03C165.001 242.495 164.6 242.147 163.702 241.987C163.182 241.895 162.664 241.835 162.149 241.809ZM163.155 238.209C164.226 238.4 165.173 238.235 165.997 237.715C166.824 237.18 167.324 236.424 167.497 235.447C167.671 234.47 167.401 233.569 166.686 232.743C165.988 231.92 165.118 231.416 164.079 231.231C163.055 231.049 162.107 231.214 161.236 231.725C160.384 232.224 159.868 232.977 159.689 233.985C159.512 234.978 159.783 235.879 160.5 236.689C161.217 237.499 162.102 238.006 163.155 238.209ZM168.722 235.689C168.498 236.949 167.814 237.916 166.67 238.591C165.545 239.252 164.266 239.455 162.832 239.2C162.265 239.099 161.736 238.924 161.244 238.674L160.028 240.164L164.14 240.895C164.943 241.038 165.485 241.329 165.764 241.769C166.062 242.196 166.164 242.669 166.072 243.189C165.977 243.724 165.658 244.147 165.115 244.457C164.57 244.783 163.919 244.878 163.163 244.744C162.423 244.612 161.786 244.214 161.254 243.551C160.722 242.888 160.501 242.214 160.59 241.531L158.817 241.216C158.313 241.127 158.092 240.909 158.154 240.562C158.173 240.452 158.234 240.341 158.335 240.229L160.209 238.051C159.562 237.578 159.073 236.947 158.742 236.157C158.411 235.367 158.32 234.554 158.468 233.719C158.687 232.491 159.367 231.547 160.508 230.889C161.651 230.215 162.94 230.005 164.373 230.26C165.035 230.377 165.612 230.561 166.104 230.811L167.23 229.549C167.821 228.874 168.448 228.595 169.109 228.713C169.55 228.791 169.891 229.023 170.132 229.407C170.388 229.794 170.488 230.145 170.432 230.46C170.379 230.759 170.267 230.975 170.097 231.107C169.93 231.224 169.721 231.259 169.469 231.215C169.233 231.173 169.002 231.01 168.776 230.726C168.55 230.442 168.436 230.121 168.435 229.763L166.977 231.381C167.642 231.938 168.135 232.594 168.455 233.35C168.779 234.09 168.868 234.87 168.722 235.689Z" fill="#F4C430"/>
<path d="M175.434 231.227C176.81 231.195 177.884 231.619 178.656 232.498C179.444 233.376 179.854 234.511 179.886 235.902C179.936 238.11 180.051 239.604 180.229 240.384C180.406 241.148 180.722 241.685 181.178 241.994C181.453 242.116 181.593 242.289 181.598 242.513C181.607 242.929 181.42 243.141 181.036 243.15C180.652 243.159 180.28 242.991 179.92 242.647C179.576 242.287 179.294 241.845 179.074 241.322C178.814 241.856 178.384 242.314 177.785 242.696C177.201 243.062 176.493 243.254 175.661 243.273C174.446 243.301 173.445 242.947 172.66 242.213C171.891 241.463 171.493 240.503 171.466 239.336C171.439 238.152 171.816 237.135 172.597 236.285C173.378 235.435 174.36 234.996 175.544 234.969C176.743 234.942 177.752 235.311 178.57 236.076C178.544 234.957 178.283 234.027 177.786 233.286C177.288 232.529 176.544 232.162 175.552 232.184C174.56 232.207 173.942 232.493 173.699 233.043C173.851 233.376 173.929 233.654 173.934 233.878C173.939 234.102 173.849 234.344 173.663 234.604C173.477 234.865 173.24 234.998 172.952 235.005C172.68 235.011 172.461 234.896 172.296 234.66C172.13 234.423 172.044 234.145 172.036 233.825C172.021 233.153 172.336 232.562 172.98 232.051C173.64 231.524 174.458 231.249 175.434 231.227ZM172.783 239.186C172.803 240.065 173.116 240.794 173.721 241.373C174.327 241.951 175.037 242.231 175.853 242.212C176.685 242.193 177.374 241.897 177.921 241.325C178.468 240.736 178.732 240.034 178.714 239.218L178.709 239.002C178.689 238.138 178.385 237.433 177.796 236.886C177.207 236.34 176.489 236.076 175.641 236.095C174.81 236.114 174.12 236.418 173.574 237.007C173.027 237.58 172.763 238.306 172.783 239.186Z" fill="#F4C430"/>
<path d="M184.763 231.764L186.516 240.787L186.964 240.7C187.153 240.664 187.306 240.699 187.425 240.806C187.556 240.895 187.639 241.026 187.672 241.198C187.751 241.607 187.595 241.849 187.202 241.925L184.964 242.36C184.556 242.44 184.312 242.275 184.232 241.867C184.153 241.458 184.318 241.215 184.726 241.135L185.197 241.044L183.476 232.185L183.005 232.277C182.8 232.317 182.631 232.284 182.497 232.18C182.362 232.076 182.28 231.945 182.25 231.788C182.216 231.615 182.243 231.463 182.332 231.332C182.418 231.185 182.562 231.091 182.767 231.052L187.125 230.205C187.926 230.049 188.564 230.104 189.04 230.371C189.512 230.621 189.799 231.006 189.9 231.524C189.952 231.791 189.936 232.046 189.853 232.291C189.767 232.519 189.583 232.661 189.3 232.716C189.017 232.771 188.734 232.696 188.449 232.49C188.178 232.266 188.006 232.014 187.936 231.734C187.878 231.436 187.857 231.244 187.873 231.16L184.763 231.764Z" fill="#F4C430"/>
<path d="M204.041 235.134L207.299 233.439L207.919 229.275C207.938 229.138 208.005 229.041 208.118 228.982C208.246 228.915 208.364 228.899 208.472 228.933C208.594 228.96 208.681 229.023 208.732 229.122C208.777 229.207 208.8 229.321 208.802 229.464L208.954 233.552C208.944 233.845 208.804 234.062 208.535 234.203L202.893 237.138C202.552 237.315 202.286 237.219 202.094 236.85C201.902 236.481 201.976 236.208 202.317 236.031L202.828 235.765L196.924 224.417L196.413 224.683C196.072 224.86 195.806 224.764 195.614 224.395C195.414 224.012 195.485 223.732 195.826 223.554L198.061 222.391C198.416 222.207 198.693 222.306 198.893 222.689C199.085 223.058 199.003 223.335 198.648 223.52L198.137 223.786L204.041 235.134Z" fill="#F4C430"/>
<path d="M209.463 227.142C208.377 225.798 207.867 224.39 207.933 222.918C208.001 221.423 208.682 220.153 209.977 219.107C211.284 218.052 212.664 217.647 214.117 217.893C215.582 218.128 216.858 218.918 217.943 220.262C219.019 221.594 219.534 223.009 219.489 224.506C219.433 225.99 218.739 227.27 217.407 228.346C216.088 229.412 214.703 229.81 213.253 229.542C211.802 229.274 210.539 228.474 209.463 227.142ZM213.565 228.21C214.758 228.44 215.809 228.187 216.717 227.453C217.626 226.72 218.099 225.752 218.136 224.55C218.175 223.325 217.767 222.184 216.913 221.126C216.058 220.068 215.033 219.435 213.838 219.228C212.633 219.009 211.582 219.261 210.686 219.985C209.789 220.709 209.317 221.677 209.267 222.889C209.23 224.091 209.639 225.221 210.494 226.279C211.348 227.337 212.372 227.981 213.565 228.21Z" fill="#F4C430"/>
<path d="M221.139 209.735L220.793 210.166C220.683 210.303 220.538 210.381 220.358 210.401C220.188 210.408 220.04 210.362 219.916 210.261C219.791 210.161 219.714 210.027 219.684 209.86C219.664 209.68 219.71 209.521 219.82 209.384L221.338 207.494C221.579 207.195 221.861 207.176 222.185 207.436C222.51 207.697 222.552 207.977 222.311 208.276L221.98 208.688L229.015 214.34L229.571 213.647C229.802 213.361 230.079 213.347 230.404 213.608C230.553 213.728 230.637 213.867 230.654 214.024C230.671 214.182 230.634 214.317 230.544 214.429L229.477 215.757C229.357 215.907 229.247 215.993 229.147 216.015C229.044 216.015 228.918 215.955 228.768 215.835L227.552 214.858C228.141 216.501 227.969 217.902 227.038 219.062C226.306 219.973 225.459 220.401 224.497 220.346C223.523 220.282 222.63 219.924 221.82 219.272L216.749 215.199L216.419 215.61C216.308 215.747 216.173 215.813 216.013 215.808C215.854 215.803 215.711 215.75 215.586 215.65C215.462 215.55 215.38 215.422 215.34 215.267C215.3 215.112 215.336 214.966 215.446 214.829L216.979 212.92C217.089 212.783 217.229 212.711 217.399 212.704C217.569 212.697 217.716 212.743 217.841 212.843C217.966 212.944 218.043 213.077 218.073 213.245C218.102 213.412 218.062 213.565 217.952 213.702L217.591 214.151L222.68 218.24C223.229 218.68 223.843 218.938 224.523 219.012C225.202 219.086 225.797 218.805 226.309 218.168C226.83 217.52 226.981 216.667 226.764 215.609C226.556 214.539 225.953 213.604 224.955 212.802L221.139 209.735Z" fill="#F4C430"/>
<path d="M233.479 207.277L233.788 206.654C233.866 206.496 233.987 206.395 234.151 206.352C234.316 206.308 234.47 206.322 234.613 206.393C234.757 206.464 234.861 206.578 234.926 206.735C234.991 206.892 234.984 207.05 234.906 207.207L233.66 209.724C233.582 209.882 233.468 209.986 233.318 210.036C233.16 210.066 233.01 210.045 232.867 209.974C232.709 209.896 232.594 209.785 232.522 209.642C232.457 209.485 232.464 209.328 232.542 209.17L232.882 208.482L224.796 204.477L224.359 205.359C224.281 205.517 224.17 205.614 224.027 205.65C223.87 205.679 223.705 205.651 223.533 205.566C223.361 205.481 223.257 205.367 223.221 205.224C223.177 205.059 223.184 204.92 223.241 204.805L224.061 203.149C224.139 202.991 224.221 202.898 224.306 202.869C224.392 202.84 224.514 202.865 224.672 202.943L226.285 203.742C225.831 203.035 225.553 202.281 225.45 201.48C225.346 200.679 225.458 199.949 225.785 199.289C226.324 198.2 227.037 197.589 227.924 197.456C228.797 197.317 229.713 197.485 230.674 197.961L236.631 200.911L236.93 200.309C237.008 200.151 237.129 200.051 237.293 200.007C237.458 199.963 237.612 199.977 237.755 200.048C237.898 200.119 238.003 200.233 238.068 200.39C238.133 200.548 238.126 200.705 238.048 200.863L236.898 203.186C236.727 203.53 236.456 203.609 236.083 203.425C235.71 203.24 235.609 202.976 235.779 202.632L236.035 202.116L229.97 199.112C228.45 198.36 227.388 198.593 226.785 199.811C226.38 200.629 226.384 201.577 226.796 202.656C227.208 203.735 227.98 204.554 229.113 205.115L233.479 207.277Z" fill="#F4C430"/>
<path d="M240.779 192.137C241.299 192.233 241.744 192.169 242.111 191.947C242.499 191.712 242.746 191.378 242.853 190.943C242.96 190.508 242.944 190.174 242.803 189.942C242.666 189.694 242.458 189.536 242.179 189.467C241.65 189.337 241.277 189.714 241.059 190.6C240.933 191.112 240.839 191.625 240.779 192.137ZM237.253 190.898C237.514 189.841 237.411 188.885 236.947 188.029C236.466 187.169 235.745 186.621 234.782 186.383C233.818 186.146 232.901 186.357 232.03 187.016C231.163 187.659 230.603 188.493 230.351 189.518C230.102 190.528 230.204 191.484 230.657 192.387C231.099 193.27 231.817 193.834 232.811 194.079C233.79 194.321 234.707 194.11 235.562 193.447C236.418 192.785 236.981 191.935 237.253 190.898ZM235.103 185.177C236.346 185.484 237.267 186.229 237.864 187.415C238.45 188.581 238.569 189.871 238.221 191.285C238.083 191.844 237.873 192.361 237.592 192.835L238.999 194.146L239.998 190.091C240.193 189.299 240.519 188.778 240.976 188.528C241.422 188.259 241.901 188.187 242.413 188.313C242.942 188.444 243.343 188.789 243.616 189.351C243.905 189.917 243.958 190.572 243.774 191.318C243.594 192.048 243.156 192.657 242.459 193.145C241.762 193.632 241.076 193.809 240.4 193.675L239.969 195.423C239.847 195.92 239.615 196.127 239.273 196.043C239.164 196.016 239.057 195.948 238.952 195.84L236.902 193.827C236.388 194.442 235.726 194.888 234.916 195.167C234.106 195.445 233.289 195.483 232.466 195.28C231.254 194.981 230.357 194.241 229.775 193.059C229.177 191.874 229.052 190.574 229.401 189.161C229.562 188.508 229.783 187.945 230.064 187.47L228.879 186.264C228.244 185.629 228.007 184.986 228.168 184.334C228.275 183.899 228.528 183.574 228.927 183.359C229.33 183.129 229.687 183.052 229.997 183.128C230.293 183.201 230.501 183.326 230.621 183.505C230.727 183.679 230.749 183.89 230.688 184.139C230.63 184.372 230.452 184.592 230.154 184.798C229.856 185.005 229.529 185.097 229.172 185.075L230.69 186.636C231.29 186.009 231.977 185.561 232.752 185.29C233.512 185.016 234.296 184.978 235.103 185.177Z" fill="#F4C430"/>
<path d="M235.092 174.863C234.45 174.894 233.82 175.15 233.202 175.631C232.585 176.112 232.256 176.736 232.217 177.503C232.179 178.254 232.426 178.891 232.96 179.415C233.494 179.939 234.108 180.315 234.801 180.543L235.092 174.863ZM243.16 177.8C243.086 179.254 242.459 180.391 241.279 181.212C240.1 182.032 238.631 182.398 236.873 182.308C235.116 182.217 233.707 181.729 232.647 180.841C231.588 179.938 231.093 178.799 231.164 177.425C231.2 176.722 231.392 176.099 231.74 175.556C232.072 175.012 232.478 174.6 232.957 174.321C233.933 173.73 234.844 173.456 235.691 173.499C236.138 173.522 236.351 173.742 236.33 174.157L235.986 180.868C236.192 180.911 236.487 180.942 236.87 180.962C238.34 181.037 239.563 180.771 240.54 180.165C241.517 179.542 242.031 178.735 242.082 177.744C242.104 177.313 242.012 176.916 241.806 176.553C241.585 176.189 241.374 175.93 241.173 175.775C240.957 175.62 240.67 175.445 240.311 175.25C239.953 175.04 239.783 174.775 239.799 174.455C239.824 173.976 240.052 173.747 240.483 173.769C241.042 173.798 241.647 174.189 242.297 174.944C242.932 175.681 243.22 176.633 243.16 177.8Z" fill="#F4C430"/>
</svg>
