<svg width="350" height="350" viewBox="0 0 350 350" fill="none" xmlns="http://www.w3.org/2000/svg">
<path d="M136.311 157.656C136.439 157.229 136.717 156.867 137.143 156.568C137.57 156.227 137.997 156.056 138.423 156.056C138.893 156.056 139.298 156.269 139.639 156.696C140.023 157.08 140.215 157.507 140.215 157.976C140.215 160.067 138.893 162.2 136.247 164.376C133.602 166.552 130.53 167.64 127.031 167.64C122.167 167.64 118.114 165.848 114.871 162.264C111.671 158.637 110.071 153.475 110.071 146.776C110.071 140.077 111.693 134.872 114.935 131.16C118.221 127.405 122.061 125.528 126.455 125.528C128.759 125.528 130.765 125.997 132.471 126.936C134.221 127.875 135.095 129.283 135.095 131.16C135.095 131.843 134.882 132.44 134.455 132.952C134.071 133.464 133.431 133.72 132.535 133.72C131.639 133.72 130.786 133.336 129.975 132.568C129.207 131.8 128.823 130.989 128.823 130.136C128.823 129.965 128.93 129.603 129.143 129.048C128.461 128.749 127.479 128.6 126.199 128.6C122.914 128.6 120.034 130.285 117.559 133.656C115.085 137.027 113.847 141.208 113.847 146.2C113.847 149.059 114.338 151.853 115.319 154.584C116.301 157.315 117.794 159.64 119.799 161.56C121.847 163.48 124.066 164.44 126.455 164.44C128.845 164.44 130.935 163.8 132.727 162.52C134.519 161.197 135.714 159.576 136.311 157.656ZM176.069 146.584C176.069 153.155 174.469 158.317 171.269 162.072C168.069 165.784 164.101 167.64 159.365 167.64C154.671 167.64 150.725 165.741 147.525 161.944C144.367 158.147 142.789 152.963 142.789 146.392C142.789 139.821 144.389 134.701 147.589 131.032C150.789 127.363 154.735 125.528 159.429 125.528C164.165 125.528 168.111 127.384 171.269 131.096C174.469 134.808 176.069 139.971 176.069 146.584ZM170.821 138.328C169.882 135.597 168.41 133.293 166.405 131.416C164.399 129.539 162.053 128.6 159.365 128.6C156.719 128.6 154.394 129.475 152.389 131.224C150.383 132.973 148.89 135.171 147.909 137.816C146.97 140.419 146.501 143.192 146.501 146.136C146.501 150.659 147.695 154.861 150.085 158.744C152.474 162.627 155.61 164.568 159.493 164.568C163.375 164.568 166.469 162.755 168.773 159.128C171.119 155.501 172.293 151.384 172.293 146.776C172.293 143.832 171.802 141.016 170.821 138.328ZM178.936 157.848C178.936 156.397 179.32 155.224 180.088 154.328C180.856 153.389 181.624 152.92 182.392 152.92C183.203 152.92 183.822 153.197 184.248 153.752C184.718 154.307 184.952 154.968 184.952 155.736C184.952 157.315 184.376 158.573 183.224 159.512C183.694 161.347 184.654 162.712 186.104 163.608C187.598 164.461 189.24 164.888 191.032 164.888C193.678 164.888 195.768 163.992 197.304 162.2C198.883 160.408 199.672 158.403 199.672 156.184C199.672 153.923 198.819 151.981 197.112 150.36C195.832 149.208 194.19 147.971 192.184 146.648L188.92 144.536C186.574 143.043 184.782 141.507 183.544 139.928C182.307 138.307 181.688 136.323 181.688 133.976C181.688 131.587 182.584 129.581 184.376 127.96C186.168 126.296 188.28 125.464 190.712 125.464C193.187 125.464 195.256 126.019 196.92 127.128C198.584 128.237 199.416 129.581 199.416 131.16C199.416 131.928 199.182 132.547 198.712 133.016C198.286 133.443 197.646 133.656 196.792 133.656C195.939 133.656 195.107 133.293 194.296 132.568C193.528 131.843 193.144 131.181 193.144 130.584C193.144 129.987 193.208 129.496 193.336 129.112C192.952 128.387 192.056 128.024 190.648 128.024C189.24 128.024 187.982 128.579 186.872 129.688C185.806 130.797 185.272 132.035 185.272 133.4C185.272 135.619 187.278 138.051 191.288 140.696L194.552 142.872C195.96 143.853 197.006 144.621 197.688 145.176C198.414 145.688 199.31 146.499 200.376 147.608C202.424 149.741 203.448 152.557 203.448 156.056C203.448 159.555 202.232 162.371 199.8 164.504C197.368 166.637 194.488 167.704 191.16 167.704C187.832 167.704 184.952 166.701 182.52 164.696C180.131 162.648 178.936 160.365 178.936 157.848ZM238.797 163.672C239.778 163.672 240.269 164.227 240.269 165.336C240.269 166.445 239.778 167 238.797 167H231.757C230.733 167 230.221 166.445 230.221 165.336C230.221 164.227 230.733 163.672 231.757 163.672H233.229L231.373 157.848H214.285L212.493 163.672H214.029C215.053 163.672 215.565 164.227 215.565 165.336C215.565 166.445 215.053 167 214.029 167H207.565C206.541 167 206.029 166.445 206.029 165.336C206.029 164.227 206.541 163.672 207.565 163.672H209.165L219.789 129.56H217.229C216.247 129.56 215.757 129.005 215.757 127.896C215.757 126.744 216.247 126.168 217.229 126.168H223.821C224.759 126.168 225.335 126.467 225.549 127.064L237.197 163.672H238.797ZM215.117 154.776H230.605L222.797 129.816L215.117 154.776ZM106.645 182.168C107.712 182.168 108.245 182.744 108.245 183.896C108.245 185.005 107.712 185.56 106.645 185.56H104.917V221.528C104.917 222.68 104.341 223.256 103.189 223.256C102.165 223.256 101.461 222.851 101.077 222.04L83.925 189.208V219.672H85.397C86.421 219.672 86.933 220.227 86.933 221.336C86.933 222.445 86.421 223 85.397 223H79.061C78.037 223 77.525 222.445 77.525 221.336C77.525 220.227 78.037 219.672 79.061 219.672H80.597V185.56H79.061C78.037 185.56 77.525 185.005 77.525 183.896C77.525 182.744 78.037 182.168 79.061 182.168H83.349C83.989 182.168 84.4797 182.509 84.821 183.192L101.589 215.256V185.56H99.925C98.901 185.56 98.389 185.005 98.389 183.896C98.389 182.744 98.901 182.168 99.925 182.168H106.645ZM145.383 202.584C145.383 209.155 143.783 214.317 140.583 218.072C137.383 221.784 133.415 223.64 128.679 223.64C123.985 223.64 120.039 221.741 116.839 217.944C113.681 214.147 112.103 208.963 112.103 202.392C112.103 195.821 113.703 190.701 116.903 187.032C120.103 183.363 124.049 181.528 128.743 181.528C133.479 181.528 137.425 183.384 140.583 187.096C143.783 190.808 145.383 195.971 145.383 202.584ZM140.135 194.328C139.196 191.597 137.724 189.293 135.719 187.416C133.713 185.539 131.367 184.6 128.679 184.6C126.033 184.6 123.708 185.475 121.703 187.224C119.697 188.973 118.204 191.171 117.223 193.816C116.284 196.419 115.815 199.192 115.815 202.136C115.815 206.659 117.009 210.861 119.399 214.744C121.788 218.627 124.924 220.568 128.807 220.568C132.689 220.568 135.783 218.755 138.087 215.128C140.433 211.501 141.607 207.384 141.607 202.776C141.607 199.832 141.116 197.016 140.135 194.328ZM148.25 213.848C148.25 212.397 148.634 211.224 149.402 210.328C150.17 209.389 150.938 208.92 151.706 208.92C152.517 208.92 153.135 209.197 153.562 209.752C154.031 210.307 154.266 210.968 154.266 211.736C154.266 213.315 153.69 214.573 152.538 215.512C153.007 217.347 153.967 218.712 155.418 219.608C156.911 220.461 158.554 220.888 160.346 220.888C162.991 220.888 165.082 219.992 166.618 218.2C168.197 216.408 168.986 214.403 168.986 212.184C168.986 209.923 168.133 207.981 166.426 206.36C165.146 205.208 163.503 203.971 161.498 202.648L158.234 200.536C155.887 199.043 154.095 197.507 152.858 195.928C151.621 194.307 151.002 192.323 151.002 189.976C151.002 187.587 151.898 185.581 153.69 183.96C155.482 182.296 157.594 181.464 160.026 181.464C162.501 181.464 164.57 182.019 166.234 183.128C167.898 184.237 168.73 185.581 168.73 187.16C168.73 187.928 168.495 188.547 168.026 189.016C167.599 189.443 166.959 189.656 166.106 189.656C165.253 189.656 164.421 189.293 163.61 188.568C162.842 187.843 162.458 187.181 162.458 186.584C162.458 185.987 162.522 185.496 162.65 185.112C162.266 184.387 161.37 184.024 159.962 184.024C158.554 184.024 157.295 184.579 156.186 185.688C155.119 186.797 154.586 188.035 154.586 189.4C154.586 191.619 156.591 194.051 160.602 196.696L163.866 198.872C165.274 199.853 166.319 200.621 167.002 201.176C167.727 201.688 168.623 202.499 169.69 203.608C171.738 205.741 172.762 208.557 172.762 212.056C172.762 215.555 171.546 218.371 169.114 220.504C166.682 222.637 163.802 223.704 160.474 223.704C157.146 223.704 154.266 222.701 151.834 220.696C149.445 218.648 148.25 216.365 148.25 213.848ZM178.542 179.416C179.054 179.416 179.481 179.587 179.822 179.928C180.164 180.227 180.334 180.547 180.334 180.888C180.334 181.229 180.185 181.656 179.886 182.168H200.431L200.623 181.592C201.007 180.397 201.647 179.8 202.543 179.8C203.012 179.8 203.417 179.971 203.759 180.312C204.143 180.611 204.335 180.973 204.335 181.4C204.335 181.827 204.228 182.253 204.015 182.68L201.647 187.096C201.263 187.821 200.857 188.184 200.431 188.184C199.535 188.184 199.087 187.779 199.087 186.968C199.087 186.712 199.129 186.499 199.215 186.328L199.535 185.24H190.83V219.672H192.495C193.519 219.672 194.031 220.227 194.031 221.336C194.031 222.445 193.519 223 192.495 223H185.582C184.558 223 184.047 222.445 184.047 221.336C184.047 220.227 184.558 219.672 185.582 219.672H187.182V185.24H178.542L177.518 186.904C177.177 187.416 176.793 187.672 176.366 187.672C175.94 187.672 175.598 187.565 175.342 187.352C175.129 187.096 175.022 186.819 175.022 186.52C175.022 186.179 175.086 185.859 175.214 185.56L176.75 181.016C177.092 179.949 177.689 179.416 178.542 179.416ZM231.008 221.016C231.008 219.949 231.349 218.989 232.032 218.136C232.715 217.283 233.419 216.856 234.144 216.856C235.595 216.856 236.32 217.603 236.32 219.096C236.32 220.291 235.808 221.357 234.784 222.296C233.803 223.192 232.565 223.64 231.072 223.64C227.957 223.64 225.376 221.677 223.328 217.752C222.475 216.088 221.728 214.893 221.088 214.168C219.979 212.973 218.549 212.376 216.8 212.376C215.093 212.376 214.24 212.525 214.24 212.824V219.672H215.968C216.992 219.672 217.504 220.227 217.504 221.336C217.504 222.445 216.992 223 215.968 223H209.056C208.032 223 207.52 222.445 207.52 221.336C207.52 220.227 208.032 219.672 209.056 219.672H210.592V185.56H209.056C208.032 185.56 207.52 185.005 207.52 183.896C207.52 182.744 208.032 182.168 209.056 182.168H215.648C221.493 182.168 226.229 183.448 229.856 186.008C233.483 188.568 235.296 192.195 235.296 196.888C235.296 200.856 234.08 204.248 231.648 207.064C229.259 209.837 226.144 211.373 222.304 211.672C224.821 212.397 226.528 214.04 227.424 216.6C227.979 218.179 228.469 219.288 228.896 219.928C229.365 220.525 230.069 220.888 231.008 221.016ZM219.552 209.24C223.136 209.24 226.08 208.131 228.384 205.912C230.688 203.651 231.84 200.643 231.84 196.888C231.84 193.133 230.389 190.232 227.488 188.184C224.587 186.093 221.088 185.048 216.992 185.048C215.157 185.048 214.24 185.325 214.24 185.88V208.536C214.24 209.005 216.011 209.24 219.552 209.24ZM271.983 219.672C272.964 219.672 273.455 220.227 273.455 221.336C273.455 222.445 272.964 223 271.983 223H264.943C263.919 223 263.407 222.445 263.407 221.336C263.407 220.227 263.919 219.672 264.943 219.672H266.415L264.559 213.848H247.471L245.679 219.672H247.215C248.239 219.672 248.751 220.227 248.751 221.336C248.751 222.445 248.239 223 247.215 223H240.751C239.727 223 239.215 222.445 239.215 221.336C239.215 220.227 239.727 219.672 240.751 219.672H242.351L252.975 185.56H250.415C249.434 185.56 248.943 185.005 248.943 183.896C248.943 182.744 249.434 182.168 250.415 182.168H257.007C257.946 182.168 258.522 182.467 258.735 183.064L270.383 219.672H271.983ZM248.303 210.776H263.791L255.983 185.816L248.303 210.776Z" fill="#F4C430"/>
</svg>
