<svg width="1460" height="1460" viewBox="0 0 1460 1460" fill="none" xmlns="http://www.w3.org/2000/svg">
<rect x="1" y="6" width="178" height="388" rx="9" stroke="white" stroke-width="2"/>
<rect x="60" y="55" width="60" height="60" rx="30" fill="white" fill-opacity="0.3"/>
<rect width="120" height="10" transform="translate(30 135)" fill="white" fill-opacity="0.3"/>
<rect width="84" height="4" transform="translate(38 192)" fill="white" fill-opacity="0.25"/>
<rect width="44" height="4" transform="translate(38 225)" fill="white" fill-opacity="0.25"/>
<rect x="30.5" y="185.5" width="119" height="17" stroke="white" stroke-opacity="0.3"/>
<rect x="30.5" y="218.5" width="119" height="17" stroke="white" stroke-opacity="0.3"/>
<rect width="120" height="18" transform="translate(30 256)" fill="white" fill-opacity="0.3"/>
<rect x="30.5" y="290.5" width="119" height="15" stroke="white" stroke-opacity="0.3"/>
<rect x="321" y="6" width="178" height="388" rx="9" stroke="white" stroke-width="2"/>
<rect x="380" y="85" width="60" height="60" rx="30" fill="white" fill-opacity="0.3"/>
<rect width="120" height="10" transform="translate(350 55)" fill="white" fill-opacity="0.3"/>
<rect width="84" height="4" transform="translate(358 172)" fill="white" fill-opacity="0.25"/>
<rect x="350.5" y="165.5" width="119" height="17" stroke="white" stroke-opacity="0.3"/>
<rect width="44" height="4" transform="translate(358 205)" fill="white" fill-opacity="0.25"/>
<rect x="350.5" y="198.5" width="119" height="17" stroke="white" stroke-opacity="0.3"/>
<rect width="44" height="4" transform="translate(358 238)" fill="white" fill-opacity="0.25"/>
<rect x="350.5" y="231.5" width="119" height="17" stroke="white" stroke-opacity="0.3"/>
<rect width="120" height="18" transform="translate(350 264)" fill="white" fill-opacity="0.3"/>
<rect x="350.5" y="298.5" width="119" height="15" stroke="white" stroke-opacity="0.3"/>
<rect x="641" y="6" width="178" height="388" rx="9" stroke="white" stroke-width="2"/>
<rect x="700" y="85" width="60" height="60" rx="30" fill="white" fill-opacity="0.3"/>
<rect width="120" height="10" transform="translate(670 55)" fill="white" fill-opacity="0.3"/>
<rect width="44" height="4" transform="translate(678 238)" fill="white" fill-opacity="0.25"/>
<rect x="670.5" y="231.5" width="119" height="17" stroke="white" stroke-opacity="0.3"/>
<rect width="120" height="18" transform="translate(670 264)" fill="white" fill-opacity="0.3"/>
<rect x="670.5" y="298.5" width="119" height="15" stroke="white" stroke-opacity="0.3"/>
<rect width="120" height="10" transform="translate(670 165)" fill="white" fill-opacity="0.3"/>
<rect width="120" height="4" transform="translate(670 185)" fill="white" fill-opacity="0.25"/>
<rect width="120" height="4" transform="translate(670 193)" fill="white" fill-opacity="0.25"/>
<rect width="120" height="4" transform="translate(670 201)" fill="white" fill-opacity="0.25"/>
<g clip-path="url(#clip0_31_11967)">
<rect x="920" y="-35" width="260" height="260" rx="130" fill="white" fill-opacity="0.3"/>
<rect width="120" height="18" transform="translate(990 317)" fill="white" fill-opacity="0.3"/>
<rect x="990.5" y="351.5" width="119" height="15" stroke="white" stroke-opacity="0.3"/>
<rect width="120" height="10" transform="translate(990 245)" fill="white" fill-opacity="0.3"/>
<rect width="120" height="4" transform="translate(990 265)" fill="white" fill-opacity="0.25"/>
<rect width="120" height="4" transform="translate(990 273)" fill="white" fill-opacity="0.25"/>
<rect width="120" height="4" transform="translate(990 281)" fill="white" fill-opacity="0.25"/>
</g>
<rect x="961" y="6" width="178" height="388" rx="9" stroke="white" stroke-width="2"/>
<rect x="1281" y="1" width="178" height="398" rx="9" stroke="white" stroke-width="2"/>
<rect x="1290" y="16" width="10" height="10" rx="5" fill="white" fill-opacity="0.3"/>
<rect width="120" height="10" transform="translate(1310 16)" fill="white" fill-opacity="0.3"/>
<rect x="1440" y="16" width="10" height="10" rx="5" fill="white" fill-opacity="0.3"/>
<rect x="1294" y="378" width="12" height="12" rx="6" fill="white" fill-opacity="0.3"/>
<rect x="1329" y="378" width="12" height="12" rx="6" fill="white" fill-opacity="0.3"/>
<rect x="1364" y="378" width="12" height="12" rx="6" fill="white" fill-opacity="0.3"/>
<rect x="1399" y="378" width="12" height="12" rx="6" fill="white" fill-opacity="0.3"/>
<rect x="1434" y="378" width="12" height="12" rx="6" fill="white" fill-opacity="0.3"/>
<rect width="50" height="10" transform="translate(1290 40)" fill="white" fill-opacity="0.3"/>
<rect width="50" height="10" transform="translate(1345 40)" fill="white" fill-opacity="0.3"/>
<rect width="50" height="10" transform="translate(1400 40)" fill="white" fill-opacity="0.3"/>
<rect width="75" height="90" transform="translate(1290 60)" fill="white" fill-opacity="0.3"/>
<rect width="33" height="10" transform="translate(1295 121)" fill="white" fill-opacity="0.3"/>
<rect width="30" height="4" transform="translate(1295 136)" fill="white" fill-opacity="0.25"/>
<rect width="30" height="4" transform="translate(1330 136)" fill="white" fill-opacity="0.25"/>
<rect width="10" height="10" transform="translate(1350 65)" fill="white" fill-opacity="0.3"/>
<rect width="75" height="90" transform="translate(1290 160)" fill="white" fill-opacity="0.3"/>
<rect width="33" height="10" transform="translate(1295 221)" fill="white" fill-opacity="0.3"/>
<rect width="30" height="4" transform="translate(1295 236)" fill="white" fill-opacity="0.25"/>
<rect width="30" height="4" transform="translate(1330 236)" fill="white" fill-opacity="0.25"/>
<rect width="10" height="10" transform="translate(1350 165)" fill="white" fill-opacity="0.3"/>
<rect width="75" height="90" transform="translate(1290 260)" fill="white" fill-opacity="0.3"/>
<rect width="33" height="10" transform="translate(1295 321)" fill="white" fill-opacity="0.3"/>
<rect width="30" height="4" transform="translate(1295 336)" fill="white" fill-opacity="0.25"/>
<rect width="30" height="4" transform="translate(1330 336)" fill="white" fill-opacity="0.25"/>
<rect width="10" height="10" transform="translate(1350 265)" fill="white" fill-opacity="0.3"/>
<rect width="75" height="90" transform="translate(1375 60)" fill="white" fill-opacity="0.3"/>
<rect width="33" height="10" transform="translate(1380 121)" fill="white" fill-opacity="0.3"/>
<rect width="30" height="4" transform="translate(1380 136)" fill="white" fill-opacity="0.25"/>
<rect width="30" height="4" transform="translate(1415 136)" fill="white" fill-opacity="0.25"/>
<rect width="10" height="10" transform="translate(1435 65)" fill="white" fill-opacity="0.3"/>
<rect width="75" height="90" transform="translate(1375 160)" fill="white" fill-opacity="0.3"/>
<rect width="33" height="10" transform="translate(1380 221)" fill="white" fill-opacity="0.3"/>
<rect width="30" height="4" transform="translate(1380 236)" fill="white" fill-opacity="0.25"/>
<rect width="30" height="4" transform="translate(1415 236)" fill="white" fill-opacity="0.25"/>
<rect width="10" height="10" transform="translate(1435 165)" fill="white" fill-opacity="0.3"/>
<rect width="75" height="90" transform="translate(1375 260)" fill="white" fill-opacity="0.3"/>
<rect width="33" height="10" transform="translate(1380 321)" fill="white" fill-opacity="0.3"/>
<rect width="30" height="4" transform="translate(1380 336)" fill="white" fill-opacity="0.25"/>
<rect width="30" height="4" transform="translate(1415 336)" fill="white" fill-opacity="0.25"/>
<rect width="10" height="10" transform="translate(1435 265)" fill="white" fill-opacity="0.3"/>
<rect x="1" y="571" width="178" height="358" rx="9" stroke="white" stroke-width="2"/>
<rect width="160" height="55" transform="translate(10 610)" fill="white" fill-opacity="0.3"/>
<rect width="120" height="10" transform="translate(30 632.5)" fill="white" fill-opacity="0.3"/>
<rect width="140" height="4" transform="translate(20 620)" fill="white" fill-opacity="0.25"/>
<rect x="10" y="586" width="10" height="10" rx="5" fill="white" fill-opacity="0.3"/>
<rect width="120" height="10" transform="translate(30 586)" fill="white" fill-opacity="0.3"/>
<rect x="160" y="586" width="10" height="10" rx="5" fill="white" fill-opacity="0.3"/>
<rect width="120" height="18" transform="translate(30 853)" fill="white" fill-opacity="0.3"/>
<rect x="321" y="571" width="178" height="358" rx="9" stroke="white" stroke-width="2"/>
<rect width="160" height="55" transform="translate(330 610)" fill="white" fill-opacity="0.3"/>
<rect width="80" height="10" transform="translate(335 615)" fill="white" fill-opacity="0.3"/>
<rect width="25" height="10" transform="translate(460 615)" fill="white" fill-opacity="0.3"/>
<rect width="100" height="4" transform="translate(335 631)" fill="white" fill-opacity="0.25"/>
<rect width="100" height="4" transform="translate(335 639)" fill="white" fill-opacity="0.25"/>
<rect x="445.5" y="644.5" width="39" height="15" stroke="white" stroke-opacity="0.3"/>
<rect width="160" height="55" transform="translate(330 670)" fill="white" fill-opacity="0.3"/>
<rect width="80" height="10" transform="translate(335 675)" fill="white" fill-opacity="0.3"/>
<rect width="25" height="10" transform="translate(460 675)" fill="white" fill-opacity="0.3"/>
<rect width="100" height="4" transform="translate(335 691)" fill="white" fill-opacity="0.25"/>
<rect width="100" height="4" transform="translate(335 699)" fill="white" fill-opacity="0.25"/>
<rect x="445.5" y="704.5" width="39" height="15" stroke="white" stroke-opacity="0.3"/>
<rect width="160" height="55" transform="translate(330 730)" fill="white" fill-opacity="0.3"/>
<rect width="80" height="10" transform="translate(335 735)" fill="white" fill-opacity="0.3"/>
<rect width="25" height="10" transform="translate(460 735)" fill="white" fill-opacity="0.3"/>
<rect width="100" height="4" transform="translate(335 751)" fill="white" fill-opacity="0.25"/>
<rect width="100" height="4" transform="translate(335 759)" fill="white" fill-opacity="0.25"/>
<rect x="445.5" y="764.5" width="39" height="15" stroke="white" stroke-opacity="0.3"/>
<rect width="160" height="55" transform="translate(330 790)" fill="white" fill-opacity="0.3"/>
<rect width="80" height="10" transform="translate(335 795)" fill="white" fill-opacity="0.3"/>
<rect width="25" height="10" transform="translate(460 795)" fill="white" fill-opacity="0.3"/>
<rect width="100" height="4" transform="translate(335 811)" fill="white" fill-opacity="0.25"/>
<rect width="100" height="4" transform="translate(335 819)" fill="white" fill-opacity="0.25"/>
<rect x="445.5" y="824.5" width="39" height="15" stroke="white" stroke-opacity="0.3"/>
<rect x="330" y="586" width="10" height="10" rx="5" fill="white" fill-opacity="0.3"/>
<rect width="120" height="10" transform="translate(350 586)" fill="white" fill-opacity="0.3"/>
<rect x="480" y="586" width="10" height="10" rx="5" fill="white" fill-opacity="0.3"/>
<rect width="120" height="18" transform="translate(350 872)" fill="white" fill-opacity="0.3"/>
<rect x="641" y="571" width="178" height="358" rx="9" stroke="white" stroke-width="2"/>
<rect width="160" height="40" transform="translate(650 610)" fill="white" fill-opacity="0.3"/>
<rect width="80" height="10" transform="translate(655 615)" fill="white" fill-opacity="0.3"/>
<rect width="25" height="10" transform="translate(780 615)" fill="white" fill-opacity="0.3"/>
<rect width="100" height="4" transform="translate(655 631)" fill="white" fill-opacity="0.25"/>
<rect width="100" height="4" transform="translate(655 639)" fill="white" fill-opacity="0.25"/>
<rect width="160" height="131" transform="translate(650 722)" fill="white" fill-opacity="0.3"/>
<rect x="655.5" y="690.5" width="29" height="17" stroke="white" stroke-opacity="0.3"/>
<rect x="695.5" y="690.5" width="29" height="17" stroke="white" stroke-opacity="0.3"/>
<rect x="735.5" y="690.5" width="29" height="17" stroke="white" stroke-opacity="0.3"/>
<rect x="775.5" y="690.5" width="29" height="17" stroke="white" stroke-opacity="0.3"/>
<rect x="650" y="586" width="10" height="10" rx="5" fill="white" fill-opacity="0.3"/>
<rect width="120" height="10" transform="translate(670 586)" fill="white" fill-opacity="0.3"/>
<rect x="800" y="586" width="10" height="10" rx="5" fill="white" fill-opacity="0.3"/>
<rect x="650" y="660" width="20" height="20" rx="10" fill="white" fill-opacity="0.3"/>
<rect x="678" y="660" width="20" height="20" rx="10" fill="white" fill-opacity="0.3"/>
<rect x="706" y="660" width="20" height="20" rx="10" fill="white" fill-opacity="0.3"/>
<rect x="734" y="660" width="20" height="20" rx="10" fill="white" fill-opacity="0.3"/>
<rect x="762" y="660" width="20" height="20" rx="10" fill="white" fill-opacity="0.3"/>
<rect x="790" y="660" width="20" height="20" rx="10" fill="white" fill-opacity="0.3"/>
<rect x="655.5" y="871.5" width="69" height="17" stroke="white" stroke-opacity="0.3"/>
<rect width="70" height="18" transform="translate(735 871)" fill="white" fill-opacity="0.3"/>
<rect x="961" y="561" width="178" height="378" rx="9" stroke="white" stroke-width="2"/>
<rect x="970.5" y="600.5" width="159" height="15" stroke="white" stroke-opacity="0.3"/>
<rect x="970.5" y="621.5" width="159" height="15" stroke="white" stroke-opacity="0.3"/>
<rect x="970.5" y="642.5" width="159" height="39" stroke="white" stroke-opacity="0.3"/>
<rect x="975.5" y="722.5" width="29" height="17" stroke="white" stroke-opacity="0.3"/>
<rect x="1015.5" y="722.5" width="29" height="17" stroke="white" stroke-opacity="0.3"/>
<rect x="1055.5" y="722.5" width="29" height="17" stroke="white" stroke-opacity="0.3"/>
<rect x="1095.5" y="722.5" width="29" height="17" stroke="white" stroke-opacity="0.3"/>
<rect x="970" y="576" width="10" height="10" rx="5" fill="white" fill-opacity="0.3"/>
<rect width="120" height="10" transform="translate(990 576)" fill="white" fill-opacity="0.3"/>
<rect x="1120" y="576" width="10" height="10" rx="5" fill="white" fill-opacity="0.3"/>
<rect x="970" y="692" width="20" height="20" rx="10" fill="white" fill-opacity="0.3"/>
<rect x="998" y="692" width="20" height="20" rx="10" fill="white" fill-opacity="0.3"/>
<rect x="1026" y="692" width="20" height="20" rx="10" fill="white" fill-opacity="0.3"/>
<rect x="1054" y="692" width="20" height="20" rx="10" fill="white" fill-opacity="0.3"/>
<rect x="1082" y="692" width="20" height="20" rx="10" fill="white" fill-opacity="0.3"/>
<rect x="1110" y="692" width="20" height="20" rx="10" fill="white" fill-opacity="0.3"/>
<rect x="975.5" y="902.5" width="69" height="17" stroke="white" stroke-opacity="0.3"/>
<rect width="70" height="18" transform="translate(1055 902)" fill="white" fill-opacity="0.3"/>
<rect width="160" height="140" transform="translate(970 750)" fill="white" fill-opacity="0.3"/>
<rect x="1281" y="571" width="178" height="358" rx="9" stroke="white" stroke-width="2"/>
<rect x="1290" y="586" width="10" height="10" rx="5" fill="white" fill-opacity="0.3"/>
<rect width="120" height="10" transform="translate(1310 586)" fill="white" fill-opacity="0.3"/>
<rect x="1440" y="586" width="10" height="10" rx="5" fill="white" fill-opacity="0.3"/>
<g clip-path="url(#clip1_31_11967)">
<rect width="160" height="50" transform="translate(1290 610)" fill="white" fill-opacity="0.3"/>
<rect x="1390" y="570" width="100" height="100" rx="50" fill="white" fill-opacity="0.3"/>
<rect width="80" height="10" transform="translate(1295 615)" fill="white" fill-opacity="0.3"/>
<rect width="95" height="5" transform="translate(1295 628)" fill="white" fill-opacity="0.25"/>
<rect width="95" height="5" transform="translate(1295 635)" fill="white" fill-opacity="0.25"/>
<rect width="95" height="5" transform="translate(1295 642)" fill="white" fill-opacity="0.25"/>
</g>
<g clip-path="url(#clip2_31_11967)">
<rect width="160" height="50" transform="translate(1290 665)" fill="white" fill-opacity="0.3"/>
<rect x="1390" y="625" width="100" height="100" rx="50" fill="white" fill-opacity="0.3"/>
<rect width="80" height="10" transform="translate(1295 670)" fill="white" fill-opacity="0.3"/>
<rect width="95" height="5" transform="translate(1295 683)" fill="white" fill-opacity="0.25"/>
<rect width="95" height="5" transform="translate(1295 690)" fill="white" fill-opacity="0.25"/>
<rect width="95" height="5" transform="translate(1295 697)" fill="white" fill-opacity="0.25"/>
</g>
<g clip-path="url(#clip3_31_11967)">
<rect width="160" height="50" transform="translate(1290 720)" fill="white" fill-opacity="0.3"/>
<rect x="1390" y="680" width="100" height="100" rx="50" fill="white" fill-opacity="0.3"/>
<rect width="80" height="10" transform="translate(1295 725)" fill="white" fill-opacity="0.3"/>
<rect width="95" height="5" transform="translate(1295 738)" fill="white" fill-opacity="0.25"/>
<rect width="95" height="5" transform="translate(1295 745)" fill="white" fill-opacity="0.25"/>
<rect width="95" height="5" transform="translate(1295 752)" fill="white" fill-opacity="0.25"/>
</g>
<g clip-path="url(#clip4_31_11967)">
<rect width="160" height="50" transform="translate(1290 775)" fill="white" fill-opacity="0.3"/>
<rect x="1390" y="735" width="100" height="100" rx="50" fill="white" fill-opacity="0.3"/>
<rect width="80" height="10" transform="translate(1295 780)" fill="white" fill-opacity="0.3"/>
<rect width="95" height="5" transform="translate(1295 793)" fill="white" fill-opacity="0.25"/>
<rect width="95" height="5" transform="translate(1295 800)" fill="white" fill-opacity="0.25"/>
<rect width="95" height="5" transform="translate(1295 807)" fill="white" fill-opacity="0.25"/>
</g>
<g clip-path="url(#clip5_31_11967)">
<rect width="160" height="50" transform="translate(1290 830)" fill="white" fill-opacity="0.3"/>
<rect x="1390" y="790" width="100" height="100" rx="50" fill="white" fill-opacity="0.3"/>
<rect width="80" height="10" transform="translate(1295 835)" fill="white" fill-opacity="0.3"/>
<rect width="95" height="5" transform="translate(1295 848)" fill="white" fill-opacity="0.25"/>
<rect width="95" height="5" transform="translate(1295 855)" fill="white" fill-opacity="0.25"/>
<rect width="95" height="5" transform="translate(1295 862)" fill="white" fill-opacity="0.25"/>
</g>
<g clip-path="url(#clip6_31_11967)">
<rect x="10" y="1116" width="10" height="10" rx="5" fill="white" fill-opacity="0.3"/>
<rect width="120" height="10" transform="translate(30 1116)" fill="white" fill-opacity="0.3"/>
<rect x="160" y="1116" width="10" height="10" rx="5" fill="white" fill-opacity="0.3"/>
<rect width="180" height="140" transform="translate(0.5 1099.5)" fill="white" fill-opacity="0.3"/>
<rect width="110" height="10" transform="translate(10.5 1249.5)" fill="white" fill-opacity="0.25"/>
<rect width="75" height="3" transform="translate(10.5 1267.5)" fill="white" fill-opacity="0.25"/>
<rect width="75" height="3" transform="translate(95.5 1267.5)" fill="white" fill-opacity="0.25"/>
<rect width="75" height="3" transform="translate(10.5 1273.5)" fill="white" fill-opacity="0.25"/>
<rect width="75" height="3" transform="translate(95.5 1273.5)" fill="white" fill-opacity="0.25"/>
<rect width="75" height="3" transform="translate(10.5 1279.5)" fill="white" fill-opacity="0.25"/>
<rect width="75" height="3" transform="translate(95.5 1279.5)" fill="white" fill-opacity="0.25"/>
<rect width="75" height="3" transform="translate(10.5 1285.5)" fill="white" fill-opacity="0.25"/>
<rect width="75" height="3" transform="translate(95.5 1285.5)" fill="white" fill-opacity="0.25"/>
<rect width="75" height="3" transform="translate(10.5 1291.5)" fill="white" fill-opacity="0.25"/>
<rect width="75" height="3" transform="translate(95.5 1291.5)" fill="white" fill-opacity="0.25"/>
<rect width="110" height="10" transform="translate(10.5 1302.5)" fill="white" fill-opacity="0.25"/>
<rect width="75" height="3" transform="translate(10.5 1320.5)" fill="white" fill-opacity="0.25"/>
<rect width="75" height="3" transform="translate(95.5 1320.5)" fill="white" fill-opacity="0.25"/>
<rect width="75" height="3" transform="translate(10.5 1326.5)" fill="white" fill-opacity="0.25"/>
<rect width="75" height="3" transform="translate(95.5 1326.5)" fill="white" fill-opacity="0.25"/>
<rect width="75" height="3" transform="translate(10.5 1332.5)" fill="white" fill-opacity="0.25"/>
<rect width="75" height="3" transform="translate(95.5 1332.5)" fill="white" fill-opacity="0.25"/>
<rect width="75" height="3" transform="translate(10.5 1338.5)" fill="white" fill-opacity="0.25"/>
<rect width="75" height="3" transform="translate(95.5 1338.5)" fill="white" fill-opacity="0.25"/>
<rect width="75" height="3" transform="translate(10.5 1344.5)" fill="white" fill-opacity="0.25"/>
<rect width="75" height="3" transform="translate(95.5 1344.5)" fill="white" fill-opacity="0.25"/>
<rect x="16" y="1429" width="69" height="17" stroke="white" stroke-opacity="0.3"/>
<rect width="70" height="18" transform="translate(95.5 1428.5)" fill="white" fill-opacity="0.3"/>
</g>
<rect x="1" y="1101" width="178" height="358" rx="9" stroke="white" stroke-width="2"/>
<rect x="321" y="1101" width="178" height="358" rx="9" stroke="white" stroke-width="2"/>
<rect x="330" y="1116" width="10" height="10" rx="5" fill="white" fill-opacity="0.3"/>
<rect width="120" height="10" transform="translate(350 1116)" fill="white" fill-opacity="0.3"/>
<rect x="480" y="1116" width="10" height="10" rx="5" fill="white" fill-opacity="0.3"/>
<rect width="160" height="200" transform="translate(330 1160)" fill="white" fill-opacity="0.3"/>
<rect width="120" height="18" transform="translate(350 1411)" fill="white" fill-opacity="0.3"/>
<rect x="641" y="1101" width="178" height="358" rx="9" stroke="white" stroke-width="2"/>
<rect x="650" y="1116" width="10" height="10" rx="5" fill="white" fill-opacity="0.3"/>
<rect width="120" height="10" transform="translate(670 1116)" fill="white" fill-opacity="0.3"/>
<rect x="800" y="1116" width="10" height="10" rx="5" fill="white" fill-opacity="0.3"/>
<rect width="120" height="18" transform="translate(670 1411)" fill="white" fill-opacity="0.3"/>
<rect x="670.5" y="1383.5" width="119" height="15" stroke="white" stroke-opacity="0.3"/>
<rect width="110" height="10" transform="translate(650 1140)" fill="white" fill-opacity="0.25"/>
<rect width="160" height="3" transform="translate(650 1153)" fill="white" fill-opacity="0.25"/>
<rect width="160" height="3" transform="translate(650 1159)" fill="white" fill-opacity="0.25"/>
<rect width="160" height="3" transform="translate(650 1165)" fill="white" fill-opacity="0.25"/>
<rect width="160" height="3" transform="translate(650 1171)" fill="white" fill-opacity="0.25"/>
<rect width="160" height="3" transform="translate(650 1177)" fill="white" fill-opacity="0.25"/>
<rect width="110" height="10" transform="translate(650 1189)" fill="white" fill-opacity="0.25"/>
<rect width="160" height="3" transform="translate(650 1202)" fill="white" fill-opacity="0.25"/>
<rect width="160" height="3" transform="translate(650 1208)" fill="white" fill-opacity="0.25"/>
<rect width="160" height="3" transform="translate(650 1214)" fill="white" fill-opacity="0.25"/>
<rect width="160" height="3" transform="translate(650 1220)" fill="white" fill-opacity="0.25"/>
<rect width="160" height="3" transform="translate(650 1226)" fill="white" fill-opacity="0.25"/>
<rect width="160" height="3" transform="translate(650 1232)" fill="white" fill-opacity="0.25"/>
<rect width="160" height="3" transform="translate(650 1238)" fill="white" fill-opacity="0.25"/>
<rect width="160" height="3" transform="translate(650 1244)" fill="white" fill-opacity="0.25"/>
<rect width="160" height="3" transform="translate(650 1250)" fill="white" fill-opacity="0.25"/>
<rect x="650.5" y="1267.5" width="15" height="15" stroke="white" stroke-opacity="0.3"/>
<rect x="674.5" y="1267.5" width="135" height="15" stroke="white" stroke-opacity="0.3"/>
<rect x="650.5" y="1288.5" width="15" height="15" stroke="white" stroke-opacity="0.3"/>
<rect x="674.5" y="1288.5" width="135" height="15" stroke="white" stroke-opacity="0.3"/>
<rect x="650.5" y="1309.5" width="15" height="15" stroke="white" stroke-opacity="0.3"/>
<rect x="674.5" y="1309.5" width="135" height="15" stroke="white" stroke-opacity="0.3"/>
<rect x="961" y="1101" width="178" height="358" rx="9" stroke="white" stroke-width="2"/>
<rect x="970" y="1116" width="10" height="10" rx="5" fill="white" fill-opacity="0.3"/>
<rect width="120" height="10" transform="translate(990 1116)" fill="white" fill-opacity="0.3"/>
<rect x="1120" y="1116" width="10" height="10" rx="5" fill="white" fill-opacity="0.3"/>
<rect width="120" height="18" transform="translate(990 1411)" fill="white" fill-opacity="0.3"/>
<rect width="110" height="10" transform="translate(970 1140)" fill="white" fill-opacity="0.25"/>
<rect width="160" height="3" transform="translate(970 1153)" fill="white" fill-opacity="0.25"/>
<rect width="160" height="3" transform="translate(970 1159)" fill="white" fill-opacity="0.25"/>
<rect width="160" height="3" transform="translate(970 1165)" fill="white" fill-opacity="0.25"/>
<rect width="160" height="3" transform="translate(970 1171)" fill="white" fill-opacity="0.25"/>
<rect width="160" height="3" transform="translate(970 1177)" fill="white" fill-opacity="0.25"/>
<rect x="1281" y="1101" width="178" height="358" rx="9" stroke="white" stroke-width="2"/>
<rect x="1290" y="1116" width="10" height="10" rx="5" fill="white" fill-opacity="0.3"/>
<rect width="120" height="10" transform="translate(1310 1116)" fill="white" fill-opacity="0.3"/>
<rect x="1440" y="1116" width="10" height="10" rx="5" fill="white" fill-opacity="0.3"/>
<rect width="120" height="18" transform="translate(1310 1411)" fill="white" fill-opacity="0.3"/>
<rect width="110" height="10" transform="translate(1290 1140)" fill="white" fill-opacity="0.25"/>
<rect width="160" height="3" transform="translate(1290 1153)" fill="white" fill-opacity="0.25"/>
<rect width="160" height="3" transform="translate(1290 1159)" fill="white" fill-opacity="0.25"/>
<rect width="160" height="3" transform="translate(1290 1165)" fill="white" fill-opacity="0.25"/>
<rect width="160" height="3" transform="translate(1290 1171)" fill="white" fill-opacity="0.25"/>
<rect width="160" height="3" transform="translate(1290 1177)" fill="white" fill-opacity="0.25"/>
<rect x="1290.5" y="1200.5" width="159" height="15" stroke="white" stroke-opacity="0.3"/>
<rect x="1290.5" y="1225.5" width="159" height="15" stroke="white" stroke-opacity="0.3"/>
<defs>
<clipPath id="clip0_31_11967">
<rect x="960" y="5" width="180" height="390" rx="10" fill="white"/>
</clipPath>
<clipPath id="clip1_31_11967">
<rect width="160" height="50" fill="white" transform="translate(1290 610)"/>
</clipPath>
<clipPath id="clip2_31_11967">
<rect width="160" height="50" fill="white" transform="translate(1290 665)"/>
</clipPath>
<clipPath id="clip3_31_11967">
<rect width="160" height="50" fill="white" transform="translate(1290 720)"/>
</clipPath>
<clipPath id="clip4_31_11967">
<rect width="160" height="50" fill="white" transform="translate(1290 775)"/>
</clipPath>
<clipPath id="clip5_31_11967">
<rect width="160" height="50" fill="white" transform="translate(1290 830)"/>
</clipPath>
<clipPath id="clip6_31_11967">
<rect y="1100" width="180" height="360" rx="10" fill="white"/>
</clipPath>
</defs>
</svg>
