<svg width="1460" height="1455" viewBox="0 0 1460 1455" fill="none" xmlns="http://www.w3.org/2000/svg">
<rect x="1" y="1" width="178" height="388" rx="9" stroke="white" stroke-width="2"/>
<rect x="45" y="120" width="90" height="90" rx="45" fill="white" fill-opacity="0.3"/>
<g clip-path="url(#clip0_31_11966)">
<rect x="280" y="-40" width="260" height="260" rx="130" fill="white" fill-opacity="0.3"/>
<rect width="120" height="10" transform="translate(350 260)" fill="white" fill-opacity="0.3"/>
<rect width="120" height="4" transform="translate(350 280)" fill="white" fill-opacity="0.25"/>
<rect width="120" height="18" transform="translate(350 320)" fill="white" fill-opacity="0.3"/>
<rect x="350.5" y="346.5" width="119" height="15" stroke="white" stroke-opacity="0.3"/>
</g>
<rect x="321" y="1" width="178" height="388" rx="9" stroke="white" stroke-width="2"/>
<g clip-path="url(#clip1_31_11966)">
<rect x="600" y="-40" width="260" height="260" rx="130" fill="white" fill-opacity="0.3"/>
<rect width="120" height="10" transform="translate(670 260)" fill="white" fill-opacity="0.3"/>
<rect width="120" height="4" transform="translate(670 280)" fill="white" fill-opacity="0.25"/>
<rect width="120" height="18" transform="translate(670 320)" fill="white" fill-opacity="0.3"/>
<rect x="670.5" y="346.5" width="119" height="15" stroke="white" stroke-opacity="0.3"/>
</g>
<rect x="641" y="1" width="178" height="388" rx="9" stroke="white" stroke-width="2"/>
<g clip-path="url(#clip2_31_11966)">
<rect x="920" y="-40" width="260" height="260" rx="130" fill="white" fill-opacity="0.3"/>
<rect width="120" height="10" transform="translate(990 260)" fill="white" fill-opacity="0.3"/>
<rect width="120" height="4" transform="translate(990 280)" fill="white" fill-opacity="0.25"/>
<rect width="120" height="18" transform="translate(990 320)" fill="white" fill-opacity="0.3"/>
</g>
<rect x="961" y="1" width="178" height="388" rx="9" stroke="white" stroke-width="2"/>
<rect x="1281" y="1" width="178" height="388" rx="9" stroke="white" stroke-width="2"/>
<rect x="1340" y="50" width="60" height="60" rx="30" fill="white" fill-opacity="0.3"/>
<rect width="120" height="10" transform="translate(1310 130)" fill="white" fill-opacity="0.3"/>
<rect width="120" height="4" transform="translate(1310 280)" fill="white" fill-opacity="0.25"/>
<rect x="1310.5" y="180.5" width="119" height="17" stroke="white" stroke-opacity="0.3"/>
<rect width="84" height="4" transform="translate(1318 187)" fill="white" fill-opacity="0.25"/>
<rect width="120" height="18" transform="translate(1310 218)" fill="white" fill-opacity="0.3"/>
<rect x="1" y="531" width="178" height="428" rx="9" stroke="white" stroke-width="2"/>
<rect width="120" height="10" transform="translate(30 546)" fill="white" fill-opacity="0.3"/>
<rect width="160" height="50" transform="translate(10 570)" fill="white" fill-opacity="0.3"/>
<rect width="70" height="25" transform="translate(15 590)" fill="white" fill-opacity="0.3"/>
<rect width="70" height="25" transform="translate(93 590)" fill="white" fill-opacity="0.3"/>
<rect width="80" height="10" transform="translate(15 575)" fill="white" fill-opacity="0.3"/>
<rect width="160" height="50" transform="translate(10 725)" fill="white" fill-opacity="0.3"/>
<rect width="45" height="25" transform="translate(15 745)" fill="white" fill-opacity="0.3"/>
<rect width="45" height="25" transform="translate(67.5 745)" fill="white" fill-opacity="0.3"/>
<rect width="45" height="25" transform="translate(120 745)" fill="white" fill-opacity="0.3"/>
<rect width="80" height="10" transform="translate(15 730)" fill="white" fill-opacity="0.3"/>
<g clip-path="url(#clip3_31_11966)">
<rect width="160" height="50" transform="translate(10 780)" fill="white" fill-opacity="0.3"/>
<rect x="-30" y="740" width="100" height="100" rx="50" fill="white" fill-opacity="0.3"/>
<rect width="80" height="10" transform="translate(80 790)" fill="white" fill-opacity="0.3"/>
</g>
<g clip-path="url(#clip4_31_11966)">
<rect width="160" height="50" transform="translate(10 830)" fill="white" fill-opacity="0.3"/>
<rect x="-30" y="790" width="100" height="100" rx="50" fill="white" fill-opacity="0.3"/>
<rect width="80" height="10" transform="translate(80 840)" fill="white" fill-opacity="0.3"/>
</g>
<g clip-path="url(#clip5_31_11966)">
<rect width="160" height="50" transform="translate(10 880)" fill="white" fill-opacity="0.3"/>
<rect x="-30" y="840" width="100" height="100" rx="50" fill="white" fill-opacity="0.3"/>
<rect width="80" height="10" transform="translate(80 890)" fill="white" fill-opacity="0.3"/>
</g>
<g clip-path="url(#clip6_31_11966)">
<rect width="160" height="95" transform="translate(10 625)" fill="white" fill-opacity="0.3"/>
<rect width="42" height="57" transform="translate(16 649)" fill="white" fill-opacity="0.3"/>
<rect width="42" height="57" transform="translate(65 649)" fill="white" fill-opacity="0.3"/>
<rect width="42" height="57" transform="translate(114 649)" fill="white" fill-opacity="0.3"/>
<rect width="42" height="57" transform="translate(163 649)" fill="white" fill-opacity="0.3"/>
<rect width="80" height="10" transform="translate(50 631)" fill="white" fill-opacity="0.3"/>
</g>
<rect x="14" y="938" width="12" height="12" rx="6" fill="white" fill-opacity="0.3"/>
<rect x="49" y="938" width="12" height="12" rx="6" fill="white" fill-opacity="0.3"/>
<rect x="84" y="938" width="12" height="12" rx="6" fill="white" fill-opacity="0.3"/>
<rect x="119" y="938" width="12" height="12" rx="6" fill="white" fill-opacity="0.3"/>
<rect x="154" y="938" width="12" height="12" rx="6" fill="white" fill-opacity="0.3"/>
<rect x="321" y="536" width="178" height="418" rx="9" stroke="white" stroke-width="2"/>
<rect x="330" y="551" width="10" height="10" rx="5" fill="white" fill-opacity="0.3"/>
<rect width="120" height="10" transform="translate(350 551)" fill="white" fill-opacity="0.3"/>
<rect x="480" y="551" width="10" height="10" rx="5" fill="white" fill-opacity="0.3"/>
<rect width="160" height="104" transform="translate(330 575)" fill="white" fill-opacity="0.3"/>
<rect width="80" height="6" transform="translate(335 585)" fill="white" fill-opacity="0.3"/>
<rect width="20" height="6" transform="translate(465 585)" fill="white" fill-opacity="0.3"/>
<path d="M341 601V649" stroke="white" stroke-opacity="0.3"/>
<path d="M347 601V649" stroke="white" stroke-opacity="0.3"/>
<path d="M353 601V649" stroke="white" stroke-opacity="0.3"/>
<path d="M359 601V649" stroke="white" stroke-opacity="0.3"/>
<path d="M365 601V649" stroke="white" stroke-opacity="0.3"/>
<path d="M371 601V649" stroke="white" stroke-opacity="0.3"/>
<path d="M377 601V649" stroke="white" stroke-opacity="0.3"/>
<path d="M383 601V649" stroke="white" stroke-opacity="0.3"/>
<path d="M389 601V649" stroke="white" stroke-opacity="0.3"/>
<path d="M395 601V649" stroke="white" stroke-opacity="0.3"/>
<path d="M401 601V649" stroke="white" stroke-opacity="0.3"/>
<path d="M407 601V649" stroke="white" stroke-opacity="0.3"/>
<path d="M413 601V649" stroke="white" stroke-opacity="0.3"/>
<path d="M419 601V649" stroke="white" stroke-opacity="0.3"/>
<path d="M425 601V649" stroke="white" stroke-opacity="0.3"/>
<path d="M431 601V649" stroke="white" stroke-opacity="0.3"/>
<path d="M437 601V649" stroke="white" stroke-opacity="0.3"/>
<path d="M443 601V649" stroke="white" stroke-opacity="0.3"/>
<path d="M449 601V649" stroke="white" stroke-opacity="0.3"/>
<path d="M455 601V649" stroke="white" stroke-opacity="0.3"/>
<path d="M461 601V649" stroke="white" stroke-opacity="0.3"/>
<path d="M467 601V649" stroke="white" stroke-opacity="0.3"/>
<path d="M473 601V649" stroke="white" stroke-opacity="0.3"/>
<path d="M479 601V649" stroke="white" stroke-opacity="0.3"/>
<rect x="448.5" y="659.5" width="11" height="11" stroke="white" stroke-opacity="0.3"/>
<rect width="12" height="12" transform="translate(468 659)" fill="white" fill-opacity="0.3"/>
<rect width="160" height="104" transform="translate(330 687)" fill="white" fill-opacity="0.3"/>
<rect width="80" height="6" transform="translate(335 697)" fill="white" fill-opacity="0.3"/>
<rect width="20" height="6" transform="translate(465 697)" fill="white" fill-opacity="0.3"/>
<path d="M350 713V761" stroke="white" stroke-opacity="0.3" stroke-width="4"/>
<path d="M370 713V761" stroke="white" stroke-opacity="0.3" stroke-width="4"/>
<path d="M390 713V761" stroke="white" stroke-opacity="0.3" stroke-width="4"/>
<path d="M410 713V761" stroke="white" stroke-opacity="0.3" stroke-width="4"/>
<path d="M430 713V761" stroke="white" stroke-opacity="0.3" stroke-width="4"/>
<path d="M450 713V761" stroke="white" stroke-opacity="0.3" stroke-width="4"/>
<path d="M470 713V761" stroke="white" stroke-opacity="0.3" stroke-width="4"/>
<rect x="448.5" y="771.5" width="11" height="11" stroke="white" stroke-opacity="0.3"/>
<rect width="12" height="12" transform="translate(468 771)" fill="white" fill-opacity="0.3"/>
<rect width="160" height="104" transform="translate(330 799)" fill="white" fill-opacity="0.3"/>
<rect width="80" height="6" transform="translate(335 809)" fill="white" fill-opacity="0.3"/>
<rect width="20" height="6" transform="translate(465 809)" fill="white" fill-opacity="0.3"/>
<path d="M337.5 825V873" stroke="white" stroke-opacity="0.3"/>
<path d="M342.5 825V873" stroke="white" stroke-opacity="0.3"/>
<path d="M347.5 825V873" stroke="white" stroke-opacity="0.3"/>
<path d="M352.5 825V873" stroke="white" stroke-opacity="0.3"/>
<path d="M357.5 825V873" stroke="white" stroke-opacity="0.3"/>
<path d="M362.5 825V873" stroke="white" stroke-opacity="0.3"/>
<path d="M367.5 825V873" stroke="white" stroke-opacity="0.3"/>
<path d="M372.5 825V873" stroke="white" stroke-opacity="0.3"/>
<path d="M377.5 825V873" stroke="white" stroke-opacity="0.3"/>
<path d="M382.5 825V873" stroke="white" stroke-opacity="0.3"/>
<path d="M387.5 825V873" stroke="white" stroke-opacity="0.3"/>
<path d="M392.5 825V873" stroke="white" stroke-opacity="0.3"/>
<path d="M397.5 825V873" stroke="white" stroke-opacity="0.3"/>
<path d="M402.5 825V873" stroke="white" stroke-opacity="0.3"/>
<path d="M407.5 825V873" stroke="white" stroke-opacity="0.3"/>
<path d="M412.5 825V873" stroke="white" stroke-opacity="0.3"/>
<path d="M417.5 825V873" stroke="white" stroke-opacity="0.3"/>
<path d="M422.5 825V873" stroke="white" stroke-opacity="0.3"/>
<path d="M427.5 825V873" stroke="white" stroke-opacity="0.3"/>
<path d="M432.5 825V873" stroke="white" stroke-opacity="0.3"/>
<path d="M437.5 825V873" stroke="white" stroke-opacity="0.3"/>
<path d="M442.5 825V873" stroke="white" stroke-opacity="0.3"/>
<path d="M447.5 825V873" stroke="white" stroke-opacity="0.3"/>
<path d="M452.5 825V873" stroke="white" stroke-opacity="0.3"/>
<path d="M457.5 825V873" stroke="white" stroke-opacity="0.3"/>
<path d="M462.5 825V873" stroke="white" stroke-opacity="0.3"/>
<path d="M467.5 825V873" stroke="white" stroke-opacity="0.3"/>
<path d="M472.5 825V873" stroke="white" stroke-opacity="0.3"/>
<path d="M477.5 825V873" stroke="white" stroke-opacity="0.3"/>
<path d="M482.5 825V873" stroke="white" stroke-opacity="0.3"/>
<rect x="448.5" y="883.5" width="11" height="11" stroke="white" stroke-opacity="0.3"/>
<rect width="12" height="12" transform="translate(468 883)" fill="white" fill-opacity="0.3"/>
<rect x="335.5" y="915.5" width="69" height="17" stroke="white" stroke-opacity="0.3"/>
<rect width="70" height="18" transform="translate(415 915)" fill="white" fill-opacity="0.3"/>
<rect x="641" y="546" width="178" height="398" rx="9" stroke="white" stroke-width="2"/>
<rect width="160" height="55" transform="translate(650 585)" fill="white" fill-opacity="0.3"/>
<rect width="120" height="10" transform="translate(670 595)" fill="white" fill-opacity="0.3"/>
<rect width="140" height="4" transform="translate(660 610)" fill="white" fill-opacity="0.25"/>
<rect width="140" height="4" transform="translate(660 617)" fill="white" fill-opacity="0.25"/>
<rect width="140" height="4" transform="translate(660 624)" fill="white" fill-opacity="0.25"/>
<rect x="650" y="561" width="10" height="10" rx="5" fill="white" fill-opacity="0.3"/>
<rect width="120" height="10" transform="translate(670 561)" fill="white" fill-opacity="0.3"/>
<rect x="800" y="561" width="10" height="10" rx="5" fill="white" fill-opacity="0.3"/>
<rect width="159" height="35" transform="translate(650 650)" fill="white" fill-opacity="0.3"/>
<rect width="80" height="10" transform="translate(655 655)" fill="white" fill-opacity="0.3"/>
<rect x="794" y="655" width="10" height="10" rx="5" fill="white" fill-opacity="0.3"/>
<rect width="110" height="4" transform="translate(655 669)" fill="white" fill-opacity="0.25"/>
<rect width="110" height="4" transform="translate(655 676)" fill="white" fill-opacity="0.25"/>
<rect width="159" height="35" transform="translate(650 690)" fill="white" fill-opacity="0.3"/>
<rect width="80" height="10" transform="translate(655 695)" fill="white" fill-opacity="0.3"/>
<rect x="794" y="695" width="10" height="10" rx="5" fill="white" fill-opacity="0.3"/>
<rect width="110" height="4" transform="translate(655 709)" fill="white" fill-opacity="0.25"/>
<rect width="110" height="4" transform="translate(655 716)" fill="white" fill-opacity="0.25"/>
<rect width="159" height="35" transform="translate(650 730)" fill="white" fill-opacity="0.3"/>
<rect width="80" height="10" transform="translate(655 735)" fill="white" fill-opacity="0.3"/>
<rect x="794" y="735" width="10" height="10" rx="5" fill="white" fill-opacity="0.3"/>
<rect width="110" height="4" transform="translate(655 749)" fill="white" fill-opacity="0.25"/>
<rect width="110" height="4" transform="translate(655 756)" fill="white" fill-opacity="0.25"/>
<rect width="159" height="35" transform="translate(650 770)" fill="white" fill-opacity="0.3"/>
<rect width="80" height="10" transform="translate(655 775)" fill="white" fill-opacity="0.3"/>
<rect x="794" y="775" width="10" height="10" rx="5" fill="white" fill-opacity="0.3"/>
<rect width="110" height="4" transform="translate(655 789)" fill="white" fill-opacity="0.25"/>
<rect width="110" height="4" transform="translate(655 796)" fill="white" fill-opacity="0.25"/>
<rect width="159" height="35" transform="translate(650 810)" fill="white" fill-opacity="0.3"/>
<rect width="80" height="10" transform="translate(655 815)" fill="white" fill-opacity="0.3"/>
<rect x="794" y="815" width="10" height="10" rx="5" fill="white" fill-opacity="0.3"/>
<rect width="110" height="4" transform="translate(655 829)" fill="white" fill-opacity="0.25"/>
<rect width="110" height="4" transform="translate(655 836)" fill="white" fill-opacity="0.25"/>
<rect width="159" height="35" transform="translate(650 850)" fill="white" fill-opacity="0.3"/>
<rect width="80" height="10" transform="translate(655 855)" fill="white" fill-opacity="0.3"/>
<rect x="794" y="855" width="10" height="10" rx="5" fill="white" fill-opacity="0.3"/>
<rect width="110" height="4" transform="translate(655 869)" fill="white" fill-opacity="0.25"/>
<rect width="110" height="4" transform="translate(655 876)" fill="white" fill-opacity="0.25"/>
<rect width="159" height="35" transform="translate(650 890)" fill="white" fill-opacity="0.3"/>
<rect width="80" height="10" transform="translate(655 895)" fill="white" fill-opacity="0.3"/>
<rect x="794" y="895" width="10" height="10" rx="5" fill="white" fill-opacity="0.3"/>
<rect width="110" height="4" transform="translate(655 909)" fill="white" fill-opacity="0.25"/>
<rect width="110" height="4" transform="translate(655 916)" fill="white" fill-opacity="0.25"/>
<rect x="961" y="566" width="178" height="358" rx="9" stroke="white" stroke-width="2"/>
<rect width="120" height="10" transform="translate(990 615)" fill="white" fill-opacity="0.3"/>
<rect width="160" height="55" transform="translate(970 635)" fill="white" fill-opacity="0.3"/>
<rect width="120" height="10" transform="translate(980 645)" fill="white" fill-opacity="0.3"/>
<rect width="140" height="4" transform="translate(980 660)" fill="white" fill-opacity="0.25"/>
<rect width="140" height="4" transform="translate(980 667)" fill="white" fill-opacity="0.25"/>
<rect width="140" height="4" transform="translate(980 674)" fill="white" fill-opacity="0.25"/>
<rect width="160" height="55" transform="translate(970 700)" fill="white" fill-opacity="0.3"/>
<rect width="120" height="10" transform="translate(990 722.5)" fill="white" fill-opacity="0.3"/>
<rect width="140" height="4" transform="translate(980 710)" fill="white" fill-opacity="0.25"/>
<rect width="140" height="4" transform="translate(980 820)" fill="white" fill-opacity="0.25"/>
<rect x="975" y="765" width="30" height="30" rx="15" fill="white" fill-opacity="0.3"/>
<rect x="1015" y="765" width="30" height="30" rx="15" fill="white" fill-opacity="0.3"/>
<rect x="1055" y="765" width="30" height="30" rx="15" fill="white" fill-opacity="0.3"/>
<rect x="1095" y="765" width="30" height="30" rx="15" fill="white" fill-opacity="0.3"/>
<rect x="970" y="581" width="10" height="10" rx="5" fill="white" fill-opacity="0.3"/>
<rect width="120" height="10" transform="translate(990 581)" fill="white" fill-opacity="0.3"/>
<rect x="1120" y="581" width="10" height="10" rx="5" fill="white" fill-opacity="0.3"/>
<rect width="120" height="18" transform="translate(990 848)" fill="white" fill-opacity="0.3"/>
<rect x="1281" y="536" width="178" height="418" rx="9" stroke="white" stroke-width="2"/>
<rect x="1290" y="551" width="10" height="10" rx="5" fill="white" fill-opacity="0.3"/>
<rect width="120" height="10" transform="translate(1310 551)" fill="white" fill-opacity="0.3"/>
<rect x="1440" y="551" width="10" height="10" rx="5" fill="white" fill-opacity="0.3"/>
<rect width="160" height="104" transform="translate(1290 575)" fill="white" fill-opacity="0.3"/>
<rect width="80" height="6" transform="translate(1295 585)" fill="white" fill-opacity="0.3"/>
<rect width="20" height="6" transform="translate(1425 585)" fill="white" fill-opacity="0.3"/>
<rect x="1408.5" y="659.5" width="11" height="11" stroke="white" stroke-opacity="0.3"/>
<rect width="12" height="12" transform="translate(1428 659)" fill="white" fill-opacity="0.3"/>
<path d="M1304.81 643.907L1316.17 611.35L1337.37 643.907L1358.95 608.699L1390 629.9L1413.09 611.35L1435.8 619.299" stroke="white" stroke-opacity="0.5"/>
<path d="M1310.48 647.207L1316.33 624.901L1342.82 642.188L1363.18 614.306L1396.64 629.642L1421.17 610.403L1432.32 620.998" stroke="white" stroke-opacity="0.5"/>
<path d="M1315.5 644.141L1324.14 612.633L1351.19 641.352L1369.03 609.566L1408.07 626.016L1429.26 609.566L1440.97 626.016" stroke="white" stroke-opacity="0.5"/>
<rect width="160" height="104" transform="translate(1290 687)" fill="white" fill-opacity="0.3"/>
<rect width="80" height="6" transform="translate(1295 697)" fill="white" fill-opacity="0.3"/>
<rect width="20" height="6" transform="translate(1425 697)" fill="white" fill-opacity="0.3"/>
<rect x="1408.5" y="771.5" width="11" height="11" stroke="white" stroke-opacity="0.3"/>
<rect width="12" height="12" transform="translate(1428 771)" fill="white" fill-opacity="0.3"/>
<path d="M1304.81 755.907L1316.17 723.35L1337.37 755.907L1358.95 720.699L1390 741.9L1413.09 723.35L1435.8 731.299" stroke="white" stroke-opacity="0.5"/>
<path d="M1310.48 759.207L1316.33 736.902L1342.82 754.189L1363.18 726.306L1396.64 741.642L1421.17 722.403L1432.32 732.998" stroke="white" stroke-opacity="0.5"/>
<path d="M1315.5 756.141L1324.14 724.633L1351.19 753.352L1369.03 721.566L1408.07 738.017L1429.26 721.566L1440.97 738.017" stroke="white" stroke-opacity="0.5"/>
<rect width="160" height="104" transform="translate(1290 799)" fill="white" fill-opacity="0.3"/>
<rect width="80" height="6" transform="translate(1295 809)" fill="white" fill-opacity="0.3"/>
<rect width="20" height="6" transform="translate(1425 809)" fill="white" fill-opacity="0.3"/>
<rect x="1408.5" y="883.5" width="11" height="11" stroke="white" stroke-opacity="0.3"/>
<rect width="12" height="12" transform="translate(1428 883)" fill="white" fill-opacity="0.3"/>
<path d="M1304.81 867.907L1316.17 835.35L1337.37 867.907L1358.95 832.699L1390 853.9L1413.09 835.35L1435.8 843.299" stroke="white" stroke-opacity="0.5"/>
<path d="M1310.48 871.207L1316.33 848.902L1342.82 866.189L1363.18 838.306L1396.64 853.642L1421.17 834.403L1432.32 844.998" stroke="white" stroke-opacity="0.5"/>
<path d="M1315.5 868.141L1324.14 836.633L1351.19 865.352L1369.03 833.566L1408.07 850.017L1429.26 833.566L1440.97 850.017" stroke="white" stroke-opacity="0.5"/>
<rect width="120" height="18" transform="translate(1310 915)" fill="white" fill-opacity="0.3"/>
<rect x="1" y="1096" width="178" height="358" rx="9" stroke="white" stroke-width="2"/>
<rect x="10" y="1111" width="10" height="10" rx="5" fill="white" fill-opacity="0.3"/>
<rect width="120" height="10" transform="translate(30 1111)" fill="white" fill-opacity="0.3"/>
<rect x="160" y="1111" width="10" height="10" rx="5" fill="white" fill-opacity="0.3"/>
<rect width="160" height="30" transform="translate(10 1135)" fill="white" fill-opacity="0.3"/>
<rect width="75" height="5" transform="translate(50 1143)" fill="white" fill-opacity="0.25"/>
<rect width="100" height="2" transform="translate(50 1153)" fill="white" fill-opacity="0.25"/>
<rect x="15" y="1140" width="20" height="20" rx="10" fill="white" fill-opacity="0.3"/>
<rect width="160" height="30" transform="translate(10 1175)" fill="white" fill-opacity="0.3"/>
<rect width="75" height="5" transform="translate(50 1183)" fill="white" fill-opacity="0.25"/>
<rect width="100" height="2" transform="translate(50 1193)" fill="white" fill-opacity="0.25"/>
<rect x="15" y="1180" width="20" height="20" rx="10" fill="white" fill-opacity="0.3"/>
<rect width="160" height="30" transform="translate(10 1215)" fill="white" fill-opacity="0.3"/>
<rect width="75" height="5" transform="translate(50 1223)" fill="white" fill-opacity="0.25"/>
<rect width="100" height="2" transform="translate(50 1233)" fill="white" fill-opacity="0.25"/>
<rect x="15" y="1220" width="20" height="20" rx="10" fill="white" fill-opacity="0.3"/>
<rect width="160" height="30" transform="translate(10 1255)" fill="white" fill-opacity="0.3"/>
<rect width="75" height="5" transform="translate(50 1263)" fill="white" fill-opacity="0.25"/>
<rect width="100" height="2" transform="translate(50 1273)" fill="white" fill-opacity="0.25"/>
<rect x="15" y="1260" width="20" height="20" rx="10" fill="white" fill-opacity="0.3"/>
<rect width="160" height="30" transform="translate(10 1295)" fill="white" fill-opacity="0.3"/>
<rect width="75" height="5" transform="translate(50 1303)" fill="white" fill-opacity="0.25"/>
<rect width="100" height="2" transform="translate(50 1313)" fill="white" fill-opacity="0.25"/>
<rect x="15" y="1300" width="20" height="20" rx="10" fill="white" fill-opacity="0.3"/>
<rect x="14" y="1433" width="12" height="12" rx="6" fill="white" fill-opacity="0.3"/>
<rect x="49" y="1433" width="12" height="12" rx="6" fill="white" fill-opacity="0.3"/>
<rect x="84" y="1433" width="12" height="12" rx="6" fill="white" fill-opacity="0.3"/>
<rect x="119" y="1433" width="12" height="12" rx="6" fill="white" fill-opacity="0.3"/>
<rect x="154" y="1433" width="12" height="12" rx="6" fill="white" fill-opacity="0.3"/>
<rect x="321" y="1096" width="178" height="358" rx="9" stroke="white" stroke-width="2"/>
<rect x="330" y="1111" width="10" height="10" rx="5" fill="white" fill-opacity="0.3"/>
<rect width="120" height="10" transform="translate(350 1111)" fill="white" fill-opacity="0.3"/>
<rect x="480" y="1111" width="10" height="10" rx="5" fill="white" fill-opacity="0.3"/>
<rect width="180" height="140" transform="translate(320 1095)" fill="white" fill-opacity="0.3"/>
<rect width="110" height="10" transform="translate(330 1245)" fill="white" fill-opacity="0.25"/>
<rect width="75" height="3" transform="translate(330 1263)" fill="white" fill-opacity="0.25"/>
<rect width="75" height="3" transform="translate(415 1263)" fill="white" fill-opacity="0.25"/>
<rect width="75" height="3" transform="translate(330 1269)" fill="white" fill-opacity="0.25"/>
<rect width="75" height="3" transform="translate(415 1269)" fill="white" fill-opacity="0.25"/>
<rect width="75" height="3" transform="translate(330 1275)" fill="white" fill-opacity="0.25"/>
<rect width="75" height="3" transform="translate(415 1275)" fill="white" fill-opacity="0.25"/>
<rect width="75" height="3" transform="translate(330 1281)" fill="white" fill-opacity="0.25"/>
<rect width="75" height="3" transform="translate(415 1281)" fill="white" fill-opacity="0.25"/>
<rect width="75" height="3" transform="translate(330 1287)" fill="white" fill-opacity="0.25"/>
<rect width="75" height="3" transform="translate(415 1287)" fill="white" fill-opacity="0.25"/>
<rect width="110" height="10" transform="translate(330 1298)" fill="white" fill-opacity="0.25"/>
<rect width="75" height="3" transform="translate(330 1316)" fill="white" fill-opacity="0.25"/>
<rect width="75" height="3" transform="translate(415 1316)" fill="white" fill-opacity="0.25"/>
<rect width="75" height="3" transform="translate(330 1322)" fill="white" fill-opacity="0.25"/>
<rect width="75" height="3" transform="translate(415 1322)" fill="white" fill-opacity="0.25"/>
<rect width="75" height="3" transform="translate(330 1328)" fill="white" fill-opacity="0.25"/>
<rect width="75" height="3" transform="translate(415 1328)" fill="white" fill-opacity="0.25"/>
<rect width="75" height="3" transform="translate(330 1334)" fill="white" fill-opacity="0.25"/>
<rect width="75" height="3" transform="translate(415 1334)" fill="white" fill-opacity="0.25"/>
<rect width="75" height="3" transform="translate(330 1340)" fill="white" fill-opacity="0.25"/>
<rect width="75" height="3" transform="translate(415 1340)" fill="white" fill-opacity="0.25"/>
<rect width="120" height="18" transform="translate(350 1427)" fill="white" fill-opacity="0.3"/>
<rect x="641" y="1096" width="178" height="358" rx="9" stroke="white" stroke-width="2"/>
<rect x="650" y="1111" width="10" height="10" rx="5" fill="white" fill-opacity="0.3"/>
<rect width="120" height="10" transform="translate(670 1111)" fill="white" fill-opacity="0.3"/>
<rect x="800" y="1111" width="10" height="10" rx="5" fill="white" fill-opacity="0.3"/>
<rect width="180" height="140" transform="translate(640 1095)" fill="white" fill-opacity="0.3"/>
<rect width="120" height="18" transform="translate(670 1427)" fill="white" fill-opacity="0.3"/>
<rect x="650.5" y="1244.5" width="159" height="15" stroke="white" stroke-opacity="0.3"/>
<rect x="650.5" y="1265.5" width="159" height="15" stroke="white" stroke-opacity="0.3"/>
<rect x="650.5" y="1286.5" width="159" height="15" stroke="white" stroke-opacity="0.3"/>
<rect x="650.5" y="1307.5" width="159" height="15" stroke="white" stroke-opacity="0.3"/>
<rect x="650.5" y="1328.5" width="159" height="15" stroke="white" stroke-opacity="0.3"/>
<rect x="650.5" y="1349.5" width="159" height="15" stroke="white" stroke-opacity="0.3"/>
<rect x="650.5" y="1370.5" width="159" height="15" stroke="white" stroke-opacity="0.3"/>
<rect x="650.5" y="1391.5" width="159" height="15" stroke="white" stroke-opacity="0.3"/>
<rect x="961" y="1096" width="178" height="358" rx="9" stroke="white" stroke-width="2"/>
<rect x="970" y="1111" width="10" height="10" rx="5" fill="white" fill-opacity="0.3"/>
<rect width="120" height="10" transform="translate(990 1111)" fill="white" fill-opacity="0.3"/>
<rect x="1120" y="1111" width="10" height="10" rx="5" fill="white" fill-opacity="0.3"/>
<rect x="990" y="1135" width="120" height="120" rx="60" fill="white" fill-opacity="0.3"/>
<rect width="120" height="18" transform="translate(990 1275)" fill="white" fill-opacity="0.3"/>
<rect x="990.5" y="1303.5" width="119" height="15" stroke="white" stroke-opacity="0.3"/>
<rect x="990.5" y="1331.5" width="119" height="15" stroke="white" stroke-opacity="0.3"/>
<rect width="110" height="10" transform="translate(970 1363)" fill="white" fill-opacity="0.25"/>
<rect width="160" height="3" transform="translate(970 1376)" fill="white" fill-opacity="0.25"/>
<rect width="160" height="3" transform="translate(970 1382)" fill="white" fill-opacity="0.25"/>
<rect width="160" height="3" transform="translate(970 1388)" fill="white" fill-opacity="0.25"/>
<rect width="160" height="3" transform="translate(970 1394)" fill="white" fill-opacity="0.25"/>
<rect width="160" height="3" transform="translate(970 1400)" fill="white" fill-opacity="0.25"/>
<rect x="1281" y="1096" width="178" height="358" rx="9" stroke="white" stroke-width="2"/>
<rect x="1290" y="1111" width="10" height="10" rx="5" fill="white" fill-opacity="0.3"/>
<rect width="120" height="10" transform="translate(1310 1111)" fill="white" fill-opacity="0.3"/>
<rect x="1440" y="1111" width="10" height="10" rx="5" fill="white" fill-opacity="0.3"/>
<rect width="120" height="18" transform="translate(1310 1406)" fill="white" fill-opacity="0.3"/>
<rect width="160" height="30" transform="translate(1290.5 1135)" fill="white" fill-opacity="0.3"/>
<rect width="75" height="5" transform="translate(1330.5 1143)" fill="white" fill-opacity="0.25"/>
<rect width="100" height="2" transform="translate(1330.5 1153)" fill="white" fill-opacity="0.25"/>
<rect x="1295.5" y="1140" width="20" height="20" rx="10" fill="white" fill-opacity="0.3"/>
<rect width="160" height="30" transform="translate(1290.5 1175)" fill="white" fill-opacity="0.3"/>
<rect width="75" height="5" transform="translate(1330.5 1183)" fill="white" fill-opacity="0.25"/>
<rect width="100" height="2" transform="translate(1330.5 1193)" fill="white" fill-opacity="0.25"/>
<rect x="1295.5" y="1180" width="20" height="20" rx="10" fill="white" fill-opacity="0.3"/>
<rect width="160" height="30" transform="translate(1290.5 1215)" fill="white" fill-opacity="0.3"/>
<rect width="75" height="5" transform="translate(1330.5 1223)" fill="white" fill-opacity="0.25"/>
<rect width="100" height="2" transform="translate(1330.5 1233)" fill="white" fill-opacity="0.25"/>
<rect x="1295.5" y="1220" width="20" height="20" rx="10" fill="white" fill-opacity="0.3"/>
<rect width="160" height="30" transform="translate(1290.5 1255)" fill="white" fill-opacity="0.3"/>
<rect width="75" height="5" transform="translate(1330.5 1263)" fill="white" fill-opacity="0.25"/>
<rect width="100" height="2" transform="translate(1330.5 1273)" fill="white" fill-opacity="0.25"/>
<rect x="1295.5" y="1260" width="20" height="20" rx="10" fill="white" fill-opacity="0.3"/>
<defs>
<clipPath id="clip0_31_11966">
<rect x="320" width="180" height="390" rx="10" fill="white"/>
</clipPath>
<clipPath id="clip1_31_11966">
<rect x="640" width="180" height="390" rx="10" fill="white"/>
</clipPath>
<clipPath id="clip2_31_11966">
<rect x="960" width="180" height="390" rx="10" fill="white"/>
</clipPath>
<clipPath id="clip3_31_11966">
<rect width="160" height="45" fill="white" transform="translate(10 780)"/>
</clipPath>
<clipPath id="clip4_31_11966">
<rect width="160" height="45" fill="white" transform="translate(10 830)"/>
</clipPath>
<clipPath id="clip5_31_11966">
<rect width="160" height="45" fill="white" transform="translate(10 880)"/>
</clipPath>
<clipPath id="clip6_31_11966">
<rect width="160" height="95" fill="white" transform="translate(10 625)"/>
</clipPath>
</defs>
</svg>
