<svg width="1460" height="1460" viewBox="0 0 1460 1460" fill="none" xmlns="http://www.w3.org/2000/svg">
<rect x="1" y="1" width="178" height="398" rx="9" stroke="white" stroke-width="2"/>
<rect x="10" y="16" width="10" height="10" rx="5" fill="white" fill-opacity="0.3"/>
<rect width="120" height="10" transform="translate(30 16)" fill="white" fill-opacity="0.3"/>
<rect x="160" y="16" width="10" height="10" rx="5" fill="white" fill-opacity="0.3"/>
<rect x="14" y="378" width="12" height="12" rx="6" fill="white" fill-opacity="0.3"/>
<rect x="49" y="378" width="12" height="12" rx="6" fill="white" fill-opacity="0.3"/>
<rect x="84" y="378" width="12" height="12" rx="6" fill="white" fill-opacity="0.3"/>
<rect x="119" y="378" width="12" height="12" rx="6" fill="white" fill-opacity="0.3"/>
<rect x="154" y="378" width="12" height="12" rx="6" fill="white" fill-opacity="0.3"/>
<rect width="50" height="10" transform="translate(10 40)" fill="white" fill-opacity="0.3"/>
<rect width="50" height="10" transform="translate(65 40)" fill="white" fill-opacity="0.3"/>
<rect width="50" height="10" transform="translate(120 40)" fill="white" fill-opacity="0.3"/>
<rect width="160" height="50" transform="translate(10 60)" fill="white" fill-opacity="0.3"/>
<rect width="80" height="10" transform="translate(20 86)" fill="white" fill-opacity="0.3"/>
<rect width="65" height="4" transform="translate(20 101)" fill="white" fill-opacity="0.25"/>
<rect width="65" height="4" transform="translate(95 101)" fill="white" fill-opacity="0.25"/>
<rect width="10" height="10" transform="translate(150 65)" fill="white" fill-opacity="0.3"/>
<rect width="160" height="50" transform="translate(10 120)" fill="white" fill-opacity="0.3"/>
<rect width="80" height="10" transform="translate(20 146)" fill="white" fill-opacity="0.3"/>
<rect width="65" height="4" transform="translate(20 161)" fill="white" fill-opacity="0.25"/>
<rect width="65" height="4" transform="translate(95 161)" fill="white" fill-opacity="0.25"/>
<rect width="10" height="10" transform="translate(150 125)" fill="white" fill-opacity="0.3"/>
<rect width="160" height="50" transform="translate(10 180)" fill="white" fill-opacity="0.3"/>
<rect width="80" height="10" transform="translate(20 206)" fill="white" fill-opacity="0.3"/>
<rect width="65" height="4" transform="translate(20 221)" fill="white" fill-opacity="0.25"/>
<rect width="65" height="4" transform="translate(95 221)" fill="white" fill-opacity="0.25"/>
<rect width="10" height="10" transform="translate(150 185)" fill="white" fill-opacity="0.3"/>
<rect width="160" height="50" transform="translate(10 240)" fill="white" fill-opacity="0.3"/>
<rect width="80" height="10" transform="translate(20 266)" fill="white" fill-opacity="0.3"/>
<rect width="65" height="4" transform="translate(20 281)" fill="white" fill-opacity="0.25"/>
<rect width="65" height="4" transform="translate(95 281)" fill="white" fill-opacity="0.25"/>
<rect width="10" height="10" transform="translate(150 245)" fill="white" fill-opacity="0.3"/>
<rect width="160" height="50" transform="translate(10 300)" fill="white" fill-opacity="0.3"/>
<rect width="80" height="10" transform="translate(20 326)" fill="white" fill-opacity="0.3"/>
<rect width="65" height="4" transform="translate(20 341)" fill="white" fill-opacity="0.25"/>
<rect width="65" height="4" transform="translate(95 341)" fill="white" fill-opacity="0.25"/>
<rect width="10" height="10" transform="translate(150 305)" fill="white" fill-opacity="0.3"/>
<rect x="321" y="1" width="178" height="398" rx="9" stroke="white" stroke-width="2"/>
<rect x="330" y="16" width="10" height="10" rx="5" fill="white" fill-opacity="0.3"/>
<rect width="120" height="10" transform="translate(350 16)" fill="white" fill-opacity="0.3"/>
<rect x="480" y="16" width="10" height="10" rx="5" fill="white" fill-opacity="0.3"/>
<rect x="334" y="378" width="12" height="12" rx="6" fill="white" fill-opacity="0.3"/>
<rect x="369" y="378" width="12" height="12" rx="6" fill="white" fill-opacity="0.3"/>
<rect x="404" y="378" width="12" height="12" rx="6" fill="white" fill-opacity="0.3"/>
<rect x="439" y="378" width="12" height="12" rx="6" fill="white" fill-opacity="0.3"/>
<rect x="474" y="378" width="12" height="12" rx="6" fill="white" fill-opacity="0.3"/>
<rect width="50" height="10" transform="translate(330 40)" fill="white" fill-opacity="0.3"/>
<rect width="50" height="10" transform="translate(385 40)" fill="white" fill-opacity="0.3"/>
<rect width="50" height="10" transform="translate(440 40)" fill="white" fill-opacity="0.3"/>
<rect width="75" height="90" transform="translate(330 60)" fill="white" fill-opacity="0.3"/>
<rect width="33" height="10" transform="translate(335 121)" fill="white" fill-opacity="0.3"/>
<rect width="30" height="4" transform="translate(335 136)" fill="white" fill-opacity="0.25"/>
<rect width="30" height="4" transform="translate(370 136)" fill="white" fill-opacity="0.25"/>
<rect width="10" height="10" transform="translate(390 65)" fill="white" fill-opacity="0.3"/>
<rect width="75" height="90" transform="translate(330 160)" fill="white" fill-opacity="0.3"/>
<rect width="33" height="10" transform="translate(335 221)" fill="white" fill-opacity="0.3"/>
<rect width="30" height="4" transform="translate(335 236)" fill="white" fill-opacity="0.25"/>
<rect width="30" height="4" transform="translate(370 236)" fill="white" fill-opacity="0.25"/>
<rect width="10" height="10" transform="translate(390 165)" fill="white" fill-opacity="0.3"/>
<rect width="75" height="90" transform="translate(330 260)" fill="white" fill-opacity="0.3"/>
<rect width="33" height="10" transform="translate(335 321)" fill="white" fill-opacity="0.3"/>
<rect width="30" height="4" transform="translate(335 336)" fill="white" fill-opacity="0.25"/>
<rect width="30" height="4" transform="translate(370 336)" fill="white" fill-opacity="0.25"/>
<rect width="10" height="10" transform="translate(390 265)" fill="white" fill-opacity="0.3"/>
<rect width="75" height="90" transform="translate(415 60)" fill="white" fill-opacity="0.3"/>
<rect width="33" height="10" transform="translate(420 121)" fill="white" fill-opacity="0.3"/>
<rect width="30" height="4" transform="translate(420 136)" fill="white" fill-opacity="0.25"/>
<rect width="30" height="4" transform="translate(455 136)" fill="white" fill-opacity="0.25"/>
<rect width="10" height="10" transform="translate(475 65)" fill="white" fill-opacity="0.3"/>
<rect width="75" height="90" transform="translate(415 160)" fill="white" fill-opacity="0.3"/>
<rect width="33" height="10" transform="translate(420 221)" fill="white" fill-opacity="0.3"/>
<rect width="30" height="4" transform="translate(420 236)" fill="white" fill-opacity="0.25"/>
<rect width="30" height="4" transform="translate(455 236)" fill="white" fill-opacity="0.25"/>
<rect width="10" height="10" transform="translate(475 165)" fill="white" fill-opacity="0.3"/>
<rect width="75" height="90" transform="translate(415 260)" fill="white" fill-opacity="0.3"/>
<rect width="33" height="10" transform="translate(420 321)" fill="white" fill-opacity="0.3"/>
<rect width="30" height="4" transform="translate(420 336)" fill="white" fill-opacity="0.25"/>
<rect width="30" height="4" transform="translate(455 336)" fill="white" fill-opacity="0.25"/>
<rect width="10" height="10" transform="translate(475 265)" fill="white" fill-opacity="0.3"/>
<rect x="641" y="21" width="178" height="358" rx="9" stroke="white" stroke-width="2"/>
<rect width="180" height="140" transform="translate(640 20)" fill="white" fill-opacity="0.3"/>
<rect x="650" y="36" width="10" height="10" rx="5" fill="white" fill-opacity="0.3"/>
<rect width="120" height="10" transform="translate(670 36)" fill="white" fill-opacity="0.3"/>
<rect x="800" y="36" width="10" height="10" rx="5" fill="white" fill-opacity="0.3"/>
<rect width="45" height="10" transform="translate(652.5 138)" fill="white" fill-opacity="0.25"/>
<rect width="45" height="10" transform="translate(707.5 138)" fill="white" fill-opacity="0.3"/>
<rect width="45" height="10" transform="translate(762.5 138)" fill="white" fill-opacity="0.25"/>
<rect width="160" height="3" transform="translate(650 170)" fill="white" fill-opacity="0.25"/>
<rect width="160" height="3" transform="translate(650 176)" fill="white" fill-opacity="0.25"/>
<rect width="160" height="3" transform="translate(650 182)" fill="white" fill-opacity="0.25"/>
<rect width="160" height="3" transform="translate(650 188)" fill="white" fill-opacity="0.25"/>
<rect width="160" height="3" transform="translate(650 194)" fill="white" fill-opacity="0.25"/>
<rect width="160" height="3" transform="translate(650 200)" fill="white" fill-opacity="0.25"/>
<rect width="110" height="10" transform="translate(650 208)" fill="white" fill-opacity="0.25"/>
<rect width="160" height="3" transform="translate(650 221)" fill="white" fill-opacity="0.25"/>
<rect width="160" height="3" transform="translate(650 227)" fill="white" fill-opacity="0.25"/>
<rect width="160" height="3" transform="translate(650 233)" fill="white" fill-opacity="0.25"/>
<rect width="160" height="3" transform="translate(650 239)" fill="white" fill-opacity="0.25"/>
<rect width="160" height="3" transform="translate(650 245)" fill="white" fill-opacity="0.25"/>
<rect width="110" height="10" transform="translate(650 253)" fill="white" fill-opacity="0.25"/>
<rect width="160" height="3" transform="translate(650 266)" fill="white" fill-opacity="0.25"/>
<rect width="160" height="3" transform="translate(650 272)" fill="white" fill-opacity="0.25"/>
<rect width="160" height="3" transform="translate(650 278)" fill="white" fill-opacity="0.25"/>
<rect width="160" height="3" transform="translate(650 284)" fill="white" fill-opacity="0.25"/>
<rect width="160" height="3" transform="translate(650 290)" fill="white" fill-opacity="0.25"/>
<rect width="110" height="10" transform="translate(650 298)" fill="white" fill-opacity="0.25"/>
<rect width="160" height="3" transform="translate(650 311)" fill="white" fill-opacity="0.25"/>
<rect width="160" height="3" transform="translate(650 317)" fill="white" fill-opacity="0.25"/>
<rect width="160" height="3" transform="translate(650 323)" fill="white" fill-opacity="0.25"/>
<rect width="160" height="3" transform="translate(650 329)" fill="white" fill-opacity="0.25"/>
<rect width="160" height="3" transform="translate(650 335)" fill="white" fill-opacity="0.25"/>
<rect x="655.5" y="348.5" width="69" height="17" stroke="white" stroke-opacity="0.3"/>
<rect width="70" height="18" transform="translate(735 348)" fill="white" fill-opacity="0.3"/>
<rect width="10" height="9" transform="translate(800 51.5)" fill="white" fill-opacity="0.3"/>
<rect x="961" y="21" width="178" height="358" rx="9" stroke="white" stroke-width="2"/>
<rect x="970" y="36" width="10" height="10" rx="5" fill="white" fill-opacity="0.3"/>
<rect width="120" height="10" transform="translate(990 36)" fill="white" fill-opacity="0.3"/>
<rect x="1120" y="36" width="10" height="10" rx="5" fill="white" fill-opacity="0.3"/>
<rect width="160" height="50" transform="translate(970 60)" fill="white" fill-opacity="0.3"/>
<rect width="80" height="10" transform="translate(975 65)" fill="white" fill-opacity="0.3"/>
<rect width="100" height="4" transform="translate(975 80)" fill="white" fill-opacity="0.25"/>
<rect width="140" height="4" transform="translate(975 89)" fill="white" fill-opacity="0.25"/>
<rect width="140" height="4" transform="translate(975 98)" fill="white" fill-opacity="0.25"/>
<rect width="30" height="10" transform="translate(1095 65)" fill="white" fill-opacity="0.3"/>
<rect width="160" height="70" transform="translate(970 120)" fill="white" fill-opacity="0.3"/>
<rect width="80" height="10" transform="translate(975 125)" fill="white" fill-opacity="0.3"/>
<rect width="60" height="4" transform="translate(1065 170)" fill="white" fill-opacity="0.25"/>
<rect x="975.5" y="144.5" width="69" height="14" stroke="white" stroke-opacity="0.3"/>
<rect x="975.5" y="164.5" width="69" height="14" stroke="white" stroke-opacity="0.3"/>
<rect width="160" height="70" transform="translate(970 195)" fill="white" fill-opacity="0.3"/>
<rect width="80" height="10" transform="translate(975 200)" fill="white" fill-opacity="0.3"/>
<rect width="60" height="4" transform="translate(1065 245)" fill="white" fill-opacity="0.25"/>
<rect x="975.5" y="219.5" width="69" height="14" stroke="white" stroke-opacity="0.3"/>
<rect x="975.5" y="239.5" width="69" height="14" stroke="white" stroke-opacity="0.3"/>
<rect width="160" height="65" transform="translate(970 275)" fill="white" fill-opacity="0.3"/>
<rect width="80" height="8" transform="translate(1045 285)" fill="white" fill-opacity="0.3"/>
<rect width="80" height="8" transform="translate(1045 298)" fill="white" fill-opacity="0.3"/>
<rect width="80" height="8" transform="translate(1045 311)" fill="white" fill-opacity="0.3"/>
<rect width="80" height="8" transform="translate(1045 324)" fill="white" fill-opacity="0.3"/>
<rect width="60" height="5" transform="translate(980 286.5)" fill="white" fill-opacity="0.25"/>
<rect width="60" height="5" transform="translate(980 299.5)" fill="white" fill-opacity="0.25"/>
<rect width="60" height="5" transform="translate(980 312.5)" fill="white" fill-opacity="0.25"/>
<rect width="60" height="5" transform="translate(980 325.5)" fill="white" fill-opacity="0.25"/>
<rect width="120" height="18" transform="translate(990 352)" fill="white" fill-opacity="0.3"/>
<rect x="1281" y="21" width="178" height="358" rx="9" stroke="white" stroke-width="2"/>
<rect x="1290" y="36" width="10" height="10" rx="5" fill="white" fill-opacity="0.3"/>
<rect width="120" height="10" transform="translate(1310 36)" fill="white" fill-opacity="0.3"/>
<rect x="1440" y="36" width="10" height="10" rx="5" fill="white" fill-opacity="0.3"/>
<rect width="120" height="18" transform="translate(1310 324)" fill="white" fill-opacity="0.3"/>
<rect x="1290.5" y="60.5" width="159" height="15" stroke="white" stroke-opacity="0.3"/>
<rect x="1290.5" y="81.5" width="159" height="15" stroke="white" stroke-opacity="0.3"/>
<rect x="1290.5" y="102.5" width="159" height="15" stroke="white" stroke-opacity="0.3"/>
<rect x="1290.5" y="123.5" width="159" height="15" stroke="white" stroke-opacity="0.3"/>
<rect x="1290.5" y="144.5" width="159" height="15" stroke="white" stroke-opacity="0.3"/>
<rect x="1290.5" y="240.5" width="159" height="15" stroke="white" stroke-opacity="0.3"/>
<rect x="1290.5" y="165.5" width="159" height="69" stroke="white" stroke-opacity="0.3"/>
<rect x="321" y="571" width="178" height="358" rx="9" stroke="white" stroke-width="2"/>
<rect x="330" y="586" width="10" height="10" rx="5" fill="white" fill-opacity="0.3"/>
<rect width="120" height="10" transform="translate(350 586)" fill="white" fill-opacity="0.3"/>
<rect x="480" y="586" width="10" height="10" rx="5" fill="white" fill-opacity="0.3"/>
<rect x="334" y="908" width="12" height="12" rx="6" fill="white" fill-opacity="0.3"/>
<rect x="369" y="908" width="12" height="12" rx="6" fill="white" fill-opacity="0.3"/>
<rect x="404" y="908" width="12" height="12" rx="6" fill="white" fill-opacity="0.3"/>
<rect x="439" y="908" width="12" height="12" rx="6" fill="white" fill-opacity="0.3"/>
<rect x="474" y="908" width="12" height="12" rx="6" fill="white" fill-opacity="0.3"/>
<rect width="75" height="10" transform="translate(330 610)" fill="white" fill-opacity="0.3"/>
<rect width="75" height="10" transform="translate(415 610)" fill="white" fill-opacity="0.3"/>
<g clip-path="url(#clip0_31_11968)">
<rect width="160" height="50" transform="translate(330 630)" fill="white" fill-opacity="0.3"/>
<rect x="430" y="590" width="100" height="100" rx="50" fill="white" fill-opacity="0.3"/>
<rect width="80" height="10" transform="translate(335 635)" fill="white" fill-opacity="0.3"/>
<rect width="95" height="5" transform="translate(335 648)" fill="white" fill-opacity="0.25"/>
<rect width="95" height="5" transform="translate(335 655)" fill="white" fill-opacity="0.25"/>
<rect width="95" height="5" transform="translate(335 662)" fill="white" fill-opacity="0.25"/>
</g>
<g clip-path="url(#clip1_31_11968)">
<rect width="160" height="50" transform="translate(330 685)" fill="white" fill-opacity="0.3"/>
<rect x="430" y="645" width="100" height="100" rx="50" fill="white" fill-opacity="0.3"/>
<rect width="80" height="10" transform="translate(335 690)" fill="white" fill-opacity="0.3"/>
<rect width="95" height="5" transform="translate(335 703)" fill="white" fill-opacity="0.25"/>
<rect width="95" height="5" transform="translate(335 710)" fill="white" fill-opacity="0.25"/>
<rect width="95" height="5" transform="translate(335 717)" fill="white" fill-opacity="0.25"/>
</g>
<g clip-path="url(#clip2_31_11968)">
<rect width="160" height="50" transform="translate(330 740)" fill="white" fill-opacity="0.3"/>
<rect x="430" y="700" width="100" height="100" rx="50" fill="white" fill-opacity="0.3"/>
<rect width="80" height="10" transform="translate(335 745)" fill="white" fill-opacity="0.3"/>
<rect width="95" height="5" transform="translate(335 758)" fill="white" fill-opacity="0.25"/>
<rect width="95" height="5" transform="translate(335 765)" fill="white" fill-opacity="0.25"/>
<rect width="95" height="5" transform="translate(335 772)" fill="white" fill-opacity="0.25"/>
</g>
<g clip-path="url(#clip3_31_11968)">
<rect width="160" height="50" transform="translate(330 795)" fill="white" fill-opacity="0.3"/>
<rect x="430" y="755" width="100" height="100" rx="50" fill="white" fill-opacity="0.3"/>
<rect width="80" height="10" transform="translate(335 800)" fill="white" fill-opacity="0.3"/>
<rect width="95" height="5" transform="translate(335 813)" fill="white" fill-opacity="0.25"/>
<rect width="95" height="5" transform="translate(335 820)" fill="white" fill-opacity="0.25"/>
<rect width="95" height="5" transform="translate(335 827)" fill="white" fill-opacity="0.25"/>
</g>
<g clip-path="url(#clip4_31_11968)">
<rect width="160" height="50" transform="translate(330 850)" fill="white" fill-opacity="0.3"/>
<rect x="430" y="810" width="100" height="100" rx="50" fill="white" fill-opacity="0.3"/>
<rect width="80" height="10" transform="translate(335 855)" fill="white" fill-opacity="0.3"/>
<rect width="95" height="5" transform="translate(335 868)" fill="white" fill-opacity="0.25"/>
<rect width="95" height="5" transform="translate(335 875)" fill="white" fill-opacity="0.25"/>
<rect width="95" height="5" transform="translate(335 882)" fill="white" fill-opacity="0.25"/>
</g>
<rect x="641" y="571" width="178" height="358" rx="9" stroke="white" stroke-width="2"/>
<rect x="650" y="586" width="10" height="10" rx="5" fill="white" fill-opacity="0.3"/>
<rect width="120" height="10" transform="translate(670 586)" fill="white" fill-opacity="0.3"/>
<rect x="800" y="586" width="10" height="10" rx="5" fill="white" fill-opacity="0.3"/>
<rect x="654" y="908" width="12" height="12" rx="6" fill="white" fill-opacity="0.3"/>
<rect x="689" y="908" width="12" height="12" rx="6" fill="white" fill-opacity="0.3"/>
<rect x="724" y="908" width="12" height="12" rx="6" fill="white" fill-opacity="0.3"/>
<rect x="759" y="908" width="12" height="12" rx="6" fill="white" fill-opacity="0.3"/>
<rect x="794" y="908" width="12" height="12" rx="6" fill="white" fill-opacity="0.3"/>
<rect width="75" height="10" transform="translate(650 610)" fill="white" fill-opacity="0.3"/>
<rect width="75" height="10" transform="translate(735 610)" fill="white" fill-opacity="0.3"/>
<g clip-path="url(#clip5_31_11968)">
<rect width="160" height="50" transform="translate(650 630)" fill="white" fill-opacity="0.3"/>
<rect x="750" y="590" width="100" height="100" rx="50" fill="white" fill-opacity="0.3"/>
<rect width="80" height="10" transform="translate(655 635)" fill="white" fill-opacity="0.3"/>
<rect width="95" height="5" transform="translate(655 648)" fill="white" fill-opacity="0.25"/>
<rect width="95" height="5" transform="translate(655 655)" fill="white" fill-opacity="0.25"/>
<rect width="95" height="5" transform="translate(655 662)" fill="white" fill-opacity="0.25"/>
</g>
<g clip-path="url(#clip6_31_11968)">
<rect width="160" height="50" transform="translate(650 685)" fill="white" fill-opacity="0.3"/>
<rect x="750" y="645" width="100" height="100" rx="50" fill="white" fill-opacity="0.3"/>
<rect width="80" height="10" transform="translate(655 690)" fill="white" fill-opacity="0.3"/>
<rect width="95" height="5" transform="translate(655 703)" fill="white" fill-opacity="0.25"/>
<rect width="95" height="5" transform="translate(655 710)" fill="white" fill-opacity="0.25"/>
<rect width="95" height="5" transform="translate(655 717)" fill="white" fill-opacity="0.25"/>
</g>
<g clip-path="url(#clip7_31_11968)">
<rect width="160" height="50" transform="translate(650 740)" fill="white" fill-opacity="0.3"/>
<rect x="750" y="700" width="100" height="100" rx="50" fill="white" fill-opacity="0.3"/>
<rect width="80" height="10" transform="translate(655 745)" fill="white" fill-opacity="0.3"/>
<rect width="95" height="5" transform="translate(655 758)" fill="white" fill-opacity="0.25"/>
<rect width="95" height="5" transform="translate(655 765)" fill="white" fill-opacity="0.25"/>
<rect width="95" height="5" transform="translate(655 772)" fill="white" fill-opacity="0.25"/>
</g>
<g clip-path="url(#clip8_31_11968)">
<rect width="160" height="50" transform="translate(650 795)" fill="white" fill-opacity="0.3"/>
<rect x="750" y="755" width="100" height="100" rx="50" fill="white" fill-opacity="0.3"/>
<rect width="80" height="10" transform="translate(655 800)" fill="white" fill-opacity="0.3"/>
<rect width="95" height="5" transform="translate(655 813)" fill="white" fill-opacity="0.25"/>
<rect width="95" height="5" transform="translate(655 820)" fill="white" fill-opacity="0.25"/>
<rect width="95" height="5" transform="translate(655 827)" fill="white" fill-opacity="0.25"/>
</g>
<g clip-path="url(#clip9_31_11968)">
<rect width="160" height="50" transform="translate(650 850)" fill="white" fill-opacity="0.3"/>
<rect x="750" y="810" width="100" height="100" rx="50" fill="white" fill-opacity="0.3"/>
<rect width="80" height="10" transform="translate(655 855)" fill="white" fill-opacity="0.3"/>
<rect width="95" height="5" transform="translate(655 868)" fill="white" fill-opacity="0.25"/>
<rect width="95" height="5" transform="translate(655 875)" fill="white" fill-opacity="0.25"/>
<rect width="95" height="5" transform="translate(655 882)" fill="white" fill-opacity="0.25"/>
</g>
<rect x="961" y="571" width="178" height="358" rx="9" stroke="white" stroke-width="2"/>
<rect x="970" y="586" width="10" height="10" rx="5" fill="white" fill-opacity="0.3"/>
<rect width="120" height="10" transform="translate(990 586)" fill="white" fill-opacity="0.3"/>
<rect x="1120" y="586" width="10" height="10" rx="5" fill="white" fill-opacity="0.3"/>
<g clip-path="url(#clip10_31_11968)">
<rect width="160" height="35" transform="translate(970 610)" fill="white" fill-opacity="0.3"/>
<rect x="1070" y="570" width="100" height="100" rx="50" fill="white" fill-opacity="0.3"/>
<rect width="80" height="10" transform="translate(975 615)" fill="white" fill-opacity="0.3"/>
<rect width="95" height="5" transform="translate(975 632.5)" fill="white" fill-opacity="0.25"/>
</g>
<g clip-path="url(#clip11_31_11968)">
<rect width="160" height="35" transform="translate(970 650)" fill="white" fill-opacity="0.3"/>
<rect x="1070" y="610" width="100" height="100" rx="50" fill="white" fill-opacity="0.3"/>
<rect width="80" height="10" transform="translate(975 655)" fill="white" fill-opacity="0.3"/>
<rect width="95" height="5" transform="translate(975 672.5)" fill="white" fill-opacity="0.25"/>
</g>
<g clip-path="url(#clip12_31_11968)">
<rect width="160" height="35" transform="translate(970 690)" fill="white" fill-opacity="0.3"/>
<rect x="1070" y="650" width="100" height="100" rx="50" fill="white" fill-opacity="0.3"/>
<rect width="80" height="10" transform="translate(975 695)" fill="white" fill-opacity="0.3"/>
<rect width="95" height="5" transform="translate(975 712.5)" fill="white" fill-opacity="0.25"/>
</g>
<g clip-path="url(#clip13_31_11968)">
<rect width="160" height="35" transform="translate(970 730)" fill="white" fill-opacity="0.3"/>
<rect x="1070" y="690" width="100" height="100" rx="50" fill="white" fill-opacity="0.3"/>
<rect width="80" height="10" transform="translate(975 735)" fill="white" fill-opacity="0.3"/>
<rect width="95" height="5" transform="translate(975 752.5)" fill="white" fill-opacity="0.25"/>
</g>
<g clip-path="url(#clip14_31_11968)">
<rect width="160" height="35" transform="translate(970 770)" fill="white" fill-opacity="0.3"/>
<rect x="1070" y="730" width="100" height="100" rx="50" fill="white" fill-opacity="0.3"/>
<rect width="80" height="10" transform="translate(975 775)" fill="white" fill-opacity="0.3"/>
<rect width="95" height="5" transform="translate(975 792.5)" fill="white" fill-opacity="0.25"/>
</g>
<rect x="1281" y="551" width="178" height="398" rx="9" stroke="white" stroke-width="2"/>
<rect width="160" height="55" transform="translate(1290 590)" fill="white" fill-opacity="0.3"/>
<rect width="120" height="10" transform="translate(1310 600)" fill="white" fill-opacity="0.3"/>
<rect width="140" height="4" transform="translate(1300 615)" fill="white" fill-opacity="0.25"/>
<rect width="140" height="4" transform="translate(1300 622)" fill="white" fill-opacity="0.25"/>
<rect width="140" height="4" transform="translate(1300 629)" fill="white" fill-opacity="0.25"/>
<rect x="1290" y="566" width="10" height="10" rx="5" fill="white" fill-opacity="0.3"/>
<rect width="120" height="10" transform="translate(1310 566)" fill="white" fill-opacity="0.3"/>
<rect x="1440" y="566" width="10" height="10" rx="5" fill="white" fill-opacity="0.3"/>
<rect width="159" height="35" transform="translate(1290 655)" fill="white" fill-opacity="0.3"/>
<rect width="80" height="10" transform="translate(1295 660)" fill="white" fill-opacity="0.3"/>
<rect x="1434" y="660" width="10" height="10" rx="5" fill="white" fill-opacity="0.3"/>
<rect width="110" height="4" transform="translate(1295 674)" fill="white" fill-opacity="0.25"/>
<rect width="110" height="4" transform="translate(1295 681)" fill="white" fill-opacity="0.25"/>
<rect width="159" height="35" transform="translate(1290 695)" fill="white" fill-opacity="0.3"/>
<rect width="80" height="10" transform="translate(1295 700)" fill="white" fill-opacity="0.3"/>
<rect x="1434" y="700" width="10" height="10" rx="5" fill="white" fill-opacity="0.3"/>
<rect width="110" height="4" transform="translate(1295 714)" fill="white" fill-opacity="0.25"/>
<rect width="110" height="4" transform="translate(1295 721)" fill="white" fill-opacity="0.25"/>
<rect width="159" height="35" transform="translate(1290 735)" fill="white" fill-opacity="0.3"/>
<rect width="80" height="10" transform="translate(1295 740)" fill="white" fill-opacity="0.3"/>
<rect x="1434" y="740" width="10" height="10" rx="5" fill="white" fill-opacity="0.3"/>
<rect width="110" height="4" transform="translate(1295 754)" fill="white" fill-opacity="0.25"/>
<rect width="110" height="4" transform="translate(1295 761)" fill="white" fill-opacity="0.25"/>
<rect width="159" height="35" transform="translate(1290 775)" fill="white" fill-opacity="0.3"/>
<rect width="80" height="10" transform="translate(1295 780)" fill="white" fill-opacity="0.3"/>
<rect x="1434" y="780" width="10" height="10" rx="5" fill="white" fill-opacity="0.3"/>
<rect width="110" height="4" transform="translate(1295 794)" fill="white" fill-opacity="0.25"/>
<rect width="110" height="4" transform="translate(1295 801)" fill="white" fill-opacity="0.25"/>
<rect width="159" height="35" transform="translate(1290 815)" fill="white" fill-opacity="0.3"/>
<rect width="80" height="10" transform="translate(1295 820)" fill="white" fill-opacity="0.3"/>
<rect x="1434" y="820" width="10" height="10" rx="5" fill="white" fill-opacity="0.3"/>
<rect width="110" height="4" transform="translate(1295 834)" fill="white" fill-opacity="0.25"/>
<rect width="110" height="4" transform="translate(1295 841)" fill="white" fill-opacity="0.25"/>
<rect width="159" height="35" transform="translate(1290 855)" fill="white" fill-opacity="0.3"/>
<rect width="80" height="10" transform="translate(1295 860)" fill="white" fill-opacity="0.3"/>
<rect x="1434" y="860" width="10" height="10" rx="5" fill="white" fill-opacity="0.3"/>
<rect width="110" height="4" transform="translate(1295 874)" fill="white" fill-opacity="0.25"/>
<rect width="110" height="4" transform="translate(1295 881)" fill="white" fill-opacity="0.25"/>
<rect width="159" height="35" transform="translate(1290 895)" fill="white" fill-opacity="0.3"/>
<rect width="80" height="10" transform="translate(1295 900)" fill="white" fill-opacity="0.3"/>
<rect x="1434" y="900" width="10" height="10" rx="5" fill="white" fill-opacity="0.3"/>
<rect width="110" height="4" transform="translate(1295 914)" fill="white" fill-opacity="0.25"/>
<rect width="110" height="4" transform="translate(1295 921)" fill="white" fill-opacity="0.25"/>
<rect x="1" y="561" width="178" height="378" rx="9" stroke="white" stroke-width="2"/>
<rect width="180" height="140" transform="translate(0 560)" fill="white" fill-opacity="0.3"/>
<rect x="10" y="576" width="10" height="10" rx="5" fill="white" fill-opacity="0.3"/>
<rect width="120" height="10" transform="translate(30 576)" fill="white" fill-opacity="0.3"/>
<rect x="160" y="576" width="10" height="10" rx="5" fill="white" fill-opacity="0.3"/>
<rect width="80" height="10" transform="translate(10 680)" fill="white" fill-opacity="0.3"/>
<rect width="160" height="3" transform="translate(10 710)" fill="white" fill-opacity="0.25"/>
<rect width="160" height="3" transform="translate(10 716)" fill="white" fill-opacity="0.25"/>
<rect width="160" height="3" transform="translate(10 722)" fill="white" fill-opacity="0.25"/>
<rect width="160" height="3" transform="translate(10 728)" fill="white" fill-opacity="0.25"/>
<rect width="160" height="3" transform="translate(10 734)" fill="white" fill-opacity="0.25"/>
<rect width="160" height="3" transform="translate(10 740)" fill="white" fill-opacity="0.25"/>
<rect width="110" height="10" transform="translate(10 748)" fill="white" fill-opacity="0.25"/>
<rect width="160" height="3" transform="translate(10 761)" fill="white" fill-opacity="0.25"/>
<rect width="160" height="3" transform="translate(10 767)" fill="white" fill-opacity="0.25"/>
<rect width="160" height="3" transform="translate(10 773)" fill="white" fill-opacity="0.25"/>
<rect width="160" height="3" transform="translate(10 779)" fill="white" fill-opacity="0.25"/>
<rect width="160" height="3" transform="translate(10 785)" fill="white" fill-opacity="0.25"/>
<rect width="50" height="10" transform="translate(10 793)" fill="white" fill-opacity="0.25"/>
<rect width="160" height="50" transform="translate(10 806)" fill="white" fill-opacity="0.25"/>
<rect width="160" height="3" transform="translate(10 859)" fill="white" fill-opacity="0.25"/>
<rect width="160" height="3" transform="translate(10 865)" fill="white" fill-opacity="0.25"/>
<rect width="160" height="3" transform="translate(10 871)" fill="white" fill-opacity="0.25"/>
<rect width="160" height="3" transform="translate(10 877)" fill="white" fill-opacity="0.25"/>
<rect width="30" height="18" transform="translate(15 902)" fill="white" fill-opacity="0.3"/>
<rect width="30" height="18" transform="translate(55 902)" fill="white" fill-opacity="0.3"/>
<rect width="30" height="18" transform="translate(95 902)" fill="white" fill-opacity="0.3"/>
<rect width="30" height="18" transform="translate(135 902)" fill="white" fill-opacity="0.3"/>
<rect x="641" y="1101" width="178" height="358" rx="9" stroke="white" stroke-width="2"/>
<rect x="650" y="1116" width="10" height="10" rx="5" fill="white" fill-opacity="0.3"/>
<rect width="120" height="10" transform="translate(670 1116)" fill="white" fill-opacity="0.3"/>
<rect x="800" y="1116" width="10" height="10" rx="5" fill="white" fill-opacity="0.3"/>
<rect width="120" height="18" transform="translate(670 1404)" fill="white" fill-opacity="0.3"/>
<rect width="75" height="10" transform="translate(650 1140)" fill="white" fill-opacity="0.3"/>
<rect width="75" height="10" transform="translate(735 1140)" fill="white" fill-opacity="0.3"/>
<rect width="75" height="5" transform="translate(685 1162)" fill="white" fill-opacity="0.25"/>
<rect width="125" height="2" transform="translate(685 1172)" fill="white" fill-opacity="0.25"/>
<rect width="125" height="2" transform="translate(685 1177)" fill="white" fill-opacity="0.25"/>
<rect x="650" y="1160" width="25" height="25" rx="12.5" fill="white" fill-opacity="0.3"/>
<rect width="75" height="5" transform="translate(685 1197)" fill="white" fill-opacity="0.25"/>
<rect width="125" height="2" transform="translate(685 1207)" fill="white" fill-opacity="0.25"/>
<rect width="125" height="2" transform="translate(685 1212)" fill="white" fill-opacity="0.25"/>
<rect x="650" y="1195" width="25" height="25" rx="12.5" fill="white" fill-opacity="0.3"/>
<rect width="75" height="5" transform="translate(685 1232)" fill="white" fill-opacity="0.25"/>
<rect width="125" height="2" transform="translate(685 1242)" fill="white" fill-opacity="0.25"/>
<rect width="125" height="2" transform="translate(685 1247)" fill="white" fill-opacity="0.25"/>
<rect x="650" y="1230" width="25" height="25" rx="12.5" fill="white" fill-opacity="0.3"/>
<rect width="75" height="5" transform="translate(685 1267)" fill="white" fill-opacity="0.25"/>
<rect width="125" height="2" transform="translate(685 1277)" fill="white" fill-opacity="0.25"/>
<rect width="125" height="2" transform="translate(685 1282)" fill="white" fill-opacity="0.25"/>
<rect x="650" y="1265" width="25" height="25" rx="12.5" fill="white" fill-opacity="0.3"/>
<rect width="75" height="5" transform="translate(685 1302)" fill="white" fill-opacity="0.25"/>
<rect width="125" height="2" transform="translate(685 1312)" fill="white" fill-opacity="0.25"/>
<rect width="125" height="2" transform="translate(685 1317)" fill="white" fill-opacity="0.25"/>
<rect x="650" y="1300" width="25" height="25" rx="12.5" fill="white" fill-opacity="0.3"/>
<rect width="75" height="5" transform="translate(685 1337)" fill="white" fill-opacity="0.25"/>
<rect width="125" height="2" transform="translate(685 1347)" fill="white" fill-opacity="0.25"/>
<rect width="125" height="2" transform="translate(685 1352)" fill="white" fill-opacity="0.25"/>
<rect x="650" y="1335" width="25" height="25" rx="12.5" fill="white" fill-opacity="0.3"/>
<rect width="75" height="5" transform="translate(685 1372)" fill="white" fill-opacity="0.25"/>
<rect width="125" height="2" transform="translate(685 1382)" fill="white" fill-opacity="0.25"/>
<rect width="125" height="2" transform="translate(685 1387)" fill="white" fill-opacity="0.25"/>
<rect x="650" y="1370" width="25" height="25" rx="12.5" fill="white" fill-opacity="0.3"/>
<rect x="654" y="1438" width="12" height="12" rx="6" fill="white" fill-opacity="0.3"/>
<rect x="689" y="1438" width="12" height="12" rx="6" fill="white" fill-opacity="0.3"/>
<rect x="724" y="1438" width="12" height="12" rx="6" fill="white" fill-opacity="0.3"/>
<rect x="759" y="1438" width="12" height="12" rx="6" fill="white" fill-opacity="0.3"/>
<rect x="794" y="1438" width="12" height="12" rx="6" fill="white" fill-opacity="0.3"/>
<rect x="961" y="1101" width="178" height="358" rx="9" stroke="white" stroke-width="2"/>
<rect x="970" y="1116" width="10" height="10" rx="5" fill="white" fill-opacity="0.3"/>
<rect width="120" height="10" transform="translate(990 1116)" fill="white" fill-opacity="0.3"/>
<rect x="1120" y="1116" width="10" height="10" rx="5" fill="white" fill-opacity="0.3"/>
<rect width="120" height="18" transform="translate(990 1404)" fill="white" fill-opacity="0.3"/>
<rect width="75" height="10" transform="translate(970 1140)" fill="white" fill-opacity="0.3"/>
<rect width="75" height="10" transform="translate(1055 1140)" fill="white" fill-opacity="0.3"/>
<rect width="75" height="5" transform="translate(1005 1162)" fill="white" fill-opacity="0.25"/>
<rect width="125" height="2" transform="translate(1005 1172)" fill="white" fill-opacity="0.25"/>
<rect width="125" height="2" transform="translate(1005 1177)" fill="white" fill-opacity="0.25"/>
<rect x="970" y="1160" width="25" height="25" rx="12.5" fill="white" fill-opacity="0.3"/>
<rect width="75" height="5" transform="translate(1005 1197)" fill="white" fill-opacity="0.25"/>
<rect width="125" height="2" transform="translate(1005 1207)" fill="white" fill-opacity="0.25"/>
<rect width="125" height="2" transform="translate(1005 1212)" fill="white" fill-opacity="0.25"/>
<rect x="970" y="1195" width="25" height="25" rx="12.5" fill="white" fill-opacity="0.3"/>
<rect width="75" height="5" transform="translate(1005 1232)" fill="white" fill-opacity="0.25"/>
<rect width="125" height="2" transform="translate(1005 1242)" fill="white" fill-opacity="0.25"/>
<rect width="125" height="2" transform="translate(1005 1247)" fill="white" fill-opacity="0.25"/>
<rect x="970" y="1230" width="25" height="25" rx="12.5" fill="white" fill-opacity="0.3"/>
<rect width="75" height="5" transform="translate(1005 1267)" fill="white" fill-opacity="0.25"/>
<rect width="125" height="2" transform="translate(1005 1277)" fill="white" fill-opacity="0.25"/>
<rect width="125" height="2" transform="translate(1005 1282)" fill="white" fill-opacity="0.25"/>
<rect x="970" y="1265" width="25" height="25" rx="12.5" fill="white" fill-opacity="0.3"/>
<rect width="75" height="5" transform="translate(1005 1302)" fill="white" fill-opacity="0.25"/>
<rect width="125" height="2" transform="translate(1005 1312)" fill="white" fill-opacity="0.25"/>
<rect width="125" height="2" transform="translate(1005 1317)" fill="white" fill-opacity="0.25"/>
<rect x="970" y="1300" width="25" height="25" rx="12.5" fill="white" fill-opacity="0.3"/>
<rect width="75" height="5" transform="translate(1005 1337)" fill="white" fill-opacity="0.25"/>
<rect width="125" height="2" transform="translate(1005 1347)" fill="white" fill-opacity="0.25"/>
<rect width="125" height="2" transform="translate(1005 1352)" fill="white" fill-opacity="0.25"/>
<rect x="970" y="1335" width="25" height="25" rx="12.5" fill="white" fill-opacity="0.3"/>
<rect x="974" y="1438" width="12" height="12" rx="6" fill="white" fill-opacity="0.3"/>
<rect x="1009" y="1438" width="12" height="12" rx="6" fill="white" fill-opacity="0.3"/>
<rect x="1044" y="1438" width="12" height="12" rx="6" fill="white" fill-opacity="0.3"/>
<rect x="1079" y="1438" width="12" height="12" rx="6" fill="white" fill-opacity="0.3"/>
<rect x="1114" y="1438" width="12" height="12" rx="6" fill="white" fill-opacity="0.3"/>
<rect width="75" height="5" transform="translate(1005 1372)" fill="white" fill-opacity="0.25"/>
<rect width="125" height="2" transform="translate(1005 1382)" fill="white" fill-opacity="0.25"/>
<rect width="125" height="2" transform="translate(1005 1387)" fill="white" fill-opacity="0.25"/>
<rect x="970" y="1370" width="25" height="25" rx="12.5" fill="white" fill-opacity="0.3"/>
<rect x="1281" y="1101" width="178" height="358" rx="9" stroke="white" stroke-width="2"/>
<rect x="1290" y="1116" width="10" height="10" rx="5" fill="white" fill-opacity="0.3"/>
<rect width="120" height="10" transform="translate(1310 1116)" fill="white" fill-opacity="0.3"/>
<rect x="1440" y="1116" width="10" height="10" rx="5" fill="white" fill-opacity="0.3"/>
<rect width="120" height="18" transform="translate(1310 1422)" fill="white" fill-opacity="0.3"/>
<rect x="1290.5" y="1140.5" width="159" height="15" stroke="white" stroke-opacity="0.3"/>
<rect x="1290.5" y="1161.5" width="159" height="15" stroke="white" stroke-opacity="0.3"/>
<rect x="1290.5" y="1182.5" width="159" height="15" stroke="white" stroke-opacity="0.3"/>
<rect x="1290.5" y="1203.5" width="159" height="15" stroke="white" stroke-opacity="0.3"/>
<rect x="1290.5" y="1224.5" width="159" height="15" stroke="white" stroke-opacity="0.3"/>
<rect x="1290.5" y="1390.5" width="15" height="15" stroke="white" stroke-opacity="0.3"/>
<rect x="1314.5" y="1390.5" width="135" height="15" stroke="white" stroke-opacity="0.3"/>
<rect x="1290.5" y="1245.5" width="159" height="69" stroke="white" stroke-opacity="0.3"/>
<rect x="1" y="1101" width="178" height="358" rx="9" stroke="white" stroke-width="2"/>
<rect x="10" y="1116" width="10" height="10" rx="5" fill="white" fill-opacity="0.3"/>
<rect width="120" height="10" transform="translate(30 1116)" fill="white" fill-opacity="0.3"/>
<rect x="160" y="1116" width="10" height="10" rx="5" fill="white" fill-opacity="0.3"/>
<rect width="120" height="18" transform="translate(30 1411)" fill="white" fill-opacity="0.3"/>
<g clip-path="url(#clip15_31_11968)">
<rect width="160" height="35" transform="translate(10 1140)" fill="white" fill-opacity="0.3"/>
<rect x="110" y="1100" width="100" height="100" rx="50" fill="white" fill-opacity="0.3"/>
<rect width="80" height="10" transform="translate(15 1145)" fill="white" fill-opacity="0.3"/>
<rect width="95" height="5" transform="translate(15 1162.5)" fill="white" fill-opacity="0.25"/>
</g>
<g clip-path="url(#clip16_31_11968)">
<rect width="160" height="35" transform="translate(10 1180)" fill="white" fill-opacity="0.3"/>
<rect x="110" y="1140" width="100" height="100" rx="50" fill="white" fill-opacity="0.3"/>
<rect width="80" height="10" transform="translate(15 1185)" fill="white" fill-opacity="0.3"/>
<rect width="95" height="5" transform="translate(15 1202.5)" fill="white" fill-opacity="0.25"/>
</g>
<g clip-path="url(#clip17_31_11968)">
<rect width="160" height="35" transform="translate(10 1220)" fill="white" fill-opacity="0.3"/>
<rect x="110" y="1180" width="100" height="100" rx="50" fill="white" fill-opacity="0.3"/>
<rect width="80" height="10" transform="translate(15 1225)" fill="white" fill-opacity="0.3"/>
<rect width="95" height="5" transform="translate(15 1242.5)" fill="white" fill-opacity="0.25"/>
</g>
<g clip-path="url(#clip18_31_11968)">
<rect width="160" height="35" transform="translate(10 1260)" fill="white" fill-opacity="0.3"/>
<rect x="110" y="1220" width="100" height="100" rx="50" fill="white" fill-opacity="0.3"/>
<rect width="80" height="10" transform="translate(15 1265)" fill="white" fill-opacity="0.3"/>
<rect width="95" height="5" transform="translate(15 1282.5)" fill="white" fill-opacity="0.25"/>
</g>
<g clip-path="url(#clip19_31_11968)">
<rect width="160" height="35" transform="translate(10 1300)" fill="white" fill-opacity="0.3"/>
<rect x="110" y="1260" width="100" height="100" rx="50" fill="white" fill-opacity="0.3"/>
<rect width="80" height="10" transform="translate(15 1305)" fill="white" fill-opacity="0.3"/>
<rect width="95" height="5" transform="translate(15 1322.5)" fill="white" fill-opacity="0.25"/>
</g>
<g clip-path="url(#clip20_31_11968)">
<rect width="160" height="35" transform="translate(10 1340)" fill="white" fill-opacity="0.3"/>
<rect x="110" y="1300" width="100" height="100" rx="50" fill="white" fill-opacity="0.3"/>
<rect width="80" height="10" transform="translate(15 1345)" fill="white" fill-opacity="0.3"/>
<rect width="95" height="5" transform="translate(15 1362.5)" fill="white" fill-opacity="0.25"/>
</g>
<rect x="321" y="1101" width="178" height="358" rx="9" stroke="white" stroke-width="2"/>
<rect x="330" y="1116" width="10" height="10" rx="5" fill="white" fill-opacity="0.3"/>
<rect width="120" height="10" transform="translate(350 1116)" fill="white" fill-opacity="0.3"/>
<rect x="480" y="1116" width="10" height="10" rx="5" fill="white" fill-opacity="0.3"/>
<rect width="120" height="18" transform="translate(350 1411)" fill="white" fill-opacity="0.3"/>
<rect width="180" height="140" transform="translate(320 1100.25)" fill="white" fill-opacity="0.3"/>
<rect width="110" height="10" transform="translate(330 1250.25)" fill="white" fill-opacity="0.25"/>
<rect width="75" height="3" transform="translate(330 1268.25)" fill="white" fill-opacity="0.25"/>
<rect width="75" height="3" transform="translate(415 1268.25)" fill="white" fill-opacity="0.25"/>
<rect width="75" height="3" transform="translate(330 1274.25)" fill="white" fill-opacity="0.25"/>
<rect width="75" height="3" transform="translate(415 1274.25)" fill="white" fill-opacity="0.25"/>
<rect width="75" height="3" transform="translate(330 1280.25)" fill="white" fill-opacity="0.25"/>
<rect width="75" height="3" transform="translate(415 1280.25)" fill="white" fill-opacity="0.25"/>
<rect width="75" height="3" transform="translate(330 1286.25)" fill="white" fill-opacity="0.25"/>
<rect width="75" height="3" transform="translate(415 1286.25)" fill="white" fill-opacity="0.25"/>
<rect width="75" height="3" transform="translate(330 1292.25)" fill="white" fill-opacity="0.25"/>
<rect width="75" height="3" transform="translate(415 1292.25)" fill="white" fill-opacity="0.25"/>
<rect width="110" height="10" transform="translate(330 1305)" fill="white" fill-opacity="0.25"/>
<rect width="160" height="3" transform="translate(330 1318)" fill="white" fill-opacity="0.25"/>
<rect width="160" height="3" transform="translate(330 1324)" fill="white" fill-opacity="0.25"/>
<rect width="160" height="3" transform="translate(330 1330)" fill="white" fill-opacity="0.25"/>
<rect width="160" height="3" transform="translate(330 1336)" fill="white" fill-opacity="0.25"/>
<rect width="160" height="3" transform="translate(330 1342)" fill="white" fill-opacity="0.25"/>
<defs>
<clipPath id="clip0_31_11968">
<rect width="160" height="50" fill="white" transform="translate(330 630)"/>
</clipPath>
<clipPath id="clip1_31_11968">
<rect width="160" height="50" fill="white" transform="translate(330 685)"/>
</clipPath>
<clipPath id="clip2_31_11968">
<rect width="160" height="50" fill="white" transform="translate(330 740)"/>
</clipPath>
<clipPath id="clip3_31_11968">
<rect width="160" height="50" fill="white" transform="translate(330 795)"/>
</clipPath>
<clipPath id="clip4_31_11968">
<rect width="160" height="50" fill="white" transform="translate(330 850)"/>
</clipPath>
<clipPath id="clip5_31_11968">
<rect width="160" height="50" fill="white" transform="translate(650 630)"/>
</clipPath>
<clipPath id="clip6_31_11968">
<rect width="160" height="50" fill="white" transform="translate(650 685)"/>
</clipPath>
<clipPath id="clip7_31_11968">
<rect width="160" height="50" fill="white" transform="translate(650 740)"/>
</clipPath>
<clipPath id="clip8_31_11968">
<rect width="160" height="50" fill="white" transform="translate(650 795)"/>
</clipPath>
<clipPath id="clip9_31_11968">
<rect width="160" height="50" fill="white" transform="translate(650 850)"/>
</clipPath>
<clipPath id="clip10_31_11968">
<rect width="160" height="35" fill="white" transform="translate(970 610)"/>
</clipPath>
<clipPath id="clip11_31_11968">
<rect width="160" height="35" fill="white" transform="translate(970 650)"/>
</clipPath>
<clipPath id="clip12_31_11968">
<rect width="160" height="35" fill="white" transform="translate(970 690)"/>
</clipPath>
<clipPath id="clip13_31_11968">
<rect width="160" height="35" fill="white" transform="translate(970 730)"/>
</clipPath>
<clipPath id="clip14_31_11968">
<rect width="160" height="35" fill="white" transform="translate(970 770)"/>
</clipPath>
<clipPath id="clip15_31_11968">
<rect width="160" height="35" fill="white" transform="translate(10 1140)"/>
</clipPath>
<clipPath id="clip16_31_11968">
<rect width="160" height="35" fill="white" transform="translate(10 1180)"/>
</clipPath>
<clipPath id="clip17_31_11968">
<rect width="160" height="35" fill="white" transform="translate(10 1220)"/>
</clipPath>
<clipPath id="clip18_31_11968">
<rect width="160" height="35" fill="white" transform="translate(10 1260)"/>
</clipPath>
<clipPath id="clip19_31_11968">
<rect width="160" height="35" fill="white" transform="translate(10 1300)"/>
</clipPath>
<clipPath id="clip20_31_11968">
<rect width="160" height="35" fill="white" transform="translate(10 1340)"/>
</clipPath>
</defs>
</svg>
