<svg width="358" height="240" viewBox="0 0 358 240" fill="none" xmlns="http://www.w3.org/2000/svg">
<g clip-path="url(#clip0_31_23456)">
<path d="M103.962 99.3904L116.88 137.578L94.0739 205.001L62.7457 112.377C73.0753 110.286 85.8058 107.104 96.974 102.547C99.3936 101.558 101.739 100.507 103.962 99.3904V99.3904ZM78.4506 53.543H80.2393L78.5768 54.3761L78.4506 53.543Z" fill="#0E8F8D"/>
<path fill-rule="evenodd" clip-rule="evenodd" d="M88.706 105.599L116.88 137.578L103.962 99.3904C101.739 100.507 99.3936 101.558 96.9741 102.547C94.2892 103.643 91.5152 104.658 88.706 105.599ZM80.2394 53.543H78.4507L78.5769 54.3761L80.2394 53.543Z" fill="#1EBCBA"/>
<path fill-rule="evenodd" clip-rule="evenodd" d="M90.3648 105.031L94.0739 205L116.88 137.577L103.962 99.3887C101.739 100.506 99.3936 101.556 96.9741 102.545C94.8198 103.424 92.6081 104.252 90.3648 105.031V105.031Z" fill="#0BA9A7" fill-opacity="0.701961"/>
<path d="M57.9103 99.9295C52.3476 85.7368 38.5779 59.7228 46.2931 44.7898C50.2546 37.121 62.0574 31.664 70.793 36.1784C78.7086 40.2661 80.8702 45.7843 81.2376 54.7761C88.7839 49.872 94.5359 48.4433 102.45 52.5309C111.187 57.0453 113.566 69.8278 109.604 77.4966C101.895 92.4185 72.7283 96.2482 57.9103 99.9295V99.9295Z" fill="#FFF2F4"/>
<path d="M60.8587 94.2231C56.4389 82.9435 45.4971 62.2733 51.6258 50.4056C54.7745 44.3121 64.1522 39.9758 71.0955 43.5625C77.3856 46.8115 79.1038 51.196 79.3951 58.3415C85.392 54.445 89.9621 53.3094 96.2504 56.5584C103.194 60.1451 105.084 70.3021 101.936 76.3955C95.8106 88.254 72.6337 91.297 60.8587 94.2231V94.2231Z" fill="#FFD6DC"/>
<path d="M64.2636 87.6341C61.163 79.7204 53.4868 65.2197 57.7879 56.896C59.9959 52.6209 66.5755 49.5779 71.4443 52.094C75.8567 54.3744 77.0628 57.4508 77.2669 62.4625C81.4733 59.7293 84.6796 58.9315 89.0919 61.2119C93.9626 63.7279 95.2893 70.853 93.0794 75.1281C88.7821 83.4463 72.5242 85.5819 64.2636 87.6341V87.6341Z" fill="#FF415B"/>
<path fill-rule="evenodd" clip-rule="evenodd" d="M305.997 87.0588C309.946 88.0774 312.987 90.0053 315.121 92.8386C317.253 95.672 318.32 99.19 318.32 103.393C318.32 109.252 316.171 113.884 311.872 117.29C307.574 120.697 301.732 122.4 294.345 122.4C289.823 122.4 285.477 121.701 281.306 120.3C279.375 119.651 277.597 118.893 275.972 118.025L279.208 108.458C283.85 111.193 288.737 112.563 293.868 112.563C298.134 112.563 301.318 111.718 303.42 110.032C305.52 108.345 306.571 105.781 306.571 102.342C306.571 98.9673 305.504 96.468 303.372 94.8444C301.238 93.2209 297.943 92.4081 293.486 92.4081H284.637L287.93 82.6649H291.86C300.585 82.6649 304.947 79.3863 304.947 72.8271C304.947 69.7711 304.008 67.4146 302.129 65.7577C300.312 64.1583 297.766 63.3307 294.488 63.2787L297.781 53.543C303.082 53.9512 307.413 55.5228 310.773 58.2596C314.722 61.4771 316.696 65.8226 316.696 71.2982C316.633 75.0556 315.661 78.3194 313.783 81.0896C311.905 83.8599 309.309 85.849 305.997 87.0588V87.0588Z" fill="#E6E6E6"/>
<path d="M208.799 137.578L237.223 53.543H282.831L231.605 205.001L208.799 137.578Z" fill="#C43739"/>
<path d="M134.711 205.001H94.0739L140.035 69.1172L162.839 136.538L139.684 205.001H134.711Z" fill="#E9CC32"/>
<path d="M162.839 136.539L134.767 53.541H145.304H180.375L185.643 69.116L231.603 205.001H221.929H185.995L162.839 136.539Z" fill="#8D45BA"/>
<path fill-rule="evenodd" clip-rule="evenodd" d="M231.603 205.001L180.375 53.541H134.767L231.603 205.001Z" fill="#B570E0"/>
<path fill-rule="evenodd" clip-rule="evenodd" d="M185.995 205.001H231.605L180.375 53.541L185.995 205.001Z" fill="#8E5AAF" fill-opacity="0.701961"/>
<path fill-rule="evenodd" clip-rule="evenodd" d="M231.603 205.001L282.831 53.543H237.223L231.603 205.001Z" fill="#E84B4E"/>
<path fill-rule="evenodd" clip-rule="evenodd" d="M282.831 53.543L208.799 137.578L237.223 53.543H282.831Z" fill="#D9383A" fill-opacity="0.701961"/>
<path fill-rule="evenodd" clip-rule="evenodd" d="M140.035 69.1172L162.839 136.538L94.0739 205.001L140.035 69.1172Z" fill="#F9E051"/>
<path fill-rule="evenodd" clip-rule="evenodd" d="M94.0739 205.001L140.035 69.1172L139.684 205.001H94.0739Z" fill="#E9CC32" fill-opacity="0.701961"/>
</g>
<defs>
<clipPath id="clip0_31_23456">
<rect width="288" height="180" fill="white" transform="translate(44 25)"/>
</clipPath>
</defs>
</svg>
