<svg width="360" height="360" viewBox="0 0 360 360" fill="none" xmlns="http://www.w3.org/2000/svg">
<g clip-path="url(#clip0_55_13393)">
<path d="M104.962 164.39L117.88 202.578L95.074 270.001L63.7458 177.377C74.0754 175.286 86.8059 172.104 97.9742 167.547C100.394 166.558 102.739 165.507 104.962 164.39V164.39ZM79.4508 118.543H81.2395L79.5769 119.376L79.4508 118.543Z" fill="#0E8F8D"/>
<path fill-rule="evenodd" clip-rule="evenodd" d="M89.706 170.599L117.88 202.578L104.962 164.39C102.739 165.507 100.394 166.558 97.9741 167.547C95.2892 168.643 92.5152 169.658 89.706 170.599ZM81.2394 118.543H79.4507L79.5769 119.376L81.2394 118.543Z" fill="#1EBCBA"/>
<path fill-rule="evenodd" clip-rule="evenodd" d="M91.3647 170.031L95.0739 270L117.88 202.577L104.962 164.389C102.739 165.506 100.394 166.556 97.974 167.545C95.8198 168.424 93.608 169.252 91.3647 170.031V170.031Z" fill="#0BA9A7" fill-opacity="0.701961"/>
<path d="M58.9103 164.93C53.3476 150.737 39.5779 124.723 47.2931 109.79C51.2546 102.121 63.0574 96.664 71.793 101.178C79.7086 105.266 81.8702 110.784 82.2376 119.776C89.7839 114.872 95.5359 113.443 103.45 117.531C112.187 122.045 114.566 134.828 110.604 142.497C102.895 157.418 73.7283 161.248 58.9103 164.93V164.93Z" fill="#FFF2F4"/>
<path d="M61.8588 159.223C57.439 147.944 46.4971 127.273 52.6258 115.406C55.7746 109.312 65.1523 104.976 72.0955 108.563C78.3857 111.811 80.1038 116.196 80.3952 123.342C86.3921 119.445 90.9622 118.309 97.2505 121.558C104.194 125.145 106.084 135.302 102.936 141.395C96.8107 153.254 73.6337 156.297 61.8588 159.223V159.223Z" fill="#FFD6DC"/>
<path d="M65.2636 152.634C62.163 144.72 54.4868 130.22 58.7879 121.896C60.9959 117.621 67.5755 114.578 72.4443 117.094C76.8567 119.374 78.0628 122.451 78.2669 127.462C82.4733 124.729 85.6796 123.931 90.0919 126.212C94.9626 128.728 96.2893 135.853 94.0794 140.128C89.7821 148.446 73.5242 150.582 65.2636 152.634V152.634Z" fill="#FF415B"/>
<path fill-rule="evenodd" clip-rule="evenodd" d="M306.997 152.059C310.946 153.077 313.987 155.005 316.121 157.839C318.253 160.672 319.32 164.19 319.32 168.393C319.32 174.252 317.171 178.884 312.872 182.29C308.574 185.697 302.732 187.4 295.345 187.4C290.823 187.4 286.477 186.701 282.306 185.3C280.375 184.651 278.597 183.893 276.972 183.025L280.208 173.458C284.85 176.193 289.737 177.563 294.868 177.563C299.134 177.563 302.318 176.718 304.42 175.032C306.52 173.345 307.571 170.781 307.571 167.342C307.571 163.967 306.504 161.468 304.372 159.844C302.238 158.221 298.943 157.408 294.486 157.408H285.637L288.93 147.665H292.86C301.585 147.665 305.947 144.386 305.947 137.827C305.947 134.771 305.008 132.415 303.129 130.758C301.312 129.158 298.766 128.331 295.488 128.279L298.781 118.543C304.082 118.951 308.413 120.523 311.773 123.26C315.722 126.477 317.696 130.823 317.696 136.298C317.633 140.056 316.661 143.319 314.783 146.09C312.905 148.86 310.309 150.849 306.997 152.059V152.059Z" fill="#29364F"/>
<path d="M209.799 202.578L238.223 118.543H283.831L232.605 270.001L209.799 202.578Z" fill="#C43739"/>
<path d="M135.711 270.001H95.074L141.035 134.117L163.839 201.538L140.684 270.001H135.711Z" fill="#E9CC32"/>
<path d="M163.839 201.539L135.767 118.541H146.304H181.375L186.643 134.116L232.603 270.001H222.929H186.995L163.839 201.539Z" fill="#8D45BA"/>
<path fill-rule="evenodd" clip-rule="evenodd" d="M232.603 270.001L181.375 118.541H135.767L232.603 270.001Z" fill="#B570E0"/>
<path fill-rule="evenodd" clip-rule="evenodd" d="M186.995 270.001H232.605L181.375 118.541L186.995 270.001Z" fill="#8E5AAF" fill-opacity="0.701961"/>
<path fill-rule="evenodd" clip-rule="evenodd" d="M232.603 270.001L283.831 118.543H238.223L232.603 270.001Z" fill="#E84B4E"/>
<path fill-rule="evenodd" clip-rule="evenodd" d="M283.831 118.543L209.799 202.578L238.223 118.543H283.831Z" fill="#D9383A" fill-opacity="0.701961"/>
<path fill-rule="evenodd" clip-rule="evenodd" d="M141.035 134.117L163.839 201.538L95.074 270.001L141.035 134.117Z" fill="#F9E051"/>
<path fill-rule="evenodd" clip-rule="evenodd" d="M95.074 270.001L141.035 134.117L140.684 270.001H95.074Z" fill="#E9CC32" fill-opacity="0.701961"/>
</g>
<defs>
<clipPath id="clip0_55_13393">
<rect width="288" height="180" fill="white" transform="translate(45 90)"/>
</clipPath>
</defs>
</svg>
