<svg width="360" height="780" viewBox="0 0 360 780" fill="none" xmlns="http://www.w3.org/2000/svg">
<rect width="360" height="780" rx="30" fill="#0F0F0F"/>
<g clip-path="url(#clip0_54_5104)">
<path d="M138.312 331.327L145.489 352.543L132.819 390L115.414 338.542C121.153 337.38 128.225 335.612 134.43 333.081C135.774 332.531 137.077 331.948 138.312 331.327ZM124.139 305.856H125.133L124.209 306.319L124.139 305.856Z" fill="#0E8F8D"/>
<path fill-rule="evenodd" clip-rule="evenodd" d="M129.837 334.776L145.489 352.543L138.313 331.327C137.078 331.948 135.775 332.531 134.43 333.081C132.939 333.69 131.398 334.254 129.837 334.776ZM125.133 305.856H124.14L124.21 306.319L125.133 305.856Z" fill="#1EBCBA"/>
<path fill-rule="evenodd" clip-rule="evenodd" d="M130.758 334.462L132.818 390L145.488 352.543L138.312 331.327C137.077 331.948 135.774 332.531 134.43 333.081C133.233 333.569 132.004 334.029 130.758 334.462Z" fill="#0BA9A7" fill-opacity="0.701961"/>
<path d="M112.728 331.627C109.638 323.742 101.988 309.29 106.274 300.994C108.475 296.733 115.032 293.701 119.885 296.209C124.283 298.48 125.483 301.546 125.688 306.542C129.88 303.817 133.076 303.023 137.472 305.294C142.326 307.802 143.648 314.904 141.447 319.164C137.164 327.454 120.96 329.582 112.728 331.627Z" fill="#FFF2F4"/>
<path d="M114.366 328.457C111.91 322.191 105.832 310.707 109.236 304.114C110.986 300.729 116.195 298.32 120.053 300.313C123.547 302.117 124.502 304.553 124.664 308.523C127.995 306.358 130.534 305.727 134.028 307.532C137.885 309.525 138.936 315.168 137.186 318.553C133.784 325.141 120.907 326.832 114.366 328.457Z" fill="#FFD6DC"/>
<path d="M116.258 324.795C114.535 320.399 110.271 312.343 112.66 307.719C113.887 305.344 117.542 303.653 120.247 305.051C122.699 306.318 123.369 308.027 123.482 310.811C125.819 309.293 127.6 308.849 130.052 310.116C132.757 311.514 133.495 315.472 132.267 317.848C129.879 322.469 120.847 323.655 116.258 324.795Z" fill="#FF415B"/>
<path fill-rule="evenodd" clip-rule="evenodd" d="M250.554 324.476C252.748 325.042 254.437 326.113 255.623 327.687C256.807 329.261 257.4 331.216 257.4 333.551C257.4 336.806 256.206 339.379 253.818 341.272C251.43 343.164 248.184 344.111 244.08 344.111C241.568 344.111 239.154 343.722 236.837 342.944C235.764 342.583 234.776 342.162 233.873 341.68L235.671 336.365C238.25 337.884 240.965 338.645 243.815 338.645C246.185 338.645 247.954 338.176 249.122 337.239C250.289 336.302 250.872 334.877 250.872 332.967C250.872 331.092 250.28 329.704 249.095 328.802C247.91 327.9 246.079 327.448 243.603 327.448H238.687L240.517 322.035H242.7C247.547 322.035 249.97 320.214 249.97 316.57C249.97 314.872 249.449 313.563 248.405 312.642C247.395 311.754 245.981 311.294 244.16 311.265L245.989 305.856C248.935 306.083 251.34 306.956 253.207 308.477C255.401 310.264 256.498 312.678 256.498 315.72C256.463 317.808 255.923 319.621 254.879 321.16C253.836 322.699 252.394 323.804 250.554 324.476Z" fill="#29364F"/>
<path d="M196.555 352.543L212.346 305.856H237.684L209.225 390L196.555 352.543Z" fill="#C43739"/>
<path d="M155.395 390H132.818L158.352 314.509L171.021 351.965L158.157 390H155.395Z" fill="#E9CC32"/>
<path d="M171.021 351.965L155.426 305.854H161.28H180.764L183.69 314.507L209.224 389.999H203.849H183.886L171.021 351.965Z" fill="#8D45BA"/>
<path fill-rule="evenodd" clip-rule="evenodd" d="M209.224 389.999L180.764 305.854H155.426L209.224 389.999Z" fill="#B570E0"/>
<path fill-rule="evenodd" clip-rule="evenodd" d="M183.886 389.999H209.225L180.764 305.854L183.886 389.999Z" fill="#8E5AAF" fill-opacity="0.701961"/>
<path fill-rule="evenodd" clip-rule="evenodd" d="M209.224 390L237.684 305.856H212.346L209.224 390Z" fill="#E84B4E"/>
<path fill-rule="evenodd" clip-rule="evenodd" d="M237.684 305.856L196.555 352.543L212.346 305.856H237.684Z" fill="#D9383A" fill-opacity="0.701961"/>
<path fill-rule="evenodd" clip-rule="evenodd" d="M158.352 314.509L171.021 351.965L132.818 390L158.352 314.509Z" fill="#F9E051"/>
<path fill-rule="evenodd" clip-rule="evenodd" d="M132.818 390L158.352 314.509L158.157 390H132.818Z" fill="#E9CC32" fill-opacity="0.701961"/>
</g>
<defs>
<clipPath id="clip0_54_5104">
<rect width="160" height="100" fill="white" transform="translate(105 290)"/>
</clipPath>
</defs>
</svg>
