<svg width="563" height="500" viewBox="0 0 563 500" fill="none" xmlns="http://www.w3.org/2000/svg">
<rect y="500" width="450" height="10" transform="rotate(-90 0 500)" fill="#C43739"/>
<path d="M32.3636 481.688C30.7358 481.825 29.419 482.489 28.4134 483.683C27.4077 484.867 26.9048 486.401 26.9048 488.285C26.9048 489.555 27.1392 490.684 27.608 491.673C28.0767 492.661 28.7159 493.437 29.5256 493.999C30.3352 494.562 31.2642 494.843 32.3125 494.843C32.9858 494.843 33.5952 494.715 34.1406 494.46C34.6776 494.195 35.1591 493.825 35.5852 493.347C36.0028 492.87 36.3693 492.303 36.6847 491.647C37 490.991 37.277 490.266 37.5156 489.474L38.3594 486.61C38.6577 485.63 39.0028 484.727 39.3949 483.9C39.7869 483.065 40.2557 482.34 40.8011 481.727C41.3381 481.104 41.9687 480.623 42.6932 480.282C43.4176 479.933 44.2528 479.758 45.1989 479.758C46.5795 479.758 47.8153 480.116 48.9062 480.832C49.9972 481.539 50.858 482.549 51.4886 483.862C52.1108 485.165 52.4219 486.704 52.4219 488.477C52.4219 490.164 52.1364 491.634 51.5653 492.887C50.9943 494.131 50.2017 495.116 49.1875 495.84C48.1648 496.565 46.9886 496.974 45.6591 497.067V495.431C46.7415 495.346 47.679 495.001 48.4716 494.396C49.2557 493.782 49.8608 492.968 50.2869 491.954C50.7131 490.94 50.9261 489.781 50.9261 488.477C50.9261 487.07 50.6875 485.83 50.2102 484.756C49.7244 483.683 49.0511 482.843 48.1903 482.238C47.3295 481.633 46.3281 481.33 45.1861 481.33C44.2656 481.33 43.4773 481.548 42.821 481.982C42.1648 482.417 41.598 483.06 41.1207 483.913C40.6435 484.756 40.2173 485.805 39.8423 487.058L38.9219 490.113C38.2997 492.158 37.4517 493.722 36.3778 494.805C35.304 495.879 33.9659 496.415 32.3636 496.415C31.017 496.415 29.8239 496.058 28.7841 495.342C27.7358 494.626 26.9134 493.654 26.3168 492.427C25.7202 491.191 25.4219 489.798 25.4219 488.246C25.4219 486.687 25.7244 485.31 26.3295 484.117C26.9261 482.924 27.7486 481.978 28.7969 481.279C29.8366 480.58 31.0256 480.192 32.3636 480.116V481.688ZM25.8182 472.433H52V473.992H25.8182V472.433ZM52.4091 458.319C52.4091 460.092 51.9702 461.634 51.0923 462.947C50.2145 464.259 49.0128 465.273 47.4872 465.989C45.9616 466.705 44.223 467.063 42.2713 467.063C40.3111 467.063 38.5639 466.705 37.0298 465.989C35.4957 465.265 34.2855 464.272 33.3991 463.011C32.5128 461.749 32.0696 460.309 32.0696 458.69C32.0696 457.59 32.2912 456.55 32.7344 455.57C33.169 454.582 33.7997 453.712 34.6264 452.962C35.4531 452.204 36.4503 451.612 37.6179 451.185C38.7855 450.751 40.098 450.533 41.5554 450.533H42.527V466.079H41.108V452.093C39.6847 452.093 38.402 452.383 37.2599 452.962C36.1179 453.542 35.2102 454.33 34.5369 455.327C33.8636 456.325 33.527 457.445 33.527 458.69C33.527 459.994 33.8935 461.157 34.6264 462.18C35.3509 463.194 36.331 463.999 37.5668 464.596C38.8026 465.184 40.1832 465.491 41.7088 465.516H42.348C43.9844 465.516 45.4545 465.231 46.7585 464.66C48.054 464.08 49.081 463.254 49.8395 462.18C50.5895 461.106 50.9645 459.819 50.9645 458.319C50.9645 457.245 50.7855 456.329 50.4276 455.57C50.0611 454.803 49.6179 454.177 49.098 453.691C48.5781 453.205 48.0753 452.839 47.5895 452.592L48.1648 451.173C48.821 451.471 49.4773 451.935 50.1335 452.566C50.7812 453.188 51.3224 453.981 51.7571 454.944C52.1918 455.898 52.4091 457.023 52.4091 458.319ZM52.4091 437.506C52.4091 439.279 51.9702 440.822 51.0923 442.134C50.2145 443.447 49.0128 444.461 47.4872 445.177C45.9616 445.893 44.223 446.251 42.2713 446.251C40.3111 446.251 38.5639 445.893 37.0298 445.177C35.4957 444.452 34.2855 443.46 33.3991 442.198C32.5128 440.937 32.0696 439.496 32.0696 437.877C32.0696 436.778 32.2912 435.738 32.7344 434.758C33.169 433.769 33.7997 432.9 34.6264 432.15C35.4531 431.391 36.4503 430.799 37.6179 430.373C38.7855 429.938 40.098 429.721 41.5554 429.721H42.527V445.266H41.108V431.281C39.6847 431.281 38.402 431.57 37.2599 432.15C36.1179 432.729 35.2102 433.518 34.5369 434.515C33.8636 435.512 33.527 436.633 33.527 437.877C33.527 439.181 33.8935 440.344 34.6264 441.367C35.3509 442.381 36.331 443.187 37.5668 443.783C38.8026 444.371 40.1832 444.678 41.7088 444.704H42.348C43.9844 444.704 45.4545 444.418 46.7585 443.847C48.054 443.268 49.081 442.441 49.8395 441.367C50.5895 440.293 50.9645 439.006 50.9645 437.506C50.9645 436.433 50.7855 435.516 50.4276 434.758C50.0611 433.991 49.6179 433.364 49.098 432.879C48.5781 432.393 48.0753 432.026 47.5895 431.779L48.1648 430.36C48.821 430.658 49.4773 431.123 50.1335 431.754C50.7812 432.376 51.3224 433.168 51.7571 434.131C52.1918 435.086 52.4091 436.211 52.4091 437.506ZM59.3636 424.352H32.3636V422.83H36.7486V422.638C35.9048 422.332 35.1293 421.901 34.4219 421.347C33.7145 420.785 33.1477 420.09 32.7216 419.263C32.2869 418.428 32.0696 417.448 32.0696 416.323C32.0696 414.738 32.5043 413.357 33.3736 412.181C34.2429 411.005 35.4446 410.093 36.9787 409.445C38.5043 408.798 40.2557 408.474 42.233 408.474C44.2102 408.474 45.9659 408.802 47.5 409.458C49.0256 410.106 50.2273 411.018 51.1051 412.194C51.9744 413.362 52.4091 414.729 52.4091 416.298C52.4091 417.414 52.196 418.394 51.7699 419.238C51.3437 420.073 50.777 420.776 50.0696 421.347C49.3537 421.91 48.5696 422.34 47.7173 422.638V422.792H59.3636V424.352ZM42.2202 422.817C43.8906 422.817 45.3864 422.562 46.7074 422.05C48.0199 421.539 49.0597 420.806 49.8267 419.852C50.5852 418.897 50.9645 417.759 50.9645 416.438C50.9645 415.1 50.581 413.954 49.8139 412.999C49.0384 412.036 47.9901 411.303 46.669 410.8C45.348 410.289 43.8651 410.033 42.2202 410.033C40.5753 410.033 39.0966 410.285 37.7841 410.788C36.4716 411.29 35.4361 412.019 34.6776 412.974C33.9105 413.928 33.527 415.083 33.527 416.438C33.527 417.776 33.9062 418.923 34.6648 419.877C35.4148 420.823 36.446 421.552 37.7585 422.063C39.0625 422.566 40.5497 422.817 42.2202 422.817ZM52 385.146V392.407H25.8182V384.583C25.8182 382.129 26.3381 380.028 27.3778 378.281C28.4176 376.534 29.9091 375.196 31.8523 374.267C33.7869 373.329 36.1094 372.865 38.8196 372.873C41.5895 372.882 43.9588 373.368 45.9276 374.331C47.8878 375.294 49.392 376.687 50.4403 378.511C51.4801 380.335 52 382.547 52 385.146ZM50.517 390.809V385.21C50.517 382.875 50.0526 380.906 49.1236 379.304C48.1861 377.701 46.8437 376.491 45.0966 375.673C43.3494 374.846 41.2571 374.437 38.8196 374.446C36.4162 374.446 34.358 374.842 32.6449 375.635C30.9233 376.427 29.6023 377.582 28.6818 379.099C27.7614 380.608 27.3011 382.457 27.3011 384.647V390.809H50.517ZM52 367.111H32.3636V365.564H52V367.111ZM28.8864 366.331C28.8864 366.672 28.767 366.97 28.5284 367.226C28.2898 367.473 28 367.597 27.6591 367.597C27.3182 367.597 27.0284 367.473 26.7898 367.226C26.5511 366.979 26.4318 366.68 26.4318 366.331C26.4318 365.99 26.5511 365.696 26.7898 365.449C27.0284 365.193 27.3182 365.065 27.6591 365.065C28 365.065 28.2898 365.189 28.5284 365.436C28.767 365.683 28.8864 365.982 28.8864 366.331ZM59.3636 359.031H32.3636V357.51H36.7486V357.318C35.9048 357.011 35.1293 356.581 34.4219 356.027C33.7145 355.464 33.1477 354.77 32.7216 353.943C32.2869 353.108 32.0696 352.128 32.0696 351.003C32.0696 349.418 32.5043 348.037 33.3736 346.861C34.2429 345.685 35.4446 344.773 36.9787 344.125C38.5043 343.477 40.2557 343.153 42.233 343.153C44.2102 343.153 45.9659 343.482 47.5 344.138C49.0256 344.786 50.2273 345.697 51.1051 346.874C51.9744 348.041 52.4091 349.409 52.4091 350.977C52.4091 352.094 52.196 353.074 51.7699 353.918C51.3437 354.753 50.777 355.456 50.0696 356.027C49.3537 356.589 48.5696 357.02 47.7173 357.318V357.472H59.3636V359.031ZM42.2202 357.497C43.8906 357.497 45.3864 357.241 46.7074 356.73C48.0199 356.219 49.0597 355.486 49.8267 354.531C50.5852 353.577 50.9645 352.439 50.9645 351.118C50.9645 349.78 50.581 348.634 49.8139 347.679C49.0384 346.716 47.9901 345.983 46.669 345.48C45.348 344.969 43.8651 344.713 42.2202 344.713C40.5753 344.713 39.0966 344.964 37.7841 345.467C36.4716 345.97 35.4361 346.699 34.6776 347.653C33.9105 348.608 33.527 349.763 33.527 351.118C33.527 352.456 33.9062 353.602 34.6648 354.557C35.4148 355.503 36.446 356.232 37.7585 356.743C39.0625 357.246 40.5497 357.497 42.2202 357.497ZM52 337.762H32.3636V336.24H35.4318V336.1C34.4261 335.674 33.6207 334.953 33.0156 333.939C32.402 332.925 32.0952 331.77 32.0952 330.475C32.0952 330.338 32.0952 330.202 32.0952 330.066C32.0952 329.929 32.0994 329.801 32.108 329.682H33.6804C33.6719 329.784 33.6591 329.908 33.642 330.053C33.6165 330.189 33.6037 330.36 33.6037 330.564C33.6037 331.655 33.8381 332.627 34.3068 333.479C34.7756 334.323 35.4233 334.988 36.25 335.473C37.0682 335.959 38.0057 336.202 39.0625 336.202H52V337.762ZM52.4091 318.432C52.4091 320.205 51.9702 321.748 51.0923 323.06C50.2145 324.373 49.0128 325.387 47.4872 326.103C45.9616 326.819 44.223 327.176 42.2713 327.176C40.3111 327.176 38.5639 326.819 37.0298 326.103C35.4957 325.378 34.2855 324.385 33.3991 323.124C32.5128 321.863 32.0696 320.422 32.0696 318.803C32.0696 317.703 32.2912 316.664 32.7344 315.684C33.169 314.695 33.7997 313.826 34.6264 313.076C35.4531 312.317 36.4503 311.725 37.6179 311.299C38.7855 310.864 40.098 310.647 41.5554 310.647H42.527V326.192H41.108V312.206C39.6847 312.206 38.402 312.496 37.2599 313.076C36.1179 313.655 35.2102 314.444 34.5369 315.441C33.8636 316.438 33.527 317.559 33.527 318.803C33.527 320.107 33.8935 321.27 34.6264 322.293C35.3509 323.307 36.331 324.113 37.5668 324.709C38.8026 325.297 40.1832 325.604 41.7088 325.63H42.348C43.9844 325.63 45.4545 325.344 46.7585 324.773C48.054 324.194 49.081 323.367 49.8395 322.293C50.5895 321.219 50.9645 319.932 50.9645 318.432C50.9645 317.358 50.7855 316.442 50.4276 315.684C50.0611 314.917 49.6179 314.29 49.098 313.804C48.5781 313.319 48.0753 312.952 47.5895 312.705L48.1648 311.286C48.821 311.584 49.4773 312.049 50.1335 312.679C50.7812 313.301 51.3224 314.094 51.7571 315.057C52.1918 316.012 52.4091 317.137 52.4091 318.432ZM36.5952 292.8L36.9787 294.245C36.2628 294.475 35.6449 294.803 35.125 295.229C34.6051 295.655 34.2045 296.192 33.9233 296.84C33.6335 297.479 33.4886 298.246 33.4886 299.141C33.4886 300.581 33.8466 301.762 34.5625 302.682C35.2784 303.594 36.2116 304.05 37.3622 304.05C38.2997 304.05 39.0753 303.739 39.6889 303.117C40.294 302.495 40.7543 301.544 41.0696 300.266L41.8239 297.249C42.2074 295.698 42.8295 294.53 43.6903 293.746C44.5426 292.962 45.6037 292.57 46.8736 292.57C47.956 292.57 48.9148 292.864 49.75 293.452C50.5852 294.04 51.2372 294.854 51.706 295.894C52.1747 296.925 52.4091 298.127 52.4091 299.499C52.4091 301.331 51.983 302.836 51.1307 304.012C50.2699 305.188 49.0384 305.942 47.4361 306.275L47.0526 304.779C48.331 304.498 49.3068 303.914 49.9801 303.027C50.6449 302.132 50.9773 300.961 50.9773 299.512C50.9773 297.909 50.598 296.618 49.8395 295.638C49.081 294.65 48.1094 294.155 46.9247 294.155C46.0213 294.155 45.2585 294.445 44.6364 295.025C44.0142 295.604 43.5582 296.482 43.2685 297.658L42.5014 300.79C42.1094 302.392 41.483 303.594 40.6222 304.395C39.7528 305.196 38.6832 305.597 37.4134 305.597C36.3565 305.597 35.4276 305.32 34.6264 304.766C33.8253 304.212 33.1989 303.449 32.7472 302.478C32.2955 301.506 32.0696 300.394 32.0696 299.141C32.0696 297.479 32.4616 296.124 33.2457 295.076C34.0298 294.027 35.1463 293.269 36.5952 292.8ZM36.5952 274.695L36.9787 276.139C36.2628 276.369 35.6449 276.697 35.125 277.124C34.6051 277.55 34.2045 278.087 33.9233 278.734C33.6335 279.374 33.4886 280.141 33.4886 281.036C33.4886 282.476 33.8466 283.656 34.5625 284.577C35.2784 285.489 36.2116 285.945 37.3622 285.945C38.2997 285.945 39.0753 285.634 39.6889 285.011C40.294 284.389 40.7543 283.439 41.0696 282.161L41.8239 279.143C42.2074 277.592 42.8295 276.425 43.6903 275.641C44.5426 274.857 45.6037 274.464 46.8736 274.464C47.956 274.464 48.9148 274.759 49.75 275.347C50.5852 275.935 51.2372 276.749 51.706 277.788C52.1747 278.82 52.4091 280.021 52.4091 281.393C52.4091 283.226 51.983 284.73 51.1307 285.906C50.2699 287.082 49.0384 287.837 47.4361 288.169L47.0526 286.673C48.331 286.392 49.3068 285.808 49.9801 284.922C50.6449 284.027 50.9773 282.855 50.9773 281.406C50.9773 279.804 50.598 278.513 49.8395 277.533C49.081 276.544 48.1094 276.05 46.9247 276.05C46.0213 276.05 45.2585 276.339 44.6364 276.919C44.0142 277.499 43.5582 278.376 43.2685 279.553L42.5014 282.685C42.1094 284.287 41.483 285.489 40.6222 286.29C39.7528 287.091 38.6832 287.491 37.4134 287.491C36.3565 287.491 35.4276 287.214 34.6264 286.661C33.8253 286.107 33.1989 285.344 32.7472 284.372C32.2955 283.401 32.0696 282.288 32.0696 281.036C32.0696 279.374 32.4616 278.018 33.2457 276.97C34.0298 275.922 35.1463 275.163 36.5952 274.695ZM52 268.99H32.3636V267.443H52V268.99ZM28.8864 268.21C28.8864 268.551 28.767 268.849 28.5284 269.105C28.2898 269.352 28 269.475 27.6591 269.475C27.3182 269.475 27.0284 269.352 26.7898 269.105C26.5511 268.858 26.4318 268.559 26.4318 268.21C26.4318 267.869 26.5511 267.575 26.7898 267.328C27.0284 267.072 27.3182 266.944 27.6591 266.944C28 266.944 28.2898 267.068 28.5284 267.315C28.767 267.562 28.8864 267.86 28.8864 268.21ZM52.4091 253.61C52.4091 255.23 51.9744 256.67 51.1051 257.931C50.2273 259.193 49.0213 260.186 47.4872 260.91C45.9531 261.635 44.206 261.997 42.2457 261.997C40.277 261.997 38.5298 261.635 37.0043 260.91C35.4702 260.186 34.2642 259.193 33.3864 257.931C32.5085 256.67 32.0696 255.23 32.0696 253.61C32.0696 251.991 32.5085 250.551 33.3864 249.289C34.2642 248.028 35.4702 247.035 37.0043 246.311C38.5384 245.586 40.2855 245.224 42.2457 245.224C44.206 245.224 45.9531 245.586 47.4872 246.311C49.0213 247.035 50.2273 248.028 51.1051 249.289C51.9744 250.551 52.4091 251.991 52.4091 253.61ZM50.9645 253.61C50.9645 252.238 50.5767 251.041 49.8011 250.018C49.0256 248.987 47.9773 248.19 46.6563 247.627C45.3352 247.056 43.8651 246.771 42.2457 246.771C40.6264 246.771 39.1605 247.056 37.848 247.627C36.527 248.199 35.4787 248.995 34.7031 250.018C33.919 251.041 33.527 252.238 33.527 253.61C33.527 254.983 33.919 256.18 34.7031 257.203C35.4787 258.225 36.527 259.022 37.848 259.593C39.1605 260.164 40.6264 260.45 42.2457 260.45C43.8651 260.45 45.3352 260.169 46.6563 259.606C47.9773 259.035 49.0256 258.238 49.8011 257.216C50.5767 256.184 50.9645 254.983 50.9645 253.61ZM39.267 238.292H52V239.852H32.3636V238.33H35.4702V238.177C34.456 237.717 33.642 236.979 33.0284 235.965C32.4148 234.951 32.108 233.745 32.108 232.347C32.108 231.026 32.3892 229.867 32.9517 228.87C33.5142 227.864 34.3153 227.08 35.3551 226.518C36.3864 225.947 37.6179 225.661 39.0497 225.661H52V227.221H39.1136C37.4432 227.221 36.1009 227.719 35.0866 228.717C34.0639 229.705 33.5526 231.013 33.5526 232.641C33.5526 233.732 33.7912 234.704 34.2685 235.556C34.7457 236.408 35.4148 237.077 36.2756 237.563C37.1278 238.049 38.125 238.292 39.267 238.292Z" fill="#343A40"/>
<rect x="100" y="500" width="375" height="10" transform="rotate(-90 100 500)" fill="#0E8F8D"/>
<path d="M125.818 478.023V476.425H143.153C144.935 476.425 146.524 476.839 147.922 477.665C149.311 478.492 150.411 479.634 151.22 481.092C152.021 482.54 152.422 484.207 152.422 486.09C152.422 487.965 152.021 489.631 151.22 491.089C150.411 492.546 149.307 493.692 147.909 494.528C146.511 495.354 144.926 495.763 143.153 495.755H125.818V494.157H143.064C144.572 494.157 145.915 493.816 147.091 493.134C148.267 492.444 149.196 491.494 149.878 490.283C150.551 489.073 150.888 487.675 150.888 486.09C150.888 484.505 150.551 483.107 149.878 481.897C149.196 480.687 148.267 479.741 147.091 479.059C145.915 478.369 144.572 478.023 143.064 478.023H125.818ZM139.267 467.85H152V469.41H132.364V467.889H135.47V467.735C134.456 467.275 133.642 466.538 133.028 465.524C132.415 464.51 132.108 463.304 132.108 461.906C132.108 460.585 132.389 459.426 132.952 458.429C133.514 457.423 134.315 456.639 135.355 456.076C136.386 455.505 137.618 455.22 139.05 455.22H152V456.779H139.114C137.443 456.779 136.101 457.278 135.087 458.275C134.064 459.264 133.553 460.572 133.553 462.2C133.553 463.291 133.791 464.262 134.268 465.115C134.746 465.967 135.415 466.636 136.276 467.122C137.128 467.608 138.125 467.85 139.267 467.85ZM139.267 447.179H152V448.738H125.818V447.179H135.47V447.025C134.447 446.565 133.634 445.832 133.028 444.826C132.415 443.812 132.108 442.598 132.108 441.183C132.108 439.862 132.389 438.699 132.952 437.693C133.506 436.687 134.303 435.903 135.342 435.341C136.374 434.77 137.609 434.484 139.05 434.484H152V436.031H139.114C137.435 436.031 136.088 436.529 135.074 437.527C134.06 438.524 133.553 439.841 133.553 441.477C133.553 442.576 133.791 443.556 134.268 444.417C134.746 445.278 135.415 445.956 136.276 446.45C137.128 446.936 138.125 447.179 139.267 447.179ZM152.422 422.828C152.422 423.962 152.196 425.001 151.744 425.947C151.293 426.885 150.632 427.639 149.763 428.21C148.893 428.773 147.837 429.054 146.592 429.054C145.774 429.054 145.054 428.909 144.432 428.619C143.81 428.33 143.273 427.882 142.821 427.277C142.369 426.672 141.999 425.896 141.709 424.95C141.411 424.004 141.18 422.875 141.018 421.562C140.899 420.565 140.784 419.675 140.673 418.891C140.554 418.107 140.371 417.493 140.124 417.05C139.876 416.598 139.501 416.372 138.999 416.372H138.18C136.749 416.372 135.611 416.824 134.767 417.727C133.923 418.631 133.501 419.875 133.501 421.46C133.501 422.866 133.812 424.051 134.435 425.014C135.048 425.969 135.841 426.638 136.812 427.021L136.263 428.491C135.325 428.116 134.545 427.575 133.923 426.868C133.301 426.152 132.837 425.334 132.53 424.413C132.223 423.484 132.07 422.513 132.07 421.499C132.07 420.621 132.193 419.786 132.44 418.993C132.688 418.192 133.062 417.48 133.565 416.858C134.068 416.227 134.712 415.729 135.496 415.362C136.271 414.996 137.2 414.812 138.283 414.812H152V416.372H148.459V416.487C149.192 416.828 149.861 417.297 150.466 417.893C151.062 418.482 151.54 419.193 151.898 420.028C152.247 420.855 152.422 421.788 152.422 422.828ZM150.977 422.675C150.977 421.447 150.679 420.361 150.082 419.415C149.477 418.46 148.651 417.714 147.602 417.178C146.554 416.641 145.365 416.372 144.036 416.372H141.146C141.317 416.568 141.47 416.854 141.607 417.229C141.734 417.595 141.849 418.013 141.952 418.482C142.045 418.942 142.131 419.428 142.207 419.939C142.276 420.442 142.339 420.932 142.399 421.409C142.57 422.841 142.834 424.009 143.192 424.912C143.541 425.807 144.001 426.463 144.572 426.881C145.143 427.29 145.834 427.494 146.643 427.494C147.982 427.494 149.038 427.034 149.814 426.114C150.589 425.193 150.977 424.047 150.977 422.675ZM159.364 408.273H132.364V406.752H136.749V406.56C135.905 406.254 135.129 405.823 134.422 405.269C133.714 404.707 133.148 404.012 132.722 403.185C132.287 402.35 132.07 401.37 132.07 400.245C132.07 398.66 132.504 397.279 133.374 396.103C134.243 394.927 135.445 394.015 136.979 393.367C138.504 392.719 140.256 392.396 142.233 392.396C144.21 392.396 145.966 392.724 147.5 393.38C149.026 394.028 150.227 394.94 151.105 396.116C151.974 397.283 152.409 398.651 152.409 400.219C152.409 401.336 152.196 402.316 151.77 403.16C151.344 403.995 150.777 404.698 150.07 405.269C149.354 405.832 148.57 406.262 147.717 406.56V406.714H159.364V408.273ZM142.22 406.739C143.891 406.739 145.386 406.484 146.707 405.972C148.02 405.461 149.06 404.728 149.827 403.773C150.585 402.819 150.964 401.681 150.964 400.36C150.964 399.022 150.581 397.876 149.814 396.921C149.038 395.958 147.99 395.225 146.669 394.722C145.348 394.211 143.865 393.955 142.22 393.955C140.575 393.955 139.097 394.207 137.784 394.71C136.472 395.212 135.436 395.941 134.678 396.896C133.911 397.85 133.527 399.005 133.527 400.36C133.527 401.698 133.906 402.844 134.665 403.799C135.415 404.745 136.446 405.474 137.759 405.985C139.062 406.488 140.55 406.739 142.22 406.739ZM159.364 387.004H132.364V385.483H136.749V385.291C135.905 384.984 135.129 384.554 134.422 384C133.714 383.437 133.148 382.743 132.722 381.916C132.287 381.081 132.07 380.1 132.07 378.975C132.07 377.39 132.504 376.01 133.374 374.833C134.243 373.657 135.445 372.745 136.979 372.098C138.504 371.45 140.256 371.126 142.233 371.126C144.21 371.126 145.966 371.454 147.5 372.11C149.026 372.758 150.227 373.67 151.105 374.846C151.974 376.014 152.409 377.382 152.409 378.95C152.409 380.066 152.196 381.047 151.77 381.89C151.344 382.725 150.777 383.429 150.07 384C149.354 384.562 148.57 384.993 147.717 385.291V385.444H159.364V387.004ZM142.22 385.47C143.891 385.47 145.386 385.214 146.707 384.703C148.02 384.191 149.06 383.458 149.827 382.504C150.585 381.549 150.964 380.412 150.964 379.091C150.964 377.752 150.581 376.606 149.814 375.652C149.038 374.689 147.99 373.956 146.669 373.453C145.348 372.941 143.865 372.686 142.22 372.686C140.575 372.686 139.097 372.937 137.784 373.44C136.472 373.943 135.436 374.672 134.678 375.626C133.911 376.581 133.527 377.735 133.527 379.091C133.527 380.429 133.906 381.575 134.665 382.529C135.415 383.475 136.446 384.204 137.759 384.716C139.062 385.218 140.55 385.47 142.22 385.47ZM159.364 365.185C159.364 365.577 159.321 365.964 159.236 366.348C159.151 366.732 159.04 367.077 158.903 367.384L157.536 366.923C157.842 366.122 157.953 365.398 157.868 364.75C157.783 364.094 157.484 363.514 156.973 363.011C156.462 362.509 155.712 362.082 154.723 361.733L152.268 360.838L132.364 368.036V366.361L149.993 360.122V359.994L132.364 353.756V352.081L155.337 360.365C156.223 360.68 156.964 361.077 157.561 361.554C158.158 362.031 158.605 362.577 158.903 363.19C159.21 363.795 159.364 364.46 159.364 365.185ZM152.358 330.485C152.358 331.977 152.047 333.302 151.425 334.461C150.803 335.612 149.963 336.52 148.906 337.184C147.841 337.841 146.643 338.169 145.314 338.169C144.428 338.169 143.618 337.994 142.885 337.645C142.143 337.295 141.415 336.767 140.699 336.059C139.974 335.343 139.207 334.44 138.398 333.349L135.547 329.527C134.746 328.453 133.996 327.669 133.297 327.174C132.589 326.672 131.78 326.42 130.868 326.42C129.777 326.42 128.844 326.795 128.068 327.545C127.293 328.287 126.905 329.233 126.905 330.383C126.905 331.167 127.109 331.887 127.518 332.544C127.919 333.191 128.443 333.711 129.091 334.103C129.739 334.487 130.433 334.679 131.175 334.679C131.754 334.679 132.33 334.542 132.901 334.27C133.463 333.988 134.085 333.592 134.767 333.081C135.44 332.561 136.224 331.939 137.119 331.214L152 319.299V321.191L138.359 332.135C137.32 332.978 136.408 333.707 135.624 334.321C134.839 334.934 134.094 335.407 133.386 335.74C132.679 336.072 131.933 336.238 131.149 336.238C130.101 336.238 129.151 335.983 128.298 335.471C127.437 334.951 126.756 334.252 126.253 333.375C125.75 332.497 125.499 331.508 125.499 330.409C125.499 329.318 125.737 328.355 126.214 327.52C126.683 326.684 127.327 326.032 128.145 325.564C128.955 325.095 129.862 324.86 130.868 324.86C131.984 324.86 132.994 325.159 133.898 325.755C134.801 326.343 135.734 327.26 136.697 328.504L139.893 332.799C140.984 334.231 141.956 335.224 142.808 335.778C143.661 336.324 144.496 336.596 145.314 336.596C146.337 336.596 147.27 336.332 148.114 335.804C148.957 335.275 149.635 334.555 150.146 333.643C150.658 332.723 150.918 331.679 150.926 330.511C150.909 329.335 150.679 328.248 150.236 327.251C149.793 326.254 149.175 325.376 148.382 324.618C147.581 323.85 146.631 323.228 145.531 322.751C144.423 322.265 143.192 321.95 141.837 321.805L141.913 320.284C142.979 320.369 143.937 320.556 144.79 320.846C145.634 321.136 146.379 321.473 147.027 321.856C147.675 322.231 148.224 322.593 148.676 322.943C148.812 323.045 148.945 323.143 149.072 323.237C149.2 323.331 149.324 323.433 149.443 323.544C150.372 324.404 151.092 325.461 151.604 326.714C152.107 327.958 152.358 329.216 152.358 330.485ZM152 304.716H125.818V303.118H150.517V290.334H152V304.716ZM152.409 277.716C152.409 279.335 151.974 280.776 151.105 282.037C150.227 283.298 149.021 284.291 147.487 285.016C145.953 285.74 144.206 286.102 142.246 286.102C140.277 286.102 138.53 285.74 137.004 285.016C135.47 284.291 134.264 283.298 133.386 282.037C132.509 280.776 132.07 279.335 132.07 277.716C132.07 276.097 132.509 274.656 133.386 273.395C134.264 272.134 135.47 271.141 137.004 270.416C138.538 269.692 140.286 269.33 142.246 269.33C144.206 269.33 145.953 269.692 147.487 270.416C149.021 271.141 150.227 272.134 151.105 273.395C151.974 274.656 152.409 276.097 152.409 277.716ZM150.964 277.716C150.964 276.344 150.577 275.146 149.801 274.124C149.026 273.092 147.977 272.295 146.656 271.733C145.335 271.162 143.865 270.876 142.246 270.876C140.626 270.876 139.161 271.162 137.848 271.733C136.527 272.304 135.479 273.101 134.703 274.124C133.919 275.146 133.527 276.344 133.527 277.716C133.527 279.088 133.919 280.286 134.703 281.308C135.479 282.331 136.527 283.128 137.848 283.699C139.161 284.27 140.626 284.555 142.246 284.555C143.865 284.555 145.335 284.274 146.656 283.712C147.977 283.141 149.026 282.344 149.801 281.321C150.577 280.29 150.964 279.088 150.964 277.716ZM139.267 262.397H152V263.957H132.364V262.436H135.47V262.282C134.456 261.822 133.642 261.085 133.028 260.071C132.415 259.056 132.108 257.85 132.108 256.453C132.108 255.132 132.389 253.973 132.952 252.975C133.514 251.97 134.315 251.186 135.355 250.623C136.386 250.052 137.618 249.767 139.05 249.767H152V251.326H139.114C137.443 251.326 136.101 251.825 135.087 252.822C134.064 253.811 133.553 255.119 133.553 256.747C133.553 257.838 133.791 258.809 134.268 259.662C134.746 260.514 135.415 261.183 136.276 261.669C137.128 262.154 138.125 262.397 139.267 262.397ZM152.409 235.627C152.409 237.4 151.97 238.943 151.092 240.255C150.214 241.568 149.013 242.582 147.487 243.298C145.962 244.014 144.223 244.372 142.271 244.372C140.311 244.372 138.564 244.014 137.03 243.298C135.496 242.574 134.286 241.581 133.399 240.319C132.513 239.058 132.07 237.618 132.07 235.998C132.07 234.899 132.291 233.859 132.734 232.879C133.169 231.89 133.8 231.021 134.626 230.271C135.453 229.512 136.45 228.92 137.618 228.494C138.786 228.059 140.098 227.842 141.555 227.842H142.527L142.527 243.387H141.108L141.108 229.402C139.685 229.402 138.402 229.691 137.26 230.271C136.118 230.85 135.21 231.639 134.537 232.636C133.864 233.633 133.527 234.754 133.527 235.998C133.527 237.302 133.893 238.466 134.626 239.488C135.351 240.502 136.331 241.308 137.567 241.904C138.803 242.493 140.183 242.799 141.709 242.825H142.348C143.984 242.825 145.455 242.539 146.759 241.968C148.054 241.389 149.081 240.562 149.839 239.488C150.589 238.414 150.964 237.127 150.964 235.627C150.964 234.554 150.786 233.637 150.428 232.879C150.061 232.112 149.618 231.485 149.098 231C148.578 230.514 148.075 230.147 147.589 229.9L148.165 228.481C148.821 228.779 149.477 229.244 150.134 229.875C150.781 230.497 151.322 231.289 151.757 232.252C152.192 233.207 152.409 234.332 152.409 235.627ZM125.818 220.913H152V222.473H125.818V220.913ZM159.364 213.204C159.364 213.596 159.321 213.984 159.236 214.368C159.151 214.751 159.04 215.096 158.903 215.403L157.536 214.943C157.842 214.142 157.953 213.417 157.868 212.77C157.783 212.113 157.484 211.534 156.973 211.031C156.462 210.528 155.712 210.102 154.723 209.752L152.268 208.858L132.364 216.055V214.38L149.993 208.142V208.014L132.364 201.775V200.1L155.337 208.385C156.223 208.7 156.964 209.096 157.561 209.574C158.158 210.051 158.605 210.596 158.903 211.21C159.21 211.815 159.364 212.48 159.364 213.204Z" fill="#343A40"/>
<rect x="200" y="500" width="400" height="10" transform="rotate(-90 200 500)" fill="#8D45BA"/>
<path d="M232.364 481.952C230.736 482.088 229.419 482.753 228.413 483.946C227.408 485.131 226.905 486.665 226.905 488.548C226.905 489.818 227.139 490.948 227.608 491.936C228.077 492.925 228.716 493.7 229.526 494.263C230.335 494.825 231.264 495.107 232.312 495.107C232.986 495.107 233.595 494.979 234.141 494.723C234.678 494.459 235.159 494.088 235.585 493.611C236.003 493.134 236.369 492.567 236.685 491.911C237 491.254 237.277 490.53 237.516 489.737L238.359 486.874C238.658 485.894 239.003 484.99 239.395 484.164C239.787 483.328 240.256 482.604 240.801 481.99C241.338 481.368 241.969 480.887 242.693 480.546C243.418 480.196 244.253 480.021 245.199 480.021C246.58 480.021 247.815 480.379 248.906 481.095C249.997 481.803 250.858 482.813 251.489 484.125C252.111 485.429 252.422 486.968 252.422 488.74C252.422 490.428 252.136 491.898 251.565 493.151C250.994 494.395 250.202 495.379 249.188 496.104C248.165 496.828 246.989 497.237 245.659 497.331V495.695C246.741 495.61 247.679 495.264 248.472 494.659C249.256 494.046 249.861 493.232 250.287 492.218C250.713 491.203 250.926 490.044 250.926 488.74C250.926 487.334 250.687 486.094 250.21 485.02C249.724 483.946 249.051 483.107 248.19 482.502C247.33 481.896 246.328 481.594 245.186 481.594C244.266 481.594 243.477 481.811 242.821 482.246C242.165 482.681 241.598 483.324 241.121 484.176C240.643 485.02 240.217 486.068 239.842 487.321L238.922 490.377C238.3 492.422 237.452 493.986 236.378 495.068C235.304 496.142 233.966 496.679 232.364 496.679C231.017 496.679 229.824 496.321 228.784 495.605C227.736 494.889 226.913 493.918 226.317 492.691C225.72 491.455 225.422 490.061 225.422 488.51C225.422 486.95 225.724 485.574 226.33 484.381C226.926 483.188 227.749 482.242 228.797 481.543C229.837 480.844 231.026 480.456 232.364 480.379V481.952ZM232.364 467.314H233.757V475.892H232.364V467.314ZM227.659 472.99V471.443H247.359C248.161 471.443 248.817 471.29 249.328 470.983C249.831 470.668 250.206 470.259 250.453 469.756C250.692 469.244 250.811 468.699 250.811 468.119C250.811 467.838 250.79 467.595 250.747 467.391C250.705 467.178 250.649 466.977 250.581 466.79L252 466.406C252.085 466.645 252.158 466.909 252.217 467.199C252.286 467.489 252.32 467.83 252.32 468.222C252.32 469.04 252.136 469.816 251.77 470.548C251.403 471.273 250.871 471.861 250.172 472.313C249.473 472.764 248.629 472.99 247.641 472.99H227.659ZM252 461.529H232.364V460.008H235.432V459.867C234.426 459.441 233.621 458.721 233.016 457.707C232.402 456.693 232.095 455.538 232.095 454.242C232.095 454.106 232.095 453.97 232.095 453.833C232.095 453.697 232.099 453.569 232.108 453.45H233.68C233.672 453.552 233.659 453.676 233.642 453.82C233.616 453.957 233.604 454.127 233.604 454.332C233.604 455.423 233.838 456.394 234.307 457.247C234.776 458.09 235.423 458.755 236.25 459.241C237.068 459.727 238.006 459.97 239.062 459.97H252V461.529ZM252.409 442.2C252.409 443.972 251.97 445.515 251.092 446.828C250.214 448.14 249.013 449.154 247.487 449.87C245.962 450.586 244.223 450.944 242.271 450.944C240.311 450.944 238.564 450.586 237.03 449.87C235.496 449.146 234.286 448.153 233.399 446.892C232.513 445.63 232.07 444.19 232.07 442.57C232.07 441.471 232.291 440.431 232.734 439.451C233.169 438.463 233.8 437.593 234.626 436.843C235.453 436.085 236.45 435.492 237.618 435.066C238.786 434.632 240.098 434.414 241.555 434.414H242.527V449.96H241.108V435.974C239.685 435.974 238.402 436.264 237.26 436.843C236.118 437.423 235.21 438.211 234.537 439.208C233.864 440.205 233.527 441.326 233.527 442.57C233.527 443.874 233.893 445.038 234.626 446.061C235.351 447.075 236.331 447.88 237.567 448.477C238.803 449.065 240.183 449.372 241.709 449.397H242.348C243.984 449.397 245.455 449.112 246.759 448.541C248.054 447.961 249.081 447.134 249.839 446.061C250.589 444.987 250.964 443.7 250.964 442.2C250.964 441.126 250.786 440.21 250.428 439.451C250.061 438.684 249.618 438.058 249.098 437.572C248.578 437.086 248.075 436.72 247.589 436.472L248.165 435.053C248.821 435.352 249.477 435.816 250.134 436.447C250.781 437.069 251.322 437.862 251.757 438.825C252.192 439.779 252.409 440.904 252.409 442.2ZM236.595 416.568L236.979 418.012C236.263 418.242 235.645 418.57 235.125 418.997C234.605 419.423 234.205 419.96 233.923 420.607C233.634 421.247 233.489 422.014 233.489 422.909C233.489 424.349 233.847 425.529 234.562 426.45C235.278 427.362 236.212 427.818 237.362 427.818C238.3 427.818 239.075 427.507 239.689 426.884C240.294 426.262 240.754 425.312 241.07 424.034L241.824 421.017C242.207 419.465 242.83 418.298 243.69 417.514C244.543 416.73 245.604 416.338 246.874 416.338C247.956 416.338 248.915 416.632 249.75 417.22C250.585 417.808 251.237 418.622 251.706 419.661C252.175 420.693 252.409 421.894 252.409 423.267C252.409 425.099 251.983 426.603 251.131 427.779C250.27 428.955 249.038 429.71 247.436 430.042L247.053 428.546C248.331 428.265 249.307 427.681 249.98 426.795C250.645 425.9 250.977 424.728 250.977 423.279C250.977 421.677 250.598 420.386 249.839 419.406C249.081 418.417 248.109 417.923 246.925 417.923C246.021 417.923 245.259 418.213 244.636 418.792C244.014 419.372 243.558 420.249 243.268 421.426L242.501 424.558C242.109 426.16 241.483 427.362 240.622 428.163C239.753 428.964 238.683 429.365 237.413 429.365C236.357 429.365 235.428 429.088 234.626 428.534C233.825 427.98 233.199 427.217 232.747 426.245C232.295 425.274 232.07 424.161 232.07 422.909C232.07 421.247 232.462 419.892 233.246 418.843C234.03 417.795 235.146 417.036 236.595 416.568ZM236.595 398.462L236.979 399.907C236.263 400.137 235.645 400.465 235.125 400.891C234.605 401.317 234.205 401.854 233.923 402.502C233.634 403.141 233.489 403.908 233.489 404.803C233.489 406.243 233.847 407.424 234.562 408.344C235.278 409.256 236.212 409.712 237.362 409.712C238.3 409.712 239.075 409.401 239.689 408.779C240.294 408.157 240.754 407.206 241.07 405.928L241.824 402.911C242.207 401.36 242.83 400.192 243.69 399.408C244.543 398.624 245.604 398.232 246.874 398.232C247.956 398.232 248.915 398.526 249.75 399.114C250.585 399.702 251.237 400.516 251.706 401.556C252.175 402.587 252.409 403.789 252.409 405.161C252.409 406.993 251.983 408.498 251.131 409.674C250.27 410.85 249.038 411.604 247.436 411.937L247.053 410.441C248.331 410.16 249.307 409.576 249.98 408.689C250.645 407.795 250.977 406.623 250.977 405.174C250.977 403.572 250.598 402.28 249.839 401.3C249.081 400.312 248.109 399.817 246.925 399.817C246.021 399.817 245.259 400.107 244.636 400.687C244.014 401.266 243.558 402.144 243.268 403.32L242.501 406.452C242.109 408.055 241.483 409.256 240.622 410.057C239.753 410.858 238.683 411.259 237.413 411.259C236.357 411.259 235.428 410.982 234.626 410.428C233.825 409.874 233.199 409.111 232.747 408.14C232.295 407.168 232.07 406.056 232.07 404.803C232.07 403.141 232.462 401.786 233.246 400.738C234.03 399.689 235.146 398.931 236.595 398.462ZM252.358 376.112C252.358 377.604 252.047 378.929 251.425 380.088C250.803 381.239 249.963 382.146 248.906 382.811C247.841 383.468 246.643 383.796 245.314 383.796C244.428 383.796 243.618 383.621 242.885 383.271C242.143 382.922 241.415 382.394 240.699 381.686C239.974 380.97 239.207 380.067 238.398 378.976L235.547 375.154C234.746 374.08 233.996 373.296 233.297 372.801C232.589 372.298 231.78 372.047 230.868 372.047C229.777 372.047 228.844 372.422 228.068 373.172C227.293 373.914 226.905 374.86 226.905 376.01C226.905 376.794 227.109 377.514 227.518 378.171C227.919 378.818 228.443 379.338 229.091 379.73C229.739 380.114 230.433 380.306 231.175 380.306C231.754 380.306 232.33 380.169 232.901 379.896C233.463 379.615 234.085 379.219 234.767 378.708C235.44 378.188 236.224 377.566 237.119 376.841L252 364.926V366.818L238.359 377.762C237.32 378.605 236.408 379.334 235.624 379.948C234.839 380.561 234.094 381.034 233.386 381.367C232.679 381.699 231.933 381.865 231.149 381.865C230.101 381.865 229.151 381.61 228.298 381.098C227.437 380.578 226.756 379.879 226.253 379.002C225.75 378.124 225.499 377.135 225.499 376.036C225.499 374.945 225.737 373.982 226.214 373.146C226.683 372.311 227.327 371.659 228.145 371.191C228.955 370.722 229.862 370.487 230.868 370.487C231.984 370.487 232.994 370.786 233.898 371.382C234.801 371.97 235.734 372.887 236.697 374.131L239.893 378.426C240.984 379.858 241.956 380.851 242.808 381.405C243.661 381.95 244.496 382.223 245.314 382.223C246.337 382.223 247.27 381.959 248.114 381.431C248.957 380.902 249.635 380.182 250.146 379.27C250.658 378.35 250.918 377.306 250.926 376.138C250.909 374.962 250.679 373.875 250.236 372.878C249.793 371.881 249.175 371.003 248.382 370.244C247.581 369.477 246.631 368.855 245.531 368.378C244.423 367.892 243.192 367.577 241.837 367.432L241.913 365.911C242.979 365.996 243.937 366.183 244.79 366.473C245.634 366.763 246.379 367.1 247.027 367.483C247.675 367.858 248.224 368.22 248.676 368.57C248.812 368.672 248.945 368.77 249.072 368.864C249.2 368.958 249.324 369.06 249.443 369.171C250.372 370.031 251.092 371.088 251.604 372.341C252.107 373.585 252.358 374.843 252.358 376.112ZM252 351.353V353.04L225.818 343.593V341.752L252 332.305V333.992L227.876 342.608V342.736L252 351.353ZM242.143 348.962V336.383H243.626V348.962H242.143ZM239.267 326.411H252V327.971H232.364V326.449H235.47V326.296C234.456 325.836 233.642 325.099 233.028 324.084C232.415 323.07 232.108 321.864 232.108 320.466C232.108 319.145 232.389 317.986 232.952 316.989C233.514 315.983 234.315 315.199 235.355 314.637C236.386 314.066 237.618 313.78 239.05 313.78H252V315.34H239.114C237.443 315.34 236.101 315.839 235.087 316.836C234.064 317.824 233.553 319.133 233.553 320.76C233.553 321.851 233.791 322.823 234.268 323.675C234.746 324.528 235.415 325.197 236.276 325.682C237.128 326.168 238.125 326.411 239.267 326.411ZM232.364 306.711L241.095 301.29L232.364 295.87V294.067L242.182 300.357L252 294.067V295.87L243.409 301.29L252 306.711V308.526L242.182 302.262L232.364 308.526V306.711ZM252 288.765H232.364V287.218H252V288.765ZM228.886 287.985C228.886 288.326 228.767 288.624 228.528 288.88C228.29 289.127 228 289.251 227.659 289.251C227.318 289.251 227.028 289.127 226.79 288.88C226.551 288.633 226.432 288.335 226.432 287.985C226.432 287.644 226.551 287.35 226.79 287.103C227.028 286.847 227.318 286.72 227.659 286.72C228 286.72 228.29 286.843 228.528 287.09C228.767 287.338 228.886 287.636 228.886 287.985ZM252.409 273.028C252.409 274.801 251.97 276.343 251.092 277.656C250.214 278.968 249.013 279.982 247.487 280.698C245.962 281.414 244.223 281.772 242.271 281.772C240.311 281.772 238.564 281.414 237.03 280.698C235.496 279.974 234.286 278.981 233.399 277.72C232.513 276.458 232.07 275.018 232.07 273.399C232.07 272.299 232.291 271.259 232.734 270.279C233.169 269.291 233.8 268.421 234.626 267.671C235.453 266.913 236.45 266.32 237.618 265.894C238.786 265.46 240.098 265.242 241.555 265.242H242.527V280.788H241.108V266.802C239.685 266.802 238.402 267.092 237.26 267.671C236.118 268.251 235.21 269.039 234.537 270.036C233.864 271.034 233.527 272.154 233.527 273.399C233.527 274.703 233.893 275.866 234.626 276.889C235.351 277.903 236.331 278.708 237.567 279.305C238.803 279.893 240.183 280.2 241.709 280.225H242.348C243.984 280.225 245.455 279.94 246.759 279.369C248.054 278.789 249.081 277.963 249.839 276.889C250.589 275.815 250.964 274.528 250.964 273.028C250.964 271.954 250.786 271.038 250.428 270.279C250.061 269.512 249.618 268.886 249.098 268.4C248.578 267.914 248.075 267.548 247.589 267.301L248.165 265.882C248.821 266.18 249.477 266.644 250.134 267.275C250.781 267.897 251.322 268.69 251.757 269.653C252.192 270.607 252.409 271.732 252.409 273.028ZM232.364 252.931H233.757V261.509H232.364V252.931ZM227.659 258.607V257.061H247.359C248.161 257.061 248.817 256.907 249.328 256.6C249.831 256.285 250.206 255.876 250.453 255.373C250.692 254.862 250.811 254.316 250.811 253.737C250.811 253.455 250.79 253.213 250.747 253.008C250.705 252.795 250.649 252.595 250.581 252.407L252 252.024C252.085 252.262 252.158 252.526 252.217 252.816C252.286 253.106 252.32 253.447 252.32 253.839C252.32 254.657 252.136 255.433 251.77 256.166C251.403 256.89 250.871 257.478 250.172 257.93C249.473 258.382 248.629 258.607 247.641 258.607H227.659ZM259.364 245.894C259.364 246.286 259.321 246.673 259.236 247.057C259.151 247.441 259.04 247.786 258.903 248.093L257.536 247.632C257.842 246.831 257.953 246.107 257.868 245.459C257.783 244.803 257.484 244.223 256.973 243.72C256.462 243.218 255.712 242.791 254.723 242.442L252.268 241.547L232.364 248.744V247.07L249.993 240.831V240.703L232.364 234.465V232.79L255.337 241.074C256.223 241.389 256.964 241.786 257.561 242.263C258.158 242.74 258.605 243.286 258.903 243.899C259.21 244.504 259.364 245.169 259.364 245.894Z" fill="#343A40"/>
<rect x="300" y="500" width="225" height="10" transform="rotate(-90 300 500)" fill="#FF415B"/>
<path d="M352 495.997H325.818V487.93C325.818 486.268 326.159 484.845 326.841 483.661C327.523 482.467 328.456 481.551 329.641 480.912C330.825 480.273 332.176 479.953 333.693 479.953C335.193 479.953 336.536 480.273 337.72 480.912C338.905 481.551 339.842 482.467 340.533 483.661C341.214 484.845 341.555 486.264 341.555 487.918V494.872H340.072V487.956C340.072 486.609 339.8 485.459 339.254 484.504C338.7 483.55 337.946 482.817 336.991 482.305C336.028 481.794 334.929 481.538 333.693 481.538C332.449 481.538 331.345 481.794 330.382 482.305C329.419 482.817 328.665 483.554 328.119 484.517C327.574 485.472 327.301 486.622 327.301 487.969V494.399H352V495.997ZM339.267 472.804H352V474.363H325.818V472.804H335.47V472.65C334.447 472.19 333.634 471.457 333.028 470.451C332.415 469.437 332.108 468.223 332.108 466.808C332.108 465.487 332.389 464.324 332.952 463.318C333.506 462.312 334.303 461.528 335.342 460.966C336.374 460.395 337.609 460.109 339.05 460.109H352V461.656H339.114C337.435 461.656 336.088 462.154 335.074 463.152C334.06 464.149 333.553 465.466 333.553 467.102C333.553 468.201 333.791 469.181 334.268 470.042C334.746 470.903 335.415 471.581 336.276 472.075C337.128 472.561 338.125 472.804 339.267 472.804ZM359.364 453.107C359.364 453.499 359.321 453.886 359.236 454.27C359.151 454.653 359.04 454.999 358.903 455.305L357.536 454.845C357.842 454.044 357.953 453.32 357.868 452.672C357.783 452.016 357.484 451.436 356.973 450.933C356.462 450.43 355.712 450.004 354.723 449.655L352.268 448.76L332.364 455.957V454.283L349.993 448.044V447.916L332.364 441.678V440.003L355.337 448.287C356.223 448.602 356.964 448.999 357.561 449.476C358.158 449.953 358.605 450.499 358.903 451.112C359.21 451.717 359.364 452.382 359.364 453.107ZM336.595 422.652L336.979 424.096C336.263 424.326 335.645 424.654 335.125 425.081C334.605 425.507 334.205 426.044 333.923 426.691C333.634 427.331 333.489 428.098 333.489 428.993C333.489 430.433 333.847 431.613 334.562 432.534C335.278 433.446 336.212 433.902 337.362 433.902C338.3 433.902 339.075 433.591 339.689 432.968C340.294 432.346 340.754 431.396 341.07 430.118L341.824 427.1C342.207 425.549 342.83 424.382 343.69 423.598C344.543 422.814 345.604 422.422 346.874 422.422C347.956 422.422 348.915 422.716 349.75 423.304C350.585 423.892 351.237 424.706 351.706 425.745C352.175 426.777 352.409 427.978 352.409 429.35C352.409 431.183 351.983 432.687 351.131 433.863C350.27 435.039 349.038 435.794 347.436 436.126L347.053 434.63C348.331 434.349 349.307 433.765 349.98 432.879C350.645 431.984 350.977 430.812 350.977 429.363C350.977 427.761 350.598 426.47 349.839 425.49C349.081 424.501 348.109 424.007 346.925 424.007C346.021 424.007 345.259 424.297 344.636 424.876C344.014 425.456 343.558 426.333 343.268 427.51L342.501 430.642C342.109 432.244 341.483 433.446 340.622 434.247C339.753 435.048 338.683 435.449 337.413 435.449C336.357 435.449 335.428 435.172 334.626 434.618C333.825 434.064 333.199 433.301 332.747 432.329C332.295 431.358 332.07 430.245 332.07 428.993C332.07 427.331 332.462 425.975 333.246 424.927C334.03 423.879 335.146 423.12 336.595 422.652ZM352 416.947H332.364V415.4H352V416.947ZM328.886 416.167C328.886 416.508 328.767 416.806 328.528 417.062C328.29 417.309 328 417.433 327.659 417.433C327.318 417.433 327.028 417.309 326.79 417.062C326.551 416.815 326.432 416.516 326.432 416.167C326.432 415.826 326.551 415.532 326.79 415.285C327.028 415.029 327.318 414.901 327.659 414.901C328 414.901 328.29 415.025 328.528 415.272C328.767 415.519 328.886 415.817 328.886 416.167ZM352.409 401.504C352.409 403.174 351.97 404.644 351.092 405.914C350.206 407.184 348.996 408.177 347.462 408.893C345.928 409.6 344.189 409.954 342.246 409.954C340.303 409.954 338.564 409.596 337.03 408.88C335.496 408.164 334.286 407.171 333.399 405.901C332.513 404.631 332.07 403.17 332.07 401.516C332.07 400.272 332.325 399.138 332.837 398.116C333.348 397.085 334.06 396.232 334.972 395.559C335.884 394.877 336.94 394.442 338.142 394.255V395.84C336.812 396.096 335.713 396.735 334.844 397.758C333.966 398.772 333.527 400.021 333.527 401.504C333.527 402.833 333.902 404.018 334.652 405.058C335.393 406.097 336.42 406.915 337.733 407.512C339.037 408.109 340.533 408.407 342.22 408.407C343.882 408.407 345.374 408.117 346.695 407.538C348.007 406.958 349.047 406.148 349.814 405.109C350.581 404.069 350.964 402.867 350.964 401.504C350.964 400.54 350.773 399.663 350.389 398.87C350.006 398.069 349.46 397.4 348.753 396.863C348.045 396.326 347.219 395.972 346.273 395.802V394.217C347.483 394.404 348.548 394.83 349.469 395.495C350.389 396.16 351.109 397.008 351.629 398.039C352.149 399.07 352.409 400.225 352.409 401.504ZM352.422 383.695C352.422 384.829 352.196 385.869 351.744 386.815C351.293 387.752 350.632 388.506 349.763 389.077C348.893 389.64 347.837 389.921 346.592 389.921C345.774 389.921 345.054 389.776 344.432 389.487C343.81 389.197 343.273 388.749 342.821 388.144C342.369 387.539 341.999 386.763 341.709 385.817C341.411 384.871 341.18 383.742 341.018 382.43C340.899 381.433 340.784 380.542 340.673 379.758C340.554 378.974 340.371 378.36 340.124 377.917C339.876 377.465 339.501 377.239 338.999 377.239H338.18C336.749 377.239 335.611 377.691 334.767 378.594C333.923 379.498 333.501 380.742 333.501 382.327C333.501 383.734 333.812 384.918 334.435 385.881C335.048 386.836 335.841 387.505 336.812 387.888L336.263 389.359C335.325 388.984 334.545 388.442 333.923 387.735C333.301 387.019 332.837 386.201 332.53 385.281C332.223 384.352 332.07 383.38 332.07 382.366C332.07 381.488 332.193 380.653 332.44 379.86C332.688 379.059 333.062 378.347 333.565 377.725C334.068 377.094 334.712 376.596 335.496 376.229C336.271 375.863 337.2 375.68 338.283 375.68H352V377.239H348.459V377.354C349.192 377.695 349.861 378.164 350.466 378.761C351.062 379.349 351.54 380.06 351.898 380.896C352.247 381.722 352.422 382.656 352.422 383.695ZM350.977 383.542C350.977 382.315 350.679 381.228 350.082 380.282C349.477 379.327 348.651 378.582 347.602 378.045C346.554 377.508 345.365 377.239 344.036 377.239H341.146C341.317 377.435 341.47 377.721 341.607 378.096C341.734 378.462 341.849 378.88 341.952 379.349C342.045 379.809 342.131 380.295 342.207 380.806C342.276 381.309 342.339 381.799 342.399 382.276C342.57 383.708 342.834 384.876 343.192 385.779C343.541 386.674 344.001 387.33 344.572 387.748C345.143 388.157 345.834 388.362 346.643 388.362C347.982 388.362 349.038 387.901 349.814 386.981C350.589 386.06 350.977 384.914 350.977 383.542ZM325.818 367.581H352V369.141H325.818V367.581ZM352 350.45H325.818V348.852H338.155V333.077H325.818V331.479H352V333.077H339.638V348.852H352V350.45ZM352.409 316.799C352.409 318.572 351.97 320.115 351.092 321.427C350.214 322.74 349.013 323.754 347.487 324.47C345.962 325.186 344.223 325.544 342.271 325.544C340.311 325.544 338.564 325.186 337.03 324.47C335.496 323.745 334.286 322.752 333.399 321.491C332.513 320.23 332.07 318.789 332.07 317.17C332.07 316.071 332.291 315.031 332.734 314.051C333.169 313.062 333.8 312.193 334.626 311.443C335.453 310.684 336.45 310.092 337.618 309.666C338.786 309.231 340.098 309.014 341.555 309.014H342.527V324.559H341.108V310.574C339.685 310.574 338.402 310.863 337.26 311.443C336.118 312.022 335.21 312.811 334.537 313.808C333.864 314.805 333.527 315.926 333.527 317.17C333.527 318.474 333.893 319.637 334.626 320.66C335.351 321.674 336.331 322.48 337.567 323.076C338.803 323.664 340.183 323.971 341.709 323.997H342.348C343.984 323.997 345.455 323.711 346.759 323.14C348.054 322.561 349.081 321.734 349.839 320.66C350.589 319.586 350.964 318.299 350.964 316.799C350.964 315.725 350.786 314.809 350.428 314.051C350.061 313.284 349.618 312.657 349.098 312.172C348.578 311.686 348.075 311.319 347.589 311.072L348.165 309.653C348.821 309.951 349.477 310.416 350.134 311.047C350.781 311.669 351.322 312.461 351.757 313.424C352.192 314.379 352.409 315.504 352.409 316.799ZM352.422 298.441C352.422 299.575 352.196 300.615 351.744 301.561C351.293 302.498 350.632 303.252 349.763 303.824C348.893 304.386 347.837 304.667 346.592 304.667C345.774 304.667 345.054 304.522 344.432 304.233C343.81 303.943 343.273 303.495 342.821 302.89C342.369 302.285 341.999 301.51 341.709 300.564C341.411 299.618 341.18 298.488 341.018 297.176C340.899 296.179 340.784 295.288 340.673 294.504C340.554 293.72 340.371 293.106 340.124 292.663C339.876 292.211 339.501 291.985 338.999 291.985H338.18C336.749 291.985 335.611 292.437 334.767 293.341C333.923 294.244 333.501 295.488 333.501 297.074C333.501 298.48 333.812 299.664 334.435 300.627C335.048 301.582 335.841 302.251 336.812 302.635L336.263 304.105C335.325 303.73 334.545 303.189 333.923 302.481C333.301 301.765 332.837 300.947 332.53 300.027C332.223 299.098 332.07 298.126 332.07 297.112C332.07 296.234 332.193 295.399 332.44 294.606C332.688 293.805 333.062 293.093 333.565 292.471C334.068 291.841 334.712 291.342 335.496 290.975C336.271 290.609 337.2 290.426 338.283 290.426H352V291.985H348.459V292.1C349.192 292.441 349.861 292.91 350.466 293.507C351.062 294.095 351.54 294.806 351.898 295.642C352.247 296.468 352.422 297.402 352.422 298.441ZM350.977 298.288C350.977 297.061 350.679 295.974 350.082 295.028C349.477 294.074 348.651 293.328 347.602 292.791C346.554 292.254 345.365 291.985 344.036 291.985H341.146C341.317 292.181 341.47 292.467 341.607 292.842C341.734 293.208 341.849 293.626 341.952 294.095C342.045 294.555 342.131 295.041 342.207 295.552C342.276 296.055 342.339 296.545 342.399 297.022C342.57 298.454 342.834 299.622 343.192 300.525C343.541 301.42 344.001 302.076 344.572 302.494C345.143 302.903 345.834 303.108 346.643 303.108C347.982 303.108 349.038 302.647 349.814 301.727C350.589 300.806 350.977 299.66 350.977 298.288ZM325.818 282.327H352V283.887H325.818V282.327ZM332.364 268.929H333.757V277.507H332.364V268.929ZM327.659 274.605V273.059H347.359C348.161 273.059 348.817 272.905 349.328 272.598C349.831 272.283 350.206 271.874 350.453 271.371C350.692 270.86 350.811 270.314 350.811 269.735C350.811 269.453 350.79 269.211 350.747 269.006C350.705 268.793 350.649 268.593 350.581 268.405L352 268.022C352.085 268.26 352.158 268.525 352.217 268.814C352.286 269.104 352.32 269.445 352.32 269.837C352.32 270.655 352.136 271.431 351.77 272.164C351.403 272.888 350.871 273.476 350.172 273.928C349.473 274.38 348.629 274.605 347.641 274.605H327.659ZM339.267 261.163H352V262.723H325.818V261.163H335.47V261.01C334.447 260.549 333.634 259.816 333.028 258.811C332.415 257.797 332.108 256.582 332.108 255.167C332.108 253.846 332.389 252.683 332.952 251.677C333.506 250.672 334.303 249.887 335.342 249.325C336.374 248.754 337.609 248.468 339.05 248.468H352V250.015H339.114C337.435 250.015 336.088 250.514 335.074 251.511C334.06 252.508 333.553 253.825 333.553 255.461C333.553 256.561 333.791 257.541 334.268 258.402C334.746 259.262 335.415 259.94 336.276 260.434C337.128 260.92 338.125 261.163 339.267 261.163ZM325.818 229.743H352V231.341H325.818V229.743ZM336.595 210.238L336.979 211.682C336.263 211.912 335.645 212.24 335.125 212.667C334.605 213.093 334.205 213.63 333.923 214.277C333.634 214.917 333.489 215.684 333.489 216.578C333.489 218.019 333.847 219.199 334.562 220.12C335.278 221.032 336.212 221.488 337.362 221.488C338.3 221.488 339.075 221.176 339.689 220.554C340.294 219.932 340.754 218.982 341.07 217.703L341.824 214.686C342.207 213.135 342.83 211.968 343.69 211.184C344.543 210.4 345.604 210.007 346.874 210.007C347.956 210.007 348.915 210.301 349.75 210.89C350.585 211.478 351.237 212.292 351.706 213.331C352.175 214.363 352.409 215.564 352.409 216.936C352.409 218.769 351.983 220.273 351.131 221.449C350.27 222.625 349.038 223.38 347.436 223.712L347.053 222.216C348.331 221.935 349.307 221.351 349.98 220.465C350.645 219.57 350.977 218.398 350.977 216.949C350.977 215.347 350.598 214.056 349.839 213.076C349.081 212.087 348.109 211.593 346.925 211.593C346.021 211.593 345.259 211.882 344.636 212.462C344.014 213.042 343.558 213.919 343.268 215.096L342.501 218.228C342.109 219.83 341.483 221.032 340.622 221.833C339.753 222.634 338.683 223.034 337.413 223.034C336.357 223.034 335.428 222.757 334.626 222.203C333.825 221.65 333.199 220.887 332.747 219.915C332.295 218.944 332.07 217.831 332.07 216.578C332.07 214.917 332.462 213.561 333.246 212.513C334.03 211.465 335.146 210.706 336.595 210.238ZM336.595 192.132L336.979 193.577C336.263 193.807 335.645 194.135 335.125 194.561C334.605 194.987 334.205 195.524 333.923 196.172C333.634 196.811 333.489 197.578 333.489 198.473C333.489 199.913 333.847 201.094 334.562 202.014C335.278 202.926 336.212 203.382 337.362 203.382C338.3 203.382 339.075 203.071 339.689 202.449C340.294 201.827 340.754 200.876 341.07 199.598L341.824 196.581C342.207 195.03 342.83 193.862 343.69 193.078C344.543 192.294 345.604 191.902 346.874 191.902C347.956 191.902 348.915 192.196 349.75 192.784C350.585 193.372 351.237 194.186 351.706 195.226C352.175 196.257 352.409 197.459 352.409 198.831C352.409 200.663 351.983 202.168 351.131 203.344C350.27 204.52 349.038 205.274 347.436 205.607L347.053 204.111C348.331 203.83 349.307 203.246 349.98 202.359C350.645 201.464 350.977 200.293 350.977 198.844C350.977 197.241 350.598 195.95 349.839 194.97C349.081 193.982 348.109 193.487 346.925 193.487C346.021 193.487 345.259 193.777 344.636 194.357C344.014 194.936 343.558 195.814 343.268 196.99L342.501 200.122C342.109 201.724 341.483 202.926 340.622 203.727C339.753 204.528 338.683 204.929 337.413 204.929C336.357 204.929 335.428 204.652 334.626 204.098C333.825 203.544 333.199 202.781 332.747 201.81C332.295 200.838 332.07 199.726 332.07 198.473C332.07 196.811 332.462 195.456 333.246 194.408C334.03 193.359 335.146 192.601 336.595 192.132ZM345.033 173.924H332.364V172.365H352V173.924H348.817V174.052C349.831 174.512 350.658 175.258 351.297 176.289C351.936 177.312 352.256 178.522 352.256 179.92C352.256 181.207 351.974 182.345 351.412 183.333C350.849 184.322 350.053 185.098 349.021 185.66C347.982 186.223 346.746 186.504 345.314 186.504H332.364V184.944H345.25C346.886 184.944 348.212 184.45 349.226 183.461C350.232 182.464 350.734 181.177 350.734 179.6C350.734 178.578 350.504 177.636 350.044 176.775C349.584 175.914 348.928 175.224 348.075 174.704C347.214 174.184 346.2 173.924 345.033 173.924ZM352.409 158.245C352.409 160.017 351.97 161.56 351.092 162.873C350.214 164.185 349.013 165.199 347.487 165.915C345.962 166.631 344.223 166.989 342.271 166.989C340.311 166.989 338.564 166.631 337.03 165.915C335.496 165.191 334.286 164.198 333.399 162.936C332.513 161.675 332.07 160.235 332.07 158.615C332.07 157.516 332.291 156.476 332.734 155.496C333.169 154.507 333.8 153.638 334.626 152.888C335.453 152.13 336.45 151.537 337.618 151.111C338.786 150.676 340.098 150.459 341.555 150.459H342.527V166.005H341.108V152.019C339.685 152.019 338.402 152.309 337.26 152.888C336.118 153.468 335.21 154.256 334.537 155.253C333.864 156.25 333.527 157.371 333.527 158.615C333.527 159.919 333.893 161.083 334.626 162.105C335.351 163.12 336.331 163.925 337.567 164.522C338.803 165.11 340.183 165.417 341.709 165.442H342.348C343.984 165.442 345.455 165.157 346.759 164.586C348.054 164.006 349.081 163.179 349.839 162.105C350.589 161.032 350.964 159.745 350.964 158.245C350.964 157.171 350.786 156.255 350.428 155.496C350.061 154.729 349.618 154.103 349.098 153.617C348.578 153.131 348.075 152.765 347.589 152.517L348.165 151.098C348.821 151.397 349.477 151.861 350.134 152.492C350.781 153.114 351.322 153.907 351.757 154.87C352.192 155.824 352.409 156.949 352.409 158.245ZM336.595 132.613L336.979 134.057C336.263 134.287 335.645 134.615 335.125 135.042C334.605 135.468 334.205 136.005 333.923 136.652C333.634 137.292 333.489 138.059 333.489 138.953C333.489 140.394 333.847 141.574 334.562 142.495C335.278 143.407 336.212 143.863 337.362 143.863C338.3 143.863 339.075 143.551 339.689 142.929C340.294 142.307 340.754 141.357 341.07 140.078L341.824 137.061C342.207 135.51 342.83 134.343 343.69 133.559C344.543 132.775 345.604 132.382 346.874 132.382C347.956 132.382 348.915 132.676 349.75 133.265C350.585 133.853 351.237 134.667 351.706 135.706C352.175 136.738 352.409 137.939 352.409 139.311C352.409 141.144 351.983 142.648 351.131 143.824C350.27 145 349.038 145.755 347.436 146.087L347.053 144.591C348.331 144.31 349.307 143.726 349.98 142.84C350.645 141.945 350.977 140.773 350.977 139.324C350.977 137.722 350.598 136.431 349.839 135.451C349.081 134.462 348.109 133.968 346.925 133.968C346.021 133.968 345.259 134.257 344.636 134.837C344.014 135.417 343.558 136.294 343.268 137.471L342.501 140.603C342.109 142.205 341.483 143.407 340.622 144.208C339.753 145.009 338.683 145.409 337.413 145.409C336.357 145.409 335.428 145.132 334.626 144.578C333.825 144.025 333.199 143.262 332.747 142.29C332.295 141.319 332.07 140.206 332.07 138.953C332.07 137.292 332.462 135.936 333.246 134.888C334.03 133.84 335.146 133.081 336.595 132.613Z" fill="#343A40"/>
<rect x="400" y="500" width="300" height="10" transform="rotate(-90 400 500)" fill="#E9CC32"/>
<path d="M452 495.739H425.818V487.673C425.818 486.011 426.159 484.587 426.841 483.403C427.523 482.21 428.456 481.293 429.641 480.654C430.825 480.015 432.176 479.695 433.693 479.695C435.193 479.695 436.536 480.015 437.72 480.654C438.905 481.293 439.842 482.21 440.533 483.403C441.214 484.587 441.555 486.006 441.555 487.66V494.614H440.072V487.698C440.072 486.352 439.8 485.201 439.254 484.246C438.7 483.292 437.946 482.559 436.991 482.048C436.028 481.536 434.929 481.281 433.693 481.281C432.449 481.281 431.345 481.536 430.382 482.048C429.419 482.559 428.665 483.296 428.119 484.259C427.574 485.214 427.301 486.364 427.301 487.711V494.141H452V495.739ZM439.267 472.546H452V474.105H425.818V472.546H435.47V472.392C434.447 471.932 433.634 471.199 433.028 470.194C432.415 469.179 432.108 467.965 432.108 466.55C432.108 465.229 432.389 464.066 432.952 463.06C433.506 462.054 434.303 461.27 435.342 460.708C436.374 460.137 437.609 459.851 439.05 459.851H452V461.398H439.114C437.435 461.398 436.088 461.897 435.074 462.894C434.06 463.891 433.553 465.208 433.553 466.844C433.553 467.944 433.791 468.924 434.268 469.784C434.746 470.645 435.415 471.323 436.276 471.817C437.128 472.303 438.125 472.546 439.267 472.546ZM459.364 452.849C459.364 453.241 459.321 453.629 459.236 454.012C459.151 454.396 459.04 454.741 458.903 455.048L457.536 454.587C457.842 453.786 457.953 453.062 457.868 452.414C457.783 451.758 457.484 451.178 456.973 450.675C456.462 450.173 455.712 449.746 454.723 449.397L452.268 448.502L432.364 455.7V454.025L449.993 447.786V447.658L432.364 441.42V439.745L455.337 448.029C456.223 448.344 456.964 448.741 457.561 449.218C458.158 449.695 458.605 450.241 458.903 450.854C459.21 451.46 459.364 452.124 459.364 452.849ZM436.595 422.394L436.979 423.838C436.263 424.069 435.645 424.397 435.125 424.823C434.605 425.249 434.205 425.786 433.923 426.434C433.634 427.073 433.489 427.84 433.489 428.735C433.489 430.175 433.847 431.355 434.562 432.276C435.278 433.188 436.212 433.644 437.362 433.644C438.3 433.644 439.075 433.333 439.689 432.711C440.294 432.088 440.754 431.138 441.07 429.86L441.824 426.843C442.207 425.292 442.83 424.124 443.69 423.34C444.543 422.556 445.604 422.164 446.874 422.164C447.956 422.164 448.915 422.458 449.75 423.046C450.585 423.634 451.237 424.448 451.706 425.488C452.175 426.519 452.409 427.721 452.409 429.093C452.409 430.925 451.983 432.429 451.131 433.605C450.27 434.782 449.038 435.536 447.436 435.868L447.053 434.373C448.331 434.091 449.307 433.507 449.98 432.621C450.645 431.726 450.977 430.554 450.977 429.105C450.977 427.503 450.598 426.212 449.839 425.232C449.081 424.243 448.109 423.749 446.925 423.749C446.021 423.749 445.259 424.039 444.636 424.618C444.014 425.198 443.558 426.076 443.268 427.252L442.501 430.384C442.109 431.986 441.483 433.188 440.622 433.989C439.753 434.79 438.683 435.191 437.413 435.191C436.357 435.191 435.428 434.914 434.626 434.36C433.825 433.806 433.199 433.043 432.747 432.071C432.295 431.1 432.07 429.988 432.07 428.735C432.07 427.073 432.462 425.718 433.246 424.669C434.03 423.621 435.146 422.863 436.595 422.394ZM452 416.689H432.364V415.142H452V416.689ZM428.886 415.909C428.886 416.25 428.767 416.548 428.528 416.804C428.29 417.051 428 417.175 427.659 417.175C427.318 417.175 427.028 417.051 426.79 416.804C426.551 416.557 426.432 416.259 426.432 415.909C426.432 415.568 426.551 415.274 426.79 415.027C427.028 414.771 427.318 414.643 427.659 414.643C428 414.643 428.29 414.767 428.528 415.014C428.767 415.261 428.886 415.56 428.886 415.909ZM452.409 401.246C452.409 402.916 451.97 404.386 451.092 405.656C450.206 406.926 448.996 407.919 447.462 408.635C445.928 409.342 444.189 409.696 442.246 409.696C440.303 409.696 438.564 409.338 437.03 408.622C435.496 407.906 434.286 406.913 433.399 405.643C432.513 404.374 432.07 402.912 432.07 401.259C432.07 400.014 432.325 398.881 432.837 397.858C433.348 396.827 434.06 395.974 434.972 395.301C435.884 394.619 436.94 394.185 438.142 393.997V395.582C436.812 395.838 435.713 396.477 434.844 397.5C433.966 398.514 433.527 399.763 433.527 401.246C433.527 402.575 433.902 403.76 434.652 404.8C435.393 405.839 436.42 406.658 437.733 407.254C439.037 407.851 440.533 408.149 442.22 408.149C443.882 408.149 445.374 407.859 446.695 407.28C448.007 406.7 449.047 405.891 449.814 404.851C450.581 403.811 450.964 402.609 450.964 401.246C450.964 400.283 450.773 399.405 450.389 398.612C450.006 397.811 449.46 397.142 448.753 396.605C448.045 396.068 447.219 395.714 446.273 395.544V393.959C447.483 394.146 448.548 394.572 449.469 395.237C450.389 395.902 451.109 396.75 451.629 397.781C452.149 398.812 452.409 399.967 452.409 401.246ZM452.422 383.438C452.422 384.571 452.196 385.611 451.744 386.557C451.293 387.494 450.632 388.249 449.763 388.82C448.893 389.382 447.837 389.663 446.592 389.663C445.774 389.663 445.054 389.518 444.432 389.229C443.81 388.939 443.273 388.491 442.821 387.886C442.369 387.281 441.999 386.506 441.709 385.56C441.411 384.614 441.18 383.484 441.018 382.172C440.899 381.175 440.784 380.284 440.673 379.5C440.554 378.716 440.371 378.102 440.124 377.659C439.876 377.207 439.501 376.982 438.999 376.982H438.18C436.749 376.982 435.611 377.433 434.767 378.337C433.923 379.24 433.501 380.484 433.501 382.07C433.501 383.476 433.812 384.661 434.435 385.624C435.048 386.578 435.841 387.247 436.812 387.631L436.263 389.101C435.325 388.726 434.545 388.185 433.923 387.477C433.301 386.761 432.837 385.943 432.53 385.023C432.223 384.094 432.07 383.122 432.07 382.108C432.07 381.23 432.193 380.395 432.44 379.602C432.688 378.801 433.062 378.089 433.565 377.467C434.068 376.837 434.712 376.338 435.496 375.972C436.271 375.605 437.2 375.422 438.283 375.422H452V376.982H448.459V377.097C449.192 377.437 449.861 377.906 450.466 378.503C451.062 379.091 451.54 379.803 451.898 380.638C452.247 381.464 452.422 382.398 452.422 383.438ZM450.977 383.284C450.977 382.057 450.679 380.97 450.082 380.024C449.477 379.07 448.651 378.324 447.602 377.787C446.554 377.25 445.365 376.982 444.036 376.982H441.146C441.317 377.178 441.47 377.463 441.607 377.838C441.734 378.205 441.849 378.622 441.952 379.091C442.045 379.551 442.131 380.037 442.207 380.548C442.276 381.051 442.339 381.541 442.399 382.018C442.57 383.45 442.834 384.618 443.192 385.521C443.541 386.416 444.001 387.072 444.572 387.49C445.143 387.899 445.834 388.104 446.643 388.104C447.982 388.104 449.038 387.643 449.814 386.723C450.589 385.803 450.977 384.656 450.977 383.284ZM425.818 367.323H452V368.883H425.818V367.323ZM432.364 336.079C430.736 336.215 429.419 336.88 428.413 338.073C427.408 339.258 426.905 340.792 426.905 342.675C426.905 343.945 427.139 345.075 427.608 346.063C428.077 347.052 428.716 347.827 429.526 348.39C430.335 348.952 431.264 349.234 432.312 349.234C432.986 349.234 433.595 349.106 434.141 348.85C434.678 348.586 435.159 348.215 435.585 347.738C436.003 347.261 436.369 346.694 436.685 346.038C437 345.381 437.277 344.657 437.516 343.864L438.359 341.001C438.658 340.021 439.003 339.117 439.395 338.29C439.787 337.455 440.256 336.731 440.801 336.117C441.338 335.495 441.969 335.013 442.693 334.673C443.418 334.323 444.253 334.148 445.199 334.148C446.58 334.148 447.815 334.506 448.906 335.222C449.997 335.93 450.858 336.94 451.489 338.252C452.111 339.556 452.422 341.094 452.422 342.867C452.422 344.555 452.136 346.025 451.565 347.278C450.994 348.522 450.202 349.506 449.188 350.231C448.165 350.955 446.989 351.364 445.659 351.458V349.822C446.741 349.737 447.679 349.391 448.472 348.786C449.256 348.173 449.861 347.359 450.287 346.344C450.713 345.33 450.926 344.171 450.926 342.867C450.926 341.461 450.687 340.221 450.21 339.147C449.724 338.073 449.051 337.234 448.19 336.629C447.33 336.023 446.328 335.721 445.186 335.721C444.266 335.721 443.477 335.938 442.821 336.373C442.165 336.808 441.598 337.451 441.121 338.303C440.643 339.147 440.217 340.195 439.842 341.448L438.922 344.504C438.3 346.549 437.452 348.113 436.378 349.195C435.304 350.269 433.966 350.806 432.364 350.806C431.017 350.806 429.824 350.448 428.784 349.732C427.736 349.016 426.913 348.045 426.317 346.817C425.72 345.582 425.422 344.188 425.422 342.637C425.422 341.077 425.724 339.701 426.33 338.508C426.926 337.315 427.749 336.369 428.797 335.67C429.837 334.971 431.026 334.583 432.364 334.506V336.079ZM459.364 327.13C459.364 327.522 459.321 327.91 459.236 328.293C459.151 328.677 459.04 329.022 458.903 329.329L457.536 328.869C457.842 328.067 457.953 327.343 457.868 326.695C457.783 326.039 457.484 325.46 456.973 324.957C456.462 324.454 455.712 324.028 454.723 323.678L452.268 322.783L432.364 329.981V328.306L449.993 322.067V321.94L432.364 315.701V314.026L455.337 322.31C456.223 322.626 456.964 323.022 457.561 323.499C458.158 323.977 458.605 324.522 458.903 325.136C459.21 325.741 459.364 326.406 459.364 327.13ZM452 309.152H432.364V307.631H435.33V307.478C434.341 307.103 433.557 306.455 432.977 305.534C432.398 304.614 432.108 303.506 432.108 302.211C432.108 300.787 432.449 299.641 433.131 298.772C433.812 297.894 434.737 297.263 435.905 296.88V296.739C434.754 296.355 433.834 295.669 433.143 294.681C432.453 293.684 432.108 292.456 432.108 290.999C432.108 289.098 432.709 287.65 433.911 286.652C435.104 285.647 436.74 285.144 438.82 285.144H452V286.703H438.82C437.183 286.703 435.896 287.096 434.959 287.88C434.021 288.664 433.553 289.814 433.553 291.331C433.553 292.951 434.06 294.195 435.074 295.064C436.088 295.934 437.379 296.368 438.947 296.368H452V297.928H438.717C437.192 297.928 435.952 298.311 434.997 299.078C434.034 299.846 433.553 300.996 433.553 302.53C433.553 303.57 433.791 304.469 434.268 305.228C434.746 305.978 435.402 306.561 436.237 306.979C437.072 307.388 438.031 307.593 439.114 307.593H452V309.152ZM459.364 278.672H432.364V277.151H436.749V276.959C435.905 276.652 435.129 276.222 434.422 275.668C433.714 275.105 433.148 274.411 432.722 273.584C432.287 272.749 432.07 271.768 432.07 270.643C432.07 269.058 432.504 267.678 433.374 266.501C434.243 265.325 435.445 264.413 436.979 263.766C438.504 263.118 440.256 262.794 442.233 262.794C444.21 262.794 445.966 263.122 447.5 263.778C449.026 264.426 450.227 265.338 451.105 266.514C451.974 267.682 452.409 269.05 452.409 270.618C452.409 271.734 452.196 272.714 451.77 273.558C451.344 274.393 450.777 275.097 450.07 275.668C449.354 276.23 448.57 276.661 447.717 276.959V277.112H459.364V278.672ZM442.22 277.138C443.891 277.138 445.386 276.882 446.707 276.371C448.02 275.859 449.06 275.126 449.827 274.172C450.585 273.217 450.964 272.08 450.964 270.759C450.964 269.42 450.581 268.274 449.814 267.32C449.038 266.357 447.99 265.624 446.669 265.121C445.348 264.609 443.865 264.354 442.22 264.354C440.575 264.354 439.097 264.605 437.784 265.108C436.472 265.611 435.436 266.339 434.678 267.294C433.911 268.249 433.527 269.403 433.527 270.759C433.527 272.097 433.906 273.243 434.665 274.197C435.415 275.143 436.446 275.872 437.759 276.384C439.062 276.886 440.55 277.138 442.22 277.138ZM432.364 250.461H433.757V259.039H432.364V250.461ZM427.659 256.137V254.59H447.359C448.161 254.59 448.817 254.436 449.328 254.13C449.831 253.814 450.206 253.405 450.453 252.902C450.692 252.391 450.811 251.846 450.811 251.266C450.811 250.985 450.79 250.742 450.747 250.537C450.705 250.324 450.649 250.124 450.581 249.936L452 249.553C452.085 249.792 452.158 250.056 452.217 250.346C452.286 250.635 452.32 250.976 452.32 251.368C452.32 252.186 452.136 252.962 451.77 253.695C451.403 254.419 450.871 255.007 450.172 255.459C449.473 255.911 448.629 256.137 447.641 256.137H427.659ZM452.409 237.587C452.409 239.206 451.974 240.647 451.105 241.908C450.227 243.169 449.021 244.162 447.487 244.887C445.953 245.611 444.206 245.973 442.246 245.973C440.277 245.973 438.53 245.611 437.004 244.887C435.47 244.162 434.264 243.169 433.386 241.908C432.509 240.647 432.07 239.206 432.07 237.587C432.07 235.968 432.509 234.527 433.386 233.266C434.264 232.005 435.47 231.012 437.004 230.287C438.538 229.563 440.286 229.201 442.246 229.201C444.206 229.201 445.953 229.563 447.487 230.287C449.021 231.012 450.227 232.005 451.105 233.266C451.974 234.527 452.409 235.968 452.409 237.587ZM450.964 237.587C450.964 236.215 450.577 235.017 449.801 233.995C449.026 232.963 447.977 232.167 446.656 231.604C445.335 231.033 443.865 230.748 442.246 230.748C440.626 230.748 439.161 231.033 437.848 231.604C436.527 232.175 435.479 232.972 434.703 233.995C433.919 235.017 433.527 236.215 433.527 237.587C433.527 238.959 433.919 240.157 434.703 241.179C435.479 242.202 436.527 242.999 437.848 243.57C439.161 244.141 440.626 244.426 442.246 244.426C443.865 244.426 445.335 244.145 446.656 243.583C447.977 243.012 449.026 242.215 449.801 241.192C450.577 240.161 450.964 238.959 450.964 237.587ZM452 223.828H432.364V222.307H435.33V222.153C434.341 221.778 433.557 221.131 432.977 220.21C432.398 219.29 432.108 218.182 432.108 216.886C432.108 215.463 432.449 214.317 433.131 213.447C433.812 212.57 434.737 211.939 435.905 211.555V211.415C434.754 211.031 433.834 210.345 433.143 209.357C432.453 208.359 432.108 207.132 432.108 205.675C432.108 203.774 432.709 202.325 433.911 201.328C435.104 200.322 436.74 199.82 438.82 199.82H452V201.379H438.82C437.183 201.379 435.896 201.771 434.959 202.555C434.021 203.339 433.553 204.49 433.553 206.007C433.553 207.626 434.06 208.871 435.074 209.74C436.088 210.609 437.379 211.044 438.947 211.044H452V212.604H438.717C437.192 212.604 435.952 212.987 434.997 213.754C434.034 214.521 433.553 215.672 433.553 217.206C433.553 218.246 433.791 219.145 434.268 219.903C434.746 220.653 435.402 221.237 436.237 221.655C437.072 222.064 438.031 222.268 439.114 222.268H452V223.828ZM436.595 180.87L436.979 182.315C436.263 182.545 435.645 182.873 435.125 183.299C434.605 183.725 434.205 184.262 433.923 184.91C433.634 185.549 433.489 186.316 433.489 187.211C433.489 188.652 433.847 189.832 434.562 190.752C435.278 191.664 436.212 192.12 437.362 192.12C438.3 192.12 439.075 191.809 439.689 191.187C440.294 190.565 440.754 189.615 441.07 188.336L441.824 185.319C442.207 183.768 442.83 182.6 443.69 181.816C444.543 181.032 445.604 180.64 446.874 180.64C447.956 180.64 448.915 180.934 449.75 181.522C450.585 182.11 451.237 182.924 451.706 183.964C452.175 184.995 452.409 186.197 452.409 187.569C452.409 189.402 451.983 190.906 451.131 192.082C450.27 193.258 449.038 194.012 447.436 194.345L447.053 192.849C448.331 192.568 449.307 191.984 449.98 191.098C450.645 190.203 450.977 189.031 450.977 187.582C450.977 185.98 450.598 184.689 449.839 183.708C449.081 182.72 448.109 182.225 446.925 182.225C446.021 182.225 445.259 182.515 444.636 183.095C444.014 183.674 443.558 184.552 443.268 185.728L442.501 188.86C442.109 190.463 441.483 191.664 440.622 192.466C439.753 193.267 438.683 193.667 437.413 193.667C436.357 193.667 435.428 193.39 434.626 192.836C433.825 192.282 433.199 191.52 432.747 190.548C432.295 189.576 432.07 188.464 432.07 187.211C432.07 185.549 432.462 184.194 433.246 183.146C434.03 182.098 435.146 181.339 436.595 180.87Z" fill="#343A40"/>
<rect x="500" y="500" width="150" height="10" transform="rotate(-90 500 500)" fill="#343A40"/>
<path d="M538.909 474.895C541.611 474.895 543.972 475.363 545.991 476.301C548.003 477.238 549.567 478.542 550.683 480.213C551.8 481.875 552.358 483.792 552.358 485.966C552.358 488.147 551.8 490.074 550.683 491.744C549.558 493.406 547.99 494.706 545.979 495.643C543.959 496.581 541.602 497.049 538.909 497.049C536.207 497.049 533.851 496.581 531.839 495.643C529.828 494.697 528.264 493.393 527.148 491.731C526.023 490.069 525.46 488.147 525.46 485.966C525.46 483.792 526.018 481.875 527.135 480.213C528.251 478.542 529.82 477.238 531.839 476.301C533.851 475.363 536.207 474.895 538.909 474.895ZM538.909 476.454C536.48 476.454 534.375 476.863 532.594 477.681C530.812 478.491 529.436 479.612 528.464 481.044C527.484 482.475 526.994 484.116 526.994 485.966C526.994 487.815 527.48 489.456 528.452 490.887C529.415 492.319 530.791 493.444 532.581 494.262C534.362 495.072 536.472 495.477 538.909 495.477C541.321 495.477 543.422 495.076 545.212 494.275C546.993 493.466 548.374 492.345 549.354 490.913C550.334 489.481 550.824 487.832 550.824 485.966C550.824 484.116 550.338 482.475 549.366 481.044C548.386 479.612 547.006 478.491 545.224 477.681C543.443 476.863 541.338 476.454 538.909 476.454ZM532.364 462.257H533.757V470.836H532.364V462.257ZM527.659 467.934V466.387H547.359C548.161 466.387 548.817 466.233 549.328 465.926C549.831 465.611 550.206 465.202 550.453 464.699C550.692 464.188 550.811 463.642 550.811 463.063C550.811 462.782 550.79 462.539 550.747 462.334C550.705 462.121 550.649 461.921 550.581 461.733L552 461.35C552.085 461.588 552.158 461.853 552.217 462.142C552.286 462.432 552.32 462.773 552.32 463.165C552.32 463.983 552.136 464.759 551.77 465.492C551.403 466.216 550.871 466.804 550.172 467.256C549.473 467.708 548.629 467.934 547.641 467.934H527.659ZM539.267 454.491H552V456.051H525.818V454.491H535.47V454.338C534.447 453.877 533.634 453.145 533.028 452.139C532.415 451.125 532.108 449.91 532.108 448.495C532.108 447.174 532.389 446.011 532.952 445.005C533.506 444 534.303 443.216 535.342 442.653C536.374 442.082 537.609 441.797 539.05 441.797H552V443.343H539.114C537.435 443.343 536.088 443.842 535.074 444.839C534.06 445.836 533.553 447.153 533.553 448.789C533.553 449.889 533.791 450.869 534.268 451.73C534.746 452.591 535.415 453.268 536.276 453.762C537.128 454.248 538.125 454.491 539.267 454.491ZM552.409 427.686C552.409 429.459 551.97 431.001 551.092 432.314C550.214 433.626 549.013 434.641 547.487 435.357C545.962 436.072 544.223 436.43 542.271 436.43C540.311 436.43 538.564 436.072 537.03 435.357C535.496 434.632 534.286 433.639 533.399 432.378C532.513 431.116 532.07 429.676 532.07 428.057C532.07 426.957 532.291 425.918 532.734 424.938C533.169 423.949 533.8 423.08 534.626 422.33C535.453 421.571 536.45 420.979 537.618 420.553C538.786 420.118 540.098 419.901 541.555 419.901H542.527V435.446H541.108V421.46C539.685 421.46 538.402 421.75 537.26 422.33C536.118 422.909 535.21 423.697 534.537 424.695C533.864 425.692 533.527 426.812 533.527 428.057C533.527 429.361 533.893 430.524 534.626 431.547C535.351 432.561 536.331 433.366 537.567 433.963C538.803 434.551 540.183 434.858 541.709 434.884H542.348C543.984 434.884 545.455 434.598 546.759 434.027C548.054 433.447 549.081 432.621 549.839 431.547C550.589 430.473 550.964 429.186 550.964 427.686C550.964 426.612 550.786 425.696 550.428 424.938C550.061 424.17 549.618 423.544 549.098 423.058C548.578 422.572 548.075 422.206 547.589 421.959L548.165 420.54C548.821 420.838 549.477 421.303 550.134 421.933C550.781 422.555 551.322 423.348 551.757 424.311C552.192 425.266 552.409 426.391 552.409 427.686ZM552 414.531H532.364V413.01H535.432V412.869C534.426 412.443 533.621 411.723 533.016 410.709C532.402 409.695 532.095 408.54 532.095 407.244C532.095 407.108 532.095 406.972 532.095 406.835C532.095 406.699 532.099 406.571 532.108 406.452H533.68C533.672 406.554 533.659 406.678 533.642 406.822C533.616 406.959 533.604 407.129 533.604 407.334C533.604 408.425 533.838 409.396 534.307 410.249C534.776 411.092 535.423 411.757 536.25 412.243C537.068 412.729 538.006 412.972 539.062 412.972H552V414.531Z" fill="#343A40"/>
</svg>
