<svg width="563" height="500" viewBox="0 0 563 500" fill="none" xmlns="http://www.w3.org/2000/svg">
<rect y="500" width="175" height="10" transform="rotate(-90 0 500)" fill="#C43739"/>
<path d="M52 496.083H25.8182V481.471H27.3011V494.485H38.1548V482.685H39.6378V494.485H52V496.083ZM52.4219 470.336C52.4219 471.469 52.196 472.509 51.7443 473.455C51.2926 474.393 50.6321 475.147 49.7628 475.718C48.8935 476.281 47.8366 476.562 46.5923 476.562C45.7741 476.562 45.054 476.417 44.4318 476.127C43.8097 475.837 43.2727 475.39 42.821 474.785C42.3693 474.18 41.9986 473.404 41.7088 472.458C41.4105 471.512 41.1804 470.383 41.0185 469.07C40.8991 468.073 40.7841 467.183 40.6733 466.398C40.554 465.614 40.3707 465.001 40.1236 464.558C39.8764 464.106 39.5014 463.88 38.9986 463.88H38.1804C36.7486 463.88 35.6108 464.332 34.767 465.235C33.9233 466.138 33.5014 467.383 33.5014 468.968C33.5014 470.374 33.8125 471.559 34.4347 472.522C35.0483 473.477 35.8409 474.146 36.8125 474.529L36.2628 475.999C35.3253 475.624 34.5455 475.083 33.9233 474.376C33.3011 473.66 32.8366 472.842 32.5298 471.921C32.223 470.992 32.0696 470.021 32.0696 469.006C32.0696 468.129 32.1932 467.293 32.4403 466.501C32.6875 465.7 33.0625 464.988 33.5653 464.366C34.0682 463.735 34.7116 463.237 35.4957 462.87C36.2713 462.504 37.2003 462.32 38.2827 462.32H52V463.88H48.4588V463.995C49.1918 464.336 49.8608 464.805 50.4659 465.401C51.0625 465.989 51.5398 466.701 51.8977 467.536C52.2472 468.363 52.4219 469.296 52.4219 470.336ZM50.9773 470.183C50.9773 468.955 50.679 467.869 50.0824 466.923C49.4773 465.968 48.6506 465.222 47.6023 464.685C46.554 464.148 45.3651 463.88 44.0355 463.88H41.1463C41.3168 464.076 41.4702 464.362 41.6065 464.737C41.7344 465.103 41.8494 465.521 41.9517 465.989C42.0455 466.45 42.1307 466.935 42.2074 467.447C42.2756 467.95 42.3395 468.44 42.3991 468.917C42.5696 470.349 42.8338 471.516 43.1918 472.42C43.5412 473.315 44.0014 473.971 44.5724 474.388C45.1435 474.798 45.8338 475.002 46.6435 475.002C47.9815 475.002 49.0384 474.542 49.8139 473.621C50.5895 472.701 50.9773 471.555 50.9773 470.183ZM52 455.781H32.3636V454.26H35.3295V454.107C34.3409 453.732 33.5568 453.084 32.9773 452.163C32.3977 451.243 32.108 450.135 32.108 448.839C32.108 447.416 32.4489 446.27 33.1307 445.401C33.8125 444.523 34.7372 443.892 35.9048 443.509V443.368C34.7543 442.984 33.8338 442.298 33.1435 441.31C32.4531 440.312 32.108 439.085 32.108 437.628C32.108 435.727 32.7088 434.278 33.9105 433.281C35.1037 432.276 36.7401 431.773 38.8196 431.773H52V433.332H38.8196C37.1832 433.332 35.8963 433.724 34.9588 434.509C34.0213 435.293 33.5526 436.443 33.5526 437.96C33.5526 439.58 34.0597 440.824 35.0739 441.693C36.0881 442.562 37.3793 442.997 38.9474 442.997H52V444.557H38.7173C37.1918 444.557 35.9517 444.94 34.9972 445.707C34.0341 446.474 33.5526 447.625 33.5526 449.159C33.5526 450.199 33.7912 451.098 34.2685 451.857C34.7457 452.607 35.402 453.19 36.2372 453.608C37.0724 454.017 38.0312 454.222 39.1136 454.222H52V455.781ZM52 425.224H32.3636V423.677H52V425.224ZM28.8864 424.444C28.8864 424.785 28.767 425.083 28.5284 425.339C28.2898 425.586 28 425.71 27.6591 425.71C27.3182 425.71 27.0284 425.586 26.7898 425.339C26.5511 425.092 26.4318 424.794 26.4318 424.444C26.4318 424.103 26.5511 423.809 26.7898 423.562C27.0284 423.306 27.3182 423.179 27.6591 423.179C28 423.179 28.2898 423.302 28.5284 423.549C28.767 423.797 28.8864 424.095 28.8864 424.444ZM25.8182 415.585H52V417.145H25.8182V415.585ZM59.3636 407.876C59.3636 408.268 59.321 408.656 59.2358 409.039C59.1506 409.423 59.0398 409.768 58.9034 410.075L57.5355 409.615C57.8423 408.814 57.9531 408.089 57.8679 407.441C57.7827 406.785 57.4844 406.206 56.973 405.703C56.4616 405.2 55.7116 404.774 54.723 404.424L52.2685 403.529L32.3636 410.727V409.052L49.9929 402.814V402.686L32.3636 396.447V394.772L55.3366 403.056C56.223 403.372 56.9645 403.768 57.5611 404.245C58.1577 404.723 58.6051 405.268 58.9034 405.882C59.2102 406.487 59.3636 407.152 59.3636 407.876Z" fill="#343A40"/>
<rect x="100" y="500" width="250" height="10" transform="rotate(-90 100 500)" fill="#0E8F8D"/>
<path d="M152 496.064H125.818V481.451H127.301V494.466H138.155V482.666H139.638V494.466H152V496.064ZM152 475.73H132.364V474.209H135.432V474.069C134.426 473.642 133.621 472.922 133.016 471.908C132.402 470.894 132.095 469.739 132.095 468.444C132.095 468.307 132.095 468.171 132.095 468.034C132.095 467.898 132.099 467.77 132.108 467.651H133.68C133.672 467.753 133.659 467.877 133.642 468.022C133.616 468.158 133.604 468.328 133.604 468.533C133.604 469.624 133.838 470.596 134.307 471.448C134.776 472.292 135.423 472.956 136.25 473.442C137.068 473.928 138.006 474.171 139.062 474.171H152V475.73ZM152 463.384H132.364V461.837H152V463.384ZM128.886 462.604C128.886 462.945 128.767 463.244 128.528 463.499C128.29 463.746 128 463.87 127.659 463.87C127.318 463.87 127.028 463.746 126.79 463.499C126.551 463.252 126.432 462.954 126.432 462.604C126.432 462.263 126.551 461.969 126.79 461.722C127.028 461.467 127.318 461.339 127.659 461.339C128 461.339 128.29 461.462 128.528 461.71C128.767 461.957 128.886 462.255 128.886 462.604ZM152.409 447.647C152.409 449.42 151.97 450.962 151.092 452.275C150.214 453.587 149.013 454.602 147.487 455.317C145.962 456.033 144.223 456.391 142.271 456.391C140.311 456.391 138.564 456.033 137.03 455.317C135.496 454.593 134.286 453.6 133.399 452.339C132.513 451.077 132.07 449.637 132.07 448.018C132.07 446.918 132.291 445.879 132.734 444.898C133.169 443.91 133.8 443.04 134.626 442.29C135.453 441.532 136.45 440.94 137.618 440.513C138.786 440.079 140.098 439.862 141.555 439.862H142.527V455.407H141.108V441.421C139.685 441.421 138.402 441.711 137.26 442.29C136.118 442.87 135.21 443.658 134.537 444.656C133.864 445.653 133.527 446.773 133.527 448.018C133.527 449.322 133.893 450.485 134.626 451.508C135.351 452.522 136.331 453.327 137.567 453.924C138.803 454.512 140.183 454.819 141.709 454.844H142.348C143.984 454.844 145.455 454.559 146.759 453.988C148.054 453.408 149.081 452.582 149.839 451.508C150.589 450.434 150.964 449.147 150.964 447.647C150.964 446.573 150.786 445.657 150.428 444.898C150.061 444.131 149.618 443.505 149.098 443.019C148.578 442.533 148.075 442.167 147.589 441.92L148.165 440.501C148.821 440.799 149.477 441.263 150.134 441.894C150.781 442.516 151.322 443.309 151.757 444.272C152.192 445.227 152.409 446.352 152.409 447.647ZM139.267 432.933H152V434.492H132.364V432.971H135.47V432.817C134.456 432.357 133.642 431.62 133.028 430.606C132.415 429.592 132.108 428.386 132.108 426.988C132.108 425.667 132.389 424.508 132.952 423.511C133.514 422.505 134.315 421.721 135.355 421.158C136.386 420.587 137.618 420.302 139.05 420.302H152V421.862H139.114C137.443 421.862 136.101 422.36 135.087 423.357C134.064 424.346 133.553 425.654 133.553 427.282C133.553 428.373 133.791 429.344 134.268 430.197C134.746 431.049 135.415 431.718 136.276 432.204C137.128 432.69 138.125 432.933 139.267 432.933ZM152.409 407.083C152.409 408.66 151.974 410.036 151.105 411.212C150.236 412.388 149.038 413.3 147.513 413.948C145.979 414.587 144.219 414.907 142.233 414.907C140.264 414.907 138.517 414.583 136.991 413.935C135.457 413.279 134.256 412.363 133.386 411.187C132.509 410.011 132.07 408.638 132.07 407.07C132.07 405.945 132.287 404.969 132.722 404.143C133.148 403.308 133.714 402.609 134.422 402.046C135.129 401.475 135.905 401.04 136.749 400.742V400.589H125.818V399.042H152V400.55H147.717V400.742C148.561 401.058 149.341 401.496 150.057 402.059C150.764 402.621 151.335 403.32 151.77 404.156C152.196 404.991 152.409 405.967 152.409 407.083ZM150.964 406.942C150.964 405.613 150.585 404.475 149.827 403.529C149.06 402.575 148.02 401.846 146.707 401.343C145.386 400.832 143.891 400.576 142.22 400.576C140.55 400.576 139.062 400.832 137.759 401.343C136.446 401.846 135.415 402.575 134.665 403.529C133.906 404.475 133.527 405.613 133.527 406.942C133.527 408.289 133.911 409.444 134.678 410.407C135.436 411.362 136.472 412.094 137.784 412.606C139.097 413.109 140.575 413.36 142.22 413.36C143.865 413.36 145.348 413.109 146.669 412.606C147.99 412.094 149.038 411.362 149.814 410.407C150.581 409.444 150.964 408.289 150.964 406.942ZM136.595 379.546L136.979 380.991C136.263 381.221 135.645 381.549 135.125 381.975C134.605 382.401 134.205 382.938 133.923 383.586C133.634 384.225 133.489 384.992 133.489 385.887C133.489 387.327 133.847 388.508 134.562 389.428C135.278 390.34 136.212 390.796 137.362 390.796C138.3 390.796 139.075 390.485 139.689 389.863C140.294 389.241 140.754 388.29 141.07 387.012L141.824 383.995C142.207 382.444 142.83 381.276 143.69 380.492C144.543 379.708 145.604 379.316 146.874 379.316C147.956 379.316 148.915 379.61 149.75 380.198C150.585 380.786 151.237 381.6 151.706 382.64C152.175 383.671 152.409 384.873 152.409 386.245C152.409 388.077 151.983 389.582 151.131 390.758C150.27 391.934 149.038 392.688 147.436 393.021L147.053 391.525C148.331 391.244 149.307 390.66 149.98 389.773C150.645 388.879 150.977 387.707 150.977 386.258C150.977 384.656 150.598 383.364 149.839 382.384C149.081 381.396 148.109 380.901 146.925 380.901C146.021 380.901 145.259 381.191 144.636 381.771C144.014 382.35 143.558 383.228 143.268 384.404L142.501 387.536C142.109 389.138 141.483 390.34 140.622 391.141C139.753 391.942 138.683 392.343 137.413 392.343C136.357 392.343 135.428 392.066 134.626 391.512C133.825 390.958 133.199 390.195 132.747 389.224C132.295 388.252 132.07 387.14 132.07 385.887C132.07 384.225 132.462 382.87 133.246 381.822C134.03 380.773 135.146 380.015 136.595 379.546Z" fill="#343A40"/>
<rect x="200" y="500" width="125" height="10" transform="rotate(-90 200 500)" fill="#8D45BA"/>
<path d="M234 476.075V477.712C233.114 477.882 232.257 478.202 231.43 478.671C230.595 479.139 229.845 479.744 229.18 480.486C228.507 481.219 227.974 482.071 227.582 483.043C227.19 484.014 226.994 485.088 226.994 486.264C226.994 487.986 227.455 489.571 228.375 491.02C229.287 492.46 230.629 493.615 232.402 494.485C234.175 495.345 236.344 495.776 238.909 495.776C241.491 495.776 243.669 495.345 245.442 494.485C247.214 493.615 248.557 492.46 249.469 491.02C250.372 489.571 250.824 487.986 250.824 486.264C250.824 485.088 250.632 484.014 250.249 483.043C249.857 482.071 249.328 481.219 248.663 480.486C247.99 479.744 247.236 479.139 246.401 478.671C245.565 478.202 244.705 477.882 243.818 477.712V476.075C244.875 476.263 245.911 476.625 246.925 477.162C247.939 477.691 248.859 478.389 249.686 479.259C250.504 480.119 251.156 481.138 251.642 482.314C252.119 483.482 252.358 484.798 252.358 486.264C252.358 488.446 251.804 490.368 250.696 492.03C249.58 493.692 248.011 494.996 245.991 495.942C243.972 496.879 241.611 497.348 238.909 497.348C236.207 497.348 233.847 496.879 231.827 495.942C229.807 494.996 228.243 493.692 227.135 492.03C226.018 490.368 225.46 488.446 225.46 486.264C225.46 484.798 225.703 483.482 226.189 482.314C226.666 481.138 227.314 480.119 228.132 479.259C228.942 478.389 229.854 477.691 230.868 477.162C231.882 476.625 232.926 476.263 234 476.075ZM252.409 463.183C252.409 464.802 251.974 466.242 251.105 467.504C250.227 468.765 249.021 469.758 247.487 470.482C245.953 471.207 244.206 471.569 242.246 471.569C240.277 471.569 238.53 471.207 237.004 470.482C235.47 469.758 234.264 468.765 233.386 467.504C232.509 466.242 232.07 464.802 232.07 463.183C232.07 461.563 232.509 460.123 233.386 458.862C234.264 457.6 235.47 456.607 237.004 455.883C238.538 455.159 240.286 454.796 242.246 454.796C244.206 454.796 245.953 455.159 247.487 455.883C249.021 456.607 250.227 457.6 251.105 458.862C251.974 460.123 252.409 461.563 252.409 463.183ZM250.964 463.183C250.964 461.811 250.577 460.613 249.801 459.59C249.026 458.559 247.977 457.762 246.656 457.2C245.335 456.629 243.865 456.343 242.246 456.343C240.626 456.343 239.161 456.629 237.848 457.2C236.527 457.771 235.479 458.568 234.703 459.59C233.919 460.613 233.527 461.811 233.527 463.183C233.527 464.555 233.919 465.752 234.703 466.775C235.479 467.798 236.527 468.595 237.848 469.166C239.161 469.737 240.626 470.022 242.246 470.022C243.865 470.022 245.335 469.741 246.656 469.178C247.977 468.607 249.026 467.811 249.801 466.788C250.577 465.757 250.964 464.555 250.964 463.183ZM225.818 447.864H252V449.424H225.818V447.864ZM225.818 439.849H252V441.408H225.818V439.849ZM252.409 425.735C252.409 427.508 251.97 429.05 251.092 430.363C250.214 431.675 249.013 432.689 247.487 433.405C245.962 434.121 244.223 434.479 242.271 434.479C240.311 434.479 238.564 434.121 237.03 433.405C235.496 432.681 234.286 431.688 233.399 430.427C232.513 429.165 232.07 427.725 232.07 426.106C232.07 425.006 232.291 423.966 232.734 422.986C233.169 421.998 233.8 421.128 234.626 420.378C235.453 419.62 236.45 419.028 237.618 418.601C238.786 418.167 240.098 417.949 241.555 417.949H242.527V433.495H241.108V419.509C239.685 419.509 238.402 419.799 237.26 420.378C236.118 420.958 235.21 421.746 234.537 422.743C233.864 423.741 233.527 424.861 233.527 426.106C233.527 427.41 233.893 428.573 234.626 429.596C235.351 430.61 236.331 431.415 237.567 432.012C238.803 432.6 240.183 432.907 241.709 432.932H242.348C243.984 432.932 245.455 432.647 246.759 432.076C248.054 431.496 249.081 430.67 249.839 429.596C250.589 428.522 250.964 427.235 250.964 425.735C250.964 424.661 250.786 423.745 250.428 422.986C250.061 422.219 249.618 421.593 249.098 421.107C248.578 420.621 248.075 420.255 247.589 420.008L248.165 418.589C248.821 418.887 249.477 419.351 250.134 419.982C250.781 420.604 251.322 421.397 251.757 422.36C252.192 423.314 252.409 424.439 252.409 425.735ZM252.422 407.377C252.422 408.51 252.196 409.55 251.744 410.496C251.293 411.434 250.632 412.188 249.763 412.759C248.893 413.322 247.837 413.603 246.592 413.603C245.774 413.603 245.054 413.458 244.432 413.168C243.81 412.878 243.273 412.431 242.821 411.826C242.369 411.221 241.999 410.445 241.709 409.499C241.411 408.553 241.18 407.424 241.018 406.111C240.899 405.114 240.784 404.224 240.673 403.439C240.554 402.655 240.371 402.042 240.124 401.599C239.876 401.147 239.501 400.921 238.999 400.921H238.18C236.749 400.921 235.611 401.373 234.767 402.276C233.923 403.18 233.501 404.424 233.501 406.009C233.501 407.415 233.812 408.6 234.435 409.563C235.048 410.518 235.841 411.187 236.812 411.57L236.263 413.04C235.325 412.665 234.545 412.124 233.923 411.417C233.301 410.701 232.837 409.883 232.53 408.962C232.223 408.033 232.07 407.062 232.07 406.047C232.07 405.17 232.193 404.334 232.44 403.542C232.688 402.741 233.062 402.029 233.565 401.407C234.068 400.776 234.712 400.278 235.496 399.911C236.271 399.545 237.2 399.361 238.283 399.361H252V400.921H248.459V401.036C249.192 401.377 249.861 401.846 250.466 402.442C251.062 403.03 251.54 403.742 251.898 404.577C252.247 405.404 252.422 406.337 252.422 407.377ZM250.977 407.224C250.977 405.996 250.679 404.91 250.082 403.964C249.477 403.009 248.651 402.263 247.602 401.726C246.554 401.189 245.365 400.921 244.036 400.921H241.146C241.317 401.117 241.47 401.403 241.607 401.778C241.734 402.144 241.849 402.562 241.952 403.03C242.045 403.491 242.131 403.976 242.207 404.488C242.276 404.991 242.339 405.481 242.399 405.958C242.57 407.39 242.834 408.557 243.192 409.461C243.541 410.356 244.001 411.012 244.572 411.43C245.143 411.839 245.834 412.043 246.643 412.043C247.982 412.043 249.038 411.583 249.814 410.662C250.589 409.742 250.977 408.596 250.977 407.224ZM259.773 385.74C259.773 386.959 259.611 388.054 259.287 389.025C258.972 389.997 258.52 390.824 257.932 391.506C257.344 392.179 256.645 392.694 255.835 393.052L255.068 391.748C255.699 391.459 256.261 391.045 256.756 390.508C257.25 389.971 257.638 389.307 257.919 388.514C258.2 387.713 258.341 386.788 258.341 385.74C258.341 383.848 257.851 382.352 256.871 381.253C255.899 380.145 254.408 379.591 252.396 379.591H247.513V379.744C248.365 380.042 249.124 380.486 249.788 381.074C250.445 381.653 250.96 382.365 251.335 383.209C251.71 384.052 251.898 385.011 251.898 386.085C251.898 387.636 251.497 389 250.696 390.176C249.895 391.352 248.77 392.268 247.321 392.925C245.864 393.581 244.151 393.909 242.182 393.909C240.213 393.909 238.47 393.589 236.953 392.95C235.428 392.302 234.234 391.39 233.374 390.214C232.504 389.038 232.07 387.657 232.07 386.072C232.07 384.939 232.287 383.959 232.722 383.132C233.148 382.297 233.714 381.598 234.422 381.035C235.129 380.473 235.905 380.038 236.749 379.731V379.552H232.364V378.044H252.46C254.097 378.044 255.456 378.368 256.538 379.015C257.621 379.655 258.43 380.554 258.967 381.713C259.504 382.863 259.773 384.206 259.773 385.74ZM250.453 385.944C250.453 384.632 250.121 383.503 249.456 382.557C248.783 381.602 247.828 380.869 246.592 380.358C245.348 379.838 243.874 379.578 242.169 379.578C240.516 379.578 239.037 379.829 237.733 380.332C236.429 380.835 235.402 381.564 234.652 382.518C233.902 383.473 233.527 384.615 233.527 385.944C233.527 387.3 233.911 388.454 234.678 389.409C235.436 390.363 236.467 391.096 237.771 391.608C239.075 392.111 240.541 392.362 242.169 392.362C243.805 392.362 245.246 392.106 246.49 391.595C247.726 391.084 248.697 390.351 249.405 389.396C250.104 388.442 250.453 387.291 250.453 385.944ZM245.033 358.903H232.364V357.343H252V358.903H248.817V359.031C249.831 359.491 250.658 360.237 251.297 361.268C251.936 362.291 252.256 363.501 252.256 364.899C252.256 366.186 251.974 367.323 251.412 368.312C250.849 369.301 250.053 370.076 249.021 370.639C247.982 371.201 246.746 371.482 245.314 371.482H232.364V369.923H245.25C246.886 369.923 248.212 369.428 249.226 368.44C250.232 367.443 250.734 366.156 250.734 364.579C250.734 363.556 250.504 362.615 250.044 361.754C249.584 360.893 248.928 360.203 248.075 359.683C247.214 359.163 246.2 358.903 245.033 358.903ZM252.409 343.223C252.409 344.996 251.97 346.539 251.092 347.851C250.214 349.164 249.013 350.178 247.487 350.894C245.962 351.61 244.223 351.968 242.271 351.968C240.311 351.968 238.564 351.61 237.03 350.894C235.496 350.169 234.286 349.176 233.399 347.915C232.513 346.654 232.07 345.213 232.07 343.594C232.07 342.494 232.291 341.455 232.734 340.475C233.169 339.486 233.8 338.617 234.626 337.867C235.453 337.108 236.45 336.516 237.618 336.09C238.786 335.655 240.098 335.438 241.555 335.438H242.527V350.983H241.108V336.997C239.685 336.997 238.402 337.287 237.26 337.867C236.118 338.446 235.21 339.235 234.537 340.232C233.864 341.229 233.527 342.35 233.527 343.594C233.527 344.898 233.893 346.061 234.626 347.084C235.351 348.098 236.331 348.904 237.567 349.5C238.803 350.088 240.183 350.395 241.709 350.421H242.348C243.984 350.421 245.455 350.135 246.759 349.564C248.054 348.985 249.081 348.158 249.839 347.084C250.589 346.01 250.964 344.723 250.964 343.223C250.964 342.149 250.786 341.233 250.428 340.475C250.061 339.708 249.618 339.081 249.098 338.595C248.578 338.11 248.075 337.743 247.589 337.496L248.165 336.077C248.821 336.375 249.477 336.84 250.134 337.47C250.781 338.093 251.322 338.885 251.757 339.848C252.192 340.803 252.409 341.928 252.409 343.223ZM236.595 317.591L236.979 319.036C236.263 319.266 235.645 319.594 235.125 320.02C234.605 320.446 234.205 320.983 233.923 321.631C233.634 322.27 233.489 323.037 233.489 323.932C233.489 325.372 233.847 326.553 234.562 327.473C235.278 328.385 236.212 328.841 237.362 328.841C238.3 328.841 239.075 328.53 239.689 327.908C240.294 327.286 240.754 326.335 241.07 325.057L241.824 322.04C242.207 320.489 242.83 319.321 243.69 318.537C244.543 317.753 245.604 317.361 246.874 317.361C247.956 317.361 248.915 317.655 249.75 318.243C250.585 318.831 251.237 319.645 251.706 320.685C252.175 321.716 252.409 322.918 252.409 324.29C252.409 326.122 251.983 327.627 251.131 328.803C250.27 329.979 249.038 330.733 247.436 331.066L247.053 329.57C248.331 329.289 249.307 328.705 249.98 327.818C250.645 326.923 250.977 325.752 250.977 324.303C250.977 322.7 250.598 321.409 249.839 320.429C249.081 319.441 248.109 318.946 246.925 318.946C246.021 318.946 245.259 319.236 244.636 319.816C244.014 320.395 243.558 321.273 243.268 322.449L242.501 325.581C242.109 327.183 241.483 328.385 240.622 329.186C239.753 329.987 238.683 330.388 237.413 330.388C236.357 330.388 235.428 330.111 234.626 329.557C233.825 329.003 233.199 328.24 232.747 327.269C232.295 326.297 232.07 325.185 232.07 323.932C232.07 322.27 232.462 320.915 233.246 319.867C234.03 318.818 235.146 318.06 236.595 317.591Z" fill="#343A40"/>
<rect x="300" y="500" width="300" height="10" transform="rotate(-90 300 500)" fill="#FF415B"/>
<path d="M352 497.015V498.702L325.818 489.255V487.414L352 477.967V479.654L327.876 488.271V488.398L352 497.015ZM342.143 494.624V482.045H343.626V494.624H342.143ZM359.364 473.633H332.364V472.112H336.749V471.92C335.905 471.613 335.129 471.183 334.422 470.629C333.714 470.066 333.148 469.371 332.722 468.545C332.287 467.71 332.07 466.729 332.07 465.604C332.07 464.019 332.504 462.638 333.374 461.462C334.243 460.286 335.445 459.374 336.979 458.727C338.504 458.079 340.256 457.755 342.233 457.755C344.21 457.755 345.966 458.083 347.5 458.739C349.026 459.387 350.227 460.299 351.105 461.475C351.974 462.643 352.409 464.011 352.409 465.579C352.409 466.695 352.196 467.675 351.77 468.519C351.344 469.354 350.777 470.058 350.07 470.629C349.354 471.191 348.57 471.621 347.717 471.92V472.073H359.364V473.633ZM342.22 472.099C343.891 472.099 345.386 471.843 346.707 471.332C348.02 470.82 349.06 470.087 349.827 469.133C350.585 468.178 350.964 467.04 350.964 465.719C350.964 464.381 350.581 463.235 349.814 462.281C349.038 461.317 347.99 460.585 346.669 460.082C345.348 459.57 343.865 459.315 342.22 459.315C340.575 459.315 339.097 459.566 337.784 460.069C336.472 460.572 335.436 461.3 334.678 462.255C333.911 463.21 333.527 464.364 333.527 465.719C333.527 467.058 333.906 468.204 334.665 469.158C335.415 470.104 336.446 470.833 337.759 471.344C339.062 471.847 340.55 472.099 342.22 472.099ZM359.364 452.363H332.364V450.842H336.749V450.65C335.905 450.343 335.129 449.913 334.422 449.359C333.714 448.797 333.148 448.102 332.722 447.275C332.287 446.44 332.07 445.46 332.07 444.335C332.07 442.75 332.504 441.369 333.374 440.193C334.243 439.017 335.445 438.105 336.979 437.457C338.504 436.809 340.256 436.485 342.233 436.485C344.21 436.485 345.966 436.814 347.5 437.47C349.026 438.118 350.227 439.029 351.105 440.206C351.974 441.373 352.409 442.741 352.409 444.309C352.409 445.426 352.196 446.406 351.77 447.25C351.344 448.085 350.777 448.788 350.07 449.359C349.354 449.922 348.57 450.352 347.717 450.65V450.804H359.364V452.363ZM342.22 450.829C343.891 450.829 345.386 450.574 346.707 450.062C348.02 449.551 349.06 448.818 349.827 447.863C350.585 446.909 350.964 445.771 350.964 444.45C350.964 443.112 350.581 441.966 349.814 441.011C349.038 440.048 347.99 439.315 346.669 438.812C345.348 438.301 343.865 438.045 342.22 438.045C340.575 438.045 339.097 438.297 337.784 438.799C336.472 439.302 335.436 440.031 334.678 440.985C333.911 441.94 333.527 443.095 333.527 444.45C333.527 445.788 333.906 446.934 334.665 447.889C335.415 448.835 336.446 449.564 337.759 450.075C339.062 450.578 340.55 450.829 342.22 450.829ZM352.409 413.669C352.409 415.288 351.974 416.729 351.105 417.99C350.227 419.251 349.021 420.244 347.487 420.969C345.953 421.693 344.206 422.055 342.246 422.055C340.277 422.055 338.53 421.693 337.004 420.969C335.47 420.244 334.264 419.251 333.386 417.99C332.509 416.729 332.07 415.288 332.07 413.669C332.07 412.05 332.509 410.609 333.386 409.348C334.264 408.087 335.47 407.094 337.004 406.369C338.538 405.645 340.286 405.283 342.246 405.283C344.206 405.283 345.953 405.645 347.487 406.369C349.021 407.094 350.227 408.087 351.105 409.348C351.974 410.609 352.409 412.05 352.409 413.669ZM350.964 413.669C350.964 412.297 350.577 411.099 349.801 410.077C349.026 409.045 347.977 408.249 346.656 407.686C345.335 407.115 343.865 406.83 342.246 406.83C340.626 406.83 339.161 407.115 337.848 407.686C336.527 408.257 335.479 409.054 334.703 410.077C333.919 411.099 333.527 412.297 333.527 413.669C333.527 415.041 333.919 416.239 334.703 417.261C335.479 418.284 336.527 419.081 337.848 419.652C339.161 420.223 340.626 420.509 342.246 420.509C343.865 420.509 345.335 420.227 346.656 419.665C347.977 419.094 349.026 418.297 349.801 417.274C350.577 416.243 350.964 415.041 350.964 413.669ZM352 399.91H332.364V398.389H335.432V398.248C334.426 397.822 333.621 397.102 333.016 396.088C332.402 395.074 332.095 393.919 332.095 392.623C332.095 392.487 332.095 392.35 332.095 392.214C332.095 392.078 332.099 391.95 332.108 391.831H333.68C333.672 391.933 333.659 392.056 333.642 392.201C333.616 392.338 333.604 392.508 333.604 392.713C333.604 393.804 333.838 394.775 334.307 395.627C334.776 396.471 335.423 397.136 336.25 397.622C337.068 398.108 338.006 398.35 339.062 398.35H352V399.91ZM338.909 356.141C341.611 356.141 343.972 356.609 345.991 357.547C348.003 358.484 349.567 359.788 350.683 361.459C351.8 363.121 352.358 365.038 352.358 367.212C352.358 369.393 351.8 371.32 350.683 372.99C349.558 374.652 347.99 375.952 345.979 376.889C343.959 377.827 341.602 378.295 338.909 378.295C336.207 378.295 333.851 377.827 331.839 376.889C329.828 375.943 328.264 374.639 327.148 372.977C326.023 371.315 325.46 369.393 325.46 367.212C325.46 365.038 326.018 363.121 327.135 361.459C328.251 359.788 329.82 358.484 331.839 357.547C333.851 356.609 336.207 356.141 338.909 356.141ZM338.909 357.7C336.48 357.7 334.375 358.109 332.594 358.928C330.812 359.737 329.436 360.858 328.464 362.29C327.484 363.722 326.994 365.362 326.994 367.212C326.994 369.061 327.48 370.702 328.452 372.134C329.415 373.565 330.791 374.69 332.581 375.509C334.362 376.318 336.472 376.723 338.909 376.723C341.321 376.723 343.422 376.322 345.212 375.521C346.993 374.712 348.374 373.591 349.354 372.159C350.334 370.727 350.824 369.078 350.824 367.212C350.824 365.362 350.338 363.722 349.366 362.29C348.386 360.858 347.006 359.737 345.224 358.928C343.443 358.109 341.338 357.7 338.909 357.7ZM339.267 348.886H352V350.445H332.364V348.924H335.47V348.771C334.456 348.31 333.642 347.573 333.028 346.559C332.415 345.545 332.108 344.339 332.108 342.941C332.108 341.62 332.389 340.461 332.952 339.464C333.514 338.458 334.315 337.674 335.355 337.112C336.386 336.54 337.618 336.255 339.05 336.255H352V337.815H339.114C337.443 337.815 336.101 338.313 335.087 339.31C334.064 340.299 333.553 341.607 333.553 343.235C333.553 344.326 333.791 345.298 334.268 346.15C334.746 347.002 335.415 347.671 336.276 348.157C337.128 348.643 338.125 348.886 339.267 348.886ZM325.818 328.214H352V329.773H325.818V328.214ZM352 321.681H332.364V320.134H352V321.681ZM328.886 320.901C328.886 321.242 328.767 321.54 328.528 321.796C328.29 322.043 328 322.167 327.659 322.167C327.318 322.167 327.028 322.043 326.79 321.796C326.551 321.549 326.432 321.251 326.432 320.901C326.432 320.56 326.551 320.266 326.79 320.019C327.028 319.763 327.318 319.636 327.659 319.636C328 319.636 328.29 319.759 328.528 320.006C328.767 320.254 328.886 320.552 328.886 320.901ZM339.267 312.042H352V313.602H332.364V312.08H335.47V311.927C334.456 311.467 333.642 310.729 333.028 309.715C332.415 308.701 332.108 307.495 332.108 306.097C332.108 304.776 332.389 303.617 332.952 302.62C333.514 301.614 334.315 300.83 335.355 300.268C336.386 299.697 337.618 299.411 339.05 299.411H352V300.971H339.114C337.443 300.971 336.101 301.469 335.087 302.467C334.064 303.455 333.553 304.763 333.553 306.391C333.553 307.482 333.791 308.454 334.268 309.306C334.746 310.158 335.415 310.827 336.276 311.313C337.128 311.799 338.125 312.042 339.267 312.042ZM352.409 285.272C352.409 287.045 351.97 288.587 351.092 289.9C350.214 291.212 349.013 292.227 347.487 292.942C345.962 293.658 344.223 294.016 342.271 294.016C340.311 294.016 338.564 293.658 337.03 292.942C335.496 292.218 334.286 291.225 333.399 289.964C332.513 288.702 332.07 287.262 332.07 285.643C332.07 284.543 332.291 283.504 332.734 282.523C333.169 281.535 333.8 280.665 334.626 279.915C335.453 279.157 336.45 278.565 337.618 278.138C338.786 277.704 340.098 277.487 341.555 277.487H342.527V293.032H341.108V279.046C339.685 279.046 338.402 279.336 337.26 279.915C336.118 280.495 335.21 281.283 334.537 282.281C333.864 283.278 333.527 284.398 333.527 285.643C333.527 286.947 333.893 288.11 334.626 289.133C335.351 290.147 336.331 290.952 337.567 291.549C338.803 292.137 340.183 292.444 341.709 292.469H342.348C343.984 292.469 345.455 292.184 346.759 291.613C348.054 291.033 349.081 290.207 349.839 289.133C350.589 288.059 350.964 286.772 350.964 285.272C350.964 284.198 350.786 283.282 350.428 282.523C350.061 281.756 349.618 281.13 349.098 280.644C348.578 280.158 348.075 279.792 347.589 279.545L348.165 278.126C348.821 278.424 349.477 278.888 350.134 279.519C350.781 280.141 351.322 280.934 351.757 281.897C352.192 282.852 352.409 283.977 352.409 285.272ZM334 243.097C333.114 243.293 332.257 243.626 331.43 244.094C330.595 244.563 329.845 245.164 329.18 245.897C328.507 246.621 327.974 247.474 327.582 248.454C327.19 249.425 326.994 250.516 326.994 251.727C326.994 253.576 327.48 255.217 328.452 256.648C329.415 258.072 330.791 259.188 332.581 259.998C334.362 260.799 336.472 261.2 338.909 261.2C341.321 261.2 343.422 260.799 345.212 259.998C347.001 259.197 348.386 258.076 349.366 256.636C350.338 255.187 350.824 253.504 350.824 251.586C350.824 249.873 350.428 248.356 349.635 247.035C348.842 245.705 347.709 244.67 346.234 243.928C344.76 243.187 342.996 242.825 340.942 242.842L341.21 242.279V251.177H339.727V241.282H341.21C343.52 241.282 345.51 241.725 347.18 242.612C348.842 243.489 350.121 244.708 351.016 246.268C351.911 247.819 352.358 249.592 352.358 251.586C352.358 253.836 351.8 255.8 350.683 257.479C349.567 259.158 348.003 260.462 345.991 261.391C343.972 262.312 341.611 262.772 338.909 262.772C336.881 262.772 335.04 262.508 333.386 261.979C331.733 261.451 330.318 260.697 329.142 259.717C327.957 258.737 327.05 257.569 326.419 256.214C325.78 254.859 325.46 253.363 325.46 251.727C325.46 250.244 325.707 248.91 326.202 247.725C326.687 246.54 327.344 245.518 328.17 244.657C328.989 243.788 329.905 243.085 330.919 242.548C331.925 242.011 332.952 241.648 334 241.461V243.097ZM345.033 222.764H332.364V221.205H352V222.764H348.817V222.892C349.831 223.352 350.658 224.098 351.297 225.129C351.936 226.152 352.256 227.362 352.256 228.76C352.256 230.047 351.974 231.185 351.412 232.173C350.849 233.162 350.053 233.938 349.021 234.5C347.982 235.062 346.746 235.344 345.314 235.344H332.364V233.784H345.25C346.886 233.784 348.212 233.29 349.226 232.301C350.232 231.304 350.734 230.017 350.734 228.44C350.734 227.418 350.504 226.476 350.044 225.615C349.584 224.754 348.928 224.064 348.075 223.544C347.214 223.024 346.2 222.764 345.033 222.764ZM352 214.665H332.364V213.119H352V214.665ZM328.886 213.886C328.886 214.227 328.767 214.525 328.528 214.781C328.29 215.028 328 215.151 327.659 215.151C327.318 215.151 327.028 215.028 326.79 214.781C326.551 214.533 326.432 214.235 326.432 213.886C326.432 213.545 326.551 213.251 326.79 213.004C327.028 212.748 327.318 212.62 327.659 212.62C328 212.62 328.29 212.744 328.528 212.991C328.767 213.238 328.886 213.536 328.886 213.886ZM352.409 199.849C352.409 201.425 351.974 202.802 351.105 203.978C350.236 205.154 349.038 206.066 347.513 206.714C345.979 207.353 344.219 207.673 342.233 207.673C340.264 207.673 338.517 207.349 336.991 206.701C335.457 206.045 334.256 205.129 333.386 203.952C332.509 202.776 332.07 201.404 332.07 199.836C332.07 198.711 332.287 197.735 332.722 196.908C333.148 196.073 333.714 195.374 334.422 194.812C335.129 194.241 335.905 193.806 336.749 193.508V193.354H325.818V191.808H352V193.316H347.717V193.508C348.561 193.823 349.341 194.262 350.057 194.825C350.764 195.387 351.335 196.086 351.77 196.921C352.196 197.756 352.409 198.732 352.409 199.849ZM350.964 199.708C350.964 198.379 350.585 197.241 349.827 196.295C349.06 195.34 348.02 194.612 346.707 194.109C345.386 193.597 343.891 193.342 342.22 193.342C340.55 193.342 339.062 193.597 337.759 194.109C336.446 194.612 335.415 195.34 334.665 196.295C333.906 197.241 333.527 198.379 333.527 199.708C333.527 201.055 333.911 202.21 334.678 203.173C335.436 204.127 336.472 204.86 337.784 205.371C339.097 205.874 340.575 206.126 342.22 206.126C343.865 206.126 345.348 205.874 346.669 205.371C347.99 204.86 349.038 204.127 349.814 203.173C350.581 202.21 350.964 201.055 350.964 199.708ZM352.409 177.131C352.409 178.904 351.97 180.447 351.092 181.759C350.214 183.072 349.013 184.086 347.487 184.802C345.962 185.518 344.223 185.876 342.271 185.876C340.311 185.876 338.564 185.518 337.03 184.802C335.496 184.077 334.286 183.085 333.399 181.823C332.513 180.562 332.07 179.121 332.07 177.502C332.07 176.403 332.291 175.363 332.734 174.383C333.169 173.394 333.8 172.525 334.626 171.775C335.453 171.016 336.45 170.424 337.618 169.998C338.786 169.563 340.098 169.346 341.555 169.346H342.527V184.891H341.108V170.906C339.685 170.906 338.402 171.195 337.26 171.775C336.118 172.354 335.21 173.143 334.537 174.14C333.864 175.137 333.527 176.258 333.527 177.502C333.527 178.806 333.893 179.969 334.626 180.992C335.351 182.006 336.331 182.812 337.567 183.408C338.803 183.996 340.183 184.303 341.709 184.329H342.348C343.984 184.329 345.455 184.043 346.759 183.472C348.054 182.893 349.081 182.066 349.839 180.992C350.589 179.918 350.964 178.631 350.964 177.131C350.964 176.058 350.786 175.141 350.428 174.383C350.061 173.616 349.618 172.989 349.098 172.504C348.578 172.018 348.075 171.651 347.589 171.404L348.165 169.985C348.821 170.283 349.477 170.748 350.134 171.379C350.781 172.001 351.322 172.793 351.757 173.756C352.192 174.711 352.409 175.836 352.409 177.131Z" fill="#343A40"/>
<rect x="400" y="500" width="225" height="10" transform="rotate(-90 400 500)" fill="#E9CC32"/>
<path d="M432.364 481.682C430.736 481.819 429.419 482.483 428.413 483.677C427.408 484.861 426.905 486.395 426.905 488.279C426.905 489.549 427.139 490.678 427.608 491.667C428.077 492.655 428.716 493.431 429.526 493.993C430.335 494.556 431.264 494.837 432.312 494.837C432.986 494.837 433.595 494.709 434.141 494.454C434.678 494.189 435.159 493.819 435.585 493.341C436.003 492.864 436.369 492.297 436.685 491.641C437 490.985 437.277 490.26 437.516 489.468L438.359 486.604C438.658 485.624 439.003 484.721 439.395 483.894C439.787 483.059 440.256 482.334 440.801 481.721C441.338 481.099 441.969 480.617 442.693 480.276C443.418 479.927 444.253 479.752 445.199 479.752C446.58 479.752 447.815 480.11 448.906 480.826C449.997 481.533 450.858 482.543 451.489 483.856C452.111 485.16 452.422 486.698 452.422 488.471C452.422 490.158 452.136 491.628 451.565 492.881C450.994 494.126 450.202 495.11 449.188 495.834C448.165 496.559 446.989 496.968 445.659 497.062V495.425C446.741 495.34 447.679 494.995 448.472 494.39C449.256 493.776 449.861 492.962 450.287 491.948C450.713 490.934 450.926 489.775 450.926 488.471C450.926 487.064 450.687 485.824 450.21 484.751C449.724 483.677 449.051 482.837 448.19 482.232C447.33 481.627 446.328 481.324 445.186 481.324C444.266 481.324 443.477 481.542 442.821 481.976C442.165 482.411 441.598 483.055 441.121 483.907C440.643 484.751 440.217 485.799 439.842 487.052L438.922 490.107C438.3 492.153 437.452 493.716 436.378 494.799C435.304 495.873 433.966 496.41 432.364 496.41C431.017 496.41 429.824 496.052 428.784 495.336C427.736 494.62 426.913 493.648 426.317 492.421C425.72 491.185 425.422 489.792 425.422 488.241C425.422 486.681 425.724 485.305 426.33 484.111C426.926 482.918 427.749 481.972 428.797 481.273C429.837 480.574 431.026 480.187 432.364 480.11V481.682ZM459.364 473.986H432.364V472.465H436.749V472.273C435.905 471.966 435.129 471.536 434.422 470.982C433.714 470.42 433.148 469.725 432.722 468.898C432.287 468.063 432.07 467.083 432.07 465.958C432.07 464.373 432.504 462.992 433.374 461.816C434.243 460.64 435.445 459.728 436.979 459.08C438.504 458.432 440.256 458.108 442.233 458.108C444.21 458.108 445.966 458.437 447.5 459.093C449.026 459.741 450.227 460.653 451.105 461.829C451.974 462.996 452.409 464.364 452.409 465.932C452.409 467.049 452.196 468.029 451.77 468.873C451.344 469.708 450.777 470.411 450.07 470.982C449.354 471.545 448.57 471.975 447.717 472.273V472.427H459.364V473.986ZM442.22 472.452C443.891 472.452 445.386 472.197 446.707 471.685C448.02 471.174 449.06 470.441 449.827 469.486C450.585 468.532 450.964 467.394 450.964 466.073C450.964 464.735 450.581 463.589 449.814 462.634C449.038 461.671 447.99 460.938 446.669 460.435C445.348 459.924 443.865 459.668 442.22 459.668C440.575 459.668 439.097 459.92 437.784 460.422C436.472 460.925 435.436 461.654 434.678 462.608C433.911 463.563 433.527 464.718 433.527 466.073C433.527 467.411 433.906 468.557 434.665 469.512C435.415 470.458 436.446 471.187 437.759 471.698C439.062 472.201 440.55 472.452 442.22 472.452ZM452 452.64H432.364V451.093H452V452.64ZM428.886 451.86C428.886 452.201 428.767 452.499 428.528 452.755C428.29 453.002 428 453.126 427.659 453.126C427.318 453.126 427.028 453.002 426.79 452.755C426.551 452.508 426.432 452.21 426.432 451.86C426.432 451.519 426.551 451.225 426.79 450.978C427.028 450.722 427.318 450.595 427.659 450.595C428 450.595 428.29 450.718 428.528 450.965C428.767 451.213 428.886 451.511 428.886 451.86ZM452 444.561H432.364V443.039H435.432V442.899C434.426 442.472 433.621 441.752 433.016 440.738C432.402 439.724 432.095 438.569 432.095 437.274C432.095 437.137 432.095 437.001 432.095 436.865C432.095 436.728 432.099 436.6 432.108 436.481H433.68C433.672 436.583 433.659 436.707 433.642 436.852C433.616 436.988 433.604 437.159 433.604 437.363C433.604 438.454 433.838 439.426 434.307 440.278C434.776 441.122 435.423 441.786 436.25 442.272C437.068 442.758 438.006 443.001 439.062 443.001H452V444.561ZM452 432.214H432.364V430.667H452V432.214ZM428.886 431.434C428.886 431.775 428.767 432.074 428.528 432.329C428.29 432.577 428 432.7 427.659 432.7C427.318 432.7 427.028 432.577 426.79 432.329C426.551 432.082 426.432 431.784 426.432 431.434C426.432 431.094 426.551 430.8 426.79 430.552C427.028 430.297 427.318 430.169 427.659 430.169C428 430.169 428.29 430.292 428.528 430.54C428.767 430.787 428.886 431.085 428.886 431.434ZM432.364 417.193H433.757V425.771H432.364V417.193ZM427.659 422.869V421.322H447.359C448.161 421.322 448.817 421.169 449.328 420.862C449.831 420.547 450.206 420.138 450.453 419.635C450.692 419.123 450.811 418.578 450.811 417.998C450.811 417.717 450.79 417.474 450.747 417.27C450.705 417.057 450.649 416.856 450.581 416.669L452 416.285C452.085 416.524 452.158 416.788 452.217 417.078C452.286 417.368 452.32 417.709 452.32 418.101C452.32 418.919 452.136 419.694 451.77 420.427C451.403 421.152 450.871 421.74 450.172 422.192C449.473 422.643 448.629 422.869 447.641 422.869H427.659ZM445.033 398.829H432.364V397.269H452V398.829H448.817V398.956C449.831 399.417 450.658 400.162 451.297 401.194C451.936 402.216 452.256 403.427 452.256 404.824C452.256 406.111 451.974 407.249 451.412 408.238C450.849 409.226 450.053 410.002 449.021 410.564C447.982 411.127 446.746 411.408 445.314 411.408H432.364V409.849H445.25C446.886 409.849 448.212 409.354 449.226 408.366C450.232 407.368 450.734 406.081 450.734 404.505C450.734 403.482 450.504 402.54 450.044 401.68C449.584 400.819 448.928 400.128 448.075 399.608C447.214 399.089 446.2 398.829 445.033 398.829ZM452.422 385.604C452.422 386.737 452.196 387.777 451.744 388.723C451.293 389.66 450.632 390.415 449.763 390.986C448.893 391.548 447.837 391.829 446.592 391.829C445.774 391.829 445.054 391.684 444.432 391.395C443.81 391.105 443.273 390.657 442.821 390.052C442.369 389.447 441.999 388.672 441.709 387.726C441.411 386.78 441.18 385.65 441.018 384.338C440.899 383.341 440.784 382.45 440.673 381.666C440.554 380.882 440.371 380.268 440.124 379.825C439.876 379.373 439.501 379.148 438.999 379.148H438.18C436.749 379.148 435.611 379.599 434.767 380.503C433.923 381.406 433.501 382.65 433.501 384.236C433.501 385.642 433.812 386.827 434.435 387.79C435.048 388.744 435.841 389.413 436.812 389.797L436.263 391.267C435.325 390.892 434.545 390.351 433.923 389.643C433.301 388.927 432.837 388.109 432.53 387.189C432.223 386.26 432.07 385.288 432.07 384.274C432.07 383.396 432.193 382.561 432.44 381.768C432.688 380.967 433.062 380.256 433.565 379.633C434.068 379.003 434.712 378.504 435.496 378.138C436.271 377.771 437.2 377.588 438.283 377.588H452V379.148H448.459V379.263C449.192 379.604 449.861 380.072 450.466 380.669C451.062 381.257 451.54 381.969 451.898 382.804C452.247 383.631 452.422 384.564 452.422 385.604ZM450.977 385.45C450.977 384.223 450.679 383.136 450.082 382.19C449.477 381.236 448.651 380.49 447.602 379.953C446.554 379.416 445.365 379.148 444.036 379.148H441.146C441.317 379.344 441.47 379.629 441.607 380.004C441.734 380.371 441.849 380.788 441.952 381.257C442.045 381.717 442.131 382.203 442.207 382.714C442.276 383.217 442.339 383.707 442.399 384.184C442.57 385.616 442.834 386.784 443.192 387.687C443.541 388.582 444.001 389.238 444.572 389.656C445.143 390.065 445.834 390.27 446.643 390.27C447.982 390.27 449.038 389.809 449.814 388.889C450.589 387.969 450.977 386.822 450.977 385.45ZM425.818 369.489H452V371.049H425.818V369.489ZM425.818 352.358V350.62L449.699 340.533V340.354L425.818 330.268V328.529H452V330.063H429.615V330.216L452 339.689V341.198L429.615 350.671V350.824H452V352.358H425.818ZM452.409 313.856C452.409 315.629 451.97 317.171 451.092 318.484C450.214 319.796 449.013 320.811 447.487 321.526C445.962 322.242 444.223 322.6 442.271 322.6C440.311 322.6 438.564 322.242 437.03 321.526C435.496 320.802 434.286 319.809 433.399 318.548C432.513 317.286 432.07 315.846 432.07 314.227C432.07 313.127 432.291 312.088 432.734 311.107C433.169 310.119 433.8 309.249 434.626 308.499C435.453 307.741 436.45 307.149 437.618 306.722C438.786 306.288 440.098 306.07 441.555 306.07H442.527V321.616H441.108V307.63C439.685 307.63 438.402 307.92 437.26 308.499C436.118 309.079 435.21 309.867 434.537 310.865C433.864 311.862 433.527 312.982 433.527 314.227C433.527 315.531 433.893 316.694 434.626 317.717C435.351 318.731 436.331 319.536 437.567 320.133C438.803 320.721 440.183 321.028 441.709 321.053H442.348C443.984 321.053 445.455 320.768 446.759 320.197C448.054 319.617 449.081 318.791 449.839 317.717C450.589 316.643 450.964 315.356 450.964 313.856C450.964 312.782 450.786 311.866 450.428 311.107C450.061 310.34 449.618 309.714 449.098 309.228C448.578 308.742 448.075 308.376 447.589 308.129L448.165 306.71C448.821 307.008 449.477 307.472 450.134 308.103C450.781 308.725 451.322 309.518 451.757 310.481C452.192 311.436 452.409 312.561 452.409 313.856ZM439.267 299.142H452V300.701H432.364V299.18H435.47V299.026C434.456 298.566 433.642 297.829 433.028 296.815C432.415 295.801 432.108 294.595 432.108 293.197C432.108 291.876 432.389 290.717 432.952 289.72C433.514 288.714 434.315 287.93 435.355 287.367C436.386 286.796 437.618 286.511 439.05 286.511H452V288.07H439.114C437.443 288.07 436.101 288.569 435.087 289.566C434.064 290.555 433.553 291.863 433.553 293.491C433.553 294.582 433.791 295.553 434.268 296.406C434.746 297.258 435.415 297.927 436.276 298.413C437.128 298.899 438.125 299.142 439.267 299.142ZM432.364 273.088H433.757V281.666H432.364V273.088ZM427.659 278.764V277.217H447.359C448.161 277.217 448.817 277.063 449.328 276.757C449.831 276.441 450.206 276.032 450.453 275.529C450.692 275.018 450.811 274.472 450.811 273.893C450.811 273.612 450.79 273.369 450.747 273.164C450.705 272.951 450.649 272.751 450.581 272.563L452 272.18C452.085 272.419 452.158 272.683 452.217 272.972C452.286 273.262 452.32 273.603 452.32 273.995C452.32 274.813 452.136 275.589 451.77 276.322C451.403 277.046 450.871 277.634 450.172 278.086C449.473 278.538 448.629 278.764 447.641 278.764H427.659ZM452.409 260.214C452.409 261.833 451.974 263.274 451.105 264.535C450.227 265.796 449.021 266.789 447.487 267.514C445.953 268.238 444.206 268.6 442.246 268.6C440.277 268.6 438.53 268.238 437.004 267.514C435.47 266.789 434.264 265.796 433.386 264.535C432.509 263.274 432.07 261.833 432.07 260.214C432.07 258.595 432.509 257.154 433.386 255.893C434.264 254.632 435.47 253.639 437.004 252.914C438.538 252.19 440.286 251.828 442.246 251.828C444.206 251.828 445.953 252.19 447.487 252.914C449.021 253.639 450.227 254.632 451.105 255.893C451.974 257.154 452.409 258.595 452.409 260.214ZM450.964 260.214C450.964 258.842 450.577 257.644 449.801 256.622C449.026 255.59 447.977 254.794 446.656 254.231C445.335 253.66 443.865 253.374 442.246 253.374C440.626 253.374 439.161 253.66 437.848 254.231C436.527 254.802 435.479 255.599 434.703 256.622C433.919 257.644 433.527 258.842 433.527 260.214C433.527 261.586 433.919 262.784 434.703 263.806C435.479 264.829 436.527 265.626 437.848 266.197C439.161 266.768 440.626 267.053 442.246 267.053C443.865 267.053 445.335 266.772 446.656 266.21C447.977 265.639 449.026 264.842 449.801 263.819C450.577 262.788 450.964 261.586 450.964 260.214ZM452 246.455H432.364V244.934H435.432V244.793C434.426 244.367 433.621 243.647 433.016 242.633C432.402 241.618 432.095 240.464 432.095 239.168C432.095 239.032 432.095 238.895 432.095 238.759C432.095 238.623 432.099 238.495 432.108 238.376H433.68C433.672 238.478 433.659 238.601 433.642 238.746C433.616 238.883 433.604 239.053 433.604 239.258C433.604 240.349 433.838 241.32 434.307 242.172C434.776 243.016 435.423 243.681 436.25 244.167C437.068 244.653 438.006 244.895 439.062 244.895H452V246.455Z" fill="#343A40"/>
<rect x="500" y="500" width="125" height="10" transform="rotate(-90 500 500)" fill="#343A40"/>
<path d="M538.909 474.895C541.611 474.895 543.972 475.363 545.991 476.301C548.003 477.238 549.567 478.542 550.683 480.213C551.8 481.875 552.358 483.792 552.358 485.966C552.358 488.147 551.8 490.074 550.683 491.744C549.558 493.406 547.99 494.706 545.979 495.643C543.959 496.581 541.602 497.049 538.909 497.049C536.207 497.049 533.851 496.581 531.839 495.643C529.828 494.697 528.264 493.393 527.148 491.731C526.023 490.069 525.46 488.147 525.46 485.966C525.46 483.792 526.018 481.875 527.135 480.213C528.251 478.542 529.82 477.238 531.839 476.301C533.851 475.363 536.207 474.895 538.909 474.895ZM538.909 476.454C536.48 476.454 534.375 476.863 532.594 477.681C530.812 478.491 529.436 479.612 528.464 481.044C527.484 482.475 526.994 484.116 526.994 485.966C526.994 487.815 527.48 489.456 528.452 490.887C529.415 492.319 530.791 493.444 532.581 494.262C534.362 495.072 536.472 495.477 538.909 495.477C541.321 495.477 543.422 495.076 545.212 494.275C546.993 493.466 548.374 492.345 549.354 490.913C550.334 489.481 550.824 487.832 550.824 485.966C550.824 484.116 550.338 482.475 549.366 481.044C548.386 479.612 547.006 478.491 545.224 477.681C543.443 476.863 541.338 476.454 538.909 476.454ZM532.364 462.257H533.757V470.836H532.364V462.257ZM527.659 467.934V466.387H547.359C548.161 466.387 548.817 466.233 549.328 465.926C549.831 465.611 550.206 465.202 550.453 464.699C550.692 464.188 550.811 463.642 550.811 463.063C550.811 462.782 550.79 462.539 550.747 462.334C550.705 462.121 550.649 461.921 550.581 461.733L552 461.35C552.085 461.588 552.158 461.853 552.217 462.142C552.286 462.432 552.32 462.773 552.32 463.165C552.32 463.983 552.136 464.759 551.77 465.492C551.403 466.216 550.871 466.804 550.172 467.256C549.473 467.708 548.629 467.934 547.641 467.934H527.659ZM539.267 454.491H552V456.051H525.818V454.491H535.47V454.338C534.447 453.877 533.634 453.145 533.028 452.139C532.415 451.125 532.108 449.91 532.108 448.495C532.108 447.174 532.389 446.011 532.952 445.005C533.506 444 534.303 443.216 535.342 442.653C536.374 442.082 537.609 441.797 539.05 441.797H552V443.343H539.114C537.435 443.343 536.088 443.842 535.074 444.839C534.06 445.836 533.553 447.153 533.553 448.789C533.553 449.889 533.791 450.869 534.268 451.73C534.746 452.591 535.415 453.268 536.276 453.762C537.128 454.248 538.125 454.491 539.267 454.491ZM552.409 427.686C552.409 429.459 551.97 431.001 551.092 432.314C550.214 433.626 549.013 434.641 547.487 435.357C545.962 436.072 544.223 436.43 542.271 436.43C540.311 436.43 538.564 436.072 537.03 435.357C535.496 434.632 534.286 433.639 533.399 432.378C532.513 431.116 532.07 429.676 532.07 428.057C532.07 426.957 532.291 425.918 532.734 424.938C533.169 423.949 533.8 423.08 534.626 422.33C535.453 421.571 536.45 420.979 537.618 420.553C538.786 420.118 540.098 419.901 541.555 419.901H542.527V435.446H541.108V421.46C539.685 421.46 538.402 421.75 537.26 422.33C536.118 422.909 535.21 423.697 534.537 424.695C533.864 425.692 533.527 426.812 533.527 428.057C533.527 429.361 533.893 430.524 534.626 431.547C535.351 432.561 536.331 433.366 537.567 433.963C538.803 434.551 540.183 434.858 541.709 434.884H542.348C543.984 434.884 545.455 434.598 546.759 434.027C548.054 433.447 549.081 432.621 549.839 431.547C550.589 430.473 550.964 429.186 550.964 427.686C550.964 426.612 550.786 425.696 550.428 424.938C550.061 424.17 549.618 423.544 549.098 423.058C548.578 422.572 548.075 422.206 547.589 421.959L548.165 420.54C548.821 420.838 549.477 421.303 550.134 421.933C550.781 422.555 551.322 423.348 551.757 424.311C552.192 425.266 552.409 426.391 552.409 427.686ZM552 414.531H532.364V413.01H535.432V412.869C534.426 412.443 533.621 411.723 533.016 410.709C532.402 409.695 532.095 408.54 532.095 407.244C532.095 407.108 532.095 406.972 532.095 406.835C532.095 406.699 532.099 406.571 532.108 406.452H533.68C533.672 406.554 533.659 406.678 533.642 406.822C533.616 406.959 533.604 407.129 533.604 407.334C533.604 408.425 533.838 409.396 534.307 410.249C534.776 411.092 535.423 411.757 536.25 412.243C537.068 412.729 538.006 412.972 539.062 412.972H552V414.531Z" fill="#343A40"/>
</svg>
