<svg width="563" height="500" viewBox="0 0 563 500" fill="none" xmlns="http://www.w3.org/2000/svg">
<rect y="500" width="450" height="10" transform="rotate(-90 0 500)" fill="#C43739"/>
<path d="M52 488.558V495.819H25.8182V487.996C25.8182 485.541 26.3381 483.44 27.3778 481.693C28.4176 479.946 29.9091 478.608 31.8523 477.679C33.7869 476.741 36.1094 476.277 38.8196 476.285C41.5895 476.294 43.9588 476.78 45.9276 477.743C47.8878 478.706 49.392 480.099 50.4403 481.923C51.4801 483.747 52 485.959 52 488.558ZM50.517 494.221V488.622C50.517 486.287 50.0526 484.318 49.1236 482.716C48.1861 481.113 46.8437 479.903 45.0966 479.085C43.3494 478.258 41.2571 477.849 38.8196 477.858C36.4162 477.858 34.358 478.254 32.6449 479.047C30.9233 479.839 29.6023 480.994 28.6818 482.511C27.7614 484.02 27.3011 485.869 27.3011 488.059V494.221H50.517ZM52 470.523H32.3636V468.976H52V470.523ZM28.8864 469.743C28.8864 470.084 28.767 470.382 28.5284 470.638C28.2898 470.885 28 471.009 27.6591 471.009C27.3182 471.009 27.0284 470.885 26.7898 470.638C26.5511 470.391 26.4318 470.093 26.4318 469.743C26.4318 469.402 26.5511 469.108 26.7898 468.861C27.0284 468.605 27.3182 468.477 27.6591 468.477C28 468.477 28.2898 468.601 28.5284 468.848C28.767 469.095 28.8864 469.394 28.8864 469.743ZM32.3636 455.029H33.7571V463.735H32.3636V455.029ZM52 460.871H29.3082C28.3196 460.871 27.4759 460.645 26.777 460.193C26.0781 459.742 25.5455 459.149 25.179 458.416C24.8125 457.675 24.6293 456.878 24.6293 456.026C24.6293 455.574 24.6676 455.191 24.7443 454.875C24.8125 454.551 24.8935 454.27 24.9872 454.031L26.3679 454.492C26.2997 454.688 26.2401 454.901 26.1889 455.131C26.1378 455.352 26.1122 455.617 26.1122 455.923C26.1122 456.912 26.4148 457.726 27.0199 458.365C27.625 459.004 28.4687 459.324 29.5511 459.324L52 459.337V460.871ZM32.3636 442.759H33.7571V451.465H32.3636V442.759ZM52 448.601H29.3082C28.3196 448.601 27.4759 448.376 26.777 447.924C26.0781 447.472 25.5455 446.88 25.179 446.147C24.8125 445.405 24.6293 444.608 24.6293 443.756C24.6293 443.305 24.6676 442.921 24.7443 442.606C24.8125 442.282 24.8935 442.001 24.9872 441.762L26.3679 442.222C26.2997 442.418 26.2401 442.631 26.1889 442.861C26.1378 443.083 26.1122 443.347 26.1122 443.654C26.1122 444.643 26.4148 445.456 27.0199 446.096C27.625 446.735 28.4687 447.055 29.5511 447.055L52 447.067V448.601ZM52 437.828H32.3636V436.281H52V437.828ZM28.8864 437.048C28.8864 437.389 28.767 437.687 28.5284 437.943C28.2898 438.19 28 438.313 27.6591 438.313C27.3182 438.313 27.0284 438.19 26.7898 437.943C26.5511 437.695 26.4318 437.397 26.4318 437.048C26.4318 436.707 26.5511 436.413 26.7898 436.166C27.0284 435.91 27.3182 435.782 27.6591 435.782C28 435.782 28.2898 435.906 28.5284 436.153C28.767 436.4 28.8864 436.698 28.8864 437.048ZM52.4091 422.384C52.4091 424.055 51.9702 425.525 51.0923 426.795C50.206 428.065 48.9957 429.058 47.4616 429.774C45.9276 430.481 44.1889 430.835 42.2457 430.835C40.3026 430.835 38.5639 430.477 37.0298 429.761C35.4957 429.045 34.2855 428.052 33.3991 426.782C32.5128 425.512 32.0696 424.051 32.0696 422.397C32.0696 421.153 32.3253 420.019 32.8366 418.997C33.348 417.965 34.0597 417.113 34.9716 416.44C35.8835 415.758 36.9403 415.323 38.142 415.136V416.721C36.8125 416.977 35.7131 417.616 34.8438 418.639C33.9659 419.653 33.527 420.901 33.527 422.384C33.527 423.714 33.902 424.899 34.652 425.938C35.3935 426.978 36.4205 427.796 37.733 428.393C39.0369 428.99 40.5327 429.288 42.2202 429.288C43.8821 429.288 45.3736 428.998 46.6946 428.419C48.0071 427.839 49.0469 427.029 49.8139 425.99C50.581 424.95 50.9645 423.748 50.9645 422.384C50.9645 421.421 50.7727 420.544 50.3892 419.751C50.0057 418.95 49.4602 418.281 48.7528 417.744C48.0455 417.207 47.2188 416.853 46.2727 416.683V415.097C47.483 415.285 48.5483 415.711 49.4688 416.376C50.3892 417.041 51.1094 417.889 51.6293 418.92C52.1491 419.951 52.4091 421.106 52.4091 422.384ZM45.0327 397.2H32.3636V395.64H52V397.2H48.8168V397.328C49.831 397.788 50.6577 398.534 51.2969 399.565C51.9361 400.588 52.2557 401.798 52.2557 403.195C52.2557 404.482 51.9744 405.62 51.4119 406.609C50.8494 407.597 50.0526 408.373 49.0213 408.936C47.9815 409.498 46.7457 409.779 45.3139 409.779H32.3636V408.22H45.25C46.8864 408.22 48.2116 407.725 49.2259 406.737C50.2315 405.74 50.7344 404.453 50.7344 402.876C50.7344 401.853 50.5043 400.911 50.044 400.051C49.5838 399.19 48.9276 398.499 48.0753 397.98C47.2145 397.46 46.2003 397.2 45.0327 397.2ZM25.8182 387.618H52V389.178H25.8182V387.618ZM32.3636 374.22H33.7571V382.798H32.3636V374.22ZM27.6591 379.896V378.35H47.3594C48.1605 378.35 48.8168 378.196 49.3281 377.889C49.831 377.574 50.206 377.165 50.4531 376.662C50.6918 376.151 50.8111 375.605 50.8111 375.026C50.8111 374.744 50.7898 374.502 50.7472 374.297C50.7045 374.084 50.6491 373.884 50.581 373.696L52 373.313C52.0852 373.551 52.1577 373.816 52.2173 374.105C52.2855 374.395 52.3196 374.736 52.3196 375.128C52.3196 375.946 52.1364 376.722 51.7699 377.455C51.4034 378.179 50.8707 378.767 50.1719 379.219C49.473 379.671 48.6293 379.896 47.6406 379.896H27.6591ZM59.3636 367.183C59.3636 367.575 59.321 367.963 59.2358 368.346C59.1506 368.73 59.0398 369.075 58.9034 369.382L57.5355 368.921C57.8423 368.12 57.9531 367.396 57.8679 366.748C57.7827 366.092 57.4844 365.512 56.973 365.009C56.4616 364.507 55.7116 364.08 54.723 363.731L52.2685 362.836L32.3636 370.034V368.359L49.9929 362.12V361.992L32.3636 355.754L32.3636 354.079L55.3366 362.363C56.223 362.678 56.9645 363.075 57.5611 363.552C58.1577 364.029 58.6051 364.575 58.9034 365.188C59.2102 365.794 59.3636 366.458 59.3636 367.183ZM34 318.587V320.224C33.1136 320.394 32.2571 320.714 31.4304 321.182C30.5952 321.651 29.8452 322.256 29.1804 322.998C28.5071 323.731 27.9744 324.583 27.5824 325.555C27.1903 326.526 26.9943 327.6 26.9943 328.776C26.9943 330.498 27.4545 332.083 28.375 333.532C29.2869 334.972 30.6293 336.127 32.402 336.996C34.1747 337.857 36.3437 338.287 38.9091 338.287C41.4915 338.287 43.669 337.857 45.4418 336.996C47.2145 336.127 48.5568 334.972 49.4688 333.532C50.3722 332.083 50.8239 330.498 50.8239 328.776C50.8239 327.6 50.6321 326.526 50.2486 325.555C49.8565 324.583 49.3281 323.731 48.6634 322.998C47.9901 322.256 47.2358 321.651 46.4006 321.182C45.5653 320.714 44.7045 320.394 43.8182 320.224V318.587C44.875 318.775 45.9105 319.137 46.9247 319.674C47.9389 320.202 48.8594 320.901 49.6861 321.77C50.5043 322.631 51.1562 323.65 51.642 324.826C52.1193 325.993 52.358 327.31 52.358 328.776C52.358 330.958 51.804 332.88 50.696 334.542C49.5795 336.204 48.0114 337.508 45.9915 338.454C43.9716 339.391 41.6108 339.86 38.9091 339.86C36.2074 339.86 33.8466 339.391 31.8267 338.454C29.8068 337.508 28.2429 336.204 27.1349 334.542C26.0185 332.88 25.4602 330.958 25.4602 328.776C25.4602 327.31 25.7031 325.993 26.1889 324.826C26.6662 323.65 27.3139 322.631 28.1321 321.77C28.9418 320.901 29.8537 320.202 30.8679 319.674C31.8821 319.137 32.9261 318.775 34 318.587ZM52.4091 305.694C52.4091 307.314 51.9744 308.754 51.1051 310.015C50.2273 311.277 49.0213 312.27 47.4872 312.994C45.9531 313.719 44.206 314.081 42.2457 314.081C40.277 314.081 38.5298 313.719 37.0043 312.994C35.4702 312.27 34.2642 311.277 33.3864 310.015C32.5085 308.754 32.0696 307.314 32.0696 305.694C32.0696 304.075 32.5085 302.635 33.3864 301.373C34.2642 300.112 35.4702 299.119 37.0043 298.395C38.5384 297.67 40.2855 297.308 42.2457 297.308C44.206 297.308 45.9531 297.67 47.4872 298.395C49.0213 299.119 50.2273 300.112 51.1051 301.373C51.9744 302.635 52.4091 304.075 52.4091 305.694ZM50.9645 305.694C50.9645 304.322 50.5767 303.125 49.8011 302.102C49.0256 301.071 47.9773 300.274 46.6563 299.711C45.3352 299.14 43.8651 298.855 42.2457 298.855C40.6264 298.855 39.1605 299.14 37.848 299.711C36.527 300.282 35.4787 301.079 34.7031 302.102C33.919 303.125 33.527 304.322 33.527 305.694C33.527 307.067 33.919 308.264 34.7031 309.287C35.4787 310.309 36.527 311.106 37.848 311.677C39.1605 312.248 40.6264 312.534 42.2457 312.534C43.8651 312.534 45.3352 312.253 46.6563 311.69C47.9773 311.119 49.0256 310.322 49.8011 309.3C50.5767 308.268 50.9645 307.067 50.9645 305.694ZM39.267 290.376H52V291.936H32.3636V290.414H35.4702V290.261C34.456 289.801 33.642 289.063 33.0284 288.049C32.4148 287.035 32.108 285.829 32.108 284.431C32.108 283.11 32.3892 281.951 32.9517 280.954C33.5142 279.948 34.3153 279.164 35.3551 278.602C36.3864 278.031 37.6179 277.745 39.0497 277.745H52V279.305H39.1136C37.4432 279.305 36.1009 279.803 35.0866 280.801C34.0639 281.789 33.5526 283.097 33.5526 284.725C33.5526 285.816 33.7912 286.788 34.2685 287.64C34.7457 288.492 35.4148 289.161 36.2756 289.647C37.1278 290.133 38.125 290.376 39.267 290.376ZM52.4091 263.9C52.4091 265.57 51.9702 267.041 51.0923 268.311C50.206 269.58 48.9957 270.573 47.4616 271.289C45.9276 271.997 44.1889 272.35 42.2457 272.35C40.3026 272.35 38.5639 271.992 37.0298 271.276C35.4957 270.561 34.2855 269.568 33.3991 268.298C32.5128 267.028 32.0696 265.566 32.0696 263.913C32.0696 262.669 32.3253 261.535 32.8366 260.512C33.348 259.481 34.0597 258.629 34.9716 257.955C35.8835 257.274 36.9403 256.839 38.142 256.651V258.237C36.8125 258.492 35.7131 259.132 34.8438 260.154C33.9659 261.169 33.527 262.417 33.527 263.9C33.527 265.23 33.902 266.414 34.652 267.454C35.3935 268.494 36.4205 269.312 37.733 269.909C39.0369 270.505 40.5327 270.803 42.2202 270.803C43.8821 270.803 45.3736 270.514 46.6946 269.934C48.0071 269.355 49.0469 268.545 49.8139 267.505C50.581 266.465 50.9645 265.264 50.9645 263.9C50.9645 262.937 50.7727 262.059 50.3892 261.267C50.0057 260.465 49.4602 259.796 48.7528 259.259C48.0455 258.722 47.2188 258.369 46.2727 258.198V256.613C47.483 256.801 48.5483 257.227 49.4688 257.892C50.3892 258.556 51.1094 259.404 51.6293 260.436C52.1491 261.467 52.4091 262.622 52.4091 263.9ZM52.4091 243.637C52.4091 245.41 51.9702 246.953 51.0923 248.265C50.2145 249.578 49.0128 250.592 47.4872 251.308C45.9616 252.024 44.223 252.382 42.2713 252.382C40.3111 252.382 38.5639 252.024 37.0298 251.308C35.4957 250.583 34.2855 249.59 33.3991 248.329C32.5128 247.068 32.0696 245.627 32.0696 244.008C32.0696 242.909 32.2912 241.869 32.7344 240.889C33.169 239.9 33.7997 239.031 34.6264 238.281C35.4531 237.522 36.4503 236.93 37.6179 236.504C38.7855 236.069 40.098 235.852 41.5554 235.852H42.527V251.397H41.108V237.411C39.6847 237.411 38.402 237.701 37.2599 238.281C36.1179 238.86 35.2102 239.649 34.5369 240.646C33.8636 241.643 33.527 242.764 33.527 244.008C33.527 245.312 33.8935 246.475 34.6264 247.498C35.3509 248.512 36.331 249.318 37.5668 249.914C38.8026 250.502 40.1832 250.809 41.7088 250.835H42.348C43.9844 250.835 45.4545 250.549 46.7585 249.978C48.054 249.399 49.081 248.572 49.8395 247.498C50.5895 246.424 50.9645 245.137 50.9645 243.637C50.9645 242.563 50.7855 241.647 50.4276 240.889C50.0611 240.122 49.6179 239.495 49.098 239.009C48.5781 238.524 48.0753 238.157 47.5895 237.91L48.1648 236.491C48.821 236.789 49.4773 237.254 50.1335 237.884C50.7812 238.507 51.3224 239.299 51.7571 240.262C52.1918 241.217 52.4091 242.342 52.4091 243.637ZM39.267 228.923H52V230.482H32.3636V228.961H35.4702V228.808C34.456 228.347 33.642 227.61 33.0284 226.596C32.4148 225.582 32.108 224.376 32.108 222.978C32.108 221.657 32.3892 220.498 32.9517 219.501C33.5142 218.495 34.3153 217.711 35.3551 217.149C36.3864 216.578 37.6179 216.292 39.0497 216.292H52V217.852H39.1136C37.4432 217.852 36.1009 218.35 35.0866 219.347C34.0639 220.336 33.5526 221.644 33.5526 223.272C33.5526 224.363 33.7912 225.335 34.2685 226.187C34.7457 227.039 35.4148 227.708 36.2756 228.194C37.1278 228.68 38.125 228.923 39.267 228.923ZM32.3636 202.869H33.7571V211.447H32.3636V202.869ZM27.6591 208.545V206.998H47.3594C48.1605 206.998 48.8168 206.845 49.3281 206.538C49.831 206.222 50.206 205.813 50.4531 205.311C50.6918 204.799 50.8111 204.254 50.8111 203.674C50.8111 203.393 50.7898 203.15 50.7472 202.945C50.7045 202.732 50.6491 202.532 50.581 202.345L52 201.961C52.0852 202.2 52.1577 202.464 52.2173 202.754C52.2855 203.044 52.3196 203.384 52.3196 203.776C52.3196 204.595 52.1364 205.37 51.7699 206.103C51.4034 206.828 50.8707 207.416 50.1719 207.867C49.473 208.319 48.6293 208.545 47.6406 208.545H27.6591ZM52 197.084H32.3636V195.563H35.4318V195.422C34.4261 194.996 33.6207 194.276 33.0156 193.262C32.402 192.247 32.0952 191.093 32.0952 189.797C32.0952 189.661 32.0952 189.524 32.0952 189.388C32.0952 189.252 32.0994 189.124 32.108 189.004H33.6804C33.6719 189.107 33.6591 189.23 33.642 189.375C33.6165 189.512 33.6037 189.682 33.6037 189.887C33.6037 190.977 33.8381 191.949 34.3068 192.801C34.7756 193.645 35.4233 194.31 36.25 194.796C37.0682 195.281 38.0057 195.524 39.0625 195.524H52V197.084ZM52.4219 179.611C52.4219 180.745 52.196 181.785 51.7443 182.731C51.2926 183.668 50.6321 184.422 49.7628 184.993C48.8935 185.556 47.8366 185.837 46.5923 185.837C45.7741 185.837 45.054 185.692 44.4318 185.403C43.8097 185.113 43.2727 184.665 42.821 184.06C42.3693 183.455 41.9986 182.68 41.7088 181.733C41.4105 180.787 41.1804 179.658 41.0185 178.346C40.8991 177.349 40.7841 176.458 40.6733 175.674C40.554 174.89 40.3707 174.276 40.1236 173.833C39.8764 173.381 39.5014 173.155 38.9986 173.155H38.1804C36.7486 173.155 35.6108 173.607 34.767 174.51C33.9233 175.414 33.5014 176.658 33.5014 178.243C33.5014 179.65 33.8125 180.834 34.4347 181.797C35.0483 182.752 35.8409 183.421 36.8125 183.805L36.2628 185.275C35.3253 184.9 34.5455 184.358 33.9233 183.651C33.3011 182.935 32.8366 182.117 32.5298 181.197C32.223 180.268 32.0696 179.296 32.0696 178.282C32.0696 177.404 32.1932 176.569 32.4403 175.776C32.6875 174.975 33.0625 174.263 33.5653 173.641C34.0682 173.01 34.7116 172.512 35.4957 172.145C36.2713 171.779 37.2003 171.596 38.2827 171.596H52V173.155H48.4588V173.27C49.1918 173.611 49.8608 174.08 50.4659 174.677C51.0625 175.265 51.5398 175.976 51.8977 176.812C52.2472 177.638 52.4219 178.572 52.4219 179.611ZM50.9773 179.458C50.9773 178.231 50.679 177.144 50.0824 176.198C49.4773 175.243 48.6506 174.498 47.6023 173.961C46.554 173.424 45.3651 173.155 44.0355 173.155H41.1463C41.3168 173.351 41.4702 173.637 41.6065 174.012C41.7344 174.378 41.8494 174.796 41.9517 175.265C42.0455 175.725 42.1307 176.211 42.2074 176.722C42.2756 177.225 42.3395 177.715 42.3991 178.192C42.5696 179.624 42.8338 180.792 43.1918 181.695C43.5412 182.59 44.0014 183.246 44.5724 183.664C45.1435 184.073 45.8338 184.278 46.6435 184.278C47.9815 184.278 49.0384 183.817 49.8139 182.897C50.5895 181.976 50.9773 180.83 50.9773 179.458ZM32.3636 158.115H33.7571V166.693H32.3636V158.115ZM27.6591 163.791V162.244H47.3594C48.1605 162.244 48.8168 162.091 49.3281 161.784C49.831 161.469 50.206 161.059 50.4531 160.557C50.6918 160.045 50.8111 159.5 50.8111 158.92C50.8111 158.639 50.7898 158.396 50.7472 158.192C50.7045 157.979 50.6491 157.778 50.581 157.591L52 157.207C52.0852 157.446 52.1577 157.71 52.2173 158C52.2855 158.29 52.3196 158.631 52.3196 159.023C52.3196 159.841 52.1364 160.616 51.7699 161.349C51.4034 162.074 50.8707 162.662 50.1719 163.113C49.473 163.565 48.6293 163.791 47.6406 163.791H27.6591ZM52 152.253H32.3636V150.706H52V152.253ZM28.8864 151.474C28.8864 151.814 28.767 152.113 28.5284 152.368C28.2898 152.616 28 152.739 27.6591 152.739C27.3182 152.739 27.0284 152.616 26.7898 152.368C26.5511 152.121 26.4318 151.823 26.4318 151.474C26.4318 151.133 26.5511 150.839 26.7898 150.591C27.0284 150.336 27.3182 150.208 27.6591 150.208C28 150.208 28.2898 150.331 28.5284 150.579C28.767 150.826 28.8864 151.124 28.8864 151.474ZM39.267 142.614H52V144.174H32.3636V142.653H35.4702V142.499C34.456 142.039 33.642 141.302 33.0284 140.287C32.4148 139.273 32.108 138.067 32.108 136.67C32.108 135.349 32.3892 134.189 32.9517 133.192C33.5142 132.187 34.3153 131.403 35.3551 130.84C36.3864 130.269 37.6179 129.983 39.0497 129.983H52V131.543H39.1136C37.4432 131.543 36.1009 132.042 35.0866 133.039C34.0639 134.028 33.5526 135.336 33.5526 136.964C33.5526 138.055 33.7912 139.026 34.2685 139.878C34.7457 140.731 35.4148 141.4 36.2756 141.885C37.1278 142.371 38.125 142.614 39.267 142.614ZM59.7727 116.42C59.7727 117.638 59.6108 118.733 59.2869 119.705C58.9716 120.677 58.5199 121.503 57.9318 122.185C57.3438 122.858 56.6449 123.374 55.8352 123.732L55.0682 122.428C55.6989 122.138 56.2614 121.725 56.7557 121.188C57.25 120.651 57.6378 119.986 57.919 119.194C58.2003 118.393 58.3409 117.468 58.3409 116.42C58.3409 114.528 57.8509 113.032 56.8707 111.932C55.8991 110.824 54.4077 110.27 52.3963 110.27H47.5128V110.424C48.3651 110.722 49.1236 111.165 49.7884 111.753C50.4446 112.333 50.9602 113.045 51.3352 113.888C51.7102 114.732 51.8977 115.691 51.8977 116.765C51.8977 118.316 51.4972 119.68 50.696 120.856C49.8949 122.032 48.7699 122.948 47.321 123.604C45.8636 124.26 44.1506 124.589 42.1818 124.589C40.2131 124.589 38.4702 124.269 36.9531 123.63C35.4276 122.982 34.2344 122.07 33.3736 120.894C32.5043 119.718 32.0696 118.337 32.0696 116.752C32.0696 115.618 32.2869 114.638 32.7216 113.812C33.1477 112.976 33.7145 112.278 34.4219 111.715C35.1293 111.153 35.9048 110.718 36.7486 110.411V110.232H32.3636V108.724H52.4602C54.0966 108.724 55.456 109.047 56.5384 109.695C57.6207 110.334 58.4304 111.233 58.9673 112.393C59.5043 113.543 59.7727 114.885 59.7727 116.42ZM50.4531 116.624C50.4531 115.312 50.1207 114.182 49.456 113.236C48.7827 112.282 47.8281 111.549 46.5923 111.037C45.348 110.518 43.8736 110.258 42.169 110.258C40.5156 110.258 39.0369 110.509 37.733 111.012C36.429 111.515 35.402 112.243 34.652 113.198C33.902 114.153 33.527 115.295 33.527 116.624C33.527 117.979 33.9105 119.134 34.6776 120.089C35.4361 121.043 36.4673 121.776 37.7713 122.287C39.0753 122.79 40.5412 123.042 42.169 123.042C43.8054 123.042 45.2457 122.786 46.4901 122.275C47.7259 121.763 48.6974 121.03 49.4048 120.076C50.1037 119.121 50.4531 117.971 50.4531 116.624Z" fill="#343A40"/>
<rect x="100" y="500" width="250" height="10" transform="rotate(-90 100 500)" fill="#0E8F8D"/>
<path d="M125.818 494.292H152V495.89H125.818V494.292ZM139.267 485.704H152V487.264H132.364V485.742H135.47V485.589C134.456 485.129 133.642 484.392 133.028 483.377C132.415 482.363 132.108 481.157 132.108 479.759C132.108 478.438 132.389 477.279 132.952 476.282C133.514 475.276 134.315 474.492 135.355 473.93C136.386 473.359 137.618 473.073 139.05 473.073H152V474.633H139.114C137.443 474.633 136.101 475.132 135.087 476.129C134.064 477.117 133.553 478.426 133.553 480.053C133.553 481.144 133.791 482.116 134.268 482.968C134.746 483.82 135.415 484.49 136.276 484.975C137.128 485.461 138.125 485.704 139.267 485.704ZM132.364 459.65H133.757V468.228H132.364V459.65ZM127.659 465.326V463.779H147.359C148.161 463.779 148.817 463.626 149.328 463.319C149.831 463.004 150.206 462.595 150.453 462.092C150.692 461.58 150.811 461.035 150.811 460.455C150.811 460.174 150.79 459.931 150.747 459.727C150.705 459.514 150.649 459.313 150.581 459.126L152 458.742C152.085 458.981 152.158 459.245 152.217 459.535C152.286 459.825 152.32 460.166 152.32 460.558C152.32 461.376 152.136 462.151 151.77 462.884C151.403 463.609 150.871 464.197 150.172 464.649C149.473 465.1 148.629 465.326 147.641 465.326H127.659ZM152.409 446.419C152.409 448.191 151.97 449.734 151.092 451.046C150.214 452.359 149.013 453.373 147.487 454.089C145.962 454.805 144.223 455.163 142.271 455.163C140.311 455.163 138.564 454.805 137.03 454.089C135.496 453.365 134.286 452.372 133.399 451.11C132.513 449.849 132.07 448.409 132.07 446.789C132.07 445.69 132.291 444.65 132.734 443.67C133.169 442.681 133.8 441.812 134.626 441.062C135.453 440.303 136.45 439.711 137.618 439.285C138.786 438.85 140.098 438.633 141.555 438.633H142.527V454.178H141.108V440.193C139.685 440.193 138.402 440.482 137.26 441.062C136.118 441.642 135.21 442.43 134.537 443.427C133.864 444.424 133.527 445.545 133.527 446.789C133.527 448.093 133.893 449.257 134.626 450.279C135.351 451.294 136.331 452.099 137.567 452.695C138.803 453.284 140.183 453.59 141.709 453.616H142.348C143.984 453.616 145.455 453.33 146.759 452.759C148.054 452.18 149.081 451.353 149.839 450.279C150.589 449.205 150.964 447.919 150.964 446.419C150.964 445.345 150.786 444.428 150.428 443.67C150.061 442.903 149.618 442.276 149.098 441.791C148.578 441.305 148.075 440.938 147.589 440.691L148.165 439.272C148.821 439.57 149.477 440.035 150.134 440.666C150.781 441.288 151.322 442.08 151.757 443.044C152.192 443.998 152.409 445.123 152.409 446.419ZM139.267 431.704H152V433.264H132.364V431.742H135.47V431.589C134.456 431.129 133.642 430.392 133.028 429.377C132.415 428.363 132.108 427.157 132.108 425.759C132.108 424.438 132.389 423.279 132.952 422.282C133.514 421.276 134.315 420.492 135.355 419.93C136.386 419.359 137.618 419.073 139.05 419.073H152V420.633H139.114C137.443 420.633 136.101 421.132 135.087 422.129C134.064 423.117 133.553 424.426 133.553 426.053C133.553 427.144 133.791 428.116 134.268 428.968C134.746 429.82 135.415 430.49 136.276 430.975C137.128 431.461 138.125 431.704 139.267 431.704ZM136.595 400.115L136.979 401.559C136.263 401.789 135.645 402.117 135.125 402.544C134.605 402.97 134.205 403.507 133.923 404.154C133.634 404.794 133.489 405.561 133.489 406.455C133.489 407.896 133.847 409.076 134.562 409.997C135.278 410.909 136.212 411.365 137.362 411.365C138.3 411.365 139.075 411.053 139.689 410.431C140.294 409.809 140.754 408.859 141.07 407.58L141.824 404.563C142.207 403.012 142.83 401.845 143.69 401.061C144.543 400.276 145.604 399.884 146.874 399.884C147.956 399.884 148.915 400.178 149.75 400.767C150.585 401.355 151.237 402.169 151.706 403.208C152.175 404.24 152.409 405.441 152.409 406.813C152.409 408.646 151.983 410.15 151.131 411.326C150.27 412.502 149.038 413.257 147.436 413.589L147.053 412.093C148.331 411.812 149.307 411.228 149.98 410.342C150.645 409.447 150.977 408.275 150.977 406.826C150.977 405.224 150.598 403.933 149.839 402.953C149.081 401.964 148.109 401.47 146.925 401.47C146.021 401.47 145.259 401.759 144.636 402.339C144.014 402.919 143.558 403.796 143.268 404.972L142.501 408.105C142.109 409.707 141.483 410.909 140.622 411.71C139.753 412.511 138.683 412.911 137.413 412.911C136.357 412.911 135.428 412.634 134.626 412.08C133.825 411.526 133.199 410.764 132.747 409.792C132.295 408.82 132.07 407.708 132.07 406.455C132.07 404.794 132.462 403.438 133.246 402.39C134.03 401.342 135.146 400.583 136.595 400.115ZM152.409 386.829C152.409 388.601 151.97 390.144 151.092 391.456C150.214 392.769 149.013 393.783 147.487 394.499C145.962 395.215 144.223 395.573 142.271 395.573C140.311 395.573 138.564 395.215 137.03 394.499C135.496 393.775 134.286 392.782 133.399 391.52C132.513 390.259 132.07 388.819 132.07 387.199C132.07 386.1 132.291 385.06 132.734 384.08C133.169 383.091 133.8 382.222 134.626 381.472C135.453 380.714 136.45 380.121 137.618 379.695C138.786 379.26 140.098 379.043 141.555 379.043H142.527V394.589H141.108V380.603C139.685 380.603 138.402 380.893 137.26 381.472C136.118 382.052 135.21 382.84 134.537 383.837C133.864 384.834 133.527 385.955 133.527 387.199C133.527 388.503 133.893 389.667 134.626 390.689C135.351 391.704 136.331 392.509 137.567 393.106C138.803 393.694 140.183 394.001 141.709 394.026H142.348C143.984 394.026 145.455 393.741 146.759 393.17C148.054 392.59 149.081 391.763 149.839 390.689C150.589 389.616 150.964 388.329 150.964 386.829C150.964 385.755 150.786 384.839 150.428 384.08C150.061 383.313 149.618 382.687 149.098 382.201C148.578 381.715 148.075 381.349 147.589 381.101L148.165 379.682C148.821 379.981 149.477 380.445 150.134 381.076C150.781 381.698 151.322 382.491 151.757 383.454C152.192 384.408 152.409 385.533 152.409 386.829ZM152 362.999H125.818V348.425H127.301V361.401H138.155V349.205H139.638V361.401H150.517V348.118H152V362.999ZM152 342.35H132.364V340.828H135.33V340.675C134.341 340.3 133.557 339.652 132.977 338.732C132.398 337.811 132.108 336.703 132.108 335.408C132.108 333.985 132.449 332.838 133.131 331.969C133.812 331.091 134.737 330.46 135.905 330.077V329.936C134.754 329.553 133.834 328.867 133.143 327.878C132.453 326.881 132.108 325.654 132.108 324.196C132.108 322.296 132.709 320.847 133.911 319.85C135.104 318.844 136.74 318.341 138.82 318.341H152V319.901H138.82C137.183 319.901 135.896 320.293 134.959 321.077C134.021 321.861 133.553 323.012 133.553 324.529C133.553 326.148 134.06 327.392 135.074 328.262C136.088 329.131 137.379 329.566 138.947 329.566H152V331.125H138.717C137.192 331.125 135.952 331.509 134.997 332.276C134.034 333.043 133.553 334.193 133.553 335.727C133.553 336.767 133.791 337.666 134.268 338.425C134.746 339.175 135.402 339.759 136.237 340.176C137.072 340.585 138.031 340.79 139.114 340.79H152V342.35ZM152.409 304.569C152.409 306.189 151.974 307.629 151.105 308.89C150.227 310.152 149.021 311.145 147.487 311.869C145.953 312.594 144.206 312.956 142.246 312.956C140.277 312.956 138.53 312.594 137.004 311.869C135.47 311.145 134.264 310.152 133.386 308.89C132.509 307.629 132.07 306.189 132.07 304.569C132.07 302.95 132.509 301.51 133.386 300.248C134.264 298.987 135.47 297.994 137.004 297.27C138.538 296.545 140.286 296.183 142.246 296.183C144.206 296.183 145.953 296.545 147.487 297.27C149.021 297.994 150.227 298.987 151.105 300.248C151.974 301.51 152.409 302.95 152.409 304.569ZM150.964 304.569C150.964 303.197 150.577 302 149.801 300.977C149.026 299.946 147.977 299.149 146.656 298.586C145.335 298.015 143.865 297.73 142.246 297.73C140.626 297.73 139.161 298.015 137.848 298.586C136.527 299.157 135.479 299.954 134.703 300.977C133.919 302 133.527 303.197 133.527 304.569C133.527 305.942 133.919 307.139 134.703 308.162C135.479 309.184 136.527 309.981 137.848 310.552C139.161 311.123 140.626 311.409 142.246 311.409C143.865 311.409 145.335 311.128 146.656 310.565C147.977 309.994 149.026 309.197 149.801 308.175C150.577 307.143 150.964 305.942 150.964 304.569ZM132.364 283.869H133.757V292.447H132.364V283.869ZM127.659 289.545V287.998H147.359C148.161 287.998 148.817 287.845 149.328 287.538C149.831 287.222 150.206 286.813 150.453 286.311C150.692 285.799 150.811 285.254 150.811 284.674C150.811 284.393 150.79 284.15 150.747 283.945C150.705 283.732 150.649 283.532 150.581 283.345L152 282.961C152.085 283.2 152.158 283.464 152.217 283.754C152.286 284.044 152.32 284.384 152.32 284.776C152.32 285.595 152.136 286.37 151.77 287.103C151.403 287.828 150.871 288.416 150.172 288.867C149.473 289.319 148.629 289.545 147.641 289.545H127.659ZM152 278.007H132.364V276.46H152V278.007ZM128.886 277.227C128.886 277.568 128.767 277.867 128.528 278.122C128.29 278.369 128 278.493 127.659 278.493C127.318 278.493 127.028 278.369 126.79 278.122C126.551 277.875 126.432 277.577 126.432 277.227C126.432 276.887 126.551 276.593 126.79 276.345C127.028 276.09 127.318 275.962 127.659 275.962C128 275.962 128.29 276.085 128.528 276.333C128.767 276.58 128.886 276.878 128.886 277.227ZM152.409 262.628C152.409 264.247 151.974 265.688 151.105 266.949C150.227 268.21 149.021 269.203 147.487 269.928C145.953 270.652 144.206 271.014 142.246 271.014C140.277 271.014 138.53 270.652 137.004 269.928C135.47 269.203 134.264 268.21 133.386 266.949C132.509 265.688 132.07 264.247 132.07 262.628C132.07 261.009 132.509 259.568 133.386 258.307C134.264 257.046 135.47 256.053 137.004 255.328C138.538 254.604 140.286 254.242 142.246 254.242C144.206 254.242 145.953 254.604 147.487 255.328C149.021 256.053 150.227 257.046 151.105 258.307C151.974 259.568 152.409 261.009 152.409 262.628ZM150.964 262.628C150.964 261.256 150.577 260.058 149.801 259.036C149.026 258.004 147.977 257.208 146.656 256.645C145.335 256.074 143.865 255.789 142.246 255.789C140.626 255.789 139.161 256.074 137.848 256.645C136.527 257.216 135.479 258.013 134.703 259.036C133.919 260.058 133.527 261.256 133.527 262.628C133.527 264 133.919 265.198 134.703 266.22C135.479 267.243 136.527 268.04 137.848 268.611C139.161 269.182 140.626 269.468 142.246 269.468C143.865 269.468 145.335 269.186 146.656 268.624C147.977 268.053 149.026 267.256 149.801 266.233C150.577 265.202 150.964 264 150.964 262.628ZM139.267 247.309H152V248.869H132.364V247.348H135.47V247.194C134.456 246.734 133.642 245.997 133.028 244.983C132.415 243.969 132.108 242.763 132.108 241.365C132.108 240.044 132.389 238.885 132.952 237.888C133.514 236.882 134.315 236.098 135.355 235.535C136.386 234.964 137.618 234.679 139.05 234.679H152V236.238H139.114C137.443 236.238 136.101 236.737 135.087 237.734C134.064 238.723 133.553 240.031 133.553 241.659C133.553 242.75 133.791 243.721 134.268 244.574C134.746 245.426 135.415 246.095 136.276 246.581C137.128 247.067 138.125 247.309 139.267 247.309ZM136.595 215.72L136.979 217.165C136.263 217.395 135.645 217.723 135.125 218.149C134.605 218.575 134.205 219.112 133.923 219.76C133.634 220.399 133.489 221.166 133.489 222.061C133.489 223.501 133.847 224.682 134.563 225.602C135.278 226.514 136.212 226.97 137.362 226.97C138.3 226.97 139.075 226.659 139.689 226.037C140.294 225.415 140.754 224.464 141.07 223.186L141.824 220.169C142.207 218.618 142.83 217.45 143.69 216.666C144.543 215.882 145.604 215.49 146.874 215.49C147.956 215.49 148.915 215.784 149.75 216.372C150.585 216.96 151.237 217.774 151.706 218.814C152.175 219.845 152.409 221.047 152.409 222.419C152.409 224.251 151.983 225.756 151.131 226.932C150.27 228.108 149.038 228.862 147.436 229.194L147.053 227.699C148.331 227.417 149.307 226.834 149.98 225.947C150.645 225.052 150.977 223.881 150.977 222.432C150.977 220.829 150.598 219.538 149.839 218.558C149.081 217.569 148.109 217.075 146.925 217.075C146.021 217.075 145.259 217.365 144.636 217.944C144.014 218.524 143.558 219.402 143.268 220.578L142.501 223.71C142.109 225.312 141.483 226.514 140.622 227.315C139.753 228.116 138.683 228.517 137.413 228.517C136.357 228.517 135.428 228.24 134.626 227.686C133.825 227.132 133.199 226.369 132.747 225.398C132.295 224.426 132.07 223.314 132.07 222.061C132.07 220.399 132.462 219.044 133.246 217.996C134.03 216.947 135.146 216.189 136.595 215.72Z" fill="#343A40"/>
<rect x="200" y="500" width="150" height="10" transform="rotate(-90 200 500)" fill="#8D45BA"/>
<path d="M252 488.554V495.816H225.818V487.992C225.818 485.537 226.338 483.436 227.378 481.689C228.418 479.942 229.909 478.604 231.852 477.675C233.787 476.737 236.109 476.273 238.82 476.281C241.589 476.29 243.959 476.776 245.928 477.739C247.888 478.702 249.392 480.095 250.44 481.919C251.48 483.743 252 485.955 252 488.554ZM250.517 494.218V488.618C250.517 486.283 250.053 484.314 249.124 482.712C248.186 481.11 246.844 479.899 245.097 479.081C243.349 478.254 241.257 477.845 238.82 477.854C236.416 477.854 234.358 478.25 232.645 479.043C230.923 479.835 229.602 480.99 228.682 482.507C227.761 484.016 227.301 485.865 227.301 488.056V494.218H250.517ZM252 470.596H232.364V469.074H235.432V468.934C234.426 468.508 233.621 467.787 233.016 466.773C232.402 465.759 232.095 464.604 232.095 463.309C232.095 463.172 232.095 463.036 232.095 462.9C232.095 462.763 232.099 462.635 232.108 462.516H233.68C233.672 462.618 233.659 462.742 233.642 462.887C233.616 463.023 233.604 463.194 233.604 463.398C233.604 464.489 233.838 465.461 234.307 466.313C234.776 467.157 235.423 467.822 236.25 468.307C237.068 468.793 238.006 469.036 239.062 469.036H252V470.596ZM252.422 453.123C252.422 454.257 252.196 455.296 251.744 456.242C251.293 457.18 250.632 457.934 249.763 458.505C248.893 459.068 247.837 459.349 246.592 459.349C245.774 459.349 245.054 459.204 244.432 458.914C243.81 458.624 243.273 458.177 242.821 457.572C242.369 456.967 241.999 456.191 241.709 455.245C241.411 454.299 241.18 453.17 241.018 451.857C240.899 450.86 240.784 449.97 240.673 449.186C240.554 448.401 240.371 447.788 240.124 447.345C239.876 446.893 239.501 446.667 238.999 446.667H238.18C236.749 446.667 235.611 447.119 234.767 448.022C233.923 448.926 233.501 450.17 233.501 451.755C233.501 453.161 233.812 454.346 234.435 455.309C235.048 456.264 235.841 456.933 236.812 457.316L236.263 458.786C235.325 458.411 234.545 457.87 233.923 457.163C233.301 456.447 232.837 455.629 232.53 454.708C232.223 453.779 232.07 452.808 232.07 451.794C232.07 450.916 232.193 450.08 232.44 449.288C232.688 448.487 233.062 447.775 233.565 447.153C234.068 446.522 234.712 446.024 235.496 445.657C236.271 445.291 237.2 445.107 238.283 445.107H252V446.667H248.459V446.782C249.192 447.123 249.861 447.592 250.466 448.188C251.062 448.776 251.54 449.488 251.898 450.323C252.247 451.15 252.422 452.083 252.422 453.123ZM250.977 452.97C250.977 451.742 250.679 450.656 250.082 449.71C249.477 448.755 248.651 448.009 247.602 447.472C246.554 446.936 245.365 446.667 244.036 446.667H241.146C241.317 446.863 241.47 447.149 241.607 447.524C241.734 447.89 241.849 448.308 241.952 448.776C242.045 449.237 242.131 449.722 242.207 450.234C242.276 450.737 242.339 451.227 242.399 451.704C242.57 453.136 242.834 454.303 243.192 455.207C243.541 456.102 244.001 456.758 244.572 457.176C245.143 457.585 245.834 457.789 246.643 457.789C247.982 457.789 249.038 457.329 249.814 456.409C250.589 455.488 250.977 454.342 250.977 452.97ZM236.595 426.091L236.979 427.536C236.263 427.766 235.645 428.094 235.125 428.52C234.605 428.946 234.205 429.483 233.923 430.131C233.634 430.77 233.489 431.537 233.489 432.432C233.489 433.872 233.847 435.053 234.562 435.973C235.278 436.885 236.212 437.341 237.362 437.341C238.3 437.341 239.075 437.03 239.689 436.408C240.294 435.786 240.754 434.835 241.07 433.557L241.824 430.54C242.207 428.989 242.83 427.821 243.69 427.037C244.543 426.253 245.604 425.861 246.874 425.861C247.956 425.861 248.915 426.155 249.75 426.743C250.585 427.331 251.237 428.145 251.706 429.185C252.175 430.216 252.409 431.418 252.409 432.79C252.409 434.622 251.983 436.127 251.131 437.303C250.27 438.479 249.038 439.233 247.436 439.566L247.053 438.07C248.331 437.789 249.307 437.205 249.98 436.318C250.645 435.423 250.977 434.252 250.977 432.803C250.977 431.2 250.598 429.909 249.839 428.929C249.081 427.941 248.109 427.446 246.925 427.446C246.021 427.446 245.259 427.736 244.636 428.316C244.014 428.895 243.558 429.773 243.268 430.949L242.501 434.081C242.109 435.683 241.483 436.885 240.622 437.686C239.753 438.487 238.683 438.888 237.413 438.888C236.357 438.888 235.428 438.611 234.626 438.057C233.825 437.503 233.199 436.74 232.747 435.769C232.295 434.797 232.07 433.685 232.07 432.432C232.07 430.77 232.462 429.415 233.246 428.367C234.03 427.318 235.146 426.56 236.595 426.091ZM232.364 413.521H233.757V422.099H232.364V413.521ZM227.659 419.197V417.65H247.359C248.161 417.65 248.817 417.497 249.328 417.19C249.831 416.875 250.206 416.466 250.453 415.963C250.692 415.452 250.811 414.906 250.811 414.327C250.811 414.045 250.79 413.802 250.747 413.598C250.705 413.385 250.649 413.184 250.581 412.997L252 412.613C252.085 412.852 252.158 413.116 252.217 413.406C252.286 413.696 252.32 414.037 252.32 414.429C252.32 415.247 252.136 416.023 251.77 416.756C251.403 417.48 250.871 418.068 250.172 418.52C249.473 418.971 248.629 419.197 247.641 419.197H227.659ZM252 407.66H232.364V406.113H252V407.66ZM228.886 406.88C228.886 407.221 228.767 407.519 228.528 407.775C228.29 408.022 228 408.145 227.659 408.145C227.318 408.145 227.028 408.022 226.79 407.775C226.551 407.528 226.432 407.229 226.432 406.88C226.432 406.539 226.551 406.245 226.79 405.998C227.028 405.742 227.318 405.614 227.659 405.614C228 405.614 228.29 405.738 228.528 405.985C228.767 406.232 228.886 406.53 228.886 406.88ZM252.409 392.216C252.409 393.887 251.97 395.357 251.092 396.627C250.206 397.897 248.996 398.89 247.462 399.606C245.928 400.313 244.189 400.667 242.246 400.667C240.303 400.667 238.564 400.309 237.03 399.593C235.496 398.877 234.286 397.884 233.399 396.614C232.513 395.344 232.07 393.883 232.07 392.229C232.07 390.985 232.325 389.851 232.837 388.829C233.348 387.797 234.06 386.945 234.972 386.272C235.884 385.59 236.94 385.155 238.142 384.968V386.553C236.812 386.809 235.713 387.448 234.844 388.471C233.966 389.485 233.527 390.733 233.527 392.216C233.527 393.546 233.902 394.731 234.652 395.77C235.393 396.81 236.42 397.628 237.733 398.225C239.037 398.822 240.533 399.12 242.22 399.12C243.882 399.12 245.374 398.83 246.695 398.251C248.007 397.671 249.047 396.861 249.814 395.822C250.581 394.782 250.964 393.58 250.964 392.216C250.964 391.253 250.773 390.376 250.389 389.583C250.006 388.782 249.46 388.113 248.753 387.576C248.045 387.039 247.219 386.685 246.273 386.515V384.93C247.483 385.117 248.548 385.543 249.469 386.208C250.389 386.873 251.109 387.721 251.629 388.752C252.149 389.783 252.409 390.938 252.409 392.216ZM252 364.59L225.818 371.787V370.126L249.533 363.733V363.58L225.818 357.29V355.347L249.533 349.057V348.904L225.818 342.512V340.863L252 348.06V349.901L228.439 356.255V356.395L252 362.749V364.59ZM252.409 330.856C252.409 332.629 251.97 334.171 251.092 335.484C250.214 336.796 249.013 337.811 247.487 338.526C245.962 339.242 244.223 339.6 242.271 339.6C240.311 339.6 238.564 339.242 237.03 338.526C235.496 337.802 234.286 336.809 233.399 335.548C232.513 334.286 232.07 332.846 232.07 331.227C232.07 330.127 232.291 329.088 232.734 328.107C233.169 327.119 233.8 326.249 234.626 325.499C235.453 324.741 236.45 324.149 237.618 323.722C238.786 323.288 240.098 323.07 241.555 323.07H242.527V338.616H241.108V324.63C239.685 324.63 238.402 324.92 237.26 325.499C236.118 326.079 235.21 326.867 234.537 327.865C233.864 328.862 233.527 329.982 233.527 331.227C233.527 332.531 233.893 333.694 234.626 334.717C235.351 335.731 236.331 336.536 237.567 337.133C238.803 337.721 240.183 338.028 241.709 338.053H242.348C243.984 338.053 245.455 337.768 246.759 337.197C248.054 336.617 249.081 335.791 249.839 334.717C250.589 333.643 250.964 332.356 250.964 330.856C250.964 329.782 250.786 328.866 250.428 328.107C250.061 327.34 249.618 326.714 249.098 326.228C248.578 325.742 248.075 325.376 247.589 325.129L248.165 323.71C248.821 324.008 249.477 324.472 250.134 325.103C250.781 325.725 251.322 326.518 251.757 327.481C252.192 328.436 252.409 329.561 252.409 330.856ZM252 317.624H232.364V316.078H252V317.624ZM228.886 316.845C228.886 317.186 228.767 317.484 228.528 317.74C228.29 317.987 228 318.11 227.659 318.11C227.318 318.11 227.028 317.987 226.79 317.74C226.551 317.492 226.432 317.194 226.432 316.845C226.432 316.504 226.551 316.21 226.79 315.963C227.028 315.707 227.318 315.579 227.659 315.579C228 315.579 228.29 315.703 228.528 315.95C228.767 316.197 228.886 316.495 228.886 316.845ZM259.773 302.463C259.773 303.681 259.611 304.776 259.287 305.748C258.972 306.72 258.52 307.546 257.932 308.228C257.344 308.901 256.645 309.417 255.835 309.775L255.068 308.471C255.699 308.181 256.261 307.768 256.756 307.231C257.25 306.694 257.638 306.029 257.919 305.237C258.2 304.436 258.341 303.511 258.341 302.463C258.341 300.57 257.851 299.075 256.871 297.975C255.899 296.867 254.408 296.313 252.396 296.313H247.513V296.467C248.365 296.765 249.124 297.208 249.788 297.796C250.445 298.376 250.96 299.088 251.335 299.931C251.71 300.775 251.898 301.734 251.898 302.808C251.898 304.359 251.497 305.722 250.696 306.899C249.895 308.075 248.77 308.991 247.321 309.647C245.864 310.303 244.151 310.632 242.182 310.632C240.213 310.632 238.47 310.312 236.953 309.673C235.428 309.025 234.234 308.113 233.374 306.937C232.504 305.761 232.07 304.38 232.07 302.795C232.07 301.661 232.287 300.681 232.722 299.855C233.148 299.019 233.714 298.32 234.422 297.758C235.129 297.195 235.905 296.761 236.749 296.454V296.275H232.364V294.767H252.46C254.097 294.767 255.456 295.09 256.538 295.738C257.621 296.377 258.43 297.276 258.967 298.436C259.504 299.586 259.773 300.928 259.773 302.463ZM250.453 302.667C250.453 301.355 250.121 300.225 249.456 299.279C248.783 298.325 247.828 297.592 246.592 297.08C245.348 296.561 243.874 296.301 242.169 296.301C240.516 296.301 239.037 296.552 237.733 297.055C236.429 297.558 235.402 298.286 234.652 299.241C233.902 300.195 233.527 301.338 233.527 302.667C233.527 304.022 233.911 305.177 234.678 306.132C235.436 307.086 236.467 307.819 237.771 308.33C239.075 308.833 240.541 309.085 242.169 309.085C243.805 309.085 245.246 308.829 246.49 308.318C247.726 307.806 248.697 307.073 249.405 306.119C250.104 305.164 250.453 304.014 250.453 302.667ZM239.267 286.645H252V288.205H225.818V286.645H235.47V286.492C234.447 286.032 233.634 285.299 233.028 284.293C232.415 283.279 232.108 282.064 232.108 280.65C232.108 279.329 232.389 278.165 232.952 277.16C233.506 276.154 234.303 275.37 235.342 274.807C236.374 274.236 237.609 273.951 239.05 273.951H252V275.498H239.114C237.435 275.498 236.088 275.996 235.074 276.993C234.06 277.991 233.553 279.307 233.553 280.944C233.553 282.043 233.791 283.023 234.268 283.884C234.746 284.745 235.415 285.422 236.276 285.917C237.128 286.403 238.125 286.645 239.267 286.645ZM232.364 260.556H233.757V269.134H232.364V260.556ZM227.659 266.232V264.686H247.359C248.161 264.686 248.817 264.532 249.328 264.225C249.831 263.91 250.206 263.501 250.453 262.998C250.692 262.487 250.811 261.941 250.811 261.362C250.811 261.08 250.79 260.838 250.747 260.633C250.705 260.42 250.649 260.22 250.581 260.032L252 259.649C252.085 259.887 252.158 260.151 252.217 260.441C252.286 260.731 252.32 261.072 252.32 261.464C252.32 262.282 252.136 263.058 251.77 263.791C251.403 264.515 250.871 265.103 250.172 265.555C249.473 266.007 248.629 266.232 247.641 266.232H227.659ZM234 224.154V225.79C233.114 225.96 232.257 226.28 231.43 226.749C230.595 227.218 229.845 227.823 229.18 228.564C228.507 229.297 227.974 230.149 227.582 231.121C227.19 232.093 226.994 233.166 226.994 234.343C226.994 236.064 227.455 237.649 228.375 239.098C229.287 240.539 230.629 241.693 232.402 242.563C234.175 243.423 236.344 243.854 238.909 243.854C241.491 243.854 243.669 243.423 245.442 242.563C247.214 241.693 248.557 240.539 249.469 239.098C250.372 237.649 250.824 236.064 250.824 234.343C250.824 233.166 250.632 232.093 250.249 231.121C249.857 230.149 249.328 229.297 248.663 228.564C247.99 227.823 247.236 227.218 246.401 226.749C245.565 226.28 244.705 225.96 243.818 225.79V224.154C244.875 224.341 245.911 224.703 246.925 225.24C247.939 225.769 248.859 226.468 249.686 227.337C250.504 228.198 251.156 229.216 251.642 230.392C252.119 231.56 252.358 232.877 252.358 234.343C252.358 236.524 251.804 238.446 250.696 240.108C249.58 241.77 248.011 243.074 245.991 244.02C243.972 244.958 241.611 245.426 238.909 245.426C236.207 245.426 233.847 244.958 231.827 244.02C229.807 243.074 228.243 241.77 227.135 240.108C226.018 238.446 225.46 236.524 225.46 234.343C225.46 232.877 225.703 231.56 226.189 230.392C226.666 229.216 227.314 228.198 228.132 227.337C228.942 226.468 229.854 225.769 230.868 225.24C231.882 224.703 232.926 224.341 234 224.154ZM239.267 217.001H252V218.561H225.818V217.001H235.47V216.847C234.447 216.387 233.634 215.654 233.028 214.649C232.415 213.634 232.108 212.42 232.108 211.005C232.108 209.684 232.389 208.521 232.952 207.515C233.506 206.509 234.303 205.725 235.342 205.163C236.374 204.592 237.609 204.306 239.05 204.306H252V205.853H239.114C237.435 205.853 236.088 206.352 235.074 207.349C234.06 208.346 233.553 209.663 233.553 211.299C233.553 212.399 233.791 213.379 234.268 214.24C234.746 215.1 235.415 215.778 236.276 216.272C237.128 216.758 238.125 217.001 239.267 217.001ZM252.422 192.65C252.422 193.784 252.196 194.824 251.744 195.77C251.293 196.707 250.632 197.461 249.763 198.032C248.893 198.595 247.837 198.876 246.592 198.876C245.774 198.876 245.054 198.731 244.432 198.442C243.81 198.152 243.273 197.704 242.821 197.099C242.369 196.494 241.999 195.719 241.709 194.773C241.411 193.827 241.18 192.697 241.018 191.385C240.899 190.388 240.784 189.497 240.673 188.713C240.554 187.929 240.371 187.315 240.124 186.872C239.876 186.42 239.501 186.194 238.999 186.194H238.18C236.749 186.194 235.611 186.646 234.767 187.55C233.923 188.453 233.501 189.697 233.501 191.282C233.501 192.689 233.812 193.873 234.435 194.836C235.048 195.791 235.841 196.46 236.813 196.844L236.263 198.314C235.325 197.939 234.545 197.398 233.923 196.69C233.301 195.974 232.837 195.156 232.53 194.236C232.223 193.307 232.07 192.335 232.07 191.321C232.07 190.443 232.193 189.608 232.44 188.815C232.688 188.014 233.063 187.302 233.565 186.68C234.068 186.05 234.712 185.551 235.496 185.184C236.271 184.818 237.2 184.635 238.283 184.635H252V186.194H248.459V186.309C249.192 186.65 249.861 187.119 250.466 187.716C251.063 188.304 251.54 189.015 251.898 189.851C252.247 190.677 252.422 191.611 252.422 192.65ZM250.977 192.497C250.977 191.27 250.679 190.183 250.082 189.237C249.477 188.282 248.651 187.537 247.602 187C246.554 186.463 245.365 186.194 244.036 186.194H241.146C241.317 186.39 241.47 186.676 241.607 187.051C241.734 187.417 241.849 187.835 241.952 188.304C242.045 188.764 242.131 189.25 242.207 189.761C242.276 190.264 242.339 190.754 242.399 191.231C242.57 192.663 242.834 193.831 243.192 194.734C243.541 195.629 244.001 196.285 244.572 196.703C245.143 197.112 245.834 197.317 246.643 197.317C247.982 197.317 249.038 196.856 249.814 195.936C250.589 195.015 250.977 193.869 250.977 192.497ZM239.267 176.536H252V178.096H232.364V176.574H235.47V176.421C234.456 175.961 233.642 175.224 233.028 174.209C232.415 173.195 232.108 171.989 232.108 170.591C232.108 169.27 232.389 168.111 232.952 167.114C233.514 166.108 234.315 165.324 235.355 164.762C236.386 164.191 237.618 163.905 239.05 163.905H252V165.465H239.114C237.443 165.465 236.101 165.964 235.087 166.961C234.064 167.949 233.553 169.258 233.553 170.885C233.553 171.976 233.791 172.948 234.268 173.8C234.746 174.653 235.415 175.322 236.276 175.807C237.128 176.293 238.125 176.536 239.267 176.536ZM259.773 150.341C259.773 151.56 259.611 152.655 259.287 153.627C258.972 154.599 258.52 155.425 257.932 156.107C257.344 156.78 256.645 157.296 255.835 157.654L255.068 156.35C255.699 156.06 256.261 155.647 256.756 155.11C257.25 154.573 257.638 153.908 257.919 153.116C258.2 152.314 258.341 151.39 258.341 150.341C258.341 148.449 257.851 146.954 256.871 145.854C255.899 144.746 254.408 144.192 252.396 144.192H247.513V144.346C248.365 144.644 249.124 145.087 249.788 145.675C250.445 146.255 250.96 146.966 251.335 147.81C251.71 148.654 251.898 149.613 251.898 150.687C251.898 152.238 251.497 153.601 250.696 154.778C249.895 155.954 248.77 156.87 247.321 157.526C245.864 158.182 244.151 158.51 242.182 158.51C240.213 158.51 238.47 158.191 236.953 157.552C235.428 156.904 234.234 155.992 233.374 154.816C232.504 153.64 232.07 152.259 232.07 150.674C232.07 149.54 232.287 148.56 232.722 147.733C233.148 146.898 233.714 146.199 234.422 145.637C235.129 145.074 235.905 144.64 236.749 144.333V144.154H232.364V142.645H252.46C254.097 142.645 255.456 142.969 256.538 143.617C257.621 144.256 258.43 145.155 258.967 146.314C259.504 147.465 259.773 148.807 259.773 150.341ZM250.453 150.546C250.453 149.233 250.121 148.104 249.456 147.158C248.783 146.204 247.828 145.471 246.592 144.959C245.348 144.439 243.874 144.18 242.169 144.18C240.516 144.18 239.037 144.431 237.733 144.934C236.429 145.437 235.402 146.165 234.652 147.12C233.902 148.074 233.527 149.216 233.527 150.546C233.527 151.901 233.911 153.056 234.678 154.01C235.436 154.965 236.467 155.698 237.771 156.209C239.075 156.712 240.541 156.964 242.169 156.964C243.805 156.964 245.246 156.708 246.49 156.197C247.726 155.685 248.697 154.952 249.405 153.998C250.104 153.043 250.453 151.893 250.453 150.546ZM252.409 128.426C252.409 130.199 251.97 131.742 251.092 133.054C250.214 134.367 249.013 135.381 247.487 136.097C245.962 136.813 244.223 137.171 242.271 137.171C240.311 137.171 238.564 136.813 237.03 136.097C235.496 135.372 234.286 134.379 233.399 133.118C232.513 131.857 232.07 130.416 232.07 128.797C232.07 127.698 232.291 126.658 232.734 125.678C233.169 124.689 233.8 123.82 234.626 123.07C235.453 122.311 236.45 121.719 237.618 121.293C238.786 120.858 240.098 120.641 241.555 120.641H242.527V136.186H241.108V122.2C239.685 122.2 238.402 122.49 237.26 123.07C236.118 123.649 235.21 124.438 234.537 125.435C233.864 126.432 233.527 127.553 233.527 128.797C233.527 130.101 233.893 131.264 234.626 132.287C235.351 133.301 236.331 134.107 237.567 134.703C238.803 135.291 240.183 135.598 241.709 135.624H242.348C243.984 135.624 245.455 135.338 246.759 134.767C248.054 134.188 249.081 133.361 249.839 132.287C250.589 131.213 250.964 129.926 250.964 128.426C250.964 127.352 250.786 126.436 250.428 125.678C250.061 124.911 249.618 124.284 249.098 123.798C248.578 123.313 248.075 122.946 247.589 122.699L248.165 121.28C248.821 121.578 249.477 122.043 250.134 122.673C250.781 123.296 251.322 124.088 251.757 125.051C252.192 126.006 252.409 127.131 252.409 128.426ZM236.595 102.794L236.979 104.239C236.263 104.469 235.645 104.797 235.125 105.223C234.605 105.649 234.205 106.186 233.923 106.834C233.634 107.473 233.489 108.24 233.489 109.135C233.489 110.575 233.847 111.756 234.563 112.676C235.278 113.588 236.212 114.044 237.362 114.044C238.3 114.044 239.075 113.733 239.689 113.111C240.294 112.489 240.754 111.539 241.07 110.26L241.824 107.243C242.207 105.692 242.83 104.524 243.69 103.74C244.543 102.956 245.604 102.564 246.874 102.564C247.956 102.564 248.915 102.858 249.75 103.446C250.585 104.034 251.237 104.848 251.706 105.888C252.175 106.919 252.409 108.121 252.409 109.493C252.409 111.325 251.983 112.83 251.131 114.006C250.27 115.182 249.038 115.936 247.436 116.269L247.053 114.773C248.331 114.492 249.307 113.908 249.98 113.021C250.645 112.127 250.977 110.955 250.977 109.506C250.977 107.904 250.598 106.612 249.839 105.632C249.081 104.644 248.109 104.149 246.925 104.149C246.021 104.149 245.259 104.439 244.636 105.019C244.014 105.598 243.558 106.476 243.268 107.652L242.501 110.784C242.109 112.387 241.483 113.588 240.622 114.389C239.753 115.191 238.683 115.591 237.413 115.591C236.357 115.591 235.428 115.314 234.626 114.76C233.825 114.206 233.199 113.443 232.747 112.472C232.295 111.5 232.07 110.388 232.07 109.135C232.07 107.473 232.462 106.118 233.246 105.07C234.03 104.021 235.146 103.263 236.595 102.794Z" fill="#343A40"/>
<rect x="300" y="500" width="300" height="10" transform="rotate(-90 300 500)" fill="#FF415B"/>
<path d="M332.364 481.684C330.736 481.821 329.419 482.485 328.413 483.679C327.408 484.863 326.905 486.397 326.905 488.281C326.905 489.551 327.139 490.68 327.608 491.669C328.077 492.657 328.716 493.433 329.526 493.995C330.335 494.558 331.264 494.839 332.312 494.839C332.986 494.839 333.595 494.711 334.141 494.456C334.678 494.191 335.159 493.821 335.585 493.343C336.003 492.866 336.369 492.299 336.685 491.643C337 490.987 337.277 490.262 337.516 489.47L338.359 486.606C338.658 485.626 339.003 484.723 339.395 483.896C339.787 483.061 340.256 482.336 340.801 481.723C341.338 481.1 341.969 480.619 342.693 480.278C343.418 479.929 344.253 479.754 345.199 479.754C346.58 479.754 347.815 480.112 348.906 480.828C349.997 481.535 350.858 482.545 351.489 483.858C352.111 485.162 352.422 486.7 352.422 488.473C352.422 490.16 352.136 491.63 351.565 492.883C350.994 494.127 350.202 495.112 349.188 495.836C348.165 496.561 346.989 496.97 345.659 497.064V495.427C346.741 495.342 347.679 494.997 348.472 494.392C349.256 493.778 349.861 492.964 350.287 491.95C350.713 490.936 350.926 489.777 350.926 488.473C350.926 487.066 350.687 485.826 350.21 484.752C349.724 483.679 349.051 482.839 348.19 482.234C347.33 481.629 346.328 481.326 345.186 481.326C344.266 481.326 343.477 481.544 342.821 481.978C342.165 482.413 341.598 483.056 341.121 483.909C340.643 484.752 340.217 485.801 339.842 487.054L338.922 490.109C338.3 492.154 337.452 493.718 336.378 494.801C335.304 495.875 333.966 496.412 332.364 496.412C331.017 496.412 329.824 496.054 328.784 495.338C327.736 494.622 326.913 493.65 326.317 492.423C325.72 491.187 325.422 489.794 325.422 488.243C325.422 486.683 325.724 485.306 326.33 484.113C326.926 482.92 327.749 481.974 328.797 481.275C329.837 480.576 331.026 480.189 332.364 480.112V481.684ZM345.033 461.409H332.364V459.849H352V461.409H348.817V461.537C349.831 461.997 350.658 462.743 351.297 463.774C351.936 464.797 352.256 466.007 352.256 467.404C352.256 468.691 351.974 469.829 351.412 470.818C350.849 471.806 350.053 472.582 349.021 473.145C347.982 473.707 346.746 473.988 345.314 473.988H332.364V472.429H345.25C346.886 472.429 348.212 471.934 349.226 470.946C350.232 469.949 350.734 468.662 350.734 467.085C350.734 466.062 350.504 465.12 350.044 464.26C349.584 463.399 348.928 462.708 348.075 462.189C347.214 461.669 346.2 461.409 345.033 461.409ZM352 452.837H325.818V451.29H336.749V451.137C335.905 450.83 335.129 450.395 334.422 449.833C333.714 449.27 333.148 448.571 332.722 447.736C332.287 446.901 332.07 445.925 332.07 444.809C332.07 443.232 332.509 441.855 333.386 440.679C334.256 439.503 335.457 438.591 336.991 437.944C338.517 437.296 340.264 436.972 342.233 436.972C344.219 436.972 345.979 437.296 347.513 437.944C349.038 438.591 350.236 439.499 351.105 440.667C351.974 441.834 352.409 443.211 352.409 444.796C352.409 445.912 352.196 446.888 351.77 447.723C351.335 448.559 350.764 449.257 350.057 449.82C349.341 450.382 348.561 450.821 347.717 451.137V451.316H352V452.837ZM342.22 451.303C343.891 451.303 345.386 451.051 346.707 450.549C348.02 450.037 349.06 449.304 349.827 448.35C350.585 447.395 350.964 446.253 350.964 444.924C350.964 443.577 350.581 442.426 349.814 441.472C349.038 440.517 347.99 439.789 346.669 439.286C345.348 438.775 343.865 438.519 342.22 438.519C340.575 438.519 339.097 438.775 337.784 439.286C336.472 439.789 335.436 440.517 334.678 441.472C333.911 442.426 333.527 443.577 333.527 444.924C333.527 446.253 333.906 447.395 334.665 448.35C335.415 449.304 336.446 450.037 337.759 450.549C339.062 451.051 340.55 451.303 342.22 451.303ZM336.595 419.113L336.979 420.557C336.263 420.787 335.645 421.115 335.125 421.542C334.605 421.968 334.205 422.505 333.923 423.152C333.634 423.792 333.489 424.559 333.489 425.453C333.489 426.894 333.847 428.074 334.562 428.995C335.278 429.907 336.212 430.363 337.362 430.363C338.3 430.363 339.075 430.051 339.689 429.429C340.294 428.807 340.754 427.857 341.07 426.578L341.824 423.561C342.207 422.01 342.83 420.843 343.69 420.059C344.543 419.275 345.604 418.882 346.874 418.882C347.956 418.882 348.915 419.176 349.75 419.765C350.585 420.353 351.237 421.167 351.706 422.206C352.175 423.238 352.409 424.439 352.409 425.811C352.409 427.644 351.983 429.148 351.131 430.324C350.27 431.5 349.038 432.255 347.436 432.587L347.053 431.091C348.331 430.81 349.307 430.226 349.98 429.34C350.645 428.445 350.977 427.273 350.977 425.824C350.977 424.222 350.598 422.931 349.839 421.951C349.081 420.962 348.109 420.468 346.925 420.468C346.021 420.468 345.259 420.757 344.636 421.337C344.014 421.917 343.558 422.794 343.268 423.971L342.501 427.103C342.109 428.705 341.483 429.907 340.622 430.708C339.753 431.509 338.683 431.909 337.413 431.909C336.357 431.909 335.428 431.632 334.626 431.078C333.825 430.525 333.199 429.762 332.747 428.79C332.295 427.819 332.07 426.706 332.07 425.453C332.07 423.792 332.462 422.436 333.246 421.388C334.03 420.34 335.146 419.581 336.595 419.113ZM332.364 406.543H333.757V415.121H332.364V406.543ZM327.659 412.219V410.672H347.359C348.161 410.672 348.817 410.518 349.328 410.212C349.831 409.896 350.206 409.487 350.453 408.984C350.692 408.473 350.811 407.928 350.811 407.348C350.811 407.067 350.79 406.824 350.747 406.619C350.705 406.406 350.649 406.206 350.581 406.018L352 405.635C352.085 405.874 352.158 406.138 352.217 406.428C352.286 406.717 352.32 407.058 352.32 407.45C352.32 408.268 352.136 409.044 351.77 409.777C351.403 410.501 350.871 411.089 350.172 411.541C349.473 411.993 348.629 412.219 347.641 412.219H327.659ZM352.422 395.555C352.422 396.688 352.196 397.728 351.744 398.674C351.293 399.612 350.632 400.366 349.763 400.937C348.893 401.499 347.837 401.781 346.592 401.781C345.774 401.781 345.054 401.636 344.432 401.346C343.81 401.056 343.273 400.609 342.821 400.004C342.369 399.398 341.999 398.623 341.709 397.677C341.411 396.731 341.18 395.602 341.018 394.289C340.899 393.292 340.784 392.401 340.673 391.617C340.554 390.833 340.371 390.219 340.124 389.776C339.876 389.325 339.501 389.099 338.999 389.099H338.18C336.749 389.099 335.611 389.55 334.767 390.454C333.923 391.357 333.501 392.602 333.501 394.187C333.501 395.593 333.812 396.778 334.435 397.741C335.048 398.695 335.841 399.364 336.812 399.748L336.263 401.218C335.325 400.843 334.545 400.302 333.923 399.594C333.301 398.879 332.837 398.06 332.53 397.14C332.223 396.211 332.07 395.239 332.07 394.225C332.07 393.347 332.193 392.512 332.44 391.719C332.688 390.918 333.062 390.207 333.565 389.585C334.068 388.954 334.712 388.455 335.496 388.089C336.271 387.722 337.2 387.539 338.283 387.539H352V389.099H348.459V389.214C349.192 389.555 349.861 390.023 350.466 390.62C351.062 391.208 351.54 391.92 351.898 392.755C352.247 393.582 352.422 394.515 352.422 395.555ZM350.977 395.401C350.977 394.174 350.679 393.087 350.082 392.141C349.477 391.187 348.651 390.441 347.602 389.904C346.554 389.367 345.365 389.099 344.036 389.099H341.146C341.317 389.295 341.47 389.58 341.607 389.955C341.734 390.322 341.849 390.739 341.952 391.208C342.045 391.668 342.131 392.154 342.207 392.665C342.276 393.168 342.339 393.658 342.399 394.136C342.57 395.567 342.834 396.735 343.192 397.638C343.541 398.533 344.001 399.19 344.572 399.607C345.143 400.016 345.834 400.221 346.643 400.221C347.982 400.221 349.038 399.761 349.814 398.84C350.589 397.92 350.977 396.773 350.977 395.401ZM339.267 379.44H352V381H332.364V379.479H335.47V379.325C334.456 378.865 333.642 378.128 333.028 377.114C332.415 376.099 332.108 374.893 332.108 373.496C332.108 372.175 332.389 371.016 332.952 370.018C333.514 369.013 334.315 368.229 335.355 367.666C336.386 367.095 337.618 366.81 339.05 366.81H352V368.369H339.114C337.443 368.369 336.101 368.868 335.087 369.865C334.064 370.854 333.553 372.162 333.553 373.79C333.553 374.881 333.791 375.852 334.268 376.705C334.746 377.557 335.415 378.226 336.276 378.712C337.128 379.197 338.125 379.44 339.267 379.44ZM352.409 352.964C352.409 354.635 351.97 356.105 351.092 357.375C350.206 358.645 348.996 359.638 347.462 360.354C345.928 361.061 344.189 361.415 342.246 361.415C340.303 361.415 338.564 361.057 337.03 360.341C335.496 359.625 334.286 358.632 333.399 357.362C332.513 356.092 332.07 354.631 332.07 352.977C332.07 351.733 332.325 350.599 332.837 349.577C333.348 348.545 334.06 347.693 334.972 347.02C335.884 346.338 336.94 345.903 338.142 345.716V347.301C336.812 347.557 335.713 348.196 334.844 349.219C333.966 350.233 333.527 351.482 333.527 352.964C333.527 354.294 333.902 355.479 334.652 356.518C335.393 357.558 336.42 358.376 337.733 358.973C339.037 359.57 340.533 359.868 342.22 359.868C343.882 359.868 345.374 359.578 346.695 358.999C348.007 358.419 349.047 357.609 349.814 356.57C350.581 355.53 350.964 354.328 350.964 352.964C350.964 352.001 350.773 351.124 350.389 350.331C350.006 349.53 349.46 348.861 348.753 348.324C348.045 347.787 347.219 347.433 346.273 347.263V345.678C347.483 345.865 348.548 346.291 349.469 346.956C350.389 347.621 351.109 348.469 351.629 349.5C352.149 350.531 352.409 351.686 352.409 352.964ZM352.409 332.702C352.409 334.474 351.97 336.017 351.092 337.33C350.214 338.642 349.013 339.656 347.487 340.372C345.962 341.088 344.223 341.446 342.271 341.446C340.311 341.446 338.564 341.088 337.03 340.372C335.496 339.648 334.286 338.655 333.399 337.393C332.513 336.132 332.07 334.692 332.07 333.072C332.07 331.973 332.291 330.933 332.734 329.953C333.169 328.964 333.8 328.095 334.626 327.345C335.453 326.587 336.45 325.994 337.618 325.568C338.786 325.134 340.098 324.916 341.555 324.916H342.527V340.462H341.108V326.476C339.685 326.476 338.402 326.766 337.26 327.345C336.118 327.925 335.21 328.713 334.537 329.71C333.864 330.707 333.527 331.828 333.527 333.072C333.527 334.376 333.893 335.54 334.626 336.562C335.351 337.577 336.331 338.382 337.567 338.979C338.803 339.567 340.183 339.874 341.709 339.899H342.348C343.984 339.899 345.455 339.614 346.759 339.043C348.054 338.463 349.081 337.636 349.839 336.562C350.589 335.489 350.964 334.202 350.964 332.702C350.964 331.628 350.786 330.712 350.428 329.953C350.061 329.186 349.618 328.56 349.098 328.074C348.578 327.588 348.075 327.222 347.589 326.974L348.165 325.555C348.821 325.854 349.477 326.318 350.134 326.949C350.781 327.571 351.322 328.364 351.757 329.327C352.192 330.281 352.409 331.406 352.409 332.702ZM352 309.882V311.57L325.818 302.122V300.281L352 290.834V292.521L327.876 301.138V301.266L352 309.882ZM342.143 307.491V294.912H343.626V307.491H342.143ZM352 285.95H325.818V284.403H336.749V284.25C335.905 283.943 335.129 283.509 334.422 282.946C333.714 282.384 333.148 281.685 332.722 280.849C332.287 280.014 332.07 279.038 332.07 277.922C332.07 276.345 332.509 274.969 333.386 273.793C334.256 272.616 335.457 271.705 336.991 271.057C338.517 270.409 340.264 270.085 342.233 270.085C344.219 270.085 345.979 270.409 347.513 271.057C349.038 271.705 350.236 272.612 351.105 273.78C351.974 274.947 352.409 276.324 352.409 277.909C352.409 279.026 352.196 280.001 351.77 280.837C351.335 281.672 350.764 282.371 350.057 282.933C349.341 283.496 348.561 283.935 347.717 284.25V284.429H352V285.95ZM342.22 284.416C343.891 284.416 345.386 284.165 346.707 283.662C348.02 283.151 349.06 282.418 349.827 281.463C350.585 280.509 350.964 279.366 350.964 278.037C350.964 276.69 350.581 275.54 349.814 274.585C349.038 273.631 347.99 272.902 346.669 272.399C345.348 271.888 343.865 271.632 342.22 271.632C340.575 271.632 339.097 271.888 337.784 272.399C336.472 272.902 335.436 273.631 334.678 274.585C333.911 275.54 333.527 276.69 333.527 278.037C333.527 279.366 333.906 280.509 334.665 281.463C335.415 282.418 336.446 283.151 337.759 283.662C339.062 284.165 340.55 284.416 342.22 284.416ZM345.033 252.124H332.364V250.564H352V252.124H348.817V252.251C349.831 252.712 350.658 253.457 351.297 254.489C351.936 255.511 352.256 256.722 352.256 258.119C352.256 259.406 351.974 260.544 351.412 261.533C350.849 262.521 350.053 263.297 349.021 263.859C347.982 264.422 346.746 264.703 345.314 264.703H332.364V263.143H345.25C346.886 263.143 348.212 262.649 349.226 261.661C350.232 260.663 350.734 259.376 350.734 257.8C350.734 256.777 350.504 255.835 350.044 254.974C349.584 254.114 348.928 253.423 348.075 252.903C347.214 252.384 346.2 252.124 345.033 252.124ZM336.595 231.624L336.979 233.069C336.263 233.299 335.645 233.627 335.125 234.053C334.605 234.479 334.205 235.016 333.923 235.664C333.634 236.303 333.489 237.07 333.489 237.965C333.489 239.406 333.847 240.586 334.562 241.506C335.278 242.418 336.212 242.874 337.362 242.874C338.3 242.874 339.075 242.563 339.689 241.941C340.294 241.319 340.754 240.369 341.07 239.09L341.824 236.073C342.207 234.522 342.83 233.354 343.69 232.57C344.543 231.786 345.604 231.394 346.874 231.394C347.956 231.394 348.915 231.688 349.75 232.276C350.585 232.864 351.237 233.678 351.706 234.718C352.175 235.749 352.409 236.951 352.409 238.323C352.409 240.156 351.983 241.66 351.131 242.836C350.27 244.012 349.038 244.766 347.436 245.099L347.053 243.603C348.331 243.322 349.307 242.738 349.98 241.852C350.645 240.957 350.977 239.785 350.977 238.336C350.977 236.734 350.598 235.442 349.839 234.462C349.081 233.474 348.109 232.979 346.925 232.979C346.021 232.979 345.259 233.269 344.636 233.849C344.014 234.428 343.558 235.306 343.268 236.482L342.501 239.614C342.109 241.217 341.483 242.418 340.622 243.219C339.753 244.021 338.683 244.421 337.413 244.421C336.357 244.421 335.428 244.144 334.626 243.59C333.825 243.036 333.199 242.273 332.747 241.302C332.295 240.33 332.07 239.218 332.07 237.965C332.07 236.303 332.462 234.948 333.246 233.9C334.03 232.852 335.146 232.093 336.595 231.624ZM352.409 218.338C352.409 220.111 351.97 221.654 351.092 222.966C350.214 224.279 349.013 225.293 347.487 226.009C345.962 226.725 344.223 227.083 342.271 227.083C340.311 227.083 338.564 226.725 337.03 226.009C335.496 225.284 334.286 224.292 333.399 223.03C332.513 221.769 332.07 220.328 332.07 218.709C332.07 217.61 332.291 216.57 332.734 215.59C333.169 214.601 333.8 213.732 334.626 212.982C335.453 212.223 336.45 211.631 337.618 211.205C338.786 210.77 340.098 210.553 341.555 210.553H342.527V226.098H341.108V212.113C339.685 212.113 338.402 212.402 337.26 212.982C336.118 213.561 335.21 214.35 334.537 215.347C333.864 216.344 333.527 217.465 333.527 218.709C333.527 220.013 333.893 221.176 334.626 222.199C335.351 223.213 336.331 224.019 337.567 224.615C338.803 225.203 340.183 225.51 341.709 225.536H342.348C343.984 225.536 345.455 225.25 346.759 224.679C348.054 224.1 349.081 223.273 349.839 222.199C350.589 221.125 350.964 219.838 350.964 218.338C350.964 217.265 350.786 216.348 350.428 215.59C350.061 214.823 349.618 214.196 349.098 213.711C348.578 213.225 348.075 212.858 347.589 212.611L348.165 211.192C348.821 211.49 349.477 211.955 350.134 212.586C350.781 213.208 351.322 214 351.757 214.963C352.192 215.918 352.409 217.043 352.409 218.338Z" fill="#343A40"/>
<rect x="400" y="500" width="375" height="10" transform="rotate(-90 400 500)" fill="#E9CC32"/>
<path d="M452 495.739H425.818V487.673C425.818 486.011 426.159 484.587 426.841 483.403C427.523 482.21 428.456 481.293 429.641 480.654C430.825 480.015 432.176 479.695 433.693 479.695C435.193 479.695 436.536 480.015 437.72 480.654C438.905 481.293 439.842 482.21 440.533 483.403C441.214 484.587 441.555 486.006 441.555 487.66V494.614H440.072V487.698C440.072 486.352 439.8 485.201 439.254 484.246C438.7 483.292 437.946 482.559 436.991 482.048C436.028 481.536 434.929 481.281 433.693 481.281C432.449 481.281 431.345 481.536 430.382 482.048C429.419 482.559 428.665 483.296 428.119 484.259C427.574 485.214 427.301 486.364 427.301 487.711V494.141H452V495.739ZM439.267 472.546H452V474.105H425.818V472.546H435.47V472.392C434.447 471.932 433.634 471.199 433.028 470.194C432.415 469.179 432.108 467.965 432.108 466.55C432.108 465.229 432.389 464.066 432.952 463.06C433.506 462.054 434.303 461.27 435.342 460.708C436.374 460.137 437.609 459.851 439.05 459.851H452V461.398H439.114C437.435 461.398 436.088 461.897 435.074 462.894C434.06 463.891 433.553 465.208 433.553 466.844C433.553 467.944 433.791 468.924 434.268 469.784C434.746 470.645 435.415 471.323 436.276 471.817C437.128 472.303 438.125 472.546 439.267 472.546ZM459.364 452.849C459.364 453.241 459.321 453.629 459.236 454.012C459.151 454.396 459.04 454.741 458.903 455.048L457.536 454.587C457.842 453.786 457.953 453.062 457.868 452.414C457.783 451.758 457.484 451.178 456.973 450.675C456.462 450.173 455.712 449.746 454.723 449.397L452.268 448.502L432.364 455.7V454.025L449.993 447.786V447.658L432.364 441.42V439.745L455.337 448.029C456.223 448.344 456.964 448.741 457.561 449.218C458.158 449.695 458.605 450.241 458.903 450.854C459.21 451.46 459.364 452.124 459.364 452.849ZM436.595 422.394L436.979 423.838C436.263 424.069 435.645 424.397 435.125 424.823C434.605 425.249 434.205 425.786 433.923 426.434C433.634 427.073 433.489 427.84 433.489 428.735C433.489 430.175 433.847 431.355 434.562 432.276C435.278 433.188 436.212 433.644 437.362 433.644C438.3 433.644 439.075 433.333 439.689 432.711C440.294 432.088 440.754 431.138 441.07 429.86L441.824 426.843C442.207 425.292 442.83 424.124 443.69 423.34C444.543 422.556 445.604 422.164 446.874 422.164C447.956 422.164 448.915 422.458 449.75 423.046C450.585 423.634 451.237 424.448 451.706 425.488C452.175 426.519 452.409 427.721 452.409 429.093C452.409 430.925 451.983 432.429 451.131 433.605C450.27 434.782 449.038 435.536 447.436 435.868L447.053 434.373C448.331 434.091 449.307 433.507 449.98 432.621C450.645 431.726 450.977 430.554 450.977 429.105C450.977 427.503 450.598 426.212 449.839 425.232C449.081 424.243 448.109 423.749 446.925 423.749C446.021 423.749 445.259 424.039 444.636 424.618C444.014 425.198 443.558 426.076 443.268 427.252L442.501 430.384C442.109 431.986 441.483 433.188 440.622 433.989C439.753 434.79 438.683 435.191 437.413 435.191C436.357 435.191 435.428 434.914 434.626 434.36C433.825 433.806 433.199 433.043 432.747 432.071C432.295 431.1 432.07 429.988 432.07 428.735C432.07 427.073 432.462 425.718 433.246 424.669C434.03 423.621 435.146 422.863 436.595 422.394ZM452 416.689H432.364V415.142H452V416.689ZM428.886 415.909C428.886 416.25 428.767 416.548 428.528 416.804C428.29 417.051 428 417.175 427.659 417.175C427.318 417.175 427.028 417.051 426.79 416.804C426.551 416.557 426.432 416.259 426.432 415.909C426.432 415.568 426.551 415.274 426.79 415.027C427.028 414.771 427.318 414.643 427.659 414.643C428 414.643 428.29 414.767 428.528 415.014C428.767 415.261 428.886 415.56 428.886 415.909ZM452.409 401.246C452.409 402.916 451.97 404.386 451.092 405.656C450.206 406.926 448.996 407.919 447.462 408.635C445.928 409.342 444.189 409.696 442.246 409.696C440.303 409.696 438.564 409.338 437.03 408.622C435.496 407.906 434.286 406.913 433.399 405.643C432.513 404.374 432.07 402.912 432.07 401.259C432.07 400.014 432.325 398.881 432.837 397.858C433.348 396.827 434.06 395.974 434.972 395.301C435.884 394.619 436.94 394.185 438.142 393.997V395.582C436.812 395.838 435.713 396.477 434.844 397.5C433.966 398.514 433.527 399.763 433.527 401.246C433.527 402.575 433.902 403.76 434.652 404.8C435.393 405.839 436.42 406.658 437.733 407.254C439.037 407.851 440.533 408.149 442.22 408.149C443.882 408.149 445.374 407.859 446.695 407.28C448.007 406.7 449.047 405.891 449.814 404.851C450.581 403.811 450.964 402.609 450.964 401.246C450.964 400.283 450.773 399.405 450.389 398.612C450.006 397.811 449.46 397.142 448.753 396.605C448.045 396.068 447.219 395.714 446.273 395.544V393.959C447.483 394.146 448.548 394.572 449.469 395.237C450.389 395.902 451.109 396.75 451.629 397.781C452.149 398.812 452.409 399.967 452.409 401.246ZM452.422 383.438C452.422 384.571 452.196 385.611 451.744 386.557C451.293 387.494 450.632 388.249 449.763 388.82C448.893 389.382 447.837 389.663 446.592 389.663C445.774 389.663 445.054 389.518 444.432 389.229C443.81 388.939 443.273 388.491 442.821 387.886C442.369 387.281 441.999 386.506 441.709 385.56C441.411 384.614 441.18 383.484 441.018 382.172C440.899 381.175 440.784 380.284 440.673 379.5C440.554 378.716 440.371 378.102 440.124 377.659C439.876 377.207 439.501 376.982 438.999 376.982H438.18C436.749 376.982 435.611 377.433 434.767 378.337C433.923 379.24 433.501 380.484 433.501 382.07C433.501 383.476 433.812 384.661 434.435 385.624C435.048 386.578 435.841 387.247 436.812 387.631L436.263 389.101C435.325 388.726 434.545 388.185 433.923 387.477C433.301 386.761 432.837 385.943 432.53 385.023C432.223 384.094 432.07 383.122 432.07 382.108C432.07 381.23 432.193 380.395 432.44 379.602C432.688 378.801 433.062 378.089 433.565 377.467C434.068 376.837 434.712 376.338 435.496 375.972C436.271 375.605 437.2 375.422 438.283 375.422H452V376.982H448.459V377.097C449.192 377.437 449.861 377.906 450.466 378.503C451.062 379.091 451.54 379.803 451.898 380.638C452.247 381.464 452.422 382.398 452.422 383.438ZM450.977 383.284C450.977 382.057 450.679 380.97 450.082 380.024C449.477 379.07 448.651 378.324 447.602 377.787C446.554 377.25 445.365 376.982 444.036 376.982H441.146C441.317 377.178 441.47 377.463 441.607 377.838C441.734 378.205 441.849 378.622 441.952 379.091C442.045 379.551 442.131 380.037 442.207 380.548C442.276 381.051 442.339 381.541 442.399 382.018C442.57 383.45 442.834 384.618 443.192 385.521C443.541 386.416 444.001 387.072 444.572 387.49C445.143 387.899 445.834 388.104 446.643 388.104C447.982 388.104 449.038 387.643 449.814 386.723C450.589 385.803 450.977 384.656 450.977 383.284ZM425.818 367.323H452V368.883H425.818V367.323ZM432.364 336.079C430.736 336.215 429.419 336.88 428.413 338.073C427.408 339.258 426.905 340.792 426.905 342.675C426.905 343.945 427.139 345.075 427.608 346.063C428.077 347.052 428.716 347.827 429.526 348.39C430.335 348.952 431.264 349.234 432.312 349.234C432.986 349.234 433.595 349.106 434.141 348.85C434.678 348.586 435.159 348.215 435.585 347.738C436.003 347.261 436.369 346.694 436.685 346.038C437 345.381 437.277 344.657 437.516 343.864L438.359 341.001C438.658 340.021 439.003 339.117 439.395 338.29C439.787 337.455 440.256 336.731 440.801 336.117C441.338 335.495 441.969 335.013 442.693 334.673C443.418 334.323 444.253 334.148 445.199 334.148C446.58 334.148 447.815 334.506 448.906 335.222C449.997 335.93 450.858 336.94 451.489 338.252C452.111 339.556 452.422 341.094 452.422 342.867C452.422 344.555 452.136 346.025 451.565 347.278C450.994 348.522 450.202 349.506 449.188 350.231C448.165 350.955 446.989 351.364 445.659 351.458V349.822C446.741 349.737 447.679 349.391 448.472 348.786C449.256 348.173 449.861 347.359 450.287 346.344C450.713 345.33 450.926 344.171 450.926 342.867C450.926 341.461 450.687 340.221 450.21 339.147C449.724 338.073 449.051 337.234 448.19 336.629C447.33 336.023 446.328 335.721 445.186 335.721C444.266 335.721 443.477 335.938 442.821 336.373C442.165 336.808 441.598 337.451 441.121 338.303C440.643 339.147 440.217 340.195 439.842 341.448L438.922 344.504C438.3 346.549 437.452 348.113 436.378 349.195C435.304 350.269 433.966 350.806 432.364 350.806C431.017 350.806 429.824 350.448 428.784 349.732C427.736 349.016 426.913 348.045 426.317 346.817C425.72 345.582 425.422 344.188 425.422 342.637C425.422 341.077 425.724 339.701 426.33 338.508C426.926 337.315 427.749 336.369 428.797 335.67C429.837 334.971 431.026 334.583 432.364 334.506V336.079ZM459.364 327.13C459.364 327.522 459.321 327.91 459.236 328.293C459.151 328.677 459.04 329.022 458.903 329.329L457.536 328.869C457.842 328.067 457.953 327.343 457.868 326.695C457.783 326.039 457.484 325.46 456.973 324.957C456.462 324.454 455.712 324.028 454.723 323.678L452.268 322.783L432.364 329.981V328.306L449.993 322.067V321.94L432.364 315.701V314.026L455.337 322.31C456.223 322.626 456.964 323.022 457.561 323.499C458.158 323.977 458.605 324.522 458.903 325.136C459.21 325.741 459.364 326.406 459.364 327.13ZM452 309.152H432.364V307.631H435.33V307.478C434.341 307.103 433.557 306.455 432.977 305.534C432.398 304.614 432.108 303.506 432.108 302.211C432.108 300.787 432.449 299.641 433.131 298.772C433.812 297.894 434.737 297.263 435.905 296.88V296.739C434.754 296.355 433.834 295.669 433.143 294.681C432.453 293.684 432.108 292.456 432.108 290.999C432.108 289.098 432.709 287.65 433.911 286.652C435.104 285.647 436.74 285.144 438.82 285.144H452V286.703H438.82C437.183 286.703 435.896 287.096 434.959 287.88C434.021 288.664 433.553 289.814 433.553 291.331C433.553 292.951 434.06 294.195 435.074 295.064C436.088 295.934 437.379 296.368 438.947 296.368H452V297.928H438.717C437.192 297.928 435.952 298.311 434.997 299.078C434.034 299.846 433.553 300.996 433.553 302.53C433.553 303.57 433.791 304.469 434.268 305.228C434.746 305.978 435.402 306.561 436.237 306.979C437.072 307.388 438.031 307.593 439.114 307.593H452V309.152ZM459.364 278.672H432.364V277.151H436.749V276.959C435.905 276.652 435.129 276.222 434.422 275.668C433.714 275.105 433.148 274.411 432.722 273.584C432.287 272.749 432.07 271.768 432.07 270.643C432.07 269.058 432.504 267.678 433.374 266.501C434.243 265.325 435.445 264.413 436.979 263.766C438.504 263.118 440.256 262.794 442.233 262.794C444.21 262.794 445.966 263.122 447.5 263.778C449.026 264.426 450.227 265.338 451.105 266.514C451.974 267.682 452.409 269.05 452.409 270.618C452.409 271.734 452.196 272.714 451.77 273.558C451.344 274.393 450.777 275.097 450.07 275.668C449.354 276.23 448.57 276.661 447.717 276.959V277.112H459.364V278.672ZM442.22 277.138C443.891 277.138 445.386 276.882 446.707 276.371C448.02 275.859 449.06 275.126 449.827 274.172C450.585 273.217 450.964 272.08 450.964 270.759C450.964 269.42 450.581 268.274 449.814 267.32C449.038 266.357 447.99 265.624 446.669 265.121C445.348 264.609 443.865 264.354 442.22 264.354C440.575 264.354 439.097 264.605 437.784 265.108C436.472 265.611 435.436 266.339 434.678 267.294C433.911 268.249 433.527 269.403 433.527 270.759C433.527 272.097 433.906 273.243 434.665 274.197C435.415 275.143 436.446 275.872 437.759 276.384C439.062 276.886 440.55 277.138 442.22 277.138ZM432.364 250.461H433.757V259.039H432.364V250.461ZM427.659 256.137V254.59H447.359C448.161 254.59 448.817 254.436 449.328 254.13C449.831 253.814 450.206 253.405 450.453 252.902C450.692 252.391 450.811 251.846 450.811 251.266C450.811 250.985 450.79 250.742 450.747 250.537C450.705 250.324 450.649 250.124 450.581 249.936L452 249.553C452.085 249.792 452.158 250.056 452.217 250.346C452.286 250.635 452.32 250.976 452.32 251.368C452.32 252.186 452.136 252.962 451.77 253.695C451.403 254.419 450.871 255.007 450.172 255.459C449.473 255.911 448.629 256.137 447.641 256.137H427.659ZM452.409 237.587C452.409 239.206 451.974 240.647 451.105 241.908C450.227 243.169 449.021 244.162 447.487 244.887C445.953 245.611 444.206 245.973 442.246 245.973C440.277 245.973 438.53 245.611 437.004 244.887C435.47 244.162 434.264 243.169 433.386 241.908C432.509 240.647 432.07 239.206 432.07 237.587C432.07 235.968 432.509 234.527 433.386 233.266C434.264 232.005 435.47 231.012 437.004 230.287C438.538 229.563 440.286 229.201 442.246 229.201C444.206 229.201 445.953 229.563 447.487 230.287C449.021 231.012 450.227 232.005 451.105 233.266C451.974 234.527 452.409 235.968 452.409 237.587ZM450.964 237.587C450.964 236.215 450.577 235.017 449.801 233.995C449.026 232.963 447.977 232.167 446.656 231.604C445.335 231.033 443.865 230.748 442.246 230.748C440.626 230.748 439.161 231.033 437.848 231.604C436.527 232.175 435.479 232.972 434.703 233.995C433.919 235.017 433.527 236.215 433.527 237.587C433.527 238.959 433.919 240.157 434.703 241.179C435.479 242.202 436.527 242.999 437.848 243.57C439.161 244.141 440.626 244.426 442.246 244.426C443.865 244.426 445.335 244.145 446.656 243.583C447.977 243.012 449.026 242.215 449.801 241.192C450.577 240.161 450.964 238.959 450.964 237.587ZM452 223.828H432.364V222.307H435.33V222.153C434.341 221.778 433.557 221.131 432.977 220.21C432.398 219.29 432.108 218.182 432.108 216.886C432.108 215.463 432.449 214.317 433.131 213.447C433.812 212.57 434.737 211.939 435.905 211.555V211.415C434.754 211.031 433.834 210.345 433.143 209.357C432.453 208.359 432.108 207.132 432.108 205.675C432.108 203.774 432.709 202.325 433.911 201.328C435.104 200.322 436.74 199.82 438.82 199.82H452V201.379H438.82C437.183 201.379 435.896 201.771 434.959 202.555C434.021 203.339 433.553 204.49 433.553 206.007C433.553 207.626 434.06 208.871 435.074 209.74C436.088 210.609 437.379 211.044 438.947 211.044H452V212.604H438.717C437.192 212.604 435.952 212.987 434.997 213.754C434.034 214.521 433.553 215.672 433.553 217.206C433.553 218.246 433.791 219.145 434.268 219.903C434.746 220.653 435.402 221.237 436.237 221.655C437.072 222.064 438.031 222.268 439.114 222.268H452V223.828ZM436.595 180.87L436.979 182.315C436.263 182.545 435.645 182.873 435.125 183.299C434.605 183.725 434.205 184.262 433.923 184.91C433.634 185.549 433.489 186.316 433.489 187.211C433.489 188.652 433.847 189.832 434.562 190.752C435.278 191.664 436.212 192.12 437.362 192.12C438.3 192.12 439.075 191.809 439.689 191.187C440.294 190.565 440.754 189.615 441.07 188.336L441.824 185.319C442.207 183.768 442.83 182.6 443.69 181.816C444.543 181.032 445.604 180.64 446.874 180.64C447.956 180.64 448.915 180.934 449.75 181.522C450.585 182.11 451.237 182.924 451.706 183.964C452.175 184.995 452.409 186.197 452.409 187.569C452.409 189.402 451.983 190.906 451.131 192.082C450.27 193.258 449.038 194.012 447.436 194.345L447.053 192.849C448.331 192.568 449.307 191.984 449.98 191.098C450.645 190.203 450.977 189.031 450.977 187.582C450.977 185.98 450.598 184.689 449.839 183.708C449.081 182.72 448.109 182.225 446.925 182.225C446.021 182.225 445.259 182.515 444.636 183.095C444.014 183.674 443.558 184.552 443.268 185.728L442.501 188.86C442.109 190.463 441.483 191.664 440.622 192.466C439.753 193.267 438.683 193.667 437.413 193.667C436.357 193.667 435.428 193.39 434.626 192.836C433.825 192.282 433.199 191.52 432.747 190.548C432.295 189.576 432.07 188.464 432.07 187.211C432.07 185.549 432.462 184.194 433.246 183.146C434.03 182.098 435.146 181.339 436.595 180.87Z" fill="#343A40"/>
<rect x="500" y="500" width="250" height="10" transform="rotate(-90 500 500)" fill="#343A40"/>
<path d="M538.909 474.895C541.611 474.895 543.972 475.363 545.991 476.301C548.003 477.238 549.567 478.542 550.683 480.213C551.8 481.875 552.358 483.792 552.358 485.966C552.358 488.147 551.8 490.074 550.683 491.744C549.558 493.406 547.99 494.706 545.979 495.643C543.959 496.581 541.602 497.049 538.909 497.049C536.207 497.049 533.851 496.581 531.839 495.643C529.828 494.697 528.264 493.393 527.148 491.731C526.023 490.069 525.46 488.147 525.46 485.966C525.46 483.792 526.018 481.875 527.135 480.213C528.251 478.542 529.82 477.238 531.839 476.301C533.851 475.363 536.207 474.895 538.909 474.895ZM538.909 476.454C536.48 476.454 534.375 476.863 532.594 477.681C530.812 478.491 529.436 479.612 528.464 481.044C527.484 482.475 526.994 484.116 526.994 485.966C526.994 487.815 527.48 489.456 528.452 490.887C529.415 492.319 530.791 493.444 532.581 494.262C534.362 495.072 536.472 495.477 538.909 495.477C541.321 495.477 543.422 495.076 545.212 494.275C546.993 493.466 548.374 492.345 549.354 490.913C550.334 489.481 550.824 487.832 550.824 485.966C550.824 484.116 550.338 482.475 549.366 481.044C548.386 479.612 547.006 478.491 545.224 477.681C543.443 476.863 541.338 476.454 538.909 476.454ZM532.364 462.257H533.757V470.836H532.364V462.257ZM527.659 467.934V466.387H547.359C548.161 466.387 548.817 466.233 549.328 465.926C549.831 465.611 550.206 465.202 550.453 464.699C550.692 464.188 550.811 463.642 550.811 463.063C550.811 462.782 550.79 462.539 550.747 462.334C550.705 462.121 550.649 461.921 550.581 461.733L552 461.35C552.085 461.588 552.158 461.853 552.217 462.142C552.286 462.432 552.32 462.773 552.32 463.165C552.32 463.983 552.136 464.759 551.77 465.492C551.403 466.216 550.871 466.804 550.172 467.256C549.473 467.708 548.629 467.934 547.641 467.934H527.659ZM539.267 454.491H552V456.051H525.818V454.491H535.47V454.338C534.447 453.877 533.634 453.145 533.028 452.139C532.415 451.125 532.108 449.91 532.108 448.495C532.108 447.174 532.389 446.011 532.952 445.005C533.506 444 534.303 443.216 535.342 442.653C536.374 442.082 537.609 441.797 539.05 441.797H552V443.343H539.114C537.435 443.343 536.088 443.842 535.074 444.839C534.06 445.836 533.553 447.153 533.553 448.789C533.553 449.889 533.791 450.869 534.268 451.73C534.746 452.591 535.415 453.268 536.276 453.762C537.128 454.248 538.125 454.491 539.267 454.491ZM552.409 427.686C552.409 429.459 551.97 431.001 551.092 432.314C550.214 433.626 549.013 434.641 547.487 435.357C545.962 436.072 544.223 436.43 542.271 436.43C540.311 436.43 538.564 436.072 537.03 435.357C535.496 434.632 534.286 433.639 533.399 432.378C532.513 431.116 532.07 429.676 532.07 428.057C532.07 426.957 532.291 425.918 532.734 424.938C533.169 423.949 533.8 423.08 534.626 422.33C535.453 421.571 536.45 420.979 537.618 420.553C538.786 420.118 540.098 419.901 541.555 419.901H542.527V435.446H541.108V421.46C539.685 421.46 538.402 421.75 537.26 422.33C536.118 422.909 535.21 423.697 534.537 424.695C533.864 425.692 533.527 426.812 533.527 428.057C533.527 429.361 533.893 430.524 534.626 431.547C535.351 432.561 536.331 433.366 537.567 433.963C538.803 434.551 540.183 434.858 541.709 434.884H542.348C543.984 434.884 545.455 434.598 546.759 434.027C548.054 433.447 549.081 432.621 549.839 431.547C550.589 430.473 550.964 429.186 550.964 427.686C550.964 426.612 550.786 425.696 550.428 424.938C550.061 424.17 549.618 423.544 549.098 423.058C548.578 422.572 548.075 422.206 547.589 421.959L548.165 420.54C548.821 420.838 549.477 421.303 550.134 421.933C550.781 422.555 551.322 423.348 551.757 424.311C552.192 425.266 552.409 426.391 552.409 427.686ZM552 414.531H532.364V413.01H535.432V412.869C534.426 412.443 533.621 411.723 533.016 410.709C532.402 409.695 532.095 408.54 532.095 407.244C532.095 407.108 532.095 406.972 532.095 406.835C532.095 406.699 532.099 406.571 532.108 406.452H533.68C533.672 406.554 533.659 406.678 533.642 406.822C533.616 406.959 533.604 407.129 533.604 407.334C533.604 408.425 533.838 409.396 534.307 410.249C534.776 411.092 535.423 411.757 536.25 412.243C537.068 412.729 538.006 412.972 539.062 412.972H552V414.531Z" fill="#343A40"/>
</svg>
