<svg width="563" height="500" viewBox="0 0 563 500" fill="none" xmlns="http://www.w3.org/2000/svg">
<rect y="500" width="250" height="10" transform="rotate(-90 0 500)" fill="#C43739"/>
<path d="M52 495.958H25.8182V487.457C25.8182 485.871 26.0994 484.533 26.6619 483.442C27.2244 482.352 28.0128 481.525 29.027 480.962C30.0412 480.391 31.2216 480.106 32.5682 480.106C33.625 480.106 34.5625 480.276 35.3807 480.617C36.1989 480.958 36.8764 481.435 37.4134 482.049C37.9418 482.654 38.3082 483.366 38.5128 484.184H38.6662C38.7344 483.281 39.0497 482.441 39.6122 481.665C40.1662 480.89 40.9205 480.268 41.875 479.799C42.8295 479.322 43.9418 479.083 45.2116 479.083C46.5497 479.083 47.7301 479.373 48.7528 479.952C49.767 480.523 50.5639 481.38 51.1435 482.522C51.7145 483.664 52 485.079 52 486.766V495.958ZM50.517 494.36V486.766C50.517 484.798 50.0227 483.285 49.0341 482.228C48.0455 481.163 46.7713 480.63 45.2116 480.63C44.1122 480.63 43.1278 480.89 42.2585 481.41C41.3892 481.921 40.7031 482.633 40.2003 483.545C39.6889 484.457 39.4332 485.513 39.4332 486.715V494.36H50.517ZM37.9759 494.36V486.907C37.9759 485.79 37.733 484.844 37.2472 484.069C36.7614 483.285 36.1094 482.688 35.2912 482.279C34.473 481.862 33.5653 481.653 32.5682 481.653C30.9489 481.653 29.6662 482.156 28.7202 483.161C27.7741 484.167 27.3011 485.599 27.3011 487.457V494.36H37.9759ZM25.8182 471.78H52V473.34H25.8182V471.78ZM52.4091 458.025C52.4091 459.644 51.9744 461.084 51.1051 462.346C50.2273 463.607 49.0213 464.6 47.4872 465.324C45.9531 466.049 44.206 466.411 42.2457 466.411C40.277 466.411 38.5298 466.049 37.0043 465.324C35.4702 464.6 34.2642 463.607 33.3864 462.346C32.5085 461.084 32.0696 459.644 32.0696 458.025C32.0696 456.405 32.5085 454.965 33.3864 453.703C34.2642 452.442 35.4702 451.449 37.0043 450.725C38.5384 450 40.2855 449.638 42.2457 449.638C44.206 449.638 45.9531 450 47.4872 450.725C49.0213 451.449 50.2273 452.442 51.1051 453.703C51.9744 454.965 52.4091 456.405 52.4091 458.025ZM50.9645 458.025C50.9645 456.652 50.5767 455.455 49.8011 454.432C49.0256 453.401 47.9773 452.604 46.6562 452.042C45.3352 451.471 43.8651 451.185 42.2457 451.185C40.6264 451.185 39.1605 451.471 37.848 452.042C36.527 452.613 35.4787 453.409 34.7031 454.432C33.919 455.455 33.527 456.652 33.527 458.025C33.527 459.397 33.919 460.594 34.7031 461.617C35.4787 462.64 36.527 463.436 37.848 464.007C39.1605 464.578 40.6264 464.864 42.2457 464.864C43.8651 464.864 45.3352 464.583 46.6562 464.02C47.9773 463.449 49.0256 462.652 49.8011 461.63C50.5767 460.598 50.9645 459.397 50.9645 458.025ZM52.4091 436.966C52.4091 438.585 51.9744 440.026 51.1051 441.287C50.2273 442.548 49.0213 443.541 47.4872 444.266C45.9531 444.99 44.206 445.352 42.2457 445.352C40.277 445.352 38.5298 444.99 37.0043 444.266C35.4702 443.541 34.2642 442.548 33.3864 441.287C32.5085 440.026 32.0696 438.585 32.0696 436.966C32.0696 435.347 32.5085 433.906 33.3864 432.645C34.2642 431.384 35.4702 430.391 37.0043 429.666C38.5384 428.942 40.2855 428.58 42.2457 428.58C44.206 428.58 45.9531 428.942 47.4872 429.666C49.0213 430.391 50.2273 431.384 51.1051 432.645C51.9744 433.906 52.4091 435.347 52.4091 436.966ZM50.9645 436.966C50.9645 435.594 50.5767 434.396 49.8011 433.374C49.0256 432.342 47.9773 431.545 46.6562 430.983C45.3352 430.412 43.8651 430.126 42.2457 430.126C40.6264 430.126 39.1605 430.412 37.848 430.983C36.527 431.554 35.4787 432.351 34.7031 433.374C33.919 434.396 33.527 435.594 33.527 436.966C33.527 438.338 33.919 439.536 34.7031 440.558C35.4787 441.581 36.527 442.378 37.848 442.949C39.1605 443.52 40.6264 443.805 42.2457 443.805C43.8651 443.805 45.3352 443.524 46.6562 442.962C47.9773 442.391 49.0256 441.594 49.8011 440.571C50.5767 439.54 50.9645 438.338 50.9645 436.966ZM52.4091 416.47C52.4091 418.047 51.9744 419.423 51.1051 420.599C50.2358 421.775 49.0384 422.687 47.5128 423.335C45.9787 423.974 44.2188 424.294 42.233 424.294C40.2642 424.294 38.517 423.97 36.9915 423.322C35.4574 422.666 34.2557 421.75 33.3864 420.574C32.5085 419.397 32.0696 418.025 32.0696 416.457C32.0696 415.332 32.2869 414.356 32.7216 413.529C33.1477 412.694 33.7145 411.995 34.4219 411.433C35.1293 410.862 35.9048 410.427 36.7486 410.129V409.975H25.8182V408.429H52V409.937H47.7173V410.129C48.5611 410.444 49.3409 410.883 50.0568 411.446C50.7642 412.008 51.3352 412.707 51.7699 413.542C52.196 414.377 52.4091 415.353 52.4091 416.47ZM50.9645 416.329C50.9645 415 50.5852 413.862 49.8267 412.916C49.0597 411.961 48.0199 411.233 46.7074 410.73C45.3864 410.218 43.8906 409.963 42.2202 409.963C40.5497 409.963 39.0625 410.218 37.7585 410.73C36.446 411.233 35.4148 411.961 34.6648 412.916C33.9062 413.862 33.527 415 33.527 416.329C33.527 417.676 33.9105 418.831 34.6776 419.794C35.4361 420.748 36.4716 421.481 37.7841 421.993C39.0966 422.495 40.5753 422.747 42.2202 422.747C43.8651 422.747 45.348 422.495 46.669 421.993C47.9901 421.481 49.0384 420.748 49.8139 419.794C50.581 418.831 50.9645 417.676 50.9645 416.329ZM27.3011 392.474H25.8182V374.129H27.3011V382.502H52V384.1H27.3011V392.474ZM52.4091 364.045C52.4091 365.818 51.9702 367.361 51.0923 368.673C50.2145 369.986 49.0128 371 47.4872 371.716C45.9616 372.432 44.223 372.79 42.2713 372.79C40.3111 372.79 38.5639 372.432 37.0298 371.716C35.4957 370.991 34.2855 369.999 33.3991 368.737C32.5128 367.476 32.0696 366.036 32.0696 364.416C32.0696 363.317 32.2912 362.277 32.7344 361.297C33.169 360.308 33.7997 359.439 34.6264 358.689C35.4531 357.93 36.4503 357.338 37.6179 356.912C38.7855 356.477 40.098 356.26 41.5554 356.26H42.527V371.805H41.108V357.82C39.6847 357.82 38.402 358.109 37.2599 358.689C36.1179 359.268 35.2102 360.057 34.5369 361.054C33.8636 362.051 33.527 363.172 33.527 364.416C33.527 365.72 33.8935 366.884 34.6264 367.906C35.3509 368.92 36.331 369.726 37.5668 370.322C38.8026 370.911 40.1832 371.217 41.7088 371.243H42.348C43.9844 371.243 45.4545 370.957 46.7585 370.386C48.054 369.807 49.081 368.98 49.8395 367.906C50.5895 366.832 50.9645 365.545 50.9645 364.045C50.9645 362.972 50.7855 362.055 50.4276 361.297C50.0611 360.53 49.6179 359.903 49.098 359.418C48.5781 358.932 48.0753 358.565 47.5895 358.318L48.1648 356.899C48.821 357.197 49.4773 357.662 50.1335 358.293C50.7812 358.915 51.3224 359.707 51.7571 360.67C52.1918 361.625 52.4091 362.75 52.4091 364.045ZM36.5952 338.413L36.9787 339.858C36.2628 340.088 35.6449 340.416 35.125 340.842C34.6051 341.268 34.2045 341.805 33.9233 342.453C33.6335 343.092 33.4886 343.859 33.4886 344.754C33.4886 346.195 33.8466 347.375 34.5625 348.295C35.2784 349.207 36.2116 349.663 37.3622 349.663C38.2997 349.663 39.0753 349.352 39.6889 348.73C40.294 348.108 40.7543 347.158 41.0696 345.879L41.8239 342.862C42.2074 341.311 42.8295 340.143 43.6903 339.359C44.5426 338.575 45.6037 338.183 46.8736 338.183C47.956 338.183 48.9148 338.477 49.75 339.065C50.5852 339.653 51.2372 340.467 51.706 341.507C52.1747 342.538 52.4091 343.74 52.4091 345.112C52.4091 346.945 51.983 348.449 51.1307 349.625C50.2699 350.801 49.0384 351.555 47.4361 351.888L47.0526 350.392C48.331 350.111 49.3068 349.527 49.9801 348.641C50.6449 347.746 50.9773 346.574 50.9773 345.125C50.9773 343.523 50.598 342.232 49.8395 341.251C49.081 340.263 48.1094 339.768 46.9247 339.768C46.0213 339.768 45.2585 340.058 44.6364 340.638C44.0142 341.217 43.5582 342.095 43.2685 343.271L42.5014 346.403C42.1094 348.006 41.483 349.207 40.6222 350.009C39.7528 350.81 38.6832 351.21 37.4134 351.21C36.3565 351.21 35.4276 350.933 34.6264 350.379C33.8253 349.825 33.1989 349.062 32.7472 348.091C32.2955 347.119 32.0696 346.007 32.0696 344.754C32.0696 343.092 32.4616 341.737 33.2457 340.689C34.0298 339.641 35.1463 338.882 36.5952 338.413ZM32.3636 325.843H33.7571V334.422H32.3636V325.843ZM27.6591 331.52V329.973H47.3594C48.1605 329.973 48.8168 329.819 49.3281 329.512C49.831 329.197 50.206 328.788 50.4531 328.285C50.6918 327.774 50.8111 327.228 50.8111 326.649C50.8111 326.368 50.7898 326.125 50.7472 325.92C50.7045 325.707 50.6491 325.507 50.581 325.319L52 324.936C52.0852 325.174 52.1577 325.439 52.2173 325.728C52.2855 326.018 52.3196 326.359 52.3196 326.751C52.3196 327.569 52.1364 328.345 51.7699 329.078C51.4034 329.802 50.8707 330.39 50.1719 330.842C49.473 331.294 48.6293 331.52 47.6406 331.52H27.6591ZM38.9091 309.09C35.9943 309.09 33.1648 308.736 30.4205 308.029C27.6676 307.313 25.0426 306.286 22.5455 304.948L22.5455 303.49C23.7045 304.121 24.9446 304.684 26.2656 305.178C27.5781 305.672 28.9375 306.094 30.3438 306.444C31.75 306.784 33.1733 307.049 34.6136 307.236C36.054 307.415 37.4858 307.505 38.9091 307.505C40.8097 307.505 42.723 307.343 44.6491 307.019C46.5753 306.695 48.4418 306.235 50.2486 305.638C52.0554 305.033 53.7301 304.317 55.2727 303.49V304.948C52.7585 306.286 50.1293 307.313 47.3849 308.029C44.6321 308.736 41.8068 309.09 38.9091 309.09ZM34 277.523V279.159C33.1136 279.33 32.2571 279.649 31.4304 280.118C30.5952 280.587 29.8452 281.192 29.1804 281.933C28.5071 282.666 27.9744 283.518 27.5824 284.49C27.1903 285.462 26.9943 286.536 26.9943 287.712C26.9943 289.433 27.4545 291.018 28.375 292.467C29.2869 293.908 30.6293 295.062 32.402 295.932C34.1747 296.793 36.3437 297.223 38.9091 297.223C41.4915 297.223 43.669 296.793 45.4418 295.932C47.2145 295.062 48.5568 293.908 49.4688 292.467C50.3722 291.018 50.8239 289.433 50.8239 287.712C50.8239 286.536 50.6321 285.462 50.2486 284.49C49.8565 283.518 49.3281 282.666 48.6634 281.933C47.9901 281.192 47.2358 280.587 46.4006 280.118C45.5653 279.649 44.7045 279.33 43.8182 279.159V277.523C44.875 277.71 45.9105 278.072 46.9247 278.609C47.9389 279.138 48.8594 279.837 49.6861 280.706C50.5043 281.567 51.1562 282.585 51.642 283.761C52.1193 284.929 52.358 286.246 52.358 287.712C52.358 289.893 51.804 291.815 50.696 293.477C49.5795 295.139 48.0114 296.443 45.9915 297.389C43.9716 298.327 41.6108 298.795 38.9091 298.795C36.2074 298.795 33.8466 298.327 31.8267 297.389C29.8068 296.443 28.2429 295.139 27.1349 293.477C26.0185 291.815 25.4602 289.893 25.4602 287.712C25.4602 286.246 25.7031 284.929 26.1889 283.761C26.6662 282.585 27.3139 281.567 28.1321 280.706C28.9418 279.837 29.8537 279.138 30.8679 278.609C31.8821 278.072 32.9261 277.71 34 277.523ZM52 271.38H25.8182V262.879C25.8182 261.293 26.0994 259.955 26.6619 258.864C27.2244 257.773 28.0128 256.947 29.027 256.384C30.0412 255.813 31.2216 255.528 32.5682 255.528C33.625 255.528 34.5625 255.698 35.3807 256.039C36.1989 256.38 36.8764 256.857 37.4134 257.471C37.9418 258.076 38.3082 258.788 38.5128 259.606H38.6662C38.7344 258.702 39.0497 257.863 39.6122 257.087C40.1662 256.312 40.9205 255.69 41.875 255.221C42.8295 254.744 43.9418 254.505 45.2116 254.505C46.5497 254.505 47.7301 254.795 48.7528 255.374C49.767 255.945 50.5639 256.802 51.1435 257.944C51.7145 259.086 52 260.501 52 262.188V271.38ZM50.517 269.782V262.188C50.517 260.219 50.0227 258.707 49.0341 257.65C48.0455 256.585 46.7713 256.052 45.2116 256.052C44.1122 256.052 43.1278 256.312 42.2585 256.832C41.3892 257.343 40.7031 258.055 40.2003 258.967C39.6889 259.879 39.4332 260.935 39.4332 262.137V269.782H50.517ZM37.9759 269.782V262.329C37.9759 261.212 37.733 260.266 37.2472 259.491C36.7614 258.707 36.1094 258.11 35.2912 257.701C34.473 257.283 33.5653 257.075 32.5682 257.075C30.9489 257.075 29.6662 257.577 28.7202 258.583C27.7741 259.589 27.3011 261.021 27.3011 262.879V269.782H37.9759ZM34 228.269V229.905C33.1136 230.076 32.2571 230.395 31.4304 230.864C30.5952 231.333 29.8452 231.938 29.1804 232.679C28.5071 233.412 27.9744 234.265 27.5824 235.236C27.1903 236.208 26.9943 237.282 26.9943 238.458C26.9943 240.179 27.4545 241.765 28.375 243.213C29.2869 244.654 30.6293 245.809 32.402 246.678C34.1747 247.539 36.3437 247.969 38.9091 247.969C41.4915 247.969 43.669 247.539 45.4418 246.678C47.2145 245.809 48.5568 244.654 49.4688 243.213C50.3722 241.765 50.8239 240.179 50.8239 238.458C50.8239 237.282 50.6321 236.208 50.2486 235.236C49.8565 234.265 49.3281 233.412 48.6634 232.679C47.9901 231.938 47.2358 231.333 46.4006 230.864C45.5653 230.395 44.7045 230.076 43.8182 229.905V228.269C44.875 228.456 45.9105 228.819 46.9247 229.355C47.9389 229.884 48.8594 230.583 49.6861 231.452C50.5043 232.313 51.1562 233.331 51.642 234.507C52.1193 235.675 52.358 236.992 52.358 238.458C52.358 240.64 51.804 242.561 50.696 244.223C49.5795 245.885 48.0114 247.189 45.9915 248.135C43.9716 249.073 41.6108 249.542 38.9091 249.542C36.2074 249.542 33.8466 249.073 31.8267 248.135C29.8068 247.189 28.2429 245.885 27.1349 244.223C26.0185 242.561 25.4602 240.64 25.4602 238.458C25.4602 236.992 25.7031 235.675 26.1889 234.507C26.6662 233.331 27.3139 232.313 28.1321 231.452C28.9418 230.583 29.8537 229.884 30.8679 229.355C31.8821 228.819 32.9261 228.456 34 228.269ZM24.5909 214.916L55.9375 223.353V224.849L24.5909 216.412V214.916ZM52 210.103H25.8182V208.505H38.1548V192.729H25.8182V191.131H52V192.729H39.6378V208.505H52L52 210.103ZM52 183.56H25.8182V175.058C25.8182 173.473 26.0994 172.135 26.6619 171.044C27.2244 169.953 28.0128 169.126 29.027 168.564C30.0412 167.993 31.2216 167.707 32.5682 167.707C33.625 167.707 34.5625 167.878 35.3807 168.219C36.1989 168.56 36.8764 169.037 37.4134 169.651C37.9418 170.256 38.3082 170.967 38.5128 171.786H38.6662C38.7344 170.882 39.0497 170.043 39.6122 169.267C40.1662 168.491 40.9205 167.869 41.875 167.401C42.8295 166.923 43.9418 166.685 45.2116 166.685C46.5497 166.685 47.7301 166.974 48.7528 167.554C49.767 168.125 50.5639 168.982 51.1435 170.124C51.7145 171.266 52 172.68 52 174.368V183.56ZM50.517 181.962V174.368C50.517 172.399 50.0227 170.886 49.0341 169.83C48.0455 168.764 46.7713 168.232 45.2116 168.232C44.1122 168.232 43.1278 168.491 42.2585 169.011C41.3892 169.523 40.7031 170.234 40.2003 171.146C39.6889 172.058 39.4332 173.115 39.4332 174.317L39.4332 181.962H50.517ZM37.9759 181.962L37.9759 174.509C37.9759 173.392 37.733 172.446 37.2472 171.67C36.7614 170.886 36.1094 170.29 35.2912 169.881C34.473 169.463 33.5653 169.254 32.5682 169.254C30.9489 169.254 29.6662 169.757 28.7202 170.763C27.7741 171.768 27.3011 173.2 27.3011 175.058V181.962H37.9759ZM38.9091 156.339C41.8239 156.339 44.6577 156.697 47.4105 157.413C50.1548 158.12 52.7756 159.143 55.2727 160.481V161.939C54.1136 161.308 52.8778 160.745 51.5653 160.251C50.2443 159.757 48.8807 159.339 47.4744 158.998C46.0682 158.649 44.6449 158.385 43.2045 158.206C41.7642 158.018 40.3324 157.924 38.9091 157.924C37.0085 157.924 35.0952 158.086 33.169 158.41C31.2429 158.734 29.3764 159.194 27.5696 159.791C25.7628 160.387 24.0881 161.103 22.5455 161.939V160.481C25.0597 159.143 27.6932 158.12 30.446 157.413C33.1903 156.697 36.0114 156.339 38.9091 156.339Z" fill="#343A40"/>
<rect x="100" y="500" width="450" height="10" transform="rotate(-90 100 500)" fill="#0E8F8D"/>
<path d="M152 495.991H125.818V487.49C125.818 485.905 126.099 484.567 126.662 483.476C127.224 482.385 128.013 481.558 129.027 480.996C130.041 480.425 131.222 480.139 132.568 480.139C133.625 480.139 134.562 480.309 135.381 480.65C136.199 480.991 136.876 481.469 137.413 482.082C137.942 482.687 138.308 483.399 138.513 484.217H138.666C138.734 483.314 139.05 482.474 139.612 481.699C140.166 480.923 140.92 480.301 141.875 479.832C142.83 479.355 143.942 479.116 145.212 479.116C146.55 479.116 147.73 479.406 148.753 479.986C149.767 480.557 150.564 481.413 151.143 482.555C151.714 483.697 152 485.112 152 486.8V495.991ZM150.517 494.393V486.8C150.517 484.831 150.023 483.318 149.034 482.261C148.045 481.196 146.771 480.663 145.212 480.663C144.112 480.663 143.128 480.923 142.259 481.443C141.389 481.954 140.703 482.666 140.2 483.578C139.689 484.49 139.433 485.547 139.433 486.748V494.393H150.517ZM137.976 494.393V486.94C137.976 485.824 137.733 484.878 137.247 484.102C136.761 483.318 136.109 482.721 135.291 482.312C134.473 481.895 133.565 481.686 132.568 481.686C130.949 481.686 129.666 482.189 128.72 483.194C127.774 484.2 127.301 485.632 127.301 487.49V494.393H137.976ZM125.818 471.813H152V473.373H125.818V471.813ZM152.409 458.058C152.409 459.677 151.974 461.117 151.105 462.379C150.227 463.64 149.021 464.633 147.487 465.357C145.953 466.082 144.206 466.444 142.246 466.444C140.277 466.444 138.53 466.082 137.004 465.357C135.47 464.633 134.264 463.64 133.386 462.379C132.509 461.117 132.07 459.677 132.07 458.058C132.07 456.438 132.509 454.998 133.386 453.737C134.264 452.475 135.47 451.482 137.004 450.758C138.538 450.034 140.286 449.671 142.246 449.671C144.206 449.671 145.953 450.034 147.487 450.758C149.021 451.482 150.227 452.475 151.105 453.737C151.974 454.998 152.409 456.438 152.409 458.058ZM150.964 458.058C150.964 456.686 150.577 455.488 149.801 454.465C149.026 453.434 147.977 452.637 146.656 452.075C145.335 451.504 143.865 451.218 142.246 451.218C140.626 451.218 139.161 451.504 137.848 452.075C136.527 452.646 135.479 453.443 134.703 454.465C133.919 455.488 133.527 456.686 133.527 458.058C133.527 459.43 133.919 460.627 134.703 461.65C135.479 462.673 136.527 463.47 137.848 464.041C139.161 464.612 140.626 464.897 142.246 464.897C143.865 464.897 145.335 464.616 146.656 464.053C147.977 463.482 149.026 462.686 149.801 461.663C150.577 460.632 150.964 459.43 150.964 458.058ZM152.409 436.999C152.409 438.618 151.974 440.059 151.105 441.32C150.227 442.581 149.021 443.574 147.487 444.299C145.953 445.023 144.206 445.385 142.246 445.385C140.277 445.385 138.53 445.023 137.004 444.299C135.47 443.574 134.264 442.581 133.386 441.32C132.509 440.059 132.07 438.618 132.07 436.999C132.07 435.38 132.509 433.939 133.386 432.678C134.264 431.417 135.47 430.424 137.004 429.699C138.538 428.975 140.286 428.613 142.246 428.613C144.206 428.613 145.953 428.975 147.487 429.699C149.021 430.424 150.227 431.417 151.105 432.678C151.974 433.939 152.409 435.38 152.409 436.999ZM150.964 436.999C150.964 435.627 150.577 434.43 149.801 433.407C149.026 432.376 147.977 431.579 146.656 431.016C145.335 430.445 143.865 430.16 142.246 430.16C140.626 430.16 139.161 430.445 137.848 431.016C136.527 431.587 135.479 432.384 134.703 433.407C133.919 434.43 133.527 435.627 133.527 436.999C133.527 438.371 133.919 439.569 134.703 440.591C135.479 441.614 136.527 442.411 137.848 442.982C139.161 443.553 140.626 443.839 142.246 443.839C143.865 443.839 145.335 443.557 146.656 442.995C147.977 442.424 149.026 441.627 149.801 440.604C150.577 439.573 150.964 438.371 150.964 436.999ZM152.409 416.503C152.409 418.08 151.974 419.456 151.105 420.632C150.236 421.808 149.038 422.72 147.513 423.368C145.979 424.007 144.219 424.327 142.233 424.327C140.264 424.327 138.517 424.003 136.991 423.355C135.457 422.699 134.256 421.783 133.386 420.607C132.509 419.431 132.07 418.058 132.07 416.49C132.07 415.365 132.287 414.389 132.722 413.563C133.148 412.727 133.714 412.029 134.422 411.466C135.129 410.895 135.905 410.46 136.749 410.162V410.009H125.818V408.462H152V409.97H147.717V410.162C148.561 410.477 149.341 410.916 150.057 411.479C150.764 412.041 151.335 412.74 151.77 413.575C152.196 414.411 152.409 415.387 152.409 416.503ZM150.964 416.362C150.964 415.033 150.585 413.895 149.827 412.949C149.06 411.994 148.02 411.266 146.707 410.763C145.386 410.252 143.891 409.996 142.22 409.996C140.55 409.996 139.062 410.252 137.759 410.763C136.446 411.266 135.415 411.994 134.665 412.949C133.906 413.895 133.527 415.033 133.527 416.362C133.527 417.709 133.911 418.864 134.678 419.827C135.436 420.781 136.472 421.514 137.784 422.026C139.097 422.529 140.575 422.78 142.22 422.78C143.865 422.78 145.348 422.529 146.669 422.026C147.99 421.514 149.038 420.781 149.814 419.827C150.581 418.864 150.964 417.709 150.964 416.362ZM132.364 376.655C130.736 376.791 129.419 377.456 128.413 378.649C127.408 379.834 126.905 381.368 126.905 383.252C126.905 384.521 127.139 385.651 127.608 386.639C128.077 387.628 128.716 388.404 129.526 388.966C130.335 389.529 131.264 389.81 132.312 389.81C132.986 389.81 133.595 389.682 134.141 389.426C134.678 389.162 135.159 388.791 135.585 388.314C136.003 387.837 136.369 387.27 136.685 386.614C137 385.958 137.277 385.233 137.516 384.441L138.359 381.577C138.658 380.597 139.003 379.693 139.395 378.867C139.787 378.031 140.256 377.307 140.801 376.693C141.338 376.071 141.969 375.59 142.693 375.249C143.418 374.899 144.253 374.725 145.199 374.725C146.58 374.725 147.815 375.083 148.906 375.798C149.997 376.506 150.858 377.516 151.489 378.828C152.111 380.132 152.422 381.671 152.422 383.443C152.422 385.131 152.136 386.601 151.565 387.854C150.994 389.098 150.202 390.083 149.188 390.807C148.165 391.531 146.989 391.941 145.659 392.034V390.398C146.741 390.313 147.679 389.968 148.472 389.362C149.256 388.749 149.861 387.935 150.287 386.921C150.713 385.906 150.926 384.747 150.926 383.443C150.926 382.037 150.687 380.797 150.21 379.723C149.724 378.649 149.051 377.81 148.19 377.205C147.33 376.6 146.328 376.297 145.186 376.297C144.266 376.297 143.477 376.514 142.821 376.949C142.165 377.384 141.598 378.027 141.121 378.879C140.643 379.723 140.217 380.771 139.842 382.024L138.922 385.08C138.3 387.125 137.452 388.689 136.378 389.771C135.304 390.845 133.966 391.382 132.364 391.382C131.017 391.382 129.824 391.024 128.784 390.308C127.736 389.593 126.913 388.621 126.317 387.394C125.72 386.158 125.422 384.764 125.422 383.213C125.422 381.654 125.724 380.277 126.33 379.084C126.926 377.891 127.749 376.945 128.797 376.246C129.837 375.547 131.026 375.159 132.364 375.083V376.655ZM145.033 356.379H132.364V354.82H152V356.379H148.817V356.507C149.831 356.968 150.658 357.713 151.297 358.744C151.936 359.767 152.256 360.977 152.256 362.375C152.256 363.662 151.974 364.8 151.412 365.789C150.849 366.777 150.053 367.553 149.021 368.115C147.982 368.678 146.746 368.959 145.314 368.959H132.364V367.399H145.25C146.886 367.399 148.212 366.905 149.226 365.916C150.232 364.919 150.734 363.632 150.734 362.056C150.734 361.033 150.504 360.091 150.044 359.23C149.584 358.369 148.928 357.679 148.075 357.159C147.214 356.639 146.2 356.379 145.033 356.379ZM159.773 341.275C159.773 342.494 159.611 343.589 159.287 344.561C158.972 345.532 158.52 346.359 157.932 347.041C157.344 347.714 156.645 348.23 155.835 348.588L155.068 347.284C155.699 346.994 156.261 346.58 156.756 346.044C157.25 345.507 157.638 344.842 157.919 344.049C158.2 343.248 158.341 342.323 158.341 341.275C158.341 339.383 157.851 337.887 156.871 336.788C155.899 335.68 154.408 335.126 152.396 335.126H147.513V335.279C148.365 335.578 149.124 336.021 149.788 336.609C150.445 337.188 150.96 337.9 151.335 338.744C151.71 339.588 151.898 340.546 151.898 341.62C151.898 343.171 151.497 344.535 150.696 345.711C149.895 346.887 148.77 347.803 147.321 348.46C145.864 349.116 144.151 349.444 142.182 349.444C140.213 349.444 138.47 349.124 136.953 348.485C135.428 347.838 134.234 346.926 133.374 345.749C132.504 344.573 132.07 343.193 132.07 341.607C132.07 340.474 132.287 339.494 132.722 338.667C133.148 337.832 133.714 337.133 134.422 336.57C135.129 336.008 135.905 335.573 136.749 335.267V335.088H132.364V333.579H152.46C154.097 333.579 155.456 333.903 156.538 334.551C157.621 335.19 158.43 336.089 158.967 337.248C159.504 338.399 159.773 339.741 159.773 341.275ZM150.453 341.48C150.453 340.167 150.121 339.038 149.456 338.092C148.783 337.137 147.828 336.404 146.592 335.893C145.348 335.373 143.874 335.113 142.169 335.113C140.516 335.113 139.037 335.365 137.733 335.867C136.429 336.37 135.402 337.099 134.652 338.053C133.902 339.008 133.527 340.15 133.527 341.48C133.527 342.835 133.911 343.99 134.678 344.944C135.436 345.899 136.467 346.632 137.771 347.143C139.075 347.646 140.541 347.897 142.169 347.897C143.805 347.897 145.246 347.642 146.49 347.13C147.726 346.619 148.697 345.886 149.405 344.931C150.104 343.977 150.453 342.826 150.453 341.48ZM152.422 321.814C152.422 322.948 152.196 323.988 151.744 324.934C151.293 325.871 150.632 326.626 149.763 327.197C148.893 327.759 147.837 328.04 146.592 328.04C145.774 328.04 145.054 327.895 144.432 327.606C143.81 327.316 143.273 326.868 142.821 326.263C142.369 325.658 141.999 324.883 141.709 323.937C141.411 322.991 141.18 321.861 141.018 320.549C140.899 319.552 140.784 318.661 140.673 317.877C140.554 317.093 140.371 316.479 140.124 316.036C139.876 315.584 139.501 315.358 138.999 315.358H138.18C136.749 315.358 135.611 315.81 134.767 316.714C133.923 317.617 133.501 318.861 133.501 320.447C133.501 321.853 133.812 323.037 134.435 324.001C135.048 324.955 135.841 325.624 136.812 326.008L136.263 327.478C135.325 327.103 134.545 326.562 133.923 325.854C133.301 325.138 132.837 324.32 132.53 323.4C132.223 322.471 132.07 321.499 132.07 320.485C132.07 319.607 132.193 318.772 132.44 317.979C132.688 317.178 133.062 316.466 133.565 315.844C134.068 315.214 134.712 314.715 135.496 314.349C136.271 313.982 137.2 313.799 138.283 313.799H152V315.358H148.459V315.474C149.192 315.814 149.861 316.283 150.466 316.88C151.062 317.468 151.54 318.18 151.898 319.015C152.247 319.841 152.422 320.775 152.422 321.814ZM150.977 321.661C150.977 320.434 150.679 319.347 150.082 318.401C149.477 317.447 148.651 316.701 147.602 316.164C146.554 315.627 145.365 315.358 144.036 315.358H141.146C141.317 315.555 141.47 315.84 141.607 316.215C141.734 316.581 141.849 316.999 141.952 317.468C142.045 317.928 142.131 318.414 142.207 318.925C142.276 319.428 142.339 319.918 142.399 320.395C142.57 321.827 142.834 322.995 143.192 323.898C143.541 324.793 144.001 325.449 144.572 325.867C145.143 326.276 145.834 326.481 146.643 326.481C147.982 326.481 149.038 326.02 149.814 325.1C150.589 324.18 150.977 323.033 150.977 321.661ZM152 307.26H132.364V305.738H135.432V305.598C134.426 305.172 133.621 304.452 133.016 303.437C132.402 302.423 132.095 301.268 132.095 299.973C132.095 299.836 132.095 299.7 132.095 299.564C132.095 299.427 132.099 299.3 132.108 299.18H133.68C133.672 299.282 133.659 299.406 133.642 299.551C133.616 299.687 133.604 299.858 133.604 300.062C133.604 301.153 133.838 302.125 134.307 302.977C134.776 303.821 135.423 304.486 136.25 304.971C137.068 305.457 138.006 305.7 139.062 305.7H152V307.26Z" fill="#343A40"/>
<rect x="200" y="500" width="150" height="10" transform="rotate(-90 200 500)" fill="#8D45BA"/>
<path d="M252 495.839H225.818V487.772C225.818 486.119 226.142 484.695 226.79 483.502C227.437 482.309 228.337 481.393 229.487 480.754C230.629 480.115 231.959 479.795 233.476 479.795C234.976 479.795 236.297 480.115 237.439 480.754C238.572 481.393 239.459 482.309 240.098 483.502C240.737 484.687 241.057 486.106 241.057 487.759V494.982H239.561V487.798C239.561 486.451 239.31 485.301 238.807 484.346C238.304 483.392 237.601 482.659 236.697 482.147C235.786 481.636 234.712 481.38 233.476 481.38C232.232 481.38 231.149 481.636 230.229 482.147C229.3 482.659 228.58 483.396 228.068 484.359C227.557 485.313 227.301 486.464 227.301 487.811V494.241H252V495.839ZM240.136 485.088L252 478.644V480.485L240.136 486.89V485.088ZM252.422 468.756C252.422 469.889 252.196 470.929 251.744 471.875C251.293 472.813 250.632 473.567 249.763 474.138C248.893 474.7 247.837 474.982 246.592 474.982C245.774 474.982 245.054 474.837 244.432 474.547C243.81 474.257 243.273 473.81 242.821 473.205C242.369 472.6 241.999 471.824 241.709 470.878C241.411 469.932 241.18 468.803 241.018 467.49C240.899 466.493 240.784 465.602 240.673 464.818C240.554 464.034 240.371 463.421 240.124 462.977C239.876 462.526 239.501 462.3 238.999 462.3H238.18C236.749 462.3 235.611 462.752 234.767 463.655C233.923 464.558 233.501 465.803 233.501 467.388C233.501 468.794 233.812 469.979 234.435 470.942C235.048 471.896 235.841 472.566 236.812 472.949L236.263 474.419C235.325 474.044 234.545 473.503 233.923 472.796C233.301 472.08 232.837 471.262 232.53 470.341C232.223 469.412 232.07 468.441 232.07 467.426C232.07 466.548 232.193 465.713 232.44 464.921C232.688 464.119 233.062 463.408 233.565 462.786C234.068 462.155 234.712 461.656 235.496 461.29C236.271 460.923 237.2 460.74 238.283 460.74H252V462.3H248.459V462.415C249.192 462.756 249.861 463.225 250.466 463.821C251.062 464.409 251.54 465.121 251.898 465.956C252.247 466.783 252.422 467.716 252.422 468.756ZM250.977 468.602C250.977 467.375 250.679 466.289 250.082 465.343C249.477 464.388 248.651 463.642 247.602 463.105C246.554 462.568 245.365 462.3 244.036 462.3H241.146C241.317 462.496 241.47 462.781 241.607 463.156C241.734 463.523 241.849 463.941 241.952 464.409C242.045 464.869 242.131 465.355 242.207 465.867C242.276 466.369 242.339 466.86 242.399 467.337C242.57 468.769 242.834 469.936 243.192 470.84C243.541 471.735 244.001 472.391 244.572 472.808C245.143 473.218 245.834 473.422 246.643 473.422C247.982 473.422 249.038 472.962 249.814 472.041C250.589 471.121 250.977 469.975 250.977 468.602ZM252.409 447.464C252.409 449.041 251.974 450.417 251.105 451.593C250.236 452.769 249.038 453.681 247.513 454.329C245.979 454.968 244.219 455.288 242.233 455.288C240.264 455.288 238.517 454.964 236.991 454.316C235.457 453.66 234.256 452.744 233.386 451.568C232.509 450.392 232.07 449.019 232.07 447.451C232.07 446.326 232.287 445.35 232.722 444.524C233.148 443.688 233.714 442.99 234.422 442.427C235.129 441.856 235.905 441.421 236.749 441.123V440.97H225.818V439.423H252V440.931H247.717V441.123C248.561 441.438 249.341 441.877 250.057 442.44C250.764 443.002 251.335 443.701 251.77 444.536C252.196 445.372 252.409 446.347 252.409 447.464ZM250.964 447.323C250.964 445.994 250.585 444.856 249.827 443.91C249.06 442.955 248.02 442.227 246.707 441.724C245.386 441.213 243.891 440.957 242.22 440.957C240.55 440.957 239.062 441.213 237.759 441.724C236.446 442.227 235.415 442.955 234.665 443.91C233.906 444.856 233.527 445.994 233.527 447.323C233.527 448.67 233.911 449.825 234.678 450.788C235.436 451.742 236.472 452.475 237.784 452.987C239.097 453.49 240.575 453.741 242.22 453.741C243.865 453.741 245.348 453.49 246.669 452.987C247.99 452.475 249.038 451.742 249.814 450.788C250.581 449.825 250.964 448.67 250.964 447.323ZM252 432.328H232.364V430.781H252V432.328ZM228.886 431.548C228.886 431.889 228.767 432.187 228.528 432.443C228.29 432.69 228 432.813 227.659 432.813C227.318 432.813 227.028 432.69 226.79 432.443C226.551 432.195 226.432 431.897 226.432 431.548C226.432 431.207 226.551 430.913 226.79 430.666C227.028 430.41 227.318 430.282 227.659 430.282C228 430.282 228.29 430.406 228.528 430.653C228.767 430.9 228.886 431.198 228.886 431.548ZM252.409 416.948C252.409 418.568 251.974 420.008 251.105 421.269C250.227 422.531 249.021 423.524 247.487 424.248C245.953 424.972 244.206 425.335 242.246 425.335C240.277 425.335 238.53 424.972 237.004 424.248C235.47 423.524 234.264 422.531 233.386 421.269C232.509 420.008 232.07 418.568 232.07 416.948C232.07 415.329 232.509 413.889 233.386 412.627C234.264 411.366 235.47 410.373 237.004 409.649C238.538 408.924 240.286 408.562 242.246 408.562C244.206 408.562 245.953 408.924 247.487 409.649C249.021 410.373 250.227 411.366 251.105 412.627C251.974 413.889 252.409 415.329 252.409 416.948ZM250.964 416.948C250.964 415.576 250.577 414.379 249.801 413.356C249.026 412.325 247.977 411.528 246.656 410.965C245.335 410.394 243.865 410.109 242.246 410.109C240.626 410.109 239.161 410.394 237.848 410.965C236.527 411.536 235.479 412.333 234.703 413.356C233.919 414.379 233.527 415.576 233.527 416.948C233.527 418.32 233.919 419.518 234.703 420.541C235.479 421.563 236.527 422.36 237.848 422.931C239.161 423.502 240.626 423.788 242.246 423.788C243.865 423.788 245.335 423.507 246.656 422.944C247.977 422.373 249.026 421.576 249.801 420.553C250.577 419.522 250.964 418.32 250.964 416.948ZM225.818 390.917H252V392.515H225.818V390.917ZM252 383.889H232.364V382.367H235.33V382.214C234.341 381.839 233.557 381.191 232.977 380.271C232.398 379.35 232.108 378.242 232.108 376.947C232.108 375.524 232.449 374.377 233.131 373.508C233.812 372.63 234.737 371.999 235.905 371.616V371.475C234.754 371.092 233.834 370.406 233.143 369.417C232.453 368.42 232.108 367.193 232.108 365.735C232.108 363.835 232.709 362.386 233.911 361.389C235.104 360.383 236.74 359.88 238.82 359.88H252V361.44H238.82C237.183 361.44 235.896 361.832 234.959 362.616C234.021 363.4 233.553 364.551 233.553 366.068C233.553 367.687 234.06 368.931 235.074 369.801C236.088 370.67 237.379 371.105 238.947 371.105H252V372.664H238.717C237.192 372.664 235.952 373.048 234.997 373.815C234.034 374.582 233.553 375.732 233.553 377.267C233.553 378.306 233.791 379.205 234.268 379.964C234.746 380.714 235.402 381.298 236.237 381.715C237.072 382.124 238.031 382.329 239.114 382.329H252V383.889ZM252.422 348.205C252.422 349.339 252.196 350.378 251.744 351.324C251.293 352.262 250.632 353.016 249.763 353.587C248.893 354.15 247.837 354.431 246.592 354.431C245.774 354.431 245.054 354.286 244.432 353.996C243.81 353.706 243.273 353.259 242.821 352.654C242.369 352.049 241.999 351.273 241.709 350.327C241.411 349.381 241.18 348.252 241.018 346.939C240.899 345.942 240.784 345.052 240.673 344.268C240.554 343.483 240.371 342.87 240.124 342.427C239.876 341.975 239.501 341.749 238.999 341.749H238.18C236.749 341.749 235.611 342.201 234.767 343.104C233.923 344.008 233.501 345.252 233.501 346.837C233.501 348.243 233.812 349.428 234.435 350.391C235.048 351.346 235.841 352.015 236.812 352.398L236.263 353.868C235.325 353.493 234.545 352.952 233.923 352.245C233.301 351.529 232.837 350.711 232.53 349.79C232.223 348.861 232.07 347.89 232.07 346.876C232.07 345.998 232.193 345.162 232.44 344.37C232.688 343.569 233.062 342.857 233.565 342.235C234.068 341.604 234.712 341.106 235.496 340.739C236.271 340.373 237.2 340.189 238.283 340.189H252V341.749H248.459V341.864C249.192 342.205 249.861 342.674 250.466 343.27C251.062 343.858 251.54 344.57 251.898 345.405C252.247 346.232 252.422 347.165 252.422 348.205ZM250.977 348.052C250.977 346.824 250.679 345.738 250.082 344.792C249.477 343.837 248.651 343.091 247.602 342.555C246.554 342.018 245.365 341.749 244.036 341.749H241.146C241.317 341.945 241.47 342.231 241.607 342.606C241.734 342.972 241.849 343.39 241.952 343.858C242.045 344.319 242.131 344.805 242.207 345.316C242.276 345.819 242.339 346.309 242.399 346.786C242.57 348.218 242.834 349.385 243.192 350.289C243.541 351.184 244.001 351.84 244.572 352.258C245.143 352.667 245.834 352.871 246.643 352.871C247.982 352.871 249.038 352.411 249.814 351.491C250.589 350.57 250.977 349.424 250.977 348.052ZM259.773 326.568C259.773 327.787 259.611 328.882 259.287 329.854C258.972 330.825 258.52 331.652 257.932 332.334C257.344 333.007 256.645 333.523 255.835 333.881L255.068 332.577C255.699 332.287 256.261 331.873 256.756 331.336C257.25 330.8 257.638 330.135 257.919 329.342C258.2 328.541 258.341 327.616 258.341 326.568C258.341 324.676 257.851 323.18 256.871 322.081C255.899 320.973 254.408 320.419 252.396 320.419H247.513V320.572C248.365 320.871 249.124 321.314 249.788 321.902C250.445 322.481 250.96 323.193 251.335 324.037C251.71 324.881 251.898 325.839 251.898 326.913C251.898 328.464 251.497 329.828 250.696 331.004C249.895 332.18 248.77 333.096 247.321 333.753C245.864 334.409 244.151 334.737 242.182 334.737C240.213 334.737 238.47 334.417 236.953 333.778C235.428 333.131 234.234 332.219 233.374 331.042C232.504 329.866 232.07 328.486 232.07 326.9C232.07 325.767 232.287 324.787 232.722 323.96C233.148 323.125 233.714 322.426 234.422 321.863C235.129 321.301 235.905 320.866 236.749 320.559V320.381H232.364V318.872H252.46C254.097 318.872 255.456 319.196 256.538 319.844C257.621 320.483 258.43 321.382 258.967 322.541C259.504 323.692 259.773 325.034 259.773 326.568ZM250.453 326.773C250.453 325.46 250.121 324.331 249.456 323.385C248.783 322.43 247.828 321.697 246.592 321.186C245.348 320.666 243.874 320.406 242.169 320.406C240.516 320.406 239.037 320.657 237.733 321.16C236.429 321.663 235.402 322.392 234.652 323.346C233.902 324.301 233.527 325.443 233.527 326.773C233.527 328.128 233.911 329.282 234.678 330.237C235.436 331.192 236.467 331.925 237.771 332.436C239.075 332.939 240.541 333.19 242.169 333.19C243.805 333.19 245.246 332.934 246.49 332.423C247.726 331.912 248.697 331.179 249.405 330.224C250.104 329.27 250.453 328.119 250.453 326.773ZM252 312.234H232.364V310.687H252V312.234ZM228.886 311.454C228.886 311.795 228.767 312.093 228.528 312.349C228.29 312.596 228 312.72 227.659 312.72C227.318 312.72 227.028 312.596 226.79 312.349C226.551 312.102 226.432 311.803 226.432 311.454C226.432 311.113 226.551 310.819 226.79 310.572C227.028 310.316 227.318 310.188 227.659 310.188C228 310.188 228.29 310.312 228.528 310.559C228.767 310.806 228.886 311.105 228.886 311.454ZM239.267 302.595H252V304.154H232.364V302.633H235.47V302.48C234.456 302.019 233.642 301.282 233.028 300.268C232.415 299.254 232.108 298.048 232.108 296.65C232.108 295.329 232.389 294.17 232.952 293.173C233.514 292.167 234.315 291.383 235.355 290.82C236.386 290.249 237.618 289.964 239.05 289.964H252V291.524H239.114C237.443 291.524 236.101 292.022 235.087 293.019C234.064 294.008 233.553 295.316 233.553 296.944C233.553 298.035 233.791 299.007 234.268 299.859C234.746 300.711 235.415 301.38 236.276 301.866C237.128 302.352 238.125 302.595 239.267 302.595ZM259.773 276.4C259.773 277.619 259.611 278.714 259.287 279.686C258.972 280.657 258.52 281.484 257.932 282.166C257.344 282.839 256.645 283.355 255.835 283.713L255.068 282.409C255.699 282.119 256.261 281.705 256.756 281.169C257.25 280.632 257.638 279.967 257.919 279.174C258.2 278.373 258.341 277.448 258.341 276.4C258.341 274.508 257.851 273.012 256.871 271.913C255.899 270.805 254.408 270.251 252.396 270.251H247.513V270.404C248.365 270.703 249.124 271.146 249.788 271.734C250.445 272.313 250.96 273.025 251.335 273.869C251.71 274.713 251.898 275.671 251.898 276.745C251.898 278.296 251.497 279.66 250.696 280.836C249.895 282.012 248.77 282.928 247.321 283.585C245.864 284.241 244.151 284.569 242.182 284.569C240.213 284.569 238.47 284.249 236.953 283.61C235.428 282.963 234.234 282.051 233.374 280.874C232.504 279.698 232.07 278.318 232.07 276.732C232.07 275.599 232.287 274.619 232.722 273.792C233.148 272.957 233.714 272.258 234.422 271.695C235.129 271.133 235.905 270.698 236.749 270.392V270.213H232.364V268.704H252.46C254.097 268.704 255.456 269.028 256.538 269.676C257.621 270.315 258.43 271.214 258.967 272.373C259.504 273.524 259.773 274.866 259.773 276.4ZM250.453 276.605C250.453 275.292 250.121 274.163 249.456 273.217C248.783 272.262 247.828 271.529 246.592 271.018C245.348 270.498 243.874 270.238 242.169 270.238C240.516 270.238 239.037 270.49 237.733 270.992C236.429 271.495 235.402 272.224 234.652 273.178C233.902 274.133 233.527 275.275 233.527 276.605C233.527 277.96 233.911 279.115 234.678 280.069C235.436 281.024 236.467 281.757 237.771 282.268C239.075 282.771 240.541 283.022 242.169 283.022C243.805 283.022 245.246 282.767 246.49 282.255C247.726 281.744 248.697 281.011 249.405 280.056C250.104 279.102 250.453 277.951 250.453 276.605Z" fill="#343A40"/>
<rect x="300" y="500" width="500" height="10" transform="rotate(-90 300 500)" fill="#FF415B"/>
<path d="M352 495.792H325.818V487.291C325.818 485.705 326.099 484.367 326.662 483.276C327.224 482.186 328.013 481.359 329.027 480.796C330.041 480.225 331.222 479.94 332.568 479.94C333.625 479.94 334.562 480.11 335.381 480.451C336.199 480.792 336.876 481.269 337.413 481.883C337.942 482.488 338.308 483.2 338.513 484.018H338.666C338.734 483.115 339.05 482.275 339.612 481.499C340.166 480.724 340.92 480.102 341.875 479.633C342.83 479.156 343.942 478.917 345.212 478.917C346.55 478.917 347.73 479.207 348.753 479.786C349.767 480.357 350.564 481.214 351.143 482.356C351.714 483.498 352 484.913 352 486.6V495.792ZM350.517 494.194V486.6C350.517 484.632 350.023 483.119 349.034 482.062C348.045 480.997 346.771 480.464 345.212 480.464C344.112 480.464 343.128 480.724 342.259 481.244C341.389 481.755 340.703 482.467 340.2 483.379C339.689 484.291 339.433 485.347 339.433 486.549V494.194H350.517ZM337.976 494.194V486.741C337.976 485.624 337.733 484.678 337.247 483.903C336.761 483.119 336.109 482.522 335.291 482.113C334.473 481.695 333.565 481.487 332.568 481.487C330.949 481.487 329.666 481.99 328.72 482.995C327.774 484.001 327.301 485.433 327.301 487.291V494.194H337.976ZM325.818 471.614H352V473.174H325.818V471.614ZM352.409 457.858C352.409 459.478 351.974 460.918 351.105 462.18C350.227 463.441 349.021 464.434 347.487 465.158C345.953 465.883 344.206 466.245 342.246 466.245C340.277 466.245 338.53 465.883 337.004 465.158C335.47 464.434 334.264 463.441 333.386 462.18C332.509 460.918 332.07 459.478 332.07 457.858C332.07 456.239 332.509 454.799 333.386 453.537C334.264 452.276 335.47 451.283 337.004 450.559C338.538 449.834 340.286 449.472 342.246 449.472C344.206 449.472 345.953 449.834 347.487 450.559C349.021 451.283 350.227 452.276 351.105 453.537C351.974 454.799 352.409 456.239 352.409 457.858ZM350.964 457.858C350.964 456.486 350.577 455.289 349.801 454.266C349.026 453.235 347.977 452.438 346.656 451.876C345.335 451.305 343.865 451.019 342.246 451.019C340.626 451.019 339.161 451.305 337.848 451.876C336.527 452.447 335.479 453.243 334.703 454.266C333.919 455.289 333.527 456.486 333.527 457.858C333.527 459.231 333.919 460.428 334.703 461.451C335.479 462.474 336.527 463.27 337.848 463.841C339.161 464.412 340.626 464.698 342.246 464.698C343.865 464.698 345.335 464.417 346.656 463.854C347.977 463.283 349.026 462.486 349.801 461.464C350.577 460.432 350.964 459.231 350.964 457.858ZM352.409 436.8C352.409 438.419 351.974 439.86 351.105 441.121C350.227 442.382 349.021 443.375 347.487 444.1C345.953 444.824 344.206 445.186 342.246 445.186C340.277 445.186 338.53 444.824 337.004 444.1C335.47 443.375 334.264 442.382 333.386 441.121C332.509 439.86 332.07 438.419 332.07 436.8C332.07 435.181 332.509 433.74 333.386 432.479C334.264 431.218 335.47 430.225 337.004 429.5C338.538 428.776 340.286 428.414 342.246 428.414C344.206 428.414 345.953 428.776 347.487 429.5C349.021 430.225 350.227 431.218 351.105 432.479C351.974 433.74 352.409 435.181 352.409 436.8ZM350.964 436.8C350.964 435.428 350.577 434.23 349.801 433.208C349.026 432.176 347.977 431.379 346.656 430.817C345.335 430.246 343.865 429.96 342.246 429.96C340.626 429.96 339.161 430.246 337.848 430.817C336.527 431.388 335.479 432.185 334.703 433.208C333.919 434.23 333.527 435.428 333.527 436.8C333.527 438.172 333.919 439.369 334.703 440.392C335.479 441.415 336.527 442.212 337.848 442.783C339.161 443.354 340.626 443.639 342.246 443.639C343.865 443.639 345.335 443.358 346.656 442.796C347.977 442.225 349.026 441.428 349.801 440.405C350.577 439.374 350.964 438.172 350.964 436.8ZM352.409 416.304C352.409 417.881 351.974 419.257 351.105 420.433C350.236 421.609 349.038 422.521 347.513 423.169C345.979 423.808 344.219 424.128 342.233 424.128C340.264 424.128 338.517 423.804 336.991 423.156C335.457 422.5 334.256 421.584 333.386 420.407C332.509 419.231 332.07 417.859 332.07 416.291C332.07 415.166 332.287 414.19 332.722 413.363C333.148 412.528 333.714 411.829 334.422 411.267C335.129 410.696 335.905 410.261 336.749 409.963V409.809H325.818V408.263H352V409.771H347.717V409.963C348.561 410.278 349.341 410.717 350.057 411.28C350.764 411.842 351.335 412.541 351.77 413.376C352.196 414.211 352.409 415.187 352.409 416.304ZM350.964 416.163C350.964 414.834 350.585 413.696 349.827 412.75C349.06 411.795 348.02 411.067 346.707 410.564C345.386 410.052 343.891 409.797 342.22 409.797C340.55 409.797 339.062 410.052 337.759 410.564C336.446 411.067 335.415 411.795 334.665 412.75C333.906 413.696 333.527 414.834 333.527 416.163C333.527 417.51 333.911 418.665 334.678 419.628C335.436 420.582 336.472 421.315 337.784 421.827C339.097 422.329 340.575 422.581 342.22 422.581C343.865 422.581 345.348 422.329 346.669 421.827C347.99 421.315 349.038 420.582 349.814 419.628C350.581 418.665 350.964 417.51 350.964 416.163ZM352 390.569H325.818V382.503C325.818 380.841 326.159 379.417 326.841 378.233C327.523 377.04 328.456 376.123 329.641 375.484C330.825 374.845 332.176 374.525 333.693 374.525C335.193 374.525 336.536 374.845 337.72 375.484C338.905 376.123 339.842 377.04 340.533 378.233C341.214 379.417 341.555 380.836 341.555 382.49V389.444H340.072V382.528C340.072 381.182 339.8 380.031 339.254 379.077C338.7 378.122 337.946 377.389 336.991 376.878C336.028 376.366 334.929 376.111 333.693 376.111C332.449 376.111 331.345 376.366 330.382 376.878C329.419 377.389 328.665 378.126 328.119 379.089C327.574 380.044 327.301 381.194 327.301 382.541V388.971H352V390.569ZM352 368.936H332.364V367.414H335.432V367.274C334.426 366.847 333.621 366.127 333.016 365.113C332.402 364.099 332.095 362.944 332.095 361.649C332.095 361.512 332.095 361.376 332.095 361.24C332.095 361.103 332.099 360.975 332.108 360.856H333.68C333.672 360.958 333.659 361.082 333.642 361.227C333.616 361.363 333.604 361.534 333.604 361.738C333.604 362.829 333.838 363.801 334.307 364.653C334.776 365.497 335.423 366.161 336.25 366.647C337.068 367.133 338.006 367.376 339.062 367.376H352V368.936ZM352.409 349.606C352.409 351.379 351.97 352.921 351.092 354.234C350.214 355.546 349.013 356.561 347.487 357.276C345.962 357.992 344.223 358.35 342.271 358.35C340.311 358.35 338.564 357.992 337.03 357.276C335.496 356.552 334.286 355.559 333.399 354.298C332.513 353.036 332.07 351.596 332.07 349.977C332.07 348.877 332.291 347.838 332.734 346.857C333.169 345.869 333.8 344.999 334.626 344.249C335.453 343.491 336.45 342.899 337.618 342.472C338.786 342.038 340.098 341.82 341.555 341.82H342.527V357.366H341.108V343.38C339.685 343.38 338.402 343.67 337.26 344.249C336.118 344.829 335.21 345.617 334.537 346.615C333.864 347.612 333.527 348.732 333.527 349.977C333.527 351.281 333.893 352.444 334.626 353.467C335.351 354.481 336.331 355.286 337.567 355.883C338.803 356.471 340.183 356.778 341.709 356.803H342.348C343.984 356.803 345.455 356.518 346.759 355.947C348.054 355.367 349.081 354.541 349.839 353.467C350.589 352.393 350.964 351.106 350.964 349.606C350.964 348.532 350.786 347.616 350.428 346.857C350.061 346.09 349.618 345.464 349.098 344.978C348.578 344.492 348.075 344.126 347.589 343.879L348.165 342.46C348.821 342.758 349.477 343.222 350.134 343.853C350.781 344.475 351.322 345.268 351.757 346.231C352.192 347.186 352.409 348.311 352.409 349.606ZM336.595 323.974L336.979 325.419C336.263 325.649 335.645 325.977 335.125 326.403C334.605 326.829 334.205 327.366 333.923 328.014C333.634 328.653 333.489 329.42 333.489 330.315C333.489 331.755 333.847 332.936 334.562 333.856C335.278 334.768 336.212 335.224 337.362 335.224C338.3 335.224 339.075 334.913 339.689 334.291C340.294 333.669 340.754 332.718 341.07 331.44L341.824 328.423C342.207 326.872 342.83 325.704 343.69 324.92C344.543 324.136 345.604 323.744 346.874 323.744C347.956 323.744 348.915 324.038 349.75 324.626C350.585 325.214 351.237 326.028 351.706 327.068C352.175 328.099 352.409 329.301 352.409 330.673C352.409 332.505 351.983 334.009 351.131 335.186C350.27 336.362 349.038 337.116 347.436 337.448L347.053 335.953C348.331 335.671 349.307 335.088 349.98 334.201C350.645 333.306 350.977 332.134 350.977 330.686C350.977 329.083 350.598 327.792 349.839 326.812C349.081 325.823 348.109 325.329 346.925 325.329C346.021 325.329 345.259 325.619 344.636 326.198C344.014 326.778 343.558 327.656 343.268 328.832L342.501 331.964C342.109 333.566 341.483 334.768 340.622 335.569C339.753 336.37 338.683 336.771 337.413 336.771C336.357 336.771 335.428 336.494 334.626 335.94C333.825 335.386 333.199 334.623 332.747 333.651C332.295 332.68 332.07 331.568 332.07 330.315C332.07 328.653 332.462 327.298 333.246 326.249C334.03 325.201 335.146 324.443 336.595 323.974ZM336.595 305.868L336.979 307.313C336.263 307.543 335.645 307.871 335.125 308.297C334.605 308.724 334.205 309.26 333.923 309.908C333.634 310.547 333.489 311.314 333.489 312.209C333.489 313.65 333.847 314.83 334.562 315.751C335.278 316.662 336.212 317.118 337.362 317.118C338.3 317.118 339.075 316.807 339.689 316.185C340.294 315.563 340.754 314.613 341.07 313.334L341.824 310.317C342.207 308.766 342.83 307.599 343.69 306.814C344.543 306.03 345.604 305.638 346.874 305.638C347.956 305.638 348.915 305.932 349.75 306.52C350.585 307.108 351.237 307.922 351.706 308.962C352.175 309.993 352.409 311.195 352.409 312.567C352.409 314.4 351.983 315.904 351.131 317.08C350.27 318.256 349.038 319.01 347.436 319.343L347.053 317.847C348.331 317.566 349.307 316.982 349.98 316.096C350.645 315.201 350.977 314.029 350.977 312.58C350.977 310.978 350.598 309.687 349.839 308.706C349.081 307.718 348.109 307.224 346.925 307.224C346.021 307.224 345.259 307.513 344.636 308.093C344.014 308.672 343.558 309.55 343.268 310.726L342.501 313.858C342.109 315.461 341.483 316.662 340.622 317.464C339.753 318.265 338.683 318.665 337.413 318.665C336.357 318.665 335.428 318.388 334.626 317.834C333.825 317.28 333.199 316.518 332.747 315.546C332.295 314.574 332.07 313.462 332.07 312.209C332.07 310.547 332.462 309.192 333.246 308.144C334.03 307.096 335.146 306.337 336.595 305.868ZM345.033 287.661H332.364V286.101H352V287.661H348.817V287.789C349.831 288.249 350.658 288.994 351.297 290.026C351.936 291.048 352.256 292.259 352.256 293.656C352.256 294.943 351.974 296.081 351.412 297.07C350.849 298.058 350.053 298.834 349.021 299.396C347.982 299.959 346.746 300.24 345.314 300.24H332.364V298.681H345.25C346.886 298.681 348.212 298.186 349.226 297.198C350.232 296.2 350.734 294.914 350.734 293.337C350.734 292.314 350.504 291.372 350.044 290.512C349.584 289.651 348.928 288.96 348.075 288.441C347.214 287.921 346.2 287.661 345.033 287.661ZM352 279.639H332.364V278.117H335.432V277.977C334.426 277.551 333.621 276.83 333.016 275.816C332.402 274.802 332.095 273.647 332.095 272.352C332.095 272.215 332.095 272.079 332.095 271.943C332.095 271.806 332.099 271.678 332.108 271.559H333.68C333.672 271.661 333.659 271.785 333.642 271.93C333.616 272.066 333.604 272.237 333.604 272.441C333.604 273.532 333.838 274.504 334.307 275.356C334.776 276.2 335.423 276.865 336.25 277.35C337.068 277.836 338.006 278.079 339.062 278.079H352V279.639ZM352.409 260.309C352.409 262.082 351.97 263.624 351.092 264.937C350.214 266.249 349.013 267.264 347.487 267.98C345.962 268.695 344.223 269.053 342.271 269.053C340.311 269.053 338.564 268.695 337.03 267.98C335.496 267.255 334.286 266.262 333.399 265.001C332.513 263.74 332.07 262.299 332.07 260.68C332.07 259.58 332.291 258.541 332.734 257.561C333.169 256.572 333.8 255.703 334.626 254.953C335.453 254.194 336.45 253.602 337.618 253.176C338.786 252.741 340.098 252.524 341.555 252.524H342.527V268.069H341.108V254.083C339.685 254.083 338.402 254.373 337.26 254.953C336.118 255.532 335.21 256.32 334.537 257.318C333.864 258.315 333.527 259.436 333.527 260.68C333.527 261.984 333.893 263.147 334.626 264.17C335.351 265.184 336.331 265.99 337.567 266.586C338.803 267.174 340.183 267.481 341.709 267.507H342.348C343.984 267.507 345.455 267.221 346.759 266.65C348.054 266.07 349.081 265.244 349.839 264.17C350.589 263.096 350.964 261.809 350.964 260.309C350.964 259.235 350.786 258.319 350.428 257.561C350.061 256.794 349.618 256.167 349.098 255.681C348.578 255.195 348.075 254.829 347.589 254.582L348.165 253.163C348.821 253.461 349.477 253.926 350.134 254.556C350.781 255.178 351.322 255.971 351.757 256.934C352.192 257.889 352.409 259.014 352.409 260.309ZM352.358 230.433C352.358 231.924 352.047 233.249 351.425 234.409C350.803 235.559 349.963 236.467 348.906 237.132C347.841 237.788 346.643 238.116 345.314 238.116C344.428 238.116 343.618 237.941 342.885 237.592C342.143 237.242 341.415 236.714 340.699 236.007C339.974 235.291 339.207 234.387 338.398 233.296L335.547 229.474C334.746 228.4 333.996 227.616 333.297 227.122C332.589 226.619 331.78 226.367 330.868 226.367C329.777 226.367 328.844 226.742 328.068 227.492C327.293 228.234 326.905 229.18 326.905 230.33C326.905 231.115 327.109 231.835 327.518 232.491C327.919 233.139 328.443 233.659 329.091 234.051C329.739 234.434 330.433 234.626 331.175 234.626C331.754 234.626 332.33 234.49 332.901 234.217C333.463 233.936 334.085 233.539 334.767 233.028C335.44 232.508 336.224 231.886 337.119 231.161L352 219.247V221.139L338.359 232.082C337.32 232.926 336.408 233.654 335.624 234.268C334.839 234.882 334.094 235.355 333.386 235.687C332.679 236.019 331.933 236.186 331.149 236.186C330.101 236.186 329.151 235.93 328.298 235.419C327.437 234.899 326.756 234.2 326.253 233.322C325.75 232.444 325.499 231.455 325.499 230.356C325.499 229.265 325.737 228.302 326.214 227.467C326.683 226.632 327.327 225.98 328.145 225.511C328.955 225.042 329.862 224.808 330.868 224.808C331.984 224.808 332.994 225.106 333.898 225.703C334.801 226.291 335.734 227.207 336.697 228.451L339.893 232.747C340.984 234.178 341.956 235.171 342.808 235.725C343.661 236.271 344.496 236.544 345.314 236.544C346.337 236.544 347.27 236.279 348.114 235.751C348.957 235.222 349.635 234.502 350.146 233.59C350.658 232.67 350.918 231.626 350.926 230.458C350.909 229.282 350.679 228.195 350.236 227.198C349.793 226.201 349.175 225.323 348.382 224.565C347.581 223.798 346.631 223.176 345.531 222.698C344.423 222.213 343.192 221.897 341.837 221.752L341.913 220.231C342.979 220.316 343.937 220.504 344.79 220.794C345.634 221.083 346.379 221.42 347.027 221.803C347.675 222.178 348.224 222.541 348.676 222.89C348.812 222.992 348.945 223.09 349.072 223.184C349.2 223.278 349.324 223.38 349.443 223.491C350.372 224.352 351.092 225.409 351.604 226.661C352.107 227.906 352.358 229.163 352.358 230.433ZM352 204.663H325.818V203.065H338.155V187.29H325.818V185.692H352V187.29H339.638V203.065H352V204.663ZM352.409 171.012C352.409 172.785 351.97 174.328 351.092 175.64C350.214 176.953 349.013 177.967 347.487 178.683C345.962 179.399 344.223 179.757 342.271 179.757C340.311 179.757 338.564 179.399 337.03 178.683C335.496 177.958 334.286 176.965 333.399 175.704C332.513 174.443 332.07 173.002 332.07 171.383C332.07 170.284 332.291 169.244 332.734 168.264C333.169 167.275 333.8 166.406 334.626 165.656C335.453 164.897 336.45 164.305 337.618 163.879C338.786 163.444 340.098 163.227 341.555 163.227H342.527V178.772H341.108V164.786C339.685 164.786 338.402 165.076 337.26 165.656C336.118 166.235 335.21 167.024 334.537 168.021C333.864 169.018 333.527 170.139 333.527 171.383C333.527 172.687 333.893 173.85 334.626 174.873C335.351 175.887 336.331 176.693 337.567 177.289C338.803 177.877 340.183 178.184 341.709 178.21H342.348C343.984 178.21 345.455 177.924 346.759 177.353C348.054 176.774 349.081 175.947 349.839 174.873C350.589 173.799 350.964 172.512 350.964 171.012C350.964 169.938 350.786 169.022 350.428 168.264C350.061 167.497 349.618 166.87 349.098 166.384C348.578 165.899 348.075 165.532 347.589 165.285L348.165 163.866C348.821 164.164 349.477 164.629 350.134 165.259C350.781 165.882 351.322 166.674 351.757 167.637C352.192 168.592 352.409 169.717 352.409 171.012ZM352.422 152.654C352.422 153.788 352.196 154.828 351.744 155.774C351.293 156.711 350.632 157.465 349.763 158.036C348.893 158.599 347.837 158.88 346.592 158.88C345.774 158.88 345.054 158.735 344.432 158.445C343.81 158.156 343.273 157.708 342.821 157.103C342.369 156.498 341.999 155.722 341.709 154.776C341.411 153.83 341.18 152.701 341.018 151.389C340.899 150.392 340.784 149.501 340.673 148.717C340.554 147.933 340.371 147.319 340.124 146.876C339.876 146.424 339.501 146.198 338.999 146.198H338.18C336.749 146.198 335.611 146.65 334.767 147.553C333.923 148.457 333.501 149.701 333.501 151.286C333.501 152.693 333.812 153.877 334.435 154.84C335.048 155.795 335.841 156.464 336.812 156.847L336.263 158.318C335.325 157.943 334.545 157.401 333.923 156.694C333.301 155.978 332.837 155.16 332.53 154.24C332.223 153.311 332.07 152.339 332.07 151.325C332.07 150.447 332.193 149.612 332.44 148.819C332.688 148.018 333.062 147.306 333.565 146.684C334.068 146.053 334.712 145.555 335.496 145.188C336.271 144.822 337.2 144.639 338.283 144.639H352V146.198H348.459V146.313C349.192 146.654 349.861 147.123 350.466 147.72C351.062 148.308 351.54 149.019 351.898 149.855C352.247 150.681 352.422 151.615 352.422 152.654ZM350.977 152.501C350.977 151.274 350.679 150.187 350.082 149.241C349.477 148.286 348.651 147.541 347.602 147.004C346.554 146.467 345.365 146.198 344.036 146.198H341.146C341.317 146.394 341.47 146.68 341.607 147.055C341.734 147.421 341.849 147.839 341.952 148.308C342.045 148.768 342.131 149.254 342.207 149.765C342.276 150.268 342.339 150.758 342.399 151.235C342.57 152.667 342.834 153.835 343.192 154.738C343.541 155.633 344.001 156.289 344.572 156.707C345.143 157.116 345.834 157.32 346.643 157.32C347.982 157.32 349.038 156.86 349.814 155.94C350.589 155.019 350.977 153.873 350.977 152.501ZM352 138.1H332.364V136.578H335.432V136.438C334.426 136.012 333.621 135.291 333.016 134.277C332.402 133.263 332.095 132.108 332.095 130.813C332.095 130.676 332.095 130.54 332.095 130.404C332.095 130.267 332.099 130.139 332.108 130.02H333.68C333.672 130.122 333.659 130.246 333.642 130.391C333.616 130.527 333.604 130.698 333.604 130.902C333.604 131.993 333.838 132.965 334.307 133.817C334.776 134.661 335.423 135.325 336.25 135.811C337.068 136.297 338.006 136.54 339.062 136.54H352V138.1ZM352 115.155H325.818V107.089C325.818 105.435 326.142 104.012 326.79 102.819C327.437 101.626 328.337 100.709 329.487 100.07C330.629 99.4309 331.959 99.1113 333.476 99.1113C334.976 99.1113 336.297 99.4309 337.439 100.07C338.572 100.709 339.459 101.626 340.098 102.819C340.737 104.003 341.057 105.422 341.057 107.076V114.299H339.561V107.114C339.561 105.768 339.31 104.617 338.807 103.662C338.304 102.708 337.601 101.975 336.697 101.464C335.786 100.952 334.712 100.697 333.476 100.697C332.232 100.697 331.149 100.952 330.229 101.464C329.3 101.975 328.58 102.712 328.068 103.675C327.557 104.63 327.301 105.78 327.301 107.127V113.557H352V115.155ZM340.136 104.404L352 97.9608V99.8017L340.136 106.206V104.404ZM352.422 88.0723C352.422 89.2058 352.196 90.2456 351.744 91.1916C351.293 92.1291 350.632 92.8833 349.763 93.4544C348.893 94.0169 347.837 94.2981 346.592 94.2981C345.774 94.2981 345.054 94.1532 344.432 93.8635C343.81 93.5737 343.273 93.1262 342.821 92.5211C342.369 91.916 341.999 91.1404 341.709 90.1944C341.411 89.2484 341.18 88.1191 341.018 86.8066C340.899 85.8095 340.784 84.9189 340.673 84.1348C340.554 83.3507 340.371 82.737 340.124 82.2939C339.876 81.8422 339.501 81.6163 338.999 81.6163H338.18C336.749 81.6163 335.611 82.068 334.767 82.9714C333.923 83.8748 333.501 85.1191 333.501 86.7044C333.501 88.1106 333.812 89.2953 334.435 90.2583C335.048 91.2129 335.841 91.8819 336.812 92.2654L336.263 93.7356C335.325 93.3606 334.545 92.8194 333.923 92.112C333.301 91.3961 332.837 90.5779 332.53 89.6575C332.223 88.7285 332.07 87.7569 332.07 86.7427C332.07 85.8649 332.193 85.0297 332.44 84.237C332.688 83.4359 333.062 82.7243 333.565 82.1021C334.068 81.4714 334.712 80.9728 335.496 80.6064C336.271 80.2399 337.2 80.0566 338.283 80.0566H352V81.6163H348.459V81.7314C349.192 82.0723 349.861 82.541 350.466 83.1376C351.062 83.7257 351.54 84.4373 351.898 85.2725C352.247 86.0993 352.422 87.0325 352.422 88.0723ZM350.977 87.9189C350.977 86.6916 350.679 85.6049 350.082 84.6589C349.477 83.7044 348.651 82.9586 347.602 82.4217C346.554 81.8848 345.365 81.6163 344.036 81.6163H341.146C341.317 81.8123 341.47 82.0978 341.607 82.4728C341.734 82.8393 341.849 83.2569 341.952 83.7257C342.045 84.1859 342.131 84.6717 342.207 85.1831C342.276 85.6859 342.339 86.176 342.399 86.6532C342.57 88.085 342.834 89.2527 343.192 90.1561C343.541 91.051 344.001 91.7072 344.572 92.1248C345.143 92.5339 345.834 92.7385 346.643 92.7385C347.982 92.7385 349.038 92.2782 349.814 91.3578C350.589 90.4373 350.977 89.291 350.977 87.9189ZM332.364 66.5758H333.757V75.1539H332.364V66.5758ZM327.659 72.252V70.7051H347.359C348.161 70.7051 348.817 70.5517 349.328 70.2449C349.831 69.9295 350.206 69.5204 350.453 69.0176C350.692 68.5062 350.811 67.9608 350.811 67.3812C350.811 67.1 350.79 66.8571 350.747 66.6525C350.705 66.4395 350.649 66.2392 350.581 66.0517L352 65.6681C352.085 65.9068 352.158 66.171 352.217 66.4608C352.286 66.7505 352.32 67.0914 352.32 67.4835C352.32 68.3017 352.136 69.0772 351.77 69.8102C351.403 70.5346 350.871 71.1227 350.172 71.5744C349.473 72.0261 348.629 72.252 347.641 72.252H327.659ZM352.409 53.3443C352.409 55.117 351.97 56.6596 351.092 57.9721C350.214 59.2846 349.013 60.2988 347.487 61.0147C345.962 61.7306 344.223 62.0886 342.271 62.0886C340.311 62.0886 338.564 61.7306 337.03 61.0147C335.496 60.2903 334.286 59.2974 333.399 58.036C332.513 56.7747 332.07 55.3343 332.07 53.715C332.07 52.6156 332.291 51.5758 332.734 50.5957C333.169 49.6071 333.8 48.7377 334.626 47.9877C335.453 47.2292 336.45 46.6369 337.618 46.2108C338.786 45.7761 340.098 45.5588 341.555 45.5588H342.527V61.1042H341.108V47.1184C339.685 47.1184 338.402 47.4082 337.26 47.9877C336.118 48.5673 335.21 49.3556 334.537 50.3528C333.864 51.35 333.527 52.4707 333.527 53.715C333.527 55.019 333.893 56.1824 334.626 57.2051C335.351 58.2193 336.331 59.0247 337.567 59.6213C338.803 60.2093 340.183 60.5162 341.709 60.5417H342.348C343.984 60.5417 345.455 60.2562 346.759 59.6852C348.054 59.1056 349.081 58.2789 349.839 57.2051C350.589 56.1312 350.964 54.8443 350.964 53.3443C350.964 52.2704 350.786 51.3542 350.428 50.5957C350.061 49.8287 349.618 49.2022 349.098 48.7164C348.578 48.2306 348.075 47.8642 347.589 47.617L348.165 46.198C348.821 46.4963 349.477 46.9608 350.134 47.5914C350.781 48.2136 351.322 49.0062 351.757 49.9693C352.192 50.9238 352.409 52.0488 352.409 53.3443Z" fill="#343A40"/>
<rect x="400" y="500" width="100" height="10" transform="rotate(-90 400 500)" fill="#E9CC32"/>
<path d="M425.818 495.765V494.026L449.699 483.939V483.76L425.818 473.674V471.935H452V473.469H429.615V473.623L452 483.096V484.604L429.615 494.077V494.231H452V495.765H425.818ZM452.409 457.262C452.409 459.035 451.97 460.578 451.092 461.89C450.214 463.203 449.013 464.217 447.487 464.933C445.962 465.649 444.223 466.007 442.271 466.007C440.311 466.007 438.564 465.649 437.03 464.933C435.496 464.208 434.286 463.215 433.399 461.954C432.513 460.693 432.07 459.252 432.07 457.633C432.07 456.534 432.291 455.494 432.734 454.514C433.169 453.525 433.8 452.656 434.626 451.906C435.453 451.147 436.45 450.555 437.618 450.129C438.786 449.694 440.098 449.477 441.555 449.477H442.527V465.022H441.108V451.036C439.685 451.036 438.402 451.326 437.26 451.906C436.118 452.485 435.21 453.274 434.537 454.271C433.864 455.268 433.527 456.389 433.527 457.633C433.527 458.937 433.893 460.1 434.626 461.123C435.351 462.137 436.331 462.943 437.567 463.539C438.803 464.127 440.183 464.434 441.709 464.46H442.348C443.984 464.46 445.455 464.174 446.759 463.603C448.054 463.024 449.081 462.197 449.839 461.123C450.589 460.049 450.964 458.762 450.964 457.262C450.964 456.188 450.786 455.272 450.428 454.514C450.061 453.747 449.618 453.12 449.098 452.634C448.578 452.149 448.075 451.782 447.589 451.535L448.165 450.116C448.821 450.414 449.477 450.879 450.134 451.509C450.781 452.132 451.322 452.924 451.757 453.887C452.192 454.842 452.409 455.967 452.409 457.262ZM439.267 442.548H452V444.107H432.364V442.586H435.47V442.433C434.456 441.972 433.642 441.235 433.028 440.221C432.415 439.207 432.108 438.001 432.108 436.603C432.108 435.282 432.389 434.123 432.952 433.126C433.514 432.12 434.315 431.336 435.355 430.774C436.386 430.203 437.618 429.917 439.05 429.917H452V431.477H439.114C437.443 431.477 436.101 431.975 435.087 432.972C434.064 433.961 433.553 435.269 433.553 436.897C433.553 437.988 433.791 438.96 434.268 439.812C434.746 440.664 435.415 441.333 436.276 441.819C437.128 442.305 438.125 442.548 439.267 442.548ZM432.364 416.494H433.757V425.072H432.364V416.494ZM427.659 422.17V420.623H447.359C448.161 420.623 448.817 420.47 449.328 420.163C449.831 419.847 450.206 419.438 450.453 418.936C450.692 418.424 450.811 417.879 450.811 417.299C450.811 417.018 450.79 416.775 450.747 416.57C450.705 416.357 450.649 416.157 450.581 415.97L452 415.586C452.085 415.825 452.158 416.089 452.217 416.379C452.286 416.669 452.32 417.009 452.32 417.401C452.32 418.22 452.136 418.995 451.77 419.728C451.403 420.453 450.871 421.041 450.172 421.492C449.473 421.944 448.629 422.17 447.641 422.17H427.659ZM452.422 405.506C452.422 406.639 452.196 407.679 451.744 408.625C451.293 409.563 450.632 410.317 449.763 410.888C448.893 411.45 447.837 411.732 446.592 411.732C445.774 411.732 445.054 411.587 444.432 411.297C443.81 411.007 443.273 410.56 442.821 409.955C442.369 409.35 441.999 408.574 441.709 407.628C441.411 406.682 441.18 405.553 441.018 404.24C440.899 403.243 440.784 402.352 440.673 401.568C440.554 400.784 440.371 400.171 440.124 399.727C439.876 399.276 439.501 399.05 438.999 399.05H438.18C436.749 399.05 435.611 399.502 434.767 400.405C433.923 401.308 433.501 402.553 433.501 404.138C433.501 405.544 433.812 406.729 434.435 407.692C435.048 408.646 435.841 409.316 436.812 409.699L436.263 411.169C435.325 410.794 434.545 410.253 433.923 409.546C433.301 408.83 432.837 408.012 432.53 407.091C432.223 406.162 432.07 405.191 432.07 404.176C432.07 403.298 432.193 402.463 432.44 401.671C432.688 400.869 433.062 400.158 433.565 399.536C434.068 398.905 434.712 398.406 435.496 398.04C436.271 397.673 437.2 397.49 438.283 397.49H452V399.05H448.459V399.165C449.192 399.506 449.861 399.975 450.466 400.571C451.062 401.159 451.54 401.871 451.898 402.706C452.247 403.533 452.422 404.466 452.422 405.506ZM450.977 405.352C450.977 404.125 450.679 403.039 450.082 402.093C449.477 401.138 448.651 400.392 447.602 399.855C446.554 399.318 445.365 399.05 444.036 399.05H441.146C441.317 399.246 441.47 399.531 441.607 399.906C441.734 400.273 441.849 400.691 441.952 401.159C442.045 401.619 442.131 402.105 442.207 402.617C442.276 403.119 442.339 403.61 442.399 404.087C442.57 405.519 442.834 406.686 443.192 407.59C443.541 408.485 444.001 409.141 444.572 409.558C445.143 409.968 445.834 410.172 446.643 410.172C447.982 410.172 449.038 409.712 449.814 408.791C450.589 407.871 450.977 406.725 450.977 405.352ZM425.818 389.392H452V390.951H425.818V389.392ZM452 367.914L425.818 375.112V373.45L449.533 367.058V366.904L425.818 360.615V358.671L449.533 352.382V352.228L425.818 345.836V344.187L452 351.384V353.225L428.439 359.579V359.72L452 366.073V367.914ZM452.409 334.18C452.409 335.953 451.97 337.496 451.092 338.808C450.214 340.121 449.013 341.135 447.487 341.851C445.962 342.567 444.223 342.925 442.271 342.925C440.311 342.925 438.564 342.567 437.03 341.851C435.496 341.126 434.286 340.133 433.399 338.872C432.513 337.611 432.07 336.17 432.07 334.551C432.07 333.452 432.291 332.412 432.734 331.432C433.169 330.443 433.8 329.574 434.626 328.824C435.453 328.065 436.45 327.473 437.618 327.047C438.786 326.612 440.098 326.395 441.555 326.395H442.527V341.94H441.108V327.954C439.685 327.954 438.402 328.244 437.26 328.824C436.118 329.403 435.21 330.192 434.537 331.189C433.864 332.186 433.527 333.307 433.527 334.551C433.527 335.855 433.893 337.018 434.626 338.041C435.351 339.055 436.331 339.861 437.567 340.457C438.803 341.045 440.183 341.352 441.709 341.378H442.348C443.984 341.378 445.455 341.092 446.759 340.521C448.054 339.942 449.081 339.115 449.839 338.041C450.589 336.967 450.964 335.68 450.964 334.18C450.964 333.106 450.786 332.19 450.428 331.432C450.061 330.665 449.618 330.038 449.098 329.552C448.578 329.067 448.075 328.7 447.589 328.453L448.165 327.034C448.821 327.332 449.477 327.797 450.134 328.427C450.781 329.05 451.322 329.842 451.757 330.805C452.192 331.76 452.409 332.885 452.409 334.18ZM425.818 319.466H452V321.025H425.818V319.466ZM425.818 311.45H452V313.01H425.818V311.45ZM452 304.444H425.818V302.898H436.749V302.744C435.905 302.437 435.129 302.003 434.422 301.44C433.714 300.878 433.148 300.179 432.722 299.344C432.287 298.508 432.07 297.532 432.07 296.416C432.07 294.839 432.509 293.463 433.386 292.287C434.256 291.111 435.457 290.199 436.991 289.551C438.517 288.903 440.264 288.579 442.233 288.579C444.219 288.579 445.979 288.903 447.513 289.551C449.038 290.199 450.236 291.106 451.105 292.274C451.974 293.442 452.409 294.818 452.409 296.403C452.409 297.52 452.196 298.496 451.77 299.331C451.335 300.166 450.764 300.865 450.057 301.427C449.341 301.99 448.561 302.429 447.717 302.744V302.923H452V304.444ZM442.22 302.91C443.891 302.91 445.386 302.659 446.707 302.156C448.02 301.645 449.06 300.912 449.827 299.957C450.585 299.003 450.964 297.861 450.964 296.531C450.964 295.184 450.581 294.034 449.814 293.079C449.038 292.125 447.99 291.396 446.669 290.893C445.348 290.382 443.865 290.126 442.22 290.126C440.575 290.126 439.097 290.382 437.784 290.893C436.472 291.396 435.436 292.125 434.678 293.079C433.911 294.034 433.527 295.184 433.527 296.531C433.527 297.861 433.906 299.003 434.665 299.957C435.415 300.912 436.446 301.645 437.759 302.156C439.062 302.659 440.55 302.91 442.22 302.91ZM452.409 275.54C452.409 277.312 451.97 278.855 451.092 280.167C450.214 281.48 449.013 282.494 447.487 283.21C445.962 283.926 444.223 284.284 442.271 284.284C440.311 284.284 438.564 283.926 437.03 283.21C435.496 282.486 434.286 281.493 433.399 280.231C432.513 278.97 432.07 277.53 432.07 275.91C432.07 274.811 432.291 273.771 432.734 272.791C433.169 271.802 433.8 270.933 434.626 270.183C435.453 269.425 436.45 268.832 437.618 268.406C438.786 267.971 440.098 267.754 441.555 267.754H442.527V283.3H441.108V269.314C439.685 269.314 438.402 269.604 437.26 270.183C436.118 270.763 435.21 271.551 434.537 272.548C433.864 273.545 433.527 274.666 433.527 275.91C433.527 277.214 433.893 278.378 434.626 279.4C435.351 280.415 436.331 281.22 437.567 281.817C438.803 282.405 440.183 282.711 441.709 282.737H442.348C443.984 282.737 445.455 282.452 446.759 281.881C448.054 281.301 449.081 280.474 449.839 279.4C450.589 278.327 450.964 277.04 450.964 275.54C450.964 274.466 450.786 273.55 450.428 272.791C450.061 272.024 449.618 271.398 449.098 270.912C448.578 270.426 448.075 270.059 447.589 269.812L448.165 268.393C448.821 268.692 449.477 269.156 450.134 269.787C450.781 270.409 451.322 271.202 451.757 272.165C452.192 273.119 452.409 274.244 452.409 275.54ZM452 262.308H432.364V260.761H452V262.308ZM428.886 261.528C428.886 261.869 428.767 262.167 428.528 262.423C428.29 262.67 428 262.794 427.659 262.794C427.318 262.794 427.028 262.67 426.79 262.423C426.551 262.176 426.432 261.878 426.432 261.528C426.432 261.187 426.551 260.893 426.79 260.646C427.028 260.39 427.318 260.263 427.659 260.263C428 260.263 428.29 260.386 428.528 260.633C428.767 260.881 428.886 261.179 428.886 261.528ZM439.267 252.669H452V254.229H432.364V252.707H435.47V252.554C434.456 252.094 433.642 251.356 433.028 250.342C432.415 249.328 432.108 248.122 432.108 246.724C432.108 245.403 432.389 244.244 432.952 243.247C433.514 242.241 434.315 241.457 435.355 240.895C436.386 240.324 437.618 240.038 439.05 240.038H452V241.598H439.114C437.443 241.598 436.101 242.096 435.087 243.094C434.064 244.082 433.553 245.39 433.553 247.018C433.553 248.109 433.791 249.081 434.268 249.933C434.746 250.785 435.415 251.454 436.276 251.94C437.128 252.426 438.125 252.669 439.267 252.669ZM459.773 226.474C459.773 227.693 459.611 228.788 459.287 229.76C458.972 230.731 458.52 231.558 457.932 232.24C457.344 232.913 456.645 233.429 455.835 233.787L455.068 232.483C455.699 232.193 456.261 231.78 456.756 231.243C457.25 230.706 457.638 230.041 457.919 229.248C458.2 228.447 458.341 227.523 458.341 226.474C458.341 224.582 457.851 223.086 456.871 221.987C455.899 220.879 454.408 220.325 452.396 220.325H447.513V220.479C448.365 220.777 449.124 221.22 449.788 221.808C450.445 222.388 450.96 223.099 451.335 223.943C451.71 224.787 451.898 225.746 451.898 226.819C451.898 228.371 451.497 229.734 450.696 230.91C449.895 232.086 448.77 233.003 447.321 233.659C445.864 234.315 444.151 234.643 442.182 234.643C440.213 234.643 438.47 234.324 436.953 233.684C435.428 233.037 434.234 232.125 433.374 230.949C432.504 229.773 432.07 228.392 432.07 226.807C432.07 225.673 432.287 224.693 432.722 223.866C433.148 223.031 433.714 222.332 434.422 221.77C435.129 221.207 435.905 220.773 436.749 220.466V220.287H432.364V218.778H452.46C454.097 218.778 455.456 219.102 456.538 219.75C457.621 220.389 458.43 221.288 458.967 222.447C459.504 223.598 459.773 224.94 459.773 226.474ZM450.453 226.679C450.453 225.366 450.121 224.237 449.456 223.291C448.783 222.336 447.828 221.604 446.592 221.092C445.348 220.572 443.874 220.312 442.169 220.312C440.516 220.312 439.037 220.564 437.733 221.067C436.429 221.569 435.402 222.298 434.652 223.253C433.902 224.207 433.527 225.349 433.527 226.679C433.527 228.034 433.911 229.189 434.678 230.143C435.436 231.098 436.467 231.831 437.771 232.342C439.075 232.845 440.541 233.096 442.169 233.096C443.805 233.096 445.246 232.841 446.49 232.329C447.726 231.818 448.697 231.085 449.405 230.131C450.104 229.176 450.453 228.025 450.453 226.679Z" fill="#343A40"/>
<rect x="500" y="500" width="150" height="10" transform="rotate(-90 500 500)" fill="#343A40"/>
<path d="M538.909 474.895C541.611 474.895 543.972 475.363 545.991 476.301C548.003 477.238 549.567 478.542 550.683 480.213C551.8 481.875 552.358 483.792 552.358 485.966C552.358 488.147 551.8 490.074 550.683 491.744C549.558 493.406 547.99 494.706 545.979 495.643C543.959 496.581 541.602 497.049 538.909 497.049C536.207 497.049 533.851 496.581 531.839 495.643C529.828 494.697 528.264 493.393 527.148 491.731C526.023 490.069 525.46 488.147 525.46 485.966C525.46 483.792 526.018 481.875 527.135 480.213C528.251 478.542 529.82 477.238 531.839 476.301C533.851 475.363 536.207 474.895 538.909 474.895ZM538.909 476.454C536.48 476.454 534.375 476.863 532.594 477.681C530.812 478.491 529.436 479.612 528.464 481.044C527.484 482.475 526.994 484.116 526.994 485.966C526.994 487.815 527.48 489.456 528.452 490.887C529.415 492.319 530.791 493.444 532.581 494.262C534.362 495.072 536.472 495.477 538.909 495.477C541.321 495.477 543.422 495.076 545.212 494.275C546.993 493.466 548.374 492.345 549.354 490.913C550.334 489.481 550.824 487.832 550.824 485.966C550.824 484.116 550.338 482.475 549.366 481.044C548.386 479.612 547.006 478.491 545.224 477.681C543.443 476.863 541.338 476.454 538.909 476.454ZM532.364 462.257H533.757V470.836H532.364V462.257ZM527.659 467.934V466.387H547.359C548.161 466.387 548.817 466.233 549.328 465.926C549.831 465.611 550.206 465.202 550.453 464.699C550.692 464.188 550.811 463.642 550.811 463.063C550.811 462.782 550.79 462.539 550.747 462.334C550.705 462.121 550.649 461.921 550.581 461.733L552 461.35C552.085 461.588 552.158 461.853 552.217 462.142C552.286 462.432 552.32 462.773 552.32 463.165C552.32 463.983 552.136 464.759 551.77 465.492C551.403 466.216 550.871 466.804 550.172 467.256C549.473 467.708 548.629 467.934 547.641 467.934H527.659ZM539.267 454.491H552V456.051H525.818V454.491H535.47V454.338C534.447 453.877 533.634 453.145 533.028 452.139C532.415 451.125 532.108 449.91 532.108 448.495C532.108 447.174 532.389 446.011 532.952 445.005C533.506 444 534.303 443.216 535.342 442.653C536.374 442.082 537.609 441.797 539.05 441.797H552V443.343H539.114C537.435 443.343 536.088 443.842 535.074 444.839C534.06 445.836 533.553 447.153 533.553 448.789C533.553 449.889 533.791 450.869 534.268 451.73C534.746 452.591 535.415 453.268 536.276 453.762C537.128 454.248 538.125 454.491 539.267 454.491ZM552.409 427.686C552.409 429.459 551.97 431.001 551.092 432.314C550.214 433.626 549.013 434.641 547.487 435.357C545.962 436.072 544.223 436.43 542.271 436.43C540.311 436.43 538.564 436.072 537.03 435.357C535.496 434.632 534.286 433.639 533.399 432.378C532.513 431.116 532.07 429.676 532.07 428.057C532.07 426.957 532.291 425.918 532.734 424.938C533.169 423.949 533.8 423.08 534.626 422.33C535.453 421.571 536.45 420.979 537.618 420.553C538.786 420.118 540.098 419.901 541.555 419.901H542.527V435.446H541.108V421.46C539.685 421.46 538.402 421.75 537.26 422.33C536.118 422.909 535.21 423.697 534.537 424.695C533.864 425.692 533.527 426.812 533.527 428.057C533.527 429.361 533.893 430.524 534.626 431.547C535.351 432.561 536.331 433.366 537.567 433.963C538.803 434.551 540.183 434.858 541.709 434.884H542.348C543.984 434.884 545.455 434.598 546.759 434.027C548.054 433.447 549.081 432.621 549.839 431.547C550.589 430.473 550.964 429.186 550.964 427.686C550.964 426.612 550.786 425.696 550.428 424.938C550.061 424.17 549.618 423.544 549.098 423.058C548.578 422.572 548.075 422.206 547.589 421.959L548.165 420.54C548.821 420.838 549.477 421.303 550.134 421.933C550.781 422.555 551.322 423.348 551.757 424.311C552.192 425.266 552.409 426.391 552.409 427.686ZM552 414.531H532.364V413.01H535.432V412.869C534.426 412.443 533.621 411.723 533.016 410.709C532.402 409.695 532.095 408.54 532.095 407.244C532.095 407.108 532.095 406.972 532.095 406.835C532.095 406.699 532.099 406.571 532.108 406.452H533.68C533.672 406.554 533.659 406.678 533.642 406.822C533.616 406.959 533.604 407.129 533.604 407.334C533.604 408.425 533.838 409.396 534.307 410.249C534.776 411.092 535.423 411.757 536.25 412.243C537.068 412.729 538.006 412.972 539.062 412.972H552V414.531Z" fill="#343A40"/>
</svg>
