<svg width="563" height="501" viewBox="0 0 563 501" fill="none" xmlns="http://www.w3.org/2000/svg">
<rect y="500" width="100" height="10" transform="rotate(-90 0 500)" fill="#C43739"/>
<path d="M25.8182 495.829V494.091L49.6989 484.004V483.825L25.8182 473.738V472H52V473.534H29.6151V473.687L52 483.16V484.669L29.6151 494.142V494.295H52V495.829H25.8182ZM52.4091 457.685C52.4091 459.304 51.9744 460.744 51.1051 462.006C50.2273 463.267 49.0213 464.26 47.4872 464.984C45.9531 465.709 44.206 466.071 42.2457 466.071C40.277 466.071 38.5298 465.709 37.0043 464.984C35.4702 464.26 34.2642 463.267 33.3864 462.006C32.5085 460.744 32.0696 459.304 32.0696 457.685C32.0696 456.065 32.5085 454.625 33.3864 453.364C34.2642 452.102 35.4702 451.109 37.0043 450.385C38.5384 449.661 40.2855 449.298 42.2457 449.298C44.206 449.298 45.9531 449.661 47.4872 450.385C49.0213 451.109 50.2273 452.102 51.1051 453.364C51.9744 454.625 52.4091 456.065 52.4091 457.685ZM50.9645 457.685C50.9645 456.312 50.5767 455.115 49.8011 454.092C49.0256 453.061 47.9773 452.264 46.6562 451.702C45.3352 451.131 43.8651 450.845 42.2457 450.845C40.6264 450.845 39.1605 451.131 37.848 451.702C36.527 452.273 35.4787 453.07 34.7031 454.092C33.919 455.115 33.527 456.312 33.527 457.685C33.527 459.057 33.919 460.254 34.7031 461.277C35.4787 462.3 36.527 463.097 37.848 463.668C39.1605 464.239 40.6264 464.524 42.2457 464.524C43.8651 464.524 45.3352 464.243 46.6562 463.68C47.9773 463.109 49.0256 462.312 49.8011 461.29C50.5767 460.259 50.9645 459.057 50.9645 457.685ZM39.267 442.366H52V443.926H32.3636V442.404H35.4702V442.251C34.456 441.791 33.642 441.054 33.0284 440.039C32.4148 439.025 32.108 437.819 32.108 436.422C32.108 435.1 32.3892 433.941 32.9517 432.944C33.5142 431.939 34.3153 431.154 35.3551 430.592C36.3864 430.021 37.6179 429.735 39.0497 429.735H52V431.295H39.1136C37.4432 431.295 36.1009 431.794 35.0866 432.791C34.0639 433.779 33.5526 435.088 33.5526 436.716C33.5526 437.806 33.7912 438.778 34.2685 439.63C34.7457 440.483 35.4148 441.152 36.2756 441.637C37.1278 442.123 38.125 442.366 39.267 442.366ZM32.3636 416.312H33.7571V424.89H32.3636V416.312ZM27.6591 421.988V420.441H47.3594C48.1605 420.441 48.8168 420.288 49.3281 419.981C49.831 419.666 50.206 419.257 50.4531 418.754C50.6918 418.243 50.8111 417.697 50.8111 417.118C50.8111 416.836 50.7898 416.593 50.7472 416.389C50.7045 416.176 50.6491 415.975 50.581 415.788L52 415.404C52.0852 415.643 52.1577 415.907 52.2173 416.197C52.2855 416.487 52.3196 416.828 52.3196 417.22C52.3196 418.038 52.1364 418.814 51.7699 419.547C51.4034 420.271 50.8707 420.859 50.1719 421.311C49.473 421.762 48.6293 421.988 47.6406 421.988H27.6591ZM39.267 408.546H52V410.105H25.8182V408.546H35.4702V408.392C34.4474 407.932 33.6335 407.199 33.0284 406.194C32.4148 405.179 32.108 403.965 32.108 402.55C32.108 401.229 32.3892 400.066 32.9517 399.06C33.5057 398.054 34.3026 397.27 35.3423 396.708C36.3736 396.137 37.6094 395.851 39.0497 395.851H52V397.398H39.1136C37.4347 397.398 36.0881 397.897 35.0739 398.894C34.0597 399.891 33.5526 401.208 33.5526 402.844C33.5526 403.944 33.7912 404.924 34.2685 405.784C34.7457 406.645 35.4148 407.323 36.2756 407.817C37.1278 408.303 38.125 408.546 39.267 408.546ZM25.8182 387.839H52V389.398H25.8182V387.839ZM59.3636 380.13C59.3636 380.522 59.321 380.91 59.2358 381.293C59.1506 381.677 59.0398 382.022 58.9034 382.329L57.5355 381.869C57.8423 381.067 57.9531 380.343 57.8679 379.695C57.7827 379.039 57.4844 378.46 56.973 377.957C56.4616 377.454 55.7116 377.028 54.723 376.678L52.2685 375.783L32.3636 382.981V381.306L49.9929 375.067V374.94L32.3636 368.701V367.026L55.3366 375.31C56.223 375.626 56.9645 376.022 57.5611 376.499C58.1577 376.977 58.6051 377.522 58.9034 378.136C59.2102 378.741 59.3636 379.406 59.3636 380.13Z" fill="#343A40"/>
<rect x="100" y="500" width="450" height="10" transform="rotate(-90 100 500)" fill="#0E8F8D"/>
<path d="M152 496.025H125.818V487.523C125.818 485.938 126.099 484.6 126.662 483.509C127.224 482.418 128.013 481.591 129.027 481.029C130.041 480.458 131.222 480.172 132.568 480.172C133.625 480.172 134.562 480.343 135.381 480.684C136.199 481.025 136.876 481.502 137.413 482.115C137.942 482.721 138.308 483.432 138.513 484.25H138.666C138.734 483.347 139.05 482.507 139.612 481.732C140.166 480.956 140.92 480.334 141.875 479.865C142.83 479.388 143.942 479.15 145.212 479.15C146.55 479.15 147.73 479.439 148.753 480.019C149.767 480.59 150.564 481.446 151.143 482.588C151.714 483.73 152 485.145 152 486.833V496.025ZM150.517 494.426V486.833C150.517 484.864 150.023 483.351 149.034 482.294C148.045 481.229 146.771 480.696 145.212 480.696C144.112 480.696 143.128 480.956 142.259 481.476C141.389 481.988 140.703 482.699 140.2 483.611C139.689 484.523 139.433 485.58 139.433 486.782V494.426H150.517ZM137.976 494.426V486.973C137.976 485.857 137.733 484.911 137.247 484.135C136.761 483.351 136.109 482.755 135.291 482.346C134.473 481.928 133.565 481.719 132.568 481.719C130.949 481.719 129.666 482.222 128.72 483.228C127.774 484.233 127.301 485.665 127.301 487.523V494.426H137.976ZM152 473.33H132.364V471.783H152V473.33ZM128.886 472.55C128.886 472.891 128.767 473.189 128.528 473.445C128.29 473.692 128 473.815 127.659 473.815C127.318 473.815 127.028 473.692 126.79 473.445C126.551 473.197 126.432 472.899 126.432 472.55C126.432 472.209 126.551 471.915 126.79 471.668C127.028 471.412 127.318 471.284 127.659 471.284C128 471.284 128.29 471.408 128.528 471.655C128.767 471.902 128.886 472.2 128.886 472.55ZM140.034 455.291H141.517V465.621H140.034V455.291ZM125.818 448.634V446.895L149.699 436.809V436.63L125.818 426.543V424.804H152V426.338H129.615V426.492L152 435.965V437.473L129.615 446.946V447.1H152V448.634H125.818ZM152.409 410.489C152.409 412.109 151.974 413.549 151.105 414.81C150.227 416.072 149.021 417.065 147.487 417.789C145.953 418.513 144.206 418.876 142.246 418.876C140.277 418.876 138.53 418.513 137.004 417.789C135.47 417.065 134.264 416.072 133.386 414.81C132.509 413.549 132.07 412.109 132.07 410.489C132.07 408.87 132.509 407.43 133.386 406.168C134.264 404.907 135.47 403.914 137.004 403.19C138.538 402.465 140.286 402.103 142.246 402.103C144.206 402.103 145.953 402.465 147.487 403.19C149.021 403.914 150.227 404.907 151.105 406.168C151.974 407.43 152.409 408.87 152.409 410.489ZM150.964 410.489C150.964 409.117 150.577 407.92 149.801 406.897C149.026 405.866 147.977 405.069 146.656 404.506C145.335 403.935 143.865 403.65 142.246 403.65C140.626 403.65 139.161 403.935 137.848 404.506C136.527 405.077 135.479 405.874 134.703 406.897C133.919 407.92 133.527 409.117 133.527 410.489C133.527 411.862 133.919 413.059 134.703 414.082C135.479 415.104 136.527 415.901 137.848 416.472C139.161 417.043 140.626 417.329 142.246 417.329C143.865 417.329 145.335 417.048 146.656 416.485C147.977 415.914 149.026 415.117 149.801 414.094C150.577 413.063 150.964 411.862 150.964 410.489ZM139.267 395.171H152V396.73H132.364V395.209H135.47V395.056C134.456 394.596 133.642 393.858 133.028 392.844C132.415 391.83 132.108 390.624 132.108 389.226C132.108 387.905 132.389 386.746 132.952 385.749C133.514 384.743 134.315 383.959 135.355 383.397C136.386 382.826 137.618 382.54 139.05 382.54H152V384.1H139.114C137.443 384.1 136.101 384.598 135.087 385.596C134.064 386.584 133.553 387.892 133.553 389.52C133.553 390.611 133.791 391.583 134.268 392.435C134.746 393.287 135.415 393.956 136.276 394.442C137.128 394.928 138.125 395.171 139.267 395.171ZM132.364 369.117H133.757V377.695H132.364V369.117ZM127.659 374.793V373.246H147.359C148.161 373.246 148.817 373.093 149.328 372.786C149.831 372.471 150.206 372.061 150.453 371.559C150.692 371.047 150.811 370.502 150.811 369.922C150.811 369.641 150.79 369.398 150.747 369.194C150.705 368.98 150.649 368.78 150.581 368.593L152 368.209C152.085 368.448 152.158 368.712 152.217 369.002C152.286 369.292 152.32 369.632 152.32 370.025C152.32 370.843 152.136 371.618 151.77 372.351C151.403 373.076 150.871 373.664 150.172 374.115C149.473 374.567 148.629 374.793 147.641 374.793H127.659ZM139.267 361.35H152V362.91H125.818V361.35H135.47V361.197C134.447 360.737 133.634 360.004 133.028 358.998C132.415 357.984 132.108 356.77 132.108 355.355C132.108 354.034 132.389 352.87 132.952 351.865C133.506 350.859 134.303 350.075 135.342 349.512C136.374 348.941 137.609 348.656 139.05 348.656H152V350.203H139.114C137.435 350.203 136.088 350.701 135.074 351.699C134.06 352.696 133.553 354.012 133.553 355.649C133.553 356.748 133.791 357.728 134.268 358.589C134.746 359.45 135.415 360.127 136.276 360.622C137.128 361.108 138.125 361.35 139.267 361.35ZM125.818 340.643H152V342.203H125.818V340.643ZM159.364 332.935C159.364 333.327 159.321 333.714 159.236 334.098C159.151 334.482 159.04 334.827 158.903 335.134L157.536 334.673C157.842 333.872 157.953 333.148 157.868 332.5C157.783 331.844 157.484 331.264 156.973 330.761C156.462 330.259 155.712 329.832 154.723 329.483L152.268 328.588L132.364 335.786V334.111L149.993 327.872V327.744L132.364 321.506V319.831L155.337 328.115C156.223 328.43 156.964 328.827 157.561 329.304C158.158 329.781 158.605 330.327 158.903 330.94C159.21 331.545 159.364 332.21 159.364 332.935Z" fill="#343A40"/>
<rect x="200" y="500" width="400" height="10" transform="rotate(-90 200 500)" fill="#8D45BA"/>
<path d="M227.301 497.679H225.818V479.334H227.301V487.708H252V489.306H227.301V497.679ZM239.267 472.501H252V474.061H225.818V472.501H235.47V472.347C234.447 471.887 233.634 471.154 233.028 470.149C232.415 469.134 232.108 467.92 232.108 466.505C232.108 465.184 232.389 464.021 232.952 463.015C233.506 462.009 234.303 461.225 235.342 460.663C236.374 460.092 237.609 459.806 239.05 459.806H252V461.353H239.114C237.435 461.353 236.088 461.852 235.074 462.849C234.06 463.846 233.553 465.163 233.553 466.799C233.553 467.899 233.791 468.879 234.268 469.74C234.746 470.6 235.415 471.278 236.276 471.772C237.128 472.258 238.125 472.501 239.267 472.501ZM252 453.354H232.364V451.832H235.432V451.692C234.426 451.265 233.621 450.545 233.016 449.531C232.402 448.517 232.095 447.362 232.095 446.067C232.095 445.93 232.095 445.794 232.095 445.657C232.095 445.521 232.099 445.393 232.108 445.274H233.68C233.672 445.376 233.659 445.5 233.642 445.645C233.616 445.781 233.604 445.952 233.604 446.156C233.604 447.247 233.838 448.219 234.307 449.071C234.776 449.915 235.423 450.579 236.25 451.065C237.068 451.551 238.006 451.794 239.062 451.794H252V453.354ZM252 441.007H232.364V439.46H252V441.007ZM228.886 440.227C228.886 440.568 228.767 440.867 228.528 441.122C228.29 441.369 228 441.493 227.659 441.493C227.318 441.493 227.028 441.369 226.79 441.122C226.551 440.875 226.432 440.577 226.432 440.227C226.432 439.887 226.551 439.593 226.79 439.345C227.028 439.09 227.318 438.962 227.659 438.962C228 438.962 228.29 439.085 228.528 439.333C228.767 439.58 228.886 439.878 228.886 440.227ZM252.409 425.564C252.409 427.235 251.97 428.705 251.092 429.975C250.206 431.244 248.996 432.237 247.462 432.953C245.928 433.661 244.189 434.014 242.246 434.014C240.303 434.014 238.564 433.656 237.03 432.941C235.496 432.225 234.286 431.232 233.399 429.962C232.513 428.692 232.07 427.23 232.07 425.577C232.07 424.333 232.325 423.199 232.837 422.176C233.348 421.145 234.06 420.293 234.972 419.619C235.884 418.938 236.94 418.503 238.142 418.316V419.901C236.812 420.156 235.713 420.796 234.844 421.818C233.966 422.833 233.527 424.081 233.527 425.564C233.527 426.894 233.902 428.078 234.652 429.118C235.393 430.158 236.42 430.976 237.733 431.573C239.037 432.169 240.533 432.468 242.22 432.468C243.882 432.468 245.374 432.178 246.695 431.598C248.007 431.019 249.047 430.209 249.814 429.169C250.581 428.129 250.964 426.928 250.964 425.564C250.964 424.601 250.773 423.723 250.389 422.931C250.006 422.129 249.46 421.46 248.753 420.923C248.045 420.387 247.219 420.033 246.273 419.862V418.277C247.483 418.465 248.548 418.891 249.469 419.556C250.389 420.22 251.109 421.068 251.629 422.1C252.149 423.131 252.409 424.286 252.409 425.564ZM252.409 405.301C252.409 407.074 251.97 408.617 251.092 409.929C250.214 411.242 249.013 412.256 247.487 412.972C245.962 413.688 244.223 414.046 242.271 414.046C240.311 414.046 238.564 413.688 237.03 412.972C235.496 412.247 234.286 411.254 233.399 409.993C232.513 408.732 232.07 407.291 232.07 405.672C232.07 404.573 232.291 403.533 232.734 402.553C233.169 401.564 233.8 400.695 234.626 399.945C235.453 399.186 236.45 398.594 237.618 398.168C238.786 397.733 240.098 397.516 241.555 397.516H242.527V413.061H241.108V399.075C239.685 399.075 238.402 399.365 237.26 399.945C236.118 400.524 235.21 401.313 234.537 402.31C233.864 403.307 233.527 404.428 233.527 405.672C233.527 406.976 233.893 408.139 234.626 409.162C235.351 410.176 236.331 410.982 237.567 411.578C238.803 412.166 240.183 412.473 241.709 412.499H242.348C243.984 412.499 245.455 412.213 246.759 411.642C248.054 411.063 249.081 410.236 249.839 409.162C250.589 408.088 250.964 406.801 250.964 405.301C250.964 404.227 250.786 403.311 250.428 402.553C250.061 401.786 249.618 401.159 249.098 400.673C248.578 400.188 248.075 399.821 247.589 399.574L248.165 398.155C248.821 398.453 249.477 398.918 250.134 399.548C250.781 400.171 251.322 400.963 251.757 401.926C252.192 402.881 252.409 404.006 252.409 405.301ZM225.818 381.472V379.733L249.699 369.646V369.468L225.818 359.381V357.642H252V359.176H229.615V359.33L252 368.803V370.311L229.615 379.784V379.938H252V381.472H225.818ZM252.409 343.327C252.409 344.947 251.974 346.387 251.105 347.648C250.227 348.91 249.021 349.903 247.487 350.627C245.953 351.351 244.206 351.714 242.246 351.714C240.277 351.714 238.53 351.351 237.004 350.627C235.47 349.903 234.264 348.91 233.386 347.648C232.509 346.387 232.07 344.947 232.07 343.327C232.07 341.708 232.509 340.268 233.386 339.006C234.264 337.745 235.47 336.752 237.004 336.028C238.538 335.303 240.286 334.941 242.246 334.941C244.206 334.941 245.953 335.303 247.487 336.028C249.021 336.752 250.227 337.745 251.105 339.006C251.974 340.268 252.409 341.708 252.409 343.327ZM250.964 343.327C250.964 341.955 250.577 340.758 249.801 339.735C249.026 338.704 247.977 337.907 246.656 337.344C245.335 336.773 243.865 336.488 242.246 336.488C240.626 336.488 239.161 336.773 237.848 337.344C236.527 337.915 235.479 338.712 234.703 339.735C233.919 340.758 233.527 341.955 233.527 343.327C233.527 344.699 233.919 345.897 234.703 346.92C235.479 347.942 236.527 348.739 237.848 349.31C239.161 349.881 240.626 350.167 242.246 350.167C243.865 350.167 245.335 349.885 246.656 349.323C247.977 348.752 249.026 347.955 249.801 346.932C250.577 345.901 250.964 344.699 250.964 343.327ZM239.267 328.009H252V329.568H232.364V328.047H235.47V327.894C234.456 327.433 233.642 326.696 233.028 325.682C232.415 324.668 232.108 323.462 232.108 322.064C232.108 320.743 232.389 319.584 232.952 318.587C233.514 317.581 234.315 316.797 235.355 316.235C236.386 315.664 237.618 315.378 239.05 315.378H252V316.938H239.114C237.443 316.938 236.101 317.436 235.087 318.433C234.064 319.422 233.553 320.73 233.553 322.358C233.553 323.449 233.791 324.421 234.268 325.273C234.746 326.125 235.415 326.794 236.276 327.28C237.128 327.766 238.125 328.009 239.267 328.009ZM232.364 301.955H233.757V310.533H232.364V301.955ZM227.659 307.631V306.084H247.359C248.161 306.084 248.817 305.931 249.328 305.624C249.831 305.308 250.206 304.899 250.453 304.396C250.692 303.885 250.811 303.34 250.811 302.76C250.811 302.479 250.79 302.236 250.747 302.031C250.705 301.818 250.649 301.618 250.581 301.431L252 301.047C252.085 301.286 252.158 301.55 252.217 301.84C252.286 302.129 252.32 302.47 252.32 302.862C252.32 303.681 252.136 304.456 251.77 305.189C251.403 305.914 250.871 306.502 250.172 306.953C249.473 307.405 248.629 307.631 247.641 307.631H227.659ZM239.267 294.188H252V295.748H225.818V294.188H235.47V294.035C234.447 293.575 233.634 292.842 233.028 291.836C232.415 290.822 232.108 289.607 232.108 288.193C232.108 286.872 232.389 285.708 232.952 284.703C233.506 283.697 234.303 282.913 235.342 282.35C236.374 281.779 237.609 281.494 239.05 281.494H252V283.041H239.114C237.435 283.041 236.088 283.539 235.074 284.536C234.06 285.534 233.553 286.85 233.553 288.487C233.553 289.586 233.791 290.566 234.268 291.427C234.746 292.288 235.415 292.965 236.276 293.46C237.128 293.945 238.125 294.188 239.267 294.188Z" fill="#343A40"/>
<rect x="300" y="500" width="200" height="10" transform="rotate(-90 300 500)" fill="#FF415B"/>
<path d="M352 495.997H325.818V487.496C325.818 485.911 326.099 484.572 326.662 483.482C327.224 482.391 328.013 481.564 329.027 481.001C330.041 480.43 331.222 480.145 332.568 480.145C333.625 480.145 334.562 480.315 335.381 480.656C336.199 480.997 336.876 481.474 337.413 482.088C337.942 482.693 338.308 483.405 338.513 484.223H338.666C338.734 483.32 339.05 482.48 339.612 481.705C340.166 480.929 340.92 480.307 341.875 479.838C342.83 479.361 343.942 479.122 345.212 479.122C346.55 479.122 347.73 479.412 348.753 479.991C349.767 480.562 350.564 481.419 351.143 482.561C351.714 483.703 352 485.118 352 486.805V495.997ZM350.517 494.399V486.805C350.517 484.837 350.023 483.324 349.034 482.267C348.045 481.202 346.771 480.669 345.212 480.669C344.112 480.669 343.128 480.929 342.259 481.449C341.389 481.96 340.703 482.672 340.2 483.584C339.689 484.496 339.433 485.553 339.433 486.754V494.399H350.517ZM337.976 494.399V486.946C337.976 485.83 337.733 484.884 337.247 484.108C336.761 483.324 336.109 482.727 335.291 482.318C334.473 481.901 333.565 481.692 332.568 481.692C330.949 481.692 329.666 482.195 328.72 483.2C327.774 484.206 327.301 485.638 327.301 487.496V494.399H337.976ZM352 473.302H332.364V471.755H352V473.302ZM328.886 472.522C328.886 472.863 328.767 473.162 328.528 473.417C328.29 473.664 328 473.788 327.659 473.788C327.318 473.788 327.028 473.664 326.79 473.417C326.551 473.17 326.432 472.872 326.432 472.522C326.432 472.181 326.551 471.887 326.79 471.64C327.028 471.385 327.318 471.257 327.659 471.257C328 471.257 328.29 471.38 328.528 471.627C328.767 471.875 328.886 472.173 328.886 472.522ZM340.034 455.264H341.517V465.593H340.034V455.264ZM325.818 454.113V452.221L338.449 443.975V443.797L325.818 435.551V433.659L340.124 443.081H352V444.691H340.124L325.818 454.113ZM352.409 424.413C352.409 426.185 351.97 427.728 351.092 429.04C350.214 430.353 349.013 431.367 347.487 432.083C345.962 432.799 344.223 433.157 342.271 433.157C340.311 433.157 338.564 432.799 337.03 432.083C335.496 431.359 334.286 430.366 333.399 429.104C332.513 427.843 332.07 426.403 332.07 424.783C332.07 423.684 332.291 422.644 332.734 421.664C333.169 420.675 333.8 419.806 334.626 419.056C335.453 418.298 336.45 417.705 337.618 417.279C338.786 416.844 340.098 416.627 341.555 416.627H342.527V432.173H341.108V418.187C339.685 418.187 338.402 418.477 337.26 419.056C336.118 419.636 335.21 420.424 334.537 421.421C333.864 422.418 333.527 423.539 333.527 424.783C333.527 426.087 333.893 427.251 334.626 428.273C335.351 429.288 336.331 430.093 337.567 430.69C338.803 431.278 340.183 431.585 341.709 431.61H342.348C343.984 431.61 345.455 431.325 346.759 430.754C348.054 430.174 349.081 429.347 349.839 428.273C350.589 427.2 350.964 425.913 350.964 424.413C350.964 423.339 350.786 422.423 350.428 421.664C350.061 420.897 349.618 420.271 349.098 419.785C348.578 419.299 348.075 418.933 347.589 418.685L348.165 417.266C348.821 417.565 349.477 418.029 350.134 418.66C350.781 419.282 351.322 420.075 351.757 421.038C352.192 421.992 352.409 423.117 352.409 424.413ZM352.422 406.055C352.422 407.188 352.196 408.228 351.744 409.174C351.293 410.112 350.632 410.866 349.763 411.437C348.893 411.999 347.837 412.281 346.592 412.281C345.774 412.281 345.054 412.136 344.432 411.846C343.81 411.556 343.273 411.109 342.821 410.504C342.369 409.898 341.999 409.123 341.709 408.177C341.411 407.231 341.18 406.102 341.018 404.789C340.899 403.792 340.784 402.901 340.673 402.117C340.554 401.333 340.371 400.719 340.124 400.276C339.876 399.825 339.501 399.599 338.999 399.599H338.18C336.749 399.599 335.611 400.05 334.767 400.954C333.923 401.857 333.501 403.102 333.501 404.687C333.501 406.093 333.812 407.278 334.435 408.241C335.048 409.195 335.841 409.864 336.812 410.248L336.263 411.718C335.325 411.343 334.545 410.802 333.923 410.094C333.301 409.379 332.837 408.56 332.53 407.64C332.223 406.711 332.07 405.739 332.07 404.725C332.07 403.847 332.193 403.012 332.44 402.219C332.688 401.418 333.062 400.707 333.565 400.085C334.068 399.454 334.712 398.955 335.496 398.589C336.271 398.222 337.2 398.039 338.283 398.039H352V399.599H348.459V399.714C349.192 400.055 349.861 400.523 350.466 401.12C351.062 401.708 351.54 402.42 351.898 403.255C352.247 404.082 352.422 405.015 352.422 406.055ZM350.977 405.901C350.977 404.674 350.679 403.587 350.082 402.641C349.477 401.687 348.651 400.941 347.602 400.404C346.554 399.867 345.365 399.599 344.036 399.599H341.146C341.317 399.795 341.47 400.08 341.607 400.455C341.734 400.822 341.849 401.239 341.952 401.708C342.045 402.168 342.131 402.654 342.207 403.165C342.276 403.668 342.339 404.158 342.399 404.636C342.57 406.067 342.834 407.235 343.192 408.138C343.541 409.033 344.001 409.69 344.572 410.107C345.143 410.516 345.834 410.721 346.643 410.721C347.982 410.721 349.038 410.261 349.814 409.34C350.589 408.42 350.977 407.273 350.977 405.901ZM352 391.5H332.364V389.979H335.432V389.838C334.426 389.412 333.621 388.692 333.016 387.678C332.402 386.663 332.095 385.509 332.095 384.213C332.095 384.077 332.095 383.94 332.095 383.804C332.095 383.668 332.099 383.54 332.108 383.42H333.68C333.672 383.523 333.659 383.646 333.642 383.791C333.616 383.928 333.604 384.098 333.604 384.303C333.604 385.393 333.838 386.365 334.307 387.217C334.776 388.061 335.423 388.726 336.25 389.212C337.068 389.697 338.006 389.94 339.062 389.94H352V391.5ZM325.818 377.671H352V379.23H325.818V377.671ZM359.364 369.962C359.364 370.354 359.321 370.742 359.236 371.125C359.151 371.509 359.04 371.854 358.903 372.161L357.536 371.701C357.842 370.9 357.953 370.175 357.868 369.527C357.783 368.871 357.484 368.292 356.973 367.789C356.462 367.286 355.712 366.86 354.723 366.51L352.268 365.615L332.364 372.813V371.138L349.993 364.9V364.772L332.364 358.533V356.858L355.337 365.142C356.223 365.458 356.964 365.854 357.561 366.331C358.158 366.809 358.605 367.354 358.903 367.968C359.21 368.573 359.364 369.238 359.364 369.962Z" fill="#343A40"/>
<rect x="400" y="500" width="400" height="10" transform="rotate(-90 400 500)" fill="#E9CC32" stroke="#E9CC32" stroke-linecap="round" stroke-linejoin="round"/>
<path d="M425.818 498.385V496.493L438.449 488.247V488.068L425.818 479.822V477.93L440.124 487.352H452V488.963H440.124L425.818 498.385ZM452.409 468.684C452.409 470.457 451.97 471.999 451.092 473.312C450.214 474.624 449.013 475.639 447.487 476.355C445.962 477.07 444.223 477.428 442.271 477.428C440.311 477.428 438.564 477.07 437.03 476.355C435.496 475.63 434.286 474.637 433.399 473.376C432.513 472.115 432.07 470.674 432.07 469.055C432.07 467.955 432.291 466.916 432.734 465.936C433.169 464.947 433.8 464.078 434.626 463.328C435.453 462.569 436.45 461.977 437.618 461.551C438.786 461.116 440.098 460.899 441.555 460.899H442.527V476.444H441.108V462.458C439.685 462.458 438.402 462.748 437.26 463.328C436.118 463.907 435.21 464.695 434.537 465.693C433.864 466.69 433.527 467.811 433.527 469.055C433.527 470.359 433.893 471.522 434.626 472.545C435.351 473.559 436.331 474.365 437.567 474.961C438.803 475.549 440.183 475.856 441.709 475.882H442.348C443.984 475.882 445.455 475.596 446.759 475.025C448.054 474.445 449.081 473.619 449.839 472.545C450.589 471.471 450.964 470.184 450.964 468.684C450.964 467.61 450.786 466.694 450.428 465.936C450.061 465.169 449.618 464.542 449.098 464.056C448.578 463.57 448.075 463.204 447.589 462.957L448.165 461.538C448.821 461.836 449.477 462.301 450.134 462.931C450.781 463.553 451.322 464.346 451.757 465.309C452.192 466.264 452.409 467.389 452.409 468.684ZM452.422 450.326C452.422 451.46 452.196 452.499 451.744 453.445C451.293 454.383 450.632 455.137 449.763 455.708C448.893 456.271 447.837 456.552 446.592 456.552C445.774 456.552 445.054 456.407 444.432 456.117C443.81 455.828 443.273 455.38 442.821 454.775C442.369 454.17 441.999 453.394 441.709 452.448C441.411 451.502 441.18 450.373 441.018 449.061C440.899 448.063 440.784 447.173 440.673 446.389C440.554 445.605 440.371 444.991 440.124 444.548C439.876 444.096 439.501 443.87 438.999 443.87H438.18C436.749 443.87 435.611 444.322 434.767 445.225C433.923 446.129 433.501 447.373 433.501 448.958C433.501 450.365 433.812 451.549 434.435 452.512C435.048 453.467 435.841 454.136 436.812 454.519L436.263 455.99C435.325 455.615 434.545 455.073 433.923 454.366C433.301 453.65 432.837 452.832 432.53 451.911C432.223 450.982 432.07 450.011 432.07 448.997C432.07 448.119 432.193 447.284 432.44 446.491C432.688 445.69 433.062 444.978 433.565 444.356C434.068 443.725 434.712 443.227 435.496 442.86C436.271 442.494 437.2 442.311 438.283 442.311H452V443.87H448.459V443.985C449.192 444.326 449.861 444.795 450.466 445.392C451.062 445.98 451.54 446.691 451.898 447.526C452.247 448.353 452.422 449.286 452.422 450.326ZM450.977 450.173C450.977 448.945 450.679 447.859 450.082 446.913C449.477 445.958 448.651 445.213 447.602 444.676C446.554 444.139 445.365 443.87 444.036 443.87H441.146C441.317 444.066 441.47 444.352 441.607 444.727C441.734 445.093 441.849 445.511 441.952 445.98C442.045 446.44 442.131 446.926 442.207 447.437C442.276 447.94 442.339 448.43 442.399 448.907C442.57 450.339 442.834 451.507 443.192 452.41C443.541 453.305 444.001 453.961 444.572 454.379C445.143 454.788 445.834 454.992 446.643 454.992C447.982 454.992 449.038 454.532 449.814 453.612C450.589 452.691 450.977 451.545 450.977 450.173ZM452 435.771H432.364V434.25H435.432V434.11C434.426 433.683 433.621 432.963 433.016 431.949C432.402 430.935 432.095 429.78 432.095 428.485C432.095 428.348 432.095 428.212 432.095 428.075C432.095 427.939 432.099 427.811 432.108 427.692H433.68C433.672 427.794 433.659 427.918 433.642 428.063C433.616 428.199 433.604 428.369 433.604 428.574C433.604 429.665 433.838 430.637 434.307 431.489C434.776 432.333 435.423 432.997 436.25 433.483C437.068 433.969 438.006 434.212 439.062 434.212H452V435.771ZM425.818 421.942H452V423.502H425.818V421.942ZM459.364 414.233C459.364 414.626 459.321 415.013 459.236 415.397C459.151 415.78 459.04 416.126 458.903 416.432L457.536 415.972C457.842 415.171 457.953 414.447 457.868 413.799C457.783 413.143 457.484 412.563 456.973 412.06C456.462 411.557 455.712 411.131 454.723 410.782L452.268 409.887L432.364 417.084V415.41L449.993 409.171V409.043L432.364 402.805V401.13L455.337 409.414C456.223 409.729 456.964 410.126 457.561 410.603C458.158 411.08 458.605 411.626 458.903 412.239C459.21 412.844 459.364 413.509 459.364 414.233Z" fill="#343A40"/>
<rect x="500" y="500" width="450" height="10" transform="rotate(-90 500 500)" fill="#343A40"/>
<path d="M552 491.643L525.818 498.84V497.178L549.533 490.786V490.633L525.818 484.343V482.4L549.533 476.11V475.957L525.818 469.565V467.915L552 475.113V476.954L528.439 483.308V483.448L552 489.802V491.643ZM539.267 462.179H552V463.738H525.818V462.179H535.47V462.025C534.447 461.565 533.634 460.832 533.028 459.826C532.415 458.812 532.108 457.598 532.108 456.183C532.108 454.862 532.389 453.699 532.952 452.693C533.506 451.687 534.303 450.903 535.342 450.341C536.374 449.77 537.609 449.484 539.05 449.484H552V451.031H539.114C537.435 451.031 536.088 451.529 535.074 452.527C534.06 453.524 533.553 454.841 533.553 456.477C533.553 457.576 533.791 458.556 534.268 459.417C534.746 460.278 535.415 460.956 536.276 461.45C537.128 461.936 538.125 462.179 539.267 462.179ZM552.409 435.374C552.409 437.146 551.97 438.689 551.092 440.001C550.214 441.314 549.013 442.328 547.487 443.044C545.962 443.76 544.223 444.118 542.271 444.118C540.311 444.118 538.564 443.76 537.03 443.044C535.496 442.32 534.286 441.327 533.399 440.065C532.513 438.804 532.07 437.364 532.07 435.744C532.07 434.645 532.291 433.605 532.734 432.625C533.169 431.636 533.8 430.767 534.626 430.017C535.453 429.259 536.45 428.666 537.618 428.24C538.786 427.805 540.098 427.588 541.555 427.588H542.527V443.134H541.108V429.148C539.685 429.148 538.402 429.437 537.26 430.017C536.118 430.597 535.21 431.385 534.537 432.382C533.864 433.379 533.527 434.5 533.527 435.744C533.527 437.048 533.893 438.212 534.626 439.234C535.351 440.249 536.331 441.054 537.567 441.651C538.803 442.239 540.183 442.545 541.709 442.571H542.348C543.984 442.571 545.455 442.286 546.759 441.714C548.054 441.135 549.081 440.308 549.839 439.234C550.589 438.161 550.964 436.874 550.964 435.374C550.964 434.3 550.786 433.384 550.428 432.625C550.061 431.858 549.618 431.232 549.098 430.746C548.578 430.26 548.075 429.893 547.589 429.646L548.165 428.227C548.821 428.526 549.477 428.99 550.134 429.621C550.781 430.243 551.322 431.036 551.757 431.999C552.192 432.953 552.409 434.078 552.409 435.374ZM539.267 420.659H552V422.219H532.364V420.697H535.47V420.544C534.456 420.084 533.642 419.347 533.028 418.332C532.415 417.318 532.108 416.112 532.108 414.714C532.108 413.393 532.389 412.234 532.952 411.237C533.514 410.232 534.315 409.447 535.355 408.885C536.386 408.314 537.618 408.028 539.05 408.028H552V409.588H539.114C537.443 409.588 536.101 410.087 535.087 411.084C534.064 412.072 533.553 413.381 533.553 415.009C533.553 416.099 533.791 417.071 534.268 417.923C534.746 418.776 535.415 419.445 536.276 419.93C537.128 420.416 538.125 420.659 539.267 420.659ZM525.818 373.141V371.543H543.153C544.935 371.543 546.524 371.956 547.922 372.783C549.311 373.609 550.411 374.751 551.22 376.209C552.021 377.658 552.422 379.324 552.422 381.207C552.422 383.082 552.021 384.749 551.22 386.206C550.411 387.663 549.307 388.81 547.909 389.645C546.511 390.472 544.926 390.881 543.153 390.872H525.818V389.274H543.064C544.572 389.274 545.915 388.933 547.091 388.251C548.267 387.561 549.196 386.611 549.878 385.401C550.551 384.19 550.888 382.793 550.888 381.207C550.888 379.622 550.551 378.224 549.878 377.014C549.196 375.804 548.267 374.858 547.091 374.176C545.915 373.486 544.572 373.141 543.064 373.141H525.818ZM539.267 362.968H552V364.527H532.364V363.006H535.47V362.853C534.456 362.392 533.642 361.655 533.028 360.641C532.415 359.627 532.108 358.421 532.108 357.023C532.108 355.702 532.389 354.543 532.952 353.546C533.514 352.54 534.315 351.756 535.355 351.194C536.386 350.623 537.618 350.337 539.05 350.337H552V351.897H539.114C537.443 351.897 536.101 352.395 535.087 353.392C534.064 354.381 533.553 355.689 533.553 357.317C533.553 358.408 533.791 359.38 534.268 360.232C534.746 361.084 535.415 361.753 536.276 362.239C537.128 362.725 538.125 362.968 539.267 362.968ZM552 339.573L532.364 345.453V343.817L549.712 338.755V338.614L532.364 333.539V331.915L549.699 326.853V326.725L532.364 321.662V320.026L552 325.907V327.645L534.908 332.657V332.823L552 337.834V339.573ZM552.409 308.178C552.409 309.951 551.97 311.494 551.092 312.806C550.214 314.119 549.013 315.133 547.487 315.849C545.962 316.565 544.223 316.923 542.271 316.923C540.311 316.923 538.564 316.565 537.03 315.849C535.496 315.124 534.286 314.131 533.399 312.87C532.513 311.609 532.07 310.168 532.07 308.549C532.07 307.45 532.291 306.41 532.734 305.43C533.169 304.441 533.8 303.572 534.626 302.822C535.453 302.063 536.45 301.471 537.618 301.045C538.786 300.61 540.098 300.393 541.555 300.393H542.527V315.938H541.108V301.952C539.685 301.952 538.402 302.242 537.26 302.822C536.118 303.401 535.21 304.19 534.537 305.187C533.864 306.184 533.527 307.305 533.527 308.549C533.527 309.853 533.893 311.016 534.626 312.039C535.351 313.053 536.331 313.859 537.567 314.455C538.803 315.043 540.183 315.35 541.709 315.376H542.348C543.984 315.376 545.455 315.09 546.759 314.519C548.054 313.94 549.081 313.113 549.839 312.039C550.589 310.965 550.964 309.678 550.964 308.178C550.964 307.104 550.786 306.188 550.428 305.43C550.061 304.663 549.618 304.036 549.098 303.55C548.578 303.065 548.075 302.698 547.589 302.451L548.165 301.032C548.821 301.33 549.477 301.795 550.134 302.425C550.781 303.048 551.322 303.84 551.757 304.803C552.192 305.758 552.409 306.883 552.409 308.178ZM525.818 293.464H552V295.023H525.818V293.464ZM525.818 285.448H552V287.008H525.818V285.448Z" fill="#343A40"/>
</svg>
