<svg width="563" height="500" viewBox="0 0 563 500" fill="none" xmlns="http://www.w3.org/2000/svg">
<rect y="500" width="400" height="10" transform="rotate(-90 0 500)" fill="#C43739"/>
<path d="M52 496.179H25.8182V488.112C25.8182 486.45 26.1591 485.027 26.8409 483.842C27.5227 482.649 28.456 481.733 29.6406 481.094C30.8253 480.454 32.1761 480.135 33.6932 480.135C35.1932 480.135 36.5355 480.454 37.7202 481.094C38.9048 481.733 39.8423 482.649 40.5327 483.842C41.2145 485.027 41.5554 486.446 41.5554 488.099V495.054H40.0724V488.138C40.0724 486.791 39.7997 485.64 39.2543 484.686C38.7003 483.731 37.946 482.998 36.9915 482.487C36.0284 481.976 34.929 481.72 33.6932 481.72C32.4489 481.72 31.3452 481.976 30.3821 482.487C29.419 482.998 28.6648 483.736 28.1193 484.699C27.5739 485.653 27.3011 486.804 27.3011 488.15V494.581H52V496.179ZM52.4219 469.342C52.4219 470.475 52.196 471.515 51.7443 472.461C51.2926 473.399 50.6321 474.153 49.7628 474.724C48.8935 475.286 47.8366 475.568 46.5923 475.568C45.7741 475.568 45.054 475.423 44.4318 475.133C43.8097 474.843 43.2727 474.396 42.821 473.791C42.3693 473.186 41.9986 472.41 41.7088 471.464C41.4105 470.518 41.1804 469.389 41.0185 468.076C40.8991 467.079 40.7841 466.188 40.6733 465.404C40.554 464.62 40.3707 464.007 40.1236 463.563C39.8764 463.112 39.5014 462.886 38.9986 462.886H38.1804C36.7486 462.886 35.6108 463.338 34.767 464.241C33.9233 465.144 33.5014 466.389 33.5014 467.974C33.5014 469.38 33.8125 470.565 34.4347 471.528C35.0483 472.482 35.8409 473.151 36.8125 473.535L36.2628 475.005C35.3253 474.63 34.5455 474.089 33.9233 473.382C33.3011 472.666 32.8366 471.847 32.5298 470.927C32.223 469.998 32.0696 469.026 32.0696 468.012C32.0696 467.134 32.1932 466.299 32.4403 465.507C32.6875 464.705 33.0625 463.994 33.5653 463.372C34.0682 462.741 34.7116 462.242 35.4957 461.876C36.2713 461.509 37.2003 461.326 38.2827 461.326H52V462.886H48.4588V463.001C49.1918 463.342 49.8608 463.811 50.4659 464.407C51.0625 464.995 51.5398 465.707 51.8977 466.542C52.2472 467.369 52.4219 468.302 52.4219 469.342ZM50.9773 469.188C50.9773 467.961 50.679 466.874 50.0824 465.928C49.4773 464.974 48.6506 464.228 47.6023 463.691C46.554 463.154 45.3651 462.886 44.0355 462.886H41.1463C41.3168 463.082 41.4702 463.367 41.6065 463.742C41.7344 464.109 41.8494 464.526 41.9517 464.995C42.0455 465.455 42.1307 465.941 42.2074 466.453C42.2756 466.955 42.3395 467.445 42.3991 467.923C42.5696 469.355 42.8338 470.522 43.1918 471.426C43.5412 472.32 44.0014 472.977 44.5724 473.394C45.1435 473.803 45.8338 474.008 46.6435 474.008C47.9815 474.008 49.0384 473.548 49.8139 472.627C50.5895 471.707 50.9773 470.561 50.9773 469.188ZM52 454.787H32.3636V453.266H35.4318V453.125C34.4261 452.699 33.6207 451.979 33.0156 450.965C32.402 449.95 32.0952 448.796 32.0952 447.5C32.0952 447.364 32.0952 447.227 32.0952 447.091C32.0952 446.955 32.0994 446.827 32.108 446.708H33.6804C33.6719 446.81 33.6591 446.933 33.642 447.078C33.6165 447.215 33.6037 447.385 33.6037 447.59C33.6037 448.681 33.8381 449.652 34.3068 450.504C34.7756 451.348 35.4233 452.013 36.25 452.499C37.0682 452.985 38.0057 453.227 39.0625 453.227H52V454.787ZM52.4091 435.458C52.4091 437.23 51.9702 438.773 51.0923 440.085C50.2145 441.398 49.0128 442.412 47.4872 443.128C45.9616 443.844 44.223 444.202 42.2713 444.202C40.3111 444.202 38.5639 443.844 37.0298 443.128C35.4957 442.404 34.2855 441.411 33.3991 440.149C32.5128 438.888 32.0696 437.448 32.0696 435.828C32.0696 434.729 32.2912 433.689 32.7344 432.709C33.169 431.72 33.7997 430.851 34.6264 430.101C35.4531 429.343 36.4503 428.75 37.6179 428.324C38.7855 427.889 40.098 427.672 41.5554 427.672H42.527V443.218H41.108V429.232C39.6847 429.232 38.402 429.521 37.2599 430.101C36.1179 430.681 35.2102 431.469 34.5369 432.466C33.8636 433.463 33.527 434.584 33.527 435.828C33.527 437.132 33.8935 438.296 34.6264 439.318C35.3509 440.333 36.331 441.138 37.5668 441.735C38.8026 442.323 40.1832 442.629 41.7088 442.655H42.348C43.9844 442.655 45.4545 442.369 46.7585 441.798C48.054 441.219 49.081 440.392 49.8395 439.318C50.5895 438.244 50.9645 436.958 50.9645 435.458C50.9645 434.384 50.7855 433.468 50.4276 432.709C50.0611 431.942 49.6179 431.316 49.098 430.83C48.5781 430.344 48.0753 429.977 47.5895 429.73L48.1648 428.311C48.821 428.61 49.4773 429.074 50.1335 429.705C50.7812 430.327 51.3224 431.119 51.7571 432.083C52.1918 433.037 52.4091 434.162 52.4091 435.458ZM39.267 420.743H52V422.303H32.3636V420.781H35.4702V420.628C34.456 420.168 33.642 419.431 33.0284 418.416C32.4148 417.402 32.108 416.196 32.108 414.798C32.108 413.477 32.3892 412.318 32.9517 411.321C33.5142 410.316 34.3153 409.531 35.3551 408.969C36.3864 408.398 37.6179 408.112 39.0497 408.112H52V409.672H39.1136C37.4432 409.672 36.1009 410.171 35.0866 411.168C34.0639 412.156 33.5526 413.465 33.5526 415.093C33.5526 416.183 33.7912 417.155 34.2685 418.007C34.7457 418.86 35.4148 419.529 36.2756 420.014C37.1278 420.5 38.125 420.743 39.267 420.743ZM32.3636 394.689H33.7571V403.267H32.3636V394.689ZM27.6591 400.365V398.818H47.3594C48.1605 398.818 48.8168 398.665 49.3281 398.358C49.831 398.043 50.206 397.634 50.4531 397.131C50.6918 396.619 50.8111 396.074 50.8111 395.494C50.8111 395.213 50.7898 394.97 50.7472 394.766C50.7045 394.553 50.6491 394.352 50.581 394.165L52 393.781C52.0852 394.02 52.1577 394.284 52.2173 394.574C52.2855 394.864 52.3196 395.205 52.3196 395.597C52.3196 396.415 52.1364 397.191 51.7699 397.923C51.4034 398.648 50.8707 399.236 50.1719 399.688C49.473 400.139 48.6293 400.365 47.6406 400.365H27.6591ZM36.5952 376.779L36.9787 378.223C36.2628 378.453 35.6449 378.781 35.125 379.208C34.6051 379.634 34.2045 380.171 33.9233 380.818C33.6335 381.458 33.4886 382.225 33.4886 383.119C33.4886 384.56 33.8466 385.74 34.5625 386.661C35.2784 387.573 36.2116 388.029 37.3622 388.029C38.2997 388.029 39.0753 387.718 39.6889 387.095C40.294 386.473 40.7543 385.523 41.0696 384.244L41.8239 381.227C42.2074 379.676 42.8295 378.509 43.6903 377.725C44.5426 376.941 45.6037 376.548 46.8736 376.548C47.956 376.548 48.9148 376.843 49.75 377.431C50.5852 378.019 51.2372 378.833 51.706 379.872C52.1747 380.904 52.4091 382.105 52.4091 383.477C52.4091 385.31 51.983 386.814 51.1307 387.99C50.2699 389.166 49.0384 389.921 47.4361 390.253L47.0526 388.757C48.331 388.476 49.3068 387.892 49.9801 387.006C50.6449 386.111 50.9773 384.939 50.9773 383.49C50.9773 381.888 50.598 380.597 49.8395 379.617C49.081 378.628 48.1094 378.134 46.9247 378.134C46.0213 378.134 45.2585 378.423 44.6364 379.003C44.0142 379.583 43.5582 380.46 43.2685 381.637L42.5014 384.769C42.1094 386.371 41.483 387.573 40.6222 388.374C39.7528 389.175 38.6832 389.575 37.4134 389.575C36.3565 389.575 35.4276 389.298 34.6264 388.744C33.8253 388.191 33.1989 387.428 32.7472 386.456C32.2955 385.485 32.0696 384.372 32.0696 383.119C32.0696 381.458 32.4616 380.102 33.2457 379.054C34.0298 378.006 35.1463 377.247 36.5952 376.779ZM38.9091 339.65C41.6108 339.65 43.9716 340.119 45.9915 341.057C48.0028 341.994 49.5668 343.298 50.6832 344.969C51.7997 346.631 52.358 348.548 52.358 350.721C52.358 352.903 51.7997 354.829 50.6832 356.5C49.5582 358.162 47.9901 359.461 45.9787 360.399C43.9588 361.336 41.6023 361.805 38.9091 361.805C36.2074 361.805 33.8509 361.336 31.8395 360.399C29.8281 359.453 28.2642 358.149 27.1477 356.487C26.0227 354.825 25.4602 352.903 25.4602 350.721C25.4602 348.548 26.0185 346.631 27.1349 344.969C28.2514 343.298 29.8196 341.994 31.8395 341.057C33.8509 340.119 36.2074 339.65 38.9091 339.65ZM38.9091 341.21C36.4801 341.21 34.375 341.619 32.5938 342.437C30.8125 343.247 29.4361 344.368 28.4645 345.8C27.4844 347.231 26.9943 348.872 26.9943 350.721C26.9943 352.571 27.4801 354.211 28.4517 355.643C29.4148 357.075 30.7912 358.2 32.581 359.018C34.3622 359.828 36.4716 360.233 38.9091 360.233C41.321 360.233 43.4219 359.832 45.2116 359.031C46.9929 358.221 48.3736 357.101 49.3537 355.669C50.3338 354.237 50.8239 352.588 50.8239 350.721C50.8239 348.872 50.3381 347.231 49.3665 345.8C48.3864 344.368 47.0057 343.247 45.2244 342.437C43.4432 341.619 41.3381 341.21 38.9091 341.21ZM52 333.955H32.3636V332.434H35.4318V332.293C34.4261 331.867 33.6207 331.147 33.0156 330.133C32.402 329.118 32.0952 327.964 32.0952 326.668C32.0952 326.532 32.0952 326.395 32.0952 326.259C32.0952 326.123 32.0994 325.995 32.108 325.876H33.6804C33.6719 325.978 33.6591 326.101 33.642 326.246C33.6165 326.383 33.6037 326.553 33.6037 326.758C33.6037 327.849 33.8381 328.82 34.3068 329.672C34.7756 330.516 35.4233 331.181 36.25 331.667C37.0682 332.153 38.0057 332.395 39.0625 332.395H52V333.955ZM32.3636 296.897C30.7358 297.034 29.419 297.698 28.4134 298.892C27.4077 300.076 26.9048 301.61 26.9048 303.494C26.9048 304.764 27.1392 305.893 27.608 306.882C28.0767 307.87 28.7159 308.646 29.5256 309.208C30.3352 309.771 31.2642 310.052 32.3125 310.052C32.9858 310.052 33.5952 309.924 34.1406 309.669C34.6776 309.404 35.1591 309.034 35.5852 308.556C36.0028 308.079 36.3693 307.512 36.6847 306.856C37 306.2 37.277 305.475 37.5156 304.683L38.3594 301.819C38.6577 300.839 39.0028 299.936 39.3949 299.109C39.7869 298.274 40.2557 297.549 40.8011 296.936C41.3381 296.313 41.9687 295.832 42.6932 295.491C43.4176 295.142 44.2528 294.967 45.1989 294.967C46.5795 294.967 47.8153 295.325 48.9063 296.041C49.9972 296.748 50.858 297.758 51.4886 299.07C52.1108 300.374 52.4219 301.913 52.4219 303.686C52.4219 305.373 52.1364 306.843 51.5653 308.096C50.9943 309.34 50.2017 310.325 49.1875 311.049C48.1648 311.774 46.9886 312.183 45.6591 312.276V310.64C46.7415 310.555 47.679 310.21 48.4716 309.605C49.2557 308.991 49.8608 308.177 50.2869 307.163C50.7131 306.149 50.9261 304.99 50.9261 303.686C50.9261 302.279 50.6875 301.039 50.2102 299.965C49.7244 298.892 49.0511 298.052 48.1903 297.447C47.3295 296.842 46.3281 296.539 45.1861 296.539C44.2656 296.539 43.4773 296.757 42.821 297.191C42.1648 297.626 41.598 298.269 41.1207 299.122C40.6435 299.965 40.2173 301.014 39.8423 302.267L38.9219 305.322C38.2997 307.367 37.4517 308.931 36.3778 310.014C35.304 311.088 33.9659 311.624 32.3636 311.624C31.017 311.624 29.8239 311.267 28.7841 310.551C27.7358 309.835 26.9134 308.863 26.3168 307.636C25.7202 306.4 25.4219 305.007 25.4219 303.455C25.4219 301.896 25.7244 300.519 26.3295 299.326C26.9261 298.133 27.7486 297.187 28.7969 296.488C29.8366 295.789 31.0256 295.401 32.3636 295.325V296.897ZM52 289.124H32.3636V287.578H52V289.124ZM28.8864 288.345C28.8864 288.686 28.767 288.984 28.5284 289.24C28.2898 289.487 28 289.61 27.6591 289.61C27.3182 289.61 27.0284 289.487 26.7898 289.24C26.5511 288.992 26.4318 288.694 26.4318 288.345C26.4318 288.004 26.5511 287.71 26.7898 287.463C27.0284 287.207 27.3182 287.079 27.6591 287.079C28 287.079 28.2898 287.203 28.5284 287.45C28.767 287.697 28.8864 287.995 28.8864 288.345ZM52 280.495H25.8182V278.948H36.7486V278.795C35.9048 278.488 35.1293 278.053 34.4219 277.491C33.7145 276.928 33.1477 276.23 32.7216 275.394C32.2869 274.559 32.0696 273.583 32.0696 272.467C32.0696 270.89 32.5085 269.514 33.3864 268.338C34.2557 267.161 35.4574 266.249 36.9915 265.602C38.517 264.954 40.2642 264.63 42.233 264.63C44.2188 264.63 45.9787 264.954 47.5128 265.602C49.0384 266.249 50.2358 267.157 51.1051 268.325C51.9744 269.492 52.4091 270.869 52.4091 272.454C52.4091 273.57 52.196 274.546 51.7699 275.382C51.3352 276.217 50.7642 276.916 50.0568 277.478C49.3409 278.041 48.5611 278.48 47.7173 278.795V278.974H52V280.495ZM42.2202 278.961C43.8906 278.961 45.3864 278.71 46.7074 278.207C48.0199 277.695 49.0597 276.963 49.8267 276.008C50.5852 275.053 50.9645 273.911 50.9645 272.582C50.9645 271.235 50.581 270.085 49.8139 269.13C49.0384 268.176 47.9901 267.447 46.669 266.944C45.348 266.433 43.8651 266.177 42.2202 266.177C40.5753 266.177 39.0966 266.433 37.7841 266.944C36.4716 267.447 35.4361 268.176 34.6776 269.13C33.9105 270.085 33.527 271.235 33.527 272.582C33.527 273.911 33.9062 275.053 34.6648 276.008C35.4148 276.963 36.446 277.695 37.7585 278.207C39.0625 278.71 40.5497 278.961 42.2202 278.961ZM52 259.171H32.3636V257.624H52V259.171ZM28.8864 258.392C28.8864 258.732 28.767 259.031 28.5284 259.286C28.2898 259.534 28 259.657 27.6591 259.657C27.3182 259.657 27.0284 259.534 26.7898 259.286C26.5511 259.039 26.4318 258.741 26.4318 258.392C26.4318 258.051 26.5511 257.757 26.7898 257.509C27.0284 257.254 27.3182 257.126 27.6591 257.126C28 257.126 28.2898 257.249 28.5284 257.497C28.767 257.744 28.8864 258.042 28.8864 258.392ZM25.8182 249.532H52V251.092H25.8182V249.532ZM52 242.999H32.3636V241.453H52V242.999ZM28.8864 242.22C28.8864 242.561 28.767 242.859 28.5284 243.115C28.2898 243.362 28 243.485 27.6591 243.485C27.3182 243.485 27.0284 243.362 26.7898 243.115C26.5511 242.867 26.4318 242.569 26.4318 242.22C26.4318 241.879 26.5511 241.585 26.7898 241.338C27.0284 241.082 27.3182 240.954 27.6591 240.954C28 240.954 28.2898 241.078 28.5284 241.325C28.767 241.572 28.8864 241.87 28.8864 242.22ZM39.267 233.36H52V234.92H32.3636V233.399H35.4702V233.245C34.456 232.785 33.642 232.048 33.0284 231.034C32.4148 230.019 32.108 228.813 32.108 227.416C32.108 226.095 32.3892 224.936 32.9517 223.938C33.5142 222.933 34.3153 222.149 35.3551 221.586C36.3864 221.015 37.6179 220.73 39.0497 220.73H52V222.289H39.1136C37.4432 222.289 36.1009 222.788 35.0866 223.785C34.0639 224.774 33.5526 226.082 33.5526 227.71C33.5526 228.801 33.7912 229.772 34.2685 230.624C34.7457 231.477 35.4148 232.146 36.2756 232.632C37.1278 233.117 38.125 233.36 39.267 233.36ZM59.7727 207.166C59.7727 208.384 59.6108 209.48 59.2869 210.451C58.9716 211.423 58.5199 212.249 57.9318 212.931C57.3438 213.605 56.6449 214.12 55.8352 214.478L55.0682 213.174C55.6989 212.884 56.2614 212.471 56.7557 211.934C57.25 211.397 57.6378 210.732 57.919 209.94C58.2003 209.139 58.3409 208.214 58.3409 207.166C58.3409 205.274 57.8509 203.778 56.8707 202.678C55.8991 201.57 54.4077 201.017 52.3963 201.017H47.5128V201.17C48.3651 201.468 49.1236 201.911 49.7884 202.499C50.4446 203.079 50.9602 203.791 51.3352 204.634C51.7102 205.478 51.8977 206.437 51.8977 207.511C51.8977 209.062 51.4972 210.426 50.696 211.602C49.8949 212.778 48.7699 213.694 47.321 214.35C45.8636 215.007 44.1506 215.335 42.1818 215.335C40.2131 215.335 38.4702 215.015 36.9531 214.376C35.4276 213.728 34.2344 212.816 33.3736 211.64C32.5043 210.464 32.0696 209.083 32.0696 207.498C32.0696 206.365 32.2869 205.384 32.7216 204.558C33.1477 203.722 33.7145 203.024 34.4219 202.461C35.1293 201.899 35.9048 201.464 36.7486 201.157V200.978H32.3636V199.47H52.4602C54.0966 199.47 55.456 199.794 56.5384 200.441C57.6207 201.08 58.4304 201.98 58.9673 203.139C59.5043 204.289 59.7727 205.632 59.7727 207.166ZM50.4531 207.37C50.4531 206.058 50.1207 204.928 49.456 203.982C48.7827 203.028 47.8281 202.295 46.5923 201.784C45.348 201.264 43.8736 201.004 42.169 201.004C40.5156 201.004 39.0369 201.255 37.733 201.758C36.429 202.261 35.402 202.99 34.652 203.944C33.902 204.899 33.527 206.041 33.527 207.37C33.527 208.725 33.9105 209.88 34.6776 210.835C35.4361 211.789 36.4673 212.522 37.7713 213.034C39.0753 213.536 40.5412 213.788 42.169 213.788C43.8054 213.788 45.2457 213.532 46.4901 213.021C47.7259 212.509 48.6974 211.776 49.4048 210.822C50.1037 209.867 50.4531 208.717 50.4531 207.37ZM36.5952 180.431L36.9787 181.876C36.2628 182.106 35.6449 182.434 35.125 182.86C34.6051 183.286 34.2045 183.823 33.9233 184.471C33.6335 185.11 33.4886 185.877 33.4886 186.772C33.4886 188.212 33.8466 189.393 34.5625 190.313C35.2784 191.225 36.2116 191.681 37.3622 191.681C38.2997 191.681 39.0753 191.37 39.6889 190.748C40.294 190.126 40.7543 189.175 41.0696 187.897L41.8239 184.88C42.2074 183.329 42.8295 182.161 43.6903 181.377C44.5426 180.593 45.6037 180.201 46.8736 180.201C47.956 180.201 48.9148 180.495 49.75 181.083C50.5852 181.671 51.2372 182.485 51.706 183.525C52.1747 184.556 52.4091 185.758 52.4091 187.13C52.4091 188.962 51.983 190.466 51.1307 191.643C50.2699 192.819 49.0384 193.573 47.4361 193.905L47.0526 192.41C48.331 192.128 49.3068 191.545 49.9801 190.658C50.6449 189.763 50.9773 188.591 50.9773 187.143C50.9773 185.54 50.598 184.249 49.8395 183.269C49.081 182.28 48.1094 181.786 46.9247 181.786C46.0213 181.786 45.2585 182.076 44.6364 182.655C44.0142 183.235 43.5582 184.113 43.2685 185.289L42.5014 188.421C42.1094 190.023 41.483 191.225 40.6222 192.026C39.7528 192.827 38.6832 193.228 37.4134 193.228C36.3565 193.228 35.4276 192.951 34.6264 192.397C33.8253 191.843 33.1989 191.08 32.7472 190.108C32.2955 189.137 32.0696 188.025 32.0696 186.772C32.0696 185.11 32.4616 183.755 33.2457 182.706C34.0298 181.658 35.1463 180.9 36.5952 180.431Z" fill="#343A40"/>
<rect x="100" y="500" width="475" height="10" transform="rotate(-90 100 500)" fill="#0E8F8D"/>
<path d="M152 496.159H125.818V481.547H127.301V494.561H138.155V482.762H139.638V494.561H152V496.159ZM152.422 470.412C152.422 471.546 152.196 472.585 151.744 473.531C151.293 474.469 150.632 475.223 149.763 475.794C148.893 476.357 147.837 476.638 146.592 476.638C145.774 476.638 145.054 476.493 144.432 476.203C143.81 475.914 143.273 475.466 142.821 474.861C142.369 474.256 141.999 473.48 141.709 472.534C141.411 471.588 141.18 470.459 141.018 469.146C140.899 468.149 140.784 467.259 140.673 466.475C140.554 465.691 140.371 465.077 140.124 464.634C139.876 464.182 139.501 463.956 138.999 463.956H138.18C136.749 463.956 135.611 464.408 134.767 465.311C133.923 466.215 133.501 467.459 133.501 469.044C133.501 470.45 133.812 471.635 134.435 472.598C135.048 473.553 135.841 474.222 136.812 474.605L136.263 476.075C135.325 475.7 134.545 475.159 133.923 474.452C133.301 473.736 132.837 472.918 132.53 471.997C132.223 471.068 132.07 470.097 132.07 469.083C132.07 468.205 132.193 467.369 132.44 466.577C132.688 465.776 133.062 465.064 133.565 464.442C134.068 463.811 134.712 463.313 135.496 462.946C136.271 462.58 137.2 462.396 138.283 462.396H152V463.956H148.459V464.071C149.192 464.412 149.861 464.881 150.466 465.477C151.062 466.066 151.54 466.777 151.898 467.612C152.247 468.439 152.422 469.372 152.422 470.412ZM150.977 470.259C150.977 469.031 150.679 467.945 150.082 466.999C149.477 466.044 148.651 465.298 147.602 464.762C146.554 464.225 145.365 463.956 144.036 463.956H141.146C141.317 464.152 141.47 464.438 141.607 464.813C141.734 465.179 141.849 465.597 141.952 466.066C142.045 466.526 142.131 467.012 142.207 467.523C142.276 468.026 142.339 468.516 142.399 468.993C142.57 470.425 142.834 471.593 143.192 472.496C143.541 473.391 144.001 474.047 144.572 474.465C145.143 474.874 145.834 475.078 146.643 475.078C147.982 475.078 149.038 474.618 149.814 473.698C150.589 472.777 150.977 471.631 150.977 470.259ZM152 455.857H132.364V454.336H135.33V454.183C134.341 453.808 133.557 453.16 132.977 452.24C132.398 451.319 132.108 450.211 132.108 448.916C132.108 447.492 132.449 446.346 133.131 445.477C133.812 444.599 134.737 443.968 135.905 443.585V443.444C134.754 443.061 133.834 442.374 133.143 441.386C132.453 440.389 132.108 439.161 132.108 437.704C132.108 435.803 132.709 434.355 133.911 433.357C135.104 432.352 136.74 431.849 138.82 431.849H152V433.409H138.82C137.183 433.409 135.896 433.801 134.959 434.585C134.021 435.369 133.553 436.519 133.553 438.036C133.553 439.656 134.06 440.9 135.074 441.769C136.088 442.639 137.379 443.073 138.947 443.073H152V444.633H138.717C137.192 444.633 135.952 445.017 134.997 445.784C134.034 446.551 133.553 447.701 133.553 449.235C133.553 450.275 133.791 451.174 134.268 451.933C134.746 452.683 135.402 453.267 136.237 453.684C137.072 454.093 138.031 454.298 139.114 454.298H152V455.857ZM152 425.3H132.364V423.753H152V425.3ZM128.886 424.52C128.886 424.861 128.767 425.16 128.528 425.415C128.29 425.662 128 425.786 127.659 425.786C127.318 425.786 127.028 425.662 126.79 425.415C126.551 425.168 126.432 424.87 126.432 424.52C126.432 424.18 126.551 423.885 126.79 423.638C127.028 423.383 127.318 423.255 127.659 423.255C128 423.255 128.29 423.378 128.528 423.626C128.767 423.873 128.886 424.171 128.886 424.52ZM125.818 415.661H152V417.221H125.818V415.661ZM159.364 407.952C159.364 408.344 159.321 408.732 159.236 409.116C159.151 409.499 159.04 409.844 158.903 410.151L157.536 409.691C157.842 408.89 157.953 408.165 157.868 407.518C157.783 406.861 157.484 406.282 156.973 405.779C156.462 405.276 155.712 404.85 154.723 404.501L152.268 403.606L132.364 410.803V409.128L149.993 402.89V402.762L132.364 396.523V394.849L155.337 403.133C156.223 403.448 156.964 403.844 157.561 404.322C158.158 404.799 158.605 405.344 158.903 405.958C159.21 406.563 159.364 407.228 159.364 407.952ZM152 379.3H125.818V371.233C125.818 369.58 126.142 368.156 126.79 366.963C127.437 365.77 128.337 364.854 129.487 364.215C130.629 363.575 131.959 363.256 133.476 363.256C134.976 363.256 136.297 363.575 137.439 364.215C138.572 364.854 139.459 365.77 140.098 366.963C140.737 368.148 141.057 369.567 141.057 371.22V378.443H139.561V371.259C139.561 369.912 139.31 368.762 138.807 367.807C138.304 366.852 137.601 366.119 136.697 365.608C135.786 365.097 134.712 364.841 133.476 364.841C132.232 364.841 131.149 365.097 130.229 365.608C129.3 366.119 128.58 366.857 128.068 367.82C127.557 368.774 127.301 369.925 127.301 371.271V377.702H152V379.3ZM140.136 368.548L152 362.105V363.946L140.136 370.351V368.548ZM152.409 349.973C152.409 351.746 151.97 353.289 151.092 354.601C150.214 355.914 149.013 356.928 147.487 357.644C145.962 358.36 144.223 358.718 142.271 358.718C140.311 358.718 138.564 358.36 137.03 357.644C135.496 356.919 134.286 355.926 133.399 354.665C132.513 353.404 132.07 351.963 132.07 350.344C132.07 349.244 132.291 348.205 132.734 347.225C133.169 346.236 133.8 345.367 134.626 344.617C135.453 343.858 136.45 343.266 137.618 342.84C138.786 342.405 140.098 342.188 141.555 342.188H142.527V357.733H141.108V343.747C139.685 343.747 138.402 344.037 137.26 344.617C136.118 345.196 135.21 345.985 134.537 346.982C133.864 347.979 133.527 349.1 133.527 350.344C133.527 351.648 133.893 352.811 134.626 353.834C135.351 354.848 136.331 355.654 137.567 356.25C138.803 356.838 140.183 357.145 141.709 357.171H142.348C143.984 357.171 145.455 356.885 146.759 356.314C148.054 355.735 149.081 354.908 149.839 353.834C150.589 352.76 150.964 351.473 150.964 349.973C150.964 348.899 150.786 347.983 150.428 347.225C150.061 346.458 149.618 345.831 149.098 345.345C148.578 344.86 148.075 344.493 147.589 344.246L148.165 342.827C148.821 343.125 149.477 343.59 150.134 344.22C150.781 344.843 151.322 345.635 151.757 346.598C152.192 347.553 152.409 348.678 152.409 349.973ZM125.818 335.259H152V336.818H125.818V335.259ZM152.422 323.6C152.422 324.733 152.196 325.773 151.744 326.719C151.293 327.656 150.632 328.411 149.763 328.982C148.893 329.544 147.837 329.825 146.592 329.825C145.774 329.825 145.054 329.681 144.432 329.391C143.81 329.101 143.273 328.654 142.821 328.048C142.369 327.443 141.999 326.668 141.709 325.722C141.411 324.776 141.18 323.646 141.018 322.334C140.899 321.337 140.784 320.446 140.673 319.662C140.554 318.878 140.371 318.264 140.124 317.821C139.876 317.369 139.501 317.144 138.999 317.144H138.18C136.749 317.144 135.611 317.595 134.767 318.499C133.923 319.402 133.501 320.646 133.501 322.232C133.501 323.638 133.812 324.823 134.435 325.786C135.048 326.74 135.841 327.409 136.812 327.793L136.263 329.263C135.325 328.888 134.545 328.347 133.923 327.639C133.301 326.923 132.837 326.105 132.53 325.185C132.223 324.256 132.07 323.284 132.07 322.27C132.07 321.392 132.193 320.557 132.44 319.764C132.688 318.963 133.062 318.252 133.565 317.629C134.068 316.999 134.712 316.5 135.496 316.134C136.271 315.767 137.2 315.584 138.283 315.584H152V317.144H148.459V317.259C149.192 317.6 149.861 318.068 150.466 318.665C151.062 319.253 151.54 319.965 151.898 320.8C152.247 321.627 152.422 322.56 152.422 323.6ZM150.977 323.446C150.977 322.219 150.679 321.132 150.082 320.186C149.477 319.232 148.651 318.486 147.602 317.949C146.554 317.412 145.365 317.144 144.036 317.144H141.146C141.317 317.34 141.47 317.625 141.607 318C141.734 318.367 141.849 318.784 141.952 319.253C142.045 319.713 142.131 320.199 142.207 320.71C142.276 321.213 142.339 321.703 142.399 322.181C142.57 323.612 142.834 324.78 143.192 325.683C143.541 326.578 144.001 327.235 144.572 327.652C145.143 328.061 145.834 328.266 146.643 328.266C147.982 328.266 149.038 327.806 149.814 326.885C150.589 325.965 150.977 324.818 150.977 323.446ZM132.364 302.103H133.757V310.681H132.364V302.103ZM127.659 307.779V306.232H147.359C148.161 306.232 148.817 306.079 149.328 305.772C149.831 305.457 150.206 305.048 150.453 304.545C150.692 304.034 150.811 303.488 150.811 302.909C150.811 302.627 150.79 302.384 150.747 302.18C150.705 301.967 150.649 301.767 150.581 301.579L152 301.195C152.085 301.434 152.158 301.698 152.217 301.988C152.286 302.278 152.32 302.619 152.32 303.011C152.32 303.829 152.136 304.605 151.77 305.338C151.403 306.062 150.871 306.65 150.172 307.102C149.473 307.553 148.629 307.779 147.641 307.779H127.659ZM152 296.242H132.364V294.695H152V296.242ZM128.886 295.462C128.886 295.803 128.767 296.101 128.528 296.357C128.29 296.604 128 296.727 127.659 296.727C127.318 296.727 127.028 296.604 126.79 296.357C126.551 296.11 126.432 295.811 126.432 295.462C126.432 295.121 126.551 294.827 126.79 294.58C127.028 294.324 127.318 294.196 127.659 294.196C128 294.196 128.29 294.32 128.528 294.567C128.767 294.814 128.886 295.112 128.886 295.462ZM132.364 273.806L152 280.901V282.665L132.364 289.76V288.085L149.993 281.847V281.719L132.364 275.48V273.806ZM152.409 261.977C152.409 263.75 151.97 265.292 151.092 266.605C150.214 267.917 149.013 268.932 147.487 269.648C145.962 270.363 144.223 270.721 142.271 270.721C140.311 270.721 138.564 270.363 137.03 269.648C135.496 268.923 134.286 267.93 133.399 266.669C132.513 265.407 132.07 263.967 132.07 262.348C132.07 261.248 132.291 260.209 132.734 259.229C133.169 258.24 133.8 257.371 134.626 256.621C135.453 255.862 136.45 255.27 137.618 254.844C138.786 254.409 140.098 254.192 141.555 254.192H142.527V269.737H141.108V255.751C139.685 255.751 138.402 256.041 137.26 256.621C136.118 257.2 135.21 257.988 134.537 258.986C133.864 259.983 133.527 261.104 133.527 262.348C133.527 263.652 133.893 264.815 134.626 265.838C135.351 266.852 136.331 267.657 137.567 268.254C138.803 268.842 140.183 269.149 141.709 269.175H142.348C143.984 269.175 145.455 268.889 146.759 268.318C148.054 267.738 149.081 266.912 149.839 265.838C150.589 264.764 150.964 263.477 150.964 261.977C150.964 260.903 150.786 259.987 150.428 259.229C150.061 258.461 149.618 257.835 149.098 257.349C148.578 256.863 148.075 256.497 147.589 256.25L148.165 254.831C148.821 255.129 149.477 255.594 150.134 256.224C150.781 256.846 151.322 257.639 151.757 258.602C152.192 259.557 152.409 260.682 152.409 261.977Z" fill="#343A40"/>
<rect x="200" y="500" width="375" height="10" transform="rotate(-90 200 500)" fill="#8D45BA"/>
<path d="M252 496.064H225.818V481.451H227.301V494.466H238.155V482.666H239.638V494.466H252V496.064ZM252 475.73H232.364V474.209H235.432V474.069C234.426 473.642 233.621 472.922 233.016 471.908C232.402 470.894 232.095 469.739 232.095 468.444C232.095 468.307 232.095 468.171 232.095 468.034C232.095 467.898 232.099 467.77 232.108 467.651H233.68C233.672 467.753 233.659 467.877 233.642 468.022C233.616 468.158 233.604 468.328 233.604 468.533C233.604 469.624 233.838 470.596 234.307 471.448C234.776 472.292 235.423 472.956 236.25 473.442C237.068 473.928 238.006 474.171 239.062 474.171H252V475.73ZM252 463.384H232.364V461.837H252V463.384ZM228.886 462.604C228.886 462.945 228.767 463.244 228.528 463.499C228.29 463.746 228 463.87 227.659 463.87C227.318 463.87 227.028 463.746 226.79 463.499C226.551 463.252 226.432 462.954 226.432 462.604C226.432 462.263 226.551 461.969 226.79 461.722C227.028 461.467 227.318 461.339 227.659 461.339C228 461.339 228.29 461.462 228.528 461.71C228.767 461.957 228.886 462.255 228.886 462.604ZM252.409 447.647C252.409 449.42 251.97 450.962 251.092 452.275C250.214 453.587 249.013 454.602 247.487 455.317C245.962 456.033 244.223 456.391 242.271 456.391C240.311 456.391 238.564 456.033 237.03 455.317C235.496 454.593 234.286 453.6 233.399 452.339C232.513 451.077 232.07 449.637 232.07 448.018C232.07 446.918 232.291 445.879 232.734 444.898C233.169 443.91 233.8 443.04 234.626 442.29C235.453 441.532 236.45 440.94 237.618 440.513C238.786 440.079 240.098 439.862 241.555 439.862H242.527V455.407H241.108V441.421C239.685 441.421 238.402 441.711 237.26 442.29C236.118 442.87 235.21 443.658 234.537 444.656C233.864 445.653 233.527 446.773 233.527 448.018C233.527 449.322 233.893 450.485 234.626 451.508C235.351 452.522 236.331 453.327 237.567 453.924C238.803 454.512 240.183 454.819 241.709 454.844H242.348C243.984 454.844 245.455 454.559 246.759 453.988C248.054 453.408 249.081 452.582 249.839 451.508C250.589 450.434 250.964 449.147 250.964 447.647C250.964 446.573 250.786 445.657 250.428 444.898C250.061 444.131 249.618 443.505 249.098 443.019C248.578 442.533 248.075 442.167 247.589 441.92L248.165 440.501C248.821 440.799 249.477 441.263 250.134 441.894C250.781 442.516 251.322 443.309 251.757 444.272C252.192 445.227 252.409 446.352 252.409 447.647ZM239.267 432.933H252V434.492H232.364V432.971H235.47V432.817C234.456 432.357 233.642 431.62 233.028 430.606C232.415 429.592 232.108 428.386 232.108 426.988C232.108 425.667 232.389 424.508 232.952 423.511C233.514 422.505 234.315 421.721 235.355 421.158C236.386 420.587 237.618 420.302 239.05 420.302H252V421.862H239.114C237.443 421.862 236.101 422.36 235.087 423.357C234.064 424.346 233.553 425.654 233.553 427.282C233.553 428.373 233.791 429.344 234.268 430.197C234.746 431.049 235.415 431.718 236.276 432.204C237.128 432.69 238.125 432.933 239.267 432.933ZM252.409 407.083C252.409 408.66 251.974 410.036 251.105 411.212C250.236 412.388 249.038 413.3 247.513 413.948C245.979 414.587 244.219 414.907 242.233 414.907C240.264 414.907 238.517 414.583 236.991 413.935C235.457 413.279 234.256 412.363 233.386 411.187C232.509 410.011 232.07 408.638 232.07 407.07C232.07 405.945 232.287 404.969 232.722 404.143C233.148 403.308 233.714 402.609 234.422 402.046C235.129 401.475 235.905 401.04 236.749 400.742V400.589H225.818V399.042H252V400.55H247.717V400.742C248.561 401.058 249.341 401.496 250.057 402.059C250.764 402.621 251.335 403.32 251.77 404.156C252.196 404.991 252.409 405.967 252.409 407.083ZM250.964 406.942C250.964 405.613 250.585 404.475 249.827 403.529C249.06 402.575 248.02 401.846 246.707 401.343C245.386 400.832 243.891 400.576 242.22 400.576C240.55 400.576 239.062 400.832 237.759 401.343C236.446 401.846 235.415 402.575 234.665 403.529C233.906 404.475 233.527 405.613 233.527 406.942C233.527 408.289 233.911 409.444 234.678 410.407C235.436 411.362 236.472 412.094 237.784 412.606C239.097 413.109 240.575 413.36 242.22 413.36C243.865 413.36 245.348 413.109 246.669 412.606C247.99 412.094 249.038 411.362 249.814 410.407C250.581 409.444 250.964 408.289 250.964 406.942ZM236.595 379.546L236.979 380.991C236.263 381.221 235.645 381.549 235.125 381.975C234.605 382.401 234.205 382.938 233.923 383.586C233.634 384.225 233.489 384.992 233.489 385.887C233.489 387.327 233.847 388.508 234.562 389.428C235.278 390.34 236.212 390.796 237.362 390.796C238.3 390.796 239.075 390.485 239.689 389.863C240.294 389.241 240.754 388.29 241.07 387.012L241.824 383.995C242.207 382.444 242.83 381.276 243.69 380.492C244.543 379.708 245.604 379.316 246.874 379.316C247.956 379.316 248.915 379.61 249.75 380.198C250.585 380.786 251.237 381.6 251.706 382.64C252.175 383.671 252.409 384.873 252.409 386.245C252.409 388.077 251.983 389.582 251.131 390.758C250.27 391.934 249.038 392.688 247.436 393.021L247.053 391.525C248.331 391.244 249.307 390.66 249.98 389.773C250.645 388.879 250.977 387.707 250.977 386.258C250.977 384.656 250.598 383.364 249.839 382.384C249.081 381.396 248.109 380.901 246.925 380.901C246.021 380.901 245.259 381.191 244.636 381.771C244.014 382.35 243.558 383.228 243.268 384.404L242.501 387.536C242.109 389.138 241.483 390.34 240.622 391.141C239.753 391.942 238.683 392.343 237.413 392.343C236.357 392.343 235.428 392.066 234.626 391.512C233.825 390.958 233.199 390.195 232.747 389.224C232.295 388.252 232.07 387.14 232.07 385.887C232.07 384.225 232.462 382.87 233.246 381.822C234.03 380.773 235.146 380.015 236.595 379.546Z" fill="#343A40"/>
<rect x="300" y="500" width="475" height="10" transform="rotate(-90 300 500)" fill="#FF415B"/>
<path d="M334 476.075V477.712C333.114 477.882 332.257 478.202 331.43 478.671C330.595 479.139 329.845 479.744 329.18 480.486C328.507 481.219 327.974 482.071 327.582 483.043C327.19 484.014 326.994 485.088 326.994 486.264C326.994 487.986 327.455 489.571 328.375 491.02C329.287 492.46 330.629 493.615 332.402 494.485C334.175 495.345 336.344 495.776 338.909 495.776C341.491 495.776 343.669 495.345 345.442 494.485C347.214 493.615 348.557 492.46 349.469 491.02C350.372 489.571 350.824 487.986 350.824 486.264C350.824 485.088 350.632 484.014 350.249 483.043C349.857 482.071 349.328 481.219 348.663 480.486C347.99 479.744 347.236 479.139 346.401 478.671C345.565 478.202 344.705 477.882 343.818 477.712V476.075C344.875 476.263 345.911 476.625 346.925 477.162C347.939 477.691 348.859 478.389 349.686 479.259C350.504 480.119 351.156 481.138 351.642 482.314C352.119 483.482 352.358 484.798 352.358 486.264C352.358 488.446 351.804 490.368 350.696 492.03C349.58 493.692 348.011 494.996 345.991 495.942C343.972 496.879 341.611 497.348 338.909 497.348C336.207 497.348 333.847 496.879 331.827 495.942C329.807 494.996 328.243 493.692 327.135 492.03C326.018 490.368 325.46 488.446 325.46 486.264C325.46 484.798 325.703 483.482 326.189 482.314C326.666 481.138 327.314 480.119 328.132 479.259C328.942 478.389 329.854 477.691 330.868 477.162C331.882 476.625 332.926 476.263 334 476.075ZM352.409 463.183C352.409 464.802 351.974 466.242 351.105 467.504C350.227 468.765 349.021 469.758 347.487 470.482C345.953 471.207 344.206 471.569 342.246 471.569C340.277 471.569 338.53 471.207 337.004 470.482C335.47 469.758 334.264 468.765 333.386 467.504C332.509 466.242 332.07 464.802 332.07 463.183C332.07 461.563 332.509 460.123 333.386 458.862C334.264 457.6 335.47 456.607 337.004 455.883C338.538 455.159 340.286 454.796 342.246 454.796C344.206 454.796 345.953 455.159 347.487 455.883C349.021 456.607 350.227 457.6 351.105 458.862C351.974 460.123 352.409 461.563 352.409 463.183ZM350.964 463.183C350.964 461.811 350.577 460.613 349.801 459.59C349.026 458.559 347.977 457.762 346.656 457.2C345.335 456.629 343.865 456.343 342.246 456.343C340.626 456.343 339.161 456.629 337.848 457.2C336.527 457.771 335.479 458.568 334.703 459.59C333.919 460.613 333.527 461.811 333.527 463.183C333.527 464.555 333.919 465.752 334.703 466.775C335.479 467.798 336.527 468.595 337.848 469.166C339.161 469.737 340.626 470.022 342.246 470.022C343.865 470.022 345.335 469.741 346.656 469.178C347.977 468.607 349.026 467.811 349.801 466.788C350.577 465.757 350.964 464.555 350.964 463.183ZM325.818 447.864H352V449.424H325.818V447.864ZM325.818 439.849H352V441.408H325.818V439.849ZM352.409 425.735C352.409 427.508 351.97 429.05 351.092 430.363C350.214 431.675 349.013 432.689 347.487 433.405C345.962 434.121 344.223 434.479 342.271 434.479C340.311 434.479 338.564 434.121 337.03 433.405C335.496 432.681 334.286 431.688 333.399 430.427C332.513 429.165 332.07 427.725 332.07 426.106C332.07 425.006 332.291 423.966 332.734 422.986C333.169 421.998 333.8 421.128 334.626 420.378C335.453 419.62 336.45 419.028 337.618 418.601C338.786 418.167 340.098 417.949 341.555 417.949H342.527V433.495H341.108V419.509C339.685 419.509 338.402 419.799 337.26 420.378C336.118 420.958 335.21 421.746 334.537 422.743C333.864 423.741 333.527 424.861 333.527 426.106C333.527 427.41 333.893 428.573 334.626 429.596C335.351 430.61 336.331 431.415 337.567 432.012C338.803 432.6 340.183 432.907 341.709 432.932H342.348C343.984 432.932 345.455 432.647 346.759 432.076C348.054 431.496 349.081 430.67 349.839 429.596C350.589 428.522 350.964 427.235 350.964 425.735C350.964 424.661 350.786 423.745 350.428 422.986C350.061 422.219 349.618 421.593 349.098 421.107C348.578 420.621 348.075 420.255 347.589 420.008L348.165 418.589C348.821 418.887 349.477 419.351 350.134 419.982C350.781 420.604 351.322 421.397 351.757 422.36C352.192 423.314 352.409 424.439 352.409 425.735ZM352.422 407.377C352.422 408.51 352.196 409.55 351.744 410.496C351.293 411.434 350.632 412.188 349.763 412.759C348.893 413.322 347.837 413.603 346.592 413.603C345.774 413.603 345.054 413.458 344.432 413.168C343.81 412.878 343.273 412.431 342.821 411.826C342.369 411.221 341.999 410.445 341.709 409.499C341.411 408.553 341.18 407.424 341.018 406.111C340.899 405.114 340.784 404.224 340.673 403.439C340.554 402.655 340.371 402.042 340.124 401.599C339.876 401.147 339.501 400.921 338.999 400.921H338.18C336.749 400.921 335.611 401.373 334.767 402.276C333.923 403.18 333.501 404.424 333.501 406.009C333.501 407.415 333.812 408.6 334.435 409.563C335.048 410.518 335.841 411.187 336.812 411.57L336.263 413.04C335.325 412.665 334.545 412.124 333.923 411.417C333.301 410.701 332.837 409.883 332.53 408.962C332.223 408.033 332.07 407.062 332.07 406.047C332.07 405.17 332.193 404.334 332.44 403.542C332.688 402.741 333.062 402.029 333.565 401.407C334.068 400.776 334.712 400.278 335.496 399.911C336.271 399.545 337.2 399.361 338.283 399.361H352V400.921H348.459V401.036C349.192 401.377 349.861 401.846 350.466 402.442C351.062 403.03 351.54 403.742 351.898 404.577C352.247 405.404 352.422 406.337 352.422 407.377ZM350.977 407.224C350.977 405.996 350.679 404.91 350.082 403.964C349.477 403.009 348.651 402.263 347.602 401.726C346.554 401.189 345.365 400.921 344.036 400.921H341.146C341.317 401.117 341.47 401.403 341.607 401.778C341.734 402.144 341.849 402.562 341.952 403.03C342.045 403.491 342.131 403.976 342.207 404.488C342.276 404.991 342.339 405.481 342.399 405.958C342.57 407.39 342.834 408.557 343.192 409.461C343.541 410.356 344.001 411.012 344.572 411.43C345.143 411.839 345.834 412.043 346.643 412.043C347.982 412.043 349.038 411.583 349.814 410.662C350.589 409.742 350.977 408.596 350.977 407.224ZM359.773 385.74C359.773 386.959 359.611 388.054 359.287 389.025C358.972 389.997 358.52 390.824 357.932 391.506C357.344 392.179 356.645 392.694 355.835 393.052L355.068 391.748C355.699 391.459 356.261 391.045 356.756 390.508C357.25 389.971 357.638 389.307 357.919 388.514C358.2 387.713 358.341 386.788 358.341 385.74C358.341 383.848 357.851 382.352 356.871 381.253C355.899 380.145 354.408 379.591 352.396 379.591H347.513V379.744C348.365 380.042 349.124 380.486 349.788 381.074C350.445 381.653 350.96 382.365 351.335 383.209C351.71 384.052 351.898 385.011 351.898 386.085C351.898 387.636 351.497 389 350.696 390.176C349.895 391.352 348.77 392.268 347.321 392.925C345.864 393.581 344.151 393.909 342.182 393.909C340.213 393.909 338.47 393.589 336.953 392.95C335.428 392.302 334.234 391.39 333.374 390.214C332.504 389.038 332.07 387.657 332.07 386.072C332.07 384.939 332.287 383.959 332.722 383.132C333.148 382.297 333.714 381.598 334.422 381.035C335.129 380.473 335.905 380.038 336.749 379.731V379.552H332.364V378.044H352.46C354.097 378.044 355.456 378.368 356.538 379.015C357.621 379.655 358.43 380.554 358.967 381.713C359.504 382.863 359.773 384.206 359.773 385.74ZM350.453 385.944C350.453 384.632 350.121 383.503 349.456 382.557C348.783 381.602 347.828 380.869 346.592 380.358C345.348 379.838 343.874 379.578 342.169 379.578C340.516 379.578 339.037 379.829 337.733 380.332C336.429 380.835 335.402 381.564 334.652 382.518C333.902 383.473 333.527 384.615 333.527 385.944C333.527 387.3 333.911 388.454 334.678 389.409C335.436 390.363 336.467 391.096 337.771 391.608C339.075 392.111 340.541 392.362 342.169 392.362C343.805 392.362 345.246 392.106 346.49 391.595C347.726 391.084 348.697 390.351 349.405 389.396C350.104 388.442 350.453 387.291 350.453 385.944ZM345.033 358.903H332.364V357.343H352V358.903H348.817V359.031C349.831 359.491 350.658 360.237 351.297 361.268C351.936 362.291 352.256 363.501 352.256 364.899C352.256 366.186 351.974 367.323 351.412 368.312C350.849 369.301 350.053 370.076 349.021 370.639C347.982 371.201 346.746 371.482 345.314 371.482H332.364V369.923H345.25C346.886 369.923 348.212 369.428 349.226 368.44C350.232 367.443 350.734 366.156 350.734 364.579C350.734 363.556 350.504 362.615 350.044 361.754C349.584 360.893 348.928 360.203 348.075 359.683C347.214 359.163 346.2 358.903 345.033 358.903ZM352.409 343.223C352.409 344.996 351.97 346.539 351.092 347.851C350.214 349.164 349.013 350.178 347.487 350.894C345.962 351.61 344.223 351.968 342.271 351.968C340.311 351.968 338.564 351.61 337.03 350.894C335.496 350.169 334.286 349.176 333.399 347.915C332.513 346.654 332.07 345.213 332.07 343.594C332.07 342.494 332.291 341.455 332.734 340.475C333.169 339.486 333.8 338.617 334.626 337.867C335.453 337.108 336.45 336.516 337.618 336.09C338.786 335.655 340.098 335.438 341.555 335.438H342.527V350.983H341.108V336.997C339.685 336.997 338.402 337.287 337.26 337.867C336.118 338.446 335.21 339.235 334.537 340.232C333.864 341.229 333.527 342.35 333.527 343.594C333.527 344.898 333.893 346.061 334.626 347.084C335.351 348.098 336.331 348.904 337.567 349.5C338.803 350.088 340.183 350.395 341.709 350.421H342.348C343.984 350.421 345.455 350.135 346.759 349.564C348.054 348.985 349.081 348.158 349.839 347.084C350.589 346.01 350.964 344.723 350.964 343.223C350.964 342.149 350.786 341.233 350.428 340.475C350.061 339.708 349.618 339.081 349.098 338.595C348.578 338.11 348.075 337.743 347.589 337.496L348.165 336.077C348.821 336.375 349.477 336.84 350.134 337.47C350.781 338.093 351.322 338.885 351.757 339.848C352.192 340.803 352.409 341.928 352.409 343.223ZM336.595 317.591L336.979 319.036C336.263 319.266 335.645 319.594 335.125 320.02C334.605 320.446 334.205 320.983 333.923 321.631C333.634 322.27 333.489 323.037 333.489 323.932C333.489 325.372 333.847 326.553 334.562 327.473C335.278 328.385 336.212 328.841 337.362 328.841C338.3 328.841 339.075 328.53 339.689 327.908C340.294 327.286 340.754 326.335 341.07 325.057L341.824 322.04C342.207 320.489 342.83 319.321 343.69 318.537C344.543 317.753 345.604 317.361 346.874 317.361C347.956 317.361 348.915 317.655 349.75 318.243C350.585 318.831 351.237 319.645 351.706 320.685C352.175 321.716 352.409 322.918 352.409 324.29C352.409 326.122 351.983 327.627 351.131 328.803C350.27 329.979 349.038 330.733 347.436 331.066L347.053 329.57C348.331 329.289 349.307 328.705 349.98 327.818C350.645 326.923 350.977 325.752 350.977 324.303C350.977 322.7 350.598 321.409 349.839 320.429C349.081 319.441 348.109 318.946 346.925 318.946C346.021 318.946 345.259 319.236 344.636 319.816C344.014 320.395 343.558 321.273 343.268 322.449L342.501 325.581C342.109 327.183 341.483 328.385 340.622 329.186C339.753 329.987 338.683 330.388 337.413 330.388C336.357 330.388 335.428 330.111 334.626 329.557C333.825 329.003 333.199 328.24 332.747 327.269C332.295 326.297 332.07 325.185 332.07 323.932C332.07 322.27 332.462 320.915 333.246 319.867C334.03 318.818 335.146 318.06 336.595 317.591Z" fill="#343A40"/>
<rect x="400" y="500" width="490" height="10" transform="rotate(-90 400 500)" fill="#E9CC32"/>
<path d="M425.818 475.861H452V477.421L428.72 494.117V494.27H452V495.868H425.818V494.296L449.124 477.6V477.446H425.818V475.861ZM452.409 461.198C452.409 462.971 451.97 464.513 451.092 465.826C450.214 467.138 449.013 468.152 447.487 468.868C445.962 469.584 444.223 469.942 442.271 469.942C440.311 469.942 438.564 469.584 437.03 468.868C435.496 468.144 434.286 467.151 433.399 465.89C432.513 464.628 432.07 463.188 432.07 461.569C432.07 460.469 432.291 459.429 432.734 458.449C433.169 457.461 433.8 456.591 434.626 455.841C435.453 455.083 436.45 454.49 437.618 454.064C438.786 453.63 440.098 453.412 441.555 453.412H442.527V468.958H441.108V454.972C439.685 454.972 438.402 455.262 437.26 455.841C436.118 456.421 435.21 457.209 434.537 458.206C433.864 459.203 433.527 460.324 433.527 461.569C433.527 462.873 433.893 464.036 434.626 465.059C435.351 466.073 436.331 466.878 437.567 467.475C438.803 468.063 440.183 468.37 441.709 468.395H442.348C443.984 468.395 445.455 468.11 446.759 467.539C448.054 466.959 449.081 466.132 449.839 465.059C450.589 463.985 450.964 462.698 450.964 461.198C450.964 460.124 450.786 459.208 450.428 458.449C450.061 457.682 449.618 457.056 449.098 456.57C448.578 456.084 448.075 455.718 447.589 455.471L448.165 454.051C448.821 454.35 449.477 454.814 450.134 455.445C450.781 456.067 451.322 456.86 451.757 457.823C452.192 458.777 452.409 459.902 452.409 461.198ZM452 447.966H432.364V446.419H452V447.966ZM428.886 447.186C428.886 447.527 428.767 447.826 428.528 448.081C428.29 448.328 428 448.452 427.659 448.452C427.318 448.452 427.028 448.328 426.79 448.081C426.551 447.834 426.432 447.536 426.432 447.186C426.432 446.846 426.551 446.551 426.79 446.304C427.028 446.049 427.318 445.921 427.659 445.921C428 445.921 428.29 446.044 428.528 446.292C428.767 446.539 428.886 446.837 428.886 447.186ZM459.773 432.804C459.773 434.023 459.611 435.118 459.287 436.09C458.972 437.061 458.52 437.888 457.932 438.57C457.344 439.243 456.645 439.759 455.835 440.117L455.068 438.813C455.699 438.523 456.261 438.11 456.756 437.573C457.25 437.036 457.638 436.371 457.919 435.578C458.2 434.777 458.341 433.853 458.341 432.804C458.341 430.912 457.851 429.417 456.871 428.317C455.899 427.209 454.408 426.655 452.396 426.655H447.513V426.809C448.365 427.107 449.124 427.55 449.788 428.138C450.445 428.718 450.96 429.429 451.335 430.273C451.71 431.117 451.898 432.076 451.898 433.15C451.898 434.701 451.497 436.064 450.696 437.24C449.895 438.417 448.77 439.333 447.321 439.989C445.864 440.645 444.151 440.973 442.182 440.973C440.213 440.973 438.47 440.654 436.953 440.015C435.428 439.367 434.234 438.455 433.374 437.279C432.504 436.103 432.07 434.722 432.07 433.137C432.07 432.003 432.287 431.023 432.722 430.196C433.148 429.361 433.714 428.662 434.422 428.1C435.129 427.537 435.905 427.103 436.749 426.796V426.617H432.364V425.108H452.46C454.097 425.108 455.456 425.432 456.538 426.08C457.621 426.719 458.43 427.618 458.967 428.777C459.504 429.928 459.773 431.27 459.773 432.804ZM450.453 433.009C450.453 431.696 450.121 430.567 449.456 429.621C448.783 428.667 447.828 427.934 446.592 427.422C445.348 426.902 443.874 426.642 442.169 426.642C440.516 426.642 439.037 426.894 437.733 427.397C436.429 427.9 435.402 428.628 434.652 429.583C433.902 430.537 433.527 431.679 433.527 433.009C433.527 434.364 433.911 435.519 434.678 436.473C435.436 437.428 436.467 438.161 437.771 438.672C439.075 439.175 440.541 439.426 442.169 439.426C443.805 439.426 445.246 439.171 446.49 438.659C447.726 438.148 448.697 437.415 449.405 436.461C450.104 435.506 450.453 434.355 450.453 433.009ZM439.267 416.987H452V418.547H425.818V416.987H435.47V416.834C434.447 416.374 433.634 415.641 433.028 414.635C432.415 413.621 432.108 412.406 432.108 410.991C432.108 409.67 432.389 408.507 432.952 407.501C433.506 406.496 434.303 405.712 435.342 405.149C436.374 404.578 437.609 404.293 439.05 404.293H452V405.839H439.114C437.435 405.839 436.088 406.338 435.074 407.335C434.06 408.332 433.553 409.649 433.553 411.286C433.553 412.385 433.791 413.365 434.268 414.226C434.746 415.087 435.415 415.764 436.276 416.259C437.128 416.744 438.125 416.987 439.267 416.987ZM452 397.29H425.818V395.743H436.749V395.59C435.905 395.283 435.129 394.848 434.422 394.286C433.714 393.723 433.148 393.025 432.722 392.189C432.287 391.354 432.07 390.378 432.07 389.262C432.07 387.685 432.509 386.309 433.386 385.132C434.256 383.956 435.457 383.044 436.991 382.397C438.517 381.749 440.264 381.425 442.233 381.425C444.219 381.425 445.979 381.749 447.513 382.397C449.038 383.044 450.236 383.952 451.105 385.12C451.974 386.287 452.409 387.664 452.409 389.249C452.409 390.365 452.196 391.341 451.77 392.176C451.335 393.012 450.764 393.711 450.057 394.273C449.341 394.836 448.561 395.275 447.717 395.59V395.769H452V397.29ZM442.22 395.756C443.891 395.756 445.386 395.505 446.707 395.002C448.02 394.49 449.06 393.757 449.827 392.803C450.585 391.848 450.964 390.706 450.964 389.377C450.964 388.03 450.581 386.88 449.814 385.925C449.038 384.971 447.99 384.242 446.669 383.739C445.348 383.228 443.865 382.972 442.22 382.972C440.575 382.972 439.097 383.228 437.784 383.739C436.472 384.242 435.436 384.971 434.678 385.925C433.911 386.88 433.527 388.03 433.527 389.377C433.527 390.706 433.906 391.848 434.665 392.803C435.415 393.757 436.446 394.49 437.759 395.002C439.062 395.505 440.55 395.756 442.22 395.756ZM452.409 368.743C452.409 370.363 451.974 371.803 451.105 373.064C450.227 374.326 449.021 375.319 447.487 376.043C445.953 376.767 444.206 377.13 442.246 377.13C440.277 377.13 438.53 376.767 437.004 376.043C435.47 375.319 434.264 374.326 433.386 373.064C432.509 371.803 432.07 370.363 432.07 368.743C432.07 367.124 432.509 365.684 433.386 364.422C434.264 363.161 435.47 362.168 437.004 361.444C438.538 360.719 440.286 360.357 442.246 360.357C444.206 360.357 445.953 360.719 447.487 361.444C449.021 362.168 450.227 363.161 451.105 364.422C451.974 365.684 452.409 367.124 452.409 368.743ZM450.964 368.743C450.964 367.371 450.577 366.174 449.801 365.151C449.026 364.12 447.977 363.323 446.656 362.76C445.335 362.189 443.865 361.904 442.246 361.904C440.626 361.904 439.161 362.189 437.848 362.76C436.527 363.331 435.479 364.128 434.703 365.151C433.919 366.174 433.527 367.371 433.527 368.743C433.527 370.115 433.919 371.313 434.703 372.336C435.479 373.358 436.527 374.155 437.848 374.726C439.161 375.297 440.626 375.583 442.246 375.583C443.865 375.583 445.335 375.301 446.656 374.739C447.977 374.168 449.026 373.371 449.801 372.348C450.577 371.317 450.964 370.115 450.964 368.743ZM445.033 342.405H432.364V340.845H452V342.405H448.817V342.533C449.831 342.993 450.658 343.739 451.297 344.77C451.936 345.793 452.256 347.003 452.256 348.401C452.256 349.687 451.974 350.825 451.412 351.814C450.849 352.803 450.053 353.578 449.021 354.141C447.982 354.703 446.746 354.984 445.314 354.984H432.364V353.425H445.25C446.886 353.425 448.212 352.93 449.226 351.942C450.232 350.945 450.734 349.658 450.734 348.081C450.734 347.058 450.504 346.116 450.044 345.256C449.584 344.395 448.928 343.705 448.075 343.185C447.214 342.665 446.2 342.405 445.033 342.405ZM452 334.383H432.364V332.862H435.432V332.721C434.426 332.295 433.621 331.575 433.016 330.56C432.402 329.546 432.095 328.391 432.095 327.096C432.095 326.96 432.095 326.823 432.095 326.687C432.095 326.55 432.099 326.423 432.108 326.303H433.68C433.672 326.406 433.659 326.529 433.642 326.674C433.616 326.81 433.604 326.981 433.604 327.185C433.604 328.276 433.838 329.248 434.307 330.1C434.776 330.944 435.423 331.609 436.25 332.094C437.068 332.58 438.006 332.823 439.062 332.823H452V334.383Z" fill="#343A40"/>
<rect x="500" y="500" width="300" height="10" transform="rotate(-90 500 500)" fill="#343A40"/>
<path d="M538.909 474.895C541.611 474.895 543.972 475.363 545.991 476.301C548.003 477.238 549.567 478.542 550.683 480.213C551.8 481.875 552.358 483.792 552.358 485.966C552.358 488.147 551.8 490.074 550.683 491.744C549.558 493.406 547.99 494.706 545.979 495.643C543.959 496.581 541.602 497.049 538.909 497.049C536.207 497.049 533.851 496.581 531.839 495.643C529.828 494.697 528.264 493.393 527.148 491.731C526.023 490.069 525.46 488.147 525.46 485.966C525.46 483.792 526.018 481.875 527.135 480.213C528.251 478.542 529.82 477.238 531.839 476.301C533.851 475.363 536.207 474.895 538.909 474.895ZM538.909 476.454C536.48 476.454 534.375 476.863 532.594 477.681C530.812 478.491 529.436 479.612 528.464 481.044C527.484 482.475 526.994 484.116 526.994 485.966C526.994 487.815 527.48 489.456 528.452 490.887C529.415 492.319 530.791 493.444 532.581 494.262C534.362 495.072 536.472 495.477 538.909 495.477C541.321 495.477 543.422 495.076 545.212 494.275C546.993 493.466 548.374 492.345 549.354 490.913C550.334 489.481 550.824 487.832 550.824 485.966C550.824 484.116 550.338 482.475 549.366 481.044C548.386 479.612 547.006 478.491 545.224 477.681C543.443 476.863 541.338 476.454 538.909 476.454ZM532.364 462.257H533.757V470.836H532.364V462.257ZM527.659 467.934V466.387H547.359C548.161 466.387 548.817 466.233 549.328 465.926C549.831 465.611 550.206 465.202 550.453 464.699C550.692 464.188 550.811 463.642 550.811 463.063C550.811 462.782 550.79 462.539 550.747 462.334C550.705 462.121 550.649 461.921 550.581 461.733L552 461.35C552.085 461.588 552.158 461.853 552.217 462.142C552.286 462.432 552.32 462.773 552.32 463.165C552.32 463.983 552.136 464.759 551.77 465.492C551.403 466.216 550.871 466.804 550.172 467.256C549.473 467.708 548.629 467.934 547.641 467.934H527.659ZM539.267 454.491H552V456.051H525.818V454.491H535.47V454.338C534.447 453.877 533.634 453.145 533.028 452.139C532.415 451.125 532.108 449.91 532.108 448.495C532.108 447.174 532.389 446.011 532.952 445.005C533.506 444 534.303 443.216 535.342 442.653C536.374 442.082 537.609 441.797 539.05 441.797H552V443.343H539.114C537.435 443.343 536.088 443.842 535.074 444.839C534.06 445.836 533.553 447.153 533.553 448.789C533.553 449.889 533.791 450.869 534.268 451.73C534.746 452.591 535.415 453.268 536.276 453.762C537.128 454.248 538.125 454.491 539.267 454.491ZM552.409 427.686C552.409 429.459 551.97 431.001 551.092 432.314C550.214 433.626 549.013 434.641 547.487 435.357C545.962 436.072 544.223 436.43 542.271 436.43C540.311 436.43 538.564 436.072 537.03 435.357C535.496 434.632 534.286 433.639 533.399 432.378C532.513 431.116 532.07 429.676 532.07 428.057C532.07 426.957 532.291 425.918 532.734 424.938C533.169 423.949 533.8 423.08 534.626 422.33C535.453 421.571 536.45 420.979 537.618 420.553C538.786 420.118 540.098 419.901 541.555 419.901H542.527V435.446H541.108V421.46C539.685 421.46 538.402 421.75 537.26 422.33C536.118 422.909 535.21 423.697 534.537 424.695C533.864 425.692 533.527 426.812 533.527 428.057C533.527 429.361 533.893 430.524 534.626 431.547C535.351 432.561 536.331 433.366 537.567 433.963C538.803 434.551 540.183 434.858 541.709 434.884H542.348C543.984 434.884 545.455 434.598 546.759 434.027C548.054 433.447 549.081 432.621 549.839 431.547C550.589 430.473 550.964 429.186 550.964 427.686C550.964 426.612 550.786 425.696 550.428 424.938C550.061 424.17 549.618 423.544 549.098 423.058C548.578 422.572 548.075 422.206 547.589 421.959L548.165 420.54C548.821 420.838 549.477 421.303 550.134 421.933C550.781 422.555 551.322 423.348 551.757 424.311C552.192 425.266 552.409 426.391 552.409 427.686ZM552 414.531H532.364V413.01H535.432V412.869C534.426 412.443 533.621 411.723 533.016 410.709C532.402 409.695 532.095 408.54 532.095 407.244C532.095 407.108 532.095 406.972 532.095 406.835C532.095 406.699 532.099 406.571 532.108 406.452H533.68C533.672 406.554 533.659 406.678 533.642 406.822C533.616 406.959 533.604 407.129 533.604 407.334C533.604 408.425 533.838 409.396 534.307 410.249C534.776 411.092 535.423 411.757 536.25 412.243C537.068 412.729 538.006 412.972 539.062 412.972H552V414.531Z" fill="#343A40"/>
</svg>
