<svg width="563" height="500" viewBox="0 0 563 500" fill="none" xmlns="http://www.w3.org/2000/svg">
<rect y="500" width="375" height="10" transform="rotate(-90 0 500)" fill="#C43739"/>
<path d="M52 496.148H25.8182V494.55H50.517V481.765H52V496.148ZM52 476.371H32.3636V474.824H52V476.371ZM28.8864 475.591C28.8864 475.932 28.767 476.23 28.5284 476.486C28.2898 476.733 28 476.856 27.6591 476.856C27.3182 476.856 27.0284 476.733 26.7898 476.486C26.5511 476.238 26.4318 475.94 26.4318 475.591C26.4318 475.25 26.5511 474.956 26.7898 474.709C27.0284 474.453 27.3182 474.325 27.6591 474.325C28 474.325 28.2898 474.449 28.5284 474.696C28.767 474.943 28.8864 475.241 28.8864 475.591ZM36.5952 455.814L36.9787 457.258C36.2628 457.488 35.6449 457.817 35.125 458.243C34.6051 458.669 34.2045 459.206 33.9233 459.854C33.6335 460.493 33.4886 461.26 33.4886 462.155C33.4886 463.595 33.8466 464.775 34.5625 465.696C35.2784 466.608 36.2116 467.064 37.3622 467.064C38.2997 467.064 39.0753 466.753 39.6889 466.131C40.294 465.508 40.7543 464.558 41.0696 463.28L41.8239 460.263C42.2074 458.711 42.8295 457.544 43.6903 456.76C44.5426 455.976 45.6037 455.584 46.8736 455.584C47.956 455.584 48.9148 455.878 49.75 456.466C50.5852 457.054 51.2372 457.868 51.706 458.907C52.1747 459.939 52.4091 461.14 52.4091 462.513C52.4091 464.345 51.983 465.849 51.1307 467.025C50.2699 468.202 49.0384 468.956 47.4361 469.288L47.0526 467.792C48.331 467.511 49.3068 466.927 49.9801 466.041C50.6449 465.146 50.9773 463.974 50.9773 462.525C50.9773 460.923 50.598 459.632 49.8395 458.652C49.081 457.663 48.1094 457.169 46.9247 457.169C46.0213 457.169 45.2585 457.459 44.6364 458.038C44.0142 458.618 43.5582 459.496 43.2685 460.672L42.5014 463.804C42.1094 465.406 41.483 466.608 40.6222 467.409C39.7528 468.21 38.6832 468.611 37.4134 468.611C36.3565 468.611 35.4276 468.334 34.6264 467.78C33.8253 467.226 33.1989 466.463 32.7472 465.491C32.2955 464.52 32.0696 463.407 32.0696 462.155C32.0696 460.493 32.4616 459.138 33.2457 458.089C34.0298 457.041 35.1463 456.282 36.5952 455.814ZM32.3636 443.244H33.7571V451.822H32.3636V443.244ZM27.6591 448.92V447.373H47.3594C48.1605 447.373 48.8168 447.22 49.3281 446.913C49.831 446.597 50.206 446.188 50.4531 445.686C50.6918 445.174 50.8111 444.629 50.8111 444.049C50.8111 443.768 50.7898 443.525 50.7472 443.32C50.7045 443.107 50.6491 442.907 50.581 442.72L52 442.336C52.0852 442.575 52.1577 442.839 52.2173 443.129C52.2855 443.419 52.3196 443.759 52.3196 444.151C52.3196 444.97 52.1364 445.745 51.7699 446.478C51.4034 447.203 50.8707 447.791 50.1719 448.242C49.473 448.694 48.6293 448.92 47.6406 448.92H27.6591ZM52.4091 430.012C52.4091 431.785 51.9702 433.328 51.0923 434.64C50.2145 435.953 49.0128 436.967 47.4872 437.683C45.9616 438.399 44.223 438.757 42.2713 438.757C40.3111 438.757 38.5639 438.399 37.0298 437.683C35.4957 436.958 34.2855 435.965 33.3991 434.704C32.5128 433.443 32.0696 432.002 32.0696 430.383C32.0696 429.284 32.2912 428.244 32.7344 427.264C33.169 426.275 33.7997 425.406 34.6264 424.656C35.4531 423.897 36.4503 423.305 37.6179 422.879C38.7855 422.444 40.098 422.227 41.5554 422.227H42.527V437.772H41.108V423.786C39.6847 423.786 38.402 424.076 37.2599 424.656C36.1179 425.235 35.2102 426.024 34.5369 427.021C33.8636 428.018 33.527 429.139 33.527 430.383C33.527 431.687 33.8935 432.85 34.6264 433.873C35.3509 434.887 36.331 435.693 37.5668 436.289C38.8026 436.877 40.1832 437.184 41.7088 437.21H42.348C43.9844 437.21 45.4545 436.924 46.7585 436.353C48.054 435.774 49.081 434.947 49.8395 433.873C50.5895 432.799 50.9645 431.512 50.9645 430.012C50.9645 428.938 50.7855 428.022 50.4276 427.264C50.0611 426.497 49.6179 425.87 49.098 425.384C48.5781 424.899 48.0753 424.532 47.5895 424.285L48.1648 422.866C48.821 423.164 49.4773 423.629 50.1335 424.259C50.7812 424.882 51.3224 425.674 51.7571 426.637C52.1918 427.592 52.4091 428.717 52.4091 430.012ZM39.267 415.298H52V416.857H32.3636V415.336H35.4702V415.183C34.456 414.722 33.642 413.985 33.0284 412.971C32.4148 411.957 32.108 410.751 32.108 409.353C32.108 408.032 32.3892 406.873 32.9517 405.876C33.5142 404.87 34.3153 404.086 35.3551 403.524C36.3864 402.953 37.6179 402.667 39.0497 402.667H52V404.227H39.1136C37.4432 404.227 36.1009 404.725 35.0866 405.722C34.0639 406.711 33.5526 408.019 33.5526 409.647C33.5526 410.738 33.7912 411.71 34.2685 412.562C34.7457 413.414 35.4148 414.083 36.2756 414.569C37.1278 415.055 38.125 415.298 39.267 415.298ZM25.8182 385.511V383.772L49.6989 373.686V373.507L25.8182 363.42V361.681H52V363.215H29.6151V363.369L52 372.842V374.35L29.6151 383.823V383.977H52V385.511H25.8182ZM45.0327 342.086H32.3636V340.527H52V342.086H48.8168V342.214C49.831 342.675 50.6577 343.42 51.2969 344.452C51.9361 345.474 52.2557 346.684 52.2557 348.082C52.2557 349.369 51.9744 350.507 51.4119 351.496C50.8494 352.484 50.0526 353.26 49.0213 353.822C47.9815 354.385 46.7457 354.666 45.3139 354.666H32.3636V353.106H45.25C46.8864 353.106 48.2116 352.612 49.2259 351.623C50.2315 350.626 50.7344 349.339 50.7344 347.763C50.7344 346.74 50.5043 345.798 50.044 344.937C49.5838 344.077 48.9276 343.386 48.0753 342.866C47.2145 342.346 46.2003 342.086 45.0327 342.086ZM36.5952 321.587L36.9787 323.032C36.2628 323.262 35.6449 323.59 35.125 324.016C34.6051 324.442 34.2045 324.979 33.9233 325.627C33.6335 326.266 33.4886 327.033 33.4886 327.928C33.4886 329.368 33.8466 330.549 34.5625 331.469C35.2784 332.381 36.2116 332.837 37.3622 332.837C38.2997 332.837 39.0753 332.526 39.6889 331.904C40.294 331.282 40.7543 330.331 41.0696 329.053L41.8239 326.036C42.2074 324.485 42.8295 323.317 43.6903 322.533C44.5426 321.749 45.6037 321.357 46.8736 321.357C47.956 321.357 48.9148 321.651 49.75 322.239C50.5852 322.827 51.2372 323.641 51.706 324.681C52.1747 325.712 52.4091 326.914 52.4091 328.286C52.4091 330.118 51.983 331.623 51.1307 332.799C50.2699 333.975 49.0384 334.729 47.4361 335.062L47.0526 333.566C48.331 333.285 49.3068 332.701 49.9801 331.814C50.6449 330.92 50.9773 329.748 50.9773 328.299C50.9773 326.697 50.598 325.405 49.8395 324.425C49.081 323.437 48.1094 322.942 46.9247 322.942C46.0213 322.942 45.2585 323.232 44.6364 323.812C44.0142 324.391 43.5582 325.269 43.2685 326.445L42.5014 329.577C42.1094 331.18 41.483 332.381 40.6222 333.182C39.7528 333.983 38.6832 334.384 37.4134 334.384C36.3565 334.384 35.4276 334.107 34.6264 333.553C33.8253 332.999 33.1989 332.236 32.7472 331.265C32.2955 330.293 32.0696 329.181 32.0696 327.928C32.0696 326.266 32.4616 324.911 33.2457 323.863C34.0298 322.814 35.1463 322.056 36.5952 321.587ZM52 315.882H32.3636V314.335H52V315.882ZM28.8864 315.102C28.8864 315.443 28.767 315.742 28.5284 315.997C28.2898 316.244 28 316.368 27.6591 316.368C27.3182 316.368 27.0284 316.244 26.7898 315.997C26.5511 315.75 26.4318 315.452 26.4318 315.102C26.4318 314.762 26.5511 314.468 26.7898 314.22C27.0284 313.965 27.3182 313.837 27.6591 313.837C28 313.837 28.2898 313.96 28.5284 314.208C28.767 314.455 28.8864 314.753 28.8864 315.102ZM52.4091 300.439C52.4091 302.11 51.9702 303.58 51.0923 304.85C50.206 306.119 48.9957 307.112 47.4616 307.828C45.9276 308.536 44.1889 308.889 42.2457 308.889C40.3026 308.889 38.5639 308.531 37.0298 307.816C35.4957 307.1 34.2855 306.107 33.3991 304.837C32.5128 303.567 32.0696 302.105 32.0696 300.452C32.0696 299.208 32.3253 298.074 32.8366 297.051C33.348 296.02 34.0597 295.168 34.9716 294.494C35.8835 293.813 36.9403 293.378 38.142 293.191V294.776C36.8125 295.031 35.7131 295.671 34.8438 296.693C33.9659 297.708 33.527 298.956 33.527 300.439C33.527 301.769 33.902 302.953 34.652 303.993C35.3935 305.033 36.4205 305.851 37.733 306.448C39.0369 307.044 40.5327 307.343 42.2202 307.343C43.8821 307.343 45.3736 307.053 46.6946 306.473C48.0071 305.894 49.0469 305.084 49.8139 304.044C50.581 303.004 50.9645 301.803 50.9645 300.439C50.9645 299.476 50.7727 298.598 50.3892 297.806C50.0057 297.004 49.4602 296.335 48.7528 295.798C48.0455 295.262 47.2188 294.908 46.2727 294.737V293.152C47.483 293.34 48.5483 293.766 49.4688 294.431C50.3892 295.095 51.1094 295.943 51.6293 296.975C52.1491 298.006 52.4091 299.161 52.4091 300.439Z" fill="#343A40"/>
<rect x="100" y="500" width="450" height="10" transform="rotate(-90 100 500)" fill="#0E8F8D"/>
<path d="M152 496.177H125.818V488.11C125.818 486.448 126.159 485.025 126.841 483.84C127.523 482.647 128.456 481.731 129.641 481.092C130.825 480.452 132.176 480.133 133.693 480.133C135.193 480.133 136.536 480.452 137.72 481.092C138.905 481.731 139.842 482.647 140.533 483.84C141.214 485.025 141.555 486.444 141.555 488.097V495.052H140.072V488.136C140.072 486.789 139.8 485.638 139.254 484.684C138.7 483.729 137.946 482.996 136.991 482.485C136.028 481.974 134.929 481.718 133.693 481.718C132.449 481.718 131.345 481.974 130.382 482.485C129.419 482.996 128.665 483.734 128.119 484.697C127.574 485.651 127.301 486.802 127.301 488.148V494.579H152V496.177ZM139.267 472.983H152V474.543H125.818V472.983H135.47V472.83C134.447 472.37 133.634 471.637 133.028 470.631C132.415 469.617 132.108 468.402 132.108 466.988C132.108 465.667 132.389 464.503 132.952 463.498C133.506 462.492 134.303 461.708 135.342 461.145C136.374 460.574 137.609 460.289 139.05 460.289H152V461.836H139.114C137.435 461.836 136.088 462.334 135.074 463.331C134.06 464.328 133.553 465.645 133.553 467.282C133.553 468.381 133.791 469.361 134.268 470.222C134.746 471.083 135.415 471.76 136.276 472.255C137.128 472.74 138.125 472.983 139.267 472.983ZM159.364 453.286C159.364 453.678 159.321 454.066 159.236 454.45C159.151 454.833 159.04 455.178 158.903 455.485L157.536 455.025C157.842 454.224 157.953 453.499 157.868 452.852C157.783 452.195 157.484 451.616 156.973 451.113C156.462 450.61 155.712 450.184 154.723 449.835L152.268 448.94L132.364 456.137V454.462L149.993 448.224V448.096L132.364 441.857V440.183L155.337 448.467C156.223 448.782 156.964 449.178 157.561 449.656C158.158 450.133 158.605 450.678 158.903 451.292C159.21 451.897 159.364 452.562 159.364 453.286ZM136.595 422.831L136.979 424.276C136.263 424.506 135.645 424.834 135.125 425.26C134.605 425.686 134.205 426.223 133.923 426.871C133.634 427.51 133.489 428.277 133.489 429.172C133.489 430.613 133.847 431.793 134.562 432.713C135.278 433.625 136.212 434.081 137.362 434.081C138.3 434.081 139.075 433.77 139.689 433.148C140.294 432.526 140.754 431.576 141.07 430.297L141.824 427.28C142.207 425.729 142.83 424.561 143.69 423.777C144.543 422.993 145.604 422.601 146.874 422.601C147.956 422.601 148.915 422.895 149.75 423.483C150.585 424.071 151.237 424.885 151.706 425.925C152.175 426.956 152.409 428.158 152.409 429.53C152.409 431.363 151.983 432.867 151.131 434.043C150.27 435.219 149.038 435.973 147.436 436.306L147.053 434.81C148.331 434.529 149.307 433.945 149.98 433.059C150.645 432.164 150.977 430.992 150.977 429.543C150.977 427.941 150.598 426.65 149.839 425.669C149.081 424.681 148.109 424.186 146.925 424.186C146.021 424.186 145.259 424.476 144.636 425.056C144.014 425.635 143.558 426.513 143.268 427.689L142.501 430.821C142.109 432.424 141.483 433.625 140.622 434.426C139.753 435.228 138.683 435.628 137.413 435.628C136.357 435.628 135.428 435.351 134.626 434.797C133.825 434.243 133.199 433.48 132.747 432.509C132.295 431.537 132.07 430.425 132.07 429.172C132.07 427.51 132.462 426.155 133.246 425.107C134.03 424.059 135.146 423.3 136.595 422.831ZM152 417.126H132.364V415.58H152V417.126ZM128.886 416.347C128.886 416.687 128.767 416.986 128.528 417.241C128.29 417.489 128 417.612 127.659 417.612C127.318 417.612 127.028 417.489 126.79 417.241C126.551 416.994 126.432 416.696 126.432 416.347C126.432 416.006 126.551 415.712 126.79 415.464C127.028 415.209 127.318 415.081 127.659 415.081C128 415.081 128.29 415.205 128.528 415.452C128.767 415.699 128.886 415.997 128.886 416.347ZM152.409 401.683C152.409 403.354 151.97 404.824 151.092 406.094C150.206 407.364 148.996 408.357 147.462 409.072C145.928 409.78 144.189 410.134 142.246 410.134C140.303 410.134 138.564 409.776 137.03 409.06C135.496 408.344 134.286 407.351 133.399 406.081C132.513 404.811 132.07 403.349 132.07 401.696C132.07 400.452 132.325 399.318 132.837 398.295C133.348 397.264 134.06 396.412 134.972 395.739C135.884 395.057 136.94 394.622 138.142 394.435V396.02C136.812 396.276 135.713 396.915 134.844 397.938C133.966 398.952 133.527 400.2 133.527 401.683C133.527 403.013 133.902 404.197 134.652 405.237C135.393 406.277 136.42 407.095 137.733 407.692C139.037 408.288 140.533 408.587 142.22 408.587C143.882 408.587 145.374 408.297 146.695 407.717C148.007 407.138 149.047 406.328 149.814 405.288C150.581 404.249 150.964 403.047 150.964 401.683C150.964 400.72 150.773 399.842 150.389 399.05C150.006 398.249 149.46 397.58 148.753 397.043C148.045 396.506 147.219 396.152 146.273 395.982V394.396C147.483 394.584 148.548 395.01 149.469 395.675C150.389 396.339 151.109 397.188 151.629 398.219C152.149 399.25 152.409 400.405 152.409 401.683ZM152.422 383.875C152.422 385.009 152.196 386.048 151.744 386.994C151.293 387.932 150.632 388.686 149.763 389.257C148.893 389.82 147.837 390.101 146.592 390.101C145.774 390.101 145.054 389.956 144.432 389.666C143.81 389.376 143.273 388.929 142.821 388.324C142.369 387.719 141.999 386.943 141.709 385.997C141.411 385.051 141.18 383.922 141.018 382.609C140.899 381.612 140.784 380.722 140.673 379.938C140.554 379.153 140.371 378.54 140.124 378.097C139.876 377.645 139.501 377.419 138.999 377.419H138.18C136.749 377.419 135.611 377.871 134.767 378.774C133.923 379.678 133.501 380.922 133.501 382.507C133.501 383.913 133.812 385.098 134.435 386.061C135.048 387.016 135.841 387.685 136.812 388.068L136.263 389.538C135.325 389.163 134.545 388.622 133.923 387.915C133.301 387.199 132.837 386.381 132.53 385.46C132.223 384.531 132.07 383.56 132.07 382.545C132.07 381.668 132.193 380.832 132.44 380.04C132.688 379.239 133.062 378.527 133.565 377.905C134.068 377.274 134.712 376.776 135.496 376.409C136.271 376.043 137.2 375.859 138.283 375.859H152V377.419H148.459V377.534C149.192 377.875 149.861 378.344 150.466 378.94C151.062 379.528 151.54 380.24 151.898 381.075C152.247 381.902 152.422 382.835 152.422 383.875ZM150.977 383.722C150.977 382.494 150.679 381.408 150.082 380.462C149.477 379.507 148.651 378.761 147.602 378.224C146.554 377.687 145.365 377.419 144.036 377.419H141.146C141.317 377.615 141.47 377.901 141.607 378.276C141.734 378.642 141.849 379.06 141.952 379.528C142.045 379.989 142.131 380.474 142.207 380.986C142.276 381.489 142.339 381.979 142.399 382.456C142.57 383.888 142.834 385.055 143.192 385.959C143.541 386.854 144.001 387.51 144.572 387.928C145.143 388.337 145.834 388.541 146.643 388.541C147.982 388.541 149.038 388.081 149.814 387.161C150.589 386.24 150.977 385.094 150.977 383.722ZM125.818 367.761H152V369.32H125.818V367.761ZM152 350.63H125.818V336.056H127.301V349.032H138.155V336.836H139.638V349.032H150.517V335.749H152V350.63ZM132.364 329.392L141.095 323.972L132.364 318.551V316.749L142.182 323.039L152 316.749V318.551L143.409 323.972L152 329.392V331.208L142.182 324.944L132.364 331.208V329.392ZM152.409 304.674C152.409 306.447 151.97 307.99 151.092 309.302C150.214 310.615 149.013 311.629 147.487 312.345C145.962 313.061 144.223 313.419 142.271 313.419C140.311 313.419 138.564 313.061 137.03 312.345C135.496 311.62 134.286 310.627 133.399 309.366C132.513 308.105 132.07 306.664 132.07 305.045C132.07 303.946 132.291 302.906 132.734 301.926C133.169 300.937 133.8 300.068 134.626 299.318C135.453 298.559 136.45 297.967 137.618 297.541C138.786 297.106 140.098 296.889 141.555 296.889H142.527V312.434H141.108V298.449C139.685 298.449 138.402 298.738 137.26 299.318C136.118 299.897 135.21 300.686 134.537 301.683C133.864 302.68 133.527 303.801 133.527 305.045C133.527 306.349 133.893 307.512 134.626 308.535C135.351 309.549 136.331 310.355 137.567 310.951C138.803 311.539 140.183 311.846 141.709 311.872H142.348C143.984 311.872 145.455 311.586 146.759 311.015C148.054 310.436 149.081 309.609 149.839 308.535C150.589 307.461 150.964 306.174 150.964 304.674C150.964 303.6 150.786 302.684 150.428 301.926C150.061 301.159 149.618 300.532 149.098 300.047C148.578 299.561 148.075 299.194 147.589 298.947L148.165 297.528C148.821 297.826 149.477 298.291 150.134 298.922C150.781 299.544 151.322 300.336 151.757 301.299C152.192 302.254 152.409 303.379 152.409 304.674ZM152 291.52H132.364V289.998H135.432V289.858C134.426 289.431 133.621 288.711 133.016 287.697C132.402 286.683 132.095 285.528 132.095 284.233C132.095 284.096 132.095 283.96 132.095 283.824C132.095 283.687 132.099 283.559 132.108 283.44H133.68C133.672 283.542 133.659 283.666 133.642 283.811C133.616 283.947 133.604 284.118 133.604 284.322C133.604 285.413 133.838 286.385 134.307 287.237C134.776 288.081 135.423 288.745 136.25 289.231C137.068 289.717 138.006 289.96 139.062 289.96H152V291.52ZM152.409 272.484C152.409 274.154 151.97 275.625 151.092 276.895C150.206 278.164 148.996 279.157 147.462 279.873C145.928 280.581 144.189 280.934 142.246 280.934C140.303 280.934 138.564 280.576 137.03 279.86C135.496 279.145 134.286 278.152 133.399 276.882C132.513 275.612 132.07 274.15 132.07 272.497C132.07 271.252 132.325 270.119 132.837 269.096C133.348 268.065 134.06 267.213 134.972 266.539C135.884 265.858 136.94 265.423 138.142 265.235V266.821C136.812 267.076 135.713 267.716 134.844 268.738C133.966 269.752 133.527 271.001 133.527 272.484C133.527 273.814 133.902 274.998 134.652 276.038C135.393 277.078 136.42 277.896 137.733 278.493C139.037 279.089 140.533 279.387 142.22 279.387C143.882 279.387 145.374 279.098 146.695 278.518C148.007 277.939 149.047 277.129 149.814 276.089C150.581 275.049 150.964 273.848 150.964 272.484C150.964 271.521 150.773 270.643 150.389 269.85C150.006 269.049 149.46 268.38 148.753 267.843C148.045 267.306 147.219 266.953 146.273 266.782V265.197C147.483 265.385 148.548 265.811 149.469 266.475C150.389 267.14 151.109 267.988 151.629 269.02C152.149 270.051 152.409 271.206 152.409 272.484ZM152 259.802H132.364V258.255H152V259.802ZM128.886 259.022C128.886 259.363 128.767 259.662 128.528 259.917C128.29 260.164 128 260.288 127.659 260.288C127.318 260.288 127.028 260.164 126.79 259.917C126.551 259.67 126.432 259.372 126.432 259.022C126.432 258.681 126.551 258.387 126.79 258.14C127.028 257.885 127.318 257.757 127.659 257.757C128 257.757 128.29 257.88 128.528 258.127C128.767 258.375 128.886 258.673 128.886 259.022ZM136.595 239.245L136.979 240.69C136.263 240.92 135.645 241.248 135.125 241.674C134.605 242.1 134.205 242.637 133.923 243.285C133.634 243.924 133.489 244.691 133.489 245.586C133.489 247.027 133.847 248.207 134.562 249.127C135.278 250.039 136.212 250.495 137.362 250.495C138.3 250.495 139.075 250.184 139.689 249.562C140.294 248.94 140.754 247.99 141.07 246.711L141.824 243.694C142.207 242.143 142.83 240.975 143.69 240.191C144.543 239.407 145.604 239.015 146.874 239.015C147.956 239.015 148.915 239.309 149.75 239.897C150.585 240.485 151.237 241.299 151.706 242.339C152.175 243.37 152.409 244.572 152.409 245.944C152.409 247.777 151.983 249.281 151.131 250.457C150.27 251.633 149.038 252.387 147.436 252.72L147.053 251.224C148.331 250.943 149.307 250.359 149.98 249.473C150.645 248.578 150.977 247.406 150.977 245.957C150.977 244.355 150.598 243.064 149.839 242.083C149.081 241.095 148.109 240.6 146.925 240.6C146.021 240.6 145.259 240.89 144.636 241.47C144.014 242.049 143.558 242.927 143.268 244.103L142.501 247.235C142.109 248.838 141.483 250.039 140.622 250.841C139.753 251.642 138.683 252.042 137.413 252.042C136.357 252.042 135.428 251.765 134.626 251.211C133.825 250.657 133.199 249.895 132.747 248.923C132.295 247.951 132.07 246.839 132.07 245.586C132.07 243.924 132.462 242.569 133.246 241.521C134.03 240.473 135.146 239.714 136.595 239.245ZM152.409 225.96C152.409 227.732 151.97 229.275 151.092 230.587C150.214 231.9 149.013 232.914 147.487 233.63C145.962 234.346 144.223 234.704 142.271 234.704C140.311 234.704 138.564 234.346 137.03 233.63C135.496 232.906 134.286 231.913 133.399 230.651C132.513 229.39 132.07 227.95 132.07 226.33C132.07 225.231 132.291 224.191 132.734 223.211C133.169 222.222 133.8 221.353 134.626 220.603C135.453 219.844 136.45 219.252 137.618 218.826C138.786 218.391 140.098 218.174 141.555 218.174H142.527V233.719H141.108V219.734C139.685 219.734 138.402 220.023 137.26 220.603C136.118 221.183 135.21 221.971 134.537 222.968C133.864 223.965 133.527 225.086 133.527 226.33C133.527 227.634 133.893 228.798 134.626 229.82C135.351 230.835 136.331 231.64 137.567 232.237C138.803 232.825 140.183 233.131 141.709 233.157H142.348C143.984 233.157 145.455 232.871 146.759 232.3C148.054 231.721 149.081 230.894 149.839 229.82C150.589 228.746 150.964 227.46 150.964 225.96C150.964 224.886 150.786 223.969 150.428 223.211C150.061 222.444 149.618 221.817 149.098 221.332C148.578 220.846 148.075 220.479 147.589 220.232L148.165 218.813C148.821 219.112 149.477 219.576 150.134 220.207C150.781 220.829 151.322 221.621 151.757 222.585C152.192 223.539 152.409 224.664 152.409 225.96Z" fill="#343A40"/>
<rect x="200" y="500" width="300" height="10" transform="rotate(-90 200 500)" fill="#8D45BA"/>
<path d="M225.818 495.845V494.106L249.699 484.02V483.841L225.818 473.754V472.015H252V473.549H229.615V473.703L252 483.176V484.684L229.615 494.157V494.311H252V495.845H225.818ZM252.409 457.342C252.409 459.115 251.97 460.658 251.092 461.97C250.214 463.283 249.013 464.297 247.487 465.013C245.962 465.729 244.223 466.087 242.271 466.087C240.311 466.087 238.564 465.729 237.03 465.013C235.496 464.288 234.286 463.295 233.399 462.034C232.513 460.773 232.07 459.332 232.07 457.713C232.07 456.614 232.291 455.574 232.734 454.594C233.169 453.605 233.8 452.736 234.626 451.986C235.453 451.227 236.45 450.635 237.618 450.209C238.786 449.774 240.098 449.557 241.555 449.557H242.527V465.102H241.108V451.116C239.685 451.116 238.402 451.406 237.26 451.986C236.118 452.565 235.21 453.354 234.537 454.351C233.864 455.348 233.527 456.469 233.527 457.713C233.527 459.017 233.893 460.18 234.626 461.203C235.351 462.217 236.331 463.023 237.567 463.619C238.803 464.207 240.183 464.514 241.709 464.54H242.348C243.984 464.54 245.455 464.254 246.759 463.683C248.054 463.104 249.081 462.277 249.839 461.203C250.589 460.129 250.964 458.842 250.964 457.342C250.964 456.268 250.786 455.352 250.428 454.594C250.061 453.827 249.618 453.2 249.098 452.714C248.578 452.229 248.075 451.862 247.589 451.615L248.165 450.196C248.821 450.494 249.477 450.959 250.134 451.589C250.781 452.212 251.322 453.004 251.757 453.967C252.192 454.922 252.409 456.047 252.409 457.342ZM252.409 437.45C252.409 439.027 251.974 440.403 251.105 441.58C250.236 442.756 249.038 443.668 247.513 444.315C245.979 444.955 244.219 445.274 242.233 445.274C240.264 445.274 238.517 444.95 236.991 444.303C235.457 443.646 234.256 442.73 233.386 441.554C232.509 440.378 232.07 439.006 232.07 437.438C232.07 436.312 232.287 435.337 232.722 434.51C233.148 433.675 233.714 432.976 234.422 432.413C235.129 431.842 235.905 431.408 236.749 431.109V430.956H225.818V429.409H252V430.918H247.717V431.109C248.561 431.425 249.341 431.864 250.057 432.426C250.764 432.989 251.335 433.687 251.77 434.523C252.196 435.358 252.409 436.334 252.409 437.45ZM250.964 437.31C250.964 435.98 250.585 434.842 249.827 433.896C249.06 432.942 248.02 432.213 246.707 431.71C245.386 431.199 243.891 430.943 242.22 430.943C240.55 430.943 239.062 431.199 237.759 431.71C236.446 432.213 235.415 432.942 234.665 433.896C233.906 434.842 233.527 435.98 233.527 437.31C233.527 438.656 233.911 439.811 234.678 440.774C235.436 441.729 236.472 442.462 237.784 442.973C239.097 443.476 240.575 443.727 242.22 443.727C243.865 443.727 245.348 443.476 246.669 442.973C247.99 442.462 249.038 441.729 249.814 440.774C250.581 439.811 250.964 438.656 250.964 437.31ZM252 422.314H232.364V420.767H252V422.314ZM228.886 421.534C228.886 421.875 228.767 422.173 228.528 422.429C228.29 422.676 228 422.8 227.659 422.8C227.318 422.8 227.028 422.676 226.79 422.429C226.551 422.182 226.432 421.884 226.432 421.534C226.432 421.193 226.551 420.899 226.79 420.652C227.028 420.396 227.318 420.268 227.659 420.268C228 420.268 228.29 420.392 228.528 420.639C228.767 420.886 228.886 421.185 228.886 421.534ZM232.364 407.293H233.757V415.871H232.364V407.293ZM227.659 412.969V411.422H247.359C248.161 411.422 248.817 411.268 249.328 410.962C249.831 410.646 250.206 410.237 250.453 409.734C250.692 409.223 250.811 408.678 250.811 408.098C250.811 407.817 250.79 407.574 250.747 407.369C250.705 407.156 250.649 406.956 250.581 406.768L252 406.385C252.085 406.624 252.158 406.888 252.217 407.178C252.286 407.467 252.32 407.808 252.32 408.2C252.32 409.018 252.136 409.794 251.77 410.527C251.403 411.251 250.871 411.839 250.172 412.291C249.473 412.743 248.629 412.969 247.641 412.969H227.659ZM252.422 396.305C252.422 397.438 252.196 398.478 251.744 399.424C251.293 400.362 250.632 401.116 249.763 401.687C248.893 402.249 247.837 402.531 246.592 402.531C245.774 402.531 245.054 402.386 244.432 402.096C243.81 401.806 243.273 401.359 242.821 400.754C242.369 400.148 241.999 399.373 241.709 398.427C241.411 397.481 241.18 396.352 241.018 395.039C240.899 394.042 240.784 393.151 240.673 392.367C240.554 391.583 240.371 390.969 240.124 390.526C239.876 390.075 239.501 389.849 238.999 389.849H238.18C236.749 389.849 235.611 390.3 234.767 391.204C233.923 392.107 233.501 393.352 233.501 394.937C233.501 396.343 233.812 397.528 234.435 398.491C235.048 399.445 235.841 400.114 236.812 400.498L236.263 401.968C235.325 401.593 234.545 401.052 233.923 400.344C233.301 399.629 232.837 398.81 232.53 397.89C232.223 396.961 232.07 395.989 232.07 394.975C232.07 394.097 232.193 393.262 232.44 392.469C232.688 391.668 233.062 390.957 233.565 390.335C234.068 389.704 234.712 389.205 235.496 388.839C236.271 388.472 237.2 388.289 238.283 388.289H252V389.849H248.459V389.964C249.192 390.305 249.861 390.773 250.466 391.37C251.062 391.958 251.54 392.67 251.898 393.505C252.247 394.332 252.422 395.265 252.422 396.305ZM250.977 396.151C250.977 394.924 250.679 393.837 250.082 392.891C249.477 391.937 248.651 391.191 247.602 390.654C246.554 390.117 245.365 389.849 244.036 389.849H241.146C241.317 390.045 241.47 390.33 241.607 390.705C241.734 391.072 241.849 391.489 241.952 391.958C242.045 392.418 242.131 392.904 242.207 393.415C242.276 393.918 242.339 394.408 242.399 394.886C242.57 396.317 242.834 397.485 243.192 398.388C243.541 399.283 244.001 399.94 244.572 400.357C245.143 400.766 245.834 400.971 246.643 400.971C247.982 400.971 249.038 400.511 249.814 399.59C250.589 398.67 250.977 397.523 250.977 396.151ZM232.364 374.808H233.757V383.386H232.364V374.808ZM227.659 380.484V378.938H247.359C248.161 378.938 248.817 378.784 249.328 378.477C249.831 378.162 250.206 377.753 250.453 377.25C250.692 376.739 250.811 376.193 250.811 375.614C250.811 375.332 250.79 375.089 250.747 374.885C250.705 374.672 250.649 374.472 250.581 374.284L252 373.901C252.085 374.139 252.158 374.403 252.217 374.693C252.286 374.983 252.32 375.324 252.32 375.716C252.32 376.534 252.136 377.31 251.77 378.043C251.403 378.767 250.871 379.355 250.172 379.807C249.473 380.259 248.629 380.484 247.641 380.484H227.659ZM252 368.947H232.364V367.4H252V368.947ZM228.886 368.167C228.886 368.508 228.767 368.806 228.528 369.062C228.29 369.309 228 369.433 227.659 369.433C227.318 369.433 227.028 369.309 226.79 369.062C226.551 368.815 226.432 368.516 226.432 368.167C226.432 367.826 226.551 367.532 226.79 367.285C227.028 367.029 227.318 366.901 227.659 366.901C228 366.901 228.29 367.025 228.528 367.272C228.767 367.519 228.886 367.817 228.886 368.167ZM252.409 353.567C252.409 355.187 251.974 356.627 251.105 357.888C250.227 359.15 249.021 360.143 247.487 360.867C245.953 361.592 244.206 361.954 242.246 361.954C240.277 361.954 238.53 361.592 237.004 360.867C235.47 360.143 234.264 359.15 233.386 357.888C232.509 356.627 232.07 355.187 232.07 353.567C232.07 351.948 232.509 350.508 233.386 349.246C234.264 347.985 235.47 346.992 237.004 346.268C238.538 345.543 240.286 345.181 242.246 345.181C244.206 345.181 245.953 345.543 247.487 346.268C249.021 346.992 250.227 347.985 251.105 349.246C251.974 350.508 252.409 351.948 252.409 353.567ZM250.964 353.567C250.964 352.195 250.577 350.998 249.801 349.975C249.026 348.944 247.977 348.147 246.656 347.585C245.335 347.013 243.865 346.728 242.246 346.728C240.626 346.728 239.161 347.013 237.848 347.585C236.527 348.156 235.479 348.952 234.703 349.975C233.919 350.998 233.527 352.195 233.527 353.567C233.527 354.94 233.919 356.137 234.703 357.16C235.479 358.183 236.527 358.979 237.848 359.55C239.161 360.121 240.626 360.407 242.246 360.407C243.865 360.407 245.335 360.126 246.656 359.563C247.977 358.992 249.026 358.195 249.801 357.173C250.577 356.141 250.964 354.94 250.964 353.567ZM239.267 338.249H252V339.809H232.364V338.287H235.47V338.134C234.456 337.674 233.642 336.936 233.028 335.922C232.415 334.908 232.108 333.702 232.108 332.304C232.108 330.983 232.389 329.824 232.952 328.827C233.514 327.821 234.315 327.037 235.355 326.475C236.386 325.904 237.618 325.618 239.05 325.618H252V327.178H239.114C237.443 327.178 236.101 327.676 235.087 328.674C234.064 329.662 233.553 330.971 233.553 332.598C233.553 333.689 233.791 334.661 234.268 335.513C234.746 336.365 235.415 337.034 236.276 337.52C237.128 338.006 238.125 338.249 239.267 338.249Z" fill="#343A40"/>
<rect x="300" y="500" width="375" height="10" transform="rotate(-90 300 500)" fill="#FF415B"/>
<path d="M334 476.165V477.802C333.114 477.972 332.257 478.292 331.43 478.76C330.595 479.229 329.845 479.834 329.18 480.576C328.507 481.309 327.974 482.161 327.582 483.133C327.19 484.104 326.994 485.178 326.994 486.354C326.994 488.076 327.455 489.661 328.375 491.11C329.287 492.55 330.629 493.705 332.402 494.574C334.175 495.435 336.344 495.866 338.909 495.866C341.491 495.866 343.669 495.435 345.442 494.574C347.214 493.705 348.557 492.55 349.469 491.11C350.372 489.661 350.824 488.076 350.824 486.354C350.824 485.178 350.632 484.104 350.249 483.133C349.857 482.161 349.328 481.309 348.663 480.576C347.99 479.834 347.236 479.229 346.401 478.76C345.565 478.292 344.705 477.972 343.818 477.802V476.165C344.875 476.353 345.911 476.715 346.925 477.252C347.939 477.78 348.859 478.479 349.686 479.349C350.504 480.209 351.156 481.228 351.642 482.404C352.119 483.572 352.358 484.888 352.358 486.354C352.358 488.536 351.804 490.458 350.696 492.12C349.58 493.782 348.011 495.086 345.991 496.032C343.972 496.969 341.611 497.438 338.909 497.438C336.207 497.438 333.847 496.969 331.827 496.032C329.807 495.086 328.243 493.782 327.135 492.12C326.018 490.458 325.46 488.536 325.46 486.354C325.46 484.888 325.703 483.572 326.189 482.404C326.666 481.228 327.314 480.209 328.132 479.349C328.942 478.479 329.854 477.78 330.868 477.252C331.882 476.715 332.926 476.353 334 476.165ZM339.267 469.013H352V470.572H325.818V469.013H335.47V468.859C334.447 468.399 333.634 467.666 333.028 466.66C332.415 465.646 332.108 464.432 332.108 463.017C332.108 461.696 332.389 460.532 332.952 459.527C333.506 458.521 334.303 457.737 335.342 457.175C336.374 456.604 337.609 456.318 339.05 456.318H352V457.865H339.114C337.435 457.865 336.088 458.363 335.074 459.361C334.06 460.358 333.553 461.675 333.553 463.311C333.553 464.41 333.791 465.39 334.268 466.251C334.746 467.112 335.415 467.79 336.276 468.284C337.128 468.77 338.125 469.013 339.267 469.013ZM352.422 444.662C352.422 445.796 352.196 446.835 351.744 447.781C351.293 448.719 350.632 449.473 349.763 450.044C348.893 450.607 347.837 450.888 346.592 450.888C345.774 450.888 345.054 450.743 344.432 450.453C343.81 450.164 343.273 449.716 342.821 449.111C342.369 448.506 341.999 447.73 341.709 446.784C341.411 445.838 341.18 444.709 341.018 443.396C340.899 442.399 340.784 441.509 340.673 440.725C340.554 439.941 340.371 439.327 340.124 438.884C339.876 438.432 339.501 438.206 338.999 438.206H338.18C336.749 438.206 335.611 438.658 334.767 439.561C333.923 440.465 333.501 441.709 333.501 443.294C333.501 444.7 333.812 445.885 334.435 446.848C335.048 447.803 335.841 448.472 336.812 448.855L336.263 450.325C335.325 449.95 334.545 449.409 333.923 448.702C333.301 447.986 332.837 447.168 332.53 446.247C332.223 445.318 332.07 444.347 332.07 443.333C332.07 442.455 332.193 441.619 332.44 440.827C332.688 440.026 333.062 439.314 333.565 438.692C334.068 438.061 334.712 437.563 335.496 437.196C336.271 436.83 337.2 436.646 338.283 436.646H352V438.206H348.459V438.321C349.192 438.662 349.861 439.131 350.466 439.727C351.062 440.316 351.54 441.027 351.898 441.862C352.247 442.689 352.422 443.622 352.422 444.662ZM350.977 444.509C350.977 443.281 350.679 442.195 350.082 441.249C349.477 440.294 348.651 439.548 347.602 439.012C346.554 438.475 345.365 438.206 344.036 438.206H341.146C341.317 438.402 341.47 438.688 341.607 439.063C341.734 439.429 341.849 439.847 341.952 440.316C342.045 440.776 342.131 441.262 342.207 441.773C342.276 442.276 342.339 442.766 342.399 443.243C342.57 444.675 342.834 445.843 343.192 446.746C343.541 447.641 344.001 448.297 344.572 448.715C345.143 449.124 345.834 449.328 346.643 449.328C347.982 449.328 349.038 448.868 349.814 447.948C350.589 447.027 350.977 445.881 350.977 444.509ZM332.364 423.166H333.757V431.744H332.364V423.166ZM327.659 428.842V427.295H347.359C348.161 427.295 348.817 427.142 349.328 426.835C349.831 426.519 350.206 426.11 350.453 425.607C350.692 425.096 350.811 424.551 350.811 423.971C350.811 423.69 350.79 423.447 350.747 423.242C350.705 423.029 350.649 422.829 350.581 422.642L352 422.258C352.085 422.497 352.158 422.761 352.217 423.051C352.286 423.34 352.32 423.681 352.32 424.073C352.32 424.892 352.136 425.667 351.77 426.4C351.403 427.124 350.871 427.713 350.172 428.164C349.473 428.616 348.629 428.842 347.641 428.842H327.659ZM352.409 399.956C352.409 401.575 351.974 403.016 351.105 404.277C350.227 405.539 349.021 406.531 347.487 407.256C345.953 407.98 344.206 408.343 342.246 408.343C340.277 408.343 338.53 407.98 337.004 407.256C335.47 406.531 334.264 405.539 333.386 404.277C332.509 403.016 332.07 401.575 332.07 399.956C332.07 398.337 332.509 396.896 333.386 395.635C334.264 394.374 335.47 393.381 337.004 392.656C338.538 391.932 340.286 391.57 342.246 391.57C344.206 391.57 345.953 391.932 347.487 392.656C349.021 393.381 350.227 394.374 351.105 395.635C351.974 396.896 352.409 398.337 352.409 399.956ZM350.964 399.956C350.964 398.584 350.577 397.387 349.801 396.364C349.026 395.333 347.977 394.536 346.656 393.973C345.335 393.402 343.865 393.117 342.246 393.117C340.626 393.117 339.161 393.402 337.848 393.973C336.527 394.544 335.479 395.341 334.703 396.364C333.919 397.387 333.527 398.584 333.527 399.956C333.527 401.328 333.919 402.526 334.703 403.548C335.479 404.571 336.527 405.368 337.848 405.939C339.161 406.51 340.626 406.796 342.246 406.796C343.865 406.796 345.335 406.514 346.656 405.952C347.977 405.381 349.026 404.584 349.801 403.561C350.577 402.53 350.964 401.328 350.964 399.956ZM352 386.197H332.364V384.676H335.432V384.535C334.426 384.109 333.621 383.389 333.016 382.375C332.402 381.361 332.095 380.206 332.095 378.91C332.095 378.774 332.095 378.638 332.095 378.501C332.095 378.365 332.099 378.237 332.108 378.118H333.68C333.672 378.22 333.659 378.344 333.642 378.488C333.616 378.625 333.604 378.795 333.604 379C333.604 380.091 333.838 381.062 334.307 381.915C334.776 382.758 335.423 383.423 336.25 383.909C337.068 384.395 338.006 384.638 339.062 384.638H352V386.197ZM332.364 356.861H333.757V365.439H332.364V356.861ZM327.659 362.537V360.99H347.359C348.161 360.99 348.817 360.837 349.328 360.53C349.831 360.215 350.206 359.806 350.453 359.303C350.692 358.791 350.811 358.246 350.811 357.666C350.811 357.385 350.79 357.142 350.747 356.938C350.705 356.725 350.649 356.524 350.581 356.337L352 355.953C352.085 356.192 352.158 356.456 352.217 356.746C352.286 357.036 352.32 357.377 352.32 357.769C352.32 358.587 352.136 359.362 351.77 360.095C351.403 360.82 350.871 361.408 350.172 361.86C349.473 362.311 348.629 362.537 347.641 362.537H327.659ZM352.422 345.873C352.422 347.007 352.196 348.046 351.744 348.992C351.293 349.93 350.632 350.684 349.763 351.255C348.893 351.818 347.837 352.099 346.592 352.099C345.774 352.099 345.054 351.954 344.432 351.664C343.81 351.374 343.273 350.927 342.821 350.322C342.369 349.717 341.999 348.941 341.709 347.995C341.411 347.049 341.18 345.92 341.018 344.607C340.899 343.61 340.784 342.72 340.673 341.936C340.554 341.151 340.371 340.538 340.124 340.095C339.876 339.643 339.501 339.417 338.999 339.417H338.18C336.749 339.417 335.611 339.869 334.767 340.772C333.923 341.676 333.501 342.92 333.501 344.505C333.501 345.911 333.812 347.096 334.435 348.059C335.048 349.014 335.841 349.683 336.812 350.066L336.263 351.536C335.325 351.161 334.545 350.62 333.923 349.913C333.301 349.197 332.837 348.379 332.53 347.458C332.223 346.529 332.07 345.558 332.07 344.544C332.07 343.666 332.193 342.83 332.44 342.038C332.688 341.237 333.062 340.525 333.565 339.903C334.068 339.272 334.712 338.774 335.496 338.407C336.271 338.041 337.2 337.857 338.283 337.857H352V339.417H348.459V339.532C349.192 339.873 349.861 340.342 350.466 340.938C351.062 341.526 351.54 342.238 351.898 343.073C352.247 343.9 352.422 344.833 352.422 345.873ZM350.977 345.72C350.977 344.492 350.679 343.406 350.082 342.46C349.477 341.505 348.651 340.759 347.602 340.222C346.554 339.686 345.365 339.417 344.036 339.417H341.146C341.317 339.613 341.47 339.899 341.607 340.274C341.734 340.64 341.849 341.058 341.952 341.526C342.045 341.987 342.131 342.472 342.207 342.984C342.276 343.487 342.339 343.977 342.399 344.454C342.57 345.886 342.834 347.053 343.192 347.957C343.541 348.852 344.001 349.508 344.572 349.926C345.143 350.335 345.834 350.539 346.643 350.539C347.982 350.539 349.038 350.079 349.814 349.159C350.589 348.238 350.977 347.092 350.977 345.72ZM344.33 329.963L342.092 329.989V329.58L332.364 319.762V317.729L341.312 326.742L341.376 326.895L344.33 329.963ZM352 331.318H325.818V329.759H352V331.318ZM352 319.314L341.53 327.598L340.494 326.473L352 317.32V319.314ZM352.409 306.258C352.409 308.031 351.97 309.574 351.092 310.886C350.214 312.199 349.013 313.213 347.487 313.929C345.962 314.645 344.223 315.003 342.271 315.003C340.311 315.003 338.564 314.645 337.03 313.929C335.496 313.204 334.286 312.211 333.399 310.95C332.513 309.689 332.07 308.248 332.07 306.629C332.07 305.53 332.291 304.49 332.734 303.51C333.169 302.521 333.8 301.652 334.626 300.902C335.453 300.143 336.45 299.551 337.618 299.125C338.786 298.69 340.098 298.473 341.555 298.473H342.527V314.018H341.108V300.032C339.685 300.032 338.402 300.322 337.26 300.902C336.118 301.481 335.21 302.27 334.537 303.267C333.864 304.264 333.527 305.385 333.527 306.629C333.527 307.933 333.893 309.096 334.626 310.119C335.351 311.133 336.331 311.939 337.567 312.535C338.803 313.123 340.183 313.43 341.709 313.456H342.348C343.984 313.456 345.455 313.17 346.759 312.599C348.054 312.02 349.081 311.193 349.839 310.119C350.589 309.045 350.964 307.758 350.964 306.258C350.964 305.184 350.786 304.268 350.428 303.51C350.061 302.743 349.618 302.116 349.098 301.631C348.578 301.145 348.075 300.778 347.589 300.531L348.165 299.112C348.821 299.41 349.477 299.875 350.134 300.506C350.781 301.128 351.322 301.92 351.757 302.883C352.192 303.838 352.409 304.963 352.409 306.258ZM359.773 275.896C359.773 277.115 359.611 278.21 359.287 279.182C358.972 280.153 358.52 280.98 357.932 281.662C357.344 282.335 356.645 282.851 355.835 283.209L355.068 281.905C355.699 281.615 356.261 281.202 356.756 280.665C357.25 280.128 357.638 279.463 357.919 278.67C358.2 277.869 358.341 276.944 358.341 275.896C358.341 274.004 357.851 272.508 356.871 271.409C355.899 270.301 354.408 269.747 352.396 269.747H347.513V269.9C348.365 270.199 349.124 270.642 349.788 271.23C350.445 271.809 350.96 272.521 351.335 273.365C351.71 274.209 351.898 275.167 351.898 276.241C351.898 277.792 351.497 279.156 350.696 280.332C349.895 281.508 348.77 282.425 347.321 283.081C345.864 283.737 344.151 284.065 342.182 284.065C340.213 284.065 338.47 283.746 336.953 283.106C335.428 282.459 334.234 281.547 333.374 280.371C332.504 279.194 332.07 277.814 332.07 276.229C332.07 275.095 332.287 274.115 332.722 273.288C333.148 272.453 333.714 271.754 334.422 271.192C335.129 270.629 335.905 270.194 336.749 269.888V269.709H332.364V268.2H352.46C354.097 268.2 355.456 268.524 356.538 269.172C357.621 269.811 358.43 270.71 358.967 271.869C359.504 273.02 359.773 274.362 359.773 275.896ZM350.453 276.101C350.453 274.788 350.121 273.659 349.456 272.713C348.783 271.758 347.828 271.025 346.592 270.514C345.348 269.994 343.874 269.734 342.169 269.734C340.516 269.734 339.037 269.986 337.733 270.488C336.429 270.991 335.402 271.72 334.652 272.675C333.902 273.629 333.527 274.771 333.527 276.101C333.527 277.456 333.911 278.611 334.678 279.565C335.436 280.52 336.467 281.253 337.771 281.764C339.075 282.267 340.541 282.518 342.169 282.518C343.805 282.518 345.246 282.263 346.49 281.751C347.726 281.24 348.697 280.507 349.405 279.552C350.104 278.598 350.453 277.447 350.453 276.101ZM345.033 249.059H332.364V247.499H352V249.059H348.817V249.187C349.831 249.647 350.658 250.393 351.297 251.424C351.936 252.447 352.256 253.657 352.256 255.055C352.256 256.342 351.974 257.48 351.412 258.468C350.849 259.457 350.053 260.232 349.021 260.795C347.982 261.357 346.746 261.639 345.314 261.639H332.364V260.079H345.25C346.886 260.079 348.212 259.585 349.226 258.596C350.232 257.599 350.734 256.312 350.734 254.735C350.734 253.713 350.504 252.771 350.044 251.91C349.584 251.049 348.928 250.359 348.075 249.839C347.214 249.319 346.2 249.059 345.033 249.059ZM352 240.96H332.364V239.414H352V240.96ZM328.886 240.181C328.886 240.521 328.767 240.82 328.528 241.075C328.29 241.323 328 241.446 327.659 241.446C327.318 241.446 327.028 241.323 326.79 241.075C326.551 240.828 326.432 240.53 326.432 240.181C326.432 239.84 326.551 239.546 326.79 239.298C327.028 239.043 327.318 238.915 327.659 238.915C328 238.915 328.29 239.039 328.528 239.286C328.767 239.533 328.886 239.831 328.886 240.181ZM352.409 226.144C352.409 227.72 351.974 229.097 351.105 230.273C350.236 231.449 349.038 232.361 347.513 233.009C345.979 233.648 344.219 233.968 342.233 233.968C340.264 233.968 338.517 233.644 336.991 232.996C335.457 232.34 334.256 231.423 333.386 230.247C332.509 229.071 332.07 227.699 332.07 226.131C332.07 225.006 332.287 224.03 332.722 223.203C333.148 222.368 333.714 221.669 334.422 221.107C335.129 220.536 335.905 220.101 336.749 219.803V219.649H325.818V218.102H352V219.611H347.717V219.803C348.561 220.118 349.341 220.557 350.057 221.119C350.764 221.682 351.335 222.381 351.77 223.216C352.196 224.051 352.409 225.027 352.409 226.144ZM350.964 226.003C350.964 224.673 350.585 223.536 349.827 222.59C349.06 221.635 348.02 220.906 346.707 220.404C345.386 219.892 343.891 219.637 342.22 219.637C340.55 219.637 339.062 219.892 337.759 220.404C336.446 220.906 335.415 221.635 334.665 222.59C333.906 223.536 333.527 224.673 333.527 226.003C333.527 227.35 333.911 228.504 334.678 229.468C335.436 230.422 336.472 231.155 337.784 231.666C339.097 232.169 340.575 232.421 342.22 232.421C343.865 232.421 345.348 232.169 346.669 231.666C347.99 231.155 349.038 230.422 349.814 229.468C350.581 228.504 350.964 227.35 350.964 226.003ZM352.422 205.881C352.422 207.014 352.196 208.054 351.744 209C351.293 209.938 350.632 210.692 349.763 211.263C348.893 211.825 347.837 212.107 346.592 212.107C345.774 212.107 345.054 211.962 344.432 211.672C343.81 211.382 343.273 210.935 342.821 210.33C342.369 209.725 341.999 208.949 341.709 208.003C341.411 207.057 341.18 205.928 341.018 204.615C340.899 203.618 340.784 202.727 340.673 201.943C340.554 201.159 340.371 200.546 340.124 200.102C339.876 199.651 339.501 199.425 338.999 199.425H338.18C336.749 199.425 335.611 199.877 334.767 200.78C333.923 201.683 333.501 202.928 333.501 204.513C333.501 205.919 333.812 207.104 334.435 208.067C335.048 209.021 335.841 209.691 336.812 210.074L336.263 211.544C335.325 211.169 334.545 210.628 333.923 209.921C333.301 209.205 332.837 208.387 332.53 207.466C332.223 206.537 332.07 205.566 332.07 204.551C332.07 203.673 332.193 202.838 332.44 202.046C332.688 201.244 333.062 200.533 333.565 199.911C334.068 199.28 334.712 198.781 335.496 198.415C336.271 198.048 337.2 197.865 338.283 197.865H352V199.425H348.459V199.54C349.192 199.881 349.861 200.35 350.466 200.946C351.062 201.534 351.54 202.246 351.898 203.081C352.247 203.908 352.422 204.841 352.422 205.881ZM350.977 205.727C350.977 204.5 350.679 203.414 350.082 202.468C349.477 201.513 348.651 200.767 347.602 200.23C346.554 199.693 345.365 199.425 344.036 199.425H341.146C341.317 199.621 341.47 199.906 341.607 200.281C341.734 200.648 341.849 201.066 341.952 201.534C342.045 201.994 342.131 202.48 342.207 202.992C342.276 203.494 342.339 203.985 342.399 204.462C342.57 205.894 342.834 207.061 343.192 207.965C343.541 208.86 344.001 209.516 344.572 209.933C345.143 210.343 345.834 210.547 346.643 210.547C347.982 210.547 349.038 210.087 349.814 209.166C350.589 208.246 350.977 207.1 350.977 205.727ZM339.267 189.767H352V191.326H332.364V189.805H335.47V189.651C334.456 189.191 333.642 188.454 333.028 187.44C332.415 186.426 332.108 185.22 332.108 183.822C332.108 182.501 332.389 181.342 332.952 180.345C333.514 179.339 334.315 178.555 335.355 177.992C336.386 177.421 337.618 177.136 339.05 177.136H352V178.695H339.114C337.443 178.695 336.101 179.194 335.087 180.191C334.064 181.18 333.553 182.488 333.553 184.116C333.553 185.207 333.791 186.178 334.268 187.031C334.746 187.883 335.415 188.552 336.276 189.038C337.128 189.524 338.125 189.767 339.267 189.767ZM352.409 163.291C352.409 164.961 351.97 166.431 351.092 167.701C350.206 168.971 348.996 169.964 347.462 170.68C345.928 171.387 344.189 171.741 342.246 171.741C340.303 171.741 338.564 171.383 337.03 170.667C335.496 169.951 334.286 168.958 333.399 167.688C332.513 166.419 332.07 164.957 332.07 163.303C332.07 162.059 332.325 160.926 332.837 159.903C333.348 158.872 334.06 158.019 334.972 157.346C335.884 156.664 336.94 156.23 338.142 156.042V157.627C336.812 157.883 335.713 158.522 334.844 159.545C333.966 160.559 333.527 161.808 333.527 163.291C333.527 164.62 333.902 165.805 334.652 166.845C335.393 167.884 336.42 168.703 337.733 169.299C339.037 169.896 340.533 170.194 342.22 170.194C343.882 170.194 345.374 169.904 346.695 169.325C348.007 168.745 349.047 167.936 349.814 166.896C350.581 165.856 350.964 164.654 350.964 163.291C350.964 162.328 350.773 161.45 350.389 160.657C350.006 159.856 349.46 159.187 348.753 158.65C348.045 158.113 347.219 157.759 346.273 157.589V156.004C347.483 156.191 348.548 156.617 349.469 157.282C350.389 157.947 351.109 158.795 351.629 159.826C352.149 160.857 352.409 162.012 352.409 163.291ZM352.409 143.028C352.409 144.801 351.97 146.343 351.092 147.656C350.214 148.968 349.013 149.982 347.487 150.698C345.962 151.414 344.223 151.772 342.271 151.772C340.311 151.772 338.564 151.414 337.03 150.698C335.496 149.974 334.286 148.981 333.399 147.72C332.513 146.458 332.07 145.018 332.07 143.399C332.07 142.299 332.291 141.259 332.734 140.279C333.169 139.291 333.8 138.421 334.626 137.671C335.453 136.913 336.45 136.32 337.618 135.894C338.786 135.46 340.098 135.242 341.555 135.242H342.527V150.788H341.108V136.802C339.685 136.802 338.402 137.092 337.26 137.671C336.118 138.251 335.21 139.039 334.537 140.036C333.864 141.034 333.527 142.154 333.527 143.399C333.527 144.703 333.893 145.866 334.626 146.889C335.351 147.903 336.331 148.708 337.567 149.305C338.803 149.893 340.183 150.2 341.709 150.225H342.348C343.984 150.225 345.455 149.94 346.759 149.369C348.054 148.789 349.081 147.963 349.839 146.889C350.589 145.815 350.964 144.528 350.964 143.028C350.964 141.954 350.786 141.038 350.428 140.279C350.061 139.512 349.618 138.886 349.098 138.4C348.578 137.914 348.075 137.548 347.589 137.301L348.165 135.882C348.821 136.18 349.477 136.644 350.134 137.275C350.781 137.897 351.322 138.69 351.757 139.653C352.192 140.607 352.409 141.732 352.409 143.028Z" fill="#343A40"/>
<rect x="400" y="500" width="150" height="10" transform="rotate(-90 400 500)" fill="#E9CC32"/>
<path d="M452 495.915H425.818V481.341H427.301V494.317H438.155V482.121H439.638V494.317H450.517V481.034H452V495.915ZM432.364 474.678L441.095 469.257L432.364 463.837V462.034L442.182 468.324L452 462.034V463.837L443.409 469.257L452 474.678V476.493L442.182 470.229L432.364 476.493V474.678ZM459.364 456.809H432.364V455.287H436.749V455.096C435.905 454.789 435.129 454.358 434.422 453.804C433.714 453.242 433.148 452.547 432.722 451.721C432.287 450.885 432.07 449.905 432.07 448.78C432.07 447.195 432.504 445.814 433.374 444.638C434.243 443.462 435.445 442.55 436.979 441.902C438.504 441.255 440.256 440.931 442.233 440.931C444.21 440.931 445.966 441.259 447.5 441.915C449.026 442.563 450.227 443.475 451.105 444.651C451.974 445.819 452.409 447.186 452.409 448.755C452.409 449.871 452.196 450.851 451.77 451.695C451.344 452.53 450.777 453.233 450.07 453.804C449.354 454.367 448.57 454.797 447.717 455.096V455.249H459.364V456.809ZM442.22 455.275C443.891 455.275 445.386 455.019 446.707 454.507C448.02 453.996 449.06 453.263 449.827 452.309C450.585 451.354 450.964 450.216 450.964 448.895C450.964 447.557 450.581 446.411 449.814 445.456C449.038 444.493 447.99 443.76 446.669 443.257C445.348 442.746 443.865 442.49 442.22 442.49C440.575 442.49 439.097 442.742 437.784 443.245C436.472 443.748 435.436 444.476 434.678 445.431C433.911 446.385 433.527 447.54 433.527 448.895C433.527 450.233 433.906 451.38 434.665 452.334C435.415 453.28 436.446 454.009 437.759 454.52C439.062 455.023 440.55 455.275 442.22 455.275ZM452.409 427.881C452.409 429.654 451.97 431.197 451.092 432.509C450.214 433.822 449.013 434.836 447.487 435.552C445.962 436.268 444.223 436.626 442.271 436.626C440.311 436.626 438.564 436.268 437.03 435.552C435.496 434.827 434.286 433.835 433.399 432.573C432.513 431.312 432.07 429.871 432.07 428.252C432.07 427.153 432.291 426.113 432.734 425.133C433.169 424.144 433.8 423.275 434.626 422.525C435.453 421.766 436.45 421.174 437.618 420.748C438.786 420.313 440.098 420.096 441.555 420.096H442.527V435.641H441.108V421.656C439.685 421.656 438.402 421.945 437.26 422.525C436.118 423.104 435.21 423.893 434.537 424.89C433.864 425.887 433.527 427.008 433.527 428.252C433.527 429.556 433.893 430.719 434.626 431.742C435.351 432.756 436.331 433.562 437.567 434.158C438.803 434.746 440.183 435.053 441.709 435.079H442.348C443.984 435.079 445.455 434.793 446.759 434.222C448.054 433.643 449.081 432.816 449.839 431.742C450.589 430.668 450.964 429.381 450.964 427.881C450.964 426.808 450.786 425.891 450.428 425.133C450.061 424.366 449.618 423.739 449.098 423.254C448.578 422.768 448.075 422.401 447.589 422.154L448.165 420.735C448.821 421.033 449.477 421.498 450.134 422.129C450.781 422.751 451.322 423.543 451.757 424.506C452.192 425.461 452.409 426.586 452.409 427.881ZM452 414.727H432.364V413.205H435.432V413.065C434.426 412.638 433.621 411.918 433.016 410.904C432.402 409.89 432.095 408.735 432.095 407.44C432.095 407.303 432.095 407.167 432.095 407.031C432.095 406.894 432.099 406.766 432.108 406.647H433.68C433.672 406.749 433.659 406.873 433.642 407.018C433.616 407.154 433.604 407.325 433.604 407.529C433.604 408.62 433.838 409.592 434.307 410.444C434.776 411.288 435.423 411.952 436.25 412.438C437.068 412.924 438.006 413.167 439.062 413.167H452V414.727ZM432.364 394.285H433.757V402.863H432.364V394.285ZM427.659 399.961V398.414H447.359C448.161 398.414 448.817 398.261 449.328 397.954C449.831 397.638 450.206 397.229 450.453 396.727C450.692 396.215 450.811 395.67 450.811 395.09C450.811 394.809 450.79 394.566 450.747 394.362C450.705 394.148 450.649 393.948 450.581 393.761L452 393.377C452.085 393.616 452.158 393.88 452.217 394.17C452.286 394.46 452.32 394.8 452.32 395.192C452.32 396.011 452.136 396.786 451.77 397.519C451.403 398.244 450.871 398.832 450.172 399.283C449.473 399.735 448.629 399.961 447.641 399.961H427.659ZM434 357.882V359.518C433.114 359.689 432.257 360.009 431.43 360.477C430.595 360.946 429.845 361.551 429.18 362.293C428.507 363.026 427.974 363.878 427.582 364.849C427.19 365.821 426.994 366.895 426.994 368.071C426.994 369.793 427.455 371.378 428.375 372.827C429.287 374.267 430.629 375.422 432.402 376.291C434.175 377.152 436.344 377.582 438.909 377.582C441.491 377.582 443.669 377.152 445.442 376.291C447.214 375.422 448.557 374.267 449.469 372.827C450.372 371.378 450.824 369.793 450.824 368.071C450.824 366.895 450.632 365.821 450.249 364.849C449.857 363.878 449.328 363.026 448.663 362.293C447.99 361.551 447.236 360.946 446.401 360.477C445.565 360.009 444.705 359.689 443.818 359.518V357.882C444.875 358.07 445.911 358.432 446.925 358.969C447.939 359.497 448.859 360.196 449.686 361.065C450.504 361.926 451.156 362.945 451.642 364.121C452.119 365.288 452.358 366.605 452.358 368.071C452.358 370.253 451.804 372.175 450.696 373.837C449.58 375.499 448.011 376.803 445.991 377.749C443.972 378.686 441.611 379.155 438.909 379.155C436.207 379.155 433.847 378.686 431.827 377.749C429.807 376.803 428.243 375.499 427.135 373.837C426.018 372.175 425.46 370.253 425.46 368.071C425.46 366.605 425.703 365.288 426.189 364.121C426.666 362.945 427.314 361.926 428.132 361.065C428.942 360.196 429.854 359.497 430.868 358.969C431.882 358.432 432.926 358.07 434 357.882ZM452.409 344.989C452.409 346.609 451.974 348.049 451.105 349.31C450.227 350.572 449.021 351.565 447.487 352.289C445.953 353.013 444.206 353.376 442.246 353.376C440.277 353.376 438.53 353.013 437.004 352.289C435.47 351.565 434.264 350.572 433.386 349.31C432.509 348.049 432.07 346.609 432.07 344.989C432.07 343.37 432.509 341.93 433.386 340.668C434.264 339.407 435.47 338.414 437.004 337.69C438.538 336.965 440.286 336.603 442.246 336.603C444.206 336.603 445.953 336.965 447.487 337.69C449.021 338.414 450.227 339.407 451.105 340.668C451.974 341.93 452.409 343.37 452.409 344.989ZM450.964 344.989C450.964 343.617 450.577 342.42 449.801 341.397C449.026 340.366 447.977 339.569 446.656 339.006C445.335 338.435 443.865 338.15 442.246 338.15C440.626 338.15 439.161 338.435 437.848 339.006C436.527 339.577 435.479 340.374 434.703 341.397C433.919 342.42 433.527 343.617 433.527 344.989C433.527 346.362 433.919 347.559 434.703 348.582C435.479 349.604 436.527 350.401 437.848 350.972C439.161 351.543 440.626 351.829 442.246 351.829C443.865 351.829 445.335 351.548 446.656 350.985C447.977 350.414 449.026 349.617 449.801 348.594C450.577 347.563 450.964 346.362 450.964 344.989ZM439.267 329.671H452V331.23H432.364V329.709H435.47V329.556C434.456 329.096 433.642 328.358 433.028 327.344C432.415 326.33 432.108 325.124 432.108 323.726C432.108 322.405 432.389 321.246 432.952 320.249C433.514 319.243 434.315 318.459 435.355 317.897C436.386 317.326 437.618 317.04 439.05 317.04H452V318.6H439.114C437.443 318.6 436.101 319.098 435.087 320.096C434.064 321.084 433.553 322.392 433.553 324.02C433.553 325.111 433.791 326.083 434.268 326.935C434.746 327.787 435.415 328.456 436.276 328.942C437.128 329.428 438.125 329.671 439.267 329.671ZM436.595 298.081L436.979 299.526C436.263 299.756 435.645 300.084 435.125 300.51C434.605 300.936 434.205 301.473 433.923 302.121C433.634 302.76 433.489 303.527 433.489 304.422C433.489 305.863 433.847 307.043 434.562 307.963C435.278 308.875 436.212 309.331 437.362 309.331C438.3 309.331 439.075 309.02 439.689 308.398C440.294 307.776 440.754 306.826 441.07 305.547L441.824 302.53C442.207 300.979 442.83 299.811 443.69 299.027C444.543 298.243 445.604 297.851 446.874 297.851C447.956 297.851 448.915 298.145 449.75 298.733C450.585 299.321 451.237 300.135 451.706 301.175C452.175 302.206 452.409 303.408 452.409 304.78C452.409 306.613 451.983 308.117 451.131 309.293C450.27 310.469 449.038 311.223 447.436 311.556L447.053 310.06C448.331 309.779 449.307 309.195 449.98 308.309C450.645 307.414 450.977 306.242 450.977 304.793C450.977 303.191 450.598 301.9 449.839 300.919C449.081 299.931 448.109 299.436 446.925 299.436C446.021 299.436 445.259 299.726 444.636 300.306C444.014 300.885 443.558 301.763 443.268 302.939L442.501 306.071C442.109 307.674 441.483 308.875 440.622 309.676C439.753 310.478 438.683 310.878 437.413 310.878C436.357 310.878 435.428 310.601 434.626 310.047C433.825 309.493 433.199 308.73 432.747 307.759C432.295 306.787 432.07 305.675 432.07 304.422C432.07 302.76 432.462 301.405 433.246 300.357C434.03 299.309 435.146 298.55 436.595 298.081ZM445.033 279.874H432.364V278.314H452V279.874H448.817V280.001C449.831 280.462 450.658 281.207 451.297 282.239C451.936 283.261 452.256 284.472 452.256 285.869C452.256 287.156 451.974 288.294 451.412 289.283C450.849 290.271 450.053 291.047 449.021 291.609C447.982 292.172 446.746 292.453 445.314 292.453H432.364V290.893H445.25C446.886 290.893 448.212 290.399 449.226 289.411C450.232 288.413 450.734 287.126 450.734 285.55C450.734 284.527 450.504 283.585 450.044 282.724C449.584 281.864 448.928 281.173 448.075 280.653C447.214 280.134 446.2 279.874 445.033 279.874ZM425.818 270.292H452V271.852H425.818V270.292ZM432.364 256.894H433.757V265.472H432.364V256.894ZM427.659 262.57V261.023H447.359C448.161 261.023 448.817 260.87 449.328 260.563C449.831 260.248 450.206 259.839 450.453 259.336C450.692 258.825 450.811 258.279 450.811 257.7C450.811 257.418 450.79 257.175 450.747 256.971C450.705 256.758 450.649 256.558 450.581 256.37L452 255.987C452.085 256.225 452.158 256.489 452.217 256.779C452.286 257.069 452.32 257.41 452.32 257.802C452.32 258.62 452.136 259.396 451.77 260.129C451.403 260.853 450.871 261.441 450.172 261.893C449.473 262.344 448.629 262.57 447.641 262.57H427.659ZM452.422 245.906C452.422 247.04 452.196 248.08 451.744 249.026C451.293 249.963 450.632 250.717 449.763 251.288C448.893 251.851 447.837 252.132 446.592 252.132C445.774 252.132 445.054 251.987 444.432 251.697C443.81 251.408 443.273 250.96 442.821 250.355C442.369 249.75 441.999 248.974 441.709 248.028C441.411 247.082 441.18 245.953 441.018 244.641C440.899 243.643 440.784 242.753 440.673 241.969C440.554 241.185 440.371 240.571 440.124 240.128C439.876 239.676 439.501 239.45 438.999 239.45H438.18C436.749 239.45 435.611 239.902 434.767 240.805C433.923 241.709 433.501 242.953 433.501 244.538C433.501 245.945 433.812 247.129 434.435 248.092C435.048 249.047 435.841 249.716 436.812 250.099L436.263 251.57C435.325 251.195 434.545 250.653 433.923 249.946C433.301 249.23 432.837 248.412 432.53 247.491C432.223 246.562 432.07 245.591 432.07 244.577C432.07 243.699 432.193 242.864 432.44 242.071C432.688 241.27 433.062 240.558 433.565 239.936C434.068 239.305 434.712 238.807 435.496 238.44C436.271 238.074 437.2 237.891 438.283 237.891H452V239.45H448.459V239.565C449.192 239.906 449.861 240.375 450.466 240.972C451.062 241.56 451.54 242.271 451.898 243.107C452.247 243.933 452.422 244.866 452.422 245.906ZM450.977 245.753C450.977 244.526 450.679 243.439 450.082 242.493C449.477 241.538 448.651 240.793 447.602 240.256C446.554 239.719 445.365 239.45 444.036 239.45H441.146C441.317 239.646 441.47 239.932 441.607 240.307C441.734 240.673 441.849 241.091 441.952 241.56C442.045 242.02 442.131 242.506 442.207 243.017C442.276 243.52 442.339 244.01 442.399 244.487C442.57 245.919 442.834 247.087 443.192 247.99C443.541 248.885 444.001 249.541 444.572 249.959C445.143 250.368 445.834 250.572 446.643 250.572C447.982 250.572 449.038 250.112 449.814 249.192C450.589 248.271 450.977 247.125 450.977 245.753ZM439.267 229.792H452V231.352H432.364V229.83H435.47V229.677C434.456 229.217 433.642 228.479 433.028 227.465C432.415 226.451 432.108 225.245 432.108 223.847C432.108 222.526 432.389 221.367 432.952 220.37C433.514 219.364 434.315 218.58 435.355 218.018C436.386 217.447 437.618 217.161 439.05 217.161H452V218.721H439.114C437.443 218.721 436.101 219.219 435.087 220.217C434.064 221.205 433.553 222.513 433.553 224.141C433.553 225.232 433.791 226.204 434.268 227.056C434.746 227.908 435.415 228.577 436.276 229.063C437.128 229.549 438.125 229.792 439.267 229.792ZM432.364 203.738H433.757V212.316H432.364V203.738ZM427.659 209.414V207.867H447.359C448.161 207.867 448.817 207.714 449.328 207.407C449.831 207.092 450.206 206.683 450.453 206.18C450.692 205.668 450.811 205.123 450.811 204.543C450.811 204.262 450.79 204.019 450.747 203.815C450.705 203.602 450.649 203.401 450.581 203.214L452 202.83C452.085 203.069 452.158 203.333 452.217 203.623C452.286 203.913 452.32 204.254 452.32 204.646C452.32 205.464 452.136 206.239 451.77 206.972C451.403 207.697 450.871 208.285 450.172 208.737C449.473 209.188 448.629 209.414 447.641 209.414H427.659ZM452 197.876H432.364V196.33H452V197.876ZM428.886 197.097C428.886 197.437 428.767 197.736 428.528 197.991C428.29 198.239 428 198.362 427.659 198.362C427.318 198.362 427.028 198.239 426.79 197.991C426.551 197.744 426.432 197.446 426.432 197.097C426.432 196.756 426.551 196.462 426.79 196.214C427.028 195.959 427.318 195.831 427.659 195.831C428 195.831 428.29 195.955 428.528 196.202C428.767 196.449 428.886 196.747 428.886 197.097ZM452.409 182.497C452.409 184.116 451.974 185.557 451.105 186.818C450.227 188.08 449.021 189.072 447.487 189.797C445.953 190.521 444.206 190.884 442.246 190.884C440.277 190.884 438.53 190.521 437.004 189.797C435.47 189.072 434.264 188.08 433.386 186.818C432.509 185.557 432.07 184.116 432.07 182.497C432.07 180.878 432.509 179.437 433.386 178.176C434.264 176.915 435.47 175.922 437.004 175.197C438.538 174.473 440.286 174.111 442.246 174.111C444.206 174.111 445.953 174.473 447.487 175.197C449.021 175.922 450.227 176.915 451.105 178.176C451.974 179.437 452.409 180.878 452.409 182.497ZM450.964 182.497C450.964 181.125 450.577 179.928 449.801 178.905C449.026 177.874 447.977 177.077 446.656 176.514C445.335 175.943 443.865 175.658 442.246 175.658C440.626 175.658 439.161 175.943 437.848 176.514C436.527 177.085 435.479 177.882 434.703 178.905C433.919 179.928 433.527 181.125 433.527 182.497C433.527 183.869 433.919 185.067 434.703 186.089C435.479 187.112 436.527 187.909 437.848 188.48C439.161 189.051 440.626 189.337 442.246 189.337C443.865 189.337 445.335 189.055 446.656 188.493C447.977 187.922 449.026 187.125 449.801 186.102C450.577 185.071 450.964 183.869 450.964 182.497ZM439.267 167.179H452V168.738H432.364V167.217H435.47V167.064C434.456 166.603 433.642 165.866 433.028 164.852C432.415 163.838 432.108 162.632 432.108 161.234C432.108 159.913 432.389 158.754 432.952 157.757C433.514 156.751 434.315 155.967 435.355 155.404C436.386 154.833 437.618 154.548 439.05 154.548H452V156.108H439.114C437.443 156.108 436.101 156.606 435.087 157.603C434.064 158.592 433.553 159.9 433.553 161.528C433.553 162.619 433.791 163.591 434.268 164.443C434.746 165.295 435.415 165.964 436.276 166.45C437.128 166.936 438.125 167.179 439.267 167.179Z" fill="#343A40"/>
<rect x="500" y="500" width="275" height="10" transform="rotate(-90 500 500)" fill="#343A40"/>
<path d="M538.909 474.895C541.611 474.895 543.972 475.363 545.991 476.301C548.003 477.238 549.567 478.542 550.683 480.213C551.8 481.875 552.358 483.792 552.358 485.966C552.358 488.147 551.8 490.074 550.683 491.744C549.558 493.406 547.99 494.706 545.979 495.643C543.959 496.581 541.602 497.049 538.909 497.049C536.207 497.049 533.851 496.581 531.839 495.643C529.828 494.697 528.264 493.393 527.148 491.731C526.023 490.069 525.46 488.147 525.46 485.966C525.46 483.792 526.018 481.875 527.135 480.213C528.251 478.542 529.82 477.238 531.839 476.301C533.851 475.363 536.207 474.895 538.909 474.895ZM538.909 476.454C536.48 476.454 534.375 476.863 532.594 477.681C530.812 478.491 529.436 479.612 528.464 481.044C527.484 482.475 526.994 484.116 526.994 485.966C526.994 487.815 527.48 489.456 528.452 490.887C529.415 492.319 530.791 493.444 532.581 494.262C534.362 495.072 536.472 495.477 538.909 495.477C541.321 495.477 543.422 495.076 545.212 494.275C546.993 493.466 548.374 492.345 549.354 490.913C550.334 489.481 550.824 487.832 550.824 485.966C550.824 484.116 550.338 482.475 549.366 481.044C548.386 479.612 547.006 478.491 545.224 477.681C543.443 476.863 541.338 476.454 538.909 476.454ZM532.364 462.257H533.757V470.836H532.364V462.257ZM527.659 467.934V466.387H547.359C548.161 466.387 548.817 466.233 549.328 465.926C549.831 465.611 550.206 465.202 550.453 464.699C550.692 464.188 550.811 463.642 550.811 463.063C550.811 462.782 550.79 462.539 550.747 462.334C550.705 462.121 550.649 461.921 550.581 461.733L552 461.35C552.085 461.588 552.158 461.853 552.217 462.142C552.286 462.432 552.32 462.773 552.32 463.165C552.32 463.983 552.136 464.759 551.77 465.492C551.403 466.216 550.871 466.804 550.172 467.256C549.473 467.708 548.629 467.934 547.641 467.934H527.659ZM539.267 454.491H552V456.051H525.818V454.491H535.47V454.338C534.447 453.877 533.634 453.145 533.028 452.139C532.415 451.125 532.108 449.91 532.108 448.495C532.108 447.174 532.389 446.011 532.952 445.005C533.506 444 534.303 443.216 535.342 442.653C536.374 442.082 537.609 441.797 539.05 441.797H552V443.343H539.114C537.435 443.343 536.088 443.842 535.074 444.839C534.06 445.836 533.553 447.153 533.553 448.789C533.553 449.889 533.791 450.869 534.268 451.73C534.746 452.591 535.415 453.268 536.276 453.762C537.128 454.248 538.125 454.491 539.267 454.491ZM552.409 427.686C552.409 429.459 551.97 431.001 551.092 432.314C550.214 433.626 549.013 434.641 547.487 435.357C545.962 436.072 544.223 436.43 542.271 436.43C540.311 436.43 538.564 436.072 537.03 435.357C535.496 434.632 534.286 433.639 533.399 432.378C532.513 431.116 532.07 429.676 532.07 428.057C532.07 426.957 532.291 425.918 532.734 424.938C533.169 423.949 533.8 423.08 534.626 422.33C535.453 421.571 536.45 420.979 537.618 420.553C538.786 420.118 540.098 419.901 541.555 419.901H542.527V435.446H541.108V421.46C539.685 421.46 538.402 421.75 537.26 422.33C536.118 422.909 535.21 423.697 534.537 424.695C533.864 425.692 533.527 426.812 533.527 428.057C533.527 429.361 533.893 430.524 534.626 431.547C535.351 432.561 536.331 433.366 537.567 433.963C538.803 434.551 540.183 434.858 541.709 434.884H542.348C543.984 434.884 545.455 434.598 546.759 434.027C548.054 433.447 549.081 432.621 549.839 431.547C550.589 430.473 550.964 429.186 550.964 427.686C550.964 426.612 550.786 425.696 550.428 424.938C550.061 424.17 549.618 423.544 549.098 423.058C548.578 422.572 548.075 422.206 547.589 421.959L548.165 420.54C548.821 420.838 549.477 421.303 550.134 421.933C550.781 422.555 551.322 423.348 551.757 424.311C552.192 425.266 552.409 426.391 552.409 427.686ZM552 414.531H532.364V413.01H535.432V412.869C534.426 412.443 533.621 411.723 533.016 410.709C532.402 409.695 532.095 408.54 532.095 407.244C532.095 407.108 532.095 406.972 532.095 406.835C532.095 406.699 532.099 406.571 532.108 406.452H533.68C533.672 406.554 533.659 406.678 533.642 406.822C533.616 406.959 533.604 407.129 533.604 407.334C533.604 408.425 533.838 409.396 534.307 410.249C534.776 411.092 535.423 411.757 536.25 412.243C537.068 412.729 538.006 412.972 539.062 412.972H552V414.531Z" fill="#343A40"/>
</svg>
