<svg width="563" height="500" viewBox="0 0 563 500" fill="none" xmlns="http://www.w3.org/2000/svg">
<rect y="500" width="400" height="10" transform="rotate(-90 0 500)" fill="#C43739"/>
<path d="M52 496.114H25.8182V487.613C25.8182 486.028 26.0994 484.69 26.6619 483.599C27.2244 482.508 28.0128 481.681 29.027 481.119C30.0412 480.548 31.2216 480.262 32.5682 480.262C33.625 480.262 34.5625 480.433 35.3807 480.773C36.1989 481.114 36.8764 481.592 37.4134 482.205C37.9418 482.81 38.3082 483.522 38.5128 484.34H38.6662C38.7344 483.437 39.0497 482.597 39.6122 481.822C40.1662 481.046 40.9205 480.424 41.875 479.955C42.8295 479.478 43.9418 479.239 45.2116 479.239C46.5497 479.239 47.7301 479.529 48.7528 480.109C49.767 480.68 50.5639 481.536 51.1435 482.678C51.7145 483.82 52 485.235 52 486.923V496.114ZM50.517 494.516V486.923C50.517 484.954 50.0227 483.441 49.0341 482.384C48.0455 481.319 46.7713 480.786 45.2116 480.786C44.1122 480.786 43.1278 481.046 42.2585 481.566C41.3892 482.077 40.7031 482.789 40.2003 483.701C39.6889 484.613 39.4332 485.67 39.4332 486.871V494.516H50.517ZM37.9759 494.516V487.063C37.9759 485.947 37.733 485.001 37.2472 484.225C36.7614 483.441 36.1094 482.844 35.2912 482.435C34.473 482.018 33.5653 481.809 32.5682 481.809C30.9489 481.809 29.6662 482.312 28.7202 483.317C27.7741 484.323 27.3011 485.755 27.3011 487.613V494.516H37.9759ZM25.8182 471.936H52V473.496H25.8182V471.936ZM52.4091 458.181C52.4091 459.8 51.9744 461.24 51.1051 462.502C50.2273 463.763 49.0213 464.756 47.4872 465.48C45.9531 466.205 44.206 466.567 42.2457 466.567C40.277 466.567 38.5298 466.205 37.0043 465.48C35.4702 464.756 34.2642 463.763 33.3864 462.502C32.5085 461.24 32.0696 459.8 32.0696 458.181C32.0696 456.561 32.5085 455.121 33.3864 453.86C34.2642 452.598 35.4702 451.605 37.0043 450.881C38.5384 450.157 40.2855 449.794 42.2457 449.794C44.206 449.794 45.9531 450.157 47.4872 450.881C49.0213 451.605 50.2273 452.598 51.1051 453.86C51.9744 455.121 52.4091 456.561 52.4091 458.181ZM50.9645 458.181C50.9645 456.809 50.5767 455.611 49.8011 454.588C49.0256 453.557 47.9773 452.76 46.6562 452.198C45.3352 451.627 43.8651 451.341 42.2457 451.341C40.6264 451.341 39.1605 451.627 37.848 452.198C36.527 452.769 35.4787 453.566 34.7031 454.588C33.919 455.611 33.527 456.809 33.527 458.181C33.527 459.553 33.919 460.75 34.7031 461.773C35.4787 462.796 36.527 463.593 37.848 464.164C39.1605 464.735 40.6264 465.02 42.2457 465.02C43.8651 465.02 45.3352 464.739 46.6562 464.176C47.9773 463.605 49.0256 462.809 49.8011 461.786C50.5767 460.755 50.9645 459.553 50.9645 458.181ZM52.4091 437.122C52.4091 438.741 51.9744 440.182 51.1051 441.443C50.2273 442.705 49.0213 443.697 47.4872 444.422C45.9531 445.146 44.206 445.509 42.2457 445.509C40.277 445.509 38.5298 445.146 37.0043 444.422C35.4702 443.697 34.2642 442.705 33.3864 441.443C32.5085 440.182 32.0696 438.741 32.0696 437.122C32.0696 435.503 32.5085 434.062 33.3864 432.801C34.2642 431.54 35.4702 430.547 37.0043 429.822C38.5384 429.098 40.2855 428.736 42.2457 428.736C44.206 428.736 45.9531 429.098 47.4872 429.822C49.0213 430.547 50.2273 431.54 51.1051 432.801C51.9744 434.062 52.4091 435.503 52.4091 437.122ZM50.9645 437.122C50.9645 435.75 50.5767 434.553 49.8011 433.53C49.0256 432.499 47.9773 431.702 46.6562 431.139C45.3352 430.568 43.8651 430.283 42.2457 430.283C40.6264 430.283 39.1605 430.568 37.848 431.139C36.527 431.71 35.4787 432.507 34.7031 433.53C33.919 434.553 33.527 435.75 33.527 437.122C33.527 438.494 33.919 439.692 34.7031 440.714C35.4787 441.737 36.527 442.534 37.848 443.105C39.1605 443.676 40.6264 443.962 42.2457 443.962C43.8651 443.962 45.3352 443.68 46.6562 443.118C47.9773 442.547 49.0256 441.75 49.8011 440.727C50.5767 439.696 50.9645 438.494 50.9645 437.122ZM52.4091 416.626C52.4091 418.203 51.9744 419.579 51.1051 420.755C50.2358 421.931 49.0384 422.843 47.5128 423.491C45.9787 424.13 44.2188 424.45 42.233 424.45C40.2642 424.45 38.517 424.126 36.9915 423.478C35.4574 422.822 34.2557 421.906 33.3864 420.73C32.5085 419.554 32.0696 418.181 32.0696 416.613C32.0696 415.488 32.2869 414.512 32.7216 413.686C33.1477 412.85 33.7145 412.152 34.4219 411.589C35.1293 411.018 35.9048 410.583 36.7486 410.285V410.132H25.8182V408.585H52V410.093H47.7173V410.285C48.5611 410.6 49.3409 411.039 50.0568 411.602C50.7642 412.164 51.3352 412.863 51.7699 413.699C52.196 414.534 52.4091 415.51 52.4091 416.626ZM50.9645 416.485C50.9645 415.156 50.5852 414.018 49.8267 413.072C49.0597 412.118 48.0199 411.389 46.7074 410.886C45.3864 410.375 43.8906 410.119 42.2202 410.119C40.5497 410.119 39.0625 410.375 37.7585 410.886C36.446 411.389 35.4148 412.118 34.6648 413.072C33.9062 414.018 33.527 415.156 33.527 416.485C33.527 417.832 33.9105 418.987 34.6776 419.95C35.4361 420.904 36.4716 421.637 37.7841 422.149C39.0966 422.652 40.5753 422.903 42.2202 422.903C43.8651 422.903 45.348 422.652 46.669 422.149C47.9901 421.637 49.0384 420.904 49.8139 419.95C50.581 418.987 50.9645 417.832 50.9645 416.485ZM38.9091 370.066C41.6108 370.066 43.9716 370.535 45.9915 371.473C48.0028 372.41 49.5668 373.714 50.6832 375.385C51.7997 377.047 52.358 378.964 52.358 381.137C52.358 383.319 51.7997 385.245 50.6832 386.916C49.5582 388.578 47.9901 389.877 45.9787 390.815C43.9588 391.752 41.6023 392.221 38.9091 392.221C36.2074 392.221 33.8509 391.752 31.8395 390.815C29.8281 389.869 28.2642 388.565 27.1477 386.903C26.0227 385.241 25.4602 383.319 25.4602 381.137C25.4602 378.964 26.0185 377.047 27.1349 375.385C28.2514 373.714 29.8196 372.41 31.8395 371.473C33.8509 370.535 36.2074 370.066 38.9091 370.066ZM38.9091 371.626C36.4801 371.626 34.375 372.035 32.5938 372.853C30.8125 373.663 29.4361 374.784 28.4645 376.216C27.4844 377.647 26.9943 379.288 26.9943 381.137C26.9943 382.987 27.4801 384.627 28.4517 386.059C29.4148 387.491 30.7912 388.616 32.581 389.434C34.3622 390.244 36.4716 390.649 38.9091 390.649C41.321 390.649 43.4219 390.248 45.2116 389.447C46.9929 388.637 48.3736 387.517 49.3537 386.085C50.3338 384.653 50.8239 383.004 50.8239 381.137C50.8239 379.288 50.3381 377.647 49.3665 376.216C48.3864 374.784 47.0057 373.663 45.2244 372.853C43.4432 372.035 41.3381 371.626 38.9091 371.626ZM32.3636 363.783L41.0952 358.363L32.3636 352.942V351.14L42.1818 357.429L52 351.14V352.942L43.4091 358.363L52 363.783V365.598L42.1818 359.334L32.3636 365.598V363.783ZM52 345.837H32.3636V344.29H52V345.837ZM28.8864 345.058C28.8864 345.398 28.767 345.697 28.5284 345.952C28.2898 346.2 28 346.323 27.6591 346.323C27.3182 346.323 27.0284 346.2 26.7898 345.952C26.5511 345.705 26.4318 345.407 26.4318 345.058C26.4318 344.717 26.5511 344.423 26.7898 344.175C27.0284 343.92 27.3182 343.792 27.6591 343.792C28 343.792 28.2898 343.915 28.5284 344.163C28.767 344.41 28.8864 344.708 28.8864 345.058ZM52 337.758H32.3636V336.237H35.3295V336.083C34.3409 335.708 33.5568 335.06 32.9773 334.14C32.3977 333.219 32.108 332.112 32.108 330.816C32.108 329.393 32.4489 328.246 33.1307 327.377C33.8125 326.499 34.7372 325.869 35.9048 325.485V325.344C34.7543 324.961 33.8338 324.275 33.1435 323.286C32.4531 322.289 32.108 321.062 32.108 319.604C32.108 317.704 32.7088 316.255 33.9105 315.258C35.1037 314.252 36.7401 313.749 38.8196 313.749H52V315.309H38.8196C37.1832 315.309 35.8963 315.701 34.9588 316.485C34.0213 317.269 33.5526 318.42 33.5526 319.937C33.5526 321.556 34.0597 322.8 35.0739 323.67C36.0881 324.539 37.3793 324.974 38.9474 324.974H52L52 326.533H38.7173C37.1918 326.533 35.9517 326.917 34.9972 327.684C34.0341 328.451 33.5526 329.602 33.5526 331.136C33.5526 332.175 33.7912 333.075 34.2685 333.833C34.7457 334.583 35.402 335.167 36.2372 335.585C37.0724 335.994 38.0312 336.198 39.1136 336.198H52V337.758ZM52.4091 299.62C52.4091 301.392 51.9702 302.935 51.0923 304.248C50.2145 305.56 49.0128 306.574 47.4872 307.29C45.9616 308.006 44.223 308.364 42.2713 308.364C40.3111 308.364 38.5639 308.006 37.0298 307.29C35.4957 306.566 34.2855 305.573 33.3991 304.311C32.5128 303.05 32.0696 301.61 32.0696 299.99C32.0696 298.891 32.2912 297.851 32.7344 296.871C33.169 295.882 33.7997 295.013 34.6264 294.263C35.4531 293.505 36.4503 292.912 37.6179 292.486C38.7855 292.051 40.098 291.834 41.5554 291.834H42.527V307.38H41.108V293.394C39.6847 293.394 38.402 293.684 37.2599 294.263C36.1179 294.843 35.2102 295.631 34.5369 296.628C33.8636 297.625 33.527 298.746 33.527 299.99C33.527 301.294 33.8935 302.458 34.6264 303.48C35.3509 304.495 36.331 305.3 37.5668 305.897C38.8026 306.485 40.1832 306.792 41.7088 306.817H42.348C43.9844 306.817 45.4545 306.532 46.7585 305.961C48.054 305.381 49.081 304.554 49.8395 303.48C50.5895 302.407 50.9645 301.12 50.9645 299.62C50.9645 298.546 50.7855 297.63 50.4276 296.871C50.0611 296.104 49.6179 295.478 49.098 294.992C48.5781 294.506 48.0753 294.14 47.5895 293.892L48.1648 292.473C48.821 292.772 49.4773 293.236 50.1335 293.867C50.7812 294.489 51.3224 295.282 51.7571 296.245C52.1918 297.199 52.4091 298.324 52.4091 299.62ZM32.3636 279.523H33.7571V288.101H32.3636V279.523ZM27.6591 285.199V283.652H47.3594C48.1605 283.652 48.8168 283.499 49.3281 283.192C49.831 282.877 50.206 282.468 50.4531 281.965C50.6918 281.453 50.8111 280.908 50.8111 280.328C50.8111 280.047 50.7898 279.804 50.7472 279.6C50.7045 279.387 50.6491 279.186 50.581 278.999L52 278.615C52.0852 278.854 52.1577 279.118 52.2173 279.408C52.2855 279.698 52.3196 280.039 52.3196 280.431C52.3196 281.249 52.1364 282.025 51.7699 282.757C51.4034 283.482 50.8707 284.07 50.1719 284.522C49.473 284.973 48.6293 285.199 47.6406 285.199H27.6591ZM52.4091 266.292C52.4091 268.064 51.9702 269.607 51.0923 270.919C50.2145 272.232 49.0128 273.246 47.4872 273.962C45.9616 274.678 44.223 275.036 42.2713 275.036C40.3111 275.036 38.5639 274.678 37.0298 273.962C35.4957 273.238 34.2855 272.245 33.3991 270.983C32.5128 269.722 32.0696 268.282 32.0696 266.662C32.0696 265.563 32.2912 264.523 32.7344 263.543C33.169 262.554 33.7997 261.685 34.6264 260.935C35.4531 260.176 36.4503 259.584 37.6179 259.158C38.7855 258.723 40.098 258.506 41.5554 258.506H42.527V274.051H41.108V260.066C39.6847 260.066 38.402 260.355 37.2599 260.935C36.1179 261.515 35.2102 262.303 34.5369 263.3C33.8636 264.297 33.527 265.418 33.527 266.662C33.527 267.966 33.8935 269.13 34.6264 270.152C35.3509 271.167 36.331 271.972 37.5668 272.569C38.8026 273.157 40.1832 273.463 41.7088 273.489H42.348C43.9844 273.489 45.4545 273.203 46.7585 272.632C48.054 272.053 49.081 271.226 49.8395 270.152C50.5895 269.078 50.9645 267.792 50.9645 266.292C50.9645 265.218 50.7855 264.301 50.4276 263.543C50.0611 262.776 49.6179 262.15 49.098 261.664C48.5781 261.178 48.0753 260.811 47.5895 260.564L48.1648 259.145C48.821 259.444 49.4773 259.908 50.1335 260.539C50.7812 261.161 51.3224 261.953 51.7571 262.917C52.1918 263.871 52.4091 264.996 52.4091 266.292ZM52 253.137H32.3636V251.615H35.4318V251.475C34.4261 251.049 33.6207 250.328 33.0156 249.314C32.402 248.3 32.0952 247.145 32.0952 245.85C32.0952 245.713 32.0952 245.577 32.0952 245.441C32.0952 245.304 32.0994 245.176 32.108 245.057H33.6804C33.6719 245.159 33.6591 245.283 33.642 245.428C33.6165 245.564 33.6037 245.735 33.6037 245.939C33.6037 247.03 33.8381 248.002 34.3068 248.854C34.7756 249.698 35.4233 250.363 36.25 250.848C37.0682 251.334 38.0057 251.577 39.0625 251.577H52V253.137Z" fill="#343A40"/>
<rect x="100" y="500" width="450" height="10" transform="rotate(-90 100 500)" fill="#0E8F8D"/>
<path d="M134 477.441C133.114 477.637 132.257 477.969 131.43 478.438C130.595 478.907 129.845 479.508 129.18 480.241C128.507 480.965 127.974 481.817 127.582 482.798C127.19 483.769 126.994 484.86 126.994 486.07C126.994 487.92 127.48 489.56 128.452 490.992C129.415 492.415 130.791 493.532 132.581 494.342C134.362 495.143 136.472 495.543 138.909 495.543C141.321 495.543 143.422 495.143 145.212 494.342C147.001 493.54 148.386 492.42 149.366 490.979C150.338 489.531 150.824 487.847 150.824 485.93C150.824 484.217 150.428 482.7 149.635 481.379C148.842 480.049 147.709 479.013 146.234 478.272C144.76 477.531 142.996 477.168 140.942 477.185L141.21 476.623V485.521H139.727V475.626H141.21C143.52 475.626 145.51 476.069 147.18 476.955C148.842 477.833 150.121 479.052 151.016 480.612C151.911 482.163 152.358 483.935 152.358 485.93C152.358 488.18 151.8 490.144 150.683 491.823C149.567 493.502 148.003 494.806 145.991 495.735C143.972 496.656 141.611 497.116 138.909 497.116C136.881 497.116 135.04 496.852 133.386 496.323C131.733 495.795 130.318 495.04 129.142 494.06C127.957 493.08 127.05 491.913 126.419 490.558C125.78 489.202 125.46 487.707 125.46 486.07C125.46 484.587 125.707 483.254 126.202 482.069C126.687 480.884 127.344 479.862 128.17 479.001C128.989 478.131 129.905 477.428 130.919 476.891C131.925 476.354 132.952 475.992 134 475.805V477.441ZM125.818 468.128H152V469.688H125.818V468.128ZM145.033 449.092H132.364V447.533H152V449.092H148.817V449.22C149.831 449.68 150.658 450.426 151.297 451.457C151.936 452.48 152.256 453.69 152.256 455.088C152.256 456.375 151.974 457.513 151.412 458.501C150.849 459.49 150.053 460.266 149.021 460.828C147.982 461.391 146.746 461.672 145.314 461.672H132.364V460.112H145.25C146.886 460.112 148.212 459.618 149.226 458.629C150.232 457.632 150.734 456.345 150.734 454.768C150.734 453.746 150.504 452.804 150.044 451.943C149.584 451.082 148.928 450.392 148.075 449.872C147.214 449.352 146.2 449.092 145.033 449.092ZM152.409 433.707C152.409 435.377 151.97 436.847 151.092 438.117C150.206 439.387 148.996 440.38 147.462 441.096C145.928 441.803 144.189 442.157 142.246 442.157C140.303 442.157 138.564 441.799 137.03 441.083C135.496 440.367 134.286 439.374 133.399 438.104C132.513 436.835 132.07 435.373 132.07 433.719C132.07 432.475 132.325 431.342 132.837 430.319C133.348 429.288 134.06 428.435 134.972 427.762C135.884 427.08 136.94 426.646 138.142 426.458V428.043C136.812 428.299 135.713 428.938 134.844 429.961C133.966 430.975 133.527 432.224 133.527 433.707C133.527 435.036 133.902 436.221 134.652 437.261C135.393 438.3 136.42 439.119 137.733 439.715C139.037 440.312 140.533 440.61 142.22 440.61C143.882 440.61 145.374 440.32 146.695 439.741C148.007 439.161 149.047 438.352 149.814 437.312C150.581 436.272 150.964 435.07 150.964 433.707C150.964 432.744 150.773 431.866 150.389 431.073C150.006 430.272 149.46 429.603 148.753 429.066C148.045 428.529 147.219 428.175 146.273 428.005V426.42C147.483 426.607 148.548 427.033 149.469 427.698C150.389 428.363 151.109 429.211 151.629 430.242C152.149 431.273 152.409 432.428 152.409 433.707ZM152.409 413.802C152.409 415.421 151.974 416.862 151.105 418.123C150.227 419.384 149.021 420.377 147.487 421.102C145.953 421.826 144.206 422.188 142.246 422.188C140.277 422.188 138.53 421.826 137.004 421.102C135.47 420.377 134.264 419.384 133.386 418.123C132.509 416.862 132.07 415.421 132.07 413.802C132.07 412.183 132.509 410.742 133.386 409.481C134.264 408.219 135.47 407.227 137.004 406.502C138.538 405.778 140.286 405.415 142.246 405.415C144.206 405.415 145.953 405.778 147.487 406.502C149.021 407.227 150.227 408.219 151.105 409.481C151.974 410.742 152.409 412.183 152.409 413.802ZM150.964 413.802C150.964 412.43 150.577 411.232 149.801 410.21C149.026 409.178 147.977 408.381 146.656 407.819C145.335 407.248 143.865 406.962 142.246 406.962C140.626 406.962 139.161 407.248 137.848 407.819C136.527 408.39 135.479 409.187 134.703 410.21C133.919 411.232 133.527 412.43 133.527 413.802C133.527 415.174 133.919 416.371 134.703 417.394C135.479 418.417 136.527 419.214 137.848 419.785C139.161 420.356 140.626 420.641 142.246 420.641C143.865 420.641 145.335 420.36 146.656 419.798C147.977 419.227 149.026 418.43 149.801 417.407C150.577 416.376 150.964 415.174 150.964 413.802ZM136.595 387.566L136.979 389.01C136.263 389.24 135.645 389.569 135.125 389.995C134.605 390.421 134.205 390.958 133.923 391.605C133.634 392.245 133.489 393.012 133.489 393.907C133.489 395.347 133.847 396.527 134.562 397.448C135.278 398.36 136.212 398.816 137.362 398.816C138.3 398.816 139.075 398.505 139.689 397.882C140.294 397.26 140.754 396.31 141.07 395.032L141.824 392.015C142.207 390.463 142.83 389.296 143.69 388.512C144.543 387.728 145.604 387.336 146.874 387.336C147.956 387.336 148.915 387.63 149.75 388.218C150.585 388.806 151.237 389.62 151.706 390.659C152.175 391.691 152.409 392.892 152.409 394.265C152.409 396.097 151.983 397.601 151.131 398.777C150.27 399.953 149.038 400.708 147.436 401.04L147.053 399.544C148.331 399.263 149.307 398.679 149.98 397.793C150.645 396.898 150.977 395.726 150.977 394.277C150.977 392.675 150.598 391.384 149.839 390.404C149.081 389.415 148.109 388.921 146.925 388.921C146.021 388.921 145.259 389.211 144.636 389.79C144.014 390.37 143.558 391.248 143.268 392.424L142.501 395.556C142.109 397.158 141.483 398.36 140.622 399.161C139.753 399.962 138.683 400.363 137.413 400.363C136.357 400.363 135.428 400.086 134.626 399.532C133.825 398.978 133.199 398.215 132.747 397.243C132.295 396.272 132.07 395.159 132.07 393.907C132.07 392.245 132.462 390.89 133.246 389.841C134.03 388.793 135.146 388.034 136.595 387.566ZM152.409 374.28C152.409 376.053 151.97 377.595 151.092 378.908C150.214 380.22 149.013 381.234 147.487 381.95C145.962 382.666 144.223 383.024 142.271 383.024C140.311 383.024 138.564 382.666 137.03 381.95C135.496 381.226 134.286 380.233 133.399 378.972C132.513 377.71 132.07 376.27 132.07 374.651C132.07 373.551 132.291 372.511 132.734 371.531C133.169 370.543 133.8 369.673 134.626 368.923C135.453 368.165 136.45 367.572 137.618 367.146C138.786 366.712 140.098 366.494 141.555 366.494H142.527V382.04H141.108V368.054C139.685 368.054 138.402 368.344 137.26 368.923C136.118 369.503 135.21 370.291 134.537 371.288C133.864 372.286 133.527 373.406 133.527 374.651C133.527 375.955 133.893 377.118 134.626 378.141C135.351 379.155 136.331 379.96 137.567 380.557C138.803 381.145 140.183 381.452 141.709 381.477H142.348C143.984 381.477 145.455 381.192 146.759 380.621C148.054 380.041 149.081 379.214 149.839 378.141C150.589 377.067 150.964 375.78 150.964 374.28C150.964 373.206 150.786 372.29 150.428 371.531C150.061 370.764 149.618 370.138 149.098 369.652C148.578 369.166 148.075 368.8 147.589 368.553L148.165 367.134C148.821 367.432 149.477 367.896 150.134 368.527C150.781 369.149 151.322 369.942 151.757 370.905C152.192 371.859 152.409 372.984 152.409 374.28ZM125.818 350.45V348.712L149.699 338.625V338.446L125.818 328.359V326.621H152V328.155H129.615V328.308L152 337.781V339.29L129.615 348.763V348.916H152V350.45H125.818ZM152.409 311.948C152.409 313.721 151.97 315.263 151.092 316.576C150.214 317.888 149.013 318.902 147.487 319.618C145.962 320.334 144.223 320.692 142.271 320.692C140.311 320.692 138.564 320.334 137.03 319.618C135.496 318.894 134.286 317.901 133.399 316.64C132.513 315.378 132.07 313.938 132.07 312.319C132.07 311.219 132.291 310.179 132.734 309.199C133.169 308.211 133.8 307.341 134.626 306.591C135.453 305.833 136.45 305.24 137.618 304.814C138.786 304.38 140.098 304.162 141.555 304.162H142.527V319.708H141.108V305.722C139.685 305.722 138.402 306.012 137.26 306.591C136.118 307.171 135.21 307.959 134.537 308.956C133.864 309.953 133.527 311.074 133.527 312.319C133.527 313.623 133.893 314.786 134.626 315.809C135.351 316.823 136.331 317.628 137.567 318.225C138.803 318.813 140.183 319.12 141.709 319.145H142.348C143.984 319.145 145.455 318.86 146.759 318.289C148.054 317.709 149.081 316.882 149.839 315.809C150.589 314.735 150.964 313.448 150.964 311.948C150.964 310.874 150.786 309.958 150.428 309.199C150.061 308.432 149.618 307.806 149.098 307.32C148.578 306.834 148.075 306.468 147.589 306.221L148.165 304.801C148.821 305.1 149.477 305.564 150.134 306.195C150.781 306.817 151.322 307.61 151.757 308.573C152.192 309.527 152.409 310.652 152.409 311.948ZM132.364 291.851H133.757V300.429H132.364V291.851ZM127.659 297.527V295.98H147.359C148.161 295.98 148.817 295.827 149.328 295.52C149.831 295.205 150.206 294.796 150.453 294.293C150.692 293.782 150.811 293.236 150.811 292.657C150.811 292.375 150.79 292.132 150.747 291.928C150.705 291.715 150.649 291.515 150.581 291.327L152 290.944C152.085 291.182 152.158 291.446 152.217 291.736C152.286 292.026 152.32 292.367 152.32 292.759C152.32 293.577 152.136 294.353 151.77 295.086C151.403 295.81 150.871 296.398 150.172 296.85C149.473 297.301 148.629 297.527 147.641 297.527H127.659ZM152.409 278.62C152.409 280.392 151.97 281.935 151.092 283.248C150.214 284.56 149.013 285.574 147.487 286.29C145.962 287.006 144.223 287.364 142.271 287.364C140.311 287.364 138.564 287.006 137.03 286.29C135.496 285.566 134.286 284.573 133.399 283.311C132.513 282.05 132.07 280.61 132.07 278.99C132.07 277.891 132.291 276.851 132.734 275.871C133.169 274.882 133.8 274.013 134.626 273.263C135.453 272.505 136.45 271.912 137.618 271.486C138.786 271.051 140.098 270.834 141.555 270.834H142.527V286.38H141.108V272.394C139.685 272.394 138.402 272.684 137.26 273.263C136.118 273.843 135.21 274.631 134.537 275.628C133.864 276.625 133.527 277.746 133.527 278.99C133.527 280.294 133.893 281.458 134.626 282.48C135.351 283.495 136.331 284.3 137.567 284.897C138.803 285.485 140.183 285.792 141.709 285.817H142.348C143.984 285.817 145.455 285.532 146.759 284.961C148.054 284.381 149.081 283.554 149.839 282.48C150.589 281.407 150.964 280.12 150.964 278.62C150.964 277.546 150.786 276.63 150.428 275.871C150.061 275.104 149.618 274.478 149.098 273.992C148.578 273.506 148.075 273.14 147.589 272.892L148.165 271.473C148.821 271.772 149.477 272.236 150.134 272.867C150.781 273.489 151.322 274.282 151.757 275.245C152.192 276.199 152.409 277.324 152.409 278.62ZM152 265.465H132.364V263.944H135.432V263.803C134.426 263.377 133.621 262.657 133.016 261.642C132.402 260.628 132.095 259.473 132.095 258.178C132.095 258.042 132.095 257.905 132.095 257.769C132.095 257.632 132.099 257.505 132.108 257.385H133.68C133.672 257.488 133.659 257.611 133.642 257.756C133.616 257.892 133.604 258.063 133.604 258.267C133.604 259.358 133.838 260.33 134.307 261.182C134.776 262.026 135.423 262.691 136.25 263.176C137.068 263.662 138.006 263.905 139.062 263.905H152V265.465Z" fill="#343A40"/>
<rect x="200" y="500" width="250" height="10" transform="rotate(-90 200 500)" fill="#8D45BA"/>
<path d="M227.301 497.779H225.818V479.434H227.301V487.807H252V489.405H227.301V497.779ZM239.267 472.6H252V474.16H225.818V472.6H235.47V472.447C234.447 471.987 233.634 471.254 233.028 470.248C232.415 469.234 232.108 468.02 232.108 466.605C232.108 465.284 232.389 464.12 232.952 463.115C233.506 462.109 234.303 461.325 235.342 460.762C236.374 460.191 237.609 459.906 239.05 459.906H252V461.453H239.114C237.435 461.453 236.088 461.951 235.074 462.949C234.06 463.946 233.553 465.262 233.553 466.899C233.553 467.998 233.791 468.978 234.268 469.839C234.746 470.7 235.415 471.377 236.276 471.872C237.128 472.358 238.125 472.6 239.267 472.6ZM252.409 445.795C252.409 447.568 251.97 449.111 251.092 450.423C250.214 451.736 249.013 452.75 247.487 453.466C245.962 454.182 244.223 454.54 242.271 454.54C240.311 454.54 238.564 454.182 237.03 453.466C235.496 452.741 234.286 451.749 233.399 450.487C232.513 449.226 232.07 447.786 232.07 446.166C232.07 445.067 232.291 444.027 232.734 443.047C233.169 442.058 233.8 441.189 234.626 440.439C235.453 439.68 236.45 439.088 237.618 438.662C238.786 438.227 240.098 438.01 241.555 438.01H242.527V453.555H241.108V439.57C239.685 439.57 238.402 439.859 237.26 440.439C236.118 441.018 235.21 441.807 234.537 442.804C233.864 443.801 233.527 444.922 233.527 446.166C233.527 447.47 233.893 448.634 234.626 449.656C235.351 450.67 236.331 451.476 237.567 452.072C238.803 452.661 240.183 452.967 241.709 452.993H242.348C243.984 452.993 245.455 452.707 246.759 452.136C248.054 451.557 249.081 450.73 249.839 449.656C250.589 448.582 250.964 447.295 250.964 445.795C250.964 444.722 250.786 443.805 250.428 443.047C250.061 442.28 249.618 441.653 249.098 441.168C248.578 440.682 248.075 440.315 247.589 440.068L248.165 438.649C248.821 438.947 249.477 439.412 250.134 440.043C250.781 440.665 251.322 441.457 251.757 442.42C252.192 443.375 252.409 444.5 252.409 445.795ZM252 432.641H232.364V431.119H235.432V430.979C234.426 430.553 233.621 429.832 233.016 428.818C232.402 427.804 232.095 426.649 232.095 425.354C232.095 425.217 232.095 425.081 232.095 424.945C232.095 424.808 232.099 424.68 232.108 424.561H233.68C233.672 424.663 233.659 424.787 233.642 424.932C233.616 425.068 233.604 425.239 233.604 425.443C233.604 426.534 233.838 427.506 234.307 428.358C234.776 429.202 235.423 429.866 236.25 430.352C237.068 430.838 238.006 431.081 239.062 431.081H252V432.641ZM252 420.371H232.364V418.85H235.33V418.696C234.341 418.321 233.557 417.674 232.977 416.753C232.398 415.833 232.108 414.725 232.108 413.429C232.108 412.006 232.449 410.86 233.131 409.99C233.812 409.113 234.737 408.482 235.905 408.098V407.958C234.754 407.574 233.834 406.888 233.143 405.9C232.453 404.902 232.108 403.675 232.108 402.218C232.108 400.317 232.709 398.868 233.911 397.871C235.104 396.865 236.74 396.363 238.82 396.363H252V397.922H238.82C237.183 397.922 235.896 398.314 234.959 399.098C234.021 399.882 233.553 401.033 233.553 402.55C233.553 404.169 234.06 405.414 235.074 406.283C236.088 407.152 237.379 407.587 238.947 407.587H252V409.147H238.717C237.192 409.147 235.952 409.53 234.997 410.297C234.034 411.064 233.553 412.215 233.553 413.749C233.553 414.789 233.791 415.688 234.268 416.446C234.746 417.196 235.402 417.78 236.237 418.198C237.072 418.607 238.031 418.811 239.114 418.811H252V420.371ZM252.409 382.591C252.409 384.21 251.974 385.651 251.105 386.912C250.227 388.173 249.021 389.166 247.487 389.891C245.953 390.615 244.206 390.977 242.246 390.977C240.277 390.977 238.53 390.615 237.004 389.891C235.47 389.166 234.264 388.173 233.386 386.912C232.509 385.651 232.07 384.21 232.07 382.591C232.07 380.972 232.509 379.531 233.386 378.27C234.264 377.009 235.47 376.016 237.004 375.291C238.538 374.567 240.286 374.205 242.246 374.205C244.206 374.205 245.953 374.567 247.487 375.291C249.021 376.016 250.227 377.009 251.105 378.27C251.974 379.531 252.409 380.972 252.409 382.591ZM250.964 382.591C250.964 381.219 250.577 380.021 249.801 378.999C249.026 377.967 247.977 377.17 246.656 376.608C245.335 376.037 243.865 375.751 242.246 375.751C240.626 375.751 239.161 376.037 237.848 376.608C236.527 377.179 235.479 377.976 234.703 378.999C233.919 380.021 233.527 381.219 233.527 382.591C233.527 383.963 233.919 385.161 234.703 386.183C235.479 387.206 236.527 388.003 237.848 388.574C239.161 389.145 240.626 389.43 242.246 389.43C243.865 389.43 245.335 389.149 246.656 388.587C247.977 388.016 249.026 387.219 249.801 386.196C250.577 385.165 250.964 383.963 250.964 382.591ZM252 368.832H232.364V367.311H235.33V367.157C234.341 366.782 233.557 366.135 232.977 365.214C232.398 364.294 232.108 363.186 232.108 361.89C232.108 360.467 232.449 359.321 233.131 358.451C233.812 357.574 234.737 356.943 235.905 356.559V356.419C234.754 356.035 233.834 355.349 233.143 354.36C232.453 353.363 232.108 352.136 232.108 350.679C232.108 348.778 232.709 347.329 233.911 346.332C235.104 345.326 236.74 344.824 238.82 344.824H252V346.383H238.82C237.183 346.383 235.896 346.775 234.959 347.559C234.021 348.343 233.553 349.494 233.553 351.011C233.553 352.63 234.06 353.875 235.074 354.744C236.088 355.613 237.379 356.048 238.947 356.048H252V357.608H238.717C237.192 357.608 235.952 357.991 234.997 358.758C234.034 359.525 233.553 360.676 233.553 362.21C233.553 363.25 233.791 364.149 234.268 364.907C234.746 365.657 235.402 366.241 236.237 366.659C237.072 367.068 238.031 367.272 239.114 367.272H252V368.832ZM252.409 330.694C252.409 332.467 251.97 334.009 251.092 335.322C250.214 336.634 249.013 337.648 247.487 338.364C245.962 339.08 244.223 339.438 242.271 339.438C240.311 339.438 238.564 339.08 237.03 338.364C235.496 337.64 234.286 336.647 233.399 335.386C232.513 334.124 232.07 332.684 232.07 331.065C232.07 329.965 232.291 328.925 232.734 327.945C233.169 326.957 233.8 326.087 234.626 325.337C235.453 324.579 236.45 323.987 237.618 323.56C238.786 323.126 240.098 322.908 241.555 322.908H242.527V338.454H241.108V324.468C239.685 324.468 238.402 324.758 237.26 325.337C236.118 325.917 235.21 326.705 234.537 327.702C233.864 328.7 233.527 329.82 233.527 331.065C233.527 332.369 233.893 333.532 234.626 334.555C235.351 335.569 236.331 336.374 237.567 336.971C238.803 337.559 240.183 337.866 241.709 337.891H242.348C243.984 337.891 245.455 337.606 246.759 337.035C248.054 336.455 249.081 335.629 249.839 334.555C250.589 333.481 250.964 332.194 250.964 330.694C250.964 329.62 250.786 328.704 250.428 327.945C250.061 327.178 249.618 326.552 249.098 326.066C248.578 325.58 248.075 325.214 247.589 324.967L248.165 323.548C248.821 323.846 249.477 324.31 250.134 324.941C250.781 325.563 251.322 326.356 251.757 327.319C252.192 328.273 252.409 329.398 252.409 330.694ZM232.364 310.597H233.757V319.175H232.364V310.597ZM227.659 316.273V314.727H247.359C248.161 314.727 248.817 314.573 249.328 314.266C249.831 313.951 250.206 313.542 250.453 313.039C250.692 312.528 250.811 311.982 250.811 311.403C250.811 311.121 250.79 310.879 250.747 310.674C250.705 310.461 250.649 310.261 250.581 310.073L252 309.69C252.085 309.928 252.158 310.192 252.217 310.482C252.286 310.772 252.32 311.113 252.32 311.505C252.32 312.323 252.136 313.099 251.77 313.832C251.403 314.556 250.871 315.144 250.172 315.596C249.473 316.048 248.629 316.273 247.641 316.273H227.659ZM252.409 297.366C252.409 299.138 251.97 300.681 251.092 301.994C250.214 303.306 249.013 304.32 247.487 305.036C245.962 305.752 244.223 306.11 242.271 306.11C240.311 306.11 238.564 305.752 237.03 305.036C235.496 304.312 234.286 303.319 233.399 302.058C232.513 300.796 232.07 299.356 232.07 297.737C232.07 296.637 232.291 295.597 232.734 294.617C233.169 293.629 233.8 292.759 234.626 292.009C235.453 291.251 236.45 290.658 237.618 290.232C238.786 289.798 240.098 289.58 241.555 289.58H242.527V305.126H241.108V291.14C239.685 291.14 238.402 291.43 237.26 292.009C236.118 292.589 235.21 293.377 234.537 294.374C233.864 295.371 233.527 296.492 233.527 297.737C233.527 299.04 233.893 300.204 234.626 301.227C235.351 302.241 236.331 303.046 237.567 303.643C238.803 304.231 240.183 304.538 241.709 304.563H242.348C243.984 304.563 245.455 304.278 246.759 303.707C248.054 303.127 249.081 302.3 249.839 301.227C250.589 300.153 250.964 298.866 250.964 297.366C250.964 296.292 250.786 295.376 250.428 294.617C250.061 293.85 249.618 293.224 249.098 292.738C248.578 292.252 248.075 291.886 247.589 291.638L248.165 290.219C248.821 290.518 249.477 290.982 250.134 291.613C250.781 292.235 251.322 293.028 251.757 293.991C252.192 294.945 252.409 296.07 252.409 297.366ZM252 284.211H232.364V282.69H235.432V282.549C234.426 282.123 233.621 281.403 233.016 280.388C232.402 279.374 232.095 278.219 232.095 276.924C232.095 276.788 232.095 276.651 232.095 276.515C232.095 276.379 232.099 276.251 232.108 276.131H233.68C233.672 276.234 233.659 276.357 233.642 276.502C233.616 276.638 233.604 276.809 233.604 277.013C233.604 278.104 233.838 279.076 234.307 279.928C234.776 280.772 235.423 281.437 236.25 281.923C237.068 282.408 238.006 282.651 239.062 282.651H252V284.211Z" fill="#343A40"/>
<rect x="300" y="500" width="300" height="10" transform="rotate(-90 300 500)" fill="#FF415B"/>
<path d="M352 496.183H325.818V481.609H327.301V494.585H338.155V482.389H339.638V494.585H350.517V481.302H352V496.183ZM334 455.04V456.677C333.114 456.847 332.257 457.167 331.43 457.635C330.595 458.104 329.845 458.709 329.18 459.451C328.507 460.184 327.974 461.036 327.582 462.008C327.19 462.979 326.994 464.053 326.994 465.229C326.994 466.951 327.455 468.536 328.375 469.985C329.287 471.425 330.629 472.58 332.402 473.449C334.175 474.31 336.344 474.741 338.909 474.741C341.491 474.741 343.669 474.31 345.442 473.449C347.214 472.58 348.557 471.425 349.469 469.985C350.372 468.536 350.824 466.951 350.824 465.229C350.824 464.053 350.632 462.979 350.249 462.008C349.857 461.036 349.328 460.184 348.663 459.451C347.99 458.709 347.236 458.104 346.401 457.635C345.565 457.167 344.705 456.847 343.818 456.677V455.04C344.875 455.228 345.911 455.59 346.925 456.127C347.939 456.655 348.859 457.354 349.686 458.224C350.504 459.084 351.156 460.103 351.642 461.279C352.119 462.447 352.358 463.763 352.358 465.229C352.358 467.411 351.804 469.333 350.696 470.995C349.58 472.657 348.011 473.961 345.991 474.907C343.972 475.844 341.611 476.313 338.909 476.313C336.207 476.313 333.847 475.844 331.827 474.907C329.807 473.961 328.243 472.657 327.135 470.995C326.018 469.333 325.46 467.411 325.46 465.229C325.46 463.763 325.703 462.447 326.189 461.279C326.666 460.103 327.314 459.084 328.132 458.224C328.942 457.354 329.854 456.655 330.868 456.127C331.882 455.59 332.926 455.228 334 455.04ZM334 430.552C333.114 430.748 332.257 431.081 331.43 431.55C330.595 432.018 329.845 432.619 329.18 433.352C328.507 434.077 327.974 434.929 327.582 435.909C327.19 436.881 326.994 437.971 326.994 439.182C326.994 441.031 327.48 442.672 328.452 444.104C329.415 445.527 330.791 446.643 332.581 447.453C334.362 448.254 336.472 448.655 338.909 448.655C341.321 448.655 343.422 448.254 345.212 447.453C347.001 446.652 348.386 445.531 349.366 444.091C350.338 442.642 350.824 440.959 350.824 439.041C350.824 437.328 350.428 435.811 349.635 434.49C348.842 433.16 347.709 432.125 346.234 431.383C344.76 430.642 342.996 430.28 340.942 430.297L341.21 429.734V438.632H339.727V428.737H341.21C343.52 428.737 345.51 429.18 347.18 430.067C348.842 430.944 350.121 432.163 351.016 433.723C351.911 435.274 352.358 437.047 352.358 439.041C352.358 441.291 351.8 443.256 350.683 444.934C349.567 446.613 348.003 447.917 345.991 448.846C343.972 449.767 341.611 450.227 338.909 450.227C336.881 450.227 335.04 449.963 333.386 449.434C331.733 448.906 330.318 448.152 329.142 447.172C327.957 446.192 327.05 445.024 326.419 443.669C325.78 442.314 325.46 440.818 325.46 439.182C325.46 437.699 325.707 436.365 326.202 435.18C326.687 433.996 327.344 432.973 328.17 432.112C328.989 431.243 329.905 430.54 330.919 430.003C331.925 429.466 332.952 429.104 334 428.916V430.552Z" fill="#343A40"/>
<rect x="400" y="500" width="375" height="10" transform="rotate(-90 400 500)" fill="#E9CC32"/>
<path d="M432.364 482.051C430.736 482.188 429.419 482.853 428.413 484.046C427.408 485.23 426.905 486.765 426.905 488.648C426.905 489.918 427.139 491.047 427.608 492.036C428.077 493.025 428.716 493.8 429.526 494.363C430.335 494.925 431.264 495.206 432.312 495.206C432.986 495.206 433.595 495.078 434.141 494.823C434.678 494.559 435.159 494.188 435.585 493.711C436.003 493.233 436.369 492.667 436.685 492.01C437 491.354 437.277 490.63 437.516 489.837L438.359 486.973C438.658 485.993 439.003 485.09 439.395 484.263C439.787 483.428 440.256 482.703 440.801 482.09C441.338 481.468 441.969 480.986 442.693 480.645C443.418 480.296 444.253 480.121 445.199 480.121C446.58 480.121 447.815 480.479 448.906 481.195C449.997 481.902 450.858 482.912 451.489 484.225C452.111 485.529 452.422 487.067 452.422 488.84C452.422 490.527 452.136 491.998 451.565 493.25C450.994 494.495 450.202 495.479 449.188 496.203C448.165 496.928 446.989 497.337 445.659 497.431V495.794C446.741 495.709 447.679 495.364 448.472 494.759C449.256 494.145 449.861 493.331 450.287 492.317C450.713 491.303 450.926 490.144 450.926 488.84C450.926 487.434 450.687 486.194 450.21 485.12C449.724 484.046 449.051 483.206 448.19 482.601C447.33 481.996 446.328 481.694 445.186 481.694C444.266 481.694 443.477 481.911 442.821 482.346C442.165 482.78 441.598 483.424 441.121 484.276C440.643 485.12 440.217 486.168 439.842 487.421L438.922 490.476C438.3 492.522 437.452 494.086 436.378 495.168C435.304 496.242 433.966 496.779 432.364 496.779C431.017 496.779 429.824 496.421 428.784 495.705C427.736 494.989 426.913 494.017 426.317 492.79C425.72 491.554 425.422 490.161 425.422 488.61C425.422 487.05 425.724 485.674 426.33 484.48C426.926 483.287 427.749 482.341 428.797 481.642C429.837 480.944 431.026 480.556 432.364 480.479V482.051ZM459.364 474.355H432.364V472.834H436.749V472.642C435.905 472.336 435.129 471.905 434.422 471.351C433.714 470.789 433.148 470.094 432.722 469.267C432.287 468.432 432.07 467.452 432.07 466.327C432.07 464.742 432.504 463.361 433.374 462.185C434.243 461.009 435.445 460.097 436.979 459.449C438.504 458.801 440.256 458.478 442.233 458.478C444.21 458.478 445.966 458.806 447.5 459.462C449.026 460.11 450.227 461.022 451.105 462.198C451.974 463.365 452.409 464.733 452.409 466.301C452.409 467.418 452.196 468.398 451.77 469.242C451.344 470.077 450.777 470.78 450.07 471.351C449.354 471.914 448.57 472.344 447.717 472.642V472.796H459.364V474.355ZM442.22 472.821C443.891 472.821 445.386 472.566 446.707 472.054C448.02 471.543 449.06 470.81 449.827 469.855C450.585 468.901 450.964 467.763 450.964 466.442C450.964 465.104 450.581 463.958 449.814 463.003C449.038 462.04 447.99 461.307 446.669 460.804C445.348 460.293 443.865 460.037 442.22 460.037C440.575 460.037 439.097 460.289 437.784 460.792C436.472 461.294 435.436 462.023 434.678 462.978C433.911 463.932 433.527 465.087 433.527 466.442C433.527 467.78 433.906 468.926 434.665 469.881C435.415 470.827 436.446 471.556 437.759 472.067C439.062 472.57 440.55 472.821 442.22 472.821ZM439.267 451.526H452V453.086H425.818V451.526H435.47V451.373C434.447 450.913 433.634 450.18 433.028 449.174C432.415 448.16 432.108 446.945 432.108 445.531C432.108 444.21 432.389 443.046 432.952 442.04C433.506 441.035 434.303 440.251 435.342 439.688C436.374 439.117 437.609 438.832 439.05 438.832H452V440.379H439.114C437.435 440.379 436.088 440.877 435.074 441.874C434.06 442.871 433.553 444.188 433.553 445.825C433.553 446.924 433.791 447.904 434.268 448.765C434.746 449.626 435.415 450.303 436.276 450.798C437.128 451.283 438.125 451.526 439.267 451.526ZM459.364 431.829C459.364 432.221 459.321 432.609 459.236 432.993C459.151 433.376 459.04 433.721 458.903 434.028L457.536 433.568C457.842 432.767 457.953 432.042 457.868 431.395C457.783 430.738 457.484 430.159 456.973 429.656C456.462 429.153 455.712 428.727 454.723 428.377L452.268 427.483L432.364 434.68V433.005L449.993 426.767V426.639L432.364 420.4V418.725L455.337 427.01C456.223 427.325 456.964 427.721 457.561 428.199C458.158 428.676 458.605 429.221 458.903 429.835C459.21 430.44 459.364 431.105 459.364 431.829ZM459.773 407.472C459.773 408.691 459.611 409.786 459.287 410.758C458.972 411.729 458.52 412.556 457.932 413.238C457.344 413.911 456.645 414.427 455.835 414.785L455.068 413.481C455.699 413.191 456.261 412.778 456.756 412.241C457.25 411.704 457.638 411.039 457.919 410.246C458.2 409.445 458.341 408.521 458.341 407.472C458.341 405.58 457.851 404.085 456.871 402.985C455.899 401.877 454.408 401.323 452.396 401.323H447.513V401.477C448.365 401.775 449.124 402.218 449.788 402.806C450.445 403.386 450.96 404.097 451.335 404.941C451.71 405.785 451.898 406.744 451.898 407.817C451.898 409.369 451.497 410.732 450.696 411.908C449.895 413.085 448.77 414.001 447.321 414.657C445.864 415.313 444.151 415.641 442.182 415.641C440.213 415.641 438.47 415.322 436.953 414.683C435.428 414.035 434.234 413.123 433.374 411.947C432.504 410.771 432.07 409.39 432.07 407.805C432.07 406.671 432.287 405.691 432.722 404.864C433.148 404.029 433.714 403.33 434.422 402.768C435.129 402.205 435.905 401.771 436.749 401.464V401.285H432.364V399.776H452.46C454.097 399.776 455.456 400.1 456.538 400.748C457.621 401.387 458.43 402.286 458.967 403.445C459.504 404.596 459.773 405.938 459.773 407.472ZM450.453 407.677C450.453 406.364 450.121 405.235 449.456 404.289C448.783 403.335 447.828 402.602 446.592 402.09C445.348 401.57 443.874 401.31 442.169 401.31C440.516 401.31 439.037 401.562 437.733 402.065C436.429 402.567 435.402 403.296 434.652 404.251C433.902 405.205 433.527 406.347 433.527 407.677C433.527 409.032 433.911 410.187 434.678 411.141C435.436 412.096 436.467 412.829 437.771 413.34C439.075 413.843 440.541 414.094 442.169 414.094C443.805 414.094 445.246 413.839 446.49 413.327C447.726 412.816 448.697 412.083 449.405 411.129C450.104 410.174 450.453 409.023 450.453 407.677ZM452 393.215H432.364V391.694H435.33V391.54C434.341 391.165 433.557 390.517 432.977 389.597C432.398 388.676 432.108 387.569 432.108 386.273C432.108 384.85 432.449 383.703 433.131 382.834C433.812 381.956 434.737 381.326 435.905 380.942V380.801C434.754 380.418 433.834 379.732 433.143 378.743C432.453 377.746 432.108 376.519 432.108 375.061C432.108 373.161 432.709 371.712 433.911 370.715C435.104 369.709 436.74 369.206 438.82 369.206H452V370.766H438.82C437.183 370.766 435.896 371.158 434.959 371.942C434.021 372.726 433.553 373.877 433.553 375.394C433.553 377.013 434.06 378.257 435.074 379.127C436.088 379.996 437.379 380.431 438.947 380.431H452V381.99H438.717C437.192 381.99 435.952 382.374 434.997 383.141C434.034 383.908 433.553 385.059 433.553 386.593C433.553 387.632 433.791 388.532 434.268 389.29C434.746 390.04 435.402 390.624 436.237 391.042C437.072 391.451 438.031 391.655 439.114 391.655H452V393.215ZM452.409 355.435C452.409 357.054 451.974 358.494 451.105 359.756C450.227 361.017 449.021 362.01 447.487 362.734C445.953 363.459 444.206 363.821 442.246 363.821C440.277 363.821 438.53 363.459 437.004 362.734C435.47 362.01 434.264 361.017 433.386 359.756C432.509 358.494 432.07 357.054 432.07 355.435C432.07 353.815 432.509 352.375 433.386 351.114C434.264 349.852 435.47 348.859 437.004 348.135C438.538 347.411 440.286 347.048 442.246 347.048C444.206 347.048 445.953 347.411 447.487 348.135C449.021 348.859 450.227 349.852 451.105 351.114C451.974 352.375 452.409 353.815 452.409 355.435ZM450.964 355.435C450.964 354.062 450.577 352.865 449.801 351.842C449.026 350.811 447.977 350.014 446.656 349.452C445.335 348.881 443.865 348.595 442.246 348.595C440.626 348.595 439.161 348.881 437.848 349.452C436.527 350.023 435.479 350.82 434.703 351.842C433.919 352.865 433.527 354.062 433.527 355.435C433.527 356.807 433.919 358.004 434.703 359.027C435.479 360.05 436.527 360.847 437.848 361.418C439.161 361.989 440.626 362.274 442.246 362.274C443.865 362.274 445.335 361.993 446.656 361.43C447.977 360.859 449.026 360.062 449.801 359.04C450.577 358.009 450.964 356.807 450.964 355.435ZM452 341.676H432.364V340.154H435.33V340.001C434.341 339.626 433.557 338.978 432.977 338.058C432.398 337.137 432.108 336.029 432.108 334.734C432.108 333.311 432.449 332.164 433.131 331.295C433.812 330.417 434.737 329.787 435.905 329.403V329.262C434.754 328.879 433.834 328.193 433.143 327.204C432.453 326.207 432.108 324.98 432.108 323.522C432.108 321.622 432.709 320.173 433.911 319.176C435.104 318.17 436.74 317.667 438.82 317.667H452V319.227H438.82C437.183 319.227 435.896 319.619 434.959 320.403C434.021 321.187 433.553 322.338 433.553 323.855C433.553 325.474 434.06 326.718 435.074 327.588C436.088 328.457 437.379 328.892 438.947 328.892H452V330.451H438.717C437.192 330.451 435.952 330.835 434.997 331.602C434.034 332.369 433.553 333.52 433.553 335.054C433.553 336.093 433.791 336.993 434.268 337.751C434.746 338.501 435.402 339.085 436.237 339.502C437.072 339.912 438.031 340.116 439.114 340.116H452V341.676ZM452.422 305.992C452.422 307.126 452.196 308.165 451.744 309.112C451.293 310.049 450.632 310.803 449.763 311.374C448.893 311.937 447.837 312.218 446.592 312.218C445.774 312.218 445.054 312.073 444.432 311.783C443.81 311.494 443.273 311.046 442.821 310.441C442.369 309.836 441.999 309.06 441.709 308.114C441.411 307.168 441.18 306.039 441.018 304.727C440.899 303.729 440.784 302.839 440.673 302.055C440.554 301.271 440.371 300.657 440.124 300.214C439.876 299.762 439.501 299.536 438.999 299.536H438.18C436.749 299.536 435.611 299.988 434.767 300.891C433.923 301.795 433.501 303.039 433.501 304.624C433.501 306.031 433.812 307.215 434.435 308.178C435.048 309.133 435.841 309.802 436.812 310.185L436.263 311.656C435.325 311.281 434.545 310.739 433.923 310.032C433.301 309.316 432.837 308.498 432.53 307.577C432.223 306.648 432.07 305.677 432.07 304.663C432.07 303.785 432.193 302.95 432.44 302.157C432.688 301.356 433.062 300.644 433.565 300.022C434.068 299.391 434.712 298.893 435.496 298.526C436.271 298.16 437.2 297.977 438.283 297.977H452V299.536H448.459V299.651C449.192 299.992 449.861 300.461 450.466 301.058C451.062 301.646 451.54 302.357 451.898 303.192C452.247 304.019 452.422 304.952 452.422 305.992ZM450.977 305.839C450.977 304.612 450.679 303.525 450.082 302.579C449.477 301.624 448.651 300.879 447.602 300.342C446.554 299.805 445.365 299.536 444.036 299.536H441.146C441.317 299.732 441.47 300.018 441.607 300.393C441.734 300.759 441.849 301.177 441.952 301.646C442.045 302.106 442.131 302.592 442.207 303.103C442.276 303.606 442.339 304.096 442.399 304.573C442.57 306.005 442.834 307.173 443.192 308.076C443.541 308.971 444.001 309.627 444.572 310.045C445.143 310.454 445.834 310.658 446.643 310.658C447.982 310.658 449.038 310.198 449.814 309.278C450.589 308.357 450.977 307.211 450.977 305.839ZM439.267 289.878H452V291.438H432.364V289.916H435.47V289.763C434.456 289.303 433.642 288.565 433.028 287.551C432.415 286.537 432.108 285.331 432.108 283.933C432.108 282.612 432.389 281.453 432.952 280.456C433.514 279.45 434.315 278.666 435.355 278.104C436.386 277.533 437.618 277.247 439.05 277.247H452V278.807H439.114C437.443 278.807 436.101 279.305 435.087 280.303C434.064 281.291 433.553 282.599 433.553 284.227C433.553 285.318 433.791 286.29 434.268 287.142C434.746 287.994 435.415 288.663 436.276 289.149C437.128 289.635 438.125 289.878 439.267 289.878ZM452.409 263.466C452.409 265.085 451.974 266.526 451.105 267.787C450.227 269.048 449.021 270.041 447.487 270.766C445.953 271.49 444.206 271.852 442.246 271.852C440.277 271.852 438.53 271.49 437.004 270.766C435.47 270.041 434.264 269.048 433.386 267.787C432.509 266.526 432.07 265.085 432.07 263.466C432.07 261.847 432.509 260.406 433.386 259.145C434.264 257.884 435.47 256.891 437.004 256.166C438.538 255.442 440.286 255.08 442.246 255.08C444.206 255.08 445.953 255.442 447.487 256.166C449.021 256.891 450.227 257.884 451.105 259.145C451.974 260.406 452.409 261.847 452.409 263.466ZM450.964 263.466C450.964 262.094 450.577 260.896 449.801 259.874C449.026 258.842 447.977 258.045 446.656 257.483C445.335 256.912 443.865 256.626 442.246 256.626C440.626 256.626 439.161 256.912 437.848 257.483C436.527 258.054 435.479 258.851 434.703 259.874C433.919 260.896 433.527 262.094 433.527 263.466C433.527 264.838 433.919 266.036 434.703 267.058C435.479 268.081 436.527 268.878 437.848 269.449C439.161 270.02 440.626 270.305 442.246 270.305C443.865 270.305 445.335 270.024 446.656 269.462C447.977 268.891 449.026 268.094 449.801 267.071C450.577 266.04 450.964 264.838 450.964 263.466ZM452 249.707H432.364V248.186H435.33V248.032C434.341 247.657 433.557 247.01 432.977 246.089C432.398 245.169 432.108 244.061 432.108 242.765C432.108 241.342 432.449 240.196 433.131 239.326C433.812 238.449 434.737 237.818 435.905 237.434V237.294C434.754 236.91 433.834 236.224 433.143 235.235C432.453 234.238 432.108 233.011 432.108 231.554C432.108 229.653 432.709 228.204 433.911 227.207C435.104 226.201 436.74 225.699 438.82 225.699H452V227.258H438.82C437.183 227.258 435.896 227.65 434.959 228.434C434.021 229.218 433.553 230.369 433.553 231.886C433.553 233.505 434.06 234.75 435.074 235.619C436.088 236.488 437.379 236.923 438.947 236.923H452V238.483H438.717C437.192 238.483 435.952 238.866 434.997 239.633C434.034 240.4 433.553 241.551 433.553 243.085C433.553 244.125 433.791 245.024 434.268 245.782C434.746 246.532 435.402 247.116 436.237 247.534C437.072 247.943 438.031 248.147 439.114 248.147H452V249.707ZM452.409 211.569C452.409 213.342 451.97 214.884 451.092 216.197C450.214 217.509 449.013 218.523 447.487 219.239C445.962 219.955 444.223 220.313 442.271 220.313C440.311 220.313 438.564 219.955 437.03 219.239C435.496 218.515 434.286 217.522 433.399 216.261C432.513 214.999 432.07 213.559 432.07 211.94C432.07 210.84 432.291 209.8 432.734 208.82C433.169 207.832 433.8 206.962 434.626 206.212C435.453 205.454 436.45 204.862 437.618 204.435C438.786 204.001 440.098 203.783 441.555 203.783H442.527V219.329H441.108V205.343C439.685 205.343 438.402 205.633 437.26 206.212C436.118 206.792 435.21 207.58 434.537 208.577C433.864 209.575 433.527 210.695 433.527 211.94C433.527 213.244 433.893 214.407 434.626 215.43C435.351 216.444 436.331 217.249 437.567 217.846C438.803 218.434 440.183 218.741 441.709 218.766H442.348C443.984 218.766 445.455 218.481 446.759 217.91C448.054 217.33 449.081 216.504 449.839 215.43C450.589 214.356 450.964 213.069 450.964 211.569C450.964 210.495 450.786 209.579 450.428 208.82C450.061 208.053 449.618 207.427 449.098 206.941C448.578 206.455 448.075 206.089 447.589 205.842L448.165 204.423C448.821 204.721 449.477 205.185 450.134 205.816C450.781 206.438 451.322 207.231 451.757 208.194C452.192 209.148 452.409 210.273 452.409 211.569ZM432.364 191.472H433.757V200.05H432.364V191.472ZM427.659 197.148V195.602H447.359C448.161 195.602 448.817 195.448 449.328 195.141C449.831 194.826 450.206 194.417 450.453 193.914C450.692 193.403 450.811 192.857 450.811 192.278C450.811 191.996 450.79 191.754 450.747 191.549C450.705 191.336 450.649 191.136 450.581 190.948L452 190.565C452.085 190.803 452.158 191.067 452.217 191.357C452.286 191.647 452.32 191.988 452.32 192.38C452.32 193.198 452.136 193.974 451.77 194.707C451.403 195.431 450.871 196.019 450.172 196.471C449.473 196.923 448.629 197.148 447.641 197.148H427.659ZM452.409 178.241C452.409 180.013 451.97 181.556 451.092 182.869C450.214 184.181 449.013 185.195 447.487 185.911C445.962 186.627 444.223 186.985 442.271 186.985C440.311 186.985 438.564 186.627 437.03 185.911C435.496 185.187 434.286 184.194 433.399 182.933C432.513 181.671 432.07 180.231 432.07 178.612C432.07 177.512 432.291 176.472 432.734 175.492C433.169 174.504 433.8 173.634 434.626 172.884C435.453 172.126 436.45 171.533 437.618 171.107C438.786 170.673 440.098 170.455 441.555 170.455H442.527V186.001H441.108V172.015C439.685 172.015 438.402 172.305 437.26 172.884C436.118 173.464 435.21 174.252 434.537 175.249C433.864 176.246 433.527 177.367 433.527 178.612C433.527 179.915 433.893 181.079 434.626 182.102C435.351 183.116 436.331 183.921 437.567 184.518C438.803 185.106 440.183 185.413 441.709 185.438H442.348C443.984 185.438 445.455 185.153 446.759 184.582C448.054 184.002 449.081 183.175 449.839 182.102C450.589 181.028 450.964 179.741 450.964 178.241C450.964 177.167 450.786 176.251 450.428 175.492C450.061 174.725 449.618 174.099 449.098 173.613C448.578 173.127 448.075 172.761 447.589 172.513L448.165 171.094C448.821 171.393 449.477 171.857 450.134 172.488C450.781 173.11 451.322 173.903 451.757 174.866C452.192 175.82 452.409 176.945 452.409 178.241ZM452 165.086H432.364V163.565H435.432V163.424C434.426 162.998 433.621 162.278 433.016 161.263C432.402 160.249 432.095 159.094 432.095 157.799C432.095 157.663 432.095 157.526 432.095 157.39C432.095 157.254 432.099 157.126 432.108 157.006H433.68C433.672 157.109 433.659 157.232 433.642 157.377C433.616 157.513 433.604 157.684 433.604 157.888C433.604 158.979 433.838 159.951 434.307 160.803C434.776 161.647 435.423 162.312 436.25 162.798C437.068 163.283 438.006 163.526 439.062 163.526H452V165.086Z" fill="#343A40"/>
<rect x="500" y="500" width="250" height="10" transform="rotate(-90 500 500)" fill="#343A40"/>
<path d="M538.909 474.895C541.611 474.895 543.972 475.363 545.991 476.301C548.003 477.238 549.567 478.542 550.683 480.213C551.8 481.875 552.358 483.792 552.358 485.966C552.358 488.147 551.8 490.074 550.683 491.744C549.558 493.406 547.99 494.706 545.979 495.643C543.959 496.581 541.602 497.049 538.909 497.049C536.207 497.049 533.851 496.581 531.839 495.643C529.828 494.697 528.264 493.393 527.148 491.731C526.023 490.069 525.46 488.147 525.46 485.966C525.46 483.792 526.018 481.875 527.135 480.213C528.251 478.542 529.82 477.238 531.839 476.301C533.851 475.363 536.207 474.895 538.909 474.895ZM538.909 476.454C536.48 476.454 534.375 476.863 532.594 477.681C530.812 478.491 529.436 479.612 528.464 481.044C527.484 482.475 526.994 484.116 526.994 485.966C526.994 487.815 527.48 489.456 528.452 490.887C529.415 492.319 530.791 493.444 532.581 494.262C534.362 495.072 536.472 495.477 538.909 495.477C541.321 495.477 543.422 495.076 545.212 494.275C546.993 493.466 548.374 492.345 549.354 490.913C550.334 489.481 550.824 487.832 550.824 485.966C550.824 484.116 550.338 482.475 549.366 481.044C548.386 479.612 547.006 478.491 545.224 477.681C543.443 476.863 541.338 476.454 538.909 476.454ZM532.364 462.257H533.757V470.836H532.364V462.257ZM527.659 467.934V466.387H547.359C548.161 466.387 548.817 466.233 549.328 465.926C549.831 465.611 550.206 465.202 550.453 464.699C550.692 464.188 550.811 463.642 550.811 463.063C550.811 462.782 550.79 462.539 550.747 462.334C550.705 462.121 550.649 461.921 550.581 461.733L552 461.35C552.085 461.588 552.158 461.853 552.217 462.142C552.286 462.432 552.32 462.773 552.32 463.165C552.32 463.983 552.136 464.759 551.77 465.492C551.403 466.216 550.871 466.804 550.172 467.256C549.473 467.708 548.629 467.934 547.641 467.934H527.659ZM539.267 454.491H552V456.051H525.818V454.491H535.47V454.338C534.447 453.877 533.634 453.145 533.028 452.139C532.415 451.125 532.108 449.91 532.108 448.495C532.108 447.174 532.389 446.011 532.952 445.005C533.506 444 534.303 443.216 535.342 442.653C536.374 442.082 537.609 441.797 539.05 441.797H552V443.343H539.114C537.435 443.343 536.088 443.842 535.074 444.839C534.06 445.836 533.553 447.153 533.553 448.789C533.553 449.889 533.791 450.869 534.268 451.73C534.746 452.591 535.415 453.268 536.276 453.762C537.128 454.248 538.125 454.491 539.267 454.491ZM552.409 427.686C552.409 429.459 551.97 431.001 551.092 432.314C550.214 433.626 549.013 434.641 547.487 435.357C545.962 436.072 544.223 436.43 542.271 436.43C540.311 436.43 538.564 436.072 537.03 435.357C535.496 434.632 534.286 433.639 533.399 432.378C532.513 431.116 532.07 429.676 532.07 428.057C532.07 426.957 532.291 425.918 532.734 424.938C533.169 423.949 533.8 423.08 534.626 422.33C535.453 421.571 536.45 420.979 537.618 420.553C538.786 420.118 540.098 419.901 541.555 419.901H542.527V435.446H541.108V421.46C539.685 421.46 538.402 421.75 537.26 422.33C536.118 422.909 535.21 423.697 534.537 424.695C533.864 425.692 533.527 426.812 533.527 428.057C533.527 429.361 533.893 430.524 534.626 431.547C535.351 432.561 536.331 433.366 537.567 433.963C538.803 434.551 540.183 434.858 541.709 434.884H542.348C543.984 434.884 545.455 434.598 546.759 434.027C548.054 433.447 549.081 432.621 549.839 431.547C550.589 430.473 550.964 429.186 550.964 427.686C550.964 426.612 550.786 425.696 550.428 424.938C550.061 424.17 549.618 423.544 549.098 423.058C548.578 422.572 548.075 422.206 547.589 421.959L548.165 420.54C548.821 420.838 549.477 421.303 550.134 421.933C550.781 422.555 551.322 423.348 551.757 424.311C552.192 425.266 552.409 426.391 552.409 427.686ZM552 414.531H532.364V413.01H535.432V412.869C534.426 412.443 533.621 411.723 533.016 410.709C532.402 409.695 532.095 408.54 532.095 407.244C532.095 407.108 532.095 406.972 532.095 406.835C532.095 406.699 532.099 406.571 532.108 406.452H533.68C533.672 406.554 533.659 406.678 533.642 406.822C533.616 406.959 533.604 407.129 533.604 407.334C533.604 408.425 533.838 409.396 534.307 410.249C534.776 411.092 535.423 411.757 536.25 412.243C537.068 412.729 538.006 412.972 539.062 412.972H552V414.531Z" fill="#343A40"/>
</svg>
