<svg width="563" height="501" viewBox="0 0 563 501" fill="none" xmlns="http://www.w3.org/2000/svg">
<rect y="500" width="400" height="10" transform="rotate(-90 0 500)" fill="#C43739"/>
<path d="M52.358 488.843C52.358 490.59 51.821 492.09 50.7472 493.343C49.6733 494.596 48.1349 495.559 46.1321 496.232C44.1207 496.897 41.7131 497.229 38.9091 497.229C36.1136 497.229 33.7102 496.892 31.6989 496.219C29.6875 495.546 28.1449 494.587 27.071 493.343C25.9972 492.09 25.4602 490.59 25.4602 488.843C25.4602 487.096 25.9972 485.6 27.071 484.355C28.1449 483.103 29.6875 482.14 31.6989 481.466C33.7102 480.793 36.1136 480.456 38.9091 480.456C41.7131 480.456 44.1207 480.793 46.1321 481.466C48.1349 482.131 49.6733 483.09 50.7472 484.343C51.821 485.596 52.358 487.096 52.358 488.843ZM50.875 488.843C50.875 486.721 49.8224 485.054 47.7173 483.844C45.6037 482.634 42.6676 482.029 38.9091 482.029C36.4034 482.029 34.2557 482.306 32.4659 482.86C30.6761 483.405 29.3082 484.185 28.3622 485.199C27.4077 486.213 26.9304 487.428 26.9304 488.843C26.9304 490.965 27.9872 492.631 30.1009 493.841C32.2145 495.051 35.1506 495.657 38.9091 495.657C41.4148 495.657 43.5625 495.384 45.3523 494.838C47.1335 494.293 48.5014 493.513 49.456 492.499C50.402 491.476 50.875 490.257 50.875 488.843ZM38.1676 464.799H39.6506V475.129H38.1676V464.799ZM52 460.037H50.7855L41.0185 451.561C39.6207 450.351 38.4361 449.392 37.4645 448.685C36.4929 447.977 35.6151 447.47 34.831 447.163C34.0469 446.857 33.2287 446.703 32.3764 446.703C31.3111 446.703 30.3693 446.955 29.5511 447.457C28.7244 447.952 28.081 448.629 27.6207 449.49C27.1605 450.342 26.9304 451.314 26.9304 452.405C26.9304 453.547 27.1818 454.548 27.6847 455.409C28.1875 456.27 28.8693 456.943 29.7301 457.429C30.5909 457.906 31.5582 458.145 32.6321 458.145V459.692C31.277 459.692 30.0582 459.376 28.9759 458.746C27.8935 458.115 27.0369 457.25 26.4063 456.151C25.7756 455.043 25.4602 453.781 25.4602 452.366C25.4602 450.977 25.7628 449.741 26.3679 448.659C26.973 447.577 27.7997 446.724 28.848 446.102C29.8878 445.48 31.0639 445.169 32.3764 445.169C33.3395 445.169 34.2685 445.335 35.1634 445.668C36.0497 445.991 37.0426 446.55 38.142 447.342C39.233 448.135 40.5795 449.23 42.1818 450.628L50.3764 457.736H50.517V443.993H52V460.037ZM52.358 430.167C52.358 431.914 51.821 433.414 50.7472 434.667C49.6733 435.92 48.1349 436.883 46.1321 437.556C44.1207 438.221 41.7131 438.553 38.9091 438.553C36.1136 438.553 33.7102 438.217 31.6989 437.543C29.6875 436.87 28.1449 435.911 27.071 434.667C25.9972 433.414 25.4602 431.914 25.4602 430.167C25.4602 428.42 25.9972 426.924 27.071 425.68C28.1449 424.427 29.6875 423.464 31.6989 422.79C33.7102 422.117 36.1136 421.781 38.9091 421.781C41.7131 421.781 44.1207 422.117 46.1321 422.79C48.1349 423.455 49.6733 424.414 50.7472 425.667C51.821 426.92 52.358 428.42 52.358 430.167ZM50.875 430.167C50.875 428.045 49.8224 426.379 47.7173 425.168C45.6037 423.958 42.6676 423.353 38.9091 423.353C36.4034 423.353 34.2557 423.63 32.4659 424.184C30.6761 424.729 29.3082 425.509 28.3622 426.523C27.4077 427.538 26.9304 428.752 26.9304 430.167C26.9304 432.289 27.9872 433.955 30.1009 435.165C32.2145 436.376 35.1506 436.981 38.9091 436.981C41.4148 436.981 43.5625 436.708 45.3523 436.163C47.1335 435.617 48.5014 434.837 49.456 433.823C50.402 432.8 50.875 431.582 50.875 430.167Z" fill="#343A40"/>
<rect x="100" y="500" width="200" height="10" transform="rotate(-90 100 500)" fill="#0E8F8D"/>
<path d="M152 496.597H150.786L141.018 488.122C139.621 486.911 138.436 485.953 137.464 485.245C136.493 484.538 135.615 484.031 134.831 483.724C134.047 483.417 133.229 483.264 132.376 483.264C131.311 483.264 130.369 483.515 129.551 484.018C128.724 484.512 128.081 485.19 127.621 486.051C127.161 486.903 126.93 487.874 126.93 488.965C126.93 490.107 127.182 491.109 127.685 491.97C128.187 492.83 128.869 493.504 129.73 493.99C130.591 494.467 131.558 494.705 132.632 494.705V496.252C131.277 496.252 130.058 495.937 128.976 495.306C127.893 494.676 127.037 493.811 126.406 492.711C125.776 491.603 125.46 490.342 125.46 488.927C125.46 487.538 125.763 486.302 126.368 485.22C126.973 484.137 127.8 483.285 128.848 482.663C129.888 482.041 131.064 481.73 132.376 481.73C133.339 481.73 134.268 481.896 135.163 482.228C136.05 482.552 137.043 483.11 138.142 483.903C139.233 484.695 140.58 485.791 142.182 487.188L150.376 494.296H150.517V480.553H152V496.597ZM125.818 467.494H152V469.093H127.506V469.246L131.405 475.127H129.692L125.818 469.297V467.494ZM138.168 449.012H139.651V459.341H138.168V449.012ZM146.119 444.48H144.841L125.818 432.629V431.657H128.286V432.488L144.496 442.55H144.636V427.426H146.119V444.48ZM152 432.361H145.685H145.109H125.818V430.801H152V432.361ZM152.358 414.134C152.358 415.881 151.821 417.381 150.747 418.634C149.673 419.887 148.135 420.85 146.132 421.523C144.121 422.188 141.713 422.52 138.909 422.52C136.114 422.52 133.71 422.183 131.699 421.51C129.687 420.837 128.145 419.878 127.071 418.634C125.997 417.381 125.46 415.881 125.46 414.134C125.46 412.387 125.997 410.891 127.071 409.646C128.145 408.394 129.687 407.431 131.699 406.757C133.71 406.084 136.114 405.747 138.909 405.747C141.713 405.747 144.121 406.084 146.132 406.757C148.135 407.422 149.673 408.381 150.747 409.634C151.821 410.887 152.358 412.387 152.358 414.134ZM150.875 414.134C150.875 412.012 149.822 410.345 147.717 409.135C145.604 407.925 142.668 407.32 138.909 407.32C136.403 407.32 134.256 407.597 132.466 408.151C130.676 408.696 129.308 409.476 128.362 410.49C127.408 411.504 126.93 412.719 126.93 414.134C126.93 416.256 127.987 417.922 130.101 419.132C132.214 420.343 135.151 420.948 138.909 420.948C141.415 420.948 143.562 420.675 145.352 420.129C147.134 419.584 148.501 418.804 149.456 417.79C150.402 416.767 150.875 415.548 150.875 414.134Z" fill="#343A40"/>
<rect x="200" y="500" width="250" height="10" transform="rotate(-90 200 500)" fill="#8D45BA"/>
<path d="M246.119 497.144H244.841L225.818 485.293V484.322H228.286V485.153L244.496 495.214H244.636V480.09H246.119V497.144ZM252 485.025H245.685H245.109H225.818V483.465H252V485.025ZM225.818 467.916H252V469.514H227.506V469.668L231.405 475.548H229.692L225.818 469.719V467.916ZM238.168 449.434H239.651V459.763H238.168V449.434ZM252.358 435.63C252.349 436.73 252.115 437.774 251.655 438.762C251.186 439.751 250.462 440.629 249.482 441.396C248.493 442.154 247.223 442.755 245.672 443.198C244.112 443.633 242.246 443.85 240.072 443.85C238.121 443.85 236.267 443.697 234.511 443.39C232.756 443.075 231.2 442.58 229.845 441.907C228.482 441.234 227.412 440.356 226.636 439.274C225.852 438.183 225.46 436.866 225.46 435.323C225.46 433.977 225.754 432.792 226.342 431.769C226.922 430.738 227.732 429.916 228.771 429.302C229.803 428.688 231 428.318 232.364 428.19V429.775C230.77 429.954 229.47 430.525 228.464 431.488C227.45 432.443 226.943 433.721 226.943 435.323C226.943 437.59 228.051 439.325 230.267 440.526C232.483 441.72 235.653 442.316 239.778 442.316V442.176C238.96 441.835 238.24 441.332 237.618 440.667C236.987 439.994 236.497 439.218 236.148 438.34C235.798 437.463 235.624 436.538 235.624 435.566C235.624 434.151 235.986 432.86 236.71 431.693C237.435 430.517 238.428 429.575 239.689 428.867C240.95 428.16 242.378 427.806 243.972 427.806C245.48 427.806 246.874 428.134 248.152 428.791C249.422 429.447 250.445 430.363 251.22 431.539C251.987 432.707 252.366 434.07 252.358 435.63ZM250.875 435.63C250.875 434.437 250.564 433.372 249.942 432.434C249.32 431.488 248.489 430.742 247.449 430.197C246.401 429.651 245.241 429.379 243.972 429.379C242.693 429.379 241.534 429.66 240.494 430.222C239.455 430.785 238.632 431.548 238.027 432.511C237.413 433.465 237.107 434.539 237.107 435.732C237.107 436.67 237.298 437.539 237.682 438.34C238.057 439.142 238.577 439.832 239.241 440.411C239.906 440.982 240.669 441.404 241.53 441.677C242.382 441.941 243.281 442.014 244.227 441.894C245.599 441.698 246.784 441.315 247.781 440.744C248.77 440.164 249.533 439.44 250.07 438.57C250.607 437.693 250.875 436.713 250.875 435.63ZM252.358 414.239C252.358 415.986 251.821 417.486 250.747 418.739C249.673 419.992 248.135 420.955 246.132 421.628C244.121 422.293 241.713 422.626 238.909 422.626C236.114 422.626 233.71 422.289 231.699 421.616C229.687 420.942 228.145 419.983 227.071 418.739C225.997 417.486 225.46 415.986 225.46 414.239C225.46 412.492 225.997 410.996 227.071 409.752C228.145 408.499 229.687 407.536 231.699 406.863C233.71 406.189 236.114 405.853 238.909 405.853C241.713 405.853 244.121 406.189 246.132 406.863C248.135 407.528 249.673 408.486 250.747 409.739C251.821 410.992 252.358 412.492 252.358 414.239ZM250.875 414.239C250.875 412.117 249.822 410.451 247.717 409.241C245.604 408.03 242.668 407.425 238.909 407.425C236.403 407.425 234.256 407.702 232.466 408.256C230.676 408.802 229.308 409.581 228.362 410.596C227.408 411.61 226.93 412.824 226.93 414.239C226.93 416.361 227.987 418.028 230.101 419.238C232.214 420.448 235.151 421.053 238.909 421.053C241.415 421.053 243.562 420.78 245.352 420.235C247.134 419.689 248.501 418.91 249.456 417.895C250.402 416.873 250.875 415.654 250.875 414.239Z" fill="#343A40"/>
<rect x="300" y="500" width="400" height="10" transform="rotate(-90 300 500)" fill="#FF415B"/>
<path d="M352.358 488.786C352.349 489.886 352.115 490.93 351.655 491.919C351.186 492.907 350.462 493.785 349.482 494.552C348.493 495.311 347.223 495.911 345.672 496.355C344.112 496.789 342.246 497.007 340.072 497.007C338.121 497.007 336.267 496.853 334.511 496.546C332.756 496.231 331.2 495.737 329.845 495.063C328.482 494.39 327.412 493.512 326.636 492.43C325.852 491.339 325.46 490.022 325.46 488.48C325.46 487.133 325.754 485.948 326.342 484.926C326.922 483.894 327.732 483.072 328.771 482.458C329.803 481.845 331 481.474 332.364 481.346V482.931C330.77 483.11 329.47 483.681 328.464 484.644C327.45 485.599 326.943 486.877 326.943 488.48C326.943 490.747 328.051 492.481 330.267 493.683C332.483 494.876 335.653 495.472 339.778 495.472V495.332C338.96 494.991 338.24 494.488 337.618 493.823C336.987 493.15 336.497 492.374 336.148 491.497C335.798 490.619 335.624 489.694 335.624 488.722C335.624 487.308 335.986 486.017 336.71 484.849C337.435 483.673 338.428 482.731 339.689 482.024C340.95 481.316 342.378 480.963 343.972 480.963C345.48 480.963 346.874 481.291 348.152 481.947C349.422 482.603 350.445 483.519 351.22 484.695C351.987 485.863 352.366 487.227 352.358 488.786ZM350.875 488.786C350.875 487.593 350.564 486.528 349.942 485.59C349.32 484.644 348.489 483.899 347.449 483.353C346.401 482.808 345.241 482.535 343.972 482.535C342.693 482.535 341.534 482.816 340.494 483.379C339.455 483.941 338.632 484.704 338.027 485.667C337.413 486.622 337.107 487.695 337.107 488.889C337.107 489.826 337.298 490.695 337.682 491.497C338.057 492.298 338.577 492.988 339.241 493.568C339.906 494.139 340.669 494.561 341.53 494.833C342.382 495.097 343.281 495.17 344.227 495.051C345.599 494.855 346.784 494.471 347.781 493.9C348.77 493.32 349.533 492.596 350.07 491.727C350.607 490.849 350.875 489.869 350.875 488.786ZM325.818 468.162H352V469.76H327.506V469.914L331.405 475.795H329.692L325.818 469.965V468.162ZM338.168 449.68H339.651V460.009H338.168V449.68ZM352.358 435.876C352.358 437.461 352.043 438.889 351.412 440.159C350.773 441.429 349.912 442.434 348.83 443.176C347.747 443.909 346.533 444.271 345.186 444.263C344.121 444.271 343.119 444.045 342.182 443.585C341.244 443.116 340.447 442.477 339.791 441.667C339.126 440.858 338.683 439.933 338.462 438.893H338.347C337.929 440.214 337.158 441.292 336.033 442.128C334.908 442.954 333.634 443.368 332.21 443.368C330.94 443.368 329.798 443.04 328.784 442.383C327.761 441.719 326.952 440.819 326.355 439.686C325.759 438.552 325.46 437.282 325.46 435.876C325.46 434.496 325.759 433.238 326.355 432.105C326.943 430.971 327.749 430.072 328.771 429.407C329.786 428.734 330.932 428.398 332.21 428.398C333.625 428.398 334.899 428.811 336.033 429.638C337.158 430.456 337.929 431.53 338.347 432.859H338.462C338.675 431.828 339.114 430.912 339.778 430.111C340.435 429.301 341.236 428.666 342.182 428.206C343.119 427.737 344.121 427.498 345.186 427.49C346.533 427.498 347.747 427.873 348.83 428.615C349.912 429.348 350.773 430.349 351.412 431.619C352.043 432.881 352.358 434.3 352.358 435.876ZM350.875 435.876C350.875 434.572 350.619 433.409 350.108 432.386C349.597 431.363 348.906 430.558 348.037 429.97C347.159 429.382 346.179 429.084 345.097 429.075C343.997 429.084 343 429.39 342.105 429.996C341.21 430.592 340.499 431.402 339.97 432.425C339.442 433.447 339.178 434.598 339.178 435.876C339.178 437.163 339.442 438.322 339.97 439.354C340.499 440.376 341.21 441.19 342.105 441.795C343 442.392 343.997 442.686 345.097 442.677C346.179 442.686 347.159 442.396 348.037 441.808C348.906 441.211 349.597 440.402 350.108 439.379C350.619 438.348 350.875 437.18 350.875 435.876ZM337.797 435.876C337.797 434.777 337.55 433.784 337.055 432.898C336.561 432.003 335.896 431.291 335.061 430.763C334.226 430.234 333.297 429.97 332.274 429.97C331.251 429.97 330.339 430.234 329.538 430.763C328.729 431.282 328.094 431.99 327.634 432.885C327.165 433.771 326.93 434.768 326.93 435.876C326.93 436.993 327.165 437.998 327.634 438.893C328.094 439.788 328.729 440.496 329.538 441.015C330.339 441.535 331.251 441.795 332.274 441.795C333.297 441.795 334.226 441.535 335.061 441.015C335.896 440.487 336.561 439.775 337.055 438.881C337.55 437.986 337.797 436.984 337.797 435.876ZM352.358 414.134C352.358 415.881 351.821 417.381 350.747 418.634C349.673 419.887 348.135 420.85 346.132 421.523C344.121 422.188 341.713 422.52 338.909 422.52C336.114 422.52 333.71 422.183 331.699 421.51C329.687 420.837 328.145 419.878 327.071 418.634C325.997 417.381 325.46 415.881 325.46 414.134C325.46 412.387 325.997 410.891 327.071 409.646C328.145 408.394 329.687 407.431 331.699 406.757C333.71 406.084 336.114 405.747 338.909 405.747C341.713 405.747 344.121 406.084 346.132 406.757C348.135 407.422 349.673 408.381 350.747 409.634C351.821 410.887 352.358 412.387 352.358 414.134ZM350.875 414.134C350.875 412.012 349.822 410.345 347.717 409.135C345.604 407.925 342.668 407.32 338.909 407.32C336.403 407.32 334.256 407.597 332.466 408.151C330.676 408.696 329.308 409.476 328.362 410.49C327.408 411.504 326.93 412.719 326.93 414.134C326.93 416.256 327.987 417.922 330.101 419.132C332.214 420.343 335.151 420.948 338.909 420.948C341.415 420.948 343.562 420.675 345.352 420.129C347.134 419.584 348.501 418.804 349.456 417.79C350.402 416.767 350.875 415.548 350.875 414.134Z" fill="#343A40"/>
<rect x="400" y="500" width="50" height="10" transform="rotate(-90 400 500)" fill="#E9CC32" stroke="#E9CC32" stroke-linecap="round" stroke-linejoin="round"/>
<path d="M452.358 488.574C452.358 490.159 452.043 491.586 451.412 492.856C450.773 494.126 449.912 495.132 448.83 495.873C447.747 496.606 446.533 496.968 445.186 496.96C444.121 496.968 443.119 496.743 442.182 496.282C441.244 495.814 440.447 495.174 439.791 494.365C439.126 493.555 438.683 492.63 438.462 491.591H438.347C437.929 492.912 437.158 493.99 436.033 494.825C434.908 495.652 433.634 496.065 432.21 496.065C430.94 496.065 429.798 495.737 428.784 495.081C427.761 494.416 426.952 493.517 426.355 492.383C425.759 491.25 425.46 489.98 425.46 488.574C425.46 487.193 425.759 485.936 426.355 484.802C426.943 483.669 427.749 482.77 428.771 482.105C429.786 481.431 430.932 481.095 432.21 481.095C433.625 481.095 434.899 481.508 436.033 482.335C437.158 483.153 437.929 484.227 438.347 485.556H438.462C438.675 484.525 439.114 483.609 439.778 482.808C440.435 481.998 441.236 481.363 442.182 480.903C443.119 480.434 444.121 480.196 445.186 480.187C446.533 480.196 447.747 480.571 448.83 481.312C449.912 482.045 450.773 483.047 451.412 484.316C452.043 485.578 452.358 486.997 452.358 488.574ZM450.875 488.574C450.875 487.27 450.619 486.106 450.108 485.083C449.597 484.061 448.906 483.255 448.037 482.667C447.159 482.079 446.179 481.781 445.097 481.772C443.997 481.781 443 482.088 442.105 482.693C441.21 483.289 440.499 484.099 439.97 485.122C439.442 486.145 439.178 487.295 439.178 488.574C439.178 489.86 439.442 491.02 439.97 492.051C440.499 493.074 441.21 493.887 442.105 494.493C443 495.089 443.997 495.383 445.097 495.375C446.179 495.383 447.159 495.093 448.037 494.505C448.906 493.909 449.597 493.099 450.108 492.076C450.619 491.045 450.875 489.877 450.875 488.574ZM437.797 488.574C437.797 487.474 437.55 486.481 437.055 485.595C436.561 484.7 435.896 483.988 435.061 483.46C434.226 482.931 433.297 482.667 432.274 482.667C431.251 482.667 430.339 482.931 429.538 483.46C428.729 483.98 428.094 484.687 427.634 485.582C427.165 486.468 426.93 487.466 426.93 488.574C426.93 489.69 427.165 490.696 427.634 491.591C428.094 492.485 428.729 493.193 429.538 493.713C430.339 494.233 431.251 494.493 432.274 494.493C433.297 494.493 434.226 494.233 435.061 493.713C435.896 493.184 436.561 492.473 437.055 491.578C437.55 490.683 437.797 489.681 437.797 488.574ZM425.818 467.598H452V469.196H427.506V469.349L431.405 475.23H429.692L425.818 469.401V467.598ZM438.168 449.115H439.651V459.445H438.168V449.115ZM425.818 436.168H452V437.766H427.506V437.92L431.405 443.8H429.692L425.818 437.971V436.168ZM452.358 420.038C452.358 421.785 451.821 423.285 450.747 424.538C449.673 425.791 448.135 426.754 446.132 427.427C444.121 428.092 441.713 428.424 438.909 428.424C436.114 428.424 433.71 428.088 431.699 427.414C429.687 426.741 428.145 425.782 427.071 424.538C425.997 423.285 425.46 421.785 425.46 420.038C425.46 418.291 425.997 416.795 427.071 415.551C428.145 414.298 429.687 413.335 431.699 412.662C433.71 411.988 436.114 411.652 438.909 411.652C441.713 411.652 444.121 411.988 446.132 412.662C448.135 413.326 449.673 414.285 450.747 415.538C451.821 416.791 452.358 418.291 452.358 420.038ZM450.875 420.038C450.875 417.916 449.822 416.25 447.717 415.039C445.604 413.829 442.668 413.224 438.909 413.224C436.403 413.224 434.256 413.501 432.466 414.055C430.676 414.6 429.308 415.38 428.362 416.395C427.408 417.409 426.93 418.623 426.93 420.038C426.93 422.16 427.987 423.826 430.101 425.037C432.214 426.247 435.151 426.852 438.909 426.852C441.415 426.852 443.562 426.579 445.352 426.034C447.134 425.488 448.501 424.708 449.456 423.694C450.402 422.672 450.875 421.453 450.875 420.038ZM452.358 398.347C452.358 400.094 451.821 401.594 450.747 402.847C449.673 404.099 448.135 405.062 446.132 405.736C444.121 406.401 441.713 406.733 438.909 406.733C436.114 406.733 433.71 406.396 431.699 405.723C429.687 405.05 428.145 404.091 427.071 402.847C425.997 401.594 425.46 400.094 425.46 398.347C425.46 396.599 425.997 395.104 427.071 393.859C428.145 392.607 429.687 391.643 431.699 390.97C433.71 390.297 436.114 389.96 438.909 389.96C441.713 389.96 444.121 390.297 446.132 390.97C448.135 391.635 449.673 392.594 450.747 393.847C451.821 395.099 452.358 396.599 452.358 398.347ZM450.875 398.347C450.875 396.224 449.822 394.558 447.717 393.348C445.604 392.138 442.668 391.533 438.909 391.533C436.403 391.533 434.256 391.81 432.466 392.364C430.676 392.909 429.308 393.689 428.362 394.703C427.408 395.717 426.93 396.932 426.93 398.347C426.93 400.469 427.987 402.135 430.101 403.345C432.214 404.555 435.151 405.161 438.909 405.161C441.415 405.161 443.562 404.888 445.352 404.342C447.134 403.797 448.501 403.017 449.456 402.003C450.402 400.98 450.875 399.761 450.875 398.347Z" fill="#343A40"/>
<rect x="500" y="500" width="325" height="10" transform="rotate(-90 500 500)" fill="#343A40"/>
<path d="M534 475.966V477.602C533.114 477.773 532.257 478.093 531.43 478.561C530.595 479.03 529.845 479.635 529.18 480.377C528.507 481.11 527.974 481.962 527.582 482.933C527.19 483.905 526.994 484.979 526.994 486.155C526.994 487.877 527.455 489.462 528.375 490.911C529.287 492.351 530.629 493.506 532.402 494.375C534.175 495.236 536.344 495.666 538.909 495.666C541.491 495.666 543.669 495.236 545.442 494.375C547.214 493.506 548.557 492.351 549.469 490.911C550.372 489.462 550.824 487.877 550.824 486.155C550.824 484.979 550.632 483.905 550.249 482.933C549.857 481.962 549.328 481.11 548.663 480.377C547.99 479.635 547.236 479.03 546.401 478.561C545.565 478.093 544.705 477.773 543.818 477.602V475.966C544.875 476.154 545.911 476.516 546.925 477.053C547.939 477.581 548.859 478.28 549.686 479.149C550.504 480.01 551.156 481.029 551.642 482.205C552.119 483.372 552.358 484.689 552.358 486.155C552.358 488.337 551.804 490.259 550.696 491.921C549.58 493.583 548.011 494.887 545.991 495.833C543.972 496.77 541.611 497.239 538.909 497.239C536.207 497.239 533.847 496.77 531.827 495.833C529.807 494.887 528.243 493.583 527.135 491.921C526.018 490.259 525.46 488.337 525.46 486.155C525.46 484.689 525.703 483.372 526.189 482.205C526.666 481.029 527.314 480.01 528.132 479.149C528.942 478.28 529.854 477.581 530.868 477.053C531.882 476.516 532.926 476.154 534 475.966ZM552.422 465.17C552.422 466.303 552.196 467.343 551.744 468.289C551.293 469.227 550.632 469.981 549.763 470.552C548.893 471.115 547.837 471.396 546.592 471.396C545.774 471.396 545.054 471.251 544.432 470.961C543.81 470.671 543.273 470.224 542.821 469.619C542.369 469.014 541.999 468.238 541.709 467.292C541.411 466.346 541.18 465.217 541.018 463.904C540.899 462.907 540.784 462.017 540.673 461.232C540.554 460.448 540.371 459.835 540.124 459.392C539.876 458.94 539.501 458.714 538.999 458.714H538.18C536.749 458.714 535.611 459.166 534.767 460.069C533.923 460.972 533.501 462.217 533.501 463.802C533.501 465.208 533.812 466.393 534.435 467.356C535.048 468.311 535.841 468.98 536.812 469.363L536.263 470.833C535.325 470.458 534.545 469.917 533.923 469.21C533.301 468.494 532.837 467.676 532.53 466.755C532.223 465.826 532.07 464.855 532.07 463.84C532.07 462.963 532.193 462.127 532.44 461.335C532.688 460.534 533.062 459.822 533.565 459.2C534.068 458.569 534.712 458.07 535.496 457.704C536.271 457.338 537.2 457.154 538.283 457.154H552V458.714H548.459V458.829C549.192 459.17 549.861 459.639 550.466 460.235C551.062 460.823 551.54 461.535 551.898 462.37C552.247 463.197 552.422 464.13 552.422 465.17ZM550.977 465.017C550.977 463.789 550.679 462.703 550.082 461.757C549.477 460.802 548.651 460.056 547.602 459.519C546.554 458.982 545.365 458.714 544.036 458.714H541.146C541.317 458.91 541.47 459.195 541.607 459.57C541.734 459.937 541.849 460.355 541.952 460.823C542.045 461.284 542.131 461.769 542.207 462.281C542.276 462.784 542.339 463.274 542.399 463.751C542.57 465.183 542.834 466.35 543.192 467.254C543.541 468.149 544.001 468.805 544.572 469.222C545.143 469.632 545.834 469.836 546.643 469.836C547.982 469.836 549.038 469.376 549.814 468.455C550.589 467.535 550.977 466.389 550.977 465.017ZM539.267 449.056H552V450.615H532.364V449.094H535.47V448.941C534.456 448.48 533.642 447.743 533.028 446.729C532.415 445.715 532.108 444.509 532.108 443.111C532.108 441.79 532.389 440.631 532.952 439.634C533.514 438.628 534.315 437.844 535.355 437.281C536.386 436.71 537.618 436.425 539.05 436.425H552V437.985H539.114C537.443 437.985 536.101 438.483 535.087 439.48C534.064 440.469 533.553 441.777 533.553 443.405C533.553 444.496 533.791 445.468 534.268 446.32C534.746 447.172 535.415 447.841 536.276 448.327C537.128 448.813 538.125 449.056 539.267 449.056ZM525.818 428.435H528.119C528.818 428.435 529.564 428.563 530.357 428.818C531.141 429.066 531.903 429.432 532.645 429.918C533.378 430.395 534.017 430.975 534.562 431.656L533.706 432.513C532.99 431.763 532.134 431.149 531.136 430.672C530.131 430.186 529.129 429.943 528.132 429.943H525.818V428.435ZM532.364 416.498H533.757V425.076H532.364V416.498ZM527.659 422.174V420.627H547.359C548.161 420.627 548.817 420.474 549.328 420.167C549.831 419.851 550.206 419.442 550.453 418.939C550.692 418.428 550.811 417.883 550.811 417.303C550.811 417.022 550.79 416.779 550.747 416.574C550.705 416.361 550.649 416.161 550.581 415.974L552 415.59C552.085 415.829 552.158 416.093 552.217 416.383C552.286 416.672 552.32 417.013 552.32 417.405C552.32 418.224 552.136 418.999 551.77 419.732C551.403 420.456 550.871 421.045 550.172 421.496C549.473 421.948 548.629 422.174 547.641 422.174H527.659ZM552 400.038H525.818V391.971C525.818 390.318 526.142 388.895 526.79 387.702C527.437 386.508 528.337 385.592 529.487 384.953C530.629 384.314 531.959 383.994 533.476 383.994C534.976 383.994 536.297 384.314 537.439 384.953C538.572 385.592 539.459 386.508 540.098 387.702C540.737 388.886 541.057 390.305 541.057 391.959V399.182H539.561V391.997C539.561 390.65 539.31 389.5 538.807 388.545C538.304 387.591 537.601 386.858 536.697 386.346C535.786 385.835 534.712 385.579 533.476 385.579C532.232 385.579 531.149 385.835 530.229 386.346C529.3 386.858 528.58 387.595 528.068 388.558C527.557 389.513 527.301 390.663 527.301 392.01V398.44H552V400.038ZM540.136 389.287L552 382.844V384.684L540.136 391.089V389.287ZM552.422 372.955C552.422 374.089 552.196 375.128 551.744 376.074C551.293 377.012 550.632 377.766 549.763 378.337C548.893 378.9 547.837 379.181 546.592 379.181C545.774 379.181 545.054 379.036 544.432 378.746C543.81 378.456 543.273 378.009 542.821 377.404C542.369 376.799 541.999 376.023 541.709 375.077C541.411 374.131 541.18 373.002 541.018 371.689C540.899 370.692 540.784 369.802 540.673 369.018C540.554 368.233 540.371 367.62 540.124 367.177C539.876 366.725 539.501 366.499 538.999 366.499H538.18C536.749 366.499 535.611 366.951 534.767 367.854C533.923 368.758 533.501 370.002 533.501 371.587C533.501 372.993 533.812 374.178 534.435 375.141C535.048 376.096 535.841 376.765 536.812 377.148L536.263 378.618C535.325 378.243 534.545 377.702 533.923 376.995C533.301 376.279 532.837 375.461 532.53 374.54C532.223 373.611 532.07 372.64 532.07 371.626C532.07 370.748 532.193 369.912 532.44 369.12C532.688 368.319 533.062 367.607 533.565 366.985C534.068 366.354 534.712 365.856 535.496 365.489C536.271 365.123 537.2 364.939 538.283 364.939H552V366.499H548.459V366.614C549.192 366.955 549.861 367.424 550.466 368.02C551.062 368.608 551.54 369.32 551.898 370.155C552.247 370.982 552.422 371.915 552.422 372.955ZM550.977 372.802C550.977 371.574 550.679 370.488 550.082 369.542C549.477 368.587 548.651 367.841 547.602 367.305C546.554 366.768 545.365 366.499 544.036 366.499H541.146C541.317 366.695 541.47 366.981 541.607 367.356C541.734 367.722 541.849 368.14 541.952 368.608C542.045 369.069 542.131 369.555 542.207 370.066C542.276 370.569 542.339 371.059 542.399 371.536C542.57 372.968 542.834 374.135 543.192 375.039C543.541 375.934 544.001 376.59 544.572 377.008C545.143 377.417 545.834 377.621 546.643 377.621C547.982 377.621 549.038 377.161 549.814 376.241C550.589 375.32 550.977 374.174 550.977 372.802ZM532.364 351.459H533.757V360.037H532.364V351.459ZM527.659 357.135V355.588H547.359C548.161 355.588 548.817 355.434 549.328 355.128C549.831 354.812 550.206 354.403 550.453 353.9C550.692 353.389 550.811 352.844 550.811 352.264C550.811 351.983 550.79 351.74 550.747 351.535C550.705 351.322 550.649 351.122 550.581 350.934L552 350.551C552.085 350.79 552.158 351.054 552.217 351.344C552.286 351.633 552.32 351.974 552.32 352.366C552.32 353.184 552.136 353.96 551.77 354.693C551.403 355.417 550.871 356.006 550.172 356.457C549.473 356.909 548.629 357.135 547.641 357.135H527.659ZM552.409 338.227C552.409 340 551.97 341.542 551.092 342.855C550.214 344.167 549.013 345.182 547.487 345.898C545.962 346.613 544.223 346.971 542.271 346.971C540.311 346.971 538.564 346.613 537.03 345.898C535.496 345.173 534.286 344.18 533.399 342.919C532.513 341.657 532.07 340.217 532.07 338.598C532.07 337.498 532.291 336.459 532.734 335.479C533.169 334.49 533.8 333.621 534.626 332.871C535.453 332.112 536.45 331.52 537.618 331.094C538.786 330.659 540.098 330.442 541.555 330.442H542.527V345.987H541.108V332.001C539.685 332.001 538.402 332.291 537.26 332.871C536.118 333.45 535.21 334.238 534.537 335.236C533.864 336.233 533.527 337.354 533.527 338.598C533.527 339.902 533.893 341.065 534.626 342.088C535.351 343.102 536.331 343.907 537.567 344.504C538.803 345.092 540.183 345.399 541.709 345.425H542.348C543.984 345.425 545.455 345.139 546.759 344.568C548.054 343.988 549.081 343.162 549.839 342.088C550.589 341.014 550.964 339.727 550.964 338.227C550.964 337.153 550.786 336.237 550.428 335.479C550.061 334.711 549.618 334.085 549.098 333.599C548.578 333.113 548.075 332.747 547.589 332.5L548.165 331.081C548.821 331.379 549.477 331.844 550.134 332.474C550.781 333.096 551.322 333.889 551.757 334.852C552.192 335.807 552.409 336.932 552.409 338.227Z" fill="#343A40"/>
</svg>
