<svg width="563" height="500" viewBox="0 0 563 500" fill="none" xmlns="http://www.w3.org/2000/svg">
<rect y="500" width="25" height="10" transform="rotate(-90 0 500)" fill="#C43739"/>
<path d="M52.358 488.813C52.358 490.561 51.821 492.061 50.7472 493.313C49.6733 494.566 48.1349 495.529 46.1321 496.203C44.1207 496.867 41.7131 497.2 38.9091 497.2C36.1136 497.2 33.7102 496.863 31.6989 496.19C29.6875 495.517 28.1449 494.558 27.071 493.313C25.9972 492.061 25.4602 490.561 25.4602 488.813C25.4602 487.066 25.9972 485.57 27.071 484.326C28.1449 483.073 29.6875 482.11 31.6989 481.437C33.7102 480.764 36.1136 480.427 38.9091 480.427C41.7131 480.427 44.1207 480.764 46.1321 481.437C48.1349 482.102 49.6733 483.061 50.7472 484.313C51.821 485.566 52.358 487.066 52.358 488.813ZM50.875 488.813C50.875 486.691 49.8224 485.025 47.7173 483.815C45.6037 482.605 42.6676 481.999 38.9091 481.999C36.4034 481.999 34.2557 482.276 32.4659 482.83C30.6761 483.376 29.3082 484.156 28.3622 485.17C27.4077 486.184 26.9304 487.399 26.9304 488.813C26.9304 490.936 27.9872 492.602 30.1009 493.812C32.2145 495.022 35.1506 495.627 38.9091 495.627C41.4148 495.627 43.5625 495.355 45.3523 494.809C47.1335 494.264 48.5014 493.484 49.456 492.47C50.402 491.447 50.875 490.228 50.875 488.813ZM38.1676 464.77H39.6506V475.099H38.1676V464.77ZM52.358 451.656C52.358 453.054 52.0639 454.303 51.4759 455.402C50.8793 456.493 50.0611 457.358 49.0213 457.997C47.9815 458.628 46.7926 458.952 45.4545 458.969V457.396C47.0398 457.362 48.3395 456.813 49.3537 455.747C50.3679 454.682 50.875 453.318 50.875 451.656C50.875 450.378 50.5682 449.253 49.9545 448.281C49.3324 447.301 48.4886 446.534 47.4233 445.98C46.358 445.426 45.1562 445.154 43.8182 445.162C42.4034 445.162 41.1676 445.46 40.1108 446.057C39.054 446.654 38.2358 447.45 37.6562 448.448C37.0767 449.445 36.7827 450.548 36.7741 451.759C36.7741 452.713 36.9489 453.608 37.2983 454.443C37.6392 455.279 38.0781 455.99 38.6151 456.578L38.3594 458.381L25.8182 456.834L25.8182 444.561H27.3011V455.466L37.1065 456.668V456.54C36.5611 455.926 36.1222 455.198 35.7898 454.354C35.4489 453.502 35.2784 452.577 35.2784 451.58C35.2784 450.114 35.6364 448.776 36.3523 447.566C37.0682 446.347 38.0653 445.379 39.3438 444.664C40.6222 443.939 42.1094 443.581 43.8054 443.59C45.4418 443.598 46.9034 443.948 48.1903 444.638C49.4773 445.328 50.4957 446.283 51.2457 447.502C51.9872 448.712 52.358 450.097 52.358 451.656ZM52.358 430.067C52.358 431.814 51.821 433.314 50.7472 434.567C49.6733 435.82 48.1349 436.783 46.1321 437.456C44.1207 438.121 41.7131 438.454 38.9091 438.454C36.1136 438.454 33.7102 438.117 31.6989 437.444C29.6875 436.77 28.1449 435.812 27.071 434.567C25.9972 433.314 25.4602 431.814 25.4602 430.067C25.4602 428.32 25.9972 426.824 27.071 425.58C28.1449 424.327 29.6875 423.364 31.6989 422.691C33.7102 422.018 36.1136 421.681 38.9091 421.681C41.7131 421.681 44.1207 422.018 46.1321 422.691C48.1349 423.356 49.6733 424.314 50.7472 425.567C51.821 426.82 52.358 428.32 52.358 430.067ZM50.875 430.067C50.875 427.945 49.8224 426.279 47.7173 425.069C45.6037 423.858 42.6676 423.253 38.9091 423.253C36.4034 423.253 34.2557 423.53 32.4659 424.084C30.6761 424.63 29.3082 425.41 28.3622 426.424C27.4077 427.438 26.9304 428.653 26.9304 430.067C26.9304 432.189 27.9872 433.856 30.1009 435.066C32.2145 436.276 35.1506 436.881 38.9091 436.881C41.4148 436.881 43.5625 436.608 45.3523 436.063C47.1335 435.518 48.5014 434.738 49.456 433.724C50.402 432.701 50.875 431.482 50.875 430.067ZM44.3295 414.627L42.0923 414.653V414.244L32.3636 404.426V402.393L41.3125 411.406L41.3764 411.559L44.3295 414.627ZM52 415.982H25.8182V414.423H52V415.982ZM52 403.978L41.5298 412.262L40.4943 411.137L52 401.984V403.978ZM52 387.097H25.8182V379.03C25.8182 377.377 26.142 375.953 26.7898 374.76C27.4375 373.567 28.3366 372.651 29.4872 372.012C30.6293 371.372 31.9588 371.053 33.4759 371.053C34.9759 371.053 36.2969 371.372 37.4389 372.012C38.5724 372.651 39.4588 373.567 40.098 374.76C40.7372 375.945 41.0568 377.364 41.0568 379.017V386.24H39.5611V379.056C39.5611 377.709 39.3097 376.558 38.8068 375.604C38.304 374.649 37.6009 373.916 36.6974 373.405C35.7855 372.894 34.7116 372.638 33.4759 372.638C32.2315 372.638 31.1491 372.894 30.2287 373.405C29.2997 373.916 28.5795 374.654 28.0682 375.617C27.5568 376.571 27.3011 377.722 27.3011 379.068V385.499H52V387.097ZM40.1364 376.345L52 369.902V371.743L40.1364 378.148V376.345ZM36.5952 352.74L36.9787 354.184C36.2628 354.414 35.6449 354.742 35.125 355.169C34.6051 355.595 34.2045 356.132 33.9233 356.779C33.6335 357.419 33.4886 358.186 33.4886 359.08C33.4886 360.521 33.8466 361.701 34.5625 362.622C35.2784 363.534 36.2116 363.99 37.3622 363.99C38.2997 363.99 39.0753 363.678 39.6889 363.056C40.294 362.434 40.7543 361.484 41.0696 360.205L41.8239 357.188C42.2074 355.637 42.8295 354.47 43.6903 353.686C44.5426 352.901 45.6037 352.509 46.8736 352.509C47.956 352.509 48.9148 352.803 49.75 353.392C50.5852 353.98 51.2372 354.794 51.706 355.833C52.1747 356.865 52.4091 358.066 52.4091 359.438C52.4091 361.271 51.983 362.775 51.1307 363.951C50.2699 365.127 49.0384 365.882 47.4361 366.214L47.0526 364.718C48.331 364.437 49.3068 363.853 49.9801 362.967C50.6449 362.072 50.9773 360.9 50.9773 359.451C50.9773 357.849 50.598 356.558 49.8395 355.578C49.081 354.589 48.1094 354.095 46.9247 354.095C46.0213 354.095 45.2585 354.384 44.6364 354.964C44.0142 355.544 43.5582 356.421 43.2685 357.597L42.5014 360.73C42.1094 362.332 41.483 363.534 40.6222 364.335C39.7528 365.136 38.6832 365.536 37.4134 365.536C36.3565 365.536 35.4276 365.259 34.6264 364.705C33.8253 364.151 33.1989 363.389 32.7472 362.417C32.2955 361.445 32.0696 360.333 32.0696 359.08C32.0696 357.419 32.4616 356.063 33.2457 355.015C34.0298 353.967 35.1463 353.208 36.5952 352.74Z" fill="#343A40"/>
<rect x="100" y="500" width="100" height="10" transform="rotate(-90 100 500)" fill="#0E8F8D"/>
<path d="M152.358 489.264C152.358 490.662 152.064 491.91 151.476 493.01C150.879 494.1 150.061 494.966 149.021 495.605C147.982 496.235 146.793 496.559 145.455 496.576V495.004C147.04 494.97 148.339 494.42 149.354 493.355C150.368 492.289 150.875 490.926 150.875 489.264C150.875 487.985 150.568 486.86 149.955 485.889C149.332 484.909 148.489 484.142 147.423 483.588C146.358 483.034 145.156 482.761 143.818 482.77C142.403 482.77 141.168 483.068 140.111 483.664C139.054 484.261 138.236 485.058 137.656 486.055C137.077 487.052 136.783 488.156 136.774 489.366C136.774 490.321 136.949 491.216 137.298 492.051C137.639 492.886 138.078 493.598 138.615 494.186L138.359 495.988L125.818 494.441V482.169H127.301V493.074L137.107 494.275V494.147C136.561 493.534 136.122 492.805 135.79 491.961C135.449 491.109 135.278 490.184 135.278 489.187C135.278 487.721 135.636 486.383 136.352 485.173C137.068 483.954 138.065 482.987 139.344 482.271C140.622 481.547 142.109 481.189 143.805 481.197C145.442 481.206 146.903 481.555 148.19 482.245C149.477 482.936 150.496 483.89 151.246 485.109C151.987 486.319 152.358 487.704 152.358 489.264ZM152.358 467.675C152.358 469.422 151.821 470.922 150.747 472.175C149.673 473.428 148.135 474.391 146.132 475.064C144.121 475.729 141.713 476.061 138.909 476.061C136.114 476.061 133.71 475.724 131.699 475.051C129.687 474.378 128.145 473.419 127.071 472.175C125.997 470.922 125.46 469.422 125.46 467.675C125.46 465.928 125.997 464.432 127.071 463.188C128.145 461.935 129.687 460.972 131.699 460.298C133.71 459.625 136.114 459.288 138.909 459.288C141.713 459.288 144.121 459.625 146.132 460.298C148.135 460.963 149.673 461.922 150.747 463.175C151.821 464.428 152.358 465.928 152.358 467.675ZM150.875 467.675C150.875 465.553 149.822 463.886 147.717 462.676C145.604 461.466 142.668 460.861 138.909 460.861C136.403 460.861 134.256 461.138 132.466 461.692C130.676 462.237 129.308 463.017 128.362 464.031C127.408 465.045 126.93 466.26 126.93 467.675C126.93 469.797 127.987 471.463 130.101 472.673C132.214 473.884 135.151 474.489 138.909 474.489C141.415 474.489 143.562 474.216 145.352 473.67C147.134 473.125 148.501 472.345 149.456 471.331C150.402 470.308 150.875 469.089 150.875 467.675ZM144.33 452.235L142.092 452.26V451.851L132.364 442.033V440L141.312 449.013L141.376 449.167L144.33 452.235ZM152 453.59H125.818V452.03H152V453.59ZM152 441.586L141.53 449.87L140.494 448.745L152 439.591V441.586ZM140.034 427.072H141.517V437.402H140.034V427.072ZM152 422.31H150.786L141.018 413.835C139.621 412.624 138.436 411.665 137.464 410.958C136.493 410.251 135.615 409.744 134.831 409.437C134.047 409.13 133.229 408.977 132.376 408.977C131.311 408.977 130.369 409.228 129.551 409.731C128.724 410.225 128.081 410.903 127.621 411.763C127.161 412.616 126.93 413.587 126.93 414.678C126.93 415.82 127.182 416.822 127.685 417.683C128.187 418.543 128.869 419.217 129.73 419.702C130.591 420.18 131.558 420.418 132.632 420.418V421.965C131.277 421.965 130.058 421.65 128.976 421.019C127.893 420.388 127.037 419.523 126.406 418.424C125.776 417.316 125.46 416.055 125.46 414.64C125.46 413.251 125.763 412.015 126.368 410.933C126.973 409.85 127.8 408.998 128.848 408.376C129.888 407.754 131.064 407.442 132.376 407.442C133.339 407.442 134.268 407.609 135.163 407.941C136.05 408.265 137.043 408.823 138.142 409.616C139.233 410.408 140.58 411.504 142.182 412.901L150.376 420.009H150.517V406.266H152V422.31ZM152.166 398.589C152.166 398.973 152.034 399.301 151.77 399.574C151.497 399.838 151.169 399.97 150.786 399.97C150.411 399.97 150.087 399.838 149.814 399.574C149.541 399.301 149.405 398.973 149.405 398.589C149.405 398.214 149.541 397.891 149.814 397.618C150.087 397.345 150.411 397.209 150.786 397.209C151.041 397.209 151.276 397.273 151.489 397.401C151.693 397.52 151.859 397.686 151.987 397.899C152.107 398.104 152.166 398.334 152.166 398.589ZM152.358 383.83C152.358 385.228 152.064 386.477 151.476 387.576C150.879 388.667 150.061 389.532 149.021 390.171C147.982 390.802 146.793 391.126 145.455 391.143V389.57C147.04 389.536 148.339 388.987 149.354 387.921C150.368 386.856 150.875 385.492 150.875 383.83C150.875 382.552 150.568 381.427 149.955 380.455C149.332 379.475 148.489 378.708 147.423 378.154C146.358 377.6 145.156 377.327 143.818 377.336C142.403 377.336 141.168 377.634 140.111 378.231C139.054 378.827 138.236 379.624 137.656 380.621C137.077 381.619 136.783 382.722 136.774 383.933C136.774 384.887 136.949 385.782 137.298 386.617C137.639 387.452 138.078 388.164 138.615 388.752L138.359 390.555L125.818 389.008V376.735H127.301V387.64L137.107 388.842V388.714C136.561 388.1 136.122 387.371 135.79 386.528C135.449 385.675 135.278 384.751 135.278 383.754C135.278 382.288 135.636 380.95 136.352 379.739C137.068 378.521 138.065 377.553 139.344 376.837C140.622 376.113 142.109 375.755 143.805 375.763C145.442 375.772 146.903 376.121 148.19 376.812C149.477 377.502 150.496 378.457 151.246 379.675C151.987 380.886 152.358 382.271 152.358 383.83ZM152 369.298H125.818V367.7H150.517V354.916H152V369.298ZM152.422 344.395C152.422 345.528 152.196 346.568 151.744 347.514C151.293 348.451 150.632 349.206 149.763 349.777C148.893 350.339 147.837 350.62 146.592 350.62C145.774 350.62 145.054 350.475 144.432 350.186C143.81 349.896 143.273 349.449 142.821 348.843C142.369 348.238 141.999 347.463 141.709 346.517C141.411 345.571 141.18 344.441 141.018 343.129C140.899 342.132 140.784 341.241 140.673 340.457C140.554 339.673 140.371 339.059 140.124 338.616C139.876 338.164 139.501 337.939 138.999 337.939H138.18C136.749 337.939 135.611 338.39 134.767 339.294C133.923 340.197 133.501 341.441 133.501 343.027C133.501 344.433 133.812 345.618 134.435 346.581C135.048 347.535 135.841 348.204 136.812 348.588L136.263 350.058C135.325 349.683 134.545 349.142 133.923 348.434C133.301 347.718 132.837 346.9 132.53 345.98C132.223 345.051 132.07 344.079 132.07 343.065C132.07 342.187 132.193 341.352 132.44 340.559C132.688 339.758 133.062 339.047 133.565 338.424C134.068 337.794 134.712 337.295 135.496 336.929C136.271 336.562 137.2 336.379 138.283 336.379H152V337.939H148.459V338.054C149.192 338.395 149.861 338.863 150.466 339.46C151.062 340.048 151.54 340.76 151.898 341.595C152.247 342.422 152.422 343.355 152.422 344.395ZM150.977 344.241C150.977 343.014 150.679 341.927 150.082 340.981C149.477 340.027 148.651 339.281 147.602 338.744C146.554 338.207 145.365 337.939 144.036 337.939H141.146C141.317 338.135 141.47 338.42 141.607 338.795C141.734 339.162 141.849 339.579 141.952 340.048C142.045 340.508 142.131 340.994 142.207 341.505C142.276 342.008 142.339 342.498 142.399 342.975C142.57 344.407 142.834 345.575 143.192 346.478C143.541 347.373 144.001 348.029 144.572 348.447C145.143 348.856 145.834 349.061 146.643 349.061C147.982 349.061 149.038 348.6 149.814 347.68C150.589 346.76 150.977 345.613 150.977 344.241ZM144.33 328.485L142.092 328.51V328.101L132.364 318.283V316.25L141.312 325.263L141.376 325.417L144.33 328.485ZM152 329.84H125.818V328.28H152V329.84ZM152 317.836L141.53 326.12L140.494 324.995L152 315.841V317.836ZM139.267 310.069H152V311.629H125.818V310.069H135.47V309.916C134.447 309.456 133.634 308.723 133.028 307.717C132.415 306.703 132.108 305.488 132.108 304.074C132.108 302.752 132.389 301.589 132.952 300.583C133.506 299.578 134.303 298.794 135.342 298.231C136.374 297.66 137.609 297.375 139.05 297.375H152V298.922H139.114C137.435 298.922 136.088 299.42 135.074 300.417C134.06 301.414 133.553 302.731 133.553 304.368C133.553 305.467 133.791 306.447 134.268 307.308C134.746 308.169 135.415 308.846 136.276 309.341C137.128 309.826 138.125 310.069 139.267 310.069ZM152 280.247H125.818V272.18C125.818 270.527 126.142 269.104 126.79 267.911C127.437 266.717 128.337 265.801 129.487 265.162C130.629 264.523 131.959 264.203 133.476 264.203C134.976 264.203 136.297 264.523 137.439 265.162C138.572 265.801 139.459 266.717 140.098 267.911C140.737 269.095 141.057 270.514 141.057 272.168V279.391H139.561V272.206C139.561 270.859 139.31 269.709 138.807 268.754C138.304 267.8 137.601 267.067 136.697 266.555C135.786 266.044 134.712 265.788 133.476 265.788C132.232 265.788 131.149 266.044 130.229 266.555C129.3 267.067 128.58 267.804 128.068 268.767C127.557 269.722 127.301 270.872 127.301 272.219V278.649H152V280.247ZM140.136 269.496L152 263.053V264.893L140.136 271.298V269.496ZM136.595 245.89L136.979 247.335C136.263 247.565 135.645 247.893 135.125 248.319C134.605 248.745 134.205 249.282 133.923 249.93C133.634 250.569 133.489 251.336 133.489 252.231C133.489 253.671 133.847 254.852 134.562 255.772C135.278 256.684 136.212 257.14 137.362 257.14C138.3 257.14 139.075 256.829 139.689 256.207C140.294 255.585 140.754 254.634 141.07 253.356L141.824 250.339C142.207 248.788 142.83 247.62 143.69 246.836C144.543 246.052 145.604 245.66 146.874 245.66C147.956 245.66 148.915 245.954 149.75 246.542C150.585 247.13 151.237 247.944 151.706 248.984C152.175 250.015 152.409 251.217 152.409 252.589C152.409 254.421 151.983 255.925 151.131 257.102C150.27 258.278 149.038 259.032 147.436 259.364L147.053 257.869C148.331 257.587 149.307 257.004 149.98 256.117C150.645 255.222 150.977 254.05 150.977 252.602C150.977 250.999 150.598 249.708 149.839 248.728C149.081 247.739 148.109 247.245 146.925 247.245C146.021 247.245 145.259 247.535 144.636 248.114C144.014 248.694 143.558 249.572 143.268 250.748L142.501 253.88C142.109 255.482 141.483 256.684 140.622 257.485C139.753 258.286 138.683 258.687 137.413 258.687C136.357 258.687 135.428 258.41 134.626 257.856C133.825 257.302 133.199 256.539 132.747 255.567C132.295 254.596 132.07 253.484 132.07 252.231C132.07 250.569 132.462 249.214 133.246 248.165C134.03 247.117 135.146 246.359 136.595 245.89Z" fill="#343A40"/>
<rect x="200" y="500" width="200" height="10" transform="rotate(-90 200 500)" fill="#8D45BA"/>
<path d="M252 496.838H250.786L241.018 488.362C239.621 487.152 238.436 486.193 237.464 485.485C236.493 484.778 235.615 484.271 234.831 483.964C234.047 483.657 233.229 483.504 232.376 483.504C231.311 483.504 230.369 483.755 229.551 484.258C228.724 484.752 228.081 485.43 227.621 486.291C227.161 487.143 226.93 488.115 226.93 489.206C226.93 490.348 227.182 491.349 227.685 492.21C228.187 493.071 228.869 493.744 229.73 494.23C230.591 494.707 231.558 494.946 232.632 494.946V496.493C231.277 496.493 230.058 496.177 228.976 495.547C227.893 494.916 227.037 494.051 226.406 492.951C225.776 491.843 225.46 490.582 225.46 489.167C225.46 487.778 225.763 486.542 226.368 485.46C226.973 484.377 227.8 483.525 228.848 482.903C229.888 482.281 231.064 481.97 232.376 481.97C233.339 481.97 234.268 482.136 235.163 482.468C236.05 482.792 237.043 483.35 238.142 484.143C239.233 484.936 240.58 486.031 242.182 487.429L250.376 494.537H250.517V480.794H252V496.838ZM252.166 473.117C252.166 473.5 252.034 473.828 251.77 474.101C251.497 474.365 251.169 474.498 250.786 474.498C250.411 474.498 250.087 474.365 249.814 474.101C249.541 473.828 249.405 473.5 249.405 473.117C249.405 472.742 249.541 472.418 249.814 472.145C250.087 471.873 250.411 471.736 250.786 471.736C251.041 471.736 251.276 471.8 251.489 471.928C251.693 472.047 251.859 472.213 251.987 472.426C252.107 472.631 252.166 472.861 252.166 473.117ZM252.358 458.358C252.358 459.755 252.064 461.004 251.476 462.103C250.879 463.194 250.061 464.059 249.021 464.699C247.982 465.329 246.793 465.653 245.455 465.67V464.098C247.04 464.064 248.339 463.514 249.354 462.449C250.368 461.383 250.875 460.02 250.875 458.358C250.875 457.079 250.568 455.954 249.955 454.983C249.332 454.002 248.489 453.235 247.423 452.681C246.358 452.127 245.156 451.855 243.818 451.863C242.403 451.863 241.168 452.162 240.111 452.758C239.054 453.355 238.236 454.152 237.656 455.149C237.077 456.146 236.783 457.25 236.774 458.46C236.774 459.414 236.949 460.309 237.298 461.145C237.639 461.98 238.078 462.691 238.615 463.279L238.359 465.082L225.818 463.535V451.262H227.301V462.167L237.107 463.369V463.241C236.561 462.627 236.122 461.899 235.79 461.055C235.449 460.203 235.278 459.278 235.278 458.281C235.278 456.815 235.636 455.477 236.352 454.267C237.068 453.048 238.065 452.081 239.344 451.365C240.622 450.64 242.109 450.282 243.805 450.291C245.442 450.299 246.903 450.649 248.19 451.339C249.477 452.029 250.496 452.984 251.246 454.203C251.987 455.413 252.358 456.798 252.358 458.358ZM252 443.825H225.818V442.227H250.517V429.443H252V443.825ZM252.422 418.922C252.422 420.055 252.196 421.095 251.744 422.041C251.293 422.979 250.632 423.733 249.763 424.304C248.893 424.866 247.837 425.148 246.592 425.148C245.774 425.148 245.054 425.003 244.432 424.713C243.81 424.423 243.273 423.976 242.821 423.371C242.369 422.766 241.999 421.99 241.709 421.044C241.411 420.098 241.18 418.969 241.018 417.656C240.899 416.659 240.784 415.768 240.673 414.984C240.554 414.2 240.371 413.587 240.124 413.143C239.876 412.692 239.501 412.466 238.999 412.466H238.18C236.749 412.466 235.611 412.918 234.767 413.821C233.923 414.724 233.501 415.969 233.501 417.554C233.501 418.96 233.812 420.145 234.435 421.108C235.048 422.062 235.841 422.732 236.812 423.115L236.263 424.585C235.325 424.21 234.545 423.669 233.923 422.962C233.301 422.246 232.837 421.428 232.53 420.507C232.223 419.578 232.07 418.607 232.07 417.592C232.07 416.714 232.193 415.879 232.44 415.087C232.688 414.286 233.062 413.574 233.565 412.952C234.068 412.321 234.712 411.822 235.496 411.456C236.271 411.089 237.2 410.906 238.283 410.906H252V412.466H248.459V412.581C249.192 412.922 249.861 413.391 250.466 413.987C251.062 414.575 251.54 415.287 251.898 416.122C252.247 416.949 252.422 417.882 252.422 418.922ZM250.977 418.768C250.977 417.541 250.679 416.455 250.082 415.509C249.477 414.554 248.651 413.808 247.602 413.271C246.554 412.734 245.365 412.466 244.036 412.466H241.146C241.317 412.662 241.47 412.947 241.607 413.322C241.734 413.689 241.849 414.107 241.952 414.575C242.045 415.036 242.131 415.521 242.207 416.033C242.276 416.536 242.339 417.026 242.399 417.503C242.57 418.935 242.834 420.102 243.192 421.006C243.541 421.901 244.001 422.557 244.572 422.974C245.143 423.384 245.834 423.588 246.643 423.588C247.982 423.588 249.038 423.128 249.814 422.207C250.589 421.287 250.977 420.141 250.977 418.768ZM244.33 403.012L242.092 403.038V402.629L232.364 392.81V390.778L241.312 399.79L241.376 399.944L244.33 403.012ZM252 404.367H225.818V402.808H252V404.367ZM252 392.363L241.53 400.647L240.494 399.522L252 390.369V392.363ZM239.267 384.597H252V386.156H225.818V384.597H235.47V384.443C234.447 383.983 233.634 383.25 233.028 382.244C232.415 381.23 232.108 380.016 232.108 378.601C232.108 377.28 232.389 376.116 232.952 375.111C233.506 374.105 234.303 373.321 235.342 372.759C236.374 372.187 237.609 371.902 239.05 371.902H252V373.449H239.114C237.435 373.449 236.088 373.947 235.074 374.945C234.06 375.942 233.553 377.259 233.553 378.895C233.553 379.994 233.791 380.974 234.268 381.835C234.746 382.696 235.415 383.374 236.276 383.868C237.128 384.354 238.125 384.597 239.267 384.597ZM240.034 355.49H241.517V365.82H240.034V355.49ZM252.358 342.377C252.358 343.775 252.064 345.023 251.476 346.123C250.879 347.214 250.061 348.079 249.021 348.718C247.982 349.349 246.793 349.673 245.455 349.69V348.117C247.04 348.083 248.339 347.533 249.354 346.468C250.368 345.403 250.875 344.039 250.875 342.377C250.875 341.099 250.568 339.974 249.955 339.002C249.332 338.022 248.489 337.255 247.423 336.701C246.358 336.147 245.156 335.874 243.818 335.883C242.403 335.883 241.168 336.181 240.111 336.778C239.054 337.374 238.236 338.171 237.656 339.168C237.077 340.165 236.783 341.269 236.774 342.479C236.774 343.434 236.949 344.329 237.298 345.164C237.639 345.999 238.078 346.711 238.615 347.299L238.359 349.102L225.818 347.555V335.282H227.301V346.187L237.107 347.388V347.261C236.561 346.647 236.122 345.918 235.79 345.075C235.449 344.222 235.278 343.298 235.278 342.3C235.278 340.835 235.636 339.496 236.352 338.286C237.068 337.067 238.065 336.1 239.344 335.384C240.622 334.66 242.109 334.302 243.805 334.31C245.442 334.319 246.903 334.668 248.19 335.359C249.477 336.049 250.496 337.004 251.246 338.222C251.987 339.433 252.358 340.817 252.358 342.377ZM252 327.845H225.818V326.247H250.517V313.463H252V327.845ZM252.422 302.941C252.422 304.075 252.196 305.115 251.744 306.061C251.293 306.998 250.632 307.752 249.763 308.324C248.893 308.886 247.837 309.167 246.592 309.167C245.774 309.167 245.054 309.022 244.432 308.733C243.81 308.443 243.273 307.995 242.821 307.39C242.369 306.785 241.999 306.01 241.709 305.064C241.411 304.118 241.18 302.988 241.018 301.676C240.899 300.679 240.784 299.788 240.673 299.004C240.554 298.22 240.371 297.606 240.124 297.163C239.876 296.711 239.501 296.485 238.999 296.485H238.18C236.749 296.485 235.611 296.937 234.767 297.841C233.923 298.744 233.501 299.988 233.501 301.574C233.501 302.98 233.812 304.164 234.435 305.127C235.048 306.082 235.841 306.751 236.812 307.135L236.263 308.605C235.325 308.23 234.545 307.689 233.923 306.981C233.301 306.265 232.837 305.447 232.53 304.527C232.223 303.598 232.07 302.626 232.07 301.612C232.07 300.734 232.193 299.899 232.44 299.106C232.688 298.305 233.062 297.593 233.565 296.971C234.068 296.341 234.712 295.842 235.496 295.475C236.271 295.109 237.2 294.926 238.283 294.926H252V296.485H248.459V296.6C249.192 296.941 249.861 297.41 250.466 298.007C251.062 298.595 251.54 299.306 251.898 300.142C252.247 300.968 252.422 301.902 252.422 302.941ZM250.977 302.788C250.977 301.561 250.679 300.474 250.082 299.528C249.477 298.574 248.651 297.828 247.602 297.291C246.554 296.754 245.365 296.485 244.036 296.485H241.146C241.317 296.681 241.47 296.967 241.607 297.342C241.734 297.708 241.849 298.126 241.952 298.595C242.045 299.055 242.131 299.541 242.207 300.052C242.276 300.555 242.339 301.045 242.399 301.522C242.57 302.954 242.834 304.122 243.192 305.025C243.541 305.92 244.001 306.576 244.572 306.994C245.143 307.403 245.834 307.608 246.643 307.608C247.982 307.608 249.038 307.147 249.814 306.227C250.589 305.306 250.977 304.16 250.977 302.788ZM244.33 287.032L242.092 287.057V286.648L232.364 276.83V274.797L241.312 283.81L241.376 283.963L244.33 287.032ZM252 288.387H225.818V286.827H252V288.387ZM252 276.382L241.53 284.667L240.494 283.542L252 274.388V276.382ZM239.267 268.616H252V270.176H225.818V268.616H235.47V268.463C234.447 268.002 233.634 267.27 233.028 266.264C232.415 265.25 232.108 264.035 232.108 262.62C232.108 261.299 232.389 260.136 232.952 259.13C233.506 258.125 234.303 257.341 235.342 256.778C236.374 256.207 237.609 255.922 239.05 255.922H252V257.468H239.114C237.435 257.468 236.088 257.967 235.074 258.964C234.06 259.961 233.553 261.278 233.553 262.914C233.553 264.014 233.791 264.994 234.268 265.855C234.746 266.716 235.415 267.393 236.276 267.887C237.128 268.373 238.125 268.616 239.267 268.616ZM252 238.794H225.818V230.727C225.818 229.074 226.142 227.651 226.79 226.457C227.437 225.264 228.337 224.348 229.487 223.709C230.629 223.07 231.959 222.75 233.476 222.75C234.976 222.75 236.297 223.07 237.439 223.709C238.572 224.348 239.459 225.264 240.098 226.457C240.737 227.642 241.057 229.061 241.057 230.714V237.938H239.561V230.753C239.561 229.406 239.31 228.256 238.807 227.301C238.304 226.347 237.601 225.614 236.697 225.102C235.786 224.591 234.712 224.335 233.476 224.335C232.232 224.335 231.149 224.591 230.229 225.102C229.3 225.614 228.58 226.351 228.068 227.314C227.557 228.268 227.301 229.419 227.301 230.766V237.196H252V238.794ZM240.136 228.043L252 221.599V223.44L240.136 229.845V228.043ZM236.595 204.437L236.979 205.881C236.263 206.112 235.645 206.44 235.125 206.866C234.605 207.292 234.205 207.829 233.923 208.477C233.634 209.116 233.489 209.883 233.489 210.778C233.489 212.218 233.847 213.398 234.563 214.319C235.278 215.231 236.212 215.687 237.362 215.687C238.3 215.687 239.075 215.376 239.689 214.754C240.294 214.131 240.754 213.181 241.07 211.903L241.824 208.886C242.207 207.335 242.83 206.167 243.69 205.383C244.543 204.599 245.604 204.207 246.874 204.207C247.956 204.207 248.915 204.501 249.75 205.089C250.585 205.677 251.237 206.491 251.706 207.531C252.175 208.562 252.409 209.763 252.409 211.136C252.409 212.968 251.983 214.472 251.131 215.648C250.27 216.825 249.038 217.579 247.436 217.911L247.053 216.415C248.331 216.134 249.307 215.55 249.98 214.664C250.645 213.769 250.977 212.597 250.977 211.148C250.977 209.546 250.598 208.255 249.839 207.275C249.081 206.286 248.109 205.792 246.925 205.792C246.021 205.792 245.259 206.082 244.636 206.661C244.014 207.241 243.558 208.119 243.268 209.295L242.501 212.427C242.109 214.029 241.483 215.231 240.622 216.032C239.753 216.833 238.683 217.234 237.413 217.234C236.357 217.234 235.428 216.957 234.626 216.403C233.825 215.849 233.199 215.086 232.747 214.114C232.295 213.143 232.07 212.031 232.07 210.778C232.07 209.116 232.462 207.761 233.246 206.712C234.03 205.664 235.146 204.906 236.595 204.437Z" fill="#343A40"/>
<rect x="300" y="500" width="475" height="10" transform="rotate(-90 300 500)" fill="#FF415B"/>
<path d="M352.358 489.299C352.358 490.697 352.064 491.945 351.476 493.045C350.879 494.136 350.061 495.001 349.021 495.64C347.982 496.271 346.793 496.594 345.455 496.612V495.039C347.04 495.005 348.339 494.455 349.354 493.39C350.368 492.325 350.875 490.961 350.875 489.299C350.875 488.021 350.568 486.896 349.955 485.924C349.332 484.944 348.489 484.177 347.423 483.623C346.358 483.069 345.156 482.796 343.818 482.805C342.403 482.805 341.168 483.103 340.111 483.7C339.054 484.296 338.236 485.093 337.656 486.09C337.077 487.087 336.783 488.191 336.774 489.401C336.774 490.356 336.949 491.251 337.298 492.086C337.639 492.921 338.078 493.633 338.615 494.221L338.359 496.023L325.818 494.477V482.204H327.301V493.109L337.107 494.31V494.183C336.561 493.569 336.122 492.84 335.79 491.996C335.449 491.144 335.278 490.219 335.278 489.222C335.278 487.756 335.636 486.418 336.352 485.208C337.068 483.989 338.065 483.022 339.344 482.306C340.622 481.582 342.109 481.224 343.805 481.232C345.442 481.241 346.903 481.59 348.19 482.281C349.477 482.971 350.496 483.925 351.246 485.144C351.987 486.354 352.358 487.739 352.358 489.299ZM352 474.767H325.818V473.169H350.517V460.385H352V474.767ZM352.422 449.863C352.422 450.997 352.196 452.037 351.744 452.983C351.293 453.92 350.632 454.674 349.763 455.245C348.893 455.808 347.837 456.089 346.592 456.089C345.774 456.089 345.054 455.944 344.432 455.654C343.81 455.365 343.273 454.917 342.821 454.312C342.369 453.707 341.999 452.931 341.709 451.985C341.411 451.039 341.18 449.91 341.018 448.598C340.899 447.6 340.784 446.71 340.673 445.926C340.554 445.142 340.371 444.528 340.124 444.085C339.876 443.633 339.501 443.407 338.999 443.407H338.18C336.749 443.407 335.611 443.859 334.767 444.762C333.923 445.666 333.501 446.91 333.501 448.495C333.501 449.902 333.812 451.086 334.435 452.049C335.048 453.004 335.841 453.673 336.812 454.056L336.263 455.527C335.325 455.152 334.545 454.61 333.923 453.903C333.301 453.187 332.837 452.369 332.53 451.449C332.223 450.52 332.07 449.548 332.07 448.534C332.07 447.656 332.193 446.821 332.44 446.028C332.688 445.227 333.062 444.515 333.565 443.893C334.068 443.262 334.712 442.764 335.496 442.397C336.271 442.031 337.2 441.848 338.283 441.848H352V443.407H348.459V443.522C349.192 443.863 349.861 444.332 350.466 444.929C351.062 445.517 351.54 446.228 351.898 447.064C352.247 447.89 352.422 448.824 352.422 449.863ZM350.977 449.71C350.977 448.483 350.679 447.396 350.082 446.45C349.477 445.495 348.651 444.75 347.602 444.213C346.554 443.676 345.365 443.407 344.036 443.407H341.146C341.317 443.603 341.47 443.889 341.607 444.264C341.734 444.63 341.849 445.048 341.952 445.517C342.045 445.977 342.131 446.463 342.207 446.974C342.276 447.477 342.339 447.967 342.399 448.444C342.57 449.876 342.834 451.044 343.192 451.947C343.541 452.842 344.001 453.498 344.572 453.916C345.143 454.325 345.834 454.529 346.643 454.529C347.982 454.529 349.038 454.069 349.814 453.149C350.589 452.228 350.977 451.082 350.977 449.71ZM344.33 433.953L342.092 433.979V433.57L332.364 423.752V421.719L341.312 430.732L341.376 430.885L344.33 433.953ZM352 435.309H325.818V433.749H352V435.309ZM352 423.304L341.53 431.588L340.494 430.463L352 421.31V423.304ZM339.267 415.538H352V417.098H325.818V415.538H335.47V415.385C334.447 414.924 333.634 414.191 333.028 413.186C332.415 412.172 332.108 410.957 332.108 409.542C332.108 408.221 332.389 407.058 332.952 406.052C333.506 405.047 334.303 404.262 335.342 403.7C336.374 403.129 337.609 402.843 339.05 402.843H352V404.39H339.114C337.435 404.39 336.088 404.889 335.074 405.886C334.06 406.883 333.553 408.2 333.553 409.836C333.553 410.936 333.791 411.916 334.268 412.777C334.746 413.637 335.415 414.315 336.276 414.809C337.128 415.295 338.125 415.538 339.267 415.538ZM340.034 386.432H341.517V396.761H340.034V386.432ZM325.818 373.485H352V375.083H327.506V375.236L331.405 381.117H329.692L325.818 375.287V373.485ZM352 365.076H350.786L341.018 356.6C339.621 355.39 338.436 354.431 337.464 353.724C336.493 353.016 335.615 352.509 334.831 352.202C334.047 351.896 333.229 351.742 332.376 351.742C331.311 351.742 330.369 351.994 329.551 352.496C328.724 352.991 328.081 353.668 327.621 354.529C327.161 355.381 326.93 356.353 326.93 357.444C326.93 358.586 327.182 359.587 327.685 360.448C328.187 361.309 328.869 361.982 329.73 362.468C330.591 362.945 331.558 363.184 332.632 363.184V364.731C331.277 364.731 330.058 364.415 328.976 363.785C327.893 363.154 327.037 362.289 326.406 361.19C325.776 360.082 325.46 358.82 325.46 357.406C325.46 356.016 325.763 354.781 326.368 353.698C326.973 352.616 327.8 351.763 328.848 351.141C329.888 350.519 331.064 350.208 332.376 350.208C333.339 350.208 334.268 350.374 335.163 350.707C336.05 351.031 337.043 351.589 338.142 352.381C339.233 353.174 340.58 354.269 342.182 355.667L350.376 362.775H350.517V349.032H352V365.076ZM352 342.263H325.818V340.665H350.517V327.881H352V342.263ZM352.422 317.359C352.422 318.493 352.196 319.533 351.744 320.479C351.293 321.416 350.632 322.17 349.763 322.741C348.893 323.304 347.837 323.585 346.592 323.585C345.774 323.585 345.054 323.44 344.432 323.151C343.81 322.861 343.273 322.413 342.821 321.808C342.369 321.203 341.999 320.428 341.709 319.482C341.411 318.536 341.18 317.406 341.018 316.094C340.899 315.097 340.784 314.206 340.673 313.422C340.554 312.638 340.371 312.024 340.124 311.581C339.876 311.129 339.501 310.903 338.999 310.903H338.18C336.749 310.903 335.611 311.355 334.767 312.259C333.923 313.162 333.501 314.406 333.501 315.991C333.501 317.398 333.812 318.582 334.435 319.545C335.048 320.5 335.841 321.169 336.812 321.553L336.263 323.023C335.325 322.648 334.545 322.107 333.923 321.399C333.301 320.683 332.837 319.865 332.53 318.945C332.223 318.016 332.07 317.044 332.07 316.03C332.07 315.152 332.193 314.317 332.44 313.524C332.688 312.723 333.062 312.011 333.565 311.389C334.068 310.759 334.712 310.26 335.496 309.893C336.271 309.527 337.2 309.344 338.283 309.344H352V310.903H348.459V311.018C349.192 311.359 349.861 311.828 350.466 312.425C351.062 313.013 351.54 313.724 351.898 314.56C352.247 315.386 352.422 316.32 352.422 317.359ZM350.977 317.206C350.977 315.979 350.679 314.892 350.082 313.946C349.477 312.991 348.651 312.246 347.602 311.709C346.554 311.172 345.365 310.903 344.036 310.903H341.146C341.317 311.099 341.47 311.385 341.607 311.76C341.734 312.126 341.849 312.544 341.952 313.013C342.045 313.473 342.131 313.959 342.207 314.47C342.276 314.973 342.339 315.463 342.399 315.94C342.57 317.372 342.834 318.54 343.192 319.443C343.541 320.338 344.001 320.994 344.572 321.412C345.143 321.821 345.834 322.026 346.643 322.026C347.982 322.026 349.038 321.565 349.814 320.645C350.589 319.724 350.977 318.578 350.977 317.206ZM344.33 301.45L342.092 301.475V301.066L332.364 291.248V289.215L341.312 298.228L341.376 298.381L344.33 301.45ZM352 302.805H325.818V301.245H352V302.805ZM352 290.8L341.53 299.085L340.494 297.96L352 288.806V290.8ZM339.267 283.034H352V284.594H325.818V283.034H335.47V282.881C334.447 282.42 333.634 281.687 333.028 280.682C332.415 279.668 332.108 278.453 332.108 277.038C332.108 275.717 332.389 274.554 332.952 273.548C333.506 272.543 334.303 271.759 335.342 271.196C336.374 270.625 337.609 270.339 339.05 270.339H352V271.886H339.114C337.435 271.886 336.088 272.385 335.074 273.382C334.06 274.379 333.553 275.696 333.553 277.332C333.553 278.432 333.791 279.412 334.268 280.273C334.746 281.134 335.415 281.811 336.276 282.305C337.128 282.791 338.125 283.034 339.267 283.034ZM352 253.212H325.818V245.145C325.818 243.492 326.142 242.069 326.79 240.875C327.437 239.682 328.337 238.766 329.487 238.127C330.629 237.488 331.959 237.168 333.476 237.168C334.976 237.168 336.297 237.488 337.439 238.127C338.572 238.766 339.459 239.682 340.098 240.875C340.737 242.06 341.057 243.479 341.057 245.132V252.355H339.561V245.171C339.561 243.824 339.31 242.674 338.807 241.719C338.304 240.765 337.601 240.032 336.697 239.52C335.786 239.009 334.712 238.753 333.476 238.753C332.232 238.753 331.149 239.009 330.229 239.52C329.3 240.032 328.58 240.769 328.068 241.732C327.557 242.686 327.301 243.837 327.301 245.184V251.614H352V253.212ZM340.136 242.461L352 236.017V237.858L340.136 244.263V242.461ZM336.595 218.855L336.979 220.299C336.263 220.529 335.645 220.858 335.125 221.284C334.605 221.71 334.205 222.247 333.923 222.895C333.634 223.534 333.489 224.301 333.489 225.196C333.489 226.636 333.847 227.816 334.562 228.737C335.278 229.649 336.212 230.105 337.362 230.105C338.3 230.105 339.075 229.794 339.689 229.172C340.294 228.549 340.754 227.599 341.07 226.321L341.824 223.304C342.207 221.752 342.83 220.585 343.69 219.801C344.543 219.017 345.604 218.625 346.874 218.625C347.956 218.625 348.915 218.919 349.75 219.507C350.585 220.095 351.237 220.909 351.706 221.949C352.175 222.98 352.409 224.181 352.409 225.554C352.409 227.386 351.983 228.89 351.131 230.066C350.27 231.243 349.038 231.997 347.436 232.329L347.053 230.833C348.331 230.552 349.307 229.968 349.98 229.082C350.645 228.187 350.977 227.015 350.977 225.566C350.977 223.964 350.598 222.673 349.839 221.693C349.081 220.704 348.109 220.21 346.925 220.21C346.021 220.21 345.259 220.5 344.636 221.079C344.014 221.659 343.558 222.537 343.268 223.713L342.501 226.845C342.109 228.447 341.483 229.649 340.622 230.45C339.753 231.251 338.683 231.652 337.413 231.652C336.357 231.652 335.428 231.375 334.626 230.821C333.825 230.267 333.199 229.504 332.747 228.532C332.295 227.561 332.07 226.449 332.07 225.196C332.07 223.534 332.462 222.179 333.246 221.13C334.03 220.082 335.146 219.324 336.595 218.855Z" fill="#343A40"/>
<rect x="400" y="500" width="475" height="10" transform="rotate(-90 400 500)" fill="#E9CC32"/>
<path d="M425.818 495.884V494.145L449.699 484.059V483.88L425.818 473.793V472.054H452V473.588H429.615V473.742L452 483.215V484.723L429.615 494.196V494.35H452V495.884H425.818ZM452.409 457.739C452.409 459.359 451.974 460.799 451.105 462.06C450.227 463.322 449.021 464.315 447.487 465.039C445.953 465.763 444.206 466.126 442.246 466.126C440.277 466.126 438.53 465.763 437.004 465.039C435.47 464.315 434.264 463.322 433.386 462.06C432.509 460.799 432.07 459.359 432.07 457.739C432.07 456.12 432.509 454.68 433.386 453.418C434.264 452.157 435.47 451.164 437.004 450.44C438.538 449.715 440.286 449.353 442.246 449.353C444.206 449.353 445.953 449.715 447.487 450.44C449.021 451.164 450.227 452.157 451.105 453.418C451.974 454.68 452.409 456.12 452.409 457.739ZM450.964 457.739C450.964 456.367 450.577 455.17 449.801 454.147C449.026 453.116 447.977 452.319 446.656 451.756C445.335 451.185 443.865 450.9 442.246 450.9C440.626 450.9 439.161 451.185 437.848 451.756C436.527 452.327 435.479 453.124 434.703 454.147C433.919 455.17 433.527 456.367 433.527 457.739C433.527 459.112 433.919 460.309 434.703 461.332C435.479 462.354 436.527 463.151 437.848 463.722C439.161 464.293 440.626 464.579 442.246 464.579C443.865 464.579 445.335 464.298 446.656 463.735C447.977 463.164 449.026 462.367 449.801 461.344C450.577 460.313 450.964 459.112 450.964 457.739ZM452 443.98H432.364V442.459H435.432V442.319C434.426 441.892 433.621 441.172 433.016 440.158C432.402 439.144 432.095 437.989 432.095 436.694C432.095 436.557 432.095 436.421 432.095 436.284C432.095 436.148 432.099 436.02 432.108 435.901H433.68C433.672 436.003 433.659 436.127 433.642 436.272C433.616 436.408 433.604 436.578 433.604 436.783C433.604 437.874 433.838 438.846 434.307 439.698C434.776 440.542 435.423 441.206 436.25 441.692C437.068 442.178 438.006 442.421 439.062 442.421H452V443.98ZM452.409 424.651C452.409 426.424 451.97 427.966 451.092 429.279C450.214 430.591 449.013 431.605 447.487 432.321C445.962 433.037 444.223 433.395 442.271 433.395C440.311 433.395 438.564 433.037 437.03 432.321C435.496 431.597 434.286 430.604 433.399 429.343C432.513 428.081 432.07 426.641 432.07 425.022C432.07 423.922 432.291 422.882 432.734 421.902C433.169 420.914 433.8 420.044 434.626 419.294C435.453 418.536 436.45 417.944 437.618 417.517C438.786 417.083 440.098 416.865 441.555 416.865H442.527V432.411H441.108V418.425C439.685 418.425 438.402 418.715 437.26 419.294C436.118 419.874 435.21 420.662 434.537 421.659C433.864 422.657 433.527 423.777 433.527 425.022C433.527 426.326 433.893 427.489 434.626 428.512C435.351 429.526 436.331 430.331 437.567 430.928C438.803 431.516 440.183 431.823 441.709 431.848H442.348C443.984 431.848 445.455 431.563 446.759 430.992C448.054 430.412 449.081 429.586 449.839 428.512C450.589 427.438 450.964 426.151 450.964 424.651C450.964 423.577 450.786 422.661 450.428 421.902C450.061 421.135 449.618 420.509 449.098 420.023C448.578 419.537 448.075 419.171 447.589 418.924L448.165 417.505C448.821 417.803 449.477 418.267 450.134 418.898C450.781 419.52 451.322 420.313 451.757 421.276C452.192 422.23 452.409 423.355 452.409 424.651ZM432.364 394.429H433.757V403.007H432.364V394.429ZM427.659 400.105V398.559H447.359C448.161 398.559 448.817 398.405 449.328 398.098C449.831 397.783 450.206 397.374 450.453 396.871C450.692 396.36 450.811 395.814 450.811 395.235C450.811 394.953 450.79 394.711 450.747 394.506C450.705 394.293 450.649 394.093 450.581 393.905L452 393.522C452.085 393.76 452.158 394.025 452.217 394.314C452.286 394.604 452.32 394.945 452.32 395.337C452.32 396.155 452.136 396.931 451.77 397.664C451.403 398.388 450.871 398.976 450.172 399.428C449.473 399.88 448.629 400.105 447.641 400.105H427.659ZM439.267 386.663H452V388.223H425.818V386.663H435.47V386.51C434.447 386.049 433.634 385.316 433.028 384.311C432.415 383.297 432.108 382.082 432.108 380.667C432.108 379.346 432.389 378.183 432.952 377.177C433.506 376.172 434.303 375.387 435.342 374.825C436.374 374.254 437.609 373.968 439.05 373.968H452V375.515H439.114C437.435 375.515 436.088 376.014 435.074 377.011C434.06 378.008 433.553 379.325 433.553 380.961C433.553 382.061 433.791 383.041 434.268 383.902C434.746 384.762 435.415 385.44 436.276 385.934C437.128 386.42 438.125 386.663 439.267 386.663ZM452.422 362.312C452.422 363.446 452.196 364.486 451.744 365.432C451.293 366.369 450.632 367.124 449.763 367.695C448.893 368.257 447.837 368.538 446.592 368.538C445.774 368.538 445.054 368.393 444.432 368.104C443.81 367.814 443.273 367.366 442.821 366.761C442.369 366.156 441.999 365.381 441.709 364.435C441.411 363.489 441.18 362.359 441.018 361.047C440.899 360.05 440.784 359.159 440.673 358.375C440.554 357.591 440.371 356.977 440.124 356.534C439.876 356.082 439.501 355.857 438.999 355.857H438.18C436.749 355.857 435.611 356.308 434.767 357.212C433.923 358.115 433.501 359.359 433.501 360.945C433.501 362.351 433.812 363.536 434.435 364.499C435.048 365.453 435.841 366.122 436.812 366.506L436.263 367.976C435.325 367.601 434.545 367.06 433.923 366.352C433.301 365.636 432.837 364.818 432.53 363.898C432.223 362.969 432.07 361.997 432.07 360.983C432.07 360.105 432.193 359.27 432.44 358.477C432.688 357.676 433.062 356.964 433.565 356.342C434.068 355.712 434.712 355.213 435.496 354.847C436.271 354.48 437.2 354.297 438.283 354.297H452V355.857H448.459V355.972C449.192 356.312 449.861 356.781 450.466 357.378C451.062 357.966 451.54 358.678 451.898 359.513C452.247 360.339 452.422 361.273 452.422 362.312ZM450.977 362.159C450.977 360.932 450.679 359.845 450.082 358.899C449.477 357.945 448.651 357.199 447.602 356.662C446.554 356.125 445.365 355.857 444.036 355.857H441.146C441.317 356.053 441.47 356.338 441.607 356.713C441.734 357.08 441.849 357.497 441.952 357.966C442.045 358.426 442.131 358.912 442.207 359.423C442.276 359.926 442.339 360.416 442.399 360.893C442.57 362.325 442.834 363.493 443.192 364.396C443.541 365.291 444.001 365.947 444.572 366.365C445.143 366.774 445.834 366.979 446.643 366.979C447.982 366.979 449.038 366.518 449.814 365.598C450.589 364.678 450.977 363.531 450.977 362.159ZM439.267 346.198H452V347.758H432.364V346.237H435.47V346.083C434.456 345.623 433.642 344.886 433.028 343.871C432.415 342.857 432.108 341.651 432.108 340.254C432.108 338.933 432.389 337.773 432.952 336.776C433.514 335.771 434.315 334.987 435.355 334.424C436.386 333.853 437.618 333.567 439.05 333.567H452V335.127H439.114C437.443 335.127 436.101 335.626 435.087 336.623C434.064 337.612 433.553 338.92 433.553 340.548C433.553 341.638 433.791 342.61 434.268 343.462C434.746 344.315 435.415 344.984 436.276 345.469C437.128 345.955 438.125 346.198 439.267 346.198ZM425.818 310.121H452V311.719H427.506V311.873L431.405 317.754H429.692L425.818 311.924V310.121ZM452 301.713H450.786L441.018 293.237C439.621 292.027 438.436 291.068 437.464 290.36C436.493 289.653 435.615 289.146 434.831 288.839C434.047 288.532 433.229 288.379 432.376 288.379C431.311 288.379 430.369 288.63 429.551 289.133C428.724 289.627 428.081 290.305 427.621 291.166C427.161 292.018 426.93 292.99 426.93 294.081C426.93 295.223 427.182 296.224 427.685 297.085C428.187 297.946 428.869 298.619 429.73 299.105C430.591 299.582 431.558 299.821 432.632 299.821V301.368C431.277 301.368 430.058 301.052 428.976 300.422C427.893 299.791 427.037 298.926 426.406 297.826C425.776 296.718 425.46 295.457 425.46 294.042C425.46 292.653 425.763 291.417 426.368 290.335C426.973 289.252 427.8 288.4 428.848 287.778C429.888 287.156 431.064 286.845 432.376 286.845C433.339 286.845 434.268 287.011 435.163 287.343C436.05 287.667 437.043 288.225 438.142 289.018C439.233 289.811 440.58 290.906 442.182 292.304L450.376 299.412H450.517V285.669H452V301.713ZM425.818 277.89H452V279.449H425.818V277.89ZM452.422 266.23C452.422 267.364 452.196 268.404 451.744 269.35C451.293 270.287 450.632 271.042 449.763 271.613C448.893 272.175 447.837 272.456 446.592 272.456C445.774 272.456 445.054 272.311 444.432 272.022C443.81 271.732 443.273 271.284 442.821 270.679C442.369 270.074 441.999 269.299 441.709 268.353C441.411 267.407 441.18 266.277 441.018 264.965C440.899 263.968 440.784 263.077 440.673 262.293C440.554 261.509 440.371 260.895 440.124 260.452C439.876 260 439.501 259.775 438.999 259.775H438.18C436.749 259.775 435.611 260.226 434.767 261.13C433.923 262.033 433.501 263.277 433.501 264.863C433.501 266.269 433.812 267.453 434.435 268.417C435.048 269.371 435.841 270.04 436.812 270.424L436.263 271.894C435.325 271.519 434.545 270.978 433.923 270.27C433.301 269.554 432.837 268.736 432.53 267.816C432.223 266.887 432.07 265.915 432.07 264.901C432.07 264.023 432.193 263.188 432.44 262.395C432.688 261.594 433.062 260.882 433.565 260.26C434.068 259.63 434.712 259.131 435.496 258.765C436.271 258.398 437.2 258.215 438.283 258.215H452V259.775H448.459V259.89C449.192 260.23 449.861 260.699 450.466 261.296C451.062 261.884 451.54 262.596 451.898 263.431C452.247 264.257 452.422 265.191 452.422 266.23ZM450.977 266.077C450.977 264.85 450.679 263.763 450.082 262.817C449.477 261.863 448.651 261.117 447.602 260.58C446.554 260.043 445.365 259.775 444.036 259.775H441.146C441.317 259.971 441.47 260.256 441.607 260.631C441.734 260.998 441.849 261.415 441.952 261.884C442.045 262.344 442.131 262.83 442.207 263.341C442.276 263.844 442.339 264.334 442.399 264.811C442.57 266.243 442.834 267.411 443.192 268.314C443.541 269.209 444.001 269.865 444.572 270.283C445.143 270.692 445.834 270.897 446.643 270.897C447.982 270.897 449.038 270.436 449.814 269.516C450.589 268.596 450.977 267.449 450.977 266.077ZM444.33 250.321L442.092 250.346V249.937L432.364 240.119V238.086L441.312 247.099L441.376 247.252L444.33 250.321ZM452 251.676H425.818V250.116H452V251.676ZM452 239.672L441.53 247.956L440.494 246.831L452 237.677V239.672ZM439.267 231.905H452V233.465H425.818V231.905H435.47V231.752C434.447 231.292 433.634 230.559 433.028 229.553C432.415 228.539 432.108 227.324 432.108 225.909C432.108 224.588 432.389 223.425 432.952 222.419C433.506 221.414 434.303 220.63 435.342 220.067C436.374 219.496 437.609 219.211 439.05 219.211H452V220.757H439.114C437.435 220.757 436.088 221.256 435.074 222.253C434.06 223.25 433.553 224.567 433.553 226.203C433.553 227.303 433.791 228.283 434.268 229.144C434.746 230.005 435.415 230.682 436.276 231.176C437.128 231.662 438.125 231.905 439.267 231.905ZM452 202.083H425.818V194.016C425.818 192.363 426.142 190.94 426.79 189.746C427.437 188.553 428.337 187.637 429.487 186.998C430.629 186.359 431.959 186.039 433.476 186.039C434.976 186.039 436.297 186.359 437.439 186.998C438.572 187.637 439.459 188.553 440.098 189.746C440.737 190.931 441.057 192.35 441.057 194.004V201.227H439.561V194.042C439.561 192.695 439.31 191.545 438.807 190.59C438.304 189.636 437.601 188.903 436.697 188.391C435.786 187.88 434.712 187.624 433.476 187.624C432.232 187.624 431.149 187.88 430.229 188.391C429.3 188.903 428.58 189.64 428.068 190.603C427.557 191.558 427.301 192.708 427.301 194.055V200.485H452V202.083ZM440.136 191.332L452 184.888V186.729L440.136 193.134V191.332ZM436.595 167.726L436.979 169.17C436.263 169.401 435.645 169.729 435.125 170.155C434.605 170.581 434.205 171.118 433.923 171.766C433.634 172.405 433.489 173.172 433.489 174.067C433.489 175.507 433.847 176.687 434.562 177.608C435.278 178.52 436.212 178.976 437.362 178.976C438.3 178.976 439.075 178.665 439.689 178.043C440.294 177.42 440.754 176.47 441.07 175.192L441.824 172.175C442.207 170.624 442.83 169.456 443.69 168.672C444.543 167.888 445.604 167.496 446.874 167.496C447.956 167.496 448.915 167.79 449.75 168.378C450.585 168.966 451.237 169.78 451.706 170.82C452.175 171.851 452.409 173.053 452.409 174.425C452.409 176.257 451.983 177.761 451.131 178.938C450.27 180.114 449.038 180.868 447.436 181.2L447.053 179.705C448.331 179.423 449.307 178.839 449.98 177.953C450.645 177.058 450.977 175.886 450.977 174.438C450.977 172.835 450.598 171.544 449.839 170.564C449.081 169.575 448.109 169.081 446.925 169.081C446.021 169.081 445.259 169.371 444.636 169.95C444.014 170.53 443.558 171.408 443.268 172.584L442.501 175.716C442.109 177.318 441.483 178.52 440.622 179.321C439.753 180.122 438.683 180.523 437.413 180.523C436.357 180.523 435.428 180.246 434.626 179.692C433.825 179.138 433.199 178.375 432.747 177.403C432.295 176.432 432.07 175.32 432.07 174.067C432.07 172.405 432.462 171.05 433.246 170.001C434.03 168.953 435.146 168.195 436.595 167.726Z" fill="#343A40"/>
<rect x="500" y="500" width="150" height="10" transform="rotate(-90 500 500)" fill="#343A40"/>
<path d="M525.818 478.092V476.494H543.153C544.935 476.494 546.524 476.907 547.922 477.734C549.311 478.561 550.411 479.703 551.22 481.16C552.021 482.609 552.422 484.275 552.422 486.159C552.422 488.034 552.021 489.7 551.22 491.157C550.411 492.615 549.307 493.761 547.909 494.596C546.511 495.423 544.926 495.832 543.153 495.823H525.818V494.225H543.064C544.572 494.225 545.915 493.884 547.091 493.203C548.267 492.512 549.196 491.562 549.878 490.352C550.551 489.142 550.888 487.744 550.888 486.159C550.888 484.573 550.551 483.176 549.878 481.965C549.196 480.755 548.267 479.809 547.091 479.127C545.915 478.437 544.572 478.092 543.064 478.092H525.818ZM539.267 467.919H552V469.479H532.364V467.957H535.47V467.804C534.456 467.344 533.642 466.606 533.028 465.592C532.415 464.578 532.108 463.372 532.108 461.974C532.108 460.653 532.389 459.494 532.952 458.497C533.514 457.491 534.315 456.707 535.355 456.145C536.386 455.574 537.618 455.288 539.05 455.288H552V456.848H539.114C537.443 456.848 536.101 457.346 535.087 458.344C534.064 459.332 533.553 460.64 533.553 462.268C533.553 463.359 533.791 464.331 534.268 465.183C534.746 466.035 535.415 466.704 536.276 467.19C537.128 467.676 538.125 467.919 539.267 467.919ZM552.422 443.604C552.422 444.737 552.196 445.777 551.744 446.723C551.293 447.66 550.632 448.415 549.763 448.986C548.893 449.548 547.837 449.829 546.592 449.829C545.774 449.829 545.054 449.684 544.432 449.395C543.81 449.105 543.273 448.657 542.821 448.052C542.369 447.447 541.999 446.672 541.709 445.726C541.411 444.78 541.18 443.65 541.018 442.338C540.899 441.341 540.784 440.45 540.673 439.666C540.554 438.882 540.371 438.268 540.124 437.825C539.876 437.373 539.501 437.148 538.999 437.148H538.18C536.749 437.148 535.611 437.599 534.767 438.503C533.923 439.406 533.501 440.65 533.501 442.236C533.501 443.642 533.812 444.827 534.435 445.79C535.048 446.744 535.841 447.413 536.812 447.797L536.263 449.267C535.325 448.892 534.545 448.351 533.923 447.643C533.301 446.927 532.837 446.109 532.53 445.189C532.223 444.26 532.07 443.288 532.07 442.274C532.07 441.396 532.193 440.561 532.44 439.768C532.688 438.967 533.062 438.256 533.565 437.633C534.068 437.003 534.712 436.504 535.496 436.138C536.271 435.771 537.2 435.588 538.283 435.588H552V437.148H548.459V437.263C549.192 437.604 549.861 438.072 550.466 438.669C551.062 439.257 551.54 439.969 551.898 440.804C552.247 441.631 552.422 442.564 552.422 443.604ZM550.977 443.45C550.977 442.223 550.679 441.136 550.082 440.19C549.477 439.236 548.651 438.49 547.602 437.953C546.554 437.416 545.365 437.148 544.036 437.148H541.146C541.317 437.344 541.47 437.629 541.607 438.004C541.734 438.371 541.849 438.788 541.952 439.257C542.045 439.717 542.131 440.203 542.207 440.714C542.276 441.217 542.339 441.707 542.399 442.184C542.57 443.616 542.834 444.784 543.192 445.687C543.541 446.582 544.001 447.238 544.572 447.656C545.143 448.065 545.834 448.27 546.643 448.27C547.982 448.27 549.038 447.809 549.814 446.889C550.589 445.969 550.977 444.822 550.977 443.45ZM539.267 427.489H552V429.049H532.364V427.528H535.47V427.374C534.456 426.914 533.642 426.177 533.028 425.162C532.415 424.148 532.108 422.942 532.108 421.545C532.108 420.224 532.389 419.064 532.952 418.067C533.514 417.062 534.315 416.278 535.355 415.715C536.386 415.144 537.618 414.858 539.05 414.858H552V416.418H539.114C537.443 416.418 536.101 416.917 535.087 417.914C534.064 418.903 533.553 420.211 533.553 421.839C533.553 422.93 533.791 423.901 534.268 424.753C534.746 425.606 535.415 426.275 536.276 426.76C537.128 427.246 538.125 427.489 539.267 427.489ZM536.595 395.9L536.979 397.344C536.263 397.574 535.645 397.903 535.125 398.329C534.605 398.755 534.205 399.292 533.923 399.939C533.634 400.579 533.489 401.346 533.489 402.241C533.489 403.681 533.847 404.861 534.562 405.782C535.278 406.694 536.212 407.15 537.362 407.15C538.3 407.15 539.075 406.839 539.689 406.216C540.294 405.594 540.754 404.644 541.07 403.366L541.824 400.349C542.207 398.797 542.83 397.63 543.69 396.846C544.543 396.062 545.604 395.67 546.874 395.67C547.956 395.67 548.915 395.964 549.75 396.552C550.585 397.14 551.237 397.954 551.706 398.993C552.175 400.025 552.409 401.226 552.409 402.599C552.409 404.431 551.983 405.935 551.131 407.111C550.27 408.287 549.038 409.042 547.436 409.374L547.053 407.878C548.331 407.597 549.307 407.013 549.98 406.127C550.645 405.232 550.977 404.06 550.977 402.611C550.977 401.009 550.598 399.718 549.839 398.738C549.081 397.749 548.109 397.255 546.925 397.255C546.021 397.255 545.259 397.545 544.636 398.124C544.014 398.704 543.558 399.581 543.268 400.758L542.501 403.89C542.109 405.492 541.483 406.694 540.622 407.495C539.753 408.296 538.683 408.697 537.413 408.697C536.357 408.697 535.428 408.42 534.626 407.866C533.825 407.312 533.199 406.549 532.747 405.577C532.295 404.606 532.07 403.493 532.07 402.241C532.07 400.579 532.462 399.224 533.246 398.175C534.03 397.127 535.146 396.368 536.595 395.9ZM552 385.989L532.364 391.869V390.233L549.712 385.171V385.03L532.364 379.955V378.331L549.699 373.269V373.141L532.364 368.078V366.442L552 372.323V374.061L534.908 379.073V379.239L552 384.25V385.989ZM552.409 354.594C552.409 356.367 551.97 357.91 551.092 359.222C550.214 360.535 549.013 361.549 547.487 362.265C545.962 362.981 544.223 363.339 542.271 363.339C540.311 363.339 538.564 362.981 537.03 362.265C535.496 361.54 534.286 360.547 533.399 359.286C532.513 358.025 532.07 356.584 532.07 354.965C532.07 353.866 532.291 352.826 532.734 351.846C533.169 350.857 533.8 349.988 534.626 349.238C535.453 348.479 536.45 347.887 537.618 347.461C538.786 347.026 540.098 346.809 541.555 346.809H542.527V362.354H541.108V348.368C539.685 348.368 538.402 348.658 537.26 349.238C536.118 349.817 535.21 350.606 534.537 351.603C533.864 352.6 533.527 353.721 533.527 354.965C533.527 356.269 533.893 357.432 534.626 358.455C535.351 359.469 536.331 360.275 537.567 360.871C538.803 361.459 540.183 361.766 541.709 361.792H542.348C543.984 361.792 545.455 361.506 546.759 360.935C548.054 360.356 549.081 359.529 549.839 358.455C550.589 357.381 550.964 356.094 550.964 354.594C550.964 353.52 550.786 352.604 550.428 351.846C550.061 351.079 549.618 350.452 549.098 349.966C548.578 349.481 548.075 349.114 547.589 348.867L548.165 347.448C548.821 347.746 549.477 348.211 550.134 348.841C550.781 349.464 551.322 350.256 551.757 351.219C552.192 352.174 552.409 353.299 552.409 354.594ZM552 341.439H532.364V339.918H535.432V339.778C534.426 339.351 533.621 338.631 533.016 337.617C532.402 336.603 532.095 335.448 532.095 334.153C532.095 334.016 532.095 333.88 532.095 333.743C532.095 333.607 532.099 333.479 532.108 333.36H533.68C533.672 333.462 533.659 333.586 533.642 333.731C533.616 333.867 533.604 334.037 533.604 334.242C533.604 335.333 533.838 336.305 534.307 337.157C534.776 338.001 535.423 338.665 536.25 339.151C537.068 339.637 538.006 339.88 539.062 339.88H552V341.439ZM552.409 322.11C552.409 323.883 551.97 325.425 551.092 326.738C550.214 328.05 549.013 329.064 547.487 329.78C545.962 330.496 544.223 330.854 542.271 330.854C540.311 330.854 538.564 330.496 537.03 329.78C535.496 329.056 534.286 328.063 533.399 326.802C532.513 325.54 532.07 324.1 532.07 322.481C532.07 321.381 532.291 320.341 532.734 319.361C533.169 318.373 533.8 317.503 534.626 316.753C535.453 315.995 536.45 315.403 537.618 314.976C538.786 314.542 540.098 314.324 541.555 314.324H542.527V329.87H541.108V315.884C539.685 315.884 538.402 316.174 537.26 316.753C536.118 317.333 535.21 318.121 534.537 319.118C533.864 320.116 533.527 321.236 533.527 322.481C533.527 323.785 533.893 324.948 534.626 325.971C535.351 326.985 536.331 327.79 537.567 328.387C538.803 328.975 540.183 329.282 541.709 329.307H542.348C543.984 329.307 545.455 329.022 546.759 328.451C548.054 327.871 549.081 327.045 549.839 325.971C550.589 324.897 550.964 323.61 550.964 322.11C550.964 321.036 550.786 320.12 550.428 319.361C550.061 318.594 549.618 317.968 549.098 317.482C548.578 316.996 548.075 316.63 547.589 316.383L548.165 314.964C548.821 315.262 549.477 315.726 550.134 316.357C550.781 316.979 551.322 317.772 551.757 318.735C552.192 319.689 552.409 320.814 552.409 322.11ZM552.409 302.218C552.409 303.795 551.974 305.171 551.105 306.347C550.236 307.523 549.038 308.435 547.513 309.083C545.979 309.722 544.219 310.042 542.233 310.042C540.264 310.042 538.517 309.718 536.991 309.07C535.457 308.414 534.256 307.498 533.386 306.322C532.509 305.145 532.07 303.773 532.07 302.205C532.07 301.08 532.287 300.104 532.722 299.278C533.148 298.442 533.714 297.743 534.422 297.181C535.129 296.61 535.905 296.175 536.749 295.877V295.724H525.818V294.177H552V295.685H547.717V295.877C548.561 296.192 549.341 296.631 550.057 297.194C550.764 297.756 551.335 298.455 551.77 299.29C552.196 300.126 552.409 301.101 552.409 302.218ZM550.964 302.077C550.964 300.748 550.585 299.61 549.827 298.664C549.06 297.709 548.02 296.981 546.707 296.478C545.386 295.966 543.891 295.711 542.22 295.711C540.55 295.711 539.062 295.966 537.759 296.478C536.446 296.981 535.415 297.709 534.665 298.664C533.906 299.61 533.527 300.748 533.527 302.077C533.527 303.424 533.911 304.579 534.678 305.542C535.436 306.496 536.472 307.229 537.784 307.741C539.097 308.243 540.575 308.495 542.22 308.495C543.865 308.495 545.348 308.243 546.669 307.741C547.99 307.229 549.038 306.496 549.814 305.542C550.581 304.579 550.964 303.424 550.964 302.077Z" fill="#343A40"/>
</svg>
