<svg width="300" height="300" viewBox="0 0 300 300" fill="none" xmlns="http://www.w3.org/2000/svg">
<path d="M10 110C10 104.477 14.4772 100 20 100H30C35.5228 100 40 104.477 40 110V130V155V165C40 170.523 44.4772 175 50 175H155H174H212.5H270H280C285.523 175 290 179.477 290 185V190C290 195.523 285.523 200 280 200H251H49H20C14.4772 200 10 195.523 10 190V110Z" fill="#FF415B" fill-opacity="0.2"/>
<path d="M40 130V110C40 104.477 35.5228 100 30 100H20C14.4772 100 10 104.477 10 110V190C10 195.523 14.4772 200 20 200H49M40 130H70C83.8071 130 95 141.193 95 155V155M40 130V155M95 155H40M95 155H250C261.046 155 270 163.954 270 175V175M40 155V165C40 170.523 44.4772 175 50 175H155H174H212.5H270M270 175H280C285.523 175 290 179.477 290 185V190C290 195.523 285.523 200 280 200H251M49 200V245M49 200H251M49 260V245M49 245H251M251 245V260M251 245V225M251 200V225M251 225H150" stroke="#FF415B" stroke-width="5" stroke-linecap="round"/>
<path d="M150 154V30M150 30H120C114.477 30 110 34.4772 110 40V55M150 30V20C150 14.4772 154.477 10 160 10H180C185.523 10 190 14.4772 190 20V42M110 55V55C101.716 55 95 61.7157 95 70V80C95 88.2843 101.716 95 110 95V95C118.284 95 125 88.2843 125 80V70C125 61.7157 118.284 55 110 55V55Z" stroke="#FF415B" stroke-width="5" stroke-linecap="round" stroke-linejoin="round"/>
<path d="M49 260C57.2843 260 64 266.716 64 275C64 283.284 57.2843 290 49 290C40.7157 290 34 283.284 34 275C34 266.716 40.7157 260 49 260Z" stroke="#FF415B" stroke-width="5" stroke-linecap="round"/>
<path d="M251 260C259.284 260 266 266.716 266 275C266 283.284 259.284 290 251 290C242.716 290 236 283.284 236 275C236 266.716 242.716 260 251 260Z" stroke="#FF415B" stroke-width="5" stroke-linecap="round"/>
</svg>
