<svg width="300" height="300" viewBox="0 0 300 300" fill="none" xmlns="http://www.w3.org/2000/svg">
<path d="M120 170L150 200V290H135H20L24.269 238.772C27.5084 199.9 60.0033 170 99.01 170H120Z" fill="#0E8F8D" fill-opacity="0.2"/>
<path d="M120 170L150 200V290H135M120 170H99.01C60.0033 170 27.5084 199.9 24.269 238.772L20 290H135M120 170L110 195L130 210L115 220L135 290" stroke="#0E8F8D" stroke-width="5" stroke-linecap="round" stroke-linejoin="round"/>
<path d="M180 170L150 200V290H165H280L275.731 238.772C272.492 199.9 239.997 170 200.99 170H180Z" fill="#0E8F8D" fill-opacity="0.2"/>
<path d="M180 170L150 200V290H165M180 170H200.99C239.997 170 272.492 199.9 275.731 238.772L280 290H165M180 170L190 195L170 210L185 220L165 290" stroke="#0E8F8D" stroke-width="5" stroke-linecap="round" stroke-linejoin="round"/>
<path d="M220 290L218 253.5" stroke="#0E8F8D" stroke-width="5" stroke-linecap="round"/>
<path d="M100 75H135C151.569 75 165 61.5685 165 45V45L166.518 54.11C168.527 66.1647 178.957 75 191.178 75H200V110C200 134.853 179.853 155 155 155H145C120.147 155 100 134.853 100 110V75Z" stroke="#0E8F8D" stroke-width="5" stroke-linecap="round" stroke-linejoin="round"/>
<path d="M215 95L215.889 79.8792C218.12 41.9682 187.977 10 150 10V10C112.023 10 81.8805 41.9682 84.1105 79.8792L85 95" stroke="#0E8F8D" stroke-width="5" stroke-linecap="round" stroke-linejoin="round"/>
<path d="M84 101C84 92.1634 91.1634 85 100 85V85V120V120C91.1634 120 84 112.837 84 104V101Z" stroke="#0E8F8D" stroke-width="5" stroke-linecap="round" stroke-linejoin="round"/>
<path d="M216 101C216 92.1634 208.837 85 200 85V85V120V120C208.837 120 216 112.837 216 104V101Z" stroke="#0E8F8D" stroke-width="5" stroke-linecap="round" stroke-linejoin="round"/>
<path d="M123 149L120 170" stroke="#0E8F8D" stroke-width="5" stroke-linecap="round" stroke-linejoin="round"/>
<path d="M177 149L180 170" stroke="#0E8F8D" stroke-width="5" stroke-linecap="round" stroke-linejoin="round"/>
<path d="M75.0019 205H70.9121C61.599 205 53.5185 211.428 51.4243 220.503L45.6234 245.64C42.7475 258.102 52.2123 270 65.0019 270M75.0019 205H79.0916C88.4048 205 96.4853 211.428 98.5795 220.503L104.38 245.64C107.256 258.102 97.7914 270 85.0019 270M75.0019 205C75.0019 177.67 90.6639 153.998 113.502 142.471M225.002 205C225.002 177.67 209.34 153.998 186.502 142.471" stroke="#0E8F8D" stroke-width="5" stroke-linecap="round"/>
<path d="M225 205C234.665 205 242.5 212.835 242.5 222.5C242.5 232.165 234.665 240 225 240C215.335 240 207.5 232.165 207.5 222.5C207.5 212.835 215.335 205 225 205Z" stroke="#0E8F8D" stroke-width="5"/>
<path d="M225 218C227.485 218 229.5 220.015 229.5 222.5C229.5 224.985 227.485 227 225 227C222.515 227 220.5 224.985 220.5 222.5C220.5 220.015 222.515 218 225 218Z" stroke="#0E8F8D" stroke-width="5"/>
</svg>
