<svg width="300" height="300" viewBox="0 0 300 300" fill="none" xmlns="http://www.w3.org/2000/svg">
<path d="M45 245C45 214.624 69.6243 190 100 190V190H125L150 205L175 190H200V190C230.376 190 255 214.624 255 245V290H210H90H45V245Z" fill="#B570E0" fill-opacity="0.2"/>
<path d="M150 205L125 190M150 205L175 190M150 205V230M100 190V190C69.6243 190 45 214.624 45 245V290H90M100 190H125M100 190L115 230L122.024 226.488C130.048 222.476 139.607 223.071 147.071 228.048L150 230M200 190V190C230.376 190 255 214.624 255 245V290H210M200 190H175M200 190L185 230L177.976 226.488C169.952 222.476 160.393 223.071 152.929 228.048L150 230M125 190V162.5M175 190V162.5M90 290V265M90 290H210M210 290V265" stroke="#8D45BA" stroke-width="5" stroke-linecap="round" stroke-linejoin="round"/>
<path d="M180 245H220" stroke="#8D45BA" stroke-width="5" stroke-linecap="round" stroke-linejoin="round"/>
<path d="M225 195.001V115.001C225 87.9613 208.49 64.778 185 54.9824M75 195.001V115.001C75 87.9613 91.5105 64.778 115 54.9824" stroke="#8D45BA" stroke-width="5" stroke-linecap="round" stroke-linejoin="round"/>
<path d="M100 20L107.119 17.1523C118.931 12.4275 131.536 10 144.258 10H155.742C168.464 10 181.069 12.4275 192.881 17.1523L200 20L180 65H120L100 20Z" stroke="#8D45BA" stroke-width="5" stroke-linecap="round" stroke-linejoin="round"/>
<path d="M110 104.545H137.455C151.011 104.545 162 93.5561 162 80V80L162.581 83.5665C164.552 95.662 175.001 104.545 187.256 104.545H190V130C190 152.091 172.091 170 150 170V170C127.909 170 110 152.091 110 130V104.545Z" stroke="#8D45BA" stroke-width="5" stroke-linecap="round" stroke-linejoin="round"/>
<path d="M94 127C94 118.716 100.716 112 109 112H110V142H109C100.716 142 94 135.284 94 127V127Z" stroke="#8D45BA" stroke-width="5" stroke-linecap="round" stroke-linejoin="round"/>
<path d="M206 127C206 118.716 199.284 112 191 112H190V142H191C199.284 142 206 135.284 206 127V127Z" stroke="#8D45BA" stroke-width="5" stroke-linecap="round" stroke-linejoin="round"/>
</svg>
