<svg width="360" height="360" viewBox="0 0 360 360" fill="none" xmlns="http://www.w3.org/2000/svg">
<path d="M175 329.999C151.328 329.999 127.993 324.397 106.901 313.65C85.8099 302.903 67.5612 287.318 53.6474 268.167C39.7336 249.016 30.5498 226.844 26.8467 203.464C23.1437 180.084 25.0266 156.159 32.3415 133.646C39.6564 111.133 52.1957 90.6713 68.934 73.933C85.6723 57.1947 106.134 44.6554 128.647 37.3405C151.16 30.0256 175.085 28.1427 198.465 31.8458C221.845 35.5488 244.017 44.7327 263.168 58.6465L175 179.999L175 329.999Z" fill="#FF415B" fill-opacity="0.2" stroke="#FF415B" stroke-width="5" stroke-linecap="round" stroke-linejoin="round"/>
<path d="M185 329.999C216.677 329.999 247.541 319.971 273.168 301.352C298.795 282.732 317.87 256.478 327.658 226.352C337.447 196.225 337.447 163.773 327.658 133.646C317.87 103.52 298.795 77.2657 273.168 58.6465L185 179.999L185 329.999Z" fill="#0E8F8D" fill-opacity="0.2" stroke="#0E8F8D" stroke-width="5" stroke-linecap="round" stroke-linejoin="round"/>
</svg>
