<svg width="360" height="360" viewBox="0 0 360 360" fill="none" xmlns="http://www.w3.org/2000/svg">
<g clip-path="url(#clip0_85_29368)">
<mask id="path-1-inside-1_85_29368" fill="white">
<path d="M61.8783 272.587C36.3066 242.112 23.8884 202.726 27.3557 163.095C30.823 123.464 49.8916 86.8336 80.3668 61.2619C110.842 35.6902 150.227 23.2721 189.858 26.7394C229.489 30.2066 266.12 49.2753 291.692 79.7504L176.785 176.169L61.8783 272.587Z"/>
</mask>
<path d="M61.8783 272.587C36.3066 242.112 23.8884 202.726 27.3557 163.095C30.823 123.464 49.8916 86.8336 80.3668 61.2619C110.842 35.6902 150.227 23.2721 189.858 26.7394C229.489 30.2066 266.12 49.2753 291.692 79.7504L176.785 176.169L61.8783 272.587Z" fill="#C43739" fill-opacity="0.2" stroke="#C43739" stroke-width="10" mask="url(#path-1-inside-1_85_29368)"/>
<mask id="path-2-inside-2_85_29368" fill="white">
<path d="M68.3076 280.247C93.8793 310.722 130.51 329.791 170.141 333.258C209.772 336.725 249.157 324.307 279.632 298.736C310.108 273.164 329.176 236.533 332.643 196.902C336.111 157.271 323.693 117.886 298.121 87.4107L183.214 183.829L68.3076 280.247Z"/>
</mask>
<path d="M68.3076 280.247C93.8793 310.722 130.51 329.791 170.141 333.258C209.772 336.725 249.157 324.307 279.632 298.736C310.108 273.164 329.176 236.533 332.643 196.902C336.111 157.271 323.693 117.886 298.121 87.4107L183.214 183.829L68.3076 280.247Z" fill="#8D45BA" fill-opacity="0.2" stroke="#8D45BA" stroke-width="10" stroke-linecap="round" stroke-linejoin="round" mask="url(#path-2-inside-2_85_29368)"/>
</g>
<defs>
<clipPath id="clip0_85_29368">
<rect width="360" height="360" fill="white"/>
</clipPath>
</defs>
</svg>
