<svg width="360" height="360" viewBox="0 0 360 360" fill="none" xmlns="http://www.w3.org/2000/svg">
<mask id="path-1-inside-1_85_29385" fill="white">
<path d="M321.5 176.928C321.5 153.256 315.898 129.921 305.151 108.829C294.404 87.7376 278.818 69.489 259.668 55.5752C240.517 41.6614 218.345 32.4775 194.965 28.7745C171.585 25.0714 147.66 26.9543 125.147 34.2693L171.5 176.928H321.5Z"/>
</mask>
<path d="M321.5 176.928C321.5 153.256 315.898 129.921 305.151 108.829C294.404 87.7376 278.818 69.489 259.668 55.5752C240.517 41.6614 218.345 32.4775 194.965 28.7745C171.585 25.0714 147.66 26.9543 125.147 34.2693L171.5 176.928H321.5Z" fill="#E9CC32" fill-opacity="0.2" stroke="#E9CC32" stroke-width="10" mask="url(#path-1-inside-1_85_29385)"/>
<mask id="path-2-inside-2_85_29385" fill="white">
<path d="M289.463 269.246C275.684 288.493 257.544 304.206 236.528 315.1C215.512 325.994 192.216 331.759 168.546 331.924C144.875 332.089 121.5 326.65 100.334 316.051C79.1684 305.452 60.8114 289.993 46.7643 270.94C32.7171 251.887 23.3787 229.78 19.5126 206.426C15.6464 183.073 17.3623 159.135 24.5199 136.572C31.6774 114.008 44.0735 93.4593 60.6946 76.6045C77.3157 59.7498 97.6898 47.068 120.151 39.5962L167.498 181.928L289.463 269.246Z"/>
</mask>
<path d="M289.463 269.246C275.684 288.493 257.544 304.206 236.528 315.1C215.512 325.994 192.216 331.759 168.546 331.924C144.875 332.089 121.5 326.65 100.334 316.051C79.1684 305.452 60.8114 289.993 46.7643 270.94C32.7171 251.887 23.3787 229.78 19.5126 206.426C15.6464 183.073 17.3623 159.135 24.5199 136.572C31.6774 114.008 44.0735 93.4593 60.6946 76.6045C77.3157 59.7498 97.6898 47.068 120.151 39.5962L167.498 181.928L289.463 269.246Z" fill="#C43739" fill-opacity="0.2" stroke="#C43739" stroke-width="10" stroke-linecap="round" stroke-linejoin="round" mask="url(#path-2-inside-2_85_29385)"/>
<mask id="path-3-inside-3_85_29385" fill="white">
<path d="M325.5 181.928C325.5 213.605 315.472 244.468 296.853 270.096L175.5 181.928H325.5Z"/>
</mask>
<path d="M325.5 181.928C325.5 213.605 315.472 244.468 296.853 270.096L175.5 181.928H325.5Z" fill="#0E8F8D" fill-opacity="0.2" stroke="#0E8F8D" stroke-width="10" stroke-linecap="round" stroke-linejoin="round" mask="url(#path-3-inside-3_85_29385)"/>
</svg>
