<svg width="360" height="360" viewBox="0 0 360 360" fill="none" xmlns="http://www.w3.org/2000/svg">
<mask id="path-1-inside-1_85_29349" fill="white">
<path d="M70.3988 77.4689C42.2684 105.599 26.4648 143.752 26.4648 183.535C26.4648 223.317 42.2684 261.471 70.3988 289.601C98.5293 317.731 136.682 333.535 176.465 333.535C216.247 333.535 254.4 317.731 282.531 289.601L176.465 183.535L70.3988 77.4689Z"/>
</mask>
<path d="M70.3988 77.4689C42.2684 105.599 26.4648 143.752 26.4648 183.535C26.4648 223.317 42.2684 261.471 70.3988 289.601C98.5293 317.731 136.682 333.535 176.465 333.535C216.247 333.535 254.4 317.731 282.531 289.601L176.465 183.535L70.3988 77.4689Z" fill="#C43739" fill-opacity="0.2" stroke="#C43739" stroke-width="10" mask="url(#path-1-inside-1_85_29349)"/>
<mask id="path-2-inside-2_85_29349" fill="white">
<path d="M77.4699 70.3979C105.6 42.2674 143.753 26.4639 183.536 26.4639C223.318 26.4639 261.471 42.2674 289.602 70.3979C317.732 98.5283 333.536 136.681 333.536 176.464C333.536 216.246 317.732 254.399 289.602 282.53L183.536 176.464L77.4699 70.3979Z"/>
</mask>
<path d="M77.4699 70.3979C105.6 42.2674 143.753 26.4639 183.536 26.4639C223.318 26.4639 261.471 42.2674 289.602 70.3979C317.732 98.5283 333.536 136.681 333.536 176.464C333.536 216.246 317.732 254.399 289.602 282.53L183.536 176.464L77.4699 70.3979Z" fill="#8D45BA" fill-opacity="0.2" stroke="#8D45BA" stroke-width="10" stroke-linecap="round" stroke-linejoin="round" mask="url(#path-2-inside-2_85_29349)"/>
</svg>
