<svg width="360" height="360" viewBox="0 0 360 360" fill="none" xmlns="http://www.w3.org/2000/svg">
<g clip-path="url(#clip0_85_29358)">
<path d="M325.5 176.928C325.5 153.256 319.898 129.921 309.151 108.829C298.404 87.7376 282.818 69.489 263.668 55.5752C244.517 41.6614 222.345 32.4775 198.965 28.7745C175.585 25.0714 151.66 26.9543 129.147 34.2693L175.5 176.928H325.5Z" fill="#0E8F8D" fill-opacity="0.2" stroke="#0E8F8D" stroke-width="5" stroke-linecap="round" stroke-linejoin="round"/>
<path d="M193.997 327.913C156.679 334.091 118.404 325.942 86.8389 305.097C55.274 284.252 32.75 252.251 23.7784 215.504C14.8069 178.757 20.0501 139.977 38.4581 106.931C56.866 73.8861 87.0793 49.0156 123.046 37.3015L169.498 179.928L193.997 327.913Z" fill="#FF415B" fill-opacity="0.2" stroke="#FF415B" stroke-width="5" stroke-linecap="round" stroke-linejoin="round"/>
<mask id="path-3-inside-1_85_29358" fill="white">
<path d="M325.5 181.928C325.5 217.481 312.871 251.879 289.866 278.986C266.861 306.094 234.976 324.148 199.896 329.931L175.5 181.928H325.5Z"/>
</mask>
<path d="M325.5 181.928C325.5 217.481 312.871 251.879 289.866 278.986C266.861 306.094 234.976 324.148 199.896 329.931L175.5 181.928H325.5Z" fill="#E9CC32" fill-opacity="0.2" stroke="#E9CC32" stroke-width="10" stroke-linecap="round" stroke-linejoin="round" mask="url(#path-3-inside-1_85_29358)"/>
</g>
<defs>
<clipPath id="clip0_85_29358">
<rect width="360" height="360" fill="white"/>
</clipPath>
</defs>
</svg>
