<svg width="300" height="300" viewBox="0 0 300 300" fill="none" xmlns="http://www.w3.org/2000/svg">
<path d="M181.461 243.781L166.401 282.601C165.367 285.266 162.313 286.523 159.702 285.358L80.1396 249.847C77.791 248.799 76.6208 246.14 77.4341 243.7L88.8772 209.371C91.1218 202.637 89.6291 195.218 84.955 189.876L71.359 174.338C41.2948 139.979 37.319 77.2511 70.0122 43.3319C115.748 -4.11922 205.934 23.2869 229.68 80.378L238.626 101.887C240.681 106.827 239.656 112.512 236.005 116.424C231.404 121.354 231.099 128.908 235.288 134.193L251.189 154.252C255.28 159.414 252.164 167.064 245.631 167.898C240.904 168.502 237.608 172.888 238.344 177.595L238.962 181.549C239.29 183.653 238.366 185.756 236.594 186.938C234.065 188.624 233.398 192.05 235.111 194.561L235.42 195.015C237.54 198.125 236.312 202.395 232.865 203.903L229.758 205.263C226.074 206.874 223.946 210.773 224.584 214.743L225.118 218.064C226.54 226.908 218.906 234.558 210.059 233.156L202.13 231.899C193.302 230.499 184.693 235.448 181.461 243.781Z" fill="#C43739" fill-opacity="0.2" stroke="#C43739" stroke-width="5" stroke-linecap="round" stroke-linejoin="round"/>
<path d="M126.64 139.853C142.261 155.474 167.588 155.474 183.209 139.853C198.83 124.232 198.83 98.9051 183.209 83.2841C167.588 67.6631 142.261 67.6631 126.64 83.2841C111.02 98.9051 111.02 124.232 126.64 139.853ZM126.64 139.853L91.2852 175.208" stroke="#C43739" stroke-width="5" stroke-linecap="round" stroke-linejoin="round"/>
</svg>
