<svg width="300" height="300" viewBox="0 0 300 300" fill="none" xmlns="http://www.w3.org/2000/svg">
<path d="M181.461 243.781L166.401 282.601C165.367 285.266 162.313 286.523 159.702 285.358L80.1396 249.847C77.791 248.799 76.6208 246.14 77.4341 243.7L88.8772 209.371C91.1218 202.637 89.6291 195.218 84.955 189.876L71.359 174.338C41.2948 139.979 37.319 77.2511 70.0122 43.3319C115.748 -4.11922 205.934 23.2869 229.68 80.378L238.626 101.887C240.681 106.827 239.656 112.512 236.005 116.424C231.404 121.354 231.099 128.908 235.288 134.193L251.189 154.252C255.28 159.414 252.164 167.064 245.631 167.898C240.904 168.502 237.608 172.888 238.344 177.595L238.962 181.549C239.29 183.653 238.366 185.756 236.594 186.938C234.065 188.624 233.398 192.05 235.111 194.561L235.42 195.015C237.54 198.125 236.312 202.395 232.865 203.903L229.758 205.263C226.074 206.874 223.946 210.773 224.584 214.743L225.118 218.064C226.54 226.908 218.906 234.558 210.059 233.156L202.13 231.899C193.302 230.499 184.693 235.448 181.461 243.781Z" fill="#FF415B" fill-opacity="0.2"/>
<path d="M145.001 135.75C148.913 135.75 152.664 134.196 155.431 131.43C158.197 128.664 159.751 124.912 159.751 121C159.751 117.088 158.197 113.336 155.431 110.57C152.664 107.804 148.913 106.25 145.001 106.25C141.089 106.25 137.337 107.804 134.571 110.57C131.805 113.336 130.251 117.088 130.251 121C130.251 124.912 131.805 128.664 134.571 131.43C137.337 134.196 141.089 135.75 145.001 135.75Z" fill="#FF415B" fill-opacity="0.2"/>
<path d="M181.461 243.781L166.401 282.601C165.367 285.266 162.313 286.523 159.702 285.358L80.1396 249.847C77.791 248.799 76.6208 246.14 77.4341 243.7L88.8772 209.371C91.1218 202.637 89.6291 195.218 84.955 189.876L71.359 174.338C41.2948 139.979 37.319 77.2511 70.0122 43.3319C115.748 -4.11922 205.934 23.2869 229.68 80.378L238.626 101.887C240.681 106.827 239.656 112.512 236.005 116.424C231.404 121.354 231.099 128.908 235.288 134.193L251.189 154.252C255.28 159.414 252.164 167.064 245.631 167.898C240.904 168.502 237.608 172.888 238.344 177.595L238.962 181.549C239.29 183.653 238.366 185.756 236.594 186.938C234.065 188.624 233.398 192.05 235.111 194.561L235.42 195.015C237.54 198.125 236.312 202.395 232.865 203.903L229.758 205.263C226.074 206.874 223.946 210.773 224.584 214.743L225.118 218.064C226.54 226.908 218.906 234.558 210.059 233.156L202.13 231.899C193.302 230.499 184.693 235.448 181.461 243.781Z" stroke="#FF415B" stroke-width="5" stroke-linecap="round" stroke-linejoin="round"/>
<path d="M145.001 135.75C148.913 135.75 152.664 134.196 155.431 131.43C158.197 128.664 159.751 124.912 159.751 121C159.751 117.088 158.197 113.336 155.431 110.57C152.664 107.804 148.913 106.25 145.001 106.25C141.089 106.25 137.337 107.804 134.571 110.57C131.805 113.336 130.251 117.088 130.251 121C130.251 124.912 131.805 128.664 134.571 131.43C137.337 134.196 141.089 135.75 145.001 135.75Z" stroke="#FF415B" stroke-width="5" stroke-linecap="round" stroke-linejoin="round"/>
<path d="M182.476 113.109L177.082 100.08L184.334 91.5L174.501 81.6666L165.97 88.958L152.661 83.4858L149.598 71.8333H139.991L136.883 83.6382L123.879 89.1203L115.501 81.6666L105.667 91.5L112.811 100.296L107.501 113.359L95.8341 116.083V125.917L107.639 129.137L113.121 142.142L105.667 150.5L115.501 160.333L124.307 153.155L137.119 158.426L140.084 170.167H149.917L152.887 158.431L165.921 153.032C168.094 154.586 174.501 160.333 174.501 160.333L184.334 150.5L177.038 141.896L182.436 128.857L194.167 125.808V116.083L182.476 113.109Z" stroke="#FF415B" stroke-width="5" stroke-linecap="round" stroke-linejoin="round"/>
</svg>
