<svg width="300" height="300" viewBox="0 0 300 300" fill="none" xmlns="http://www.w3.org/2000/svg">
<path d="M181.461 243.781L166.401 282.601C165.367 285.266 162.313 286.523 159.702 285.358L80.1396 249.847C77.791 248.799 76.6208 246.14 77.4341 243.7L88.8772 209.371C91.1218 202.637 89.6291 195.218 84.955 189.876L71.359 174.338C41.2948 139.979 37.319 77.2511 70.0122 43.3319C115.748 -4.11922 205.934 23.2869 229.68 80.378L238.626 101.887C240.681 106.827 239.656 112.512 236.005 116.424C231.404 121.354 231.099 128.908 235.288 134.193L251.189 154.252C255.28 159.414 252.164 167.064 245.631 167.898C240.904 168.502 237.608 172.888 238.344 177.595L238.962 181.549C239.29 183.653 238.366 185.756 236.594 186.938C234.065 188.624 233.398 192.05 235.111 194.561L235.42 195.015C237.54 198.125 236.312 202.395 232.865 203.903L229.758 205.263C226.074 206.874 223.946 210.773 224.584 214.743L225.118 218.064C226.54 226.908 218.906 234.558 210.059 233.156L202.13 231.899C193.302 230.499 184.693 235.448 181.461 243.781Z" fill="#D9D9D9" fill-opacity="0.2"/>
<path d="M142.001 47V97M142.001 127V177M77.0008 112H127.001M157.001 112H207.001M166.401 282.601L181.461 243.781C184.693 235.448 193.302 230.499 202.13 231.899L210.059 233.156C218.906 234.558 226.54 226.908 225.118 218.064L224.584 214.743C223.946 210.773 226.074 206.874 229.758 205.263L232.865 203.903C236.312 202.395 237.54 198.125 235.42 195.015L235.111 194.561C233.398 192.05 234.065 188.624 236.594 186.938C238.366 185.756 239.29 183.653 238.962 181.549L238.344 177.595C237.608 172.888 240.904 168.502 245.631 167.898C252.164 167.064 255.28 159.414 251.189 154.252L235.288 134.193C231.099 128.908 231.404 121.354 236.005 116.424C239.656 112.512 240.681 106.827 238.626 101.887L229.68 80.378C205.934 23.2869 115.748 -4.11922 70.0122 43.3319C37.319 77.2511 41.2948 139.979 71.359 174.338L84.955 189.876C89.6291 195.218 91.1218 202.637 88.8772 209.371L77.4341 243.7C76.6208 246.14 77.791 248.799 80.1396 249.847L159.702 285.358C162.313 286.523 165.367 285.266 166.401 282.601ZM182.001 112C182.001 134.091 164.092 152 142.001 152C119.909 152 102.001 134.091 102.001 112C102.001 89.9086 119.909 72 142.001 72C164.092 72 182.001 89.9086 182.001 112Z" stroke="#0E8F8D" stroke-width="5" stroke-linecap="round" stroke-linejoin="round"/>
</svg>
