<svg width="300" height="300" viewBox="0 0 300 300" fill="none" xmlns="http://www.w3.org/2000/svg">
<path d="M181.461 243.781L166.401 282.601C165.367 285.266 162.313 286.523 159.702 285.358L80.1396 249.847C77.791 248.799 76.6208 246.14 77.4341 243.7L88.8772 209.371C91.1218 202.637 89.6291 195.218 84.955 189.876L71.359 174.338C41.2948 139.979 37.319 77.2511 70.0122 43.3319C115.748 -4.11922 205.934 23.2869 229.68 80.378L238.626 101.887C240.681 106.827 239.656 112.512 236.005 116.424C231.404 121.354 231.099 128.908 235.288 134.193L251.189 154.252C255.28 159.414 252.164 167.064 245.631 167.898C240.904 168.502 237.608 172.888 238.344 177.595L238.962 181.549C239.29 183.653 238.366 185.756 236.594 186.938C234.065 188.624 233.398 192.05 235.111 194.561L235.42 195.015C237.54 198.125 236.312 202.395 232.865 203.903L229.758 205.263C226.074 206.874 223.946 210.773 224.584 214.743L225.118 218.064C226.54 226.908 218.906 234.558 210.059 233.156L202.13 231.899C193.302 230.499 184.693 235.448 181.461 243.781Z" fill="#8D45BA" fill-opacity="0.2"/>
<path d="M190.501 74.3333L185.334 79.5M97.5008 74.3333L102.667 79.5M190.501 146.667L185.334 141.5M97.5008 146.667L102.667 141.5M128.501 157H159.501M133.667 172.5H154.334M166.401 282.601L181.461 243.781C184.693 235.448 193.302 230.499 202.13 231.899L210.059 233.156C218.906 234.558 226.54 226.908 225.118 218.064L224.584 214.743C223.946 210.773 226.074 206.874 229.758 205.263L232.865 203.903C236.312 202.395 237.54 198.125 235.42 195.015L235.111 194.561C233.398 192.05 234.065 188.624 236.594 186.938C238.366 185.756 239.29 183.653 238.962 181.549L238.344 177.595C237.608 172.888 240.904 168.502 245.631 167.898C252.164 167.064 255.28 159.414 251.189 154.252L235.288 134.193C231.099 128.908 231.404 121.354 236.005 116.424C239.656 112.512 240.681 106.827 238.626 101.887L229.68 80.378C205.934 23.2869 115.748 -4.11922 70.0122 43.3319C37.319 77.2511 41.2948 139.979 71.359 174.338L84.955 189.876C89.6291 195.218 91.1218 202.637 88.8772 209.371L77.4341 243.7C76.6208 246.14 77.791 248.799 80.1396 249.847L159.702 285.358C162.313 286.523 165.367 285.266 166.401 282.601ZM144.001 72.5C123.334 72.5 113.753 89.575 114.001 105.333C114.12 113.016 116.584 118.25 121.751 123.417C126.917 128.583 128.501 135.167 128.501 145.5H159.501C159.501 135.167 161.084 128.583 166.251 123.417C171.417 118.25 173.882 113.016 174.001 105.333C174.249 89.575 164.667 72.5 144.001 72.5Z" stroke="#8D45BA" stroke-width="5" stroke-linecap="round" stroke-linejoin="round"/>
</svg>
