<svg width="236" height="72" viewBox="0 0 236 72" fill="none" xmlns="http://www.w3.org/2000/svg">
<path fill-rule="evenodd" clip-rule="evenodd" d="M67.9553 39.7585C67.985 39.1761 68 38.5898 68 38C68 19.2223 52.7777 4 34 4C15.552 4 0.535622 18.6925 0.014014 37.0143C0.00469179 36.6773 0 36.3392 0 36C0 16.1177 16.1177 0 36 0C55.8239 0 71.9054 16.0233 71.9996 35.8251L71.1652 36.9465C70.2446 38.1838 69.1654 39.0768 67.9553 39.7585Z" fill="#083651"/>
<path d="M13 13C-12.3821 32.7417 5.13883 72 36 72C38.3561 72 40.6593 71.7737 42.8891 71.3415C39.0587 59.1027 29.8501 55.6387 21.9975 52.6848C14.9531 50.035 9 47.7956 9 40C11.3505 47.0515 16.353 48.1362 22.3451 49.4354C29.0995 50.8999 37.1113 52.6371 44 63.5C47.0162 56.5628 50.7601 55.1224 55.2319 53.4019C58.1731 52.2703 61.4291 51.0176 65 48C63.3147 51.9323 60.3671 53.4102 57.1815 55.0074C52.5129 57.3481 47.333 59.9452 44.866 70.9001C44.9856 70.8698 45.1051 70.8388 45.2242 70.8074C46.7579 66.9357 50.3273 65.6213 54.3817 64.1283C65.7437 59.9443 71.4551 49.6876 71.9675 37.5439C69.2353 41.2158 65.2224 42.1016 61.0458 43.0236C54.4981 44.4689 47.5481 46.0031 44.5001 58.5C40.4046 48.8757 32.8707 45.3734 26.0199 42.1887C16.1429 37.5972 7.68592 33.6659 13 13Z" fill="#9DC843"/>
<path d="M27.5 12H44.5V26H58V43H44.5V58.4998C43.9023 57.0952 43.2314 55.8211 42.5 54.6592V41H56V28H42.5V14H29.5V28H16V36.2358C15.2593 35.5324 14.5877 34.7615 14 33.9025V26H27.5V12Z" fill="#B51D1A"/>
<path d="M23.4951 41C24.3207 41.3988 25.165 41.7913 26.0199 42.1887C27.1673 42.7221 28.3338 43.2643 29.5 43.8428V41H23.4951Z" fill="#B51D1A"/>
<path d="M85.4112 28.9993H79.809L88.3452 4.27202H95.0824L103.607 28.9993H98.0043L91.8104 9.92259H91.6172L85.4112 28.9993ZM85.0611 19.2798H98.294V23.3608H85.0611V19.2798Z" fill="#11557E"/>
<path d="M106.061 28.9993V10.4538H110.963V13.7259H111.18C111.567 12.6392 112.211 11.782 113.112 11.1541C114.014 10.5263 115.092 10.2124 116.348 10.2124C117.62 10.2124 118.702 10.5303 119.596 11.1662C120.489 11.794 121.085 12.6473 121.383 13.7259H121.576C121.954 12.6634 122.639 11.8142 123.629 11.1783C124.627 10.5343 125.806 10.2124 127.166 10.2124C128.897 10.2124 130.301 10.7637 131.38 11.8665C132.467 12.9612 133.01 14.5147 133.01 16.527V28.9993H127.879V17.5412C127.879 16.5109 127.605 15.7382 127.058 15.223C126.51 14.7079 125.826 14.4503 125.005 14.4503C124.071 14.4503 123.343 14.7481 122.82 15.3438C122.296 15.9313 122.035 16.7081 122.035 17.674V28.9993H117.048V17.4325C117.048 16.523 116.787 15.7985 116.264 15.2592C115.748 14.7199 115.068 14.4503 114.223 14.4503C113.652 14.4503 113.136 14.5952 112.678 14.8849C112.227 15.1667 111.869 15.5651 111.603 16.0803C111.337 16.5874 111.205 17.183 111.205 17.8672V28.9993H106.061Z" fill="#11557E"/>
<path d="M145.1 29.3615C143.192 29.3615 141.55 28.9751 140.173 28.2024C138.805 27.4216 137.751 26.3189 137.01 24.8942C136.27 23.4614 135.899 21.767 135.899 19.8111C135.899 17.9034 136.27 16.2292 137.01 14.7884C137.751 13.3475 138.793 12.2247 140.137 11.4197C141.49 10.6148 143.075 10.2124 144.894 10.2124C146.118 10.2124 147.257 10.4096 148.311 10.804C149.374 11.1903 150.299 11.7739 151.088 12.5547C151.885 13.3355 152.505 14.3175 152.948 15.5007C153.39 16.6759 153.612 18.0523 153.612 19.63V21.0426H137.952V17.8551H148.77C148.77 17.1146 148.609 16.4586 148.287 15.8871C147.965 15.3156 147.518 14.8688 146.947 14.5469C146.383 14.2169 145.727 14.0518 144.979 14.0518C144.198 14.0518 143.506 14.233 142.902 14.5952C142.306 14.9493 141.84 15.4283 141.502 16.032C141.164 16.6276 140.99 17.2917 140.982 18.0241V21.0547C140.982 21.9723 141.151 22.7652 141.49 23.4332C141.836 24.1013 142.323 24.6165 142.95 24.9787C143.578 25.3409 144.323 25.522 145.184 25.522C145.756 25.522 146.279 25.4415 146.754 25.2805C147.229 25.1196 147.635 24.8781 147.973 24.5561C148.311 24.2341 148.569 23.8397 148.746 23.3729L153.503 23.6868C153.262 24.8298 152.766 25.8279 152.018 26.6811C151.277 27.5263 150.32 28.1863 149.144 28.6612C147.977 29.1281 146.629 29.3615 145.1 29.3615Z" fill="#11557E"/>
<path d="M156.543 28.9993V10.4538H161.53V13.6896H161.723C162.061 12.5386 162.628 11.6693 163.425 11.0817C164.222 10.486 165.14 10.1882 166.178 10.1882C166.436 10.1882 166.713 10.2043 167.011 10.2365C167.309 10.2687 167.571 10.313 167.796 10.3693V14.9332C167.555 14.8608 167.221 14.7964 166.794 14.7401C166.367 14.6837 165.977 14.6555 165.623 14.6555C164.866 14.6555 164.19 14.8205 163.594 15.1506C163.007 15.4725 162.54 15.9233 162.194 16.5028C161.856 17.0824 161.687 17.7505 161.687 18.5071V28.9993H156.543Z" fill="#11557E"/>
<path d="M170.03 28.9993V10.4538H175.174V28.9993H170.03ZM172.614 8.06321C171.849 8.06321 171.193 7.80966 170.646 7.30256C170.107 6.78741 169.837 6.17164 169.837 5.45526C169.837 4.74692 170.107 4.13921 170.646 3.6321C171.193 3.11695 171.849 2.85938 172.614 2.85938C173.379 2.85938 174.031 3.11695 174.57 3.6321C175.117 4.13921 175.391 4.74692 175.391 5.45526C175.391 6.17164 175.117 6.78741 174.57 7.30256C174.031 7.80966 173.379 8.06321 172.614 8.06321Z" fill="#11557E"/>
<path d="M187.248 29.3615C185.349 29.3615 183.715 28.959 182.346 28.1541C180.986 27.3411 179.94 26.2143 179.207 24.7734C178.483 23.3326 178.12 21.6745 178.12 19.799C178.12 17.8994 178.487 16.2332 179.219 14.8004C179.96 13.3596 181.01 12.2367 182.37 11.4318C183.731 10.6188 185.349 10.2124 187.224 10.2124C188.842 10.2124 190.259 10.5062 191.474 11.0938C192.69 11.6813 193.651 12.5064 194.36 13.5689C195.068 14.6314 195.458 15.879 195.531 17.3118H190.677C190.54 16.3861 190.178 15.6416 189.591 15.0781C189.011 14.5066 188.25 14.2209 187.309 14.2209C186.512 14.2209 185.815 14.4382 185.22 14.8729C184.632 15.2995 184.173 15.9233 183.843 16.7443C183.513 17.5653 183.348 18.5594 183.348 19.7266C183.348 20.9098 183.509 21.916 183.831 22.745C184.161 23.5741 184.624 24.206 185.22 24.6406C185.815 25.0753 186.512 25.2926 187.309 25.2926C187.896 25.2926 188.423 25.1719 188.89 24.9304C189.365 24.6889 189.756 24.3388 190.061 23.88C190.375 23.4131 190.581 22.8537 190.677 22.2017H195.531C195.45 23.6184 195.064 24.866 194.372 25.9446C193.688 27.0152 192.742 27.8523 191.534 28.456C190.327 29.0597 188.898 29.3615 187.248 29.3615Z" fill="#11557E"/>
<path d="M203.687 29.3494C202.504 29.3494 201.45 29.1442 200.524 28.7337C199.598 28.3151 198.866 27.6993 198.327 26.8864C197.795 26.0653 197.53 25.0431 197.53 23.8196C197.53 22.7893 197.719 21.924 198.097 21.2237C198.476 20.5234 198.991 19.96 199.643 19.5334C200.295 19.1068 201.035 18.7848 201.864 18.5675C202.701 18.3501 203.579 18.1972 204.496 18.1087C205.575 17.996 206.444 17.8913 207.104 17.7947C207.764 17.6901 208.243 17.5372 208.541 17.3359C208.839 17.1347 208.988 16.8369 208.988 16.4425V16.37C208.988 15.6054 208.746 15.0137 208.263 14.5952C207.788 14.1766 207.112 13.9673 206.235 13.9673C205.309 13.9673 204.573 14.1726 204.025 14.5831C203.478 14.9856 203.116 15.4927 202.939 16.1044L198.182 15.718C198.423 14.5911 198.898 13.6172 199.606 12.7962C200.315 11.9671 201.228 11.3312 202.347 10.8885C203.474 10.4377 204.778 10.2124 206.259 10.2124C207.289 10.2124 208.275 10.3331 209.217 10.5746C210.167 10.8161 211.008 11.1903 211.741 11.6974C212.481 12.2045 213.065 12.8565 213.491 13.6534C213.918 14.4422 214.131 15.388 214.131 16.4908V28.9993H209.253V26.4276H209.109C208.811 27.0071 208.412 27.5182 207.913 27.9609C207.414 28.3956 206.815 28.7377 206.114 28.9872C205.414 29.2287 204.605 29.3494 203.687 29.3494ZM205.16 25.7997C205.917 25.7997 206.585 25.6508 207.165 25.353C207.744 25.0471 208.199 24.6366 208.529 24.1215C208.859 23.6063 209.024 23.0227 209.024 22.3707V20.4027C208.863 20.5073 208.642 20.6039 208.36 20.6925C208.086 20.773 207.776 20.8494 207.43 20.9219C207.084 20.9863 206.738 21.0466 206.392 21.103C206.046 21.1513 205.732 21.1955 205.45 21.2358C204.846 21.3243 204.319 21.4652 203.869 21.6584C203.418 21.8516 203.068 22.1132 202.818 22.4432C202.569 22.7652 202.444 23.1676 202.444 23.6506C202.444 24.3509 202.697 24.8861 203.204 25.2564C203.72 25.6186 204.372 25.7997 205.16 25.7997Z" fill="#11557E"/>
<path d="M222.84 18.2777V28.9993H217.697V10.4538H222.599V13.7259H222.816C223.227 12.6473 223.915 11.794 224.881 11.1662C225.847 10.5303 227.018 10.2124 228.394 10.2124C229.682 10.2124 230.805 10.4941 231.763 11.0575C232.721 11.621 233.465 12.4259 233.996 13.4723C234.528 14.5107 234.793 15.7502 234.793 17.1911V28.9993H229.65V18.1087C229.658 16.9737 229.368 16.0883 228.781 15.4524C228.193 14.8085 227.384 14.4865 226.354 14.4865C225.661 14.4865 225.05 14.6354 224.518 14.9332C223.995 15.2311 223.585 15.6657 223.287 16.2372C222.997 16.8007 222.848 17.4808 222.84 18.2777Z" fill="#11557E"/>
<path d="M80.9482 45.9996V35.0906H83.2546V39.5916H87.9368V35.0906H90.2379V45.9996H87.9368V41.4933H83.2546V45.9996H80.9482Z" fill="#11557E"/>
<path d="M95.5256 46.1594C94.684 46.1594 93.9596 45.989 93.3523 45.6481C92.7486 45.3036 92.2834 44.8171 91.9567 44.1886C91.63 43.5565 91.4667 42.8089 91.4667 41.946C91.4667 41.1044 91.63 40.3658 91.9567 39.7301C92.2834 39.0945 92.7433 38.5991 93.3364 38.244C93.933 37.8888 94.6325 37.7113 95.4351 37.7113C95.9749 37.7113 96.4773 37.7983 96.9425 37.9723C97.4113 38.1428 97.8197 38.4002 98.1677 38.7447C98.5192 39.0891 98.7927 39.5224 98.988 40.0444C99.1833 40.5629 99.281 41.1701 99.281 41.8661V42.4893H92.3722V41.0831H97.145C97.145 40.7564 97.0739 40.467 96.9319 40.2148C96.7898 39.9627 96.5928 39.7656 96.3406 39.6236C96.092 39.478 95.8026 39.4052 95.4724 39.4052C95.1279 39.4052 94.8225 39.4851 94.5562 39.6449C94.2934 39.8011 94.0874 40.0124 93.9383 40.2788C93.7891 40.5415 93.7128 40.8345 93.7092 41.1577V42.4947C93.7092 42.8995 93.7838 43.2493 93.933 43.544C94.0857 43.8388 94.3005 44.0661 94.5775 44.2259C94.8545 44.3857 95.183 44.4656 95.5629 44.4656C95.8151 44.4656 96.0459 44.43 96.2554 44.359C96.4649 44.288 96.6442 44.1815 96.7934 44.0394C96.9425 43.8974 97.0562 43.7234 97.1343 43.5174L99.233 43.6559C99.1265 44.1602 98.9081 44.6005 98.5778 44.9769C98.2511 45.3498 97.8285 45.641 97.3101 45.8505C96.7952 46.0565 96.2004 46.1594 95.5256 46.1594Z" fill="#11557E"/>
<path d="M102.795 46.1541C102.273 46.1541 101.808 46.0636 101.399 45.8825C100.991 45.6978 100.668 45.4261 100.43 45.0675C100.195 44.7053 100.078 44.2543 100.078 43.7145C100.078 43.2599 100.162 42.8782 100.329 42.5692C100.496 42.2603 100.723 42.0117 101.01 41.8235C101.298 41.6353 101.625 41.4933 101.991 41.3974C102.36 41.3015 102.747 41.234 103.152 41.195C103.628 41.1452 104.011 41.0991 104.302 41.0565C104.594 41.0103 104.805 40.9428 104.936 40.854C105.068 40.7653 105.133 40.6339 105.133 40.4599V40.4279C105.133 40.0906 105.027 39.8295 104.814 39.6449C104.604 39.4602 104.306 39.3679 103.919 39.3679C103.51 39.3679 103.186 39.4585 102.944 39.6396C102.703 39.8171 102.543 40.0408 102.465 40.3107L100.366 40.1403C100.472 39.6431 100.682 39.2134 100.994 38.8512C101.307 38.4854 101.71 38.2049 102.204 38.0096C102.701 37.8107 103.276 37.7113 103.929 37.7113C104.384 37.7113 104.819 37.7646 105.235 37.8711C105.654 37.9776 106.025 38.1428 106.348 38.3665C106.674 38.5902 106.932 38.8778 107.12 39.2294C107.308 39.5774 107.402 39.9947 107.402 40.4812V45.9996H105.25V44.8651H105.187C105.055 45.1207 104.879 45.3462 104.659 45.5415C104.439 45.7333 104.174 45.8842 103.866 45.9943C103.557 46.1009 103.2 46.1541 102.795 46.1541ZM103.445 44.5881C103.779 44.5881 104.073 44.5224 104.329 44.391C104.585 44.256 104.785 44.0749 104.931 43.8477C105.076 43.6204 105.149 43.3629 105.149 43.0753V42.207C105.078 42.2532 104.981 42.2958 104.856 42.3349C104.736 42.3704 104.599 42.4041 104.446 42.4361C104.293 42.4645 104.141 42.4911 103.988 42.516C103.835 42.5373 103.697 42.5568 103.573 42.5746C103.306 42.6136 103.074 42.6758 102.875 42.761C102.676 42.8462 102.521 42.9616 102.411 43.1072C102.301 43.2493 102.246 43.4268 102.246 43.6399C102.246 43.9489 102.358 44.185 102.582 44.3484C102.809 44.5082 103.097 44.5881 103.445 44.5881Z" fill="#11557E"/>
<path d="M111.132 35.0906V45.9996H108.863V35.0906H111.132Z" fill="#11557E"/>
<path d="M117.002 37.8178V39.5224H112.075V37.8178H117.002ZM113.193 35.8576H115.462V43.4854C115.462 43.695 115.494 43.8583 115.558 43.9755C115.622 44.0891 115.711 44.169 115.825 44.2152C115.942 44.2614 116.077 44.2844 116.229 44.2844C116.336 44.2844 116.442 44.2756 116.549 44.2578C116.656 44.2365 116.737 44.2205 116.794 44.2099L117.151 45.8984C117.037 45.9339 116.878 45.9748 116.672 46.021C116.466 46.0707 116.215 46.1009 115.92 46.1115C115.374 46.1328 114.894 46.06 114.482 45.8931C114.074 45.7262 113.756 45.467 113.529 45.1154C113.302 44.7639 113.19 44.32 113.193 43.7837V35.8576Z" fill="#11557E"/>
<path d="M120.625 41.2695V45.9996H118.356V35.0906H120.561V39.2614H120.657C120.842 38.7784 121.14 38.4002 121.552 38.1268C121.964 37.8498 122.48 37.7113 123.102 37.7113C123.67 37.7113 124.165 37.8356 124.588 38.0842C125.014 38.3292 125.344 38.6825 125.579 39.1442C125.817 39.6023 125.934 40.1509 125.93 40.7901V45.9996H123.661V41.195C123.665 40.6907 123.537 40.2983 123.278 40.0178C123.022 39.7372 122.663 39.5969 122.202 39.5969C121.893 39.5969 121.619 39.6626 121.381 39.794C121.147 39.9254 120.962 40.1172 120.827 40.3693C120.696 40.6179 120.628 40.918 120.625 41.2695Z" fill="#11557E"/>
<path d="M140.256 38.9098H137.923C137.88 38.608 137.793 38.3398 137.662 38.1055C137.53 37.8675 137.362 37.6651 137.156 37.4982C136.95 37.3313 136.712 37.2035 136.442 37.1147C136.175 37.0259 135.886 36.9815 135.574 36.9815C135.009 36.9815 134.517 37.1218 134.098 37.4023C133.679 37.6793 133.354 38.0842 133.123 38.6168C132.892 39.146 132.777 39.7887 132.777 40.5451C132.777 41.3228 132.892 41.9762 133.123 42.5053C133.358 43.0344 133.684 43.4339 134.103 43.7038C134.522 43.9737 135.007 44.1087 135.558 44.1087C135.867 44.1087 136.152 44.0678 136.415 43.9862C136.682 43.9045 136.918 43.7855 137.124 43.6293C137.33 43.4695 137.5 43.2759 137.635 43.0487C137.773 42.8214 137.869 42.5621 137.923 42.271L140.256 42.2816C140.195 42.7823 140.044 43.2653 139.803 43.7305C139.565 44.1921 139.244 44.6058 138.839 44.9716C138.438 45.3338 137.958 45.6214 137.401 45.8345C136.847 46.044 136.22 46.1488 135.52 46.1488C134.547 46.1488 133.677 45.9286 132.91 45.4883C132.147 45.0479 131.543 44.4105 131.099 43.576C130.659 42.7415 130.439 41.7312 130.439 40.5451C130.439 39.3555 130.662 38.3434 131.11 37.5089C131.557 36.6744 132.164 36.0387 132.932 35.6019C133.699 35.1616 134.561 34.9414 135.52 34.9414C136.152 34.9414 136.738 35.0302 137.278 35.2077C137.821 35.3853 138.303 35.6445 138.722 35.9854C139.141 36.3228 139.482 36.7365 139.744 37.2266C140.011 37.7166 140.181 38.2777 140.256 38.9098Z" fill="#11557E"/>
<path d="M143.9 46.1541C143.378 46.1541 142.913 46.0636 142.505 45.8825C142.096 45.6978 141.773 45.4261 141.535 45.0675C141.301 44.7053 141.184 44.2543 141.184 43.7145C141.184 43.2599 141.267 42.8782 141.434 42.5692C141.601 42.2603 141.828 42.0117 142.116 41.8235C142.403 41.6353 142.73 41.4933 143.096 41.3974C143.465 41.3015 143.852 41.234 144.257 41.195C144.733 41.1452 145.116 41.0991 145.408 41.0565C145.699 41.0103 145.91 40.9428 146.041 40.854C146.173 40.7653 146.239 40.6339 146.239 40.4599V40.4279C146.239 40.0906 146.132 39.8295 145.919 39.6449C145.709 39.4602 145.411 39.3679 145.024 39.3679C144.616 39.3679 144.291 39.4585 144.049 39.6396C143.808 39.8171 143.648 40.0408 143.57 40.3107L141.471 40.1403C141.578 39.6431 141.787 39.2134 142.1 38.8512C142.412 38.4854 142.815 38.2049 143.309 38.0096C143.806 37.8107 144.381 37.7113 145.035 37.7113C145.489 37.7113 145.924 37.7646 146.34 37.8711C146.759 37.9776 147.13 38.1428 147.453 38.3665C147.78 38.5902 148.037 38.8778 148.225 39.2294C148.414 39.5774 148.508 39.9947 148.508 40.4812V45.9996H146.356V44.8651H146.292C146.16 45.1207 145.985 45.3462 145.765 45.5415C145.544 45.7333 145.28 45.8842 144.971 45.9943C144.662 46.1009 144.305 46.1541 143.9 46.1541ZM144.55 44.5881C144.884 44.5881 145.179 44.5224 145.434 44.391C145.69 44.256 145.891 44.0749 146.036 43.8477C146.182 43.6204 146.255 43.3629 146.255 43.0753V42.207C146.184 42.2532 146.086 42.2958 145.962 42.3349C145.841 42.3704 145.704 42.4041 145.551 42.4361C145.399 42.4645 145.246 42.4911 145.093 42.516C144.941 42.5373 144.802 42.5568 144.678 42.5746C144.412 42.6136 144.179 42.6758 143.98 42.761C143.781 42.8462 143.627 42.9616 143.517 43.1072C143.407 43.2493 143.352 43.4268 143.352 43.6399C143.352 43.9489 143.463 44.185 143.687 44.3484C143.914 44.5082 144.202 44.5881 144.55 44.5881Z" fill="#11557E"/>
<path d="M149.968 45.9996V37.8178H152.168V39.2454H152.253C152.403 38.7376 152.653 38.354 153.004 38.0948C153.356 37.832 153.761 37.7006 154.219 37.7006C154.333 37.7006 154.455 37.7077 154.586 37.7219C154.718 37.7362 154.833 37.7557 154.933 37.7805V39.794C154.826 39.7621 154.679 39.7337 154.491 39.7088C154.302 39.6839 154.13 39.6715 153.974 39.6715C153.64 39.6715 153.342 39.7443 153.079 39.8899C152.82 40.032 152.614 40.2308 152.461 40.4865C152.312 40.7422 152.237 41.0369 152.237 41.3707V45.9996H149.968Z" fill="#11557E"/>
<path d="M159.154 46.1594C158.312 46.1594 157.588 45.989 156.98 45.6481C156.377 45.3036 155.912 44.8171 155.585 44.1886C155.258 43.5565 155.095 42.8089 155.095 41.946C155.095 41.1044 155.258 40.3658 155.585 39.7301C155.912 39.0945 156.371 38.5991 156.964 38.244C157.561 37.8888 158.261 37.7113 159.063 37.7113C159.603 37.7113 160.105 37.7983 160.571 37.9723C161.039 38.1428 161.448 38.4002 161.796 38.7447C162.147 39.0891 162.421 39.5224 162.616 40.0444C162.811 40.5629 162.909 41.1701 162.909 41.8661V42.4893H156V41.0831H160.773C160.773 40.7564 160.702 40.467 160.56 40.2148C160.418 39.9627 160.221 39.7656 159.969 39.6236C159.72 39.478 159.431 39.4052 159.1 39.4052C158.756 39.4052 158.451 39.4851 158.184 39.6449C157.922 39.8011 157.716 40.0124 157.566 40.2788C157.417 40.5415 157.341 40.8345 157.337 41.1577V42.4947C157.337 42.8995 157.412 43.2493 157.561 43.544C157.714 43.8388 157.929 44.0661 158.206 44.2259C158.483 44.3857 158.811 44.4656 159.191 44.4656C159.443 44.4656 159.674 44.43 159.884 44.359C160.093 44.288 160.272 44.1815 160.422 44.0394C160.571 43.8974 160.684 43.7234 160.762 43.5174L162.861 43.6559C162.755 44.1602 162.536 44.6005 162.206 44.9769C161.879 45.3498 161.457 45.641 160.938 45.8505C160.423 46.0565 159.828 46.1594 159.154 46.1594Z" fill="#11557E"/>
<path d="M169.185 45.9996H166.713L170.479 35.0906H173.451L177.212 45.9996H174.74L172.008 37.5835H171.922L169.185 45.9996ZM169.03 41.7116H174.868V43.5121H169.03V41.7116Z" fill="#11557E"/>
<path d="M181.498 46.1594C180.66 46.1594 179.939 45.9819 179.336 45.6268C178.735 45.2681 178.274 44.771 177.951 44.1353C177.631 43.4996 177.471 42.7681 177.471 41.9407C177.471 41.1026 177.633 40.3675 177.956 39.7354C178.283 39.0998 178.746 38.6044 179.346 38.2493C179.946 37.8906 180.66 37.7113 181.488 37.7113C182.201 37.7113 182.826 37.8409 183.363 38.1001C183.899 38.3594 184.323 38.7234 184.636 39.1921C184.948 39.6609 185.12 40.2113 185.152 40.8434H183.011C182.951 40.435 182.791 40.1065 182.532 39.858C182.276 39.6058 181.94 39.4798 181.525 39.4798C181.173 39.4798 180.866 39.5756 180.603 39.7674C180.344 39.9556 180.142 40.2308 179.996 40.593C179.85 40.9553 179.778 41.3938 179.778 41.9087C179.778 42.4308 179.849 42.8746 179.991 43.2404C180.136 43.6062 180.34 43.8849 180.603 44.0767C180.866 44.2685 181.173 44.3643 181.525 44.3643C181.784 44.3643 182.017 44.3111 182.223 44.2045C182.432 44.098 182.604 43.9435 182.739 43.7411C182.878 43.5352 182.968 43.2884 183.011 43.0007H185.152C185.117 43.6257 184.946 44.1761 184.641 44.652C184.339 45.1243 183.922 45.4936 183.389 45.7599C182.856 46.0263 182.226 46.1594 181.498 46.1594Z" fill="#11557E"/>
<path d="M188.638 46.1541C188.116 46.1541 187.651 46.0636 187.243 45.8825C186.834 45.6978 186.511 45.4261 186.273 45.0675C186.039 44.7053 185.922 44.2543 185.922 43.7145C185.922 43.2599 186.005 42.8782 186.172 42.5692C186.339 42.2603 186.566 42.0117 186.854 41.8235C187.141 41.6353 187.468 41.4933 187.834 41.3974C188.203 41.3015 188.59 41.234 188.995 41.195C189.471 41.1452 189.855 41.0991 190.146 41.0565C190.437 41.0103 190.648 40.9428 190.78 40.854C190.911 40.7653 190.977 40.6339 190.977 40.4599V40.4279C190.977 40.0906 190.87 39.8295 190.657 39.6449C190.448 39.4602 190.149 39.3679 189.762 39.3679C189.354 39.3679 189.029 39.4585 188.787 39.6396C188.546 39.8171 188.386 40.0408 188.308 40.3107L186.209 40.1403C186.316 39.6431 186.525 39.2134 186.838 38.8512C187.15 38.4854 187.553 38.2049 188.047 38.0096C188.544 37.8107 189.119 37.7113 189.773 37.7113C190.227 37.7113 190.662 37.7646 191.078 37.8711C191.497 37.9776 191.868 38.1428 192.191 38.3665C192.518 38.5902 192.775 38.8778 192.964 39.2294C193.152 39.5774 193.246 39.9947 193.246 40.4812V45.9996H191.094V44.8651H191.03C190.899 45.1207 190.723 45.3462 190.503 45.5415C190.282 45.7333 190.018 45.8842 189.709 45.9943C189.4 46.1009 189.043 46.1541 188.638 46.1541ZM189.288 44.5881C189.622 44.5881 189.917 44.5224 190.172 44.391C190.428 44.256 190.629 44.0749 190.774 43.8477C190.92 43.6204 190.993 43.3629 190.993 43.0753V42.207C190.922 42.2532 190.824 42.2958 190.7 42.3349C190.579 42.3704 190.442 42.4041 190.29 42.4361C190.137 42.4645 189.984 42.4911 189.831 42.516C189.679 42.5373 189.54 42.5568 189.416 42.5746C189.15 42.6136 188.917 42.6758 188.718 42.761C188.519 42.8462 188.365 42.9616 188.255 43.1072C188.145 43.2493 188.09 43.4268 188.09 43.6399C188.09 43.9489 188.201 44.185 188.425 44.3484C188.652 44.5082 188.94 44.5881 189.288 44.5881Z" fill="#11557E"/>
<path d="M197.721 46.1328C197.1 46.1328 196.537 45.973 196.033 45.6534C195.532 45.3303 195.134 44.8562 194.839 44.2312C194.548 43.6026 194.403 42.832 194.403 41.9194C194.403 40.9819 194.554 40.2024 194.855 39.581C195.157 38.956 195.559 38.489 196.059 38.18C196.564 37.8675 197.116 37.7113 197.716 37.7113C198.174 37.7113 198.556 37.7894 198.861 37.9457C199.17 38.0984 199.419 38.2901 199.607 38.521C199.799 38.7482 199.944 38.9719 200.044 39.1921H200.113V35.0906H202.377V45.9996H200.14V44.6893H200.044C199.937 44.9165 199.786 45.142 199.591 45.3658C199.399 45.5859 199.149 45.7688 198.84 45.9144C198.534 46.06 198.162 46.1328 197.721 46.1328ZM198.44 44.3271C198.806 44.3271 199.115 44.2276 199.367 44.0288C199.623 43.8264 199.818 43.544 199.953 43.1818C200.092 42.8196 200.161 42.3952 200.161 41.9087C200.161 41.4222 200.093 40.9996 199.958 40.641C199.824 40.2823 199.628 40.0053 199.373 39.81C199.117 39.6147 198.806 39.517 198.44 39.517C198.067 39.517 197.753 39.6183 197.498 39.8207C197.242 40.0231 197.048 40.3036 196.917 40.6623C196.786 41.021 196.72 41.4364 196.72 41.9087C196.72 42.3846 196.786 42.8054 196.917 43.1712C197.052 43.5334 197.245 43.8175 197.498 44.0234C197.753 44.2259 198.067 44.3271 198.44 44.3271Z" fill="#11557E"/>
<path d="M207.671 46.1594C206.83 46.1594 206.105 45.989 205.498 45.6481C204.894 45.3036 204.429 44.8171 204.102 44.1886C203.776 43.5565 203.612 42.8089 203.612 41.946C203.612 41.1044 203.776 40.3658 204.102 39.7301C204.429 39.0945 204.889 38.5991 205.482 38.244C206.078 37.8888 206.778 37.7113 207.581 37.7113C208.12 37.7113 208.623 37.7983 209.088 37.9723C209.557 38.1428 209.965 38.4002 210.313 38.7447C210.665 39.0891 210.938 39.5224 211.133 40.0444C211.329 40.5629 211.426 41.1701 211.426 41.8661V42.4893H204.518V41.0831H209.29C209.29 40.7564 209.219 40.467 209.077 40.2148C208.935 39.9627 208.738 39.7656 208.486 39.6236C208.238 39.478 207.948 39.4052 207.618 39.4052C207.273 39.4052 206.968 39.4851 206.702 39.6449C206.439 39.8011 206.233 40.0124 206.084 40.2788C205.935 40.5415 205.858 40.8345 205.855 41.1577V42.4947C205.855 42.8995 205.929 43.2493 206.078 43.544C206.231 43.8388 206.446 44.0661 206.723 44.2259C207 44.3857 207.328 44.4656 207.708 44.4656C207.961 44.4656 208.191 44.43 208.401 44.359C208.61 44.288 208.79 44.1815 208.939 44.0394C209.088 43.8974 209.202 43.7234 209.28 43.5174L211.379 43.6559C211.272 44.1602 211.054 44.6005 210.723 44.9769C210.397 45.3498 209.974 45.641 209.456 45.8505C208.941 46.0565 208.346 46.1594 207.671 46.1594Z" fill="#11557E"/>
<path d="M212.607 45.9996V37.8178H214.77V39.2614H214.866C215.036 38.782 215.32 38.4038 215.718 38.1268C216.116 37.8498 216.592 37.7113 217.146 37.7113C217.707 37.7113 218.184 37.8516 218.579 38.1321C218.973 38.4091 219.235 38.7855 219.367 39.2614H219.452C219.619 38.7926 219.921 38.418 220.358 38.1374C220.798 37.8533 221.318 37.7113 221.918 37.7113C222.682 37.7113 223.302 37.9545 223.777 38.4411C224.257 38.924 224.496 39.6094 224.496 40.4972V45.9996H222.233V40.9446C222.233 40.4901 222.112 40.1491 221.87 39.9219C221.629 39.6946 221.327 39.581 220.965 39.581C220.553 39.581 220.232 39.7124 220.001 39.9751C219.77 40.2344 219.655 40.5771 219.655 41.0032V45.9996H217.455V40.8967C217.455 40.4954 217.339 40.1758 217.108 39.9379C216.881 39.6999 216.581 39.581 216.208 39.581C215.956 39.581 215.729 39.6449 215.526 39.7727C215.327 39.897 215.169 40.0728 215.052 40.3001C214.935 40.5238 214.876 40.7866 214.876 41.0884V45.9996H212.607Z" fill="#11557E"/>
<path d="M227.097 49.0678C226.809 49.0678 226.539 49.0447 226.287 48.9986C226.039 48.956 225.833 48.9009 225.669 48.8335L226.181 47.1396C226.447 47.2212 226.687 47.2656 226.9 47.2727C227.116 47.2798 227.303 47.2301 227.459 47.1236C227.619 47.017 227.749 46.8359 227.848 46.5803L227.981 46.234L225.046 37.8178H227.432L229.126 43.8263H229.212L230.921 37.8178H233.324L230.144 46.8839C229.991 47.3242 229.783 47.7077 229.521 48.0344C229.261 48.3647 228.933 48.6186 228.535 48.7962C228.137 48.9773 227.658 49.0678 227.097 49.0678Z" fill="#11557E"/>
<path d="M82.9961 66L82.0352 58H83.8828L84.2891 63.5586H84.3555L86.7344 58H88.3164L88.8555 63.5703H88.9258L91.168 58H93.0156L89.3984 66H87.75L87.1016 60.7695H87.0391L84.6445 66H82.9961Z" fill="#B51D1A"/>
<path d="M94.1957 66.1172C93.5812 66.1172 93.072 65.9922 92.6684 65.7422C92.2648 65.4896 91.9809 65.1328 91.8168 64.6719C91.6554 64.2083 91.628 63.6602 91.7348 63.0273C91.839 62.4102 92.0486 61.8685 92.3637 61.4023C92.6814 60.9362 93.0799 60.5729 93.559 60.3125C94.0382 60.0521 94.572 59.9219 95.1606 59.9219C95.5564 59.9219 95.9145 59.9857 96.2348 60.1133C96.5577 60.2383 96.826 60.4284 97.0395 60.6836C97.253 60.9362 97.3989 61.2526 97.477 61.6328C97.5577 62.013 97.5564 62.4583 97.4731 62.9688L97.3989 63.4258H92.3364L92.4965 62.3945H95.9965C96.0356 62.1549 96.02 61.9427 95.9496 61.7578C95.8793 61.5729 95.7621 61.4284 95.5981 61.3242C95.434 61.2174 95.2322 61.1641 94.9926 61.1641C94.7478 61.1641 94.5187 61.224 94.3051 61.3438C94.0916 61.4635 93.9119 61.6211 93.7661 61.8164C93.6228 62.0091 93.5304 62.2188 93.4887 62.4453L93.3051 63.4688C93.253 63.7839 93.2635 64.0456 93.3364 64.2539C93.4119 64.4622 93.5421 64.6185 93.727 64.7227C93.9119 64.8242 94.1463 64.875 94.4301 64.875C94.615 64.875 94.7882 64.849 94.9496 64.7969C95.1137 64.7448 95.2595 64.668 95.3871 64.5664C95.5148 64.4622 95.6189 64.3333 95.6996 64.1797L97.2192 64.2813C97.0786 64.651 96.865 64.974 96.5786 65.25C96.2921 65.5234 95.947 65.737 95.5434 65.8906C95.1424 66.0417 94.6931 66.1172 94.1957 66.1172Z" fill="#B51D1A"/>
<path d="M99.7591 66L101.087 58H104.243C104.848 58 105.344 58.1159 105.732 58.3477C106.122 58.5768 106.396 58.8958 106.552 59.3047C106.711 59.7109 106.747 60.1797 106.661 60.7109C106.573 61.2448 106.38 61.7148 106.083 62.1211C105.789 62.5247 105.406 62.8398 104.935 63.0664C104.464 63.293 103.919 63.4063 103.302 63.4063H101.29L101.513 62.0508H103.251C103.579 62.0508 103.859 61.9948 104.091 61.8828C104.326 61.7682 104.512 61.6107 104.65 61.4102C104.788 61.207 104.878 60.974 104.919 60.7109C104.964 60.4427 104.949 60.2096 104.876 60.0117C104.803 59.8138 104.669 59.6602 104.474 59.5508C104.281 59.4388 104.022 59.3828 103.697 59.3828H102.556L101.451 66H99.7591Z" fill="#B51D1A"/>
<path d="M106.41 66L107.41 60H109.023L108.847 61.0469H108.91C109.082 60.6745 109.312 60.3932 109.601 60.2031C109.893 60.0104 110.207 59.9141 110.543 59.9141C110.626 59.9141 110.713 59.9193 110.804 59.9297C110.898 59.9375 110.982 59.9505 111.054 59.9688L110.804 61.4492C110.732 61.4232 110.627 61.4023 110.492 61.3867C110.359 61.3685 110.233 61.3594 110.113 61.3594C109.871 61.3594 109.646 61.4128 109.437 61.5195C109.229 61.6237 109.053 61.7695 108.91 61.957C108.769 62.1445 108.677 62.3607 108.633 62.6055L108.074 66H106.41Z" fill="#B51D1A"/>
<path d="M112.91 66.1172C112.298 66.1172 111.792 65.987 111.391 65.7266C110.99 65.4635 110.707 65.099 110.543 64.6328C110.382 64.1641 110.352 63.6185 110.453 62.9961C110.552 62.3815 110.758 61.8438 111.071 61.3828C111.383 60.9219 111.78 60.5638 112.262 60.3086C112.744 60.0508 113.287 59.9219 113.891 59.9219C114.5 59.9219 115.005 60.0534 115.406 60.3164C115.807 60.5768 116.09 60.9414 116.254 61.4102C116.418 61.8789 116.449 62.4245 116.348 63.0469C116.246 63.6589 116.038 64.1953 115.723 64.6563C115.408 65.1172 115.011 65.4766 114.531 65.7344C114.052 65.9896 113.512 66.1172 112.91 66.1172ZM113.074 64.8281C113.356 64.8281 113.604 64.7487 113.821 64.5898C114.039 64.4284 114.22 64.2096 114.363 63.9336C114.509 63.6549 114.611 63.3398 114.668 62.9883C114.725 62.6419 114.729 62.3346 114.68 62.0664C114.63 61.7956 114.526 61.582 114.367 61.4258C114.211 61.2695 113.996 61.1914 113.723 61.1914C113.442 61.1914 113.192 61.2721 112.973 61.4336C112.754 61.5924 112.573 61.8112 112.43 62.0898C112.287 62.3685 112.186 62.6849 112.129 63.0391C112.074 63.3828 112.071 63.6901 112.117 63.9609C112.164 64.2292 112.267 64.4414 112.426 64.5977C112.585 64.7513 112.801 64.8281 113.074 64.8281Z" fill="#B51D1A"/>
<path d="M122.898 60L119.8 66H117.925L116.828 60H118.523L119.054 64.293H119.117L121.074 60H122.898Z" fill="#B51D1A"/>
<path d="M122.31 66L123.31 60H124.974L123.974 66H122.31ZM124.314 59.2188C124.066 59.2188 123.862 59.1367 123.7 58.9727C123.541 58.806 123.476 58.6081 123.505 58.3789C123.534 58.1445 123.646 57.9466 123.841 57.7852C124.036 57.6211 124.258 57.5391 124.505 57.5391C124.752 57.5391 124.954 57.6211 125.11 57.7852C125.267 57.9466 125.332 58.1445 125.306 58.3789C125.28 58.6081 125.169 58.806 124.974 58.9727C124.781 59.1367 124.561 59.2188 124.314 59.2188Z" fill="#B51D1A"/>
<path d="M127.07 66.0977C126.612 66.0977 126.217 65.9805 125.886 65.7461C125.558 65.5091 125.324 65.1615 125.183 64.7031C125.045 64.2422 125.032 63.6771 125.144 63.0078C125.259 62.3203 125.464 61.7487 125.761 61.293C126.058 60.8346 126.41 60.4922 126.816 60.2656C127.222 60.0365 127.645 59.9219 128.085 59.9219C128.419 59.9219 128.688 59.9792 128.894 60.0938C129.102 60.2057 129.263 60.3464 129.375 60.5156C129.487 60.6823 129.565 60.8464 129.609 61.0078H129.66L130.164 58H131.824L130.496 66H128.855L129.015 65.0391H128.945C128.841 65.2057 128.703 65.3711 128.531 65.5352C128.362 65.6966 128.156 65.8307 127.914 65.9375C127.674 66.0443 127.393 66.0977 127.07 66.0977ZM127.804 64.7734C128.07 64.7734 128.309 64.7005 128.523 64.5547C128.737 64.4063 128.916 64.1992 129.062 63.9336C129.208 63.668 129.309 63.3568 129.367 63C129.427 62.6432 129.428 62.3333 129.371 62.0703C129.313 61.8073 129.201 61.6042 129.035 61.4609C128.871 61.3177 128.653 61.2461 128.382 61.2461C128.109 61.2461 127.867 61.3203 127.656 61.4688C127.447 61.6172 127.274 61.8229 127.136 62.0859C127.001 62.349 126.904 62.6536 126.847 63C126.79 63.349 126.786 63.6576 126.835 63.9258C126.885 64.1914 126.99 64.3997 127.152 64.5508C127.313 64.6992 127.531 64.7734 127.804 64.7734Z" fill="#B51D1A"/>
<path d="M134.139 66.1172C133.524 66.1172 133.015 65.9922 132.611 65.7422C132.208 65.4896 131.924 65.1328 131.76 64.6719C131.598 64.2083 131.571 63.6602 131.678 63.0273C131.782 62.4102 131.991 61.8685 132.307 61.4023C132.624 60.9362 133.023 60.5729 133.502 60.3125C133.981 60.0521 134.515 59.9219 135.103 59.9219C135.499 59.9219 135.857 59.9857 136.178 60.1133C136.501 60.2383 136.769 60.4284 136.982 60.6836C137.196 60.9362 137.342 61.2526 137.42 61.6328C137.501 62.013 137.499 62.4583 137.416 62.9688L137.342 63.4258H132.279L132.439 62.3945H135.939C135.978 62.1549 135.963 61.9427 135.893 61.7578C135.822 61.5729 135.705 61.4284 135.541 61.3242C135.377 61.2174 135.175 61.1641 134.936 61.1641C134.691 61.1641 134.462 61.224 134.248 61.3438C134.034 61.4635 133.855 61.6211 133.709 61.8164C133.566 62.0091 133.473 62.2188 133.432 62.4453L133.248 63.4688C133.196 63.7839 133.206 64.0456 133.279 64.2539C133.355 64.4622 133.485 64.6185 133.67 64.7227C133.855 64.8242 134.089 64.875 134.373 64.875C134.558 64.875 134.731 64.849 134.893 64.7969C135.057 64.7448 135.202 64.668 135.33 64.5664C135.458 64.4622 135.562 64.3333 135.643 64.1797L137.162 64.2813C137.021 64.651 136.808 64.974 136.521 65.25C136.235 65.5234 135.89 65.737 135.486 65.8906C135.085 66.0417 134.636 66.1172 134.139 66.1172Z" fill="#B51D1A"/>
<path d="M143.155 63.2188H144.593L145.241 64.1484L145.831 64.9766L147.011 66.6563H145.432L144.624 65.5234L144.233 64.8516L143.155 63.2188ZM147.702 62.1094C147.556 62.9635 147.274 63.6888 146.854 64.2852C146.438 64.8815 145.929 65.3346 145.327 65.6445C144.728 65.9544 144.082 66.1094 143.389 66.1094C142.663 66.1094 142.037 65.944 141.511 65.6133C140.987 65.2826 140.608 64.8047 140.374 64.1797C140.139 63.5521 140.095 62.7956 140.241 61.9102C140.382 61.0534 140.662 60.3268 141.081 59.7305C141.5 59.1315 142.012 58.6758 142.616 58.3633C143.22 58.0482 143.87 57.8906 144.565 57.8906C145.287 57.8906 145.909 58.0573 146.432 58.3906C146.959 58.724 147.337 59.2057 147.569 59.8359C147.804 60.4635 147.848 61.2214 147.702 62.1094ZM146.018 61.9102C146.11 61.3607 146.106 60.8997 146.007 60.5273C145.91 60.1523 145.733 59.8685 145.475 59.6758C145.218 59.4831 144.892 59.3867 144.499 59.3867C144.072 59.3867 143.68 59.4935 143.323 59.707C142.969 59.9206 142.669 60.2305 142.425 60.6367C142.182 61.0404 142.014 61.5313 141.921 62.1094C141.827 62.6615 141.83 63.1224 141.929 63.4922C142.03 63.862 142.211 64.1419 142.472 64.332C142.735 64.5195 143.061 64.6133 143.452 64.6133C143.876 64.6133 144.264 64.5091 144.616 64.3008C144.97 64.0898 145.268 63.7839 145.511 63.3828C145.753 62.9792 145.922 62.4883 146.018 61.9102Z" fill="#B51D1A"/>
<path d="M152.173 63.4453L152.747 60H154.411L153.411 66H151.814L151.993 64.9102H151.931C151.746 65.2617 151.477 65.5443 151.122 65.7578C150.768 65.9714 150.366 66.0781 149.915 66.0781C149.514 66.0781 149.176 65.987 148.9 65.8047C148.626 65.6224 148.432 65.3633 148.318 65.0273C148.203 64.6914 148.184 64.2891 148.259 63.8203L148.9 60H150.564L149.978 63.5234C149.923 63.8776 149.973 64.1576 150.126 64.3633C150.28 64.569 150.514 64.6719 150.829 64.6719C151.03 64.6719 151.224 64.6263 151.411 64.5352C151.602 64.4414 151.766 64.3034 151.904 64.1211C152.042 63.9388 152.131 63.7135 152.173 63.4453Z" fill="#B51D1A"/>
<path d="M155.998 66.1133C155.618 66.1133 155.288 66.0469 155.009 65.9141C154.733 65.7786 154.53 65.5781 154.4 65.3125C154.27 65.0469 154.237 64.7174 154.302 64.3242C154.36 63.9909 154.468 63.7122 154.627 63.4883C154.788 63.2617 154.985 63.0794 155.217 62.9414C155.448 62.8034 155.705 62.6979 155.986 62.625C156.27 62.5521 156.563 62.5026 156.865 62.4766C157.214 62.4401 157.498 62.4049 157.717 62.3711C157.938 62.3372 158.103 62.2891 158.213 62.2266C158.322 62.1615 158.388 62.0651 158.412 61.9375V61.9141C158.451 61.6693 158.405 61.4792 158.275 61.3438C158.148 61.2057 157.943 61.1367 157.662 61.1367C157.365 61.1367 157.112 61.2018 156.904 61.332C156.698 61.4622 156.551 61.6276 156.463 61.8281L154.947 61.7031C155.082 61.3385 155.287 61.0234 155.56 60.7578C155.836 60.4896 156.168 60.2839 156.556 60.1406C156.944 59.9948 157.379 59.9219 157.861 59.9219C158.194 59.9219 158.506 59.9609 158.795 60.0391C159.086 60.1172 159.338 60.2383 159.549 60.4023C159.762 60.5664 159.916 60.7773 160.009 61.0352C160.106 61.2904 160.125 61.5964 160.068 61.9531L159.392 66H157.814L157.955 65.168H157.908C157.78 65.3555 157.624 65.5208 157.439 65.6641C157.254 65.8047 157.042 65.9154 156.802 65.9961C156.563 66.0742 156.295 66.1133 155.998 66.1133ZM156.666 64.9648C156.908 64.9648 157.131 64.9167 157.334 64.8203C157.539 64.7214 157.709 64.5885 157.842 64.4219C157.977 64.2552 158.063 64.0664 158.099 63.8555L158.201 63.2188C158.149 63.2526 158.073 63.2826 157.974 63.3086C157.878 63.3346 157.773 63.3594 157.658 63.3828C157.546 63.4036 157.433 63.4232 157.318 63.4414C157.203 63.457 157.101 63.4727 157.009 63.4883C156.809 63.5169 156.629 63.5625 156.47 63.625C156.312 63.6875 156.183 63.7721 156.084 63.8789C155.985 63.9831 155.924 64.1133 155.9 64.2695C155.864 64.4961 155.917 64.6693 156.06 64.7891C156.206 64.9063 156.408 64.9648 156.666 64.9648Z" fill="#B51D1A"/>
<path d="M163.236 58L161.907 66H160.243L161.571 58H163.236Z" fill="#B51D1A"/>
<path d="M162.8 66L163.8 60H165.464L164.464 66H162.8ZM164.804 59.2188C164.557 59.2188 164.352 59.1367 164.191 58.9727C164.032 58.806 163.967 58.6081 163.996 58.3789C164.024 58.1445 164.136 57.9466 164.332 57.7852C164.527 57.6211 164.748 57.5391 164.996 57.5391C165.243 57.5391 165.445 57.6211 165.601 57.7852C165.757 57.9466 165.823 58.1445 165.796 58.3789C165.77 58.6081 165.66 58.806 165.464 58.9727C165.272 59.1367 165.052 59.2188 164.804 59.2188Z" fill="#B51D1A"/>
<path d="M169.549 60L169.342 61.25H165.725L165.936 60H169.549ZM166.99 58.5625H168.654L167.725 64.1563C167.699 64.3099 167.703 64.4297 167.736 64.5156C167.77 64.599 167.826 64.6576 167.904 64.6914C167.985 64.7253 168.081 64.7422 168.193 64.7422C168.272 64.7422 168.351 64.7357 168.432 64.7227C168.512 64.707 168.574 64.6953 168.615 64.6875L168.678 65.9258C168.584 65.9544 168.458 65.9857 168.299 66.0195C168.143 66.0534 167.958 66.0742 167.744 66.082C167.338 66.0977 166.994 66.0443 166.713 65.9219C166.432 65.7969 166.23 65.6055 166.107 65.3477C165.985 65.0898 165.959 64.7656 166.029 64.375L166.99 58.5625Z" fill="#B51D1A"/>
<path d="M169.853 68.25C169.639 68.25 169.444 68.2331 169.267 68.1992C169.09 68.168 168.944 68.1276 168.83 68.0781L169.416 66.8359C169.6 66.8958 169.768 66.9271 169.919 66.9297C170.073 66.9323 170.214 66.8932 170.341 66.8125C170.469 66.7318 170.586 66.599 170.693 66.4141L170.841 66.1602L169.716 60H171.404L171.912 64.4141H171.974L173.962 60H175.787L172.353 66.6484C172.184 66.974 171.983 67.2565 171.751 67.4961C171.522 67.7357 171.25 67.9206 170.935 68.0508C170.623 68.1836 170.262 68.25 169.853 68.25Z" fill="#B51D1A"/>
<path d="M177.335 66L178.663 58H180.355L179.808 61.3008H183.242L183.788 58H185.476L184.148 66H182.46L183.007 62.6953H179.574L179.027 66H177.335Z" fill="#B51D1A"/>
<path d="M187.79 66.1172C187.175 66.1172 186.666 65.9922 186.262 65.7422C185.859 65.4896 185.575 65.1328 185.411 64.6719C185.249 64.2083 185.222 63.6602 185.329 63.0273C185.433 62.4102 185.643 61.8685 185.958 61.4023C186.276 60.9362 186.674 60.5729 187.153 60.3125C187.632 60.0521 188.166 59.9219 188.755 59.9219C189.151 59.9219 189.509 59.9857 189.829 60.1133C190.152 60.2383 190.42 60.4284 190.634 60.6836C190.847 60.9362 190.993 61.2526 191.071 61.6328C191.152 62.013 191.151 62.4583 191.067 62.9688L190.993 63.4258H185.93L186.091 62.3945H189.591C189.63 62.1549 189.614 61.9427 189.544 61.7578C189.473 61.5729 189.356 61.4284 189.192 61.3242C189.028 61.2174 188.826 61.1641 188.587 61.1641C188.342 61.1641 188.113 61.224 187.899 61.3438C187.686 61.4635 187.506 61.6211 187.36 61.8164C187.217 62.0091 187.124 62.2188 187.083 62.4453L186.899 63.4688C186.847 63.7839 186.858 64.0456 186.93 64.2539C187.006 64.4622 187.136 64.6185 187.321 64.7227C187.506 64.8242 187.74 64.875 188.024 64.875C188.209 64.875 188.382 64.849 188.544 64.7969C188.708 64.7448 188.854 64.668 188.981 64.5664C189.109 64.4622 189.213 64.3333 189.294 64.1797L190.813 64.2813C190.673 64.651 190.459 64.974 190.173 65.25C189.886 65.5234 189.541 65.737 189.137 65.8906C188.736 66.0417 188.287 66.1172 187.79 66.1172Z" fill="#B51D1A"/>
<path d="M192.911 66.1133C192.531 66.1133 192.202 66.0469 191.923 65.9141C191.647 65.7786 191.444 65.5781 191.314 65.3125C191.184 65.0469 191.151 64.7174 191.216 64.3242C191.273 63.9909 191.381 63.7122 191.54 63.4883C191.702 63.2617 191.898 63.0794 192.13 62.9414C192.362 62.8034 192.618 62.6979 192.9 62.625C193.184 62.5521 193.476 62.5026 193.779 62.4766C194.128 62.4401 194.411 62.4049 194.63 62.3711C194.851 62.3372 195.017 62.2891 195.126 62.2266C195.236 62.1615 195.302 62.0651 195.325 61.9375V61.9141C195.364 61.6693 195.319 61.4792 195.189 61.3438C195.061 61.2057 194.857 61.1367 194.575 61.1367C194.279 61.1367 194.026 61.2018 193.818 61.332C193.612 61.4622 193.465 61.6276 193.376 61.8281L191.861 61.7031C191.996 61.3385 192.2 61.0234 192.474 60.7578C192.75 60.4896 193.082 60.2839 193.47 60.1406C193.858 59.9948 194.293 59.9219 194.775 59.9219C195.108 59.9219 195.419 59.9609 195.708 60.0391C196 60.1172 196.251 60.2383 196.462 60.4023C196.676 60.5664 196.829 60.7773 196.923 61.0352C197.019 61.2904 197.039 61.5964 196.982 61.9531L196.306 66H194.728L194.868 65.168H194.822C194.694 65.3555 194.538 65.5208 194.353 65.6641C194.168 65.8047 193.956 65.9154 193.716 65.9961C193.476 66.0742 193.208 66.1133 192.911 66.1133ZM193.579 64.9648C193.822 64.9648 194.044 64.9167 194.247 64.8203C194.453 64.7214 194.622 64.5885 194.755 64.4219C194.891 64.2552 194.976 64.0664 195.013 63.8555L195.114 63.2188C195.062 63.2526 194.987 63.2826 194.888 63.3086C194.792 63.3346 194.686 63.3594 194.572 63.3828C194.46 63.4036 194.346 63.4232 194.232 63.4414C194.117 63.457 194.014 63.4727 193.923 63.4883C193.723 63.5169 193.543 63.5625 193.384 63.625C193.225 63.6875 193.096 63.7721 192.997 63.8789C192.898 63.9831 192.837 64.1133 192.814 64.2695C192.777 64.4961 192.831 64.6693 192.974 64.7891C193.12 64.9063 193.322 64.9648 193.579 64.9648Z" fill="#B51D1A"/>
<path d="M200.149 58L198.821 66H197.157L198.485 58H200.149Z" fill="#B51D1A"/>
<path d="M203.905 60L203.698 61.25H200.081L200.292 60H203.905ZM201.347 58.5625H203.011L202.081 64.1563C202.055 64.3099 202.059 64.4297 202.093 64.5156C202.127 64.599 202.183 64.6576 202.261 64.6914C202.342 64.7253 202.438 64.7422 202.55 64.7422C202.628 64.7422 202.707 64.7357 202.788 64.7227C202.869 64.707 202.93 64.6953 202.972 64.6875L203.034 65.9258C202.941 65.9544 202.814 65.9857 202.655 66.0195C202.499 66.0534 202.314 66.0742 202.101 66.082C201.694 66.0977 201.351 66.0443 201.069 65.9219C200.788 65.7969 200.586 65.6055 200.464 65.3477C200.342 65.0898 200.316 64.7656 200.386 64.375L201.347 58.5625Z" fill="#B51D1A"/>
<path d="M205.928 62.5313L205.35 66H203.69L205.018 58H206.631L206.131 61.0586H206.198C206.391 60.7044 206.655 60.4271 206.991 60.2266C207.327 60.0234 207.724 59.9219 208.182 59.9219C208.599 59.9219 208.947 60.013 209.225 60.1953C209.506 60.375 209.706 60.6341 209.823 60.9727C209.94 61.3086 209.96 61.7109 209.881 62.1797L209.241 66H207.581L208.167 62.4766C208.226 62.1068 208.178 61.819 208.022 61.6133C207.868 61.4076 207.624 61.3047 207.288 61.3047C207.061 61.3047 206.853 61.3529 206.663 61.4492C206.473 61.5456 206.312 61.6862 206.182 61.8711C206.055 62.0534 205.97 62.2734 205.928 62.5313Z" fill="#B51D1A"/>
<path d="M212.798 66.1172C212.181 66.1172 211.673 65.987 211.274 65.7266C210.879 65.4635 210.601 65.099 210.442 64.6328C210.286 64.1667 210.259 63.6302 210.36 63.0234C210.459 62.4089 210.666 61.8698 210.981 61.4063C211.297 60.9401 211.696 60.5768 212.181 60.3164C212.668 60.0534 213.215 59.9219 213.821 59.9219C214.345 59.9219 214.787 60.0169 215.149 60.207C215.511 60.3971 215.777 60.6641 215.946 61.0078C216.116 61.3516 216.173 61.7552 216.118 62.2188H214.552C214.554 61.9219 214.478 61.681 214.321 61.4961C214.165 61.3112 213.936 61.2188 213.634 61.2188C213.373 61.2188 213.134 61.2891 212.915 61.4297C212.699 61.5677 212.515 61.7695 212.364 62.0352C212.216 62.3008 212.112 62.6224 212.052 63C211.989 63.3828 211.988 63.7083 212.048 63.9766C212.108 64.2448 212.222 64.4492 212.392 64.5898C212.561 64.7305 212.774 64.8008 213.032 64.8008C213.225 64.8008 213.403 64.7617 213.567 64.6836C213.734 64.6055 213.88 64.4922 214.005 64.3438C214.13 64.1927 214.226 64.0117 214.294 63.8008H215.864C215.757 64.2617 215.563 64.6654 215.282 65.0117C215.004 65.3581 214.653 65.6289 214.231 65.8242C213.81 66.0195 213.332 66.1172 212.798 66.1172Z" fill="#B51D1A"/>
<path d="M217.814 66.1133C217.434 66.1133 217.104 66.0469 216.826 65.9141C216.55 65.7786 216.346 65.5781 216.216 65.3125C216.086 65.0469 216.053 64.7174 216.119 64.3242C216.176 63.9909 216.284 63.7122 216.443 63.4883C216.604 63.2617 216.801 63.0794 217.033 62.9414C217.264 62.8034 217.521 62.6979 217.802 62.625C218.086 62.5521 218.379 62.5026 218.681 62.4766C219.03 62.4401 219.314 62.4049 219.533 62.3711C219.754 62.3372 219.919 62.2891 220.029 62.2266C220.138 62.1615 220.205 62.0651 220.228 61.9375V61.9141C220.267 61.6693 220.221 61.4792 220.091 61.3438C219.964 61.2057 219.759 61.1367 219.478 61.1367C219.181 61.1367 218.928 61.2018 218.72 61.332C218.514 61.4622 218.367 61.6276 218.279 61.8281L216.763 61.7031C216.899 61.3385 217.103 61.0234 217.376 60.7578C217.652 60.4896 217.984 60.2839 218.372 60.1406C218.761 59.9948 219.195 59.9219 219.677 59.9219C220.011 59.9219 220.322 59.9609 220.611 60.0391C220.902 60.1172 221.154 60.2383 221.365 60.4023C221.578 60.5664 221.732 60.7773 221.826 61.0352C221.922 61.2904 221.942 61.5964 221.884 61.9531L221.208 66H219.63L219.771 65.168H219.724C219.596 65.3555 219.44 65.5208 219.255 65.6641C219.07 65.8047 218.858 65.9154 218.619 65.9961C218.379 66.0742 218.111 66.1133 217.814 66.1133ZM218.482 64.9648C218.724 64.9648 218.947 64.9167 219.15 64.8203C219.356 64.7214 219.525 64.5885 219.658 64.4219C219.793 64.2552 219.879 64.0664 219.915 63.8555L220.017 63.2188C219.965 63.2526 219.889 63.2826 219.79 63.3086C219.694 63.3346 219.589 63.3594 219.474 63.3828C219.362 63.4036 219.249 63.4232 219.134 63.4414C219.02 63.457 218.917 63.4727 218.826 63.4883C218.625 63.5169 218.445 63.5625 218.287 63.625C218.128 63.6875 217.999 63.7721 217.9 63.8789C217.801 63.9831 217.74 64.1133 217.716 64.2695C217.68 64.4961 217.733 64.6693 217.876 64.7891C218.022 64.9063 218.224 64.9648 218.482 64.9648Z" fill="#B51D1A"/>
<path d="M222.059 66L223.059 60H224.673L224.497 61.0469H224.559C224.731 60.6745 224.962 60.3932 225.251 60.2031C225.543 60.0104 225.856 59.9141 226.192 59.9141C226.276 59.9141 226.363 59.9193 226.454 59.9297C226.548 59.9375 226.631 59.9505 226.704 59.9688L226.454 61.4492C226.381 61.4232 226.277 61.4023 226.141 61.3867C226.009 61.3685 225.882 61.3594 225.763 61.3594C225.52 61.3594 225.295 61.4128 225.087 61.5195C224.878 61.6237 224.703 61.7695 224.559 61.957C224.419 62.1445 224.326 62.3607 224.282 62.6055L223.724 66H222.059Z" fill="#B51D1A"/>
<path d="M228.56 66.1172C227.945 66.1172 227.436 65.9922 227.033 65.7422C226.629 65.4896 226.345 65.1328 226.181 64.6719C226.02 64.2083 225.992 63.6602 226.099 63.0273C226.203 62.4102 226.413 61.8685 226.728 61.4023C227.046 60.9362 227.444 60.5729 227.923 60.3125C228.402 60.0521 228.936 59.9219 229.525 59.9219C229.921 59.9219 230.279 59.9857 230.599 60.1133C230.922 60.2383 231.19 60.4284 231.404 60.6836C231.617 60.9362 231.763 61.2526 231.841 61.6328C231.922 62.013 231.921 62.4583 231.837 62.9688L231.763 63.4258H226.701L226.861 62.3945H230.361C230.4 62.1549 230.384 61.9427 230.314 61.7578C230.243 61.5729 230.126 61.4284 229.962 61.3242C229.798 61.2174 229.596 61.1641 229.357 61.1641C229.112 61.1641 228.883 61.224 228.669 61.3438C228.456 61.4635 228.276 61.6211 228.13 61.8164C227.987 62.0091 227.895 62.2188 227.853 62.4453L227.669 63.4688C227.617 63.7839 227.628 64.0456 227.701 64.2539C227.776 64.4622 227.906 64.6185 228.091 64.7227C228.276 64.8242 228.51 64.875 228.794 64.875C228.979 64.875 229.152 64.849 229.314 64.7969C229.478 64.7448 229.624 64.668 229.751 64.5664C229.879 64.4622 229.983 64.3333 230.064 64.1797L231.583 64.2813C231.443 64.651 231.229 64.974 230.943 65.25C230.656 65.5234 230.311 65.737 229.908 65.8906C229.506 66.0417 229.057 66.1172 228.56 66.1172Z" fill="#B51D1A"/>
<path fill-rule="evenodd" clip-rule="evenodd" d="M234 52.75H82V51.25H234V52.75Z" fill="#9DC843"/>
</svg>
