<svg width="160" height="160" viewBox="0 0 160 160" fill="none" xmlns="http://www.w3.org/2000/svg">
<g clip-path="url(#clip0_141_318)">
<path d="M0 26.8764V133.123C0 151.041 8.95896 160 26.8769 160H133.124C151.041 160 160 151.041 160 133.123V26.8764C160 8.95879 151.041 0 133.124 0H26.8769C8.95896 0 0 8.95879 0 26.8764V26.8764Z" fill="url(#paint0_linear_141_318)"/>
<path fill-rule="evenodd" clip-rule="evenodd" d="M41.4402 77.4347L95.1311 87.7979C115.765 91.781 111.109 114.136 96.0904 116.104H63.0109H55.6675V100.683H57.9616H57.9922L58.0237 100.682L58.0542 100.682L58.084 100.679L58.1146 100.677L58.1452 100.674L58.1749 100.672L58.2047 100.668L58.2344 100.664L58.2637 100.66L58.2926 100.656H58.2934L58.3223 100.651L58.3512 100.647L58.38 100.643L58.4089 100.634L58.4374 100.625L58.4654 100.617L58.4934 100.608L58.5214 100.6L58.549 100.591L58.5762 100.582H58.577L58.6042 100.574L58.6309 100.565L58.6572 100.556H58.658L58.6843 100.544L58.7102 100.531H58.7111L58.7365 100.518H58.7373L58.7623 100.505H58.7632L58.7886 100.492L58.8136 100.479H58.8145L58.839 100.466H58.8399L58.8641 100.453L58.8895 100.436L58.9136 100.423L58.9377 100.406L58.9614 100.388H58.9623L58.9856 100.371L59.0089 100.354L59.0326 100.337L59.055 100.319H59.0558L59.0782 100.302L59.0998 100.285H59.1007L59.1226 100.268H59.1235L59.1442 100.251H59.1451L59.1657 100.229H59.1666L59.1873 100.207H59.1881L59.208 100.186H59.2088L59.2295 100.164L59.2493 100.143H59.2502L59.27 100.121L59.2899 100.1L59.3088 100.078H59.3097L59.3286 100.057L59.3476 100.035L59.3653 100.014H59.3661L59.3842 99.9876L59.4023 99.966L59.4196 99.9403L59.4364 99.9143H59.4372L59.4536 99.8884L59.4709 99.8627L59.4868 99.8367L59.5032 99.811L59.5183 99.7851C59.8488 99.2136 59.8755 98.5421 59.5183 97.9866L50.0661 83.2674L50.0303 83.2123H50.0295L49.9924 83.1593L49.9536 83.108L49.914 83.0575H49.9131L49.8726 83.0098L49.8312 82.964H49.8304L49.7881 82.9193L49.7442 82.8762L49.6998 82.833H49.6989L49.6541 82.7942L49.6084 82.7554H49.6071L49.5606 82.721L49.5128 82.6865L49.4641 82.6564L49.4149 82.6261L49.3653 82.596H49.3645L49.3141 82.5659L49.2636 82.54H49.2628L49.2115 82.5184L49.1594 82.4969L49.1068 82.4754H49.1059L49.0537 82.4581L49.0007 82.4408H48.9999L48.9469 82.4279L48.8926 82.415L48.8387 82.402H48.8378L48.784 82.3935L48.7288 82.3848L48.6741 82.3806L48.6193 82.3762L48.5642 82.3736L48.5094 82.3728L48.4543 82.3736L48.3995 82.3762H48.3987L48.3448 82.3806H48.3439L48.2896 82.3848L48.2349 82.3935L48.181 82.402H48.1802L48.1259 82.4107L48.072 82.4236L48.019 82.4366H48.0181L47.9651 82.4538L47.9117 82.4711L47.8595 82.4926L47.8074 82.5141L47.7561 82.5357L47.7048 82.5616L47.6544 82.5875L47.604 82.6176L47.5553 82.6477H47.5544L47.507 82.678H47.5061L47.4583 82.7124L47.4113 82.7469L47.3648 82.7857L47.3195 82.8245L47.2747 82.8633L47.2316 82.9068L47.188 82.9507L47.1467 82.9973L47.1053 83.045L47.0657 83.0946L47.0273 83.1468L46.9894 83.1998L46.9532 83.255L37.5002 97.9741C37.1429 98.5288 37.17 99.201 37.4993 99.7733C37.8298 100.345 38.3966 100.672 39.0573 100.672H41.4906V130.505H41.4914H63.0109H94.5264C128.18 130.382 133.948 83.7182 99.8088 74.5126L55.627 66.0328V43.582H89.646C90.3326 43.582 90.992 43.6333 91.6229 43.732V43.7329C92.3681 43.8493 93.0744 44.0319 93.7407 44.2737L93.7765 44.2866L93.961 44.3564L94.1493 44.4323L94.2006 44.4539L94.3777 44.5302L94.4023 44.5387L94.5928 44.6254L94.6298 44.6426L94.7962 44.7223L94.8492 44.7482L95.0104 44.8301L95.0194 44.8344L95.1966 44.9292L95.222 44.9421L95.4207 45.0538V45.0547L95.6181 45.1706L95.6404 45.1835L95.8116 45.2904L95.8564 45.3205L96.0012 45.417C96.1201 45.4959 96.2361 45.5787 96.3511 45.6627L96.399 45.6972L96.5429 45.8054L96.5683 45.827L96.7313 45.9546L96.8769 46.0735L96.9067 46.0994L97.0696 46.2381L97.0778 46.2467L97.2467 46.3966L97.2575 46.4053L97.4113 46.5492L97.5337 46.6682L97.5742 46.707L97.6229 46.7557L97.7328 46.8681L97.7363 46.8717L97.8643 47.0065L97.8893 47.0324L97.9729 47.1233L98.0414 47.1996L98.1414 47.3129L98.191 47.3707L98.306 47.5064L98.3375 47.5452L98.4672 47.7048L98.4806 47.722L98.6202 47.903L98.6237 47.9064L98.7569 48.0866L98.7758 48.1123L98.89 48.2732L98.9245 48.3219L99.0206 48.4633L99.0305 48.4805L99.1339 48.6374L99.1564 48.6718L99.2628 48.8403L99.2706 48.8532L99.3456 48.9747L99.3912 49.051L99.4779 49.1989L99.5084 49.2519L99.6054 49.4256L99.6218 49.4557L99.7295 49.6566L99.7326 49.6609L99.8395 49.8699L99.8494 49.8915L99.9429 50.0828L99.9644 50.1281L100.044 50.2971L100.076 50.3681L100.092 50.4069C100.158 50.5534 100.222 50.7021 100.283 50.8525L100.286 50.8612L100.325 50.9568L100.385 51.1107L100.412 51.1809L100.479 51.3624L100.495 51.4067L100.57 51.617L100.576 51.6343L100.652 51.865L100.656 51.8735L100.725 52.0959L100.737 52.1347L100.795 52.3308L100.814 52.3976L100.862 52.5665L100.888 52.663L100.925 52.8054L100.957 52.9303L100.984 53.0454L101.02 53.2001L101.04 53.2875L101.081 53.4728L101.093 53.5315L101.136 53.7475L101.142 53.7776L101.188 54.025L99.4335 53.8116C98.7784 53.7306 98.1673 53.9082 97.738 54.4094C97.3088 54.9106 97.1476 55.5708 97.4079 56.1759L104.247 72.1858L104.274 72.2462V72.247L104.302 72.3056L104.332 72.3638L104.363 72.4198L104.395 72.4745L104.428 72.5275V72.5288L104.463 72.5801L104.5 72.6301L104.536 72.6789L104.574 72.7259L104.575 72.7267L104.614 72.7715V72.7724L104.654 72.816V72.8167L104.696 72.8599L104.738 72.8987V72.8995L104.78 72.9383H104.781L104.824 72.9771L104.825 72.9784L104.869 73.0128V73.0138L104.915 73.0482L104.962 73.0827L105.009 73.1128L105.057 73.1431L105.106 73.1688L105.155 73.1947L105.156 73.1955L105.205 73.2214L105.256 73.2474L105.307 73.2689L105.358 73.2904L105.41 73.3076L105.462 73.325L105.515 73.3378V73.3386L105.568 73.3517L105.623 73.3602V73.3611L105.676 73.3697H105.677L105.73 73.3783L105.785 73.3827V73.3835L105.839 73.3874L105.894 73.3899L105.949 73.3908H105.949L106.004 73.3899L106.059 73.3874V73.3865L106.114 73.3822L106.169 73.3736H106.17L106.224 73.3649H106.225L106.279 73.3564H106.28L106.333 73.3434H106.334L106.389 73.3305L106.443 73.3176V73.3167L106.497 73.2994L106.551 73.2822V73.2814L106.605 73.2598L106.658 73.2383L106.711 73.2124L106.765 73.1866L106.817 73.1563L106.868 73.1262L106.92 73.0918L106.971 73.0573L107.02 73.0185H107.021L107.071 72.9797L107.119 72.9409L107.168 72.8974L107.216 72.8534L107.262 72.8069L107.308 72.7582L119.073 59.9978C119.52 59.5126 119.622 58.8531 119.404 58.2295C119.184 57.6085 118.692 57.1495 118.037 57.0612L115.887 56.7724L115.9 56.1342L115.901 56.0729V55.8166V55.4458L115.895 55.0697L115.889 54.8106L115.877 54.4658L115.861 54.0913L115.851 53.8828L115.822 53.4221L115.804 53.1755L115.776 52.8398L115.745 52.5057L115.701 52.0938L115.682 51.9192L115.629 51.5025L115.591 51.2154L115.584 51.162L115.506 50.6456L115.5 50.6155L115.426 50.1824L115.393 49.9919L115.388 49.9617L115.272 49.3696L115.266 49.3393L115.221 49.129L115.129 48.7124L115.105 48.6132L114.987 48.1335L114.906 47.825L114.83 47.5422L114.745 47.2478L114.652 46.9277L114.574 46.6794L114.456 46.3101L114.381 46.0881L114.256 45.7309L114.169 45.4903L114.068 45.2205L113.931 44.8667L113.877 44.7344L113.695 44.2961L113.694 44.2936L113.46 43.7634L113.213 43.2389V43.2368C113.13 43.0631 113.043 42.8924 112.954 42.7204L112.758 42.3486L112.671 42.187L112.452 41.7991L112.385 41.6801L112.147 41.2806L112.087 41.1815L111.812 40.7467L111.784 40.7035L111.514 40.2958L111.43 40.1743L111.19 39.8316L111.061 39.6554L110.851 39.3709L110.68 39.1494L110.472 38.8831L110.355 38.7408C109.898 38.1792 109.414 37.6367 108.899 37.1174C108.767 36.9834 108.631 36.851 108.495 36.7205L108.479 36.7032L108.058 36.311L108.049 36.3024L107.637 35.9361L107.593 35.8973L107.204 35.5706L107.101 35.4865L106.739 35.1995L106.625 35.1108L106.222 34.8065L106.184 34.7806C104.572 33.601 102.754 32.5904 100.729 31.7776H100.727C100.524 31.6965 100.32 31.6164 100.113 31.5392L100.106 31.5362C98.2414 30.8398 96.2063 30.3088 93.9997 29.9589L93.9726 29.9545C93.7424 29.92 93.5093 29.8834 93.2753 29.8519L93.2007 29.8434L92.4823 29.7529H92.4797C90.9256 29.571 89.2931 29.4762 87.5786 29.4762H41.4402V77.4347Z" fill="white"/>
</g>
<defs>
<linearGradient id="paint0_linear_141_318" x1="-1.90735e-05" y1="0.00284448" x2="-1.90735e-05" y2="160.003" gradientUnits="userSpaceOnUse">
<stop stop-color="#33378A"/>
<stop offset="1" stop-color="#714994"/>
</linearGradient>
<clipPath id="clip0_141_318">
<rect width="160" height="160" fill="white"/>
</clipPath>
</defs>
</svg>
