<svg width="130" height="96" viewBox="0 0 130 96" fill="none" xmlns="http://www.w3.org/2000/svg">
<path fill-rule="evenodd" clip-rule="evenodd" d="M64.8668 8.53589C83.4776 8.53589 98.5567 23.5452 98.5567 42.2269C98.5567 60.6328 83.4887 75.6532 64.8668 75.6532C46.3887 75.6532 31.1768 60.6328 31.1768 42.2269C31.1768 23.5562 46.3887 8.53589 64.8668 8.53589Z" fill="#FFFADB"/>
<path d="M64.8667 76.3698C45.8904 76.3698 30.457 61.0517 30.457 42.2267C30.457 23.2583 45.8904 7.81885 64.8667 7.81885C83.8429 7.81885 99.2763 23.2583 99.2763 42.2267C99.2763 61.0517 83.8429 76.3698 64.8667 76.3698ZM64.8667 9.25251C46.6876 9.25251 31.8963 24.0412 31.8963 42.2156C31.8963 60.2466 46.6876 74.9251 64.8667 74.9251C83.0458 74.9251 97.837 60.2577 97.837 42.2156C97.837 24.0523 83.0458 9.25251 64.8667 9.25251Z" fill="#005834"/>
<path fill-rule="evenodd" clip-rule="evenodd" d="M64.8666 20.8101C76.6686 20.8101 86.2342 30.4707 86.2342 42.2267C86.2342 53.718 76.6686 63.3787 64.8666 63.3787C53.1974 63.3787 43.6318 53.718 43.6318 42.2267C43.6318 30.4707 53.1974 20.8101 64.8666 20.8101Z" fill="#EE7D00"/>
<path d="M64.8665 64.0956C52.9649 64.0956 42.9121 54.082 42.9121 42.2267C42.9121 30.0186 52.7656 20.0933 64.8665 20.0933C77.045 20.0933 86.9538 30.0186 86.9538 42.2267C86.9538 54.2805 77.045 64.0956 64.8665 64.0956ZM64.8665 21.5269C53.5516 21.5269 44.3514 30.8126 44.3514 42.2157C44.3514 53.288 53.7509 62.6509 64.8665 62.6509C76.2478 62.6509 85.5145 53.4865 85.5145 42.2157C85.5145 30.8126 76.2478 21.5269 64.8665 21.5269Z" fill="white"/>
<path fill-rule="evenodd" clip-rule="evenodd" d="M29.2168 66.8967C36.2914 79.0387 49.6655 87.1333 64.8664 87.1333C80.0673 87.1333 93.7072 78.785 100.782 66.7754L92.135 61.9451C84.1416 72.5211 75.7495 76.3037 64.8664 75.9177C53.7287 75.9177 44.0191 71.3521 37.8635 62.0774L29.2168 66.8967Z" fill="#005834"/>
<path fill-rule="evenodd" clip-rule="evenodd" d="M34.8525 76.3037C52.8102 92.6254 80.8649 91.0594 97.3833 73.5577L89.3898 66.7644C75.8828 78.7741 55.4452 79.8217 42.3367 68.1981L34.8525 76.3037Z" fill="#009540"/>
<path d="M64.5346 88.1811C53.7512 88.1811 42.9788 84.3874 34.5092 76.6898L34.1328 76.3479L42.2924 67.5034L42.6688 67.8342C55.4451 79.1711 75.3845 78.5536 89.0465 66.4005L89.3786 66.1028L98.125 73.5247L97.7596 73.9107C88.814 83.3729 76.6577 88.1811 64.5346 88.1811ZM35.5721 76.2707C53.0426 91.7763 80.2116 90.5853 96.6304 73.6019L89.3897 67.4482C75.4841 79.5461 55.4451 80.1637 42.3588 68.926L35.5721 76.2707Z" fill="#005834"/>
<path fill-rule="evenodd" clip-rule="evenodd" d="M92.3904 48.2261V47.7077C92.5343 47.7298 92.6782 47.6747 92.7779 47.5754C92.8443 47.5092 92.8997 47.41 92.9107 47.3107C92.9107 47.046 92.9107 46.9247 92.5233 46.7924C92.3904 46.6601 92.0029 46.6601 91.4715 46.7924V46.3954C92.1247 46.1307 92.6561 46.0094 93.0436 46.1307C93.564 46.2631 93.6968 46.649 93.564 47.1784V47.3107C93.4311 47.5754 93.2982 47.829 93.0436 47.9614C92.8665 48.1378 92.634 48.2261 92.3904 48.2261ZM90.5636 47.5754L90.6965 46.5277L89.9104 46.3954C89.6447 46.3954 89.6447 46.2631 89.6447 46.0094L89.9104 44.7081V44.3221C89.9104 44.1898 89.6447 44.0574 89.5229 44.0574C89.4011 44.0574 89.2572 44.1898 89.1354 44.5757C89.1244 44.7632 89.1686 44.9397 89.2683 45.0941V45.7447C89.2683 46.0094 89.1354 46.1307 88.7479 46.3954C88.4822 46.5277 88.0947 46.6601 87.9619 46.5277C87.5744 46.5277 87.4415 46.2631 87.1758 45.8771C87.043 45.6124 87.043 45.2264 87.043 44.8294C87.1758 44.4324 87.4305 44.0464 87.6962 43.6604C87.829 43.3957 88.3494 42.8774 88.8808 42.4804L89.0136 42.8664C88.3604 43.3847 87.829 44.0464 87.829 44.8294C87.6962 45.0941 87.6962 45.3477 87.829 45.4801C87.9287 45.7116 88.1169 45.8991 88.3494 45.9984C88.4822 45.9984 88.4822 45.866 88.4822 45.7337C88.6151 45.7337 88.4822 45.469 88.4822 45.2154V44.6971C88.4822 44.3111 88.7479 44.0464 89.0026 43.7817C89.2351 43.4398 89.6336 43.2413 90.0544 43.2634C90.3201 43.3957 90.4418 43.5281 90.4418 43.7817C90.5747 44.0464 90.5747 44.3 90.5747 44.6971L90.4418 45.4801L90.8293 45.6124L91.2168 42.7451L92.0029 42.3591L91.3497 47.1894L90.5636 47.5754ZM92.1358 41.4438V41.1791C93.3204 40.3961 93.8407 39.7454 93.8407 39.0948V38.8301L94.6268 38.4441C94.7264 38.5434 94.7707 38.6867 94.7597 38.8301C94.7597 39.3484 94.3722 39.8778 93.7079 40.3961C93.3093 40.7931 92.789 41.0467 92.1358 41.4438ZM91.3497 42.7451L91.4826 41.5761H87.5522L88.0726 40.6608L91.6154 40.5284V39.8778L92.4015 39.3594L92.014 42.3591L91.3497 42.7451ZM91.3497 37.1317L90.9622 34.5181L91.4826 33.9998L92.4015 39.3484L91.6154 39.8667V38.6867L87.8069 39.3374L88.0726 38.2897L91.4826 37.7714L91.3497 37.1317ZM88.8587 36.8671L90.0433 36.3487C90.0433 36.0841 89.9104 35.9517 89.6447 35.8194H89.379C89.1133 35.8194 88.9915 35.9517 88.8587 36.0841C88.7258 36.2164 88.7258 36.4701 88.7258 36.6024C88.7258 36.7347 88.7258 36.8671 88.8587 36.8671ZM89.5119 37.7824L90.1651 37.6501C90.1651 37.5177 90.2979 37.2641 90.2979 37.1317V36.4811L88.9915 37.1317V37.2641C88.9915 37.3964 89.1244 37.5288 89.1244 37.6501C89.2461 37.6501 89.379 37.7824 89.5119 37.7824ZM88.8587 38.1794C88.4712 37.9147 88.3272 37.5288 88.2054 36.9994C88.0726 36.6134 88.2054 36.2164 88.3383 35.8194C88.604 35.3011 88.9915 35.0364 89.3901 35.0364C89.9104 34.9041 90.0433 35.0364 90.4418 35.4224C90.7076 35.6871 90.8293 36.073 90.9622 36.4701C91.0951 36.9884 90.8293 37.5177 90.5747 37.9037L88.8587 38.1794ZM89.8993 30.2171L89.379 29.3018L85.8362 31.0001L85.969 29.9524L88.9804 28.5188L88.5929 27.8681L89.1133 27.2174L90.1651 29.5664L89.8993 30.2171ZM88.7258 27.8681L88.3272 27.2174L84.9283 29.1694V28.1218L87.8069 26.4234L87.4194 25.6404L87.8069 24.8574L88.9915 27.2064L88.7258 27.8681ZM86.3676 24.8574C86.6333 24.5927 86.6333 24.3391 86.3676 24.0744C86.2348 23.9421 86.1019 23.6774 85.9801 23.6774C85.8251 23.5451 85.6037 23.5451 85.4598 23.6774C85.4598 23.9421 85.3269 24.0744 85.3269 24.3281C85.2162 24.4053 85.194 24.5597 85.2826 24.6699C85.2937 24.692 85.3158 24.703 85.3269 24.7141C85.3269 24.8464 85.5926 24.8464 85.8473 24.8464H86.3676V24.8574ZM86.3676 27.3388C86.1019 27.3388 85.7144 27.0741 85.4487 26.6881C85.2051 26.3462 85.0612 25.9382 85.0612 25.5081C84.408 24.9898 83.8766 24.8574 83.6219 25.1111C83.4891 25.1111 83.4891 25.3757 83.4891 25.5081V25.9051L83.6219 26.0374C83.7548 26.3021 83.8876 26.3021 84.1423 26.1698C84.2198 26.1036 84.2641 26.0043 84.2751 25.9051C84.408 25.7728 84.5408 25.7728 84.6626 26.0374C84.9283 26.1698 84.9283 26.4344 84.9283 26.6881C85.0612 26.9528 84.9283 27.0851 84.9283 27.2064C84.6626 27.3388 84.408 27.3388 84.2751 27.2064L83.7548 28.6401L83.3673 28.3754L83.7548 26.9417C83.6219 26.9417 83.4891 26.8094 83.3673 26.6771C83.1016 26.2911 82.9576 25.8389 82.9687 25.3757C82.9687 24.8574 82.9687 24.4604 83.3673 24.2068C83.5001 23.9421 83.7548 23.9421 84.1533 24.0744L84.9394 24.4714C84.9394 23.6884 84.9394 23.2914 85.0723 23.0378C85.338 22.7731 85.7255 22.7731 85.9912 22.7731C86.279 22.9054 86.5448 23.0819 86.7772 23.2914C87.043 23.5561 87.043 24.0744 87.043 24.5927C87.043 24.9898 86.9101 25.3757 86.5226 25.5081C86.2569 25.7728 85.8694 25.7728 85.4708 25.5081L85.6037 25.7728C85.7365 26.0374 85.9912 26.1698 86.2569 26.4234C86.3898 26.5558 86.9101 26.9417 87.043 26.9417L86.3676 27.3388ZM85.3158 22.1224L84.5298 21.4718L81.9059 24.2178L81.5184 23.1701L84.0094 20.8211L83.4891 20.4241L83.8766 19.7734L85.4487 21.3394L85.3158 22.1224ZM81.9059 19.8948C81.9059 19.7624 82.0387 19.6301 82.0387 19.4977C82.0387 19.2331 81.9059 19.1007 81.773 19.1007C81.6402 18.9684 81.5073 18.8361 81.3855 18.8361C81.2527 18.9684 81.1198 19.1007 80.998 19.2331C80.8762 19.3654 80.8652 19.6301 80.8652 19.8837C80.8762 20.0602 80.9205 20.2477 80.998 20.4131C81.1862 20.4241 81.3634 20.369 81.5184 20.2807L81.6512 20.1484L81.9059 19.8948ZM83.4891 20.4241L82.4373 19.5088C82.4373 20.1594 82.4373 20.5564 82.1716 20.8211C81.7841 21.3394 80.9869 21.4718 79.6805 21.3394L79.5477 22.6408L79.1602 22.5084V21.0748L79.0273 20.9424C78.6398 20.6778 78.6398 20.4241 78.7616 20.0271C78.7616 19.9609 78.817 19.8948 78.8834 19.8948C78.8834 19.8948 78.8834 19.8948 78.8945 19.8948C79.0273 19.6301 79.1602 19.6301 79.4148 19.7624C79.5477 19.8948 79.6805 20.0271 79.6805 20.2807C79.6805 20.4131 79.6805 20.4131 79.9462 20.5454C80.0127 20.6116 80.1123 20.6667 80.212 20.6778C80.4777 20.6778 80.5995 20.5454 80.7323 20.5454C79.9462 19.6301 79.9462 19.1118 80.0791 18.5824C80.212 18.4501 80.4777 18.3177 80.7323 18.1854L79.6805 17.4024L79.9462 16.8841L83.8766 19.7514L83.4891 20.4241ZM82.4373 17.2921C81.6512 16.5091 81.1309 15.9908 80.5994 15.8585C79.9462 15.4614 79.282 15.5938 78.8945 16.2444L78.507 15.9798C78.507 15.7151 78.6398 15.4504 78.6398 15.3291C78.9055 14.9321 79.1602 14.8108 79.5588 14.8108C79.9573 14.6784 80.0791 14.8108 80.4777 14.9431C81.2637 15.3401 81.9169 15.9908 82.4484 17.0274L82.4373 17.2921ZM79.6805 17.4134L78.7616 16.8951L77.0566 20.2918L76.4034 19.5088L77.9756 16.5091L77.4552 16.1121L77.1895 15.3291L80.068 16.7628L79.6805 17.4134ZM69.8492 15.1968V15.0644C69.7164 14.9321 69.5835 14.9321 69.4617 14.7998C69.3289 14.7998 69.196 14.6674 69.0632 14.6674C68.6757 14.5351 68.4099 14.6674 68.2771 15.0534C68.2771 15.3181 68.4099 15.4504 68.6646 15.4504H69.196C69.4506 15.4614 69.5835 15.3291 69.8492 15.1968ZM70.2367 13.6308C69.3178 13.3661 68.3989 13.1124 67.3582 13.1124L66.9707 12.3295C69.0631 12.5941 71.1667 13.1124 73.2592 13.5095L73.1263 14.1601L71.1556 13.7631L70.7571 14.9431H71.5431C71.8088 14.9431 72.0635 15.2078 72.1963 15.4614C72.462 15.7261 72.462 15.9908 72.462 16.2444C72.3292 16.7628 72.0745 17.0274 71.8088 17.2921L71.1556 16.7738C71.2885 16.6415 71.5431 16.5091 71.5431 16.3768C71.7535 16.2775 71.8974 16.079 71.9306 15.8585C71.9306 15.7261 71.9306 15.5938 71.6649 15.4614C71.5321 15.4614 71.0117 15.4614 70.6131 15.7261L70.2256 17.5568L69.4396 17.0274L69.7053 15.8585C69.3731 15.9908 68.9967 15.9908 68.6535 15.8585C68.3878 15.8585 68.1332 15.7261 67.8674 15.4614C67.7014 15.285 67.6128 15.0534 67.6017 14.8108C67.7346 14.5461 67.8675 14.2925 68.1221 14.1601C68.4099 14.0278 68.7421 14.0278 69.041 14.1601C69.4396 14.1601 69.6942 14.4248 69.9599 14.8108L70.2367 13.6308ZM63.8153 13.1124V14.6784H65.3875V15.3291H63.8153V15.7261C63.8153 15.8585 63.8153 15.9908 63.6825 15.9908C63.5828 15.9798 63.4943 15.9357 63.4168 15.8585L62.4979 14.9431C62.365 14.9431 62.365 14.9431 62.365 14.8108C62.4757 14.7226 62.6196 14.6784 62.7636 14.6784H62.8964V13.1124H61.9775L61.59 12.3295H66.9596L67.3471 13.1124H66.2953V16.9061L65.3764 16.3878V13.1235H63.8153V13.1124ZM64.0811 11.5465C63.3061 11.359 62.52 11.2707 61.7229 11.2818C60.9368 11.4141 60.5382 11.8001 60.5382 12.5831L60.1507 12.7154C60.0179 12.4508 59.885 12.3295 59.885 12.0648C59.7522 11.6788 59.885 11.4141 60.1507 11.1494C60.4386 10.8848 60.815 10.7524 61.2025 10.7635C61.9886 10.6311 62.9075 10.7635 64.0811 11.2818V11.5465ZM61.9886 13.1124L60.8039 13.2448L61.59 17.1598L60.4054 16.7628L60.0179 13.3661L59.2318 13.4984L58.5786 13.1014L61.59 12.4508L61.9886 13.1124ZM55.8219 14.5461C55.9547 14.5461 56.2094 14.6784 56.4751 14.8108C56.6079 14.9431 56.7408 15.2078 56.8626 15.3291C56.8626 15.4614 56.7297 15.5938 56.5969 15.7261L56.0765 16.1231C55.8108 16.2555 55.8108 16.3878 55.8108 16.5201C55.9436 16.6525 56.0765 16.7848 56.5969 16.6525C57.0508 16.4871 57.4493 16.2224 57.7815 15.8695L57.2611 14.1712L55.8219 14.5461ZM58.18 16.7628C57.7926 16.8951 57.5268 17.1598 57.2611 17.1598C56.4751 17.4245 55.689 17.1598 55.0358 16.3768L54.7701 15.9798L55.8219 15.3291C55.9547 15.3291 55.9547 15.1968 55.9547 15.0644L55.689 14.7998C55.689 14.6674 55.4233 14.6674 55.3015 14.6674L54.2497 15.0534L53.5965 14.5351L58.5786 13.1014L59.2318 13.6197L58.18 13.8844L59.2318 17.5458L58.3129 17.2811L58.18 16.7628ZM52.8105 15.9798C52.6776 15.8474 52.5448 15.8474 52.2901 15.9798C52.1573 15.9798 52.1573 16.1121 52.0244 16.1121C52.0244 16.2444 51.8915 16.3768 52.0244 16.5091C52.1573 16.6415 52.2901 16.6415 52.5448 16.5091C52.8105 16.3658 52.9433 16.2334 52.8105 15.9798ZM55.689 17.5458C55.3015 17.9428 54.9029 18.3288 54.5044 18.4611C54.1169 18.7258 53.7183 18.8581 53.198 18.7258C52.6776 18.7258 52.4119 18.5934 52.1462 18.2075C52.0133 17.9428 52.1462 17.6891 52.4119 17.2921C51.8915 17.4245 51.493 17.2921 51.3601 16.8951C51.2273 16.6525 51.2273 16.3547 51.3601 16.1121C51.4598 15.8805 51.648 15.693 51.8915 15.5938C52.1573 15.4614 52.4119 15.4614 52.6776 15.4614C52.9212 15.4614 53.1537 15.5607 53.3308 15.7261C53.4637 16.1231 53.3308 16.3768 52.6776 16.7738L52.9433 16.9061L53.5965 16.5091L54.2497 17.0274L53.5965 17.2921C53.209 17.6891 52.8105 17.9428 52.9433 18.2075C52.9433 18.3398 53.209 18.3398 53.3308 18.3398C53.4305 18.2405 53.5855 18.1964 53.7294 18.2075C54.3383 17.8546 54.7922 17.2921 55.0358 16.6415L55.689 17.5458ZM50.8398 16.8951L50.0537 17.4134L52.279 20.5454L51.2273 20.6778L49.2566 17.9317L48.6034 18.4501L47.8173 18.1854L50.0426 16.4871L50.8398 16.8951ZM45.8577 20.8211L47.0423 22.1224L48.2269 20.9424L48.7473 21.4608L47.4409 22.5084L47.7066 22.7731C47.7066 22.9054 47.8394 23.0378 47.7066 23.1701C47.5737 23.1701 47.5737 23.3025 47.4409 23.3025L46.1234 23.1701H45.9905C45.9905 23.0378 45.9905 23.0378 46.1234 22.9054L46.3891 22.6408L45.2155 21.4608L44.5623 22.1114L43.7763 21.8578L47.8394 18.1964L48.6255 18.4611L47.8394 19.1118L50.4633 21.9791L49.4116 22.2438L47.1862 19.7624L45.8577 20.8211ZM40.2224 29.3018C40.4881 29.0371 40.621 29.0371 40.8756 28.9048H41.5288C41.6617 29.0371 41.7945 29.1694 41.7945 29.4341L41.6617 30.0848C41.5288 30.2171 41.6617 30.3494 41.6617 30.4818C41.9274 30.4818 42.182 30.3494 42.3149 29.9635C42.5806 29.5775 42.5806 29.0481 42.5806 28.5298L41.0084 27.7468L40.2224 29.3018ZM43.3666 28.9048C43.3666 29.3018 43.3666 29.5554 43.2338 29.8201C42.8352 30.6031 42.182 30.9891 41.1302 30.9891H40.6099L40.8756 29.8201C40.8977 29.6767 40.8424 29.5334 40.7427 29.4231H40.3442C40.2113 29.5554 40.0785 29.5554 40.0785 29.6877L39.547 30.7354L38.761 30.8678L40.9974 26.1587L41.7834 26.0264L41.2631 26.9417L44.8059 28.5077L44.0198 29.1584L43.3666 28.9048ZM38.5174 31.9154L38.3845 32.3014C37.986 32.1691 37.7313 32.3014 37.4656 32.4338C37.3328 32.5661 36.9453 32.8308 36.6796 33.0844V33.7351C36.9453 34.1321 37.0781 34.2534 37.3328 34.2534L37.0671 34.7717C36.9342 34.9041 36.5467 34.9041 36.4139 34.7717C36.1481 34.7717 36.0153 34.507 35.8824 34.2534C35.8824 33.8564 35.8824 33.6027 36.0153 33.3381C36.1481 32.8197 36.4139 32.2904 37.0671 32.0367C37.4767 31.7831 37.9971 31.7831 38.5174 31.9154ZM39.5692 30.7354L39.3035 31.9154L42.9681 33.0954L42.3149 33.7461L39.0378 32.8308L38.9049 33.4814L38.1299 33.7461L38.7831 30.8678L39.5692 30.7354ZM42.3259 35.5658L43.2449 37.2641L42.8463 37.6501L41.9274 35.6871L42.3259 35.5658ZM38.916 33.4814L38.5285 34.6504L39.8349 34.9151V36.0841C39.5692 36.9994 39.8349 37.3854 40.3552 37.5177C40.621 37.5177 40.8756 37.5177 41.0084 37.2531C41.1745 37.0766 41.2631 36.845 41.2742 36.6024V36.0841H41.1413C41.0417 36.1833 40.8977 36.2274 40.7538 36.2164L40.621 36.0841C40.4881 35.9517 40.4881 35.9517 40.4881 35.8194C40.621 35.5547 40.7538 35.3011 40.8867 35.1687C41.1524 34.9041 41.2742 34.7828 41.5399 34.7828C41.6727 34.7828 41.8056 35.0474 41.9384 35.3011L43.2449 34.6504V35.0364L41.9384 35.6871V36.3377C41.8056 36.856 41.5399 37.3854 41.1524 37.639C40.7649 38.0361 40.2335 38.1574 39.846 38.0361C39.4474 38.0361 39.1928 37.9037 39.0599 37.639C38.927 37.3744 38.927 37.1207 38.927 36.856L39.0599 35.676L38.4067 35.5437L38.0192 38.025L37.366 38.411L38.1521 33.713L38.916 33.4814ZM40.0895 38.1794V39.4807H40.477C40.621 39.4918 40.7317 39.6021 40.7427 39.7454C40.7427 39.8778 40.7427 39.8778 40.6099 39.8778L39.9567 40.7931H39.8238C39.4253 40.7931 39.4253 40.6608 39.4253 40.4071V38.0471L40.0895 38.1794ZM38.1299 38.0581V40.9254L37.4767 41.4438L37.3438 38.4441L38.1299 38.0581ZM37.5985 42.3591V42.7451C36.5467 43.6604 36.0264 44.4434 36.0264 44.9617C36.0042 45.1051 36.0596 45.2485 36.1592 45.3587L35.3732 45.8771C35.2403 45.7447 35.2403 45.6124 35.2403 45.3587C35.1074 44.9617 35.3732 44.3111 36.0264 43.6604C36.4249 43.2744 37.0781 42.8774 37.5985 42.3591ZM41.6727 43.0097C41.6727 43.0097 39.8349 41.5761 39.8349 42.6238C39.8349 42.8884 40.1006 43.1421 40.4881 43.4068L42.3259 43.1421L42.1931 44.1787L40.8867 44.3111C41.1524 44.5978 41.2852 44.9728 41.2852 45.3587C41.4181 45.6234 41.2852 45.8771 41.1524 46.1417C41.0195 46.4064 40.8867 46.5388 40.632 46.5388C40.3663 46.6711 40.1117 46.5388 39.846 46.2741C39.846 46.1417 39.5802 45.8881 39.4474 45.6234C39.4474 45.1051 39.5803 44.8404 39.846 44.4434L38.6613 44.7081L38.927 47.1894L38.4067 47.7077L37.4878 41.4438L38.141 40.9254L38.5395 43.7927L39.846 43.5281C39.6356 43.4288 39.4917 43.2303 39.4474 43.0097C39.3145 42.6238 39.4474 42.3591 39.5803 42.0944C40.3663 41.1791 42.2042 42.0944 41.9384 42.4804L41.6727 43.0097ZM40.2335 44.4434H40.1006C40.1006 44.5757 39.9677 44.7081 39.9677 44.8404V45.3587C40.1006 45.7447 40.2335 45.8771 40.621 45.8771C40.8867 45.8771 40.8867 45.7447 40.8867 45.4911C40.8867 45.2374 40.7538 45.1051 40.621 44.8404C40.621 44.7081 40.4881 44.5757 40.2335 44.4434Z" fill="#1D1D1B"/>
<path fill-rule="evenodd" clip-rule="evenodd" d="M91.8701 48.1048L92.003 47.5865C92.1358 47.5865 92.3905 47.5865 92.3905 47.4541C92.4015 47.3549 92.4458 47.2556 92.5233 47.1895C92.5233 46.9248 92.3905 46.8035 92.1358 46.6712C91.8812 46.5388 91.6044 46.5388 91.0841 46.6712L90.9512 46.2852C91.7373 46.0205 92.3905 45.8992 92.6562 46.0205C93.0437 46.1528 93.3094 46.5498 93.1765 47.0682V47.2005C93.0437 47.4652 92.9108 47.7188 92.6562 47.8512C92.4015 47.9835 92.1358 48.1048 91.8701 48.1048ZM90.1651 47.4431L90.298 46.3954L89.5119 46.2631C89.2462 46.2631 89.1244 46.1308 89.2462 45.8771L89.3791 44.5758V44.1898C89.2462 44.0575 89.2462 43.9141 89.1134 43.9141C88.8476 43.9141 88.8476 44.0464 88.7259 44.4324C88.7148 44.6199 88.7702 44.7964 88.8587 44.9508V45.6014C88.8587 45.8661 88.593 45.9874 88.3273 46.2521C87.9398 46.3844 87.6741 46.5168 87.4084 46.3844C87.1427 46.3844 86.888 46.1197 86.7552 45.7338C86.6223 45.4691 86.6223 45.0831 86.6223 44.6861C86.7441 44.267 86.9212 43.881 87.1537 43.5171C87.4194 43.2524 87.8069 42.7341 88.4602 42.3371L88.593 42.6018C87.8069 43.2524 87.4084 43.9031 87.4084 44.6861V45.3367C87.4084 45.6014 87.6741 45.7227 87.7959 45.8551C87.9398 45.844 88.0505 45.7338 88.0616 45.5904V44.5537C88.0505 44.2119 88.1944 43.87 88.4602 43.6384C88.8476 43.2524 89.2462 43.1201 89.5119 43.1201C89.8994 43.1201 89.8994 43.3848 90.0434 43.6384C90.1762 43.881 90.1762 44.1788 90.0434 44.4214L89.9105 45.3367L90.4419 45.4691L90.8294 42.6018L91.6155 42.2158L90.9623 47.0461L90.1651 47.4431ZM91.7373 41.3115V41.0468C92.789 40.2638 93.4422 39.6131 93.4422 38.9625C93.4422 38.8301 93.4422 38.8301 93.3094 38.6978L94.0955 38.3118C94.2283 38.4442 94.3612 38.5765 94.3612 38.6978C94.2283 39.2161 93.9737 39.7455 93.3094 40.2638C92.8112 40.6498 92.2798 40.9917 91.7373 41.3115ZM90.9512 42.6128L91.0841 41.4438H87.1537L87.6741 40.5285L91.0841 40.3961L91.2169 39.7455L91.8701 39.2272L91.6044 42.2268L90.9512 42.6128ZM90.9512 36.9995L90.5637 34.3858L91.0841 33.8675L91.8701 39.2161L91.2169 39.7344V38.5655L87.4195 39.2161L87.6852 38.1685L91.0951 37.6501L90.9512 36.9995ZM88.4602 36.7458L89.6448 36.2165C89.6448 35.9518 89.5119 35.8305 89.2573 35.6981H88.8698C88.7369 35.6981 88.6041 35.8305 88.4823 35.9628C88.3605 36.0952 88.3494 36.3598 88.3494 36.4811C88.3494 36.6025 88.3273 36.7458 88.4602 36.7458ZM89.1134 37.6501L89.8994 37.5178V36.3488L88.593 36.9995V37.1318C88.5709 37.2752 88.6262 37.4185 88.7259 37.5178C88.8587 37.5178 88.9916 37.6501 89.1134 37.6501ZM88.4602 38.0471C88.0505 37.7935 87.8069 37.3524 87.8069 36.8782C87.6741 36.4811 87.8069 36.0952 87.9398 35.6981C88.2055 35.1798 88.4602 34.9151 88.8587 34.9151C89.2462 34.7828 89.6448 34.9151 90.0434 35.3011C90.3091 35.5658 90.4308 35.9518 90.5637 36.3488C90.5637 36.8671 90.4309 37.3965 90.0434 37.7825L88.4602 38.0471ZM89.3791 30.0848L88.9916 29.1695L85.4488 30.8678V29.8201L88.593 28.3865L88.1944 27.7358L88.593 27.0852L89.8994 29.4342L89.3791 30.0848ZM88.1944 27.7358L87.7959 27.0852L84.5188 29.0482L84.3859 28.0005L87.3973 26.3022L87.0098 25.5192L87.3973 24.7362L88.5819 27.0852L88.1944 27.7358ZM85.8363 24.5928C86.102 24.4605 86.102 24.1958 85.9691 23.9421C85.8363 23.6885 85.7034 23.5451 85.5816 23.5451C85.3159 23.4128 85.1941 23.4128 85.0613 23.5451C84.9284 23.6775 84.9284 23.9421 84.9284 24.0745V24.5928C84.9284 24.7251 85.0613 24.7251 85.327 24.7251C85.5927 24.7251 85.8363 24.7251 85.8363 24.5928ZM85.9691 27.2065C85.7034 27.2065 85.3159 26.9418 85.0502 26.5558C84.9173 26.1588 84.6516 25.7728 84.6516 25.3758C83.8656 24.8575 83.4781 24.7251 83.2124 24.9788C83.0795 24.9788 82.9466 25.2435 82.9466 25.3758C82.9577 25.4751 83.002 25.5633 83.0795 25.6405C83.0795 25.7728 83.0795 25.9052 83.2124 25.9052C83.3452 26.1698 83.4781 26.1698 83.7327 26.0375C83.7438 25.9382 83.7881 25.85 83.8656 25.7728C83.9984 25.6405 84.1313 25.6405 84.2531 25.9052C84.4191 26.0816 84.5077 26.3132 84.5188 26.5558C84.5188 26.8205 84.5188 26.9528 84.3859 27.0741C84.2531 27.1954 83.9984 27.2065 83.7327 27.0741L83.2124 28.5078L82.8138 28.2541L83.3341 26.8205C83.2013 26.8205 83.0684 26.6882 82.9356 26.5558C82.6699 26.1698 82.537 25.7177 82.5481 25.2435C82.4152 24.7251 82.5481 24.3281 82.8138 24.0745C83.0795 23.6775 83.3341 23.6775 83.7327 23.9421C83.9984 24.0745 84.2531 24.2068 84.5188 24.3392C84.2531 23.5562 84.3859 23.0378 84.6516 22.9055C84.9173 22.6408 85.183 22.6408 85.5705 22.6408C85.8584 22.7732 86.1241 22.9496 86.3566 23.1591C86.5337 23.5672 86.6223 24.0193 86.6223 24.4715C86.6223 24.8575 86.3566 25.2545 86.102 25.3868C85.8363 25.6515 85.4488 25.6515 85.0502 25.3868L85.183 25.6515C85.3159 25.9162 85.4488 26.0485 85.7034 26.3022C85.9691 26.4345 86.4895 26.8205 86.6223 26.8205L85.9691 27.2065ZM84.9284 21.9902L84.1423 21.3395L81.3856 24.0855L81.1199 23.0378L83.4781 20.6888L83.0795 20.2918L83.4781 19.6412L85.0502 21.2072L84.9284 21.9902ZM81.3856 19.7625C81.4852 19.6632 81.5406 19.5199 81.5184 19.3655C81.5184 19.1008 81.5184 18.9684 81.3856 18.8471C81.2527 18.7148 80.9981 18.7148 80.8652 18.7148C80.7324 18.8471 80.5995 18.9795 80.4777 19.1118C80.3449 19.2442 80.3449 19.5088 80.4777 19.7625C80.4777 20.0272 80.6106 20.1595 80.6106 20.2808C80.7988 20.2808 80.976 20.2367 81.1309 20.1485L81.2638 20.0161C81.3856 19.8948 81.3856 19.8948 81.3856 19.7625ZM83.0906 20.1595L82.0388 19.3765C82.0388 19.8948 81.9059 20.4242 81.6402 20.6778C81.3745 21.1961 80.4556 21.3285 79.271 21.1961L79.1381 22.4975L78.7506 22.3651V20.9315L78.6178 20.7991C78.2303 20.5344 78.0974 20.2698 78.352 19.8838V19.7514C78.6178 19.4868 78.7395 19.4868 79.0053 19.6191C79.1381 19.7514 79.1381 19.8838 79.271 20.1374V20.4021H80.1899C79.5367 19.4868 79.4038 18.8361 79.6695 18.4391C79.9352 18.3068 79.9352 18.1744 80.1899 18.0421L79.271 17.2591L79.5367 16.7408L83.467 19.6191L83.0906 20.1595ZM81.9059 17.1598C81.2527 16.3768 80.7213 15.8475 80.201 15.7262C79.4149 15.3292 78.8835 15.4615 78.496 16.1232L78.1085 15.8585C78.1085 15.5938 78.1085 15.3402 78.2413 15.2079C78.3742 14.8108 78.6288 14.6895 79.0274 14.5572C79.4149 14.5572 79.6806 14.6895 80.0792 14.8219C80.7324 15.2189 81.3856 15.8695 82.0499 16.9172L81.9059 17.1598ZM79.282 17.2922L78.3631 16.7738L76.5253 20.1705L75.9939 19.3875L77.566 16.3879L76.9128 15.9908L76.7799 15.2079L79.5367 16.6415L79.282 17.2922ZM69.3179 15.0645L69.4507 14.9321C69.3179 14.7998 69.185 14.7998 69.0521 14.6675C68.9304 14.6013 68.7975 14.5572 68.6646 14.5351C68.2661 14.4028 68.0114 14.5351 67.8786 14.9321C67.8786 15.1968 68.0114 15.1968 68.1443 15.3292H68.7975C69.0632 15.3292 69.1961 15.1968 69.3179 15.0645ZM69.7054 13.4985C68.7864 13.2338 67.8675 12.9802 66.9486 12.9802L66.5611 12.1972C68.6646 12.4618 70.6353 12.9802 72.8607 13.3772L72.7278 14.0278L70.6243 13.6308L70.3696 14.7998H71.0228C71.2885 14.7998 71.5432 15.0645 71.8089 15.3181C71.9418 15.5828 72.0746 15.8365 71.9418 16.1011C71.9418 16.6195 71.676 16.8841 71.2886 17.1488L70.7682 16.6195L71.1668 16.2224C71.2996 15.9578 71.5543 15.8254 71.5543 15.7041C71.5543 15.5718 71.5543 15.4394 71.2886 15.3071C70.9232 15.285 70.5578 15.3733 70.2368 15.5718L69.8493 17.4025L69.0632 16.8841L69.3289 15.7041C69.0632 15.8365 68.5429 15.8365 68.1443 15.7041C67.8675 15.7041 67.6129 15.5608 67.4911 15.3071C67.2254 15.1748 67.2254 14.9101 67.2254 14.6564C67.3582 14.3918 67.4911 14.1381 67.7457 14.0058C68.0114 13.8734 68.2661 13.8734 68.6646 14.0058C69.0521 14.0058 69.3179 14.2705 69.4507 14.6564L69.7054 13.4985ZM63.4169 12.9802V14.5462H65V15.1968H63.4279V15.5938C63.4168 15.7372 63.3061 15.8475 63.1622 15.8585L63.0294 15.7262L61.9776 14.8108V14.6785C62.044 14.6123 62.1436 14.5572 62.2433 14.5462H62.509V12.9802H61.5901L61.0697 12.1972H66.5722L66.9597 12.9802H65.919V16.7628L65 16.2335V12.9691H63.4169V12.9802ZM63.5608 11.4142C62.8301 11.2157 62.0883 11.1274 61.3354 11.1495C60.5494 11.2818 60.1508 11.6678 60.1508 12.4508H59.7633C59.6305 12.3185 59.4976 12.1861 59.4976 11.9325C59.3647 11.5355 59.4976 11.2818 59.7633 11.0172C59.9958 10.7635 60.328 10.6201 60.6822 10.6201C61.6012 10.4878 62.5201 10.6201 63.5608 11.1385V11.4142ZM61.5901 12.9802L60.4055 13.1125L60.9369 17.0275L60.018 16.6305L59.4976 13.2338L58.8444 13.3662L58.1912 12.9691L61.0697 12.3185L61.5901 12.9802ZM55.3016 14.4138C55.6891 14.4138 55.8219 14.5462 55.9548 14.6785C56.1651 14.7778 56.3091 14.9763 56.3423 15.1968C56.4751 15.3292 56.3423 15.4615 56.2094 15.5938L55.6891 15.9908C55.4234 16.1232 55.4234 16.2555 55.4234 16.2555C55.4234 16.5202 55.6891 16.6525 56.0766 16.5202C56.5748 16.3879 57.0398 16.1232 57.383 15.7372L56.8626 14.0389L55.3016 14.4138ZM57.6598 16.6305C57.3941 16.7628 57.1283 17.0275 56.7409 17.0275C56.0876 17.2922 55.3016 17.0275 54.6484 16.2445L54.2609 15.8475L55.3127 15.1968C55.4455 15.1968 55.7001 15.0645 55.4455 14.9321C55.4455 14.7998 55.4455 14.7998 55.3127 14.6675C55.213 14.5682 55.058 14.5131 54.9141 14.5351L53.7295 14.7998L53.2091 14.2815L58.1912 12.9802L58.7115 13.4985L57.7926 13.7632L58.8444 17.4245L57.7926 17.1598L57.6598 16.6305ZM52.412 15.8475C52.2791 15.7151 52.1463 15.7151 51.8916 15.8475C51.792 15.8585 51.7034 15.9026 51.6259 15.9798C51.5152 16.057 51.493 16.2114 51.5816 16.3217C51.5927 16.3438 51.6148 16.3548 51.6259 16.3658C51.7588 16.4981 51.8916 16.4981 52.1463 16.3658C52.412 16.2445 52.5448 16.1122 52.412 15.8475ZM55.0359 17.4135C54.7702 17.8105 54.5155 18.1965 53.9841 18.3288C53.7184 18.5935 53.198 18.5935 52.7995 18.5935C52.2791 18.5935 52.0134 18.4612 51.7477 18.0752C51.6148 17.8105 51.7477 17.5568 52.0134 17.1598C51.3602 17.2922 51.0945 17.1598 50.8288 16.7628C50.6738 16.5092 50.7291 16.1783 50.9616 15.9798C51.0613 15.7482 51.2495 15.5608 51.482 15.4505C51.7477 15.3181 52.0023 15.3181 52.268 15.3181C52.5338 15.3181 52.7884 15.4505 52.7884 15.5828C53.1759 15.9798 52.7884 16.2335 52.268 16.6305L52.4009 16.7628L53.187 16.3658L53.8402 16.8952L53.187 17.1598C52.5338 17.5568 52.4009 17.8105 52.5338 18.0752C52.5338 18.2075 52.6666 18.2075 52.9212 18.2075C53.187 18.0752 53.187 18.0752 53.3087 17.9428C53.9066 17.634 54.3716 17.1267 54.6152 16.5092L55.0359 17.4135ZM50.4523 16.7628L49.5334 17.2811L51.8916 20.4131L50.8398 20.5455L48.8691 17.7995L48.2159 18.3288L47.4299 18.0641L49.6552 16.3658L50.4523 16.7628ZM45.4703 20.6778L46.522 21.9791L47.8395 20.8101L48.2381 21.3285L47.0535 22.3761L47.1863 22.6408C47.297 22.718 47.3192 22.8724 47.2306 22.9827C47.2195 23.0047 47.1974 23.0158 47.1863 23.0268H45.747C45.4813 22.8945 45.747 22.8945 45.747 22.7621L45.8799 22.4975L44.8281 21.3174L44.0421 21.9681L43.256 21.7034L47.452 18.0421L48.2381 18.3068L47.452 18.9574L49.9431 21.8247L49.0241 22.0894L46.7877 19.6301L45.4703 20.6778ZM39.835 29.1695C39.9678 28.9048 40.2335 28.9048 40.4882 28.7725H41.1414C41.2742 28.9048 41.4071 29.0371 41.2742 29.2908L41.1414 29.8091C41.1414 30.0738 41.1414 30.2061 41.2742 30.3274C41.5399 30.3274 41.7946 30.1951 41.9274 29.8091C42.1931 29.4231 42.1931 28.8938 42.1931 28.3755L40.4882 27.5925L39.835 29.1695ZM42.9792 28.7835C42.9681 29.1033 42.8796 29.4231 42.7135 29.6988C42.4478 30.4818 41.7946 30.8678 40.7428 30.8678H40.2225L40.4882 29.6878C40.5103 29.5444 40.455 29.4011 40.3553 29.3018H39.9678C39.835 29.4342 39.835 29.4342 39.835 29.5665L39.1818 30.6142L38.3957 30.7465L40.4882 26.0485L41.4071 25.9162L40.8867 26.8315L44.4296 28.3975L43.6435 29.0482L42.9792 28.7835ZM38.13 31.7832L37.9971 32.1691C37.5986 32.0368 37.3439 32.1691 37.0782 32.3015C36.6907 32.4338 36.425 32.5662 36.2921 32.9521V33.6028C36.425 33.8675 36.5579 34.1211 36.6907 34.1211L36.5579 34.6394C36.4029 34.7718 36.1814 34.7718 36.0375 34.6394C35.7718 34.6394 35.5171 34.3748 35.5171 33.9888C35.3843 33.7241 35.5171 33.4705 35.5171 33.2058C35.7829 32.6875 36.0375 32.1581 36.5689 31.9045C37.0782 31.6508 37.4768 31.6508 38.13 31.7832ZM39.1707 30.6142L38.905 31.7832L42.5696 32.8308L41.7835 33.6138L38.6393 32.6985L38.3735 33.3491L37.5875 33.4815L38.3735 30.7355L39.1707 30.6142ZM41.9274 35.4445L42.7135 37.1428L42.4478 37.5288L41.5289 35.5658L41.9274 35.4445ZM38.3846 33.3491L38.1189 34.5181L39.2925 34.7828H39.4253V35.0475L39.2925 35.9628C39.1596 36.8782 39.2925 37.2641 39.9457 37.3965C40.2114 37.3965 40.3332 37.3965 40.5989 37.1318C40.7317 36.8671 40.8646 36.7458 40.8646 36.4811V35.9628H40.5989C40.5989 36.0952 40.466 36.0952 40.3332 36.0952C40.2667 36.0952 40.2003 36.04 40.2003 35.9739C40.0675 35.8415 40.0675 35.8415 40.0675 35.7092C40.0675 35.4335 40.2114 35.1798 40.466 35.0585C40.5878 34.8159 40.8424 34.6615 41.1192 34.6725C41.2521 34.6725 41.3849 34.9372 41.3849 35.1909L42.5585 34.5402L42.8242 34.9372L41.5178 35.5879V36.2385C41.3849 36.7679 41.1192 37.2862 40.7317 37.5509C40.3553 37.9258 39.8128 38.0802 39.2925 37.9369C39.0157 37.9369 38.761 37.7825 38.6393 37.5398C38.5064 37.2752 38.3735 37.0215 38.5064 36.7568L38.6393 35.5879L37.9861 35.4555L37.5875 37.9369L36.6686 38.3228L37.5875 33.6249L38.3846 33.3491ZM39.8239 38.0582V39.3595H40.0896C40.2335 39.3705 40.3442 39.4808 40.3553 39.6242L40.2225 39.7565L39.4364 40.6718H39.3035C39.0378 40.6718 38.905 40.5395 38.916 40.2859V37.9369L39.8239 38.0582ZM37.5986 37.9258L37.7314 40.7931L37.0782 41.3115L36.6907 38.3118L37.5986 37.9258ZM37.3328 42.2268V42.6128C36.0264 43.5281 35.495 44.3111 35.6279 44.8294C35.6057 44.9728 35.6611 45.1162 35.7607 45.2154L34.9747 45.7338C34.8418 45.6014 34.8418 45.4691 34.8418 45.2154C34.8418 44.8294 34.9747 44.1678 35.6279 43.5171C35.8936 43.1421 36.425 42.7451 37.3328 42.2268ZM41.1303 42.8885C41.2632 42.8885 39.4253 41.4548 39.4253 42.5025C39.4253 42.7672 39.8239 43.0208 39.9457 43.2855L41.9164 43.0208L41.7835 44.0685L40.3442 44.2008C40.61 44.4655 40.8646 44.8515 40.8646 45.2485C40.8646 45.5132 40.8646 45.7668 40.7317 46.0315C40.5989 46.2962 40.466 46.4175 40.0785 46.4175C39.8128 46.5498 39.5471 46.4175 39.4253 46.1528C39.1818 46.0315 39.0268 45.7779 39.0268 45.5022C39.0268 44.9838 39.0268 44.7192 39.4253 44.3222L38.1189 44.5868L38.5064 46.9358L37.8532 47.5865L37.0671 41.3225L37.7203 40.8042L37.9861 43.5502L39.2925 43.4178C39.0268 43.2855 39.0268 43.0208 38.8939 42.8995C38.905 42.5797 38.9935 42.2599 39.1596 41.9842C39.9457 41.0689 41.6507 41.9842 41.5178 42.3702L41.1303 42.8885ZM39.8239 44.3222C39.5582 44.4545 39.5582 44.5868 39.5582 44.7081V45.2265C39.5582 45.6124 39.8239 45.7448 40.2114 45.7448C40.3442 45.7448 40.4771 45.6124 40.4771 45.3588C40.3442 45.0941 40.3442 44.9618 40.2114 44.7081L39.8239 44.3222Z" fill="#E20613"/>
<path fill-rule="evenodd" clip-rule="evenodd" d="M73.2591 66.3783H72.9934C72.7277 66.1137 72.4731 65.86 72.2074 65.7277C71.9416 65.463 71.5542 65.463 71.1556 65.463C71.0227 65.5953 70.757 65.7277 70.6242 65.849C70.4913 66.1137 70.3584 66.3673 70.4913 66.4997L69.971 66.632C69.7052 66.4997 69.7052 66.3673 69.5835 66.246C69.5835 65.9813 69.5835 65.7277 69.8492 65.463C70.1149 65.1983 70.2367 65.077 70.6352 65.077C71.1667 64.8123 71.687 64.9447 72.2074 65.077C72.7388 65.3307 73.1263 65.7277 73.2591 66.3783ZM74.6984 66.643L73.7795 66.9077L74.8313 70.569L73.7795 70.4367L72.8606 67.1724L72.0745 67.437L71.5542 66.9187L74.0452 66.1357L74.6984 66.643ZM66.8378 68.209L66.7049 67.5584L71.5542 66.9077L71.9417 67.5584L70.8899 67.6907L71.5431 71.4733L70.4913 71.0874L69.9599 67.823L66.8378 68.209ZM70.2477 69.2567H69.982C69.7163 69.2567 69.5945 69.389 69.3288 69.6427C69.1627 69.8191 69.0742 70.0507 69.0631 70.2933H68.0113L68.1442 69.9074V69.6427C68.1442 69.5103 68.0113 69.378 67.7567 69.378C67.491 69.5103 67.2363 69.6427 67.1035 69.764C66.9374 69.9404 66.8488 70.172 66.8378 70.4146C66.9706 70.8006 67.491 71.33 68.5428 71.716L68.1553 71.9806C66.8488 71.4623 66.1846 70.6793 66.0628 69.8963C65.9299 69.6316 66.0628 69.378 66.3285 69.1133C66.716 68.7273 67.3803 68.7273 67.9006 68.8486C68.1663 68.8486 68.2881 68.981 68.421 69.2457C68.5538 68.8487 68.8085 68.7273 69.207 68.7273C69.5945 68.595 69.8602 68.595 70.126 68.7273L70.2477 69.2567ZM65.9189 69.9074C65.9189 70.172 65.6531 70.2933 65.3874 70.558L64.7342 70.2933L64.8671 70.0287V69.764C64.8671 69.6316 64.7342 69.4993 64.4796 69.4993C64.2249 69.4993 64.0921 69.4993 63.8264 69.764C63.5607 69.8963 63.5607 70.0287 63.5607 70.2823C63.5607 70.8006 64.081 71.33 64.8671 71.8483L64.6014 72.113C63.295 71.33 62.7635 70.547 62.7635 69.764C62.7635 69.378 62.8964 69.2457 63.0292 68.981C63.3503 68.8045 63.7157 68.7053 64.081 68.7163C64.2139 68.7163 64.4685 68.8486 64.7342 68.981C64.8671 68.981 64.9999 69.2457 65.1217 69.378C65.2546 69.1133 66.1735 68.595 66.0406 69.1133L65.9189 69.9074ZM66.8378 68.209H62.5089L61.9885 67.5584H66.8378V68.209ZM62.5089 68.3414L61.59 68.0767L61.2025 69.2567L61.0696 69.389H60.9368L59.885 69.1244C59.0989 68.992 58.5786 69.1244 58.4457 69.6427C58.4457 69.8853 58.5454 70.1169 58.7114 70.2933C59.0989 70.4257 59.0989 70.558 59.3646 70.6793H59.885V70.547C59.7743 70.4698 59.7521 70.3154 59.8407 70.2051C59.8518 70.1831 59.8739 70.172 59.885 70.161C59.885 70.0948 59.9403 70.0287 60.0068 70.0287C60.0068 70.0287 60.1396 69.8963 60.1396 70.0287C60.4053 70.0287 60.66 70.161 60.9257 70.4146C61.1028 70.5801 61.1582 70.8447 61.0585 71.0653C61.0585 71.1976 60.9257 71.33 60.6711 71.33L61.0585 72.51L60.6711 72.7747L60.2725 71.341H59.4975C59.11 71.2087 58.5786 70.955 58.3129 70.4257C57.9364 70.0507 57.7814 69.5103 57.9254 68.992C58.1911 68.7273 58.1911 68.4737 58.4457 68.3414C58.7336 68.209 59.0768 68.209 59.3646 68.3414L60.4164 68.606L60.5493 67.9554L58.1911 67.3047L57.8036 66.5217L62.2653 67.5694L62.5089 68.3414ZM60.6821 66.9077C59.8961 66.257 59.2429 65.86 58.7114 65.7387C57.9254 65.474 57.405 65.6064 57.1393 66.3894L56.7407 66.257C56.6079 65.9924 56.7407 65.7387 56.7407 65.474C56.8736 65.0881 57.1393 64.9557 57.3939 64.8234C57.7814 64.691 58.18 64.691 58.4457 64.8234C59.2318 65.088 60.0178 65.7387 60.6711 66.6541V66.9077H60.6821ZM58.1911 67.426L57.1393 67.029L55.8329 70.6903L55.1797 69.9074L56.2315 66.7754L55.7111 66.5107L55.3236 65.7277L57.8147 66.643L58.1911 67.426Z" fill="#1D1D1B"/>
<path fill-rule="evenodd" clip-rule="evenodd" d="M72.9929 65.9924L72.4725 66.1248C72.3397 65.8601 72.085 65.5954 71.9522 65.3418C71.5647 65.2094 71.299 65.0771 70.9004 65.2094C70.7675 65.3418 70.5129 65.4741 70.38 65.5954C70.1143 65.8601 70.1143 65.9924 70.2472 66.2461L69.594 66.3784C69.4611 66.2461 69.3283 66.1137 69.3283 65.9924C69.1954 65.5954 69.3283 65.3418 69.594 65.2094C69.7268 64.9448 69.9815 64.8234 70.38 64.6911C70.9004 64.5588 71.5647 64.5588 71.9522 64.8234C72.3397 65.0771 72.86 65.4631 72.9929 65.9924ZM74.4321 66.3784L73.3804 66.6431L74.565 70.3044L73.5243 70.0398L72.4725 66.9078L71.6864 67.0401L71.1661 66.5218L73.79 65.8711L74.4321 66.3784ZM66.5715 67.9444V67.2938L71.0332 66.6431L71.6864 67.1614L70.6347 67.4261L71.1661 71.2087L70.2472 70.8117L69.7268 67.5474L66.5715 67.9444ZM69.9815 68.9921H69.7158C69.4722 68.9921 69.2397 69.0913 69.0626 69.2568C69.0626 69.3891 68.7968 69.6427 68.5422 70.0398L67.7561 69.9074V69.5214C67.8226 69.5214 67.889 69.4663 67.889 69.4001C67.889 69.4001 67.889 69.4001 67.889 69.3891C67.7561 69.1244 67.6233 69.1244 67.3576 69.1244C67.1251 69.1575 66.9369 69.3119 66.8372 69.5214C66.5715 69.6538 66.5715 69.9074 66.5715 70.1721C66.7044 70.5581 67.2247 70.9551 68.1436 71.4734L67.8779 71.7381C66.5604 71.0874 65.7744 70.4368 65.6526 69.6538C65.6526 69.3891 65.7854 69.1354 65.9183 68.8708C66.3058 68.4848 66.9701 68.4848 67.4904 68.6061C67.7672 68.6061 68.0218 68.7495 68.1436 68.9921C68.2765 68.6061 68.5311 68.4738 69.0626 68.3414C69.3283 68.3414 69.594 68.3414 69.8486 68.4738L69.9815 68.9921ZM65.6526 69.6427C65.5197 69.7751 65.2651 69.9074 64.9994 70.2934L64.3462 70.0287L64.479 69.6427C64.5455 69.6427 64.6119 69.5876 64.6119 69.5214C64.6119 69.5214 64.6119 69.5214 64.6119 69.5104C64.6119 69.2457 64.479 69.2457 64.2244 69.2457C64.0915 69.2457 63.693 69.2457 63.5712 69.3781C63.3055 69.6427 63.1837 69.7641 63.1837 70.0287C63.1837 70.4147 63.704 70.9441 64.623 71.5947L64.2355 71.8594C63.0508 71.0764 62.3976 70.2934 62.3976 69.5104C62.3976 69.1134 62.5305 68.8597 62.7962 68.7274C63.0619 68.5951 63.3165 68.4627 63.7151 68.4627C64.1137 68.4627 64.2465 68.5951 64.3683 68.5951C64.634 68.7274 64.8887 68.8597 65.0215 69.1134C65.0215 68.8487 65.9404 68.3304 65.8076 68.7274L65.6526 69.6427ZM66.5715 67.9444H62.2426L61.7223 67.2938H66.5715V67.9444ZM62.2426 68.0767L61.1908 67.8121L60.9251 68.9921H60.7923C60.7923 69.0582 60.7369 69.1244 60.6705 69.1244L59.6187 68.8597C58.8327 68.5951 58.3123 68.8597 58.1794 69.3891C58.1794 69.6538 58.1795 69.7751 58.4452 70.0398C58.578 70.1721 58.8327 70.3044 59.0984 70.4257H59.6187L59.4859 70.1611V69.8964C59.4859 69.8302 59.5412 69.7641 59.6076 69.7641C59.6741 69.6869 59.7737 69.6427 59.8734 69.6317C60.1391 69.7641 60.3937 69.8964 60.5266 70.0177C60.7923 70.2824 60.9251 70.536 60.7923 70.6684C60.7923 70.933 60.6594 70.933 60.3937 71.0654L60.7923 72.2454L60.3937 72.5101L59.8734 71.0764H59.2202C58.6998 70.9441 58.3012 70.5471 57.9137 70.1611C57.648 69.6427 57.5262 69.2457 57.648 68.7274C57.7809 68.4627 57.9137 68.2091 58.1684 68.0767C58.4341 67.9444 58.6887 67.9444 59.0873 67.9444L60.1391 68.2091L60.2719 67.5584L57.7809 67.0401L57.5152 66.2571L61.8441 67.2938L62.2426 68.0767ZM60.4159 66.5107C59.6298 65.9924 59.1094 65.5954 58.4452 65.3307C57.6591 65.0661 57.1277 65.3307 56.873 65.9814L56.3527 65.8491C56.3527 65.5844 56.3527 65.3307 56.4855 65.1984C56.6184 64.8124 56.873 64.5477 57.1387 64.5477C57.4045 64.4154 57.792 64.4154 58.1905 64.5477C59.1094 64.8124 59.7626 65.4631 60.4159 66.2461V66.5107ZM57.792 67.0291L56.7402 66.7644L55.6884 70.4257L54.9023 69.6427L55.9541 66.5107L55.3009 66.2461L55.0352 65.4631L57.5262 66.2461L57.792 67.0291Z" fill="#E20613"/>
<path fill-rule="evenodd" clip-rule="evenodd" d="M50.3185 40.0102L62.5081 44.4435L75.6165 40.1315L78.3732 38.9515L73.1254 38.1795V37.9148L78.8936 36.2165L72.8597 36.7348L72.4722 36.3488L75.7493 33.2168L71.5533 34.5181L71.2876 34.1211L76.004 30.0738L70.5015 33.2168L70.2358 33.0845L71.6751 28.9048L68.5419 31.7721L68.2762 31.5075L70.5015 25.8941L67.0916 30.9891H66.8259L66.3055 26.6771L64.8662 30.5921L64.4787 30.4598L64.0912 24.4605L63.3052 30.5921H62.9177L60.5595 26.9308L60.8252 31.2428H60.5595L57.5481 26.0154L59.3859 31.8934L59.1202 32.0258L55.4446 29.8091L57.537 33.4594L57.2713 33.7241L52.2892 30.1951L56.4742 34.6394L56.3413 35.0254L52.0124 34.5071L55.6771 36.9884L55.4113 37.2531L49.3775 36.3378L55.1456 38.4221V38.8081L50.3185 40.0102ZM62.5081 44.8405L49.1339 39.8778L54.5035 38.5765L46.7646 35.5768L54.6253 36.7569L50.706 34.1432L55.9538 34.5181L50.706 28.7725L56.7399 32.9521L54.5146 28.7725L59.0981 31.5185L56.607 23.6885L60.4045 30.4818L60.1388 25.9162L62.8955 30.0959L64.202 22.2659L64.7223 29.6988L66.5601 25.5192L67.0805 30.4818L71.5422 24.0855L69.0512 31.0002L72.3283 28.0005L70.7562 32.6985L77.709 28.7835L72.2065 33.8785L76.79 32.6985L73.2472 36.2275L81.5064 35.5768L74.0333 37.9258L79.9343 38.7088L75.7383 40.5395L62.5081 44.8405Z" fill="#009EE2"/>
<path d="M62.5081 44.9618L62.4748 44.9508L49.1007 39.9881L49.1118 39.7676L54.116 38.5545L46.7314 35.6872L46.7868 35.4666L54.1271 36.5694L50.6396 34.2535L50.7171 34.044L55.666 34.4189L50.6175 28.8938L50.7725 28.7174L56.4078 32.6103L54.4039 28.8607L54.5699 28.7063L58.8877 31.2869L56.4963 23.7437L56.7067 23.6555L60.2606 29.9966L60.0281 25.9383L60.2495 25.8721L62.8402 29.7981L64.1023 22.2549L64.3348 22.2659L64.822 29.2357L66.4605 25.4972L66.6819 25.5302L67.1691 30.1731L71.4426 24.0414L71.653 24.1517L69.328 30.6252L72.2508 27.9454L72.439 28.0667L70.9665 32.478L77.6536 28.7174L77.7865 28.9049L72.6162 33.68L76.7568 32.6213L76.8676 32.8198L73.5572 36.1173L81.4954 35.4887L81.5396 35.7202L74.5758 37.9148L79.9454 38.6317L79.9786 38.8522L75.7826 40.6829L62.5081 44.9618ZM49.5436 39.8999L62.5191 44.7082L75.7161 40.4072L79.5136 38.753L74.0333 38.0251L74.0111 37.7935L75.2733 37.3965L73.2472 37.992V38.0692L78.3954 38.8412L78.4286 39.0618L75.6608 40.2418L62.5081 44.5758L62.4748 44.5648L50.2853 40.1315L50.2964 39.9109L55.0571 38.753V38.5324L50.0528 36.7128L54.5699 38.4663L54.5589 38.6868L49.5436 39.8999ZM50.7282 40.0323L62.5191 44.3222L75.5833 40.0212L77.9415 39.0177L73.0037 38.2788V37.8266L73.0922 37.8046L77.7311 36.4371L72.8154 36.8561L72.3062 36.3489L75.3065 33.4815L71.509 34.6615L71.1437 34.1101L75.0076 30.7907L70.5126 33.3492L70.0919 33.1397L71.4205 29.3019L68.5308 31.9376L68.1323 31.5406L68.1544 31.4634L69.9812 26.8757L67.158 31.0995H66.7262L66.2502 27.1734L64.9327 30.7355L64.357 30.548L64.0359 25.6846L63.3938 30.7135H62.8291L62.7959 30.6583L60.6813 27.383L60.9249 31.3641H60.4709L57.9577 27.019L59.5077 31.9707L59.0981 32.1802L59.0427 32.1471L55.7656 30.1621L57.681 33.5036L57.2824 33.9006L53.186 30.9892L56.6181 34.6174L56.4299 35.1688L52.4885 34.6946L55.8763 36.9885L55.4667 37.3855L55.4114 37.3745L50.5621 36.6356L55.2896 38.3449V38.9074L55.201 38.9294L50.7282 40.0323ZM49.4218 36.2386L55.3892 37.1429L55.511 37.0216L51.9571 34.6174L52.0346 34.4079L56.2638 34.9152L56.3413 34.6836L53.8392 32.0368L56.0424 34.441L55.9428 34.6395L51.1489 34.2866L54.7028 36.6466L54.6142 36.8672L47.7943 35.8526L49.3553 36.4591L49.4218 36.2386ZM72.6383 36.3489L72.904 36.6135L78.8825 36.0952L78.9157 36.2606L80.4989 35.7644L73.2694 36.3378L73.1808 36.1393L76.4136 32.9191L72.2397 33.9888L72.129 33.7903L75.3397 30.8238L71.4426 34.1653L71.5976 34.3969L75.7051 33.1176L75.8268 33.3161L72.6383 36.3489ZM52.3557 30.1179L57.2492 33.5808L57.371 33.4595L55.3228 29.8864L55.4888 29.7209L59.0981 31.9045L59.2088 31.8494L59.1202 31.5516L59.0317 31.6178L54.8135 29.0923L56.8395 32.897L56.6735 33.0514L51.5032 29.4673L52.2339 30.2613L52.3557 30.1179ZM70.3908 33.0294L70.5015 33.0845L75.9486 29.9856L76.0593 30.151L76.8897 29.3791L70.8226 32.7978L70.6565 32.6544L72.0958 28.3865L71.6197 28.8277L71.808 28.949L70.3908 33.0294ZM68.4091 31.4854L68.5308 31.6067L69.1287 31.0664L68.9405 30.9451L71.1326 24.8686L70.4462 25.8501L70.6123 25.9383L68.4091 31.4854ZM60.6038 31.1436H60.6813L60.4267 26.9639L60.6481 26.8977L62.9731 30.5039H63.1945L63.9695 24.4715L64.202 24.4826L64.5895 30.4047L64.7998 30.4708L66.1837 26.6992L64.8441 29.743L64.6227 29.6989L64.1688 23.2474L63.0173 30.1069L62.807 30.151L60.2938 26.3353L60.5263 30.4598L60.3049 30.526L57.072 24.7472L57.4817 26.0375L57.6256 25.9714L60.6038 31.1436ZM66.9366 30.8789H67.0362L68.8851 28.1219L67.2023 30.537L66.9919 30.4819L66.5159 25.9603L66.2169 26.6441L66.4384 26.6661L66.9366 30.8789Z" fill="#009EE2"/>
<path fill-rule="evenodd" clip-rule="evenodd" d="M63.8154 41.9622L65.919 41.8298L65.5204 58.2838C64.8672 57.8978 64.7344 58.0192 64.0811 58.4162L63.8154 41.9622Z" fill="#AC4581"/>
<path fill-rule="evenodd" clip-rule="evenodd" d="M52.4111 42.3591C56.0757 40.9255 59.7514 41.1791 63.4271 42.3591V57.3795C59.7514 56.1995 56.0868 56.3318 52.4111 57.3795V42.3591Z" fill="white"/>
<path fill-rule="evenodd" clip-rule="evenodd" d="M57.9246 42.0945C56.3524 42.0945 54.6475 42.3592 53.2082 42.8775V56.4532C54.7471 56.0231 56.3303 55.8025 57.9246 55.8025C59.4967 55.8025 61.0688 55.9349 62.641 56.3208V42.8775C61.1242 42.3592 59.5299 42.1056 57.9246 42.0945ZM52.1564 41.5762C53.9943 40.9256 55.9539 40.5285 57.9246 40.6609C59.7624 40.6609 61.722 40.9256 63.5599 41.5762L64.0802 41.7086V58.4162L63.1613 58.0302C61.5892 57.5119 59.6185 57.2472 57.9135 57.2472C56.0757 57.2472 54.3707 57.6332 52.5439 58.0302L51.625 58.2949V41.8299L52.1564 41.5762Z" fill="#1D1D1B"/>
<path fill-rule="evenodd" clip-rule="evenodd" d="M66.3057 42.3591C69.9813 40.9255 73.7788 41.1791 77.4434 42.3591V57.3795C73.7788 56.1995 69.9703 56.3318 66.3057 57.3795V42.3591Z" fill="white"/>
<path fill-rule="evenodd" clip-rule="evenodd" d="M71.8191 42.0945C70.2138 42.0945 68.6195 42.3592 67.1027 42.8775V56.4532C68.6749 56.0672 70.247 55.8025 71.8191 55.8025C73.5241 55.8025 75.0962 55.9349 76.6683 56.3208V42.8775C75.1073 42.3592 73.4687 42.0945 71.8191 42.0945ZM66.051 41.5762C68.0216 40.9256 69.8484 40.5285 71.8191 40.6609C74.0444 40.6609 75.7494 40.9256 77.7201 41.5762L78.2405 41.7086V58.4162L77.1887 58.0302C75.4505 57.5009 73.6348 57.2362 71.8191 57.2472C70.1141 57.2472 68.2763 57.6332 66.5713 58.0302L65.5195 58.2949V41.8299L66.051 41.5762Z" fill="#1D1D1B"/>
<path fill-rule="evenodd" clip-rule="evenodd" d="M69.4503 37.3965C69.4503 39.4808 67.3467 41.3115 64.8667 41.3115C62.3868 41.3115 60.2832 39.7455 60.2832 37.6501C60.2832 36.0841 69.4503 36.4812 69.4503 37.3965Z" fill="#AD4523"/>
<path d="M64.867 42.0283C61.8888 42.0283 59.5527 40.1094 59.5527 37.6501C59.5527 36.5362 61.0141 36.2275 61.4902 36.1282C62.5309 35.9187 63.793 35.8635 64.6787 35.8635C70.1701 35.8635 70.1701 37.0105 70.1701 37.3854C70.1812 39.9109 67.7455 42.0283 64.867 42.0283ZM61.0031 37.7824C61.0916 39.3374 62.7966 40.5946 64.867 40.5946C66.8044 40.5946 68.5094 39.2822 68.7198 37.7052C67.358 37.209 61.9441 37.1318 61.0031 37.7824Z" fill="#1D1D1B"/>
<path fill-rule="evenodd" clip-rule="evenodd" d="M64.867 35.5657C67.2252 35.5657 69.3287 36.3487 69.3287 37.264C69.3287 38.1793 67.2252 38.9623 64.867 38.9623C62.376 38.9623 60.4053 38.1793 60.4053 37.264C60.4053 36.3487 62.376 35.5657 64.867 35.5657Z" fill="#FFEC00"/>
<path d="M64.8668 39.4477C62.409 39.4477 59.918 38.6978 59.918 37.2641C59.918 35.8305 62.409 35.0806 64.8668 35.0806C67.3025 35.0806 69.8157 35.8966 69.8157 37.2641C69.8157 38.6316 67.3025 39.4477 64.8668 39.4477ZM64.8668 36.051C62.409 36.051 60.9033 36.834 60.9033 37.2641C60.9033 37.6942 62.409 38.4772 64.8668 38.4772C67.3247 38.4772 68.8304 37.6391 68.8304 37.2641C68.8304 36.8892 67.3357 36.051 64.8668 36.051Z" fill="#1D1D1B"/>
<path fill-rule="evenodd" clip-rule="evenodd" d="M64.8667 37.6502C67.6234 37.6502 65.6527 32.1692 64.8667 32.1692C64.0806 32.1692 62.7742 37.5178 64.8667 37.6502Z" fill="#E20613"/>
<path d="M64.8666 37.8927H64.8555C63.9366 37.8376 63.4605 36.9774 63.5048 35.4775C63.5491 34.0549 64.1469 31.9375 64.8666 31.9375C65.6194 31.9375 66.5162 34.3416 66.5162 35.8525C66.5162 36.437 66.3944 36.9112 66.1619 37.2531C65.8851 37.6721 65.4312 37.8927 64.8666 37.8927ZM64.8555 32.4007C64.5566 32.511 63.7926 34.6504 64.003 36.2385C64.1026 36.9884 64.3905 37.3854 64.8776 37.4185C65.5419 37.4185 65.9183 37.0435 66.029 36.2826C66.2394 34.6835 65.1876 32.4889 64.8555 32.4007Z" fill="white"/>
<path fill-rule="evenodd" clip-rule="evenodd" d="M42.1924 55.1519C42.8457 55.1519 43.3771 55.5489 43.3771 56.1995C43.3771 56.8502 42.8457 57.3795 42.1924 57.3795C41.5392 57.3795 41.0078 56.8502 41.0078 56.1995C41.0078 55.5489 41.5392 55.1519 42.1924 55.1519Z" fill="#E20613"/>
<path fill-rule="evenodd" clip-rule="evenodd" d="M87.5407 55.1519C88.194 55.1519 88.7254 55.5489 88.7254 56.1995C88.7475 56.8502 88.2382 57.3906 87.585 57.4126C86.9318 57.4347 86.3893 56.9274 86.3672 56.2767C86.3672 56.2547 86.3672 56.2326 86.3672 56.1995C86.3672 55.5489 86.8875 55.1519 87.5407 55.1519Z" fill="#E20613"/>
<path fill-rule="evenodd" clip-rule="evenodd" d="M85.3153 73.5578H85.8357C86.1014 73.5578 86.2232 73.6901 86.356 73.8225C86.4889 73.9548 86.356 74.0871 86.356 74.2084L85.9686 74.5944C85.8578 74.6716 85.8357 74.826 85.9132 74.9363C85.9243 74.9584 85.9464 74.9694 85.9686 74.9914C86.1014 75.1238 86.2343 75.1238 86.4889 74.8591C86.8764 74.5944 87.0093 74.3408 87.4078 73.9438L86.356 72.7748L85.3153 73.5578ZM87.6735 74.4731C87.5407 74.7378 87.4078 74.9914 87.1532 75.1238C86.6218 75.5098 86.1014 75.5098 85.3153 75.1238L84.9279 74.8591L85.5811 74.2084V73.9438C85.5811 73.8114 85.4482 73.8114 85.3153 73.8114C85.2489 73.7342 85.1271 73.7342 85.0607 73.8114L84.2636 74.3298L83.7432 74.1974L87.0203 71.5837L87.5407 71.8484L86.8875 72.3667L88.8582 74.7157L87.9393 74.8481L87.6735 74.4731ZM81.7725 76.0391L82.4257 76.9544L83.6104 76.3038L83.8761 76.6898L82.6914 77.4728L82.8243 77.6051C82.9572 77.7374 82.9572 77.8698 82.8243 77.8698C82.8243 77.8698 82.6914 78.0021 82.6914 77.8698L81.6397 77.7375H81.5068C81.5068 77.6051 81.5068 77.6051 81.6397 77.4728L81.9054 77.3404L81.1193 76.2928L80.3333 76.6787L79.9458 76.2928L83.6214 74.1974L84.1418 74.4621L83.4886 74.8481L85.1936 77.3294H84.4075L82.9682 75.2451L81.7725 76.0391ZM79.9458 76.3038L80.4661 76.6898L79.5472 76.9544L80.8536 79.8218L80.0675 79.6894L78.8829 77.3404L77.964 77.7264L78.7501 79.2924C78.7722 79.4358 78.7169 79.5791 78.6172 79.6894H78.3515L77.4326 79.4248C77.4326 79.4248 77.4326 79.2924 77.1669 79.2924C77.1669 79.1601 77.4326 79.1601 77.4326 79.0277L77.6983 78.8954L77.4326 77.9801L76.5137 78.366L75.9822 77.9801L79.9458 76.3038ZM78.2408 82.5678L78.1079 82.8324C77.4547 82.5678 76.6687 82.5678 76.2701 82.5678C76.1372 82.7001 76.0044 82.7001 75.8715 82.8324L75.3512 82.5678C75.484 82.4354 75.6169 82.3031 75.7387 82.3031C75.8937 82.2149 76.0819 82.1708 76.259 82.1708H76.9122C77.189 82.3141 77.7094 82.4354 78.2408 82.5678ZM75.7497 78.6528L74.8308 78.9175L75.0965 79.8328C75.0965 79.9651 75.0965 79.9651 74.9637 79.9651L74.1776 80.2298C73.5244 80.3621 73.2587 80.7481 73.3915 81.1451C73.3915 81.2775 73.6573 81.4098 73.779 81.5422H74.4323L74.5651 81.4098C74.698 81.4098 74.698 81.4098 74.8308 81.2775L74.698 81.1451C74.6315 81.1451 74.5651 81.09 74.5651 81.0238V80.7592H74.698C74.8308 80.6268 75.0855 80.6268 75.3512 80.7592C75.6169 80.7592 75.7387 80.8915 75.7387 81.0238C75.7497 81.2113 75.6944 81.3878 75.6058 81.5422L76.3919 82.1928L75.9933 82.3252L75.2072 81.6745C75.0744 81.8068 74.9415 81.8068 74.8197 81.9392C74.2994 82.0715 74.0337 81.9392 73.5133 81.8068C73.1258 81.5422 72.8601 81.2885 72.7273 80.8915C72.7051 80.6709 72.7494 80.4393 72.8601 80.2408C72.993 80.1085 73.2587 79.9762 73.3805 79.8548L74.2994 79.5902L74.1665 79.0719L72.0741 79.5902L71.5537 79.2042L75.2183 78.2889L75.7497 78.6528ZM69.0627 80.0864V81.2665C69.1955 81.3988 69.4612 81.3988 69.5941 81.3988C69.9816 81.2665 70.2473 81.1341 70.3801 80.8805L70.513 81.6635C70.3802 81.6635 70.1255 81.7958 69.8598 81.7958C69.4723 81.7958 69.2066 81.7958 69.0737 81.6635C69.0737 81.7958 69.0737 81.9281 68.6862 82.0495L69.9927 82.8324L69.7269 83.0971L67.7562 81.7958C67.6123 81.7958 67.4905 81.6745 67.4905 81.5311C67.4905 81.3878 67.6123 81.2665 67.7562 81.2665C67.8559 81.1672 67.9998 81.1121 68.1437 81.1341C68.1437 81.2003 68.1991 81.2665 68.2655 81.2665C68.2655 81.2665 68.2655 81.2665 68.2766 81.2665L68.1437 80.2188L66.9591 80.3511L66.5716 79.8328L71.5537 79.1821L72.0741 79.5681L71.0223 79.8328L71.5426 82.7001L70.6237 82.5678L70.2362 79.9541L69.0627 80.0864ZM64.9995 80.3511H64.0806V83.3508L63.2945 82.8324L63.4274 80.3511H62.907L62.5195 79.8328H64.6231L64.9995 80.3511ZM59.8846 79.9541L59.7517 81.2554L61.191 81.3878L61.0581 81.9061L59.7517 81.7737V82.0384C59.6188 82.1708 59.6188 82.3031 59.486 82.3031L59.3531 82.1708L58.6999 81.3878C58.5671 81.3878 58.5671 81.3878 58.5671 81.2554C58.6335 81.1782 58.7553 81.1782 58.8217 81.2444C58.8217 81.2444 58.8217 81.2444 58.8328 81.2554H59.0985L59.2313 79.9541L58.4453 79.8218L58.1796 79.3034L62.5085 79.7005L62.7742 80.3511L61.9881 80.2188L61.7224 83.0861L60.9363 82.7001L61.3349 80.0975L59.8846 79.9541ZM55.1682 78.6528L54.9025 78.5204C54.515 77.6051 54.1164 77.0868 53.596 76.9544H53.3303L53.1975 76.3038H53.596C53.8618 76.3038 54.515 76.4361 54.7807 77.0868C55.0353 77.3515 55.0353 78.1345 55.1682 78.6528ZM56.2199 79.5681L55.4339 79.3034L54.515 82.1708L53.9946 81.6524L54.7807 79.0388L54.2603 78.9064L53.9946 78.2558L56.0871 78.9064L56.2199 79.5681ZM50.7064 77.4728V76.8221L53.9835 78.1234L54.2493 78.9064L53.3303 78.5204L52.1568 81.2665L51.6364 80.6158L52.6882 78.2668L50.7064 77.4728ZM52.2786 79.0388L51.3596 78.6528C50.9611 78.5204 50.7064 78.5204 50.7064 78.9175C50.4407 79.1821 50.4407 79.5681 50.7064 80.2188L50.3079 80.3511C49.9204 79.4358 49.9204 78.7851 50.0422 78.2668C50.175 77.8698 50.6954 77.8698 51.3486 78.1345L52.5332 78.6528L52.2786 79.0388ZM48.2265 76.0391L47.695 76.9544C47.695 77.0868 47.8279 77.2191 47.9607 77.3404C48.2265 77.4728 48.614 77.4728 48.8797 77.4728L48.4811 78.1234C48.3482 77.9911 48.2154 77.9911 47.9607 77.8588C47.695 77.5941 47.4404 77.4728 47.3075 77.2081C47.1747 77.3404 47.0418 77.3404 46.7872 77.3404L47.1747 78.7741H46.909L46.2558 76.4251V76.2928C46.3886 76.1604 46.5215 76.0281 46.7761 76.1604C46.7761 76.2266 46.8315 76.2928 46.8979 76.2928C46.8979 76.2928 46.8979 76.2928 46.909 76.2928C46.9754 76.2928 47.0418 76.3479 47.0418 76.4141C47.0418 76.4141 47.0418 76.4141 47.0418 76.4251L47.5622 75.6421L46.6433 74.9914L46.5104 74.3408L50.7064 76.8221V77.4728L50.0422 77.0868L48.3372 79.7005L47.9386 78.9175L49.3779 76.7008L48.2265 76.0391ZM46.6433 74.9914L45.9901 74.7268L44.1522 77.0868L43.7647 76.3038L45.4697 74.3408L44.9494 73.9548L45.0822 73.3041L46.5215 74.3518L46.6433 74.9914ZM44.4179 75.6531C44.3183 75.6421 44.2297 75.598 44.1522 75.5208L43.7537 75.1348V75.3995C43.4879 75.5318 43.2333 75.6642 42.9676 75.6642C42.7019 75.6642 42.4472 75.5318 42.1815 75.2782C41.6612 74.8922 41.5283 74.2305 41.5283 73.0615H41.9158C41.783 73.4475 41.9158 73.7122 41.9158 73.9768C42.0487 74.3628 42.1815 74.6275 42.3144 74.7599C42.4472 74.8922 42.5801 74.8922 42.8347 74.8922C43.2333 75.0245 43.2333 74.8922 43.3662 74.7599C43.499 74.6275 43.499 74.3628 43.2333 74.2305C43.2333 74.0982 42.9676 74.0982 42.9676 74.0982C42.9676 73.9658 42.8347 73.9658 42.7019 73.9658L42.4362 73.7122V73.1939C42.4362 73.1277 42.4915 73.0615 42.558 73.0615C42.558 73.0615 42.558 73.0615 42.569 73.0615C42.7019 73.0615 42.8347 73.1939 42.9676 73.3262H43.2333V73.5909H43.6208C43.8865 73.5909 43.8865 73.5909 44.0194 73.4585C44.1522 73.3262 44.0194 73.1938 43.8865 73.0725C43.6208 72.9402 43.2333 72.8079 42.8347 72.5432V72.0249C43.189 72.0138 43.5212 72.1572 43.7537 72.4109C44.1411 72.6755 44.274 72.9292 44.4069 73.4585C44.4069 73.7232 44.4069 73.9769 44.274 74.2415C44.1411 74.2415 44.1411 74.2415 44.0083 74.3739C43.8644 74.3959 43.7204 74.3408 43.6097 74.2415C43.7426 74.5062 43.8754 74.7709 44.1301 74.8922C44.3072 75.0576 44.5397 75.1458 44.7833 75.1569L44.4179 75.6531Z" fill="#1D1D1B"/>
<path fill-rule="evenodd" clip-rule="evenodd" d="M85.0495 73.4254H85.5698C85.8355 73.4254 85.9573 73.5578 86.0902 73.6901C86.1123 73.8335 86.0569 73.9769 85.9573 74.0761L85.6916 74.4731C85.5919 74.5724 85.5477 74.7157 85.5587 74.8591C85.6916 74.9914 85.9462 74.9914 86.2119 74.7268C86.4777 74.4621 86.7434 74.1974 86.8652 73.8114L86.0791 72.6314L85.0495 73.4254ZM87.4076 74.3408C87.4076 74.6055 87.1419 74.7378 86.8873 74.9914C86.3669 75.3774 85.8355 75.3774 85.0495 74.9914L84.6509 74.7268L85.3041 74.0761V73.8114C85.1712 73.6791 85.1712 73.6791 85.0384 73.6791C84.9166 73.5468 84.9166 73.5468 84.9166 73.6791L83.9977 74.1974L83.3445 74.0651L86.6216 71.4514L87.4076 71.7161L86.6105 72.2454L88.5812 74.5944L87.6623 74.7268L87.4076 74.3408ZM81.5177 75.9068L82.1709 76.8221L83.3555 76.1715L83.6213 76.5574L82.4366 77.2191L82.5695 77.4838C82.7023 77.6161 82.7023 77.7485 82.5695 77.7485C82.5695 77.7485 82.4366 77.8808 82.4366 77.7485L81.3849 77.6161H81.252C81.252 77.4838 81.252 77.4838 81.3849 77.3515L81.5177 77.2191L80.8645 76.3038L80.0784 76.4361L79.5581 76.3038L83.3555 74.0871L83.8759 74.3518L83.2227 74.7488L84.9277 77.2302H84.1416L82.5584 75.1348L81.5177 75.9068ZM79.547 76.3038L80.0674 76.5685L79.2813 76.8331L80.5877 79.7005L79.6688 79.5681L78.6281 77.2191L77.7092 77.6051L78.4952 79.1711C78.5174 79.3145 78.462 79.4578 78.3624 79.5571H77.9749L77.056 79.2924L76.9231 79.1601C76.9231 79.0277 76.9231 79.0278 77.1888 78.8954L77.4545 78.7631L77.067 77.8477L76.281 78.2448L75.6278 77.8477L79.547 76.3038ZM77.9749 82.5678L77.842 82.7001C77.056 82.4354 76.4028 82.4354 75.8713 82.5678C75.7717 82.5788 75.6721 82.6229 75.6056 82.7001L75.0853 82.4354C75.2181 82.3031 75.351 82.1708 75.4728 82.1708C75.6056 82.0384 75.8603 82.0384 75.9931 82.0384H76.6463C76.9231 82.1818 77.4545 82.3141 77.9749 82.5678ZM75.351 78.5205L74.5649 78.7851L74.8306 79.7005C74.8306 79.7666 74.7753 79.8328 74.7089 79.8328L74.0556 80.0975C73.2696 80.2298 73.0039 80.6158 73.1367 81.0128C73.1367 81.1451 73.2696 81.2775 73.5242 81.4098H74.1774C74.1774 81.3437 74.2328 81.2775 74.2992 81.2775C74.2992 81.2775 74.2992 81.2775 74.3103 81.2775C74.3767 81.2775 74.4431 81.2224 74.4431 81.1562C74.4431 81.1562 74.4431 81.1562 74.4431 81.1452V81.0128C74.3767 81.0128 74.3103 80.9577 74.3103 80.8915C74.3103 80.8915 74.3103 80.8915 74.3103 80.8805C74.1774 80.7481 74.1774 80.7481 74.3103 80.6158H74.4431C74.576 80.4835 74.8306 80.4835 75.0964 80.6158C75.3621 80.6158 75.4838 80.7481 75.4838 80.8805C75.4838 81.0128 75.4838 81.1451 75.2181 81.3988L76.0042 82.0495L75.7385 82.1818L74.9524 81.5311C74.8196 81.6635 74.6867 81.6635 74.4321 81.7958C74.0335 81.9282 73.646 81.7958 73.2474 81.6635C72.8489 81.3988 72.4614 81.1341 72.3285 80.7481C72.3285 80.4835 72.3285 80.2298 72.4614 80.0975C72.7271 79.9651 72.8489 79.8328 73.1146 79.7115L74.0335 79.4468V78.9285L71.8082 79.4468L71.2878 79.0498L74.8306 78.1345L75.351 78.5205ZM68.6639 79.9541L68.7968 81.1341C68.9518 81.2224 69.14 81.2665 69.3171 81.2665C69.605 81.1341 69.8707 80.9577 70.1032 80.7481L70.236 81.3988C70.0589 81.5642 69.8264 81.6524 69.5828 81.6635C69.1953 81.6635 69.0514 81.6635 68.7968 81.5311L68.4093 81.9171L69.5939 82.7001L69.4611 82.8325L67.4904 81.6635C67.3464 81.6524 67.2357 81.5422 67.2246 81.3988C67.2246 81.2665 67.3575 81.1341 67.4904 81.0018H67.7561C67.8225 81.079 67.9221 81.1231 68.0218 81.1341L67.8889 80.0865L66.7043 80.2188L66.1839 79.7005L71.166 79.0498L71.8192 79.4468L70.7675 79.7115L71.166 82.5788L70.38 82.4465L69.9925 79.8438L68.6639 79.9541ZM64.7336 80.2188H63.8147V83.2184L63.0286 82.7001L63.1615 80.2188H62.5083L62.2426 79.7005H64.335L64.7336 80.2188ZM59.6187 79.8218L59.4858 81.1231L60.7922 81.2554V81.7738L59.4858 81.6414L59.3529 81.9061C59.3529 82.0384 59.3529 82.1708 59.2201 82.1708C59.1537 82.1708 59.0872 82.1156 59.0872 82.0495L58.3012 81.2665V81.1341C58.3676 81.0569 58.4894 81.0569 58.5558 81.1341H58.8215L59.0872 79.8328L58.1683 79.7005L57.9026 79.1821L62.2315 79.5681L62.4972 80.2188L61.7111 80.0865L61.3236 82.9538L60.6704 82.5568L60.9361 79.9541L59.6187 79.8218ZM54.9023 78.5205L54.6366 78.3881C54.2491 77.4728 53.7177 76.9545 53.3302 76.8221H53.1973L52.8098 76.3038C52.9427 76.1715 53.1973 76.1715 53.1973 76.1715C53.5848 76.3038 54.1162 76.3038 54.5037 76.8221C54.7694 77.2191 54.7694 78.0021 54.9023 78.5205ZM55.9541 79.3034L55.168 79.1711L54.2491 82.0384L53.7287 81.5201L54.5148 78.9064L53.8616 78.7741L53.7287 78.1234L55.8212 78.7741L55.9541 79.3034ZM50.4516 77.3404V76.6898L53.7287 77.9911L53.8616 78.7741L53.2084 78.3881L51.902 81.1231L51.3705 80.4724L52.4223 78.1234L50.4516 77.3404ZM52.0237 78.9175L51.1048 78.5315C50.7063 78.3991 50.3188 78.3991 50.1859 78.7962C50.1748 79.2483 50.2634 79.6894 50.4516 80.1085L50.0531 80.2408C49.6656 79.3255 49.6656 78.6748 49.7873 78.1565C49.9202 77.7595 50.4405 77.7595 51.1048 78.0242L52.1566 78.5425L52.0237 78.9175ZM47.9606 75.9068L47.3074 76.8221L47.6949 77.2081C47.9606 77.3404 48.3481 77.3404 48.6138 77.3404L48.2152 77.9911C48.2152 77.8588 47.8166 77.8588 47.6838 77.7264C47.2963 77.4618 47.1634 77.3404 47.0306 77.0758C46.8977 77.2081 46.7649 77.2081 46.4992 77.2081L46.8977 78.6418H46.632L45.9788 76.2928V76.1604C46.1117 76.0281 46.2445 75.8958 46.3663 76.0281C46.4992 76.1604 46.632 76.1604 46.632 76.2928H46.7649L47.2852 75.5098L46.3663 74.8591L46.2334 74.2085L50.4295 76.6898V77.3404L49.7763 76.9545L48.2041 79.5681L47.6727 78.7851L49.112 76.5685L47.9606 75.9068ZM46.3884 74.8701L45.7352 74.6055L43.8974 76.9545L43.5099 76.3038L45.2149 74.2085L44.6945 73.8225V73.1718L46.2667 74.2195L46.3884 74.8701ZM44.152 75.5208C44.0192 75.5208 44.0192 75.5208 43.8863 75.3885L43.4878 75.0025C43.4767 75.1017 43.4324 75.201 43.3549 75.2672C43.1778 75.4326 42.9453 75.5208 42.7017 75.5318C42.436 75.5318 42.1813 75.3995 41.9156 75.1458C41.3953 74.7599 41.1296 73.9658 41.2624 72.9292H41.5281C41.5281 73.3152 41.5281 73.5798 41.661 73.8445C41.661 74.2305 41.7939 74.4952 42.0485 74.6275C42.1813 74.7599 42.3142 74.7599 42.5688 74.7599C42.8346 74.8922 42.9563 74.7599 42.9563 74.6275C43.2221 74.4952 43.2221 74.2415 42.8235 74.1092C42.8235 74.043 42.7681 73.9769 42.7017 73.9769C42.7017 73.8445 42.5688 73.8445 42.436 73.8445L42.0485 73.5798L42.1813 73.0615C42.1813 72.9954 42.2367 72.9292 42.3031 72.9292C42.3031 72.9292 42.3031 72.9292 42.3142 72.9292C42.4471 72.9292 42.5799 73.0615 42.7017 73.1939H42.8346V73.3262H42.9674C43.2331 73.4585 43.2331 73.4585 43.366 73.4585C43.5099 73.4806 43.6538 73.4255 43.7645 73.3262C43.8974 73.1939 43.7645 73.0615 43.6317 72.9402C43.366 72.8079 42.9785 72.6755 42.5799 72.4219V71.9036C42.9231 71.9146 43.2442 72.058 43.4988 72.2896C43.8974 72.5542 44.0192 72.8079 44.152 73.3372C44.152 73.6019 44.152 73.8555 44.0192 74.1202C43.8863 74.1202 43.8863 74.1202 43.7535 74.2526C43.6095 74.2746 43.4656 74.2195 43.366 74.1202C43.4988 74.3849 43.6317 74.6385 43.8863 74.7709C44.0635 74.9363 44.296 75.0245 44.5395 75.0356L44.152 75.5208Z" fill="white"/>
<path d="M53.5075 43.3958L53.4189 43.1421C53.4743 43.1311 54.6589 42.7341 55.2236 43.0208L55.1018 43.2524C54.7143 43.0649 53.8175 43.2855 53.5075 43.3958Z" fill="#1D1D1B"/>
<path d="M55.8659 43.3958L55.7773 43.1421C55.8327 43.1311 57.0173 42.7341 57.582 43.0208L57.4713 43.2524C57.0838 43.0649 56.1759 43.2855 55.8659 43.3958Z" fill="#1D1D1B"/>
<path d="M58.2243 43.3958L58.1357 43.1421C58.1911 43.1311 59.3757 42.7341 59.9404 43.0208L59.8186 43.2524C59.4422 43.0649 58.5343 43.2855 58.2243 43.3958Z" fill="#1D1D1B"/>
<path d="M60.5817 43.3958L60.4932 43.1421C60.5485 43.1311 61.7331 42.7341 62.2978 43.0208L62.176 43.2524C61.7996 43.0649 60.9028 43.2855 60.5817 43.3958Z" fill="#1D1D1B"/>
<path d="M53.5075 44.311L53.4189 44.0574C53.4632 44.0464 54.6589 43.6494 55.2236 43.9361L55.1018 44.1677C54.7254 43.9802 53.8175 44.2008 53.5075 44.311Z" fill="#1D1D1B"/>
<path d="M55.8659 44.311L55.7773 44.0574C55.8327 44.0464 57.0173 43.6494 57.582 43.9361L57.4713 44.1677C57.0838 43.9802 56.1759 44.2008 55.8659 44.311Z" fill="#1D1D1B"/>
<path d="M58.2243 44.311L58.1357 44.0574C58.1911 44.0464 59.3757 43.6494 59.9404 43.9361L59.8186 44.1677C59.4422 43.9802 58.5343 44.2008 58.2243 44.311Z" fill="#1D1D1B"/>
<path d="M60.5817 44.311L60.4932 44.0574C60.5485 44.0464 61.7331 43.6494 62.2978 43.9361L62.176 44.1677C61.7996 43.9692 60.9028 44.2008 60.5817 44.311Z" fill="#1D1D1B"/>
<path d="M53.5075 45.0942L53.4189 44.8516C53.4743 44.8406 54.6589 44.4435 55.2236 44.7303L55.1018 44.9619C54.7143 44.7523 53.8175 44.9839 53.5075 45.0942Z" fill="#1D1D1B"/>
<path d="M55.8659 45.0942L55.7773 44.8516C55.8327 44.8406 57.0173 44.4435 57.582 44.7303L57.4713 44.9619C57.0727 44.7634 56.1759 44.9839 55.8659 45.0942Z" fill="#1D1D1B"/>
<path d="M58.2243 45.0942L58.1357 44.8516C58.1911 44.8406 59.3757 44.4435 59.9404 44.7303L59.8186 44.9619C59.4422 44.7634 58.5343 44.9839 58.2243 45.0942Z" fill="#1D1D1B"/>
<path d="M60.5817 45.0942L60.4932 44.8516C60.5485 44.8406 61.7331 44.4435 62.2978 44.7303L62.176 44.9619C61.7996 44.7634 60.9028 44.9839 60.5817 45.0942Z" fill="#1D1D1B"/>
<path d="M53.5075 45.8772L53.4189 45.6345C53.4743 45.6235 54.6589 45.2265 55.2236 45.5132L55.1018 45.7448C54.7254 45.5463 53.8175 45.7669 53.5075 45.8772Z" fill="#1D1D1B"/>
<path d="M55.8659 45.8772L55.7773 45.6345C55.8327 45.6235 57.0173 45.2265 57.582 45.5132L57.4713 45.7448C57.0838 45.5463 56.1759 45.7669 55.8659 45.8772Z" fill="#1D1D1B"/>
<path d="M58.2243 45.8772L58.1357 45.6345C58.1911 45.6235 59.3757 45.2265 59.9404 45.5132L59.8186 45.7448C59.4422 45.5463 58.5343 45.7669 58.2243 45.8772Z" fill="#1D1D1B"/>
<path d="M60.5817 45.8771L60.4932 45.6345C60.5485 45.6234 61.7331 45.2374 62.2978 45.5131L62.176 45.7447C61.7996 45.5462 60.8917 45.7668 60.5817 45.8771Z" fill="#1D1D1B"/>
<path d="M53.5075 46.7815L53.4189 46.5388C53.4743 46.5278 54.6589 46.1308 55.2236 46.4175L55.1018 46.6491C54.7143 46.4506 53.8175 46.6822 53.5075 46.7815Z" fill="#1D1D1B"/>
<path d="M55.8659 46.7815L55.7773 46.5388C55.8327 46.5278 57.0173 46.1308 57.582 46.4175L57.4713 46.6491C57.0727 46.4506 56.1759 46.6822 55.8659 46.7815Z" fill="#1D1D1B"/>
<path d="M58.2243 46.7815L58.1357 46.5388C58.1911 46.5278 59.3757 46.1308 59.9404 46.4175L59.8297 46.6491C59.4422 46.4506 58.5343 46.6822 58.2243 46.7815Z" fill="#1D1D1B"/>
<path d="M60.5817 46.7815L60.4932 46.5388C60.5485 46.5278 61.7331 46.1308 62.2978 46.4175L62.176 46.6491C61.7996 46.4506 60.9028 46.6822 60.5817 46.7815Z" fill="#1D1D1B"/>
<path d="M53.5075 47.5754L53.4189 47.3218C53.4632 47.3108 54.6589 46.9138 55.2236 47.2005L55.1018 47.4321C54.7254 47.2446 53.8175 47.4652 53.5075 47.5754Z" fill="#1D1D1B"/>
<path d="M55.8659 47.5754L55.7773 47.3218C55.8327 47.3108 57.0173 46.9138 57.582 47.2005L57.4713 47.4321C57.0838 47.2446 56.1759 47.4652 55.8659 47.5754Z" fill="#1D1D1B"/>
<path d="M58.2243 47.5754L58.1357 47.3218C58.1911 47.3108 59.3757 46.9138 59.9404 47.2005L59.8186 47.4321C59.4422 47.2446 58.5343 47.4652 58.2243 47.5754Z" fill="#1D1D1B"/>
<path d="M60.5817 47.5754L60.4932 47.3218C60.5485 47.3108 61.7331 46.9138 62.2978 47.2005L62.176 47.4321C61.7996 47.2336 60.9028 47.4652 60.5817 47.5754Z" fill="#1D1D1B"/>
<path d="M53.5075 48.3584L53.4189 48.1158C53.4743 48.1048 54.67 47.7078 55.2457 48.1379L55.0907 48.3474C54.7032 48.0497 53.8175 48.2482 53.5075 48.3584Z" fill="#1D1D1B"/>
<path d="M55.8659 48.3584L55.7773 48.1158C55.8327 48.1048 57.0284 47.7078 57.6041 48.1379L57.4491 48.3474C57.0616 48.0497 56.1759 48.2482 55.8659 48.3584Z" fill="#1D1D1B"/>
<path d="M58.2243 48.3584L58.1357 48.1158C58.1911 48.1048 59.3868 47.7078 59.9625 48.1379L59.8075 48.3474C59.42 48.0497 58.5343 48.2482 58.2243 48.3584Z" fill="#1D1D1B"/>
<path d="M60.5817 48.3584L60.4932 48.1158C60.5485 48.1048 61.7442 47.7078 62.3199 48.1379L62.1649 48.3474C61.7774 48.0497 60.8917 48.2482 60.5817 48.3584Z" fill="#1D1D1B"/>
<path d="M53.5075 49.1415L53.4189 48.8989C53.4743 48.8878 54.6589 48.5018 55.2236 48.7776L55.1018 49.0091C54.7143 48.8106 53.8175 49.0312 53.5075 49.1415Z" fill="#1D1D1B"/>
<path d="M55.8659 49.1415L55.7773 48.8989C55.8327 48.8878 57.0173 48.5018 57.582 48.7776L57.4713 49.0091C57.0838 48.7996 56.1759 49.0312 55.8659 49.1415Z" fill="#1D1D1B"/>
<path d="M58.2243 49.1415L58.1357 48.8989C58.1911 48.8878 59.3757 48.5018 59.9404 48.7776L59.8186 49.0091C59.4422 48.7996 58.5343 49.0312 58.2243 49.1415Z" fill="#1D1D1B"/>
<path d="M60.5817 49.1415L60.4932 48.8989C60.5485 48.8878 61.7331 48.5018 62.2978 48.7776L62.176 49.0091C61.7996 48.7996 60.9028 49.0312 60.5817 49.1415Z" fill="#1D1D1B"/>
<path d="M53.5075 49.9245L53.4189 49.6819C53.4743 49.6709 54.6589 49.2739 55.2236 49.5606L55.1018 49.7922C54.7254 49.5937 53.8175 49.8142 53.5075 49.9245Z" fill="#1D1D1B"/>
<path d="M55.8659 49.9245L55.7773 49.6819C55.8327 49.6709 57.0173 49.2739 57.582 49.5606L57.4713 49.7922C57.0838 49.5937 56.1759 49.8142 55.8659 49.9245Z" fill="#1D1D1B"/>
<path d="M58.2243 49.9245L58.1357 49.6819C58.1911 49.6709 59.3757 49.2739 59.9404 49.5606L59.8186 49.7922C59.4422 49.5937 58.5343 49.8142 58.2243 49.9245Z" fill="#1D1D1B"/>
<path d="M60.5817 49.9245L60.4932 49.6819C60.5485 49.6709 61.7331 49.2739 62.2978 49.5606L62.176 49.7922C61.7996 49.5937 60.9028 49.8142 60.5817 49.9245Z" fill="#1D1D1B"/>
<path d="M53.5189 50.8287L53.4082 50.586C53.4636 50.564 54.6703 50.0346 55.246 50.4758L55.091 50.6853C54.7146 50.4096 53.8289 50.6963 53.5189 50.8287Z" fill="#1D1D1B"/>
<path d="M55.8763 50.8287L55.7656 50.586C55.821 50.564 57.0278 50.0346 57.6035 50.4758L57.4485 50.6853C57.072 50.3986 56.1863 50.6963 55.8763 50.8287Z" fill="#1D1D1B"/>
<path d="M58.2347 50.8287L58.124 50.586C58.1794 50.564 59.3862 50.0346 59.9619 50.4758L59.8069 50.6853C59.4304 50.3986 58.5447 50.6963 58.2347 50.8287Z" fill="#1D1D1B"/>
<path d="M60.5931 50.8287L60.4824 50.586C60.5378 50.564 61.7445 50.0346 62.3203 50.4758L62.1653 50.6853C61.7888 50.3986 60.9031 50.6963 60.5931 50.8287Z" fill="#1D1D1B"/>
<path d="M53.5075 51.6228L53.4189 51.3802C53.4743 51.3691 54.6589 50.9721 55.2236 51.2588L55.1018 51.4904C54.7254 51.2919 53.8175 51.5125 53.5075 51.6228Z" fill="#1D1D1B"/>
<path d="M55.8659 51.6228L55.7773 51.3802C55.8327 51.3691 57.0173 50.9721 57.582 51.2588L57.4713 51.4904C57.0838 51.2919 56.1759 51.5125 55.8659 51.6228Z" fill="#1D1D1B"/>
<path d="M58.2243 51.6228L58.1357 51.3802C58.1911 51.3691 59.3757 50.9721 59.9404 51.2588L59.8186 51.4904C59.4422 51.2919 58.5343 51.5125 58.2243 51.6228Z" fill="#1D1D1B"/>
<path d="M60.5817 51.6227L60.4932 51.3801C60.5485 51.369 61.7331 50.983 62.2978 51.2588L62.176 51.4903C61.7996 51.2918 60.8917 51.5124 60.5817 51.6227Z" fill="#1D1D1B"/>
<path d="M53.5075 52.4056L53.4189 52.163C53.4743 52.152 54.6589 51.766 55.2236 52.0417L55.1018 52.2733C54.7143 52.0748 53.8175 52.2954 53.5075 52.4056Z" fill="#1D1D1B"/>
<path d="M55.8659 52.4056L55.7773 52.163C55.8327 52.152 57.0173 51.766 57.582 52.0417L57.4713 52.2733C57.0838 52.0748 56.1759 52.2954 55.8659 52.4056Z" fill="#1D1D1B"/>
<path d="M58.2243 52.4056L58.1357 52.163C58.1911 52.152 59.3757 51.766 59.9404 52.0417L59.8186 52.2733C59.4422 52.0748 58.5343 52.2954 58.2243 52.4056Z" fill="#1D1D1B"/>
<path d="M60.5817 52.4056L60.4932 52.163C60.5485 52.152 61.7331 51.766 62.2978 52.0417L62.176 52.2733C61.7996 52.0748 60.9028 52.2954 60.5817 52.4056Z" fill="#1D1D1B"/>
<path d="M53.5189 53.3101L53.4082 53.0675C53.4636 53.0454 54.6703 52.5161 55.246 52.9572L55.091 53.1667C54.7146 52.88 53.8289 53.1778 53.5189 53.3101Z" fill="#1D1D1B"/>
<path d="M55.8763 53.3101L55.7656 53.0675C55.821 53.0454 57.0278 52.5161 57.6035 52.9572L57.4485 53.1667C57.072 52.88 56.1863 53.1778 55.8763 53.3101Z" fill="#1D1D1B"/>
<path d="M58.2354 53.3101L58.1357 53.0675C58.1911 53.0454 59.3979 52.5161 59.9736 52.9572L59.8186 53.1667C59.4311 52.88 58.5454 53.1778 58.2354 53.3101Z" fill="#1D1D1B"/>
<path d="M60.5931 53.3101L60.4824 53.0675C60.5378 53.0454 61.7335 52.5161 62.3203 52.9572L62.1653 53.1667C61.7888 52.88 60.9031 53.1778 60.5931 53.3101Z" fill="#1D1D1B"/>
<path d="M53.5075 54.104L53.4189 53.8504C53.4743 53.8393 54.6589 53.4423 55.2236 53.7291L55.1018 53.9606C54.7143 53.7621 53.8175 53.9937 53.5075 54.104Z" fill="#1D1D1B"/>
<path d="M55.8659 54.104L55.7773 53.8504C55.8327 53.8393 57.0173 53.4423 57.582 53.7291L57.4713 53.9606C57.0838 53.7621 56.1759 53.9937 55.8659 54.104Z" fill="#1D1D1B"/>
<path d="M58.2243 54.104L58.1357 53.8504C58.1911 53.8393 59.3757 53.4423 59.9404 53.7291L59.8186 53.9606C59.4422 53.7621 58.5343 53.9937 58.2243 54.104Z" fill="#1D1D1B"/>
<path d="M60.5817 54.104L60.4932 53.8504C60.5485 53.8393 61.7331 53.4423 62.2978 53.7291L62.176 53.9606C61.7996 53.7621 60.9028 53.9937 60.5817 54.104Z" fill="#1D1D1B"/>
<path d="M53.5075 54.8872L53.4189 54.6446C53.4743 54.6335 54.6589 54.2365 55.2236 54.5232L55.1018 54.7548C54.7254 54.5563 53.8175 54.7769 53.5075 54.8872Z" fill="#1D1D1B"/>
<path d="M55.8659 54.8872L55.7773 54.6446C55.8327 54.6335 57.0173 54.2365 57.582 54.5232L57.4713 54.7548C57.0838 54.5563 56.1759 54.7769 55.8659 54.8872Z" fill="#1D1D1B"/>
<path d="M58.2243 54.8872L58.1357 54.6446C58.1911 54.6335 59.3757 54.2365 59.9404 54.5232L59.8186 54.7548C59.4422 54.5563 58.5343 54.7769 58.2243 54.8872Z" fill="#1D1D1B"/>
<path d="M60.5817 54.8871L60.4932 54.6445C60.5485 54.6334 61.7331 54.2475 62.2978 54.5232L62.176 54.7547C61.7996 54.5562 60.8917 54.7768 60.5817 54.8871Z" fill="#1D1D1B"/>
<path d="M53.5189 55.7913L53.4082 55.5597C53.4636 55.5376 54.6703 55.0083 55.246 55.4494L55.091 55.6589C54.7035 55.3612 53.8289 55.6589 53.5189 55.7913Z" fill="#1D1D1B"/>
<path d="M55.8763 55.7913L55.7656 55.5597C55.821 55.5376 57.0278 55.0083 57.6035 55.4494L57.4485 55.6589C57.072 55.3612 56.1863 55.6589 55.8763 55.7913Z" fill="#1D1D1B"/>
<path d="M58.2347 55.7913L58.124 55.5597C58.1794 55.5376 59.3862 55.0083 59.9619 55.4494L59.8069 55.6589C59.4304 55.3612 58.5447 55.6589 58.2347 55.7913Z" fill="#1D1D1B"/>
<path d="M60.5931 55.7913L60.4824 55.5597C60.5378 55.5376 61.7445 55.0083 62.3203 55.4494L62.1653 55.6589C61.7888 55.3612 60.9031 55.6589 60.5931 55.7913Z" fill="#1D1D1B"/>
<path d="M67.5349 43.3958L67.4463 43.1421C67.5016 43.1311 68.6863 42.7341 69.2509 43.0208L69.1291 43.2524C68.7416 43.0649 67.8449 43.2855 67.5349 43.3958Z" fill="#1D1D1B"/>
<path d="M69.8933 43.3958L69.8047 43.1421C69.86 43.1311 71.0447 42.7341 71.6093 43.0208L71.4875 43.2524C71.1 43.0649 70.2033 43.2855 69.8933 43.3958Z" fill="#1D1D1B"/>
<path d="M72.2406 43.3958L72.1631 43.1422C72.307 43.098 73.5359 42.7451 74.1006 43.0208L73.9788 43.2524C73.5913 43.0539 72.5949 43.2855 72.2406 43.3958Z" fill="#1D1D1B"/>
<path d="M74.6091 43.3958L74.5205 43.1421C74.5759 43.1311 75.7605 42.7341 76.3251 43.0208L76.2033 43.2524C75.8269 43.0649 74.9191 43.2855 74.6091 43.3958Z" fill="#1D1D1B"/>
<path d="M67.5349 44.311L67.4463 44.0574C67.5016 44.0464 68.6863 43.6494 69.2509 43.9361L69.1291 44.1677C68.7416 43.9692 67.8449 44.2008 67.5349 44.311Z" fill="#1D1D1B"/>
<path d="M69.8933 44.311L69.8047 44.0574C69.86 44.0464 71.0447 43.6494 71.6093 43.9361L71.4875 44.1677C71.1 43.9802 70.2033 44.2008 69.8933 44.311Z" fill="#1D1D1B"/>
<path d="M72.2406 44.3111L72.1631 44.0574C72.307 44.0133 73.5359 43.6604 74.1006 43.9361L73.9788 44.1677C73.5913 43.9692 72.5949 44.2008 72.2406 44.3111Z" fill="#1D1D1B"/>
<path d="M74.6091 44.311L74.5205 44.0574C74.5759 44.0464 75.7605 43.6494 76.3251 43.9361L76.2033 44.1677C75.8269 43.9692 74.9191 44.2008 74.6091 44.311Z" fill="#1D1D1B"/>
<path d="M67.5349 45.0942L67.4463 44.8516C67.5016 44.8406 68.6863 44.4435 69.2509 44.7303L69.1291 44.9619C68.7416 44.7634 67.8449 44.9839 67.5349 45.0942Z" fill="#1D1D1B"/>
<path d="M69.8933 45.0942L69.8047 44.8516C69.86 44.8406 71.0447 44.4435 71.6093 44.7303L71.4875 44.9619C71.1 44.7634 70.2033 44.9839 69.8933 45.0942Z" fill="#1D1D1B"/>
<path d="M72.2406 45.094L72.1631 44.8404C72.307 44.7963 73.5359 44.4434 74.1006 44.7191L73.9788 44.9507C73.5913 44.7522 72.5949 44.9838 72.2406 45.094Z" fill="#1D1D1B"/>
<path d="M74.6091 45.0942L74.5205 44.8516C74.5759 44.8406 75.7605 44.4435 76.3251 44.7303L76.2033 44.9619C75.8269 44.7634 74.9191 44.9839 74.6091 45.0942Z" fill="#1D1D1B"/>
<path d="M67.5349 45.8772L67.4463 45.6345C67.5016 45.6235 68.6863 45.2265 69.2509 45.5132L69.1402 45.7448C68.7416 45.5463 67.8449 45.7669 67.5349 45.8772Z" fill="#1D1D1B"/>
<path d="M69.8929 45.8772L69.8154 45.6345C69.8708 45.6235 71.0554 45.2265 71.6201 45.5132L71.4983 45.7448C71.0997 45.5463 70.2029 45.7669 69.8929 45.8772Z" fill="#1D1D1B"/>
<path d="M72.2406 45.877L72.1631 45.6234C72.307 45.5792 73.5359 45.2263 74.1006 45.502L73.9788 45.7336C73.5913 45.5462 72.5949 45.7667 72.2406 45.877Z" fill="#1D1D1B"/>
<path d="M74.6091 45.8771L74.5205 45.6345C74.5759 45.6234 75.7605 45.2374 76.3251 45.5131L76.2033 45.7447C75.8159 45.5462 74.9191 45.7668 74.6091 45.8771Z" fill="#1D1D1B"/>
<path d="M67.5349 46.7815L67.4463 46.5388C67.5016 46.5278 68.6863 46.1308 69.2509 46.4175L69.1291 46.6491C68.7416 46.4506 67.8449 46.6822 67.5349 46.7815Z" fill="#1D1D1B"/>
<path d="M69.8933 46.7815L69.8047 46.5388C69.86 46.5278 71.0447 46.1308 71.6093 46.4175L71.4875 46.6491C71.1 46.4506 70.2033 46.6822 69.8933 46.7815Z" fill="#1D1D1B"/>
<path d="M72.2406 46.7813L72.1631 46.5276C72.307 46.4835 73.5359 46.1306 74.1006 46.4063L73.9788 46.6379C73.5913 46.4505 72.5949 46.682 72.2406 46.7813Z" fill="#1D1D1B"/>
<path d="M74.6091 46.7815L74.5205 46.5388C74.5759 46.5278 75.7605 46.1308 76.3251 46.4175L76.2144 46.6491C75.8269 46.4506 74.9191 46.6822 74.6091 46.7815Z" fill="#1D1D1B"/>
<path d="M67.5349 47.5754L67.4463 47.3218C67.5016 47.3108 68.6863 46.9138 69.2509 47.2005L69.1291 47.4321C68.7416 47.2336 67.8449 47.4652 67.5349 47.5754Z" fill="#1D1D1B"/>
<path d="M69.8933 47.5754L69.8047 47.3218C69.86 47.3108 71.0447 46.9138 71.6093 47.2005L71.4875 47.4321C71.1 47.2446 70.2033 47.4652 69.8933 47.5754Z" fill="#1D1D1B"/>
<path d="M72.2406 47.5755L72.1631 47.3218C72.307 47.2777 73.5359 46.9248 74.1006 47.2005L73.9788 47.4321C73.5913 47.2336 72.5949 47.4652 72.2406 47.5755Z" fill="#1D1D1B"/>
<path d="M74.6091 47.5754L74.5205 47.3218C74.5759 47.3108 75.7605 46.9138 76.3251 47.2005L76.2033 47.4321C75.8269 47.2336 74.9191 47.4652 74.6091 47.5754Z" fill="#1D1D1B"/>
<path d="M67.5349 48.3584L67.4463 48.1158C67.5016 48.1048 68.6973 47.7078 69.2731 48.1379L69.1181 48.3474C68.7306 48.0497 67.8449 48.2482 67.5349 48.3584Z" fill="#1D1D1B"/>
<path d="M69.8933 48.3584L69.8047 48.1158C69.86 48.1048 71.0557 47.7078 71.6315 48.1379L71.4765 48.3474C71.089 48.0497 70.2033 48.2482 69.8933 48.3584Z" fill="#1D1D1B"/>
<path d="M72.2406 48.3585L72.1631 48.1048C72.2184 48.0938 73.547 47.6968 74.1116 48.1269L73.9566 48.3364C73.5802 48.0497 72.5949 48.2482 72.2406 48.3585Z" fill="#1D1D1B"/>
<path d="M74.6091 48.3584L74.5205 48.1158C74.5759 48.1048 75.7716 47.7078 76.3473 48.1379L76.1923 48.3474C75.8048 48.0497 74.9191 48.2482 74.6091 48.3584Z" fill="#1D1D1B"/>
<path d="M67.5349 49.1415L67.4463 48.8989C67.5016 48.8878 68.6863 48.5018 69.2509 48.7776L69.1291 49.0091C68.7416 48.8106 67.8449 49.0312 67.5349 49.1415Z" fill="#1D1D1B"/>
<path d="M69.8929 49.1415L69.8154 48.8989C69.8708 48.8878 71.0554 48.5018 71.6201 48.7776L71.4983 49.0091C71.0997 48.7996 70.2029 49.0312 69.8929 49.1415Z" fill="#1D1D1B"/>
<path d="M72.2406 49.1414L72.1631 48.8878C72.307 48.8436 73.5359 48.4907 74.1006 48.7664L73.9788 48.998C73.5913 48.8106 72.5949 49.0311 72.2406 49.1414Z" fill="#1D1D1B"/>
<path d="M74.6091 49.1415L74.5205 48.8989C74.5759 48.8878 75.7605 48.5018 76.3251 48.7776L76.2033 49.0091C75.8269 48.7996 74.9191 49.0312 74.6091 49.1415Z" fill="#1D1D1B"/>
<path d="M67.5349 49.9245L67.4463 49.6819C67.5016 49.6709 68.6863 49.2739 69.2509 49.5606L69.1291 49.7922C68.7416 49.5937 67.8449 49.8142 67.5349 49.9245Z" fill="#1D1D1B"/>
<path d="M69.8933 49.9245L69.8047 49.6819C69.86 49.6709 71.0447 49.2739 71.6093 49.5606L71.4875 49.7922C71.1 49.5937 70.2033 49.8142 69.8933 49.9245Z" fill="#1D1D1B"/>
<path d="M72.2406 49.9244L72.1631 49.6707C72.307 49.6266 73.5359 49.2737 74.1006 49.5494L73.9788 49.781C73.5913 49.5825 72.5949 49.8141 72.2406 49.9244Z" fill="#1D1D1B"/>
<path d="M74.6091 49.9245L74.5205 49.6819C74.5759 49.6709 75.7605 49.2739 76.3251 49.5606L76.2033 49.7922C75.8269 49.5937 74.9191 49.8142 74.6091 49.9245Z" fill="#1D1D1B"/>
<path d="M67.5463 50.8287L67.4355 50.586C67.4909 50.564 68.6977 50.0346 69.2734 50.4758L69.1184 50.6853C68.7309 50.3986 67.8563 50.6963 67.5463 50.8287Z" fill="#1D1D1B"/>
<path d="M69.9037 50.8287L69.793 50.586C69.8483 50.564 71.0551 50.0346 71.6308 50.4758L71.4758 50.6853C71.0994 50.3986 70.2137 50.6963 69.9037 50.8287Z" fill="#1D1D1B"/>
<path d="M72.2627 50.8287L72.1631 50.5861C72.307 50.531 73.5581 50.0457 74.1227 50.4758L73.9677 50.6854C73.5802 50.3986 72.6059 50.6964 72.2627 50.8287Z" fill="#1D1D1B"/>
<path d="M74.6205 50.8287L74.5098 50.586C74.5651 50.564 75.7608 50.0346 76.3476 50.4758L76.1926 50.6853C75.8162 50.3986 74.9305 50.6963 74.6205 50.8287Z" fill="#1D1D1B"/>
<path d="M67.5349 51.6228L67.4463 51.3802C67.5016 51.3691 68.6863 50.9721 69.2509 51.2588L69.1402 51.4904C68.7416 51.2919 67.8449 51.5125 67.5349 51.6228Z" fill="#1D1D1B"/>
<path d="M69.8929 51.6228L69.8154 51.3802C69.8708 51.3691 71.0554 50.9721 71.6201 51.2588L71.4983 51.4904C71.0997 51.2919 70.2029 51.5125 69.8929 51.6228Z" fill="#1D1D1B"/>
<path d="M72.2406 51.6228L72.1631 51.3692C72.307 51.3251 73.5359 50.9722 74.1006 51.2479L73.9788 51.4795C73.5913 51.292 72.5949 51.5126 72.2406 51.6228Z" fill="#1D1D1B"/>
<path d="M74.6091 51.6228L74.5205 51.3802C74.5759 51.3691 75.7605 50.9721 76.3251 51.2588L76.2033 51.4904C75.8159 51.2919 74.9191 51.5125 74.6091 51.6228Z" fill="#1D1D1B"/>
<path d="M67.5349 52.4056L67.4463 52.163C67.5016 52.152 68.6863 51.766 69.2509 52.0417L69.1291 52.2733C68.7416 52.0748 67.8449 52.2954 67.5349 52.4056Z" fill="#1D1D1B"/>
<path d="M69.8929 52.4056L69.8154 52.163C69.8708 52.152 71.0554 51.766 71.6201 52.0417L71.4983 52.2733C71.0997 52.0748 70.2029 52.2954 69.8929 52.4056Z" fill="#1D1D1B"/>
<path d="M72.2406 52.4058L72.1631 52.1522C72.307 52.108 73.5359 51.7551 74.1006 52.0309L73.9788 52.2624C73.5913 52.075 72.5949 52.2955 72.2406 52.4058Z" fill="#1D1D1B"/>
<path d="M74.6091 52.4056L74.5205 52.163C74.5759 52.152 75.7605 51.766 76.3251 52.0417L76.2033 52.2733C75.8269 52.0748 74.9191 52.2954 74.6091 52.4056Z" fill="#1D1D1B"/>
<path d="M67.5463 53.3101L67.4355 53.0675C67.4909 53.0454 68.6866 52.5161 69.2734 52.9572L69.1184 53.1667C68.742 52.891 67.8563 53.1778 67.5463 53.3101Z" fill="#1D1D1B"/>
<path d="M69.9037 53.3101L69.793 53.0675C69.8483 53.0454 71.0551 52.5161 71.6308 52.9572L71.4758 53.1667C71.0994 52.88 70.2137 53.1778 69.9037 53.3101Z" fill="#1D1D1B"/>
<path d="M72.251 53.3099L72.1514 53.0673C72.2953 53.0122 73.5464 52.5269 74.111 52.957L73.956 53.1666C73.5796 52.8798 72.6053 53.1776 72.251 53.3099Z" fill="#1D1D1B"/>
<path d="M74.6201 53.3101L74.5205 53.0675C74.5759 53.0454 75.7716 52.5161 76.3583 52.9572L76.2033 53.1667C75.8159 52.88 74.9301 53.1778 74.6201 53.3101Z" fill="#1D1D1B"/>
<path d="M67.5349 54.104L67.4463 53.8504C67.5016 53.8393 68.6863 53.4423 69.2509 53.7291L69.1291 53.9606C68.7416 53.7621 67.8449 53.9937 67.5349 54.104Z" fill="#1D1D1B"/>
<path d="M69.8933 54.104L69.8047 53.8504C69.86 53.8393 71.0447 53.4423 71.6093 53.7291L71.4875 53.9606C71.1 53.7621 70.2033 53.9937 69.8933 54.104Z" fill="#1D1D1B"/>
<path d="M72.2406 54.104L72.1631 53.8504C72.307 53.8063 73.5359 53.4534 74.1006 53.7291L73.9788 53.9607C73.5913 53.7622 72.5949 53.9938 72.2406 54.104Z" fill="#1D1D1B"/>
<path d="M74.6091 54.104L74.5205 53.8504C74.5759 53.8393 75.7605 53.4423 76.3251 53.7291L76.2033 53.9606C75.8269 53.7621 74.9191 53.9937 74.6091 54.104Z" fill="#1D1D1B"/>
<path d="M67.5349 54.8872L67.4463 54.6446C67.5016 54.6335 68.6863 54.2365 69.2509 54.5232L69.1402 54.7548C68.7416 54.5563 67.8449 54.7769 67.5349 54.8872Z" fill="#1D1D1B"/>
<path d="M69.8929 54.8872L69.8154 54.6446C69.8708 54.6335 71.0554 54.2365 71.6201 54.5232L71.4983 54.7548C71.0997 54.5563 70.2029 54.7769 69.8929 54.8872Z" fill="#1D1D1B"/>
<path d="M72.2406 54.887L72.1631 54.6334C72.307 54.5892 73.5359 54.2363 74.1006 54.5121L73.9788 54.7436C73.5913 54.5562 72.5949 54.7767 72.2406 54.887Z" fill="#1D1D1B"/>
<path d="M74.6091 54.8871L74.5205 54.6445C74.5759 54.6334 75.7605 54.2475 76.3251 54.5232L76.2033 54.7547C75.8159 54.5562 74.9191 54.7768 74.6091 54.8871Z" fill="#1D1D1B"/>
<path d="M67.5463 55.7913L67.4355 55.5597C67.4909 55.5376 68.6977 55.0083 69.2734 55.4494L69.1184 55.6589C68.742 55.3612 67.8563 55.6589 67.5463 55.7913Z" fill="#1D1D1B"/>
<path d="M69.9037 55.7913L69.793 55.5597C69.8483 55.5376 71.0551 55.0083 71.6308 55.4494L71.4758 55.6589C71.0994 55.3612 70.2137 55.6589 69.9037 55.7913Z" fill="#1D1D1B"/>
<path d="M72.251 55.7914L72.1514 55.5488C72.2953 55.4936 73.5464 55.0084 74.111 55.4385L73.956 55.648C73.5796 55.3613 72.6053 55.659 72.251 55.7914Z" fill="#1D1D1B"/>
<path d="M74.6205 55.7913L74.5098 55.5597C74.5651 55.5376 75.7608 55.0083 76.3476 55.4494L76.1926 55.6589C75.8162 55.3612 74.9305 55.6589 74.6205 55.7913Z" fill="#1D1D1B"/>
</svg>
