<svg width="224" height="160" viewBox="0 0 224 160" fill="none" xmlns="http://www.w3.org/2000/svg">
<path d="M0.243164 159.924V0.0856323L112.54 159.454L57.2752 108.768L58.7514 159.924H0.243164Z" fill="#F16022"/>
<path d="M171.932 0.0856323V159.924L59.6348 0.567073L114.911 51.2527L113.424 0.0856323H171.932Z" fill="#F16022"/>
<path fill-rule="evenodd" clip-rule="evenodd" d="M198.467 25.483V10.4464H206.205C207.637 10.4464 208.733 10.5695 209.493 10.8158C210.253 11.0621 210.857 11.5212 211.327 12.193C211.797 12.8536 212.02 13.6709 212.02 14.6226C212.02 15.4623 211.841 16.1789 211.495 16.7835C211.137 17.3881 210.645 17.8807 210.03 18.2614C209.627 18.4965 209.079 18.698 208.397 18.8436C208.945 19.0339 209.348 19.2242 209.605 19.4034C209.773 19.5265 210.019 19.7953 210.343 20.1983C210.667 20.6014 210.891 20.9037 211.003 21.1276L213.239 25.483H207.994L205.523 20.8925C205.199 20.2991 204.919 19.9072 204.673 19.7281C204.338 19.5042 203.958 19.381 203.544 19.381H203.13V25.483H198.467ZM203.13 16.5371H205.087C205.299 16.5371 205.702 16.47 206.317 16.3356C206.619 16.2796 206.876 16.1229 207.066 15.8654C207.268 15.6078 207.357 15.3279 207.357 14.992C207.357 14.5106 207.212 14.1411 206.899 13.8724C206.585 13.6149 206.015 13.4805 205.165 13.4805H203.13V16.5371V16.5371Z" fill="black"/>
<path fill-rule="evenodd" clip-rule="evenodd" d="M206.63 0.179357V0.168161H206.641C210.801 0.59362 214.492 2.39622 217.299 5.08333C217.846 5.60956 218.361 6.16937 218.831 6.74038C221.76 10.3344 223.315 15.0368 222.812 20.0192V20.0304H222.8C222.129 26.6586 217.958 32.0888 212.322 34.6751C209.493 35.9627 206.295 36.5449 202.985 36.209V36.2202H202.973V36.209C197.997 35.7052 193.703 33.2308 190.784 29.648C187.865 26.0652 186.311 21.3515 186.814 16.3692H186.803V16.358H186.814C187.318 11.3756 189.789 7.07627 193.367 4.15404C196.957 1.23181 201.654 -0.324475 206.63 0.179357V0.179357ZM206.25 4.03088H206.239V4.01968C202.347 3.62781 198.646 4.85941 195.816 7.16584C192.998 9.47228 191.053 12.8424 190.661 16.7499V16.7611H190.65C190.259 20.6574 191.489 24.3633 193.792 27.196C196.096 30.0175 199.462 31.9656 203.365 32.3687V32.3575H203.376V32.3687C205.982 32.6374 208.498 32.1783 210.712 31.1595C215.151 29.1218 218.439 24.856 218.965 19.6385H218.954V19.6273H218.965C219.356 15.731 218.126 12.025 215.822 9.19237C215.453 8.73332 215.051 8.29667 214.626 7.8824C212.423 5.7775 209.515 4.36677 206.25 4.03088V4.03088Z" fill="black"/>
</svg>
