<svg width="480" height="480" viewBox="0 0 480 480" fill="none" xmlns="http://www.w3.org/2000/svg">
<circle cx="240" cy="240" r="240" fill="#FFFFEA"/>
<ellipse cx="240" cy="240.048" rx="90.24" ry="175.715" fill="#7E0D6C" fill-opacity="0.5"/>
<ellipse cx="240" cy="240.048" rx="90.24" ry="175.715" fill="black" fill-opacity="0.15"/>
<ellipse cx="90.2436" cy="175.708" rx="90.2436" ry="175.708" transform="matrix(-0.894899 -0.44627 0.446126 -0.89497 242.371 437.575)" fill="#00BFFF" fill-opacity="0.7"/>
<ellipse cx="90.2436" cy="175.708" rx="90.2436" ry="175.708" transform="matrix(-0.894899 -0.44627 0.446126 -0.89497 242.371 437.575)" fill="black" fill-opacity="0.15"/>
<ellipse cx="90.2514" cy="175.693" rx="90.2514" ry="175.693" transform="matrix(-0.608684 -0.793412 0.793294 -0.608838 155.558 418.623)" fill="#7E0D6C" fill-opacity="0.5"/>
<ellipse cx="90.2514" cy="175.693" rx="90.2514" ry="175.693" transform="matrix(-0.608684 -0.793412 0.793294 -0.608838 155.558 418.623)" fill="black" fill-opacity="0.15"/>
<ellipse cx="90.2574" cy="175.681" rx="90.2574" ry="175.681" transform="matrix(-0.190772 -0.981634 0.98162 -0.190846 84.7661 362.176)" fill="#7E0D6C" fill-opacity="0.5"/>
<ellipse cx="90.2574" cy="175.681" rx="90.2574" ry="175.681" transform="matrix(-0.190772 -0.981634 0.98162 -0.190846 84.7661 362.176)" fill="black" fill-opacity="0.15"/>
<ellipse cx="90.2569" cy="175.682" rx="90.2569" ry="175.682" transform="matrix(0.258771 -0.965939 0.965913 0.258868 46.9502 281.752)" fill="#7E0D6C" fill-opacity="0.5"/>
<ellipse cx="90.2569" cy="175.682" rx="90.2569" ry="175.682" transform="matrix(0.258771 -0.965939 0.965913 0.258868 46.9502 281.752)" fill="black" fill-opacity="0.15"/>
<ellipse cx="90.2503" cy="175.695" rx="90.2503" ry="175.695" transform="matrix(0.655984 -0.754775 0.754644 0.656134 48.21 192.887)" fill="#7E0D6C" fill-opacity="0.5"/>
<ellipse cx="90.2503" cy="175.695" rx="90.2503" ry="175.695" transform="matrix(0.655984 -0.754775 0.754644 0.656134 48.21 192.887)" fill="black" fill-opacity="0.15"/>
<ellipse cx="90.2426" cy="175.71" rx="90.2426" ry="175.71" transform="matrix(0.923852 -0.382749 0.382618 0.923907 89.3994 112.249)" fill="#7E0D6C" fill-opacity="0.5"/>
<ellipse cx="90.2426" cy="175.71" rx="90.2426" ry="175.71" transform="matrix(0.923852 -0.382749 0.382618 0.923907 89.3994 112.249)" fill="black" fill-opacity="0.15"/>
<g opacity="0.75" filter="url(#filter0_d_604_12638)">
<ellipse cx="240" cy="240.048" rx="96" ry="96.0193" fill="black"/>
</g>
<path d="M288.067 288.255L286.971 287.159H239.863C227.538 286.885 215.761 281.954 206.997 273.188C197.958 264.148 193.028 252.368 193.028 239.767C193.028 228.536 197.137 217.578 204.258 209.086C205.079 207.99 205.901 206.894 206.723 206.072C210.831 201.963 215.487 198.676 220.691 196.21C226.716 193.471 233.29 192.101 240.137 192.101C252.736 192.101 264.513 197.032 273.551 206.072C282.589 215.112 287.519 226.892 287.519 239.493C287.519 246.342 286.15 252.916 283.411 258.943L282.315 261.409L316.277 295.377L318.742 291.542C328.876 276.201 334.08 258.395 334.08 240.041C334.08 214.838 324.22 191.28 306.417 173.473C288.615 155.667 265.061 145.805 239.863 145.805C221.513 145.805 203.71 151.01 188.372 161.146C181.799 165.529 175.774 170.734 170.57 176.487C154.684 193.745 145.92 216.208 145.92 239.767C145.92 255.108 149.754 270.449 156.875 283.872C163.723 297.021 173.856 308.526 185.907 317.019C201.793 328.25 220.417 334.277 239.863 334.277H333.258L303.405 304.417L288.067 288.255Z" fill="white"/>
<defs>
<filter id="filter0_d_604_12638" x="94" y="94.0289" width="292" height="292.039" filterUnits="userSpaceOnUse" color-interpolation-filters="sRGB">
<feFlood flood-opacity="0" result="BackgroundImageFix"/>
<feColorMatrix in="SourceAlpha" type="matrix" values="0 0 0 0 0 0 0 0 0 0 0 0 0 0 0 0 0 0 127 0" result="hardAlpha"/>
<feOffset/>
<feGaussianBlur stdDeviation="25"/>
<feComposite in2="hardAlpha" operator="out"/>
<feColorMatrix type="matrix" values="0 0 0 0 0 0 0 0 0 0 0 0 0 0 0 0 0 0 1 0"/>
<feBlend mode="normal" in2="BackgroundImageFix" result="effect1_dropShadow_604_12638"/>
<feBlend mode="normal" in="SourceGraphic" in2="effect1_dropShadow_604_12638" result="shape"/>
</filter>
</defs>
</svg>
