<svg width="800" height="560" viewBox="0 0 800 560" fill="none" xmlns="http://www.w3.org/2000/svg">
<circle cx="520" cy="280" r="200" stroke="#050D08" stroke-dasharray="2 2"/>
<circle cx="280" cy="280" r="200" stroke="#050D08" stroke-dasharray="2 2"/>
<circle cx="400" cy="360" r="80" stroke="#050D08" stroke-dasharray="2 2"/>
<circle cx="400" cy="440" r="40" stroke="#050D08" stroke-dasharray="2 2"/>
<circle cx="400" cy="200" r="120" stroke="#050D08" stroke-dasharray="2 2"/>
<path d="M320.229 288.863C320.077 285.666 320 282.449 320 279.215C320 213.782 351.422 155.688 400 119.2C448.578 155.688 480 213.782 480 279.215C480 282.449 479.923 285.666 479.771 288.863C473.165 294.746 465.903 299.91 458.111 304.231C443.529 288.825 422.887 279.215 400 279.215C377.113 279.215 356.471 288.825 341.889 304.231C334.097 299.91 326.835 294.746 320.229 288.863Z" fill="#48C072" fill-opacity="0.25"/>
</svg>
