<svg width="560" height="560" viewBox="0 0 560 560" fill="none" xmlns="http://www.w3.org/2000/svg">
<path d="M180.786 314.079C180.596 310.082 180.5 306.062 180.5 302.018C180.5 220.227 219.778 147.61 280.5 102C341.222 147.61 380.5 220.227 380.5 302.018C380.5 306.062 380.404 310.082 380.214 314.079C371.956 321.432 362.879 327.887 353.138 333.289C334.911 314.032 309.108 302.018 280.5 302.018C251.892 302.018 226.089 314.032 207.862 333.289C198.121 327.887 189.044 321.432 180.786 314.079Z" fill="#48C072"/>
<path d="M166.428 402.289H158.19L170.743 365.925H180.651L193.186 402.289H184.947L175.839 374.235H175.555L166.428 402.289ZM165.913 387.995H185.374V393.997H165.913V387.995ZM191.735 372.264V365.925H221.6V372.264H210.467V402.289H202.867V372.264H191.735ZM226.518 402.289V365.925H234.206V380.929H249.813V365.925H257.484V402.289H249.813V387.268H234.206V402.289H226.518ZM263.823 402.289V365.925H271.511V395.95H287.1V402.289H263.823ZM292.192 402.289V365.925H316.695V372.264H299.88V380.929H315.434V387.268H299.88V395.95H316.766V402.289H292.192Z" fill="#F9FDFA"/>
<path d="M335.256 402.289V365.925H355.55V367.985H337.475V383.059H353.864V385.119H337.475V402.289H335.256ZM366.772 365.925V402.289H364.553V365.925H366.772ZM374.882 367.985V365.925H400.361V367.985H388.731V402.289H386.512V367.985H374.882Z" fill="#F9FDFA"/>
<path d="M19.358 453.289H17.5114L22.8523 438.743H24.6705L30.0114 453.289H28.1648L23.8182 441.044H23.7045L19.358 453.289ZM20.0398 447.607H27.483V449.169H20.0398V447.607ZM29.7823 440.306V438.743H40.6914V440.306H36.1175V453.289H34.3562V440.306H29.7823ZM43.4098 453.289V438.743H45.1712V445.221H52.9268V438.743H54.6882V453.289H52.9268V446.783H45.1712V453.289H43.4098ZM58.2145 453.289V438.743H59.9759V451.726H66.7372V453.289H58.2145ZM69.4645 453.289V438.743H78.2429V440.306H71.2259V445.221H77.7884V446.783H71.2259V451.726H78.3565V453.289H69.4645ZM81.4176 453.289V438.743H90.1392V440.306H83.179V445.221H89.4858V446.783H83.179V453.289H81.4176ZM94.9173 438.743V453.289H93.1559V438.743H94.9173ZM97.6534 440.306V438.743H108.562V440.306H103.989V453.289H102.227V440.306H97.6534ZM116.906 453.289V438.743H125.627V440.306H118.667V445.221H124.974V446.783H118.667V453.289H116.906ZM140.917 446.016C140.917 447.55 140.64 448.876 140.086 449.993C139.532 451.111 138.772 451.973 137.806 452.579C136.84 453.185 135.737 453.488 134.496 453.488C133.256 453.488 132.153 453.185 131.187 452.579C130.221 451.973 129.461 451.111 128.907 449.993C128.353 448.876 128.076 447.55 128.076 446.016C128.076 444.482 128.353 443.156 128.907 442.039C129.461 440.921 130.221 440.06 131.187 439.454C132.153 438.848 133.256 438.544 134.496 438.544C135.737 438.544 136.84 438.848 137.806 439.454C138.772 440.06 139.532 440.921 140.086 442.039C140.64 443.156 140.917 444.482 140.917 446.016ZM139.212 446.016C139.212 444.757 139.002 443.694 138.58 442.827C138.164 441.961 137.598 441.305 136.883 440.86C136.173 440.415 135.377 440.192 134.496 440.192C133.616 440.192 132.818 440.415 132.103 440.86C131.393 441.305 130.827 441.961 130.406 442.827C129.989 443.694 129.781 444.757 129.781 446.016C129.781 447.276 129.989 448.339 130.406 449.205C130.827 450.071 131.393 450.727 132.103 451.172C132.818 451.617 133.616 451.84 134.496 451.84C135.377 451.84 136.173 451.617 136.883 451.172C137.598 450.727 138.164 450.071 138.58 449.205C139.002 448.339 139.212 447.276 139.212 446.016ZM143.879 453.289V438.743H148.793C149.93 438.743 150.862 438.937 151.592 439.326C152.321 439.709 152.861 440.237 153.211 440.91C153.561 441.582 153.737 442.347 153.737 443.204C153.737 444.061 153.561 444.821 153.211 445.483C152.861 446.146 152.323 446.667 151.599 447.046C150.874 447.42 149.949 447.607 148.822 447.607H144.844V446.016H148.765C149.541 446.016 150.166 445.902 150.64 445.675C151.118 445.448 151.464 445.126 151.677 444.709C151.895 444.288 152.004 443.786 152.004 443.204C152.004 442.621 151.895 442.112 151.677 441.677C151.459 441.241 151.111 440.905 150.633 440.668C150.155 440.427 149.522 440.306 148.737 440.306H145.64V453.289H143.879ZM150.725 446.755L154.305 453.289H152.259L148.737 446.755H150.725ZM162.297 453.289V438.743H171.018V440.306H164.058V445.221H170.365V446.783H164.058V453.289H162.297ZM175.796 438.743V453.289H174.035V438.743H175.796ZM178.532 440.306V438.743H189.441V440.306H184.868V453.289H183.106V440.306H178.532ZM203.694 438.743V453.289H201.989L194.063 441.868H193.921V453.289H192.16V438.743H193.864L201.819 450.192H201.961V438.743H203.694ZM207.218 453.289V438.743H215.997V440.306H208.98V445.221H215.542V446.783H208.98V451.726H216.11V453.289H207.218ZM227.126 442.38C227.041 441.66 226.695 441.101 226.089 440.704C225.483 440.306 224.74 440.107 223.859 440.107C223.215 440.107 222.652 440.211 222.169 440.419C221.69 440.628 221.316 440.914 221.047 441.279C220.781 441.643 220.649 442.058 220.649 442.522C220.649 442.91 220.741 443.244 220.926 443.523C221.115 443.798 221.357 444.027 221.65 444.212C221.944 444.392 222.252 444.541 222.574 444.66C222.895 444.773 223.191 444.866 223.461 444.937L224.939 445.334C225.317 445.434 225.739 445.571 226.203 445.746C226.672 445.921 227.119 446.161 227.545 446.464C227.976 446.762 228.331 447.145 228.61 447.614C228.89 448.083 229.029 448.658 229.029 449.34C229.029 450.126 228.824 450.836 228.412 451.471C228.004 452.105 227.408 452.609 226.622 452.983C225.841 453.357 224.891 453.545 223.774 453.545C222.732 453.545 221.83 453.376 221.068 453.04C220.31 452.704 219.714 452.235 219.278 451.634C218.847 451.033 218.603 450.334 218.547 449.539H220.365C220.412 450.088 220.597 450.543 220.919 450.902C221.245 451.258 221.657 451.523 222.154 451.698C222.656 451.868 223.196 451.954 223.774 451.954C224.446 451.954 225.05 451.845 225.585 451.627C226.12 451.404 226.544 451.097 226.856 450.704C227.169 450.306 227.325 449.842 227.325 449.312C227.325 448.829 227.19 448.436 226.92 448.133C226.65 447.83 226.295 447.583 225.855 447.394C225.414 447.205 224.939 447.039 224.427 446.897L222.637 446.385C221.501 446.059 220.601 445.592 219.939 444.986C219.276 444.38 218.944 443.587 218.944 442.607C218.944 441.793 219.164 441.082 219.605 440.476C220.05 439.866 220.646 439.392 221.395 439.056C222.147 438.715 222.988 438.544 223.916 438.544C224.853 438.544 225.687 438.713 226.416 439.049C227.145 439.38 227.723 439.835 228.149 440.412C228.58 440.99 228.807 441.646 228.831 442.38H227.126ZM239.88 442.38C239.795 441.66 239.449 441.101 238.843 440.704C238.237 440.306 237.494 440.107 236.613 440.107C235.969 440.107 235.406 440.211 234.923 440.419C234.444 440.628 234.07 440.914 233.8 441.279C233.535 441.643 233.403 442.058 233.403 442.522C233.403 442.91 233.495 443.244 233.68 443.523C233.869 443.798 234.111 444.027 234.404 444.212C234.698 444.392 235.005 444.541 235.327 444.66C235.649 444.773 235.945 444.866 236.215 444.937L237.692 445.334C238.071 445.434 238.493 445.571 238.957 445.746C239.425 445.921 239.873 446.161 240.299 446.464C240.73 446.762 241.085 447.145 241.364 447.614C241.644 448.083 241.783 448.658 241.783 449.34C241.783 450.126 241.577 450.836 241.165 451.471C240.758 452.105 240.162 452.609 239.376 452.983C238.594 453.357 237.645 453.545 236.528 453.545C235.486 453.545 234.584 453.376 233.822 453.04C233.064 452.704 232.468 452.235 232.032 451.634C231.601 451.033 231.357 450.334 231.3 449.539H233.119C233.166 450.088 233.351 450.543 233.673 450.902C233.999 451.258 234.411 451.523 234.908 451.698C235.41 451.868 235.95 451.954 236.528 451.954C237.2 451.954 237.804 451.845 238.339 451.627C238.874 451.404 239.298 451.097 239.61 450.704C239.923 450.306 240.079 449.842 240.079 449.312C240.079 448.829 239.944 448.436 239.674 448.133C239.404 447.83 239.049 447.583 238.609 447.394C238.168 447.205 237.692 447.039 237.181 446.897L235.391 446.385C234.255 446.059 233.355 445.592 232.692 444.986C232.03 444.38 231.698 443.587 231.698 442.607C231.698 441.793 231.918 441.082 232.359 440.476C232.804 439.866 233.4 439.392 234.148 439.056C234.901 438.715 235.742 438.544 236.67 438.544C237.607 438.544 238.441 438.713 239.17 439.049C239.899 439.38 240.477 439.835 240.903 440.412C241.334 440.99 241.561 441.646 241.585 442.38H239.88ZM254.196 453.488C253.24 453.488 252.416 453.312 251.725 452.962C251.033 452.612 250.501 452.131 250.127 451.52C249.753 450.91 249.566 450.211 249.566 449.425C249.566 448.819 249.694 448.282 249.949 447.813C250.21 447.339 250.567 446.902 251.022 446.499C251.481 446.092 252.009 445.685 252.605 445.277L254.708 443.715C255.12 443.445 255.449 443.156 255.695 442.848C255.946 442.541 256.071 442.138 256.071 441.641C256.071 441.272 255.908 440.914 255.581 440.569C255.259 440.223 254.836 440.05 254.31 440.05C253.941 440.05 253.614 440.145 253.33 440.334C253.051 440.519 252.83 440.756 252.669 441.044C252.513 441.329 252.435 441.622 252.435 441.925C252.435 442.266 252.527 442.612 252.712 442.962C252.901 443.308 253.141 443.663 253.429 444.027C253.723 444.387 254.026 444.757 254.338 445.135L261.015 453.289H258.998L253.486 446.641C252.975 446.026 252.511 445.467 252.094 444.965C251.677 444.463 251.346 443.968 251.1 443.481C250.854 442.993 250.73 442.465 250.73 441.897C250.73 441.243 250.875 440.67 251.164 440.178C251.457 439.681 251.867 439.295 252.392 439.02C252.923 438.741 253.543 438.601 254.253 438.601C254.982 438.601 255.61 438.743 256.135 439.027C256.661 439.307 257.066 439.678 257.35 440.143C257.634 440.602 257.776 441.101 257.776 441.641C257.776 442.337 257.603 442.941 257.257 443.452C256.912 443.964 256.441 444.439 255.844 444.88L252.946 447.039C252.293 447.522 251.85 447.991 251.618 448.445C251.386 448.9 251.27 449.226 251.27 449.425C251.27 449.88 251.389 450.303 251.625 450.696C251.862 451.089 252.196 451.407 252.627 451.648C253.058 451.89 253.562 452.01 254.14 452.01C254.689 452.01 255.224 451.894 255.745 451.662C256.266 451.426 256.737 451.085 257.158 450.64C257.584 450.195 257.92 449.66 258.167 449.035C258.417 448.41 258.543 447.706 258.543 446.925H260.162C260.162 447.891 260.051 448.679 259.828 449.29C259.606 449.901 259.355 450.379 259.076 450.725C258.796 451.071 258.571 451.329 258.401 451.499C258.344 451.57 258.292 451.641 258.245 451.712C258.197 451.783 258.145 451.854 258.088 451.925C257.62 452.451 257.028 452.844 256.313 453.104C255.598 453.36 254.892 453.488 254.196 453.488ZM268.722 453.289V438.743H270.484V451.726H277.245V453.289H268.722ZM279.972 453.289V438.743H288.751V440.306H281.734V445.221H288.296V446.783H281.734V451.726H288.864V453.289H279.972ZM293.687 438.743V453.289H291.925V438.743H293.687ZM305.173 442.38C305.088 441.66 304.742 441.101 304.136 440.704C303.53 440.306 302.787 440.107 301.906 440.107C301.262 440.107 300.699 440.211 300.216 440.419C299.737 440.628 299.363 440.914 299.093 441.279C298.828 441.643 298.696 442.058 298.696 442.522C298.696 442.91 298.788 443.244 298.973 443.523C299.162 443.798 299.404 444.027 299.697 444.212C299.991 444.392 300.298 444.541 300.62 444.66C300.942 444.773 301.238 444.866 301.508 444.937L302.985 445.334C303.364 445.434 303.786 445.571 304.25 445.746C304.718 445.921 305.166 446.161 305.592 446.464C306.023 446.762 306.378 447.145 306.657 447.614C306.937 448.083 307.076 448.658 307.076 449.34C307.076 450.126 306.87 450.836 306.458 451.471C306.051 452.105 305.455 452.609 304.669 452.983C303.887 453.357 302.938 453.545 301.821 453.545C300.779 453.545 299.877 453.376 299.115 453.04C298.357 452.704 297.761 452.235 297.325 451.634C296.894 451.033 296.65 450.334 296.593 449.539H298.412C298.459 450.088 298.644 450.543 298.966 450.902C299.292 451.258 299.704 451.523 300.201 451.698C300.703 451.868 301.243 451.954 301.821 451.954C302.493 451.954 303.097 451.845 303.632 451.627C304.167 451.404 304.591 451.097 304.903 450.704C305.216 450.306 305.372 449.842 305.372 449.312C305.372 448.829 305.237 448.436 304.967 448.133C304.697 447.83 304.342 447.583 303.902 447.394C303.461 447.205 302.985 447.039 302.474 446.897L300.684 446.385C299.548 446.059 298.648 445.592 297.985 444.986C297.323 444.38 296.991 443.587 296.991 442.607C296.991 441.793 297.211 441.082 297.652 440.476C298.097 439.866 298.693 439.392 299.441 439.056C300.194 438.715 301.035 438.544 301.963 438.544C302.9 438.544 303.734 438.713 304.463 439.049C305.192 439.38 305.77 439.835 306.196 440.412C306.627 440.99 306.854 441.646 306.877 442.38H305.173ZM319.518 438.743H321.279V448.374C321.279 449.368 321.045 450.256 320.576 451.037C320.112 451.814 319.456 452.427 318.609 452.877C317.761 453.322 316.767 453.545 315.626 453.545C314.485 453.545 313.49 453.322 312.643 452.877C311.795 452.427 311.137 451.814 310.668 451.037C310.204 450.256 309.972 449.368 309.972 448.374V438.743H311.734V448.232C311.734 448.942 311.89 449.574 312.202 450.128C312.515 450.678 312.96 451.111 313.538 451.428C314.12 451.741 314.816 451.897 315.626 451.897C316.435 451.897 317.131 451.741 317.714 451.428C318.296 451.111 318.741 450.678 319.049 450.128C319.362 449.574 319.518 448.942 319.518 448.232V438.743ZM324.797 453.289V438.743H329.711C330.848 438.743 331.78 438.937 332.51 439.326C333.239 439.709 333.779 440.237 334.129 440.91C334.479 441.582 334.654 442.347 334.654 443.204C334.654 444.061 334.479 444.821 334.129 445.483C333.779 446.146 333.241 446.667 332.517 447.046C331.792 447.42 330.867 447.607 329.74 447.607H325.762V446.016H329.683C330.459 446.016 331.084 445.902 331.558 445.675C332.036 445.448 332.382 445.126 332.595 444.709C332.813 444.288 332.922 443.786 332.922 443.204C332.922 442.621 332.813 442.112 332.595 441.677C332.377 441.241 332.029 440.905 331.551 440.668C331.073 440.427 330.44 440.306 329.654 440.306H326.558V453.289H324.797ZM331.643 446.755L335.223 453.289H333.177L329.654 446.755H331.643ZM337.589 453.289V438.743H346.368V440.306H339.351V445.221H345.913V446.783H339.351V451.726H346.482V453.289H337.589ZM363.122 442.38C363.037 441.66 362.691 441.101 362.085 440.704C361.479 440.306 360.736 440.107 359.855 440.107C359.211 440.107 358.648 440.211 358.165 440.419C357.687 440.628 357.313 440.914 357.043 441.279C356.777 441.643 356.645 442.058 356.645 442.522C356.645 442.91 356.737 443.244 356.922 443.523C357.111 443.798 357.353 444.027 357.646 444.212C357.94 444.392 358.248 444.541 358.57 444.66C358.892 444.773 359.188 444.866 359.457 444.937L360.935 445.334C361.313 445.434 361.735 445.571 362.199 445.746C362.668 445.921 363.115 446.161 363.541 446.464C363.972 446.762 364.327 447.145 364.607 447.614C364.886 448.083 365.026 448.658 365.026 449.34C365.026 450.126 364.82 450.836 364.408 451.471C364 452.105 363.404 452.609 362.618 452.983C361.837 453.357 360.887 453.545 359.77 453.545C358.728 453.545 357.826 453.376 357.064 453.04C356.306 452.704 355.71 452.235 355.274 451.634C354.843 451.033 354.599 450.334 354.543 449.539H356.361C356.408 450.088 356.593 450.543 356.915 450.902C357.241 451.258 357.653 451.523 358.151 451.698C358.652 451.868 359.192 451.954 359.77 451.954C360.442 451.954 361.046 451.845 361.581 451.627C362.116 451.404 362.54 451.097 362.852 450.704C363.165 450.306 363.321 449.842 363.321 449.312C363.321 448.829 363.186 448.436 362.916 448.133C362.646 447.83 362.291 447.583 361.851 447.394C361.411 447.205 360.935 447.039 360.423 446.897L358.634 446.385C357.497 446.059 356.598 445.592 355.935 444.986C355.272 444.38 354.94 443.587 354.94 442.607C354.94 441.793 355.161 441.082 355.601 440.476C356.046 439.866 356.643 439.392 357.391 439.056C358.143 438.715 358.984 438.544 359.912 438.544C360.849 438.544 361.683 438.713 362.412 439.049C363.141 439.38 363.719 439.835 364.145 440.412C364.576 440.99 364.803 441.646 364.827 442.38H363.122ZM380.194 446.016C380.194 447.55 379.917 448.876 379.363 449.993C378.809 451.111 378.049 451.973 377.083 452.579C376.118 453.185 375.014 453.488 373.774 453.488C372.533 453.488 371.43 453.185 370.464 452.579C369.498 451.973 368.738 451.111 368.184 449.993C367.63 448.876 367.353 447.55 367.353 446.016C367.353 444.482 367.63 443.156 368.184 442.039C368.738 440.921 369.498 440.06 370.464 439.454C371.43 438.848 372.533 438.544 373.774 438.544C375.014 438.544 376.118 438.848 377.083 439.454C378.049 440.06 378.809 440.921 379.363 442.039C379.917 443.156 380.194 444.482 380.194 446.016ZM378.49 446.016C378.49 444.757 378.279 443.694 377.858 442.827C377.441 441.961 376.875 441.305 376.16 440.86C375.45 440.415 374.654 440.192 373.774 440.192C372.893 440.192 372.095 440.415 371.38 440.86C370.67 441.305 370.104 441.961 369.683 442.827C369.266 443.694 369.058 444.757 369.058 446.016C369.058 447.276 369.266 448.339 369.683 449.205C370.104 450.071 370.67 450.727 371.38 451.172C372.095 451.617 372.893 451.84 373.774 451.84C374.654 451.84 375.45 451.617 376.16 451.172C376.875 450.727 377.441 450.071 377.858 449.205C378.279 448.339 378.49 447.276 378.49 446.016ZM383.156 453.289V438.743H384.917V451.726H391.679V453.289H383.156ZM403.951 438.743H405.713V448.374C405.713 449.368 405.478 450.256 405.01 451.037C404.546 451.814 403.89 452.427 403.042 452.877C402.195 453.322 401.2 453.545 400.059 453.545C398.918 453.545 397.924 453.322 397.076 452.877C396.229 452.427 395.571 451.814 395.102 451.037C394.638 450.256 394.406 449.368 394.406 448.374V438.743H396.167V448.232C396.167 448.942 396.324 449.574 396.636 450.128C396.949 450.678 397.394 451.111 397.971 451.428C398.554 451.741 399.25 451.897 400.059 451.897C400.869 451.897 401.565 451.741 402.147 451.428C402.73 451.111 403.175 450.678 403.483 450.128C403.795 449.574 403.951 448.942 403.951 448.232V438.743ZM408.435 440.306V438.743H419.344V440.306H414.77V453.289H413.009V440.306H408.435ZM423.824 438.743V453.289H422.062V438.743H423.824ZM439.628 446.016C439.628 447.55 439.351 448.876 438.797 449.993C438.243 451.111 437.483 451.973 436.517 452.579C435.551 453.185 434.448 453.488 433.207 453.488C431.967 453.488 430.864 453.185 429.898 452.579C428.932 451.973 428.172 451.111 427.618 449.993C427.064 448.876 426.787 447.55 426.787 446.016C426.787 444.482 427.064 443.156 427.618 442.039C428.172 440.921 428.932 440.06 429.898 439.454C430.864 438.848 431.967 438.544 433.207 438.544C434.448 438.544 435.551 438.848 436.517 439.454C437.483 440.06 438.243 440.921 438.797 442.039C439.351 443.156 439.628 444.482 439.628 446.016ZM437.923 446.016C437.923 444.757 437.713 443.694 437.291 442.827C436.875 441.961 436.309 441.305 435.594 440.86C434.884 440.415 434.088 440.192 433.207 440.192C432.327 440.192 431.529 440.415 430.814 440.86C430.104 441.305 429.538 441.961 429.116 442.827C428.7 443.694 428.491 444.757 428.491 446.016C428.491 447.276 428.7 448.339 429.116 449.205C429.538 450.071 430.104 450.727 430.814 451.172C431.529 451.617 432.327 451.84 433.207 451.84C434.088 451.84 434.884 451.617 435.594 451.172C436.309 450.727 436.875 450.071 437.291 449.205C437.713 448.339 437.923 447.276 437.923 446.016ZM454.124 438.743V453.289H452.419L444.493 441.868H444.351V453.289H442.589V438.743H444.294L452.249 450.192H452.391V438.743H454.124ZM465.603 442.38C465.517 441.66 465.172 441.101 464.566 440.704C463.96 440.306 463.216 440.107 462.336 440.107C461.692 440.107 461.128 440.211 460.645 440.419C460.167 440.628 459.793 440.914 459.523 441.279C459.258 441.643 459.125 442.058 459.125 442.522C459.125 442.91 459.218 443.244 459.402 443.523C459.592 443.798 459.833 444.027 460.127 444.212C460.42 444.392 460.728 444.541 461.05 444.66C461.372 444.773 461.668 444.866 461.938 444.937L463.415 445.334C463.794 445.434 464.215 445.571 464.679 445.746C465.148 445.921 465.596 446.161 466.022 446.464C466.453 446.762 466.808 447.145 467.087 447.614C467.366 448.083 467.506 448.658 467.506 449.34C467.506 450.126 467.3 450.836 466.888 451.471C466.481 452.105 465.884 452.609 465.098 452.983C464.317 453.357 463.368 453.545 462.25 453.545C461.209 453.545 460.307 453.376 459.544 453.04C458.787 452.704 458.19 452.235 457.755 451.634C457.324 451.033 457.08 450.334 457.023 449.539H458.841C458.889 450.088 459.073 450.543 459.395 450.902C459.722 451.258 460.134 451.523 460.631 451.698C461.133 451.868 461.673 451.954 462.25 451.954C462.923 451.954 463.526 451.845 464.061 451.627C464.596 451.404 465.02 451.097 465.333 450.704C465.645 450.306 465.801 449.842 465.801 449.312C465.801 448.829 465.667 448.436 465.397 448.133C465.127 447.83 464.772 447.583 464.331 447.394C463.891 447.205 463.415 447.039 462.904 446.897L461.114 446.385C459.978 446.059 459.078 445.592 458.415 444.986C457.752 444.38 457.421 443.587 457.421 442.607C457.421 441.793 457.641 441.082 458.081 440.476C458.526 439.866 459.123 439.392 459.871 439.056C460.624 438.715 461.464 438.544 462.392 438.544C463.33 438.544 464.163 438.713 464.892 439.049C465.622 439.38 466.199 439.835 466.625 440.412C467.056 440.99 467.283 441.646 467.307 442.38H465.603ZM476.027 453.289V438.743H481.112C482.125 438.743 482.961 438.919 483.619 439.269C484.277 439.615 484.768 440.081 485.089 440.668C485.411 441.25 485.572 441.897 485.572 442.607C485.572 443.232 485.461 443.748 485.239 444.155C485.021 444.562 484.732 444.884 484.372 445.121C484.017 445.358 483.631 445.533 483.214 445.647V445.789C483.66 445.817 484.107 445.973 484.557 446.258C485.007 446.542 485.383 446.949 485.686 447.479C485.989 448.009 486.141 448.658 486.141 449.425C486.141 450.154 485.975 450.81 485.643 451.393C485.312 451.975 484.789 452.437 484.074 452.777C483.359 453.118 482.429 453.289 481.283 453.289H476.027ZM477.788 451.726H481.283C482.433 451.726 483.25 451.504 483.733 451.059C484.221 450.609 484.464 450.064 484.464 449.425C484.464 448.933 484.339 448.478 484.088 448.062C483.837 447.64 483.48 447.304 483.016 447.053C482.552 446.797 482.002 446.67 481.368 446.67H477.788V451.726ZM477.788 445.135H481.055C481.586 445.135 482.064 445.031 482.49 444.823C482.921 444.615 483.262 444.321 483.513 443.942C483.768 443.563 483.896 443.118 483.896 442.607C483.896 441.968 483.674 441.426 483.229 440.981C482.784 440.531 482.078 440.306 481.112 440.306H477.788V445.135ZM489.035 453.289V438.743H493.95C495.086 438.743 496.019 438.937 496.748 439.326C497.477 439.709 498.017 440.237 498.367 440.91C498.718 441.582 498.893 442.347 498.893 443.204C498.893 444.061 498.718 444.821 498.367 445.483C498.017 446.146 497.479 446.667 496.755 447.046C496.031 447.42 495.105 447.607 493.978 447.607H490.001V446.016H493.921C494.698 446.016 495.323 445.902 495.796 445.675C496.274 445.448 496.62 445.126 496.833 444.709C497.051 444.288 497.16 443.786 497.16 443.204C497.16 442.621 497.051 442.112 496.833 441.677C496.615 441.241 496.267 440.905 495.789 440.668C495.311 440.427 494.679 440.306 493.893 440.306H490.796V453.289H489.035ZM495.881 446.755L499.461 453.289H497.415L493.893 446.755H495.881ZM502.424 453.289H500.578L505.919 438.743H507.737L513.078 453.289H511.231L506.885 441.044H506.771L502.424 453.289ZM503.106 447.607H510.549V449.169H503.106V447.607ZM526.877 438.743V453.289H525.173L517.247 441.868H517.105V453.289H515.343V438.743H517.048L525.002 450.192H525.145V438.743H526.877ZM534.891 453.289H530.402V438.743H535.089C536.5 438.743 537.708 439.035 538.712 439.617C539.715 440.195 540.485 441.026 541.02 442.11C541.555 443.189 541.822 444.482 541.822 445.988C541.822 447.503 541.553 448.807 541.013 449.901C540.473 450.99 539.687 451.828 538.655 452.415C537.623 452.998 536.368 453.289 534.891 453.289ZM532.163 451.726H534.777C535.98 451.726 536.976 451.494 537.767 451.03C538.558 450.566 539.147 449.906 539.536 449.049C539.924 448.192 540.118 447.171 540.118 445.988C540.118 444.813 539.926 443.803 539.543 442.955C539.159 442.103 538.586 441.449 537.824 440.995C537.062 440.536 536.112 440.306 534.976 440.306H532.163V451.726Z" fill="#F9FDFA"/>
</svg>
