<svg width="600" height="276" viewBox="0 0 600 276" fill="none" xmlns="http://www.w3.org/2000/svg">
<path d="M220.443 6.72727V30H215.523V6.72727H220.443ZM229.241 19.9091V30H224.401V12.5455H229.014V15.625H229.219C229.605 14.6098 230.253 13.8068 231.162 13.2159C232.071 12.6174 233.173 12.3182 234.469 12.3182C235.681 12.3182 236.738 12.5833 237.639 13.1136C238.541 13.6439 239.241 14.4015 239.741 15.3864C240.241 16.3636 240.491 17.5303 240.491 18.8864V30H235.651V19.75C235.658 18.6818 235.385 17.8485 234.832 17.25C234.279 16.6439 233.518 16.3409 232.548 16.3409C231.897 16.3409 231.321 16.4811 230.821 16.7614C230.329 17.0417 229.942 17.4508 229.662 17.9886C229.389 18.5189 229.249 19.1591 229.241 19.9091ZM253.591 12.5455V16.1818H243.08V12.5455H253.591ZM245.466 8.36364H250.307V24.6364C250.307 25.0833 250.375 25.4318 250.511 25.6818C250.648 25.9242 250.837 26.0947 251.08 26.1932C251.33 26.2917 251.617 26.3409 251.943 26.3409C252.17 26.3409 252.398 26.322 252.625 26.2841C252.852 26.2386 253.027 26.2045 253.148 26.1818L253.909 29.7841C253.667 29.8598 253.326 29.947 252.886 30.0455C252.447 30.1515 251.913 30.2159 251.284 30.2386C250.117 30.2841 249.095 30.1288 248.216 29.7727C247.345 29.4167 246.667 28.8636 246.182 28.1136C245.697 27.3636 245.458 26.4167 245.466 25.2727V8.36364ZM264.511 30.3409C262.716 30.3409 261.17 29.9773 259.875 29.25C258.587 28.5152 257.595 27.4773 256.898 26.1364C256.201 24.7879 255.852 23.1932 255.852 21.3523C255.852 19.5568 256.201 17.9811 256.898 16.625C257.595 15.2689 258.576 14.2121 259.841 13.4545C261.114 12.697 262.606 12.3182 264.318 12.3182C265.47 12.3182 266.542 12.5038 267.534 12.875C268.534 13.2386 269.405 13.7879 270.148 14.5227C270.898 15.2576 271.481 16.1818 271.898 17.2955C272.314 18.4015 272.523 19.697 272.523 21.1818V22.5114H257.784V19.5114H267.966C267.966 18.8144 267.814 18.197 267.511 17.6591C267.208 17.1212 266.788 16.7008 266.25 16.3977C265.72 16.0871 265.102 15.9318 264.398 15.9318C263.663 15.9318 263.011 16.1023 262.443 16.4432C261.883 16.7765 261.443 17.2273 261.125 17.7955C260.807 18.3561 260.644 18.9811 260.636 19.6705V22.5227C260.636 23.3864 260.795 24.1326 261.114 24.7614C261.439 25.3902 261.898 25.875 262.489 26.2159C263.08 26.5568 263.78 26.7273 264.591 26.7273C265.129 26.7273 265.621 26.6515 266.068 26.5C266.515 26.3485 266.898 26.1212 267.216 25.8182C267.534 25.5152 267.777 25.1439 267.943 24.7045L272.42 25C272.193 26.0758 271.727 27.0152 271.023 27.8182C270.326 28.6136 269.424 29.2348 268.318 29.6818C267.22 30.1212 265.951 30.3409 264.511 30.3409ZM275.682 30V12.5455H280.375V15.5909H280.557C280.875 14.5076 281.409 13.6894 282.159 13.1364C282.909 12.5758 283.773 12.2955 284.75 12.2955C284.992 12.2955 285.254 12.3106 285.534 12.3409C285.814 12.3712 286.061 12.4129 286.273 12.4659V16.7614C286.045 16.6932 285.731 16.6326 285.33 16.5795C284.928 16.5265 284.561 16.5 284.227 16.5C283.515 16.5 282.879 16.6553 282.318 16.9659C281.765 17.2689 281.326 17.6932 281 18.2386C280.682 18.7841 280.523 19.4129 280.523 20.125V30H275.682ZM307.057 16.4432V20.2841H296.443V16.4432H307.057ZM318.679 30V6.72727H327.997C329.709 6.72727 331.137 6.98106 332.281 7.48864C333.425 7.99621 334.285 8.70076 334.861 9.60227C335.437 10.4962 335.724 11.5265 335.724 12.6932C335.724 13.6023 335.543 14.4015 335.179 15.0909C334.815 15.7727 334.315 16.3333 333.679 16.7727C333.05 17.2045 332.33 17.5114 331.52 17.6932V17.9205C332.406 17.9583 333.236 18.2083 334.009 18.6705C334.789 19.1326 335.421 19.7803 335.906 20.6136C336.391 21.4394 336.634 22.4242 336.634 23.5682C336.634 24.803 336.327 25.9053 335.713 26.875C335.107 27.8371 334.209 28.5985 333.02 29.1591C331.83 29.7197 330.365 30 328.622 30H318.679ZM323.599 25.9773H327.611C328.982 25.9773 329.982 25.7159 330.611 25.1932C331.24 24.6629 331.554 23.9583 331.554 23.0795C331.554 22.4356 331.399 21.8674 331.088 21.375C330.777 20.8826 330.334 20.4962 329.759 20.2159C329.19 19.9356 328.512 19.7955 327.724 19.7955H323.599V25.9773ZM323.599 16.4659H327.247C327.921 16.4659 328.52 16.3485 329.043 16.1136C329.573 15.8712 329.99 15.5303 330.293 15.0909C330.603 14.6515 330.759 14.125 330.759 13.5114C330.759 12.6705 330.459 11.9924 329.861 11.4773C329.27 10.9621 328.429 10.7045 327.338 10.7045H323.599V16.4659ZM347.631 30.3409C345.866 30.3409 344.339 29.9659 343.051 29.2159C341.771 28.4583 340.782 27.4053 340.085 26.0568C339.388 24.7008 339.04 23.1288 339.04 21.3409C339.04 19.5379 339.388 17.9621 340.085 16.6136C340.782 15.2576 341.771 14.2045 343.051 13.4545C344.339 12.697 345.866 12.3182 347.631 12.3182C349.396 12.3182 350.919 12.697 352.199 13.4545C353.487 14.2045 354.479 15.2576 355.176 16.6136C355.873 17.9621 356.222 19.5379 356.222 21.3409C356.222 23.1288 355.873 24.7008 355.176 26.0568C354.479 27.4053 353.487 28.4583 352.199 29.2159C350.919 29.9659 349.396 30.3409 347.631 30.3409ZM347.653 26.5909C348.456 26.5909 349.127 26.3636 349.665 25.9091C350.203 25.447 350.608 24.8182 350.881 24.0227C351.161 23.2273 351.301 22.322 351.301 21.3068C351.301 20.2917 351.161 19.3864 350.881 18.5909C350.608 17.7955 350.203 17.1667 349.665 16.7045C349.127 16.2424 348.456 16.0114 347.653 16.0114C346.843 16.0114 346.161 16.2424 345.608 16.7045C345.063 17.1667 344.65 17.7955 344.369 18.5909C344.097 19.3864 343.96 20.2917 343.96 21.3068C343.96 22.322 344.097 23.2273 344.369 24.0227C344.65 24.8182 345.063 25.447 345.608 25.9091C346.161 26.3636 346.843 26.5909 347.653 26.5909ZM364.21 6.72727V30H359.369V6.72727H364.21ZM374.52 30.2841C373.194 30.2841 371.993 29.9432 370.918 29.2614C369.849 28.572 369.001 27.5606 368.372 26.2273C367.751 24.8864 367.44 23.2424 367.44 21.2955C367.44 19.2955 367.762 17.6326 368.406 16.3068C369.05 14.9735 369.906 13.9773 370.974 13.3182C372.05 12.6515 373.228 12.3182 374.509 12.3182C375.486 12.3182 376.3 12.4848 376.952 12.8182C377.611 13.1439 378.141 13.553 378.543 14.0455C378.952 14.5303 379.262 15.0076 379.474 15.4773H379.622V6.72727H384.452V30H379.679V27.2045H379.474C379.247 27.6894 378.925 28.1705 378.509 28.6477C378.099 29.1174 377.565 29.5076 376.906 29.8182C376.255 30.1288 375.459 30.2841 374.52 30.2841ZM376.054 26.4318C376.834 26.4318 377.493 26.2197 378.031 25.7955C378.577 25.3636 378.993 24.7614 379.281 23.9886C379.577 23.2159 379.724 22.3106 379.724 21.2727C379.724 20.2348 379.58 19.3333 379.293 18.5682C379.005 17.803 378.588 17.2121 378.043 16.7955C377.497 16.3788 376.834 16.1705 376.054 16.1705C375.259 16.1705 374.588 16.3864 374.043 16.8182C373.497 17.25 373.084 17.8485 372.804 18.6136C372.524 19.3788 372.384 20.2652 372.384 21.2727C372.384 22.2879 372.524 23.1856 372.804 23.9659C373.092 24.7386 373.505 25.3447 374.043 25.7841C374.588 26.2159 375.259 26.4318 376.054 26.4318Z" fill="#050D08"/>
<path d="M79.0822 86H73.8095L81.8436 62.7273H88.1845L96.2072 86H90.9345L85.1049 68.0455H84.9231L79.0822 86ZM78.7527 76.8523H91.2072V80.6932H78.7527V76.8523ZM107.695 86V62.7273H117.013C118.725 62.7273 120.153 62.9811 121.297 63.4886C122.441 63.9962 123.301 64.7008 123.876 65.6023C124.452 66.4962 124.74 67.5265 124.74 68.6932C124.74 69.6023 124.558 70.4015 124.195 71.0909C123.831 71.7727 123.331 72.3333 122.695 72.7727C122.066 73.2045 121.346 73.5114 120.536 73.6932V73.9205C121.422 73.9583 122.251 74.2083 123.024 74.6705C123.804 75.1326 124.437 75.7803 124.922 76.6136C125.407 77.4394 125.649 78.4242 125.649 79.5682C125.649 80.803 125.342 81.9053 124.729 82.875C124.123 83.8371 123.225 84.5985 122.036 85.1591C120.846 85.7197 119.38 86 117.638 86H107.695ZM112.615 81.9773H116.626C117.998 81.9773 118.998 81.7159 119.626 81.1932C120.255 80.6629 120.57 79.9583 120.57 79.0795C120.57 78.4356 120.414 77.8674 120.104 77.375C119.793 76.8826 119.35 76.4962 118.774 76.2159C118.206 75.9356 117.528 75.7955 116.74 75.7955H112.615V81.9773ZM112.615 72.4659H116.263C116.937 72.4659 117.536 72.3485 118.058 72.1136C118.589 71.8712 119.005 71.5303 119.308 71.0909C119.619 70.6515 119.774 70.125 119.774 69.5114C119.774 68.6705 119.475 67.9924 118.876 67.4773C118.286 66.9621 117.445 66.7045 116.354 66.7045H112.615V72.4659ZM158.071 70.875H153.094C153.003 70.2311 152.817 69.6591 152.537 69.1591C152.257 68.6515 151.897 68.2197 151.458 67.8636C151.018 67.5076 150.511 67.2348 149.935 67.0455C149.367 66.8561 148.749 66.7614 148.083 66.7614C146.878 66.7614 145.829 67.0606 144.935 67.6591C144.041 68.25 143.348 69.1136 142.855 70.25C142.363 71.3788 142.117 72.75 142.117 74.3636C142.117 76.0227 142.363 77.4167 142.855 78.5455C143.355 79.6742 144.052 80.5265 144.946 81.1023C145.84 81.678 146.874 81.9659 148.048 81.9659C148.708 81.9659 149.317 81.8788 149.878 81.7045C150.446 81.5303 150.95 81.2765 151.389 80.9432C151.829 80.6023 152.192 80.1894 152.48 79.7045C152.776 79.2197 152.98 78.6667 153.094 78.0455L158.071 78.0682C157.942 79.1364 157.62 80.1667 157.105 81.1591C156.598 82.1439 155.912 83.0265 155.048 83.8068C154.192 84.5795 153.17 85.1932 151.98 85.6477C150.798 86.0947 149.461 86.3182 147.969 86.3182C145.893 86.3182 144.037 85.8485 142.401 84.9091C140.772 83.9697 139.484 82.6098 138.537 80.8295C137.598 79.0492 137.128 76.8939 137.128 74.3636C137.128 71.8258 137.605 69.6667 138.56 67.8864C139.514 66.1061 140.81 64.75 142.446 63.8182C144.083 62.8788 145.923 62.4091 147.969 62.4091C149.317 62.4091 150.567 62.5985 151.719 62.9773C152.878 63.3561 153.905 63.9091 154.798 64.6364C155.692 65.3561 156.42 66.2386 156.98 67.2841C157.548 68.3295 157.912 69.5265 158.071 70.875ZM178.536 86H170.286V62.7273H178.604C180.945 62.7273 182.96 63.1932 184.649 64.125C186.339 65.0492 187.638 66.3788 188.547 68.1136C189.464 69.8485 189.922 71.9242 189.922 74.3409C189.922 76.7652 189.464 78.8485 188.547 80.5909C187.638 82.3333 186.331 83.6705 184.627 84.6023C182.93 85.5341 180.899 86 178.536 86ZM175.206 81.7841H178.331C179.786 81.7841 181.009 81.5265 182.002 81.0114C183.002 80.4886 183.752 79.6818 184.252 78.5909C184.759 77.4924 185.013 76.0758 185.013 74.3409C185.013 72.6212 184.759 71.2159 184.252 70.125C183.752 69.0341 183.006 68.2311 182.013 67.7159C181.021 67.2008 179.797 66.9432 178.343 66.9432H175.206V81.7841ZM202.253 86V62.7273H217.935V66.7841H207.174V72.3295H217.128V76.3864H207.174V81.9432H217.981V86H202.253ZM230.533 86V62.7273H245.942V66.7841H235.454V72.3295H244.92V76.3864H235.454V86H230.533ZM273.37 70.25C273.211 69.697 272.988 69.2083 272.7 68.7841C272.412 68.3523 272.06 67.9886 271.643 67.6932C271.234 67.3902 270.764 67.1591 270.234 67C269.711 66.8409 269.132 66.7614 268.495 66.7614C267.306 66.7614 266.26 67.0568 265.359 67.6477C264.465 68.2386 263.768 69.0985 263.268 70.2273C262.768 71.3485 262.518 72.7197 262.518 74.3409C262.518 75.9621 262.764 77.3409 263.257 78.4773C263.749 79.6136 264.446 80.4811 265.347 81.0795C266.249 81.6705 267.313 81.9659 268.541 81.9659C269.654 81.9659 270.605 81.7689 271.393 81.375C272.188 80.9735 272.794 80.4091 273.211 79.6818C273.635 78.9545 273.847 78.0947 273.847 77.1023L274.847 77.25H268.847V73.5455H278.586V76.4773C278.586 78.5227 278.154 80.2803 277.291 81.75C276.427 83.2121 275.238 84.3409 273.722 85.1364C272.207 85.9242 270.472 86.3182 268.518 86.3182C266.336 86.3182 264.419 85.8371 262.768 84.875C261.116 83.9053 259.828 82.5303 258.904 80.75C257.988 78.9621 257.529 76.8409 257.529 74.3864C257.529 72.5 257.802 70.8182 258.347 69.3409C258.9 67.8561 259.673 66.5985 260.666 65.5682C261.658 64.5379 262.813 63.7538 264.132 63.2159C265.45 62.678 266.878 62.4091 268.416 62.4091C269.734 62.4091 270.961 62.6023 272.097 62.9886C273.234 63.3674 274.241 63.9053 275.12 64.6023C276.007 65.2992 276.73 66.1288 277.291 67.0909C277.851 68.0455 278.211 69.0985 278.37 70.25H273.37ZM290.968 86V62.7273H295.889V72.3295H305.877V62.7273H310.787V86H305.877V76.3864H295.889V86H290.968ZM328.45 62.7273V86H323.53V62.7273H328.45ZM350.503 62.7273H355.366V78.9545C355.366 80.4545 355.029 81.7576 354.355 82.8636C353.688 83.9697 352.76 84.822 351.571 85.4205C350.382 86.0189 348.999 86.3182 347.423 86.3182C346.022 86.3182 344.749 86.072 343.605 85.5795C342.469 85.0795 341.567 84.322 340.901 83.3068C340.234 82.2841 339.904 81 339.912 79.4545H344.81C344.825 80.0682 344.95 80.5947 345.185 81.0341C345.427 81.4659 345.757 81.7992 346.173 82.0341C346.597 82.2614 347.097 82.375 347.673 82.375C348.279 82.375 348.791 82.2462 349.207 81.9886C349.632 81.7235 349.954 81.3371 350.173 80.8295C350.393 80.322 350.503 79.697 350.503 78.9545V62.7273ZM368.121 86V62.7273H373.041V72.9886H373.348L381.723 62.7273H387.621L378.984 73.1477L387.723 86H381.837L375.462 76.4318L373.041 79.3864V86H368.121ZM398.87 86V62.7273H403.79V81.9432H413.767V86H398.87ZM425.712 62.7273H431.78L438.189 78.3636H438.462L444.871 62.7273H450.939V86H446.167V70.8523H445.973L439.951 85.8864H436.701L430.678 70.7955H430.485V86H425.712V62.7273ZM483.146 62.7273V86H478.896L468.771 71.3523H468.6V86H463.68V62.7273H467.998L478.043 77.3636H478.248V62.7273H483.146ZM517.283 74.3636C517.283 76.9015 516.802 79.0606 515.84 80.8409C514.886 82.6212 513.583 83.9811 511.931 84.9205C510.287 85.8523 508.439 86.3182 506.386 86.3182C504.318 86.3182 502.462 85.8485 500.818 84.9091C499.174 83.9697 497.874 82.6098 496.92 80.8295C495.965 79.0492 495.488 76.8939 495.488 74.3636C495.488 71.8258 495.965 69.6667 496.92 67.8864C497.874 66.1061 499.174 64.75 500.818 63.8182C502.462 62.8788 504.318 62.4091 506.386 62.4091C508.439 62.4091 510.287 62.8788 511.931 63.8182C513.583 64.75 514.886 66.1061 515.84 67.8864C516.802 69.6667 517.283 71.8258 517.283 74.3636ZM512.295 74.3636C512.295 72.7197 512.049 71.3333 511.556 70.2045C511.071 69.0758 510.386 68.2197 509.499 67.6364C508.613 67.053 507.575 66.7614 506.386 66.7614C505.196 66.7614 504.158 67.053 503.272 67.6364C502.386 68.2197 501.696 69.0758 501.204 70.2045C500.719 71.3333 500.477 72.7197 500.477 74.3636C500.477 76.0076 500.719 77.3939 501.204 78.5227C501.696 79.6515 502.386 80.5076 503.272 81.0909C504.158 81.6742 505.196 81.9659 506.386 81.9659C507.575 81.9659 508.613 81.6742 509.499 81.0909C510.386 80.5076 511.071 79.6515 511.556 78.5227C512.049 77.3939 512.295 76.0076 512.295 74.3636ZM130.123 122V98.7273H139.305C141.07 98.7273 142.573 99.0644 143.816 99.7386C145.058 100.405 146.005 101.333 146.657 102.523C147.316 103.705 147.645 105.068 147.645 106.614C147.645 108.159 147.312 109.523 146.645 110.705C145.979 111.886 145.013 112.807 143.748 113.466C142.49 114.125 140.967 114.455 139.18 114.455H133.327V110.511H138.384C139.331 110.511 140.111 110.348 140.725 110.023C141.346 109.689 141.808 109.231 142.111 108.648C142.422 108.057 142.577 107.379 142.577 106.614C142.577 105.841 142.422 105.167 142.111 104.591C141.808 104.008 141.346 103.557 140.725 103.239C140.104 102.913 139.316 102.75 138.361 102.75H135.043V122H130.123ZM168.312 113.909H172.494L174.596 116.614L176.664 119.023L180.562 123.909H175.971L173.289 120.614L171.914 118.659L168.312 113.909ZM180.914 110.364C180.914 112.902 180.433 115.061 179.471 116.841C178.516 118.621 177.213 119.981 175.562 120.92C173.918 121.852 172.069 122.318 170.016 122.318C167.948 122.318 166.092 121.848 164.448 120.909C162.804 119.97 161.505 118.61 160.55 116.83C159.596 115.049 159.119 112.894 159.119 110.364C159.119 107.826 159.596 105.667 160.55 103.886C161.505 102.106 162.804 100.75 164.448 99.8182C166.092 98.8788 167.948 98.4091 170.016 98.4091C172.069 98.4091 173.918 98.8788 175.562 99.8182C177.213 100.75 178.516 102.106 179.471 103.886C180.433 105.667 180.914 107.826 180.914 110.364ZM175.925 110.364C175.925 108.72 175.679 107.333 175.187 106.205C174.702 105.076 174.016 104.22 173.13 103.636C172.244 103.053 171.206 102.761 170.016 102.761C168.827 102.761 167.789 103.053 166.903 103.636C166.016 104.22 165.327 105.076 164.835 106.205C164.35 107.333 164.107 108.72 164.107 110.364C164.107 112.008 164.35 113.394 164.835 114.523C165.327 115.652 166.016 116.508 166.903 117.091C167.789 117.674 168.827 117.966 170.016 117.966C171.206 117.966 172.244 117.674 173.13 117.091C174.016 116.508 174.702 115.652 175.187 114.523C175.679 113.394 175.925 112.008 175.925 110.364ZM193.245 122V98.7273H202.427C204.185 98.7273 205.685 99.0417 206.927 99.6705C208.177 100.292 209.128 101.174 209.779 102.318C210.438 103.455 210.768 104.792 210.768 106.33C210.768 107.875 210.435 109.205 209.768 110.318C209.101 111.424 208.135 112.273 206.87 112.864C205.613 113.455 204.09 113.75 202.302 113.75H196.154V109.795H201.507C202.446 109.795 203.226 109.667 203.848 109.409C204.469 109.152 204.931 108.765 205.234 108.25C205.544 107.735 205.7 107.095 205.7 106.33C205.7 105.557 205.544 104.905 205.234 104.375C204.931 103.845 204.465 103.443 203.836 103.17C203.215 102.89 202.431 102.75 201.484 102.75H198.166V122H193.245ZM205.813 111.409L211.598 122H206.166L200.507 111.409H205.813ZM235.556 105.42C235.466 104.504 235.075 103.792 234.386 103.284C233.697 102.777 232.761 102.523 231.579 102.523C230.776 102.523 230.098 102.636 229.545 102.864C228.992 103.083 228.568 103.39 228.272 103.784C227.985 104.178 227.841 104.625 227.841 105.125C227.825 105.542 227.913 105.905 228.102 106.216C228.299 106.527 228.568 106.795 228.909 107.023C229.25 107.242 229.644 107.436 230.091 107.602C230.538 107.761 231.015 107.898 231.522 108.011L233.613 108.511C234.628 108.739 235.56 109.042 236.409 109.42C237.257 109.799 237.992 110.265 238.613 110.818C239.235 111.371 239.716 112.023 240.056 112.773C240.405 113.523 240.583 114.383 240.591 115.352C240.583 116.777 240.219 118.011 239.5 119.057C238.788 120.095 237.757 120.902 236.409 121.477C235.068 122.045 233.45 122.33 231.556 122.33C229.678 122.33 228.041 122.042 226.647 121.466C225.261 120.89 224.178 120.038 223.397 118.909C222.625 117.773 222.219 116.367 222.181 114.693H226.943C226.996 115.473 227.219 116.125 227.613 116.648C228.015 117.163 228.549 117.553 229.216 117.818C229.89 118.076 230.651 118.205 231.5 118.205C232.333 118.205 233.056 118.083 233.67 117.841C234.291 117.598 234.772 117.261 235.113 116.83C235.454 116.398 235.625 115.902 235.625 115.341C235.625 114.818 235.469 114.379 235.159 114.023C234.856 113.667 234.409 113.364 233.818 113.114C233.235 112.864 232.519 112.636 231.67 112.432L229.136 111.795C227.174 111.318 225.625 110.572 224.488 109.557C223.352 108.542 222.788 107.174 222.795 105.455C222.788 104.045 223.163 102.814 223.92 101.761C224.685 100.708 225.735 99.8864 227.068 99.2955C228.401 98.7045 229.916 98.4091 231.613 98.4091C233.341 98.4091 234.848 98.7045 236.136 99.2955C237.431 99.8864 238.439 100.708 239.159 101.761C239.878 102.814 240.25 104.034 240.272 105.42H235.556ZM251.7 102.784V98.7273H270.814V102.784H263.689V122H258.825V102.784H251.7ZM297.023 98.7273H301.943V113.841C301.943 115.538 301.538 117.023 300.727 118.295C299.924 119.568 298.799 120.561 297.352 121.273C295.905 121.977 294.22 122.33 292.295 122.33C290.364 122.33 288.674 121.977 287.227 121.273C285.78 120.561 284.655 119.568 283.852 118.295C283.049 117.023 282.648 115.538 282.648 113.841V98.7273H287.568V113.42C287.568 114.307 287.761 115.095 288.148 115.784C288.542 116.473 289.095 117.015 289.807 117.409C290.519 117.803 291.348 118 292.295 118C293.25 118 294.08 117.803 294.784 117.409C295.496 117.015 296.045 116.473 296.432 115.784C296.826 115.095 297.023 114.307 297.023 113.42V98.7273ZM318.882 98.7273L324.507 116.409H324.723L330.36 98.7273H335.814L327.791 122H321.45L313.416 98.7273H318.882ZM352.54 122L345.881 98.7273H351.256L355.108 114.898H355.301L359.551 98.7273H364.154L368.392 114.932H368.597L372.449 98.7273H377.824L371.165 122H366.37L361.938 106.784H361.756L357.336 122H352.54ZM393.758 98.7273L398.451 106.659H398.633L403.349 98.7273H408.905L401.803 110.364L409.064 122H403.405L398.633 114.057H398.451L393.678 122H388.042L395.326 110.364L388.178 98.7273H393.758ZM419.342 98.7273H424.853L430.16 108.75H430.387L435.694 98.7273H441.205L432.717 113.773V122H427.83V113.773L419.342 98.7273ZM452.329 122V119.08L463.943 102.784H452.306V98.7273H470.124V101.648L458.499 117.943H470.147V122H452.329Z" fill="#050D08"/>
<path d="M110.473 178.33C109.359 178.33 108.367 178.136 107.496 177.75C106.624 177.356 105.935 176.777 105.427 176.011C104.927 175.239 104.677 174.277 104.677 173.125C104.677 172.155 104.855 171.341 105.211 170.682C105.568 170.023 106.052 169.492 106.666 169.091C107.28 168.689 107.977 168.386 108.757 168.182C109.545 167.977 110.371 167.833 111.234 167.75C112.249 167.644 113.068 167.545 113.689 167.455C114.31 167.356 114.761 167.212 115.041 167.023C115.321 166.833 115.461 166.553 115.461 166.182V166.114C115.461 165.394 115.234 164.837 114.78 164.443C114.333 164.049 113.696 163.852 112.871 163.852C111.999 163.852 111.306 164.045 110.791 164.432C110.276 164.811 109.935 165.288 109.768 165.864L105.291 165.5C105.518 164.439 105.965 163.523 106.632 162.75C107.299 161.97 108.158 161.371 109.211 160.955C110.272 160.53 111.499 160.318 112.893 160.318C113.863 160.318 114.791 160.432 115.677 160.659C116.571 160.886 117.363 161.239 118.052 161.716C118.749 162.193 119.299 162.807 119.7 163.557C120.102 164.299 120.302 165.189 120.302 166.227V178H115.711V175.58H115.575C115.295 176.125 114.92 176.606 114.45 177.023C113.98 177.432 113.416 177.754 112.757 177.989C112.098 178.216 111.336 178.33 110.473 178.33ZM111.859 174.989C112.571 174.989 113.2 174.848 113.746 174.568C114.291 174.28 114.719 173.894 115.03 173.409C115.34 172.924 115.496 172.375 115.496 171.761V169.909C115.344 170.008 115.136 170.098 114.871 170.182C114.613 170.258 114.321 170.33 113.996 170.398C113.67 170.458 113.344 170.515 113.018 170.568C112.693 170.614 112.397 170.655 112.132 170.693C111.564 170.777 111.068 170.909 110.643 171.091C110.219 171.273 109.89 171.519 109.655 171.83C109.42 172.133 109.302 172.511 109.302 172.966C109.302 173.625 109.541 174.129 110.018 174.477C110.503 174.818 111.117 174.989 111.859 174.989ZM132.835 178V154.727H137.676V163.477H137.824C138.036 163.008 138.343 162.53 138.744 162.045C139.153 161.553 139.684 161.144 140.335 160.818C140.994 160.485 141.813 160.318 142.79 160.318C144.063 160.318 145.237 160.652 146.313 161.318C147.388 161.977 148.248 162.973 148.892 164.307C149.536 165.633 149.858 167.295 149.858 169.295C149.858 171.242 149.544 172.886 148.915 174.227C148.294 175.561 147.445 176.572 146.369 177.261C145.301 177.943 144.104 178.284 142.778 178.284C141.839 178.284 141.04 178.129 140.381 177.818C139.729 177.508 139.195 177.117 138.778 176.648C138.362 176.17 138.044 175.689 137.824 175.205H137.608V178H132.835ZM137.574 169.273C137.574 170.311 137.718 171.216 138.006 171.989C138.294 172.761 138.71 173.364 139.256 173.795C139.801 174.22 140.464 174.432 141.244 174.432C142.032 174.432 142.699 174.216 143.244 173.784C143.79 173.345 144.203 172.739 144.483 171.966C144.771 171.186 144.915 170.288 144.915 169.273C144.915 168.265 144.775 167.379 144.494 166.614C144.214 165.848 143.801 165.25 143.256 164.818C142.71 164.386 142.04 164.17 141.244 164.17C140.456 164.17 139.79 164.379 139.244 164.795C138.706 165.212 138.294 165.803 138.006 166.568C137.718 167.333 137.574 168.235 137.574 169.273ZM169.661 178.341C167.873 178.341 166.335 177.962 165.047 177.205C163.767 176.439 162.782 175.379 162.093 174.023C161.411 172.667 161.07 171.106 161.07 169.341C161.07 167.553 161.414 165.985 162.104 164.636C162.801 163.28 163.789 162.223 165.07 161.466C166.35 160.701 167.873 160.318 169.638 160.318C171.161 160.318 172.494 160.595 173.638 161.148C174.782 161.701 175.687 162.477 176.354 163.477C177.021 164.477 177.388 165.652 177.456 167H172.888C172.759 166.129 172.418 165.428 171.865 164.898C171.32 164.36 170.604 164.091 169.718 164.091C168.968 164.091 168.312 164.295 167.752 164.705C167.199 165.106 166.767 165.693 166.456 166.466C166.146 167.239 165.99 168.174 165.99 169.273C165.99 170.386 166.142 171.333 166.445 172.114C166.755 172.894 167.191 173.489 167.752 173.898C168.312 174.307 168.968 174.511 169.718 174.511C170.271 174.511 170.767 174.398 171.206 174.17C171.653 173.943 172.021 173.614 172.308 173.182C172.604 172.742 172.797 172.216 172.888 171.602H177.456C177.38 172.936 177.017 174.11 176.365 175.125C175.721 176.133 174.831 176.92 173.695 177.489C172.558 178.057 171.214 178.341 169.661 178.341ZM195.674 178.284C194.348 178.284 193.147 177.943 192.071 177.261C191.003 176.572 190.155 175.561 189.526 174.227C188.905 172.886 188.594 171.242 188.594 169.295C188.594 167.295 188.916 165.633 189.56 164.307C190.204 162.973 191.06 161.977 192.128 161.318C193.204 160.652 194.382 160.318 195.662 160.318C196.64 160.318 197.454 160.485 198.105 160.818C198.765 161.144 199.295 161.553 199.696 162.045C200.105 162.53 200.416 163.008 200.628 163.477H200.776V154.727H205.605V178H200.833V175.205H200.628C200.401 175.689 200.079 176.17 199.662 176.648C199.253 177.117 198.719 177.508 198.06 177.818C197.408 178.129 196.613 178.284 195.674 178.284ZM197.208 174.432C197.988 174.432 198.647 174.22 199.185 173.795C199.73 173.364 200.147 172.761 200.435 171.989C200.73 171.216 200.878 170.311 200.878 169.273C200.878 168.235 200.734 167.333 200.446 166.568C200.158 165.803 199.742 165.212 199.196 164.795C198.651 164.379 197.988 164.17 197.208 164.17C196.412 164.17 195.742 164.386 195.196 164.818C194.651 165.25 194.238 165.848 193.958 166.614C193.677 167.379 193.537 168.265 193.537 169.273C193.537 170.288 193.677 171.186 193.958 171.966C194.246 172.739 194.658 173.345 195.196 173.784C195.742 174.216 196.412 174.432 197.208 174.432ZM226.226 178.341C224.431 178.341 222.885 177.977 221.59 177.25C220.302 176.515 219.31 175.477 218.613 174.136C217.916 172.788 217.567 171.193 217.567 169.352C217.567 167.557 217.916 165.981 218.613 164.625C219.31 163.269 220.291 162.212 221.556 161.455C222.829 160.697 224.321 160.318 226.033 160.318C227.185 160.318 228.257 160.504 229.249 160.875C230.249 161.239 231.12 161.788 231.863 162.523C232.613 163.258 233.196 164.182 233.613 165.295C234.029 166.402 234.238 167.697 234.238 169.182V170.511H219.499V167.511H229.681C229.681 166.814 229.529 166.197 229.226 165.659C228.923 165.121 228.503 164.701 227.965 164.398C227.435 164.087 226.817 163.932 226.113 163.932C225.378 163.932 224.726 164.102 224.158 164.443C223.598 164.777 223.158 165.227 222.84 165.795C222.522 166.356 222.359 166.981 222.351 167.67V170.523C222.351 171.386 222.51 172.133 222.829 172.761C223.154 173.39 223.613 173.875 224.204 174.216C224.795 174.557 225.495 174.727 226.306 174.727C226.844 174.727 227.336 174.652 227.783 174.5C228.23 174.348 228.613 174.121 228.931 173.818C229.249 173.515 229.492 173.144 229.658 172.705L234.135 173C233.908 174.076 233.442 175.015 232.738 175.818C232.041 176.614 231.139 177.235 230.033 177.682C228.935 178.121 227.666 178.341 226.226 178.341ZM255.469 160.545V164.182H244.697V160.545H255.469ZM247.163 178V159.284C247.163 158.019 247.409 156.97 247.901 156.136C248.401 155.303 249.083 154.678 249.947 154.261C250.81 153.845 251.791 153.636 252.89 153.636C253.632 153.636 254.31 153.693 254.924 153.807C255.545 153.92 256.007 154.023 256.31 154.114L255.447 157.75C255.257 157.689 255.022 157.633 254.742 157.58C254.469 157.527 254.189 157.5 253.901 157.5C253.189 157.5 252.693 157.667 252.413 158C252.132 158.326 251.992 158.784 251.992 159.375V178H247.163ZM274.977 184.909C273.409 184.909 272.064 184.693 270.943 184.261C269.829 183.837 268.943 183.258 268.284 182.523C267.624 181.788 267.196 180.962 266.999 180.045L271.477 179.443C271.613 179.792 271.829 180.117 272.124 180.42C272.42 180.723 272.81 180.966 273.295 181.148C273.787 181.337 274.386 181.432 275.09 181.432C276.143 181.432 277.011 181.174 277.693 180.659C278.382 180.152 278.727 179.299 278.727 178.102V174.909H278.522C278.31 175.394 277.992 175.852 277.568 176.284C277.143 176.716 276.598 177.068 275.931 177.341C275.265 177.614 274.469 177.75 273.545 177.75C272.234 177.75 271.041 177.447 269.965 176.841C268.897 176.227 268.045 175.292 267.409 174.034C266.78 172.769 266.465 171.17 266.465 169.239C266.465 167.261 266.787 165.61 267.431 164.284C268.075 162.958 268.931 161.966 269.999 161.307C271.075 160.648 272.253 160.318 273.534 160.318C274.511 160.318 275.329 160.485 275.988 160.818C276.647 161.144 277.177 161.553 277.579 162.045C277.988 162.53 278.302 163.008 278.522 163.477H278.704V160.545H283.511V178.17C283.511 179.655 283.147 180.898 282.42 181.898C281.693 182.898 280.685 183.648 279.397 184.148C278.117 184.655 276.643 184.909 274.977 184.909ZM275.079 174.114C275.859 174.114 276.518 173.92 277.056 173.534C277.602 173.14 278.018 172.58 278.306 171.852C278.602 171.117 278.749 170.239 278.749 169.216C278.749 168.193 278.605 167.307 278.318 166.557C278.03 165.799 277.613 165.212 277.068 164.795C276.522 164.379 275.859 164.17 275.079 164.17C274.284 164.17 273.613 164.386 273.068 164.818C272.522 165.242 272.109 165.833 271.829 166.591C271.549 167.348 271.409 168.223 271.409 169.216C271.409 170.223 271.549 171.095 271.829 171.83C272.117 172.557 272.53 173.121 273.068 173.523C273.613 173.917 274.284 174.114 275.079 174.114ZM300.89 167.909V178H296.049V154.727H300.754V163.625H300.958C301.352 162.595 301.989 161.788 302.868 161.205C303.746 160.614 304.849 160.318 306.174 160.318C307.386 160.318 308.443 160.583 309.345 161.114C310.254 161.636 310.958 162.39 311.458 163.375C311.966 164.352 312.216 165.523 312.208 166.886V178H307.368V167.75C307.375 166.674 307.102 165.837 306.549 165.239C306.004 164.64 305.239 164.341 304.254 164.341C303.595 164.341 303.011 164.481 302.504 164.761C302.004 165.042 301.61 165.451 301.322 165.989C301.042 166.519 300.898 167.159 300.89 167.909ZM324.704 178V160.545H329.545V178H324.704ZM327.136 158.295C326.416 158.295 325.799 158.057 325.284 157.58C324.776 157.095 324.523 156.515 324.523 155.841C324.523 155.174 324.776 154.602 325.284 154.125C325.799 153.64 326.416 153.398 327.136 153.398C327.856 153.398 328.469 153.64 328.977 154.125C329.492 154.602 329.75 155.174 329.75 155.841C329.75 156.515 329.492 157.095 328.977 157.58C328.469 158.057 327.856 158.295 327.136 158.295ZM342.109 160.545H346.95V178.864C346.95 180.212 346.685 181.303 346.155 182.136C345.624 182.97 344.863 183.58 343.871 183.966C342.886 184.352 341.708 184.545 340.337 184.545C340.17 184.545 340.011 184.542 339.859 184.534C339.7 184.534 339.534 184.53 339.359 184.523V180.739C339.488 180.746 339.602 180.75 339.7 180.75C339.791 180.758 339.89 180.761 339.996 180.761C340.776 180.761 341.321 180.595 341.632 180.261C341.95 179.936 342.109 179.443 342.109 178.784V160.545ZM344.518 158.295C343.806 158.295 343.193 158.057 342.678 157.58C342.162 157.095 341.905 156.515 341.905 155.841C341.905 155.174 342.162 154.602 342.678 154.125C343.193 153.64 343.806 153.398 344.518 153.398C345.246 153.398 345.863 153.64 346.371 154.125C346.886 154.602 347.143 155.174 347.143 155.841C347.143 156.515 346.886 157.095 346.371 157.58C345.863 158.057 345.246 158.295 344.518 158.295ZM363.901 172.977L363.912 167.17H364.617L370.208 160.545H375.764L368.253 169.318H367.105L363.901 172.977ZM359.514 178V154.727H364.355V178H359.514ZM370.423 178L365.287 170.398L368.514 166.977L376.094 178H370.423ZM391.666 154.727V178H386.826V154.727H391.666ZM404.231 178V160.545H408.844V163.625H409.049C409.412 162.602 410.018 161.795 410.867 161.205C411.715 160.614 412.731 160.318 413.912 160.318C415.109 160.318 416.128 160.617 416.969 161.216C417.81 161.807 418.371 162.61 418.651 163.625H418.833C419.189 162.625 419.833 161.826 420.765 161.227C421.704 160.621 422.814 160.318 424.094 160.318C425.723 160.318 427.045 160.837 428.06 161.875C429.083 162.905 429.594 164.367 429.594 166.261V178H424.765V167.216C424.765 166.246 424.507 165.519 423.992 165.034C423.477 164.549 422.833 164.307 422.06 164.307C421.181 164.307 420.496 164.587 420.003 165.148C419.511 165.701 419.265 166.432 419.265 167.341V178H414.571V167.114C414.571 166.258 414.325 165.576 413.833 165.068C413.348 164.561 412.708 164.307 411.912 164.307C411.374 164.307 410.89 164.443 410.458 164.716C410.034 164.981 409.696 165.356 409.446 165.841C409.196 166.318 409.071 166.879 409.071 167.523V178H404.231ZM446.945 167.909V178H442.104V160.545H446.718V163.625H446.923C447.309 162.61 447.957 161.807 448.866 161.216C449.775 160.617 450.877 160.318 452.173 160.318C453.385 160.318 454.441 160.583 455.343 161.114C456.244 161.644 456.945 162.402 457.445 163.386C457.945 164.364 458.195 165.53 458.195 166.886V178H453.354V167.75C453.362 166.682 453.089 165.848 452.536 165.25C451.983 164.644 451.222 164.341 450.252 164.341C449.601 164.341 449.025 164.481 448.525 164.761C448.032 165.042 447.646 165.451 447.366 165.989C447.093 166.519 446.953 167.159 446.945 167.909ZM478.583 178.341C476.818 178.341 475.292 177.966 474.004 177.216C472.723 176.458 471.735 175.405 471.038 174.057C470.341 172.701 469.992 171.129 469.992 169.341C469.992 167.538 470.341 165.962 471.038 164.614C471.735 163.258 472.723 162.205 474.004 161.455C475.292 160.697 476.818 160.318 478.583 160.318C480.348 160.318 481.871 160.697 483.151 161.455C484.439 162.205 485.432 163.258 486.129 164.614C486.826 165.962 487.174 167.538 487.174 169.341C487.174 171.129 486.826 172.701 486.129 174.057C485.432 175.405 484.439 176.458 483.151 177.216C481.871 177.966 480.348 178.341 478.583 178.341ZM478.606 174.591C479.409 174.591 480.079 174.364 480.617 173.909C481.155 173.447 481.56 172.818 481.833 172.023C482.113 171.227 482.254 170.322 482.254 169.307C482.254 168.292 482.113 167.386 481.833 166.591C481.56 165.795 481.155 165.167 480.617 164.705C480.079 164.242 479.409 164.011 478.606 164.011C477.795 164.011 477.113 164.242 476.56 164.705C476.015 165.167 475.602 165.795 475.322 166.591C475.049 167.386 474.913 168.292 474.913 169.307C474.913 170.322 475.049 171.227 475.322 172.023C475.602 172.818 476.015 173.447 476.56 173.909C477.113 174.364 477.795 174.591 478.606 174.591ZM155.86 220.545V196.545H160.633V199.477H160.849C161.061 199.008 161.368 198.53 161.769 198.045C162.178 197.553 162.708 197.144 163.36 196.818C164.019 196.485 164.837 196.318 165.814 196.318C167.087 196.318 168.261 196.652 169.337 197.318C170.413 197.977 171.273 198.973 171.917 200.307C172.561 201.633 172.883 203.295 172.883 205.295C172.883 207.242 172.568 208.886 171.939 210.227C171.318 211.561 170.47 212.572 169.394 213.261C168.326 213.943 167.129 214.284 165.803 214.284C164.864 214.284 164.064 214.129 163.405 213.818C162.754 213.508 162.22 213.117 161.803 212.648C161.386 212.17 161.068 211.689 160.849 211.205H160.701V220.545H155.86ZM160.599 205.273C160.599 206.311 160.743 207.216 161.03 207.989C161.318 208.761 161.735 209.364 162.28 209.795C162.826 210.22 163.489 210.432 164.269 210.432C165.057 210.432 165.724 210.216 166.269 209.784C166.814 209.345 167.227 208.739 167.508 207.966C167.796 207.186 167.939 206.288 167.939 205.273C167.939 204.265 167.799 203.379 167.519 202.614C167.239 201.848 166.826 201.25 166.28 200.818C165.735 200.386 165.064 200.17 164.269 200.17C163.481 200.17 162.814 200.379 162.269 200.795C161.731 201.212 161.318 201.803 161.03 202.568C160.743 203.333 160.599 204.235 160.599 205.273ZM196.33 220.545V211.205H196.183C195.955 211.689 195.633 212.17 195.217 212.648C194.808 213.117 194.273 213.508 193.614 213.818C192.963 214.129 192.167 214.284 191.228 214.284C189.902 214.284 188.702 213.943 187.626 213.261C186.558 212.572 185.709 211.561 185.08 210.227C184.459 208.886 184.148 207.242 184.148 205.295C184.148 203.295 184.47 201.633 185.114 200.307C185.758 198.973 186.614 197.977 187.683 197.318C188.758 196.652 189.936 196.318 191.217 196.318C192.194 196.318 193.008 196.485 193.66 196.818C194.319 197.144 194.849 197.553 195.251 198.045C195.66 198.53 195.97 199.008 196.183 199.477H196.387V196.545H201.16V220.545H196.33ZM192.762 210.432C193.542 210.432 194.202 210.22 194.739 209.795C195.285 209.364 195.702 208.761 195.989 207.989C196.285 207.216 196.433 206.311 196.433 205.273C196.433 204.235 196.289 203.333 196.001 202.568C195.713 201.803 195.296 201.212 194.751 200.795C194.205 200.379 193.542 200.17 192.762 200.17C191.967 200.17 191.296 200.386 190.751 200.818C190.205 201.25 189.792 201.848 189.512 202.614C189.232 203.379 189.092 204.265 189.092 205.273C189.092 206.288 189.232 207.186 189.512 207.966C189.8 208.739 190.213 209.345 190.751 209.784C191.296 210.216 191.967 210.432 192.762 210.432ZM213.732 214V196.545H218.426V199.591H218.607C218.926 198.508 219.46 197.689 220.21 197.136C220.96 196.576 221.823 196.295 222.801 196.295C223.043 196.295 223.304 196.311 223.585 196.341C223.865 196.371 224.111 196.413 224.323 196.466V200.761C224.096 200.693 223.782 200.633 223.38 200.58C222.979 200.527 222.611 200.5 222.278 200.5C221.566 200.5 220.929 200.655 220.369 200.966C219.816 201.269 219.376 201.693 219.051 202.239C218.732 202.784 218.573 203.413 218.573 204.125V214H213.732ZM250.035 201.523L245.603 201.795C245.528 201.417 245.365 201.076 245.115 200.773C244.865 200.462 244.535 200.216 244.126 200.034C243.725 199.845 243.244 199.75 242.683 199.75C241.933 199.75 241.3 199.909 240.785 200.227C240.27 200.538 240.012 200.955 240.012 201.477C240.012 201.894 240.179 202.246 240.512 202.534C240.846 202.822 241.418 203.053 242.228 203.227L245.387 203.864C247.084 204.212 248.35 204.773 249.183 205.545C250.016 206.318 250.433 207.333 250.433 208.591C250.433 209.735 250.096 210.739 249.422 211.602C248.755 212.466 247.838 213.14 246.672 213.625C245.512 214.102 244.175 214.341 242.66 214.341C240.35 214.341 238.509 213.86 237.137 212.898C235.774 211.928 234.975 210.61 234.74 208.943L239.501 208.693C239.645 209.398 239.994 209.936 240.547 210.307C241.1 210.67 241.808 210.852 242.672 210.852C243.52 210.852 244.202 210.689 244.717 210.364C245.24 210.03 245.505 209.602 245.512 209.08C245.505 208.64 245.319 208.28 244.956 208C244.592 207.712 244.031 207.492 243.274 207.341L240.251 206.739C238.547 206.398 237.278 205.807 236.444 204.966C235.619 204.125 235.206 203.053 235.206 201.75C235.206 200.629 235.509 199.663 236.115 198.852C236.728 198.042 237.588 197.417 238.694 196.977C239.808 196.538 241.111 196.318 242.603 196.318C244.808 196.318 246.543 196.784 247.808 197.716C249.081 198.648 249.823 199.917 250.035 201.523ZM271.452 196.545V200.182H260.94V196.545H271.452ZM263.327 192.364H268.167V208.636C268.167 209.083 268.236 209.432 268.372 209.682C268.508 209.924 268.698 210.095 268.94 210.193C269.19 210.292 269.478 210.341 269.804 210.341C270.031 210.341 270.258 210.322 270.486 210.284C270.713 210.239 270.887 210.205 271.008 210.182L271.77 213.784C271.527 213.86 271.186 213.947 270.747 214.045C270.308 214.152 269.774 214.216 269.145 214.239C267.978 214.284 266.955 214.129 266.077 213.773C265.205 213.417 264.527 212.864 264.042 212.114C263.558 211.364 263.319 210.417 263.327 209.273V192.364ZM294.484 206.568V196.545H299.325V214H294.678V210.83H294.496C294.102 211.852 293.446 212.674 292.53 213.295C291.621 213.917 290.511 214.227 289.2 214.227C288.034 214.227 287.007 213.962 286.121 213.432C285.234 212.902 284.541 212.148 284.041 211.17C283.549 210.193 283.299 209.023 283.291 207.659V196.545H288.132V206.795C288.14 207.826 288.416 208.64 288.962 209.239C289.507 209.837 290.238 210.136 291.155 210.136C291.738 210.136 292.284 210.004 292.791 209.739C293.299 209.466 293.708 209.064 294.018 208.534C294.337 208.004 294.492 207.348 294.484 206.568ZM328.156 196.545L322.054 214H316.6L310.497 196.545H315.611L319.236 209.034H319.418L323.031 196.545H328.156ZM342.763 214L338.013 196.545H342.911L345.615 208.273H345.775L348.593 196.545H353.4L356.263 208.205H356.411L359.07 196.545H363.956L359.218 214H354.093L351.093 203.023H350.877L347.877 214H342.763ZM379.27 196.545L382.475 202.648L385.759 196.545H390.725L385.668 205.273L390.861 214H385.918L382.475 207.966L379.089 214H374.089L379.27 205.273L374.27 196.545H379.27ZM405.275 220.545C404.661 220.545 404.085 220.496 403.548 220.398C403.017 220.307 402.578 220.189 402.229 220.045L403.32 216.432C403.888 216.606 404.4 216.701 404.854 216.716C405.316 216.731 405.714 216.625 406.048 216.398C406.388 216.17 406.665 215.784 406.877 215.239L407.161 214.5L400.9 196.545H405.991L409.604 209.364H409.786L413.434 196.545H418.559L411.775 215.886C411.449 216.826 411.006 217.644 410.445 218.341C409.892 219.045 409.191 219.587 408.343 219.966C407.495 220.352 406.472 220.545 405.275 220.545ZM429.632 214V211.114L438.177 200.534V200.409H429.927V196.545H444.007V199.693L435.984 210.011V210.136H444.302V214H429.632Z" fill="#050D08"/>
<path d="M171.079 246.727V270H166.159V251.398H166.023L160.693 254.739V250.375L166.454 246.727H171.079ZM185.297 270V266.455L193.581 258.784C194.286 258.102 194.877 257.489 195.354 256.943C195.839 256.398 196.206 255.864 196.456 255.341C196.706 254.811 196.831 254.239 196.831 253.625C196.831 252.943 196.676 252.356 196.365 251.864C196.055 251.364 195.63 250.981 195.092 250.716C194.555 250.443 193.945 250.307 193.263 250.307C192.551 250.307 191.93 250.451 191.399 250.739C190.869 251.027 190.46 251.439 190.172 251.977C189.884 252.515 189.74 253.155 189.74 253.898H185.07C185.07 252.375 185.414 251.053 186.104 249.932C186.793 248.811 187.759 247.943 189.002 247.33C190.244 246.716 191.676 246.409 193.297 246.409C194.964 246.409 196.414 246.705 197.649 247.295C198.892 247.879 199.858 248.689 200.547 249.727C201.236 250.765 201.581 251.955 201.581 253.295C201.581 254.174 201.407 255.042 201.058 255.898C200.717 256.754 200.108 257.705 199.229 258.75C198.35 259.788 197.111 261.034 195.513 262.489L192.115 265.818V265.977H201.888V270H185.297ZM222.742 270.318C221.045 270.318 219.533 270.027 218.208 269.443C216.889 268.852 215.848 268.042 215.083 267.011C214.325 265.973 213.935 264.777 213.912 263.42H218.867C218.897 263.989 219.083 264.489 219.424 264.92C219.772 265.345 220.234 265.674 220.81 265.909C221.386 266.144 222.033 266.261 222.753 266.261C223.503 266.261 224.166 266.129 224.742 265.864C225.318 265.598 225.768 265.231 226.094 264.761C226.42 264.292 226.583 263.75 226.583 263.136C226.583 262.515 226.408 261.966 226.06 261.489C225.719 261.004 225.227 260.625 224.583 260.352C223.946 260.08 223.189 259.943 222.31 259.943H220.139V256.33H222.31C223.052 256.33 223.708 256.201 224.276 255.943C224.852 255.686 225.299 255.33 225.617 254.875C225.935 254.413 226.094 253.875 226.094 253.261C226.094 252.678 225.954 252.167 225.674 251.727C225.401 251.28 225.014 250.932 224.514 250.682C224.022 250.432 223.446 250.307 222.787 250.307C222.121 250.307 221.511 250.428 220.958 250.67C220.405 250.905 219.961 251.242 219.628 251.682C219.295 252.121 219.117 252.636 219.094 253.227H214.378C214.401 251.886 214.783 250.705 215.526 249.682C216.268 248.659 217.268 247.86 218.526 247.284C219.791 246.701 221.219 246.409 222.81 246.409C224.416 246.409 225.821 246.701 227.026 247.284C228.23 247.867 229.166 248.655 229.833 249.648C230.507 250.633 230.84 251.739 230.833 252.966C230.84 254.269 230.435 255.356 229.617 256.227C228.806 257.098 227.749 257.652 226.446 257.886V258.068C228.158 258.288 229.461 258.883 230.355 259.852C231.257 260.814 231.704 262.019 231.696 263.466C231.704 264.792 231.321 265.97 230.549 267C229.783 268.03 228.727 268.841 227.378 269.432C226.03 270.023 224.484 270.318 222.742 270.318ZM243.567 265.909V262.034L253.283 246.727H256.624V252.091H254.647L248.522 261.784V261.966H262.329V265.909H243.567ZM254.738 270V264.727L254.829 263.011V246.727H259.442V270H254.738ZM282.793 270.318C281.187 270.318 279.755 270.023 278.498 269.432C277.248 268.841 276.255 268.027 275.521 266.989C274.786 265.951 274.403 264.761 274.373 263.42H279.146C279.199 264.322 279.577 265.053 280.282 265.614C280.986 266.174 281.824 266.455 282.793 266.455C283.566 266.455 284.248 266.284 284.839 265.943C285.437 265.595 285.903 265.114 286.236 264.5C286.577 263.879 286.748 263.167 286.748 262.364C286.748 261.545 286.574 260.826 286.225 260.205C285.884 259.583 285.411 259.098 284.805 258.75C284.199 258.402 283.505 258.223 282.725 258.216C282.043 258.216 281.38 258.356 280.736 258.636C280.1 258.917 279.604 259.299 279.248 259.784L274.873 259L275.975 246.727H290.202V250.75H280.032L279.43 256.58H279.566C279.975 256.004 280.592 255.527 281.418 255.148C282.244 254.769 283.168 254.58 284.191 254.58C285.592 254.58 286.842 254.909 287.941 255.568C289.039 256.227 289.907 257.133 290.543 258.284C291.18 259.428 291.494 260.746 291.486 262.239C291.494 263.807 291.13 265.201 290.396 266.42C289.668 267.633 288.649 268.587 287.339 269.284C286.036 269.973 284.521 270.318 282.793 270.318ZM312.536 270.318C311.339 270.311 310.184 270.11 309.07 269.716C307.964 269.322 306.972 268.682 306.093 267.795C305.214 266.909 304.517 265.735 304.002 264.273C303.495 262.811 303.241 261.015 303.241 258.886C303.248 256.932 303.472 255.186 303.911 253.648C304.358 252.102 304.995 250.792 305.82 249.716C306.654 248.64 307.65 247.822 308.809 247.261C309.968 246.693 311.267 246.409 312.707 246.409C314.26 246.409 315.631 246.712 316.82 247.318C318.01 247.917 318.964 248.731 319.684 249.761C320.411 250.792 320.851 251.947 321.002 253.227H316.15C315.961 252.417 315.563 251.78 314.957 251.318C314.351 250.856 313.601 250.625 312.707 250.625C311.192 250.625 310.04 251.284 309.252 252.602C308.472 253.92 308.074 255.712 308.059 257.977H308.218C308.567 257.288 309.036 256.701 309.627 256.216C310.226 255.723 310.904 255.348 311.661 255.091C312.426 254.826 313.233 254.693 314.082 254.693C315.461 254.693 316.688 255.019 317.764 255.67C318.839 256.314 319.688 257.201 320.309 258.33C320.93 259.458 321.241 260.75 321.241 262.205C321.241 263.78 320.873 265.182 320.139 266.409C319.411 267.636 318.392 268.598 317.082 269.295C315.779 269.985 314.264 270.326 312.536 270.318ZM312.514 266.455C313.271 266.455 313.949 266.273 314.548 265.909C315.146 265.545 315.616 265.053 315.957 264.432C316.298 263.811 316.468 263.114 316.468 262.341C316.468 261.568 316.298 260.875 315.957 260.261C315.623 259.648 315.161 259.159 314.57 258.795C313.979 258.432 313.305 258.25 312.548 258.25C311.979 258.25 311.453 258.356 310.968 258.568C310.491 258.78 310.07 259.076 309.707 259.455C309.351 259.833 309.07 260.273 308.866 260.773C308.661 261.265 308.559 261.792 308.559 262.352C308.559 263.102 308.729 263.788 309.07 264.409C309.419 265.03 309.889 265.527 310.479 265.898C311.078 266.269 311.756 266.455 312.514 266.455ZM334.336 270L343.984 250.909V250.75H332.745V246.727H349.075V250.807L339.416 270H334.336ZM369.815 270.318C368.065 270.318 366.508 270.034 365.145 269.466C363.789 268.89 362.724 268.106 361.951 267.114C361.179 266.121 360.792 264.996 360.792 263.739C360.792 262.769 361.012 261.879 361.451 261.068C361.898 260.25 362.504 259.572 363.27 259.034C364.035 258.489 364.891 258.14 365.838 257.989V257.83C364.595 257.58 363.588 256.977 362.815 256.023C362.042 255.061 361.656 253.943 361.656 252.67C361.656 251.466 362.008 250.394 362.713 249.455C363.417 248.508 364.383 247.765 365.611 247.227C366.845 246.682 368.247 246.409 369.815 246.409C371.383 246.409 372.781 246.682 374.008 247.227C375.243 247.773 376.213 248.519 376.917 249.466C377.622 250.405 377.978 251.473 377.986 252.67C377.978 253.951 377.584 255.068 376.804 256.023C376.023 256.977 375.023 257.58 373.804 257.83V257.989C374.736 258.14 375.58 258.489 376.338 259.034C377.103 259.572 377.709 260.25 378.156 261.068C378.611 261.879 378.842 262.769 378.849 263.739C378.842 264.996 378.451 266.121 377.679 267.114C376.906 268.106 375.838 268.89 374.474 269.466C373.118 270.034 371.565 270.318 369.815 270.318ZM369.815 266.705C370.595 266.705 371.277 266.564 371.861 266.284C372.444 265.996 372.898 265.602 373.224 265.102C373.557 264.595 373.724 264.011 373.724 263.352C373.724 262.678 373.554 262.083 373.213 261.568C372.872 261.045 372.41 260.636 371.826 260.341C371.243 260.038 370.573 259.886 369.815 259.886C369.065 259.886 368.395 260.038 367.804 260.341C367.213 260.636 366.747 261.045 366.406 261.568C366.073 262.083 365.906 262.678 365.906 263.352C365.906 264.011 366.069 264.595 366.395 265.102C366.72 265.602 367.179 265.996 367.77 266.284C368.361 266.564 369.042 266.705 369.815 266.705ZM369.815 256.307C370.467 256.307 371.046 256.174 371.554 255.909C372.061 255.644 372.459 255.277 372.747 254.807C373.035 254.337 373.179 253.795 373.179 253.182C373.179 252.576 373.035 252.045 372.747 251.591C372.459 251.129 372.065 250.769 371.565 250.511C371.065 250.246 370.482 250.114 369.815 250.114C369.156 250.114 368.573 250.246 368.065 250.511C367.557 250.769 367.16 251.129 366.872 251.591C366.592 252.045 366.451 252.576 366.451 253.182C366.451 253.795 366.595 254.337 366.883 254.807C367.171 255.277 367.569 255.644 368.076 255.909C368.584 256.174 369.164 256.307 369.815 256.307ZM399.396 246.409C400.593 246.409 401.745 246.61 402.851 247.011C403.964 247.413 404.957 248.053 405.828 248.932C406.707 249.811 407.4 250.977 407.908 252.432C408.423 253.879 408.684 255.655 408.692 257.761C408.692 259.739 408.468 261.504 408.021 263.057C407.582 264.602 406.949 265.917 406.123 267C405.298 268.083 404.302 268.909 403.135 269.477C401.968 270.038 400.665 270.318 399.226 270.318C397.673 270.318 396.302 270.019 395.112 269.42C393.923 268.814 392.964 267.992 392.237 266.955C391.517 265.909 391.082 264.735 390.93 263.432H395.783C395.972 264.28 396.37 264.939 396.976 265.409C397.582 265.871 398.332 266.102 399.226 266.102C400.741 266.102 401.892 265.443 402.68 264.125C403.468 262.799 403.866 260.985 403.873 258.682H403.714C403.366 259.364 402.896 259.951 402.305 260.443C401.714 260.928 401.036 261.303 400.271 261.568C399.514 261.833 398.707 261.966 397.851 261.966C396.48 261.966 395.256 261.644 394.18 261C393.105 260.356 392.256 259.47 391.635 258.341C391.014 257.212 390.703 255.924 390.703 254.477C390.695 252.917 391.055 251.527 391.783 250.307C392.51 249.087 393.525 248.133 394.828 247.443C396.139 246.746 397.661 246.402 399.396 246.409ZM399.43 250.273C398.665 250.273 397.983 250.455 397.385 250.818C396.794 251.182 396.324 251.67 395.976 252.284C395.635 252.898 395.468 253.583 395.476 254.341C395.476 255.106 395.642 255.795 395.976 256.409C396.317 257.015 396.779 257.5 397.362 257.864C397.953 258.22 398.627 258.398 399.385 258.398C399.953 258.398 400.48 258.292 400.964 258.08C401.449 257.867 401.87 257.576 402.226 257.205C402.589 256.826 402.873 256.39 403.078 255.898C403.283 255.405 403.385 254.883 403.385 254.33C403.377 253.595 403.203 252.92 402.862 252.307C402.521 251.693 402.052 251.201 401.453 250.83C400.855 250.458 400.18 250.273 399.43 250.273ZM429.912 270.511C427.957 270.504 426.276 270.023 424.867 269.068C423.465 268.114 422.385 266.731 421.628 264.92C420.878 263.11 420.507 260.932 420.514 258.386C420.514 255.848 420.889 253.686 421.639 251.898C422.397 250.11 423.476 248.75 424.878 247.818C426.287 246.879 427.965 246.409 429.912 246.409C431.859 246.409 433.533 246.879 434.935 247.818C436.344 248.758 437.427 250.121 438.185 251.909C438.942 253.689 439.317 255.848 439.31 258.386C439.31 260.939 438.931 263.121 438.173 264.932C437.423 266.742 436.348 268.125 434.946 269.08C433.545 270.034 431.867 270.511 429.912 270.511ZM429.912 266.432C431.245 266.432 432.31 265.761 433.105 264.42C433.901 263.08 434.295 261.068 434.287 258.386C434.287 256.621 434.105 255.152 433.742 253.977C433.385 252.803 432.878 251.92 432.219 251.33C431.567 250.739 430.798 250.443 429.912 250.443C428.586 250.443 427.526 251.106 426.73 252.432C425.935 253.758 425.533 255.742 425.526 258.386C425.526 260.174 425.704 261.667 426.06 262.864C426.423 264.053 426.935 264.947 427.594 265.545C428.253 266.136 429.026 266.432 429.912 266.432Z" fill="#050D08"/>
</svg>
