<svg width="600" height="276" viewBox="0 0 600 276" fill="none" xmlns="http://www.w3.org/2000/svg">
<path d="M170.368 6.72727V30H168.947V6.72727H170.368ZM178.641 18.6818V30H177.255V12.5455H178.607V15.3068H178.744C179.153 14.4053 179.808 13.6818 180.71 13.1364C181.611 12.5909 182.683 12.3182 183.925 12.3182C185.1 12.3182 186.13 12.5682 187.016 13.0682C187.91 13.5682 188.607 14.2803 189.107 15.2045C189.615 16.1212 189.869 17.2159 189.869 18.4886V30H188.482V18.5455C188.482 17.0606 188.039 15.8674 187.153 14.9659C186.274 14.0568 185.111 13.6023 183.664 13.6023C182.694 13.6023 181.831 13.8144 181.073 14.2386C180.316 14.6629 179.721 15.2576 179.289 16.0227C178.857 16.7803 178.641 17.6667 178.641 18.6818ZM202.44 12.5455V13.7841H194.815V12.5455H202.44ZM197.395 8.36364H198.77V25.875C198.77 26.5871 198.906 27.1705 199.179 27.625C199.459 28.072 199.823 28.4053 200.27 28.625C200.725 28.8371 201.209 28.9432 201.725 28.9432C201.975 28.9432 202.19 28.9242 202.372 28.8864C202.562 28.8485 202.74 28.7992 202.906 28.7386L203.247 30C203.035 30.0758 202.8 30.1402 202.543 30.1932C202.285 30.2538 201.982 30.2841 201.634 30.2841C200.906 30.2841 200.217 30.1212 199.565 29.7955C198.922 29.4697 198.399 28.9962 197.997 28.375C197.596 27.7538 197.395 27.0038 197.395 26.125V8.36364ZM214.842 30.3636C213.266 30.3636 211.895 29.9735 210.728 29.1932C209.562 28.4129 208.66 27.3447 208.024 25.9886C207.387 24.6326 207.069 23.0871 207.069 21.3523C207.069 19.6098 207.387 18.0568 208.024 16.6932C208.668 15.3295 209.55 14.2538 210.671 13.4659C211.793 12.678 213.073 12.2841 214.512 12.2841C215.49 12.2841 216.414 12.4811 217.285 12.875C218.164 13.2614 218.937 13.822 219.603 14.5568C220.277 15.2917 220.804 16.178 221.183 17.2159C221.569 18.2538 221.762 19.4205 221.762 20.7159V21.5795H207.944V20.3182H220.376C220.376 19.053 220.118 17.9129 219.603 16.8977C219.088 15.8826 218.387 15.0758 217.501 14.4773C216.615 13.8788 215.618 13.5795 214.512 13.5795C213.353 13.5795 212.319 13.9053 211.41 14.5568C210.508 15.2008 209.793 16.072 209.262 17.1705C208.74 18.2689 208.467 19.4962 208.444 20.8523V21.4205C208.444 22.875 208.698 24.1818 209.205 25.3409C209.721 26.4924 210.455 27.4053 211.41 28.0795C212.365 28.7462 213.508 29.0795 214.842 29.0795C215.796 29.0795 216.611 28.9205 217.285 28.6023C217.967 28.2765 218.524 27.8826 218.955 27.4205C219.387 26.9583 219.713 26.5114 219.933 26.0795L221.194 26.5909C220.929 27.1742 220.516 27.7576 219.955 28.3409C219.402 28.9167 218.698 29.3977 217.842 29.7841C216.993 30.1705 215.993 30.3636 214.842 30.3636ZM227.175 30V12.5455H228.527V15.2727H228.652C229.031 14.3788 229.671 13.6629 230.573 13.125C231.474 12.5795 232.501 12.3068 233.652 12.3068C233.773 12.3068 233.895 12.3068 234.016 12.3068C234.137 12.3068 234.251 12.3106 234.357 12.3182V13.7159C234.266 13.7083 234.156 13.697 234.027 13.6818C233.906 13.6591 233.755 13.6477 233.573 13.6477C232.603 13.6477 231.739 13.8561 230.982 14.2727C230.232 14.6894 229.641 15.2652 229.209 16C228.777 16.7273 228.561 17.5606 228.561 18.5V30H227.175ZM257.214 17.7045V19.0227H248.032V17.7045H257.214ZM273.411 30V6.72727H286.366V8.04545H274.832V17.6932H285.673V19.0114H274.832V28.6818H286.638V30H273.411ZM292.929 12.5455L297.747 20.3068L302.565 12.5455H304.168L298.577 21.2727L304.168 30H302.565L297.747 22.3636L292.929 30H291.315L296.884 21.2727L291.315 12.5455H292.929ZM315.623 12.5455V13.7841H307.998V12.5455H315.623ZM310.577 8.36364H311.952V25.875C311.952 26.5871 312.089 27.1705 312.362 27.625C312.642 28.072 313.006 28.4053 313.452 28.625C313.907 28.8371 314.392 28.9432 314.907 28.9432C315.157 28.9432 315.373 28.9242 315.555 28.8864C315.744 28.8485 315.922 28.7992 316.089 28.7386L316.43 30C316.218 30.0758 315.983 30.1402 315.725 30.1932C315.468 30.2538 315.165 30.2841 314.816 30.2841C314.089 30.2841 313.399 30.1212 312.748 29.7955C312.104 29.4697 311.581 28.9962 311.18 28.375C310.778 27.7538 310.577 27.0038 310.577 26.125V8.36364ZM321.405 30V12.5455H322.757V15.2727H322.882C323.261 14.3788 323.901 13.6629 324.803 13.125C325.704 12.5795 326.731 12.3068 327.882 12.3068C328.003 12.3068 328.125 12.3068 328.246 12.3068C328.367 12.3068 328.481 12.3106 328.587 12.3182V13.7159C328.496 13.7083 328.386 13.697 328.257 13.6818C328.136 13.6591 327.985 13.6477 327.803 13.6477C326.833 13.6477 325.969 13.8561 325.212 14.2727C324.462 14.6894 323.871 15.2652 323.439 16C323.007 16.7273 322.791 17.5606 322.791 18.5V30H321.405ZM337.576 30.375C336.569 30.375 335.644 30.1742 334.804 29.7727C333.97 29.3712 333.3 28.7841 332.792 28.0114C332.292 27.2386 332.042 26.2992 332.042 25.1932C332.042 24.4659 332.171 23.8258 332.429 23.2727C332.686 22.7197 333.084 22.2424 333.622 21.8409C334.16 21.4394 334.849 21.1098 335.69 20.8523C336.531 20.5871 337.535 20.3826 338.701 20.2386C339.588 20.1326 340.379 20.0303 341.076 19.9318C341.773 19.8258 342.319 19.6629 342.713 19.4432C343.114 19.2235 343.315 18.8902 343.315 18.4432V17.7159C343.315 16.4432 342.913 15.4318 342.11 14.6818C341.307 13.9318 340.201 13.5568 338.792 13.5568C337.542 13.5568 336.489 13.8333 335.633 14.3864C334.785 14.9318 334.19 15.6364 333.849 16.5L332.542 16.0114C332.875 15.178 333.357 14.4848 333.985 13.9318C334.622 13.3788 335.349 12.9659 336.167 12.6932C336.993 12.4205 337.857 12.2841 338.758 12.2841C339.538 12.2841 340.281 12.3939 340.985 12.6136C341.697 12.8333 342.33 13.1667 342.883 13.6136C343.444 14.0606 343.887 14.6326 344.213 15.3295C344.538 16.0189 344.701 16.8447 344.701 17.8068V30H343.315V26.8523H343.213C342.91 27.5038 342.493 28.0985 341.963 28.6364C341.44 29.1667 340.807 29.5909 340.065 29.9091C339.33 30.2197 338.5 30.375 337.576 30.375ZM337.713 29.0909C338.804 29.0909 339.769 28.8258 340.61 28.2955C341.459 27.7576 342.122 27.0227 342.599 26.0909C343.076 25.1591 343.315 24.1023 343.315 22.9205V20.3523C343.141 20.5038 342.887 20.6402 342.554 20.7614C342.228 20.875 341.857 20.9773 341.44 21.0682C341.031 21.1515 340.599 21.2273 340.144 21.2955C339.697 21.3561 339.262 21.4129 338.838 21.4659C337.565 21.6174 336.527 21.8523 335.724 22.1705C334.929 22.4811 334.345 22.8902 333.974 23.3977C333.61 23.9053 333.429 24.5189 333.429 25.2386C333.429 26.428 333.838 27.3674 334.656 28.0568C335.474 28.7462 336.493 29.0909 337.713 29.0909ZM361.282 30V6.72727H362.703V28.6818H374.066V30H361.282ZM379.502 30V12.5455H380.877V30H379.502ZM380.195 9.45454C379.892 9.45454 379.627 9.34848 379.4 9.13636C379.18 8.92424 379.07 8.66667 379.07 8.36364C379.07 8.06061 379.18 7.80303 379.4 7.59091C379.619 7.37879 379.885 7.27273 380.195 7.27273C380.498 7.27273 380.76 7.37879 380.979 7.59091C381.206 7.80303 381.32 8.06061 381.32 8.36364C381.32 8.66667 381.21 8.92424 380.991 9.13636C380.771 9.34848 380.506 9.45454 380.195 9.45454ZM393.619 36.9091C392.536 36.9091 391.562 36.7652 390.699 36.4773C389.835 36.197 389.1 35.7955 388.494 35.2727C387.896 34.75 387.437 34.1288 387.119 33.4091L388.278 32.7273C388.536 33.2879 388.903 33.7879 389.381 34.2273C389.858 34.6667 390.449 35.0114 391.153 35.2614C391.865 35.5114 392.687 35.6364 393.619 35.6364C395.301 35.6364 396.631 35.2008 397.608 34.3295C398.593 33.4659 399.085 32.1402 399.085 30.3523V26.0114H398.949C398.684 26.7689 398.29 27.4432 397.767 28.0341C397.252 28.6174 396.619 29.0758 395.869 29.4091C395.119 29.7424 394.267 29.9091 393.312 29.9091C391.934 29.9091 390.721 29.553 389.676 28.8409C388.631 28.1288 387.816 27.1288 387.233 25.8409C386.65 24.5455 386.358 23.0227 386.358 21.2727C386.358 19.5227 386.642 17.9735 387.21 16.625C387.786 15.2689 388.596 14.2083 389.642 13.4432C390.687 12.6705 391.915 12.2841 393.324 12.2841C394.331 12.2841 395.203 12.4773 395.937 12.8636C396.68 13.2424 397.301 13.7462 397.801 14.375C398.301 15.0038 398.687 15.6932 398.96 16.4432H399.119V12.5455H400.46V30.4091C400.46 31.8636 400.172 33.072 399.596 34.0341C399.028 34.9962 398.229 35.7159 397.199 36.1932C396.176 36.6705 394.983 36.9091 393.619 36.9091ZM393.437 28.625C394.604 28.625 395.608 28.3295 396.449 27.7386C397.297 27.1402 397.949 26.2917 398.403 25.1932C398.865 24.0871 399.096 22.7765 399.096 21.2614C399.096 19.7917 398.873 18.4773 398.426 17.3182C397.979 16.1591 397.331 15.2462 396.483 14.5795C395.634 13.9129 394.619 13.5795 393.437 13.5795C392.233 13.5795 391.206 13.9205 390.358 14.6023C389.509 15.2765 388.858 16.1932 388.403 17.3523C387.956 18.5114 387.733 19.8144 387.733 21.2614C387.733 22.7159 387.96 23.9962 388.415 25.1023C388.869 26.2008 389.521 27.0644 390.369 27.6932C391.218 28.3144 392.24 28.625 393.437 28.625ZM408.319 18.6818V30H406.933V6.72727H408.319V15.3068H408.455C408.864 14.3977 409.516 13.6742 410.41 13.1364C411.311 12.5909 412.391 12.3182 413.648 12.3182C414.823 12.3182 415.857 12.5682 416.751 13.0682C417.645 13.5606 418.342 14.2689 418.842 15.1932C419.349 16.1098 419.603 17.2083 419.603 18.4886V30H418.228V18.5455C418.228 17.053 417.785 15.8561 416.898 14.9545C416.012 14.053 414.842 13.6023 413.387 13.6023C412.41 13.6023 411.539 13.8144 410.773 14.2386C410.008 14.6629 409.406 15.2576 408.967 16.0227C408.535 16.7803 408.319 17.6667 408.319 18.6818ZM432.149 12.5455V13.7841H424.524V12.5455H432.149ZM427.104 8.36364H428.479V25.875C428.479 26.5871 428.615 27.1705 428.888 27.625C429.168 28.072 429.532 28.4053 429.979 28.625C430.433 28.8371 430.918 28.9432 431.433 28.9432C431.683 28.9432 431.899 28.9242 432.081 28.8864C432.27 28.8485 432.448 28.7992 432.615 28.7386L432.956 30C432.744 30.0758 432.509 30.1402 432.251 30.1932C431.994 30.2538 431.691 30.2841 431.342 30.2841C430.615 30.2841 429.926 30.1212 429.274 29.7955C428.63 29.4697 428.108 28.9962 427.706 28.375C427.305 27.7538 427.104 27.0038 427.104 26.125V8.36364Z" fill="#050D08"/>
<path d="M69.9203 86H68.4203L76.818 62.7273H78.4544L86.8521 86H85.3521L77.693 64.5568H77.5794L69.9203 86ZM72.0453 77.2386H83.2271V78.5568H72.0453V77.2386ZM101.473 86V62.7273H109.03C110.439 62.7273 111.628 62.9773 112.598 63.4773C113.568 63.9773 114.303 64.678 114.803 65.5795C115.31 66.4811 115.564 67.5303 115.564 68.7273C115.564 69.6667 115.412 70.5 115.109 71.2273C114.806 71.9545 114.382 72.5568 113.837 73.0341C113.299 73.5038 112.666 73.8295 111.939 74.0114V74.1477C112.742 74.2083 113.488 74.4886 114.178 74.9886C114.867 75.4811 115.42 76.1515 115.837 77C116.261 77.8485 116.473 78.8371 116.473 79.9659C116.473 81.1553 116.215 82.2045 115.7 83.1136C115.193 84.0152 114.431 84.7235 113.416 85.2386C112.401 85.7462 111.143 86 109.643 86H101.473ZM102.893 84.6818H109.643C111.393 84.6818 112.738 84.2424 113.678 83.3636C114.625 82.4848 115.098 81.3523 115.098 79.9659C115.098 78.9886 114.867 78.1136 114.405 77.3409C113.95 76.5682 113.318 75.9583 112.507 75.5114C111.696 75.0568 110.757 74.8295 109.689 74.8295H102.893V84.6818ZM102.893 73.5341H109.518C110.511 73.5341 111.352 73.3182 112.041 72.8864C112.738 72.4545 113.268 71.875 113.632 71.1477C114.003 70.4205 114.189 69.6136 114.189 68.7273C114.189 67.2879 113.742 66.1477 112.848 65.3068C111.954 64.4659 110.681 64.0455 109.03 64.0455H102.893V73.5341ZM150.074 70H148.619C148.468 69.2121 148.184 68.4508 147.767 67.7159C147.351 66.9735 146.813 66.3068 146.154 65.7159C145.502 65.1174 144.744 64.6439 143.881 64.2955C143.017 63.947 142.063 63.7727 141.017 63.7727C139.487 63.7727 138.078 64.1818 136.79 65C135.51 65.8106 134.483 67.0038 133.71 68.5795C132.945 70.1553 132.563 72.0833 132.563 74.3636C132.563 76.6591 132.945 78.5947 133.71 80.1705C134.483 81.7462 135.51 82.9394 136.79 83.75C138.078 84.553 139.487 84.9545 141.017 84.9545C142.063 84.9545 143.017 84.7841 143.881 84.4432C144.744 84.0947 145.502 83.625 146.154 83.0341C146.813 82.4356 147.351 81.7652 147.767 81.0227C148.184 80.2803 148.468 79.5152 148.619 78.7273H150.074C149.907 79.6667 149.585 80.5871 149.108 81.4886C148.638 82.3902 148.017 83.2083 147.244 83.9432C146.479 84.6705 145.574 85.25 144.529 85.6818C143.491 86.1061 142.32 86.3182 141.017 86.3182C139.078 86.3182 137.369 85.8258 135.892 84.8409C134.415 83.8485 133.256 82.4545 132.415 80.6591C131.582 78.8636 131.165 76.7652 131.165 74.3636C131.165 71.9621 131.582 69.8636 132.415 68.0682C133.256 66.2727 134.415 64.8826 135.892 63.8977C137.369 62.9053 139.078 62.4091 141.017 62.4091C142.32 62.4091 143.491 62.625 144.529 63.0568C145.574 63.4811 146.479 64.0568 147.244 64.7841C148.017 65.5038 148.638 66.3144 149.108 67.2159C149.585 68.1174 149.907 69.0455 150.074 70ZM172.269 86H165.814V62.7273H172.769C174.951 62.7273 176.818 63.1894 178.371 64.1136C179.924 65.0379 181.114 66.3636 181.939 68.0909C182.773 69.8106 183.185 71.875 183.178 74.2841C183.17 76.7462 182.739 78.8523 181.882 80.6023C181.026 82.3447 179.788 83.6818 178.167 84.6136C176.545 85.5379 174.579 86 172.269 86ZM167.235 84.6818H172.212C174.288 84.6818 176.038 84.2689 177.462 83.4432C178.886 82.6098 179.962 81.4167 180.689 79.8636C181.424 78.3106 181.788 76.4508 181.78 74.2841C181.78 72.1477 181.428 70.3182 180.723 68.7955C180.019 67.2652 178.992 66.0909 177.644 65.2727C176.303 64.4545 174.659 64.0455 172.712 64.0455H167.235V84.6818ZM199.001 86V62.7273H211.955V64.0455H200.421V73.6932H211.262V75.0114H200.421V84.6818H212.228V86H199.001ZM228.124 86V62.7273H241.113V64.0455H229.545V73.6932H240.033V75.0114H229.545V86H228.124ZM273.461 70C273.287 69.2121 272.991 68.4508 272.575 67.7159C272.158 66.9735 271.624 66.3068 270.972 65.7159C270.328 65.1174 269.571 64.6439 268.7 64.2955C267.836 63.947 266.866 63.7727 265.791 63.7727C264.147 63.7727 262.688 64.2045 261.416 65.0682C260.15 65.9242 259.158 67.1477 258.438 68.7386C257.726 70.322 257.37 72.197 257.37 74.3636C257.37 76.5076 257.726 78.375 258.438 79.9659C259.15 81.5568 260.147 82.7879 261.427 83.6591C262.715 84.5227 264.211 84.9545 265.916 84.9545C267.438 84.9545 268.787 84.6023 269.961 83.8977C271.143 83.1932 272.063 82.1856 272.722 80.875C273.382 79.5644 273.703 77.9962 273.688 76.1705L274.188 76.4091H266.279V75.0909H275.075V76.4091C275.075 78.4621 274.681 80.2311 273.893 81.7159C273.113 83.1932 272.029 84.3295 270.643 85.125C269.264 85.9205 267.688 86.3182 265.916 86.3182C263.916 86.3182 262.169 85.822 260.677 84.8295C259.185 83.8371 258.025 82.447 257.2 80.6591C256.382 78.8636 255.972 76.7652 255.972 74.3636C255.972 72.5606 256.207 70.9242 256.677 69.4545C257.147 67.9848 257.817 66.7273 258.688 65.6818C259.56 64.6288 260.597 63.822 261.802 63.2614C263.007 62.6932 264.336 62.4091 265.791 62.4091C267.109 62.4091 268.294 62.6288 269.347 63.0682C270.4 63.5 271.31 64.0833 272.075 64.8182C272.847 65.5455 273.472 66.3598 273.95 67.2614C274.427 68.1553 274.749 69.0682 274.916 70H273.461ZM291.122 86V62.7273H292.542V73.6932H306.565V62.7273H307.985V86H306.565V75.0114H292.542V86H291.122ZM326.416 62.7273V86H324.996V62.7273H326.416ZM352.159 62.7273H353.579V79.6705C353.579 81.2159 353.311 82.4773 352.773 83.4545C352.242 84.4318 351.526 85.1553 350.625 85.625C349.731 86.0871 348.727 86.3182 347.614 86.3182C346.477 86.3182 345.458 86.1061 344.557 85.6818C343.663 85.25 342.954 84.6553 342.432 83.8977C341.909 83.1402 341.651 82.2652 341.659 81.2727H343.068C343.061 82 343.254 82.6439 343.648 83.2045C344.049 83.7576 344.595 84.197 345.284 84.5227C345.973 84.8409 346.75 85 347.614 85C348.447 85 349.208 84.822 349.898 84.4659C350.587 84.1098 351.133 83.5417 351.534 82.7614C351.943 81.9811 352.151 80.9508 352.159 79.6705V62.7273ZM370.587 86V62.7273H372.007V76.2386H372.166L384.439 62.7273H386.325L376.223 73.7386L386.234 86H384.462L375.314 74.7614L372.007 78.4205V86H370.587ZM400.96 86V62.7273H402.381V84.6818H413.745V86H400.96ZM429.24 62.7273H430.786L439.752 83.9545H439.911L448.877 62.7273H450.422V86H449.059V66.1023H448.922L440.502 86H439.161L430.74 66.1023H430.604V86H429.24V62.7273ZM485.211 62.7273V86H483.825L468.984 65.3068H468.847V86H467.427V62.7273H468.825L483.665 83.4432H483.802V62.7273H485.211ZM520.718 74.3636C520.718 76.7652 520.301 78.8636 519.468 80.6591C518.635 82.447 517.476 83.8371 515.991 84.8295C514.514 85.822 512.809 86.3182 510.877 86.3182C508.938 86.3182 507.226 85.822 505.741 84.8295C504.264 83.8295 503.108 82.4356 502.275 80.6477C501.442 78.8523 501.025 76.7576 501.025 74.3636C501.025 71.9621 501.442 69.8674 502.275 68.0795C503.116 66.2917 504.275 64.9015 505.752 63.9091C507.23 62.9091 508.938 62.4091 510.877 62.4091C512.809 62.4091 514.514 62.9053 515.991 63.8977C517.476 64.8902 518.635 66.2841 519.468 68.0795C520.301 69.8674 520.718 71.9621 520.718 74.3636ZM519.332 74.3636C519.332 72.2045 518.968 70.3333 518.241 68.75C517.521 67.1667 516.525 65.9432 515.252 65.0795C513.98 64.2083 512.521 63.7727 510.877 63.7727C509.233 63.7727 507.775 64.2045 506.502 65.0682C505.23 65.9242 504.23 67.1477 503.502 68.7386C502.783 70.322 502.423 72.197 502.423 74.3636C502.423 76.5076 502.779 78.375 503.491 79.9659C504.211 81.5492 505.207 82.7765 506.48 83.6477C507.752 84.5189 509.218 84.9545 510.877 84.9545C512.521 84.9545 513.98 84.5227 515.252 83.6591C516.525 82.7879 517.521 81.5606 518.241 79.9773C518.968 78.3939 519.332 76.5227 519.332 74.3636ZM133.917 122V98.7273H141.087C142.564 98.7273 143.83 99.0303 144.883 99.6364C145.943 100.242 146.758 101.072 147.326 102.125C147.894 103.178 148.178 104.379 148.178 105.727C148.178 107.061 147.894 108.254 147.326 109.307C146.758 110.36 145.943 111.193 144.883 111.807C143.83 112.413 142.568 112.716 141.099 112.716H134.917V111.398H141.064C142.261 111.398 143.284 111.155 144.133 110.67C144.981 110.178 145.633 109.508 146.087 108.659C146.542 107.803 146.769 106.826 146.769 105.727C146.769 104.621 146.542 103.64 146.087 102.784C145.633 101.928 144.977 101.258 144.121 100.773C143.273 100.288 142.25 100.045 141.053 100.045H135.337V122H133.917ZM172.881 114.727H174.518L177.904 119.193L178.222 119.625L181.654 124.182H180.018L177.2 120.443L176.904 120.034L172.881 114.727ZM182.427 110.364C182.427 112.765 182.01 114.864 181.177 116.659C180.344 118.447 179.184 119.837 177.7 120.83C176.222 121.822 174.518 122.318 172.586 122.318C170.647 122.318 168.934 121.822 167.45 120.83C165.972 119.83 164.817 118.436 163.984 116.648C163.15 114.852 162.734 112.758 162.734 110.364C162.734 107.962 163.15 105.867 163.984 104.08C164.825 102.292 165.984 100.902 167.461 99.9091C168.938 98.9091 170.647 98.4091 172.586 98.4091C174.518 98.4091 176.222 98.9053 177.7 99.8977C179.184 100.89 180.344 102.284 181.177 104.08C182.01 105.867 182.427 107.962 182.427 110.364ZM181.041 110.364C181.041 108.205 180.677 106.333 179.95 104.75C179.23 103.167 178.234 101.943 176.961 101.08C175.688 100.208 174.23 99.7727 172.586 99.7727C170.942 99.7727 169.484 100.205 168.211 101.068C166.938 101.924 165.938 103.148 165.211 104.739C164.491 106.322 164.131 108.197 164.131 110.364C164.131 112.508 164.487 114.375 165.2 115.966C165.919 117.549 166.916 118.777 168.188 119.648C169.461 120.519 170.927 120.955 172.586 120.955C174.23 120.955 175.688 120.523 176.961 119.659C178.234 118.788 179.23 117.561 179.95 115.977C180.677 114.394 181.041 112.523 181.041 110.364ZM198.258 122V98.7273H205.428C206.898 98.7273 208.163 99.0152 209.224 99.5909C210.285 100.167 211.099 100.966 211.667 101.989C212.235 103.004 212.519 104.186 212.519 105.534C212.519 106.867 212.235 108.042 211.667 109.057C211.099 110.064 210.285 110.852 209.224 111.42C208.171 111.989 206.91 112.273 205.44 112.273H199.019V110.943H205.406C206.603 110.943 207.625 110.72 208.474 110.273C209.322 109.826 209.974 109.201 210.428 108.398C210.883 107.587 211.11 106.633 211.11 105.534C211.11 104.428 210.883 103.466 210.428 102.648C209.974 101.822 209.319 101.182 208.463 100.727C207.614 100.273 206.591 100.045 205.394 100.045H199.678V122H198.258ZM207.815 111.455L213.542 122H211.906L206.213 111.455H207.815ZM241.021 104.545C240.9 103.098 240.309 101.928 239.248 101.034C238.195 100.14 236.832 99.6932 235.157 99.6932C234.029 99.6932 233.025 99.9015 232.146 100.318C231.267 100.735 230.578 101.303 230.078 102.023C229.578 102.742 229.328 103.568 229.328 104.5C229.328 105.098 229.441 105.64 229.669 106.125C229.904 106.602 230.233 107.03 230.657 107.409C231.082 107.78 231.585 108.106 232.169 108.386C232.752 108.667 233.396 108.913 234.101 109.125L236.646 109.875C237.517 110.14 238.32 110.447 239.055 110.795C239.797 111.144 240.441 111.561 240.987 112.045C241.54 112.523 241.968 113.083 242.271 113.727C242.582 114.371 242.737 115.114 242.737 115.955C242.737 117.182 242.419 118.28 241.782 119.25C241.154 120.22 240.256 120.985 239.089 121.545C237.93 122.098 236.563 122.375 234.987 122.375C233.487 122.375 232.18 122.121 231.066 121.614C229.96 121.106 229.085 120.402 228.441 119.5C227.797 118.591 227.434 117.545 227.351 116.364H228.805C228.881 117.326 229.188 118.159 229.726 118.864C230.271 119.561 230.994 120.098 231.896 120.477C232.797 120.856 233.828 121.045 234.987 121.045C236.237 121.045 237.339 120.833 238.294 120.409C239.248 119.977 239.994 119.379 240.532 118.614C241.07 117.848 241.339 116.958 241.339 115.943C241.339 115.125 241.146 114.424 240.76 113.841C240.373 113.258 239.801 112.754 239.044 112.33C238.294 111.905 237.362 111.527 236.248 111.193L233.532 110.375C231.714 109.822 230.324 109.068 229.362 108.114C228.407 107.159 227.93 105.97 227.93 104.545C227.93 103.348 228.248 102.288 228.885 101.364C229.521 100.432 230.385 99.7008 231.476 99.1705C232.574 98.6402 233.813 98.375 235.191 98.375C236.578 98.375 237.801 98.6439 238.862 99.1818C239.922 99.7121 240.763 100.443 241.385 101.375C242.006 102.299 242.351 103.356 242.419 104.545H241.021ZM257.085 100.045V98.7273H273.392V100.045H265.949V122H264.528V100.045H257.085ZM304.609 98.7273H306.03V114.136C306.03 115.72 305.662 117.133 304.928 118.375C304.193 119.61 303.178 120.587 301.882 121.307C300.594 122.019 299.113 122.375 297.439 122.375C295.772 122.375 294.291 122.019 292.996 121.307C291.7 120.587 290.681 119.606 289.939 118.364C289.204 117.121 288.84 115.712 288.848 114.136V98.7273H290.268V114.057C290.268 115.398 290.571 116.591 291.178 117.636C291.791 118.682 292.636 119.508 293.712 120.114C294.787 120.712 296.03 121.011 297.439 121.011C298.848 121.011 300.09 120.712 301.166 120.114C302.242 119.508 303.083 118.682 303.689 117.636C304.303 116.591 304.609 115.398 304.609 114.057V98.7273ZM322.137 98.7273L329.773 120.17H329.932L337.568 98.7273H339.068L330.671 122H329.034L320.637 98.7273H322.137ZM357.553 122L351.155 98.7273H352.632L358.314 119.807H358.451L364.042 98.7273H365.769L371.36 119.807H371.496L377.178 98.7273H378.644L372.246 122H370.61L364.962 101.057H364.837L359.189 122H357.553ZM392.489 98.7273L399.364 109.261H399.489L406.364 98.7273H408.08L400.432 110.364L408.08 122H406.364L399.489 111.534H399.364L392.489 122H390.773L398.489 110.364L390.773 98.7273H392.489ZM420.386 98.7273H422.067L429.397 109.955H429.556L436.886 98.7273H438.567L430.192 111.443V122H428.761V111.443L420.386 98.7273ZM452.137 122V120.83L465.444 100.045H452.16V98.7273H467.137V99.8977L453.842 120.682H467.251V122H452.137Z" fill="#050D08"/>
<path d="M109.298 178.375C108.291 178.375 107.366 178.174 106.525 177.773C105.692 177.371 105.022 176.784 104.514 176.011C104.014 175.239 103.764 174.299 103.764 173.193C103.764 172.466 103.893 171.826 104.15 171.273C104.408 170.72 104.806 170.242 105.344 169.841C105.881 169.439 106.571 169.11 107.412 168.852C108.253 168.587 109.256 168.383 110.423 168.239C111.309 168.133 112.101 168.03 112.798 167.932C113.495 167.826 114.041 167.663 114.434 167.443C114.836 167.223 115.037 166.89 115.037 166.443V165.716C115.037 164.443 114.635 163.432 113.832 162.682C113.029 161.932 111.923 161.557 110.514 161.557C109.264 161.557 108.211 161.833 107.355 162.386C106.506 162.932 105.912 163.636 105.571 164.5L104.264 164.011C104.597 163.178 105.078 162.485 105.707 161.932C106.344 161.379 107.071 160.966 107.889 160.693C108.715 160.42 109.578 160.284 110.48 160.284C111.26 160.284 112.003 160.394 112.707 160.614C113.419 160.833 114.052 161.167 114.605 161.614C115.166 162.061 115.609 162.633 115.934 163.33C116.26 164.019 116.423 164.845 116.423 165.807V178H115.037V174.852H114.934C114.631 175.504 114.215 176.098 113.684 176.636C113.162 177.167 112.529 177.591 111.787 177.909C111.052 178.22 110.222 178.375 109.298 178.375ZM109.434 177.091C110.525 177.091 111.491 176.826 112.332 176.295C113.181 175.758 113.844 175.023 114.321 174.091C114.798 173.159 115.037 172.102 115.037 170.92V168.352C114.863 168.504 114.609 168.64 114.275 168.761C113.95 168.875 113.578 168.977 113.162 169.068C112.753 169.152 112.321 169.227 111.866 169.295C111.419 169.356 110.984 169.413 110.559 169.466C109.287 169.617 108.249 169.852 107.446 170.17C106.65 170.481 106.067 170.89 105.696 171.398C105.332 171.905 105.15 172.519 105.15 173.239C105.15 174.428 105.559 175.367 106.378 176.057C107.196 176.746 108.215 177.091 109.434 177.091ZM133.004 178V154.727H134.379V164.443H134.516C134.788 163.693 135.175 163.004 135.675 162.375C136.175 161.746 136.796 161.242 137.538 160.864C138.281 160.477 139.148 160.284 140.141 160.284C141.542 160.284 142.766 160.674 143.811 161.455C144.857 162.227 145.667 163.295 146.243 164.659C146.819 166.015 147.107 167.568 147.107 169.318C147.107 171.083 146.819 172.648 146.243 174.011C145.667 175.367 144.86 176.432 143.822 177.205C142.785 177.977 141.561 178.364 140.152 178.364C139.16 178.364 138.292 178.174 137.55 177.795C136.807 177.409 136.186 176.902 135.686 176.273C135.186 175.636 134.796 174.943 134.516 174.193H134.357V178H133.004ZM134.368 169.307C134.368 170.792 134.591 172.121 135.038 173.295C135.493 174.462 136.144 175.386 136.993 176.068C137.841 176.742 138.857 177.08 140.038 177.08C141.235 177.08 142.258 176.739 143.107 176.057C143.955 175.367 144.603 174.436 145.05 173.261C145.504 172.087 145.732 170.769 145.732 169.307C145.732 167.845 145.504 166.53 145.05 165.364C144.603 164.197 143.955 163.277 143.107 162.602C142.258 161.92 141.235 161.58 140.038 161.58C138.857 161.58 137.841 161.917 136.993 162.591C136.144 163.258 135.493 164.174 135.038 165.341C134.591 166.5 134.368 167.822 134.368 169.307ZM168.716 178.364C167.231 178.364 165.924 177.973 164.796 177.193C163.667 176.405 162.784 175.33 162.148 173.966C161.519 172.602 161.205 171.057 161.205 169.33C161.205 167.602 161.523 166.057 162.159 164.693C162.796 163.33 163.678 162.254 164.807 161.466C165.936 160.678 167.235 160.284 168.705 160.284C169.811 160.284 170.818 160.511 171.727 160.966C172.644 161.42 173.402 162.053 174 162.864C174.606 163.674 174.993 164.614 175.159 165.682H173.75C173.523 164.5 172.955 163.523 172.046 162.75C171.144 161.97 170.034 161.58 168.716 161.58C167.534 161.58 166.481 161.913 165.557 162.58C164.633 163.239 163.905 164.152 163.375 165.318C162.845 166.477 162.58 167.807 162.58 169.307C162.58 170.784 162.837 172.11 163.352 173.284C163.868 174.451 164.587 175.375 165.512 176.057C166.436 176.739 167.504 177.08 168.716 177.08C169.572 177.08 170.352 176.909 171.057 176.568C171.769 176.227 172.364 175.742 172.841 175.114C173.318 174.485 173.633 173.75 173.784 172.909H175.193C175.027 173.985 174.648 174.932 174.057 175.75C173.466 176.568 172.712 177.208 171.796 177.67C170.879 178.133 169.852 178.364 168.716 178.364ZM196.189 178.364C194.788 178.364 193.564 177.977 192.519 177.205C191.473 176.432 190.663 175.367 190.087 174.011C189.519 172.648 189.235 171.083 189.235 169.318C189.235 167.568 189.523 166.015 190.098 164.659C190.682 163.295 191.496 162.227 192.542 161.455C193.587 160.674 194.807 160.284 196.201 160.284C197.201 160.284 198.068 160.477 198.803 160.864C199.545 161.242 200.167 161.746 200.667 162.375C201.174 163.004 201.56 163.693 201.826 164.443H201.962V154.727H203.337V178H201.996V174.193H201.826C201.545 174.943 201.155 175.636 200.655 176.273C200.155 176.902 199.534 177.409 198.792 177.795C198.049 178.174 197.182 178.364 196.189 178.364ZM196.314 177.08C197.496 177.08 198.507 176.742 199.348 176.068C200.197 175.386 200.845 174.462 201.292 173.295C201.746 172.121 201.973 170.792 201.973 169.307C201.973 167.822 201.746 166.5 201.292 165.341C200.845 164.174 200.197 163.258 199.348 162.591C198.507 161.917 197.496 161.58 196.314 161.58C195.117 161.58 194.091 161.92 193.235 162.602C192.386 163.277 191.735 164.197 191.28 165.364C190.833 166.53 190.61 167.845 190.61 169.307C190.61 170.769 190.833 172.087 191.28 173.261C191.735 174.436 192.386 175.367 193.235 176.057C194.091 176.739 195.117 177.08 196.314 177.08ZM226.662 178.364C225.087 178.364 223.715 177.973 222.549 177.193C221.382 176.413 220.481 175.345 219.844 173.989C219.208 172.633 218.89 171.087 218.89 169.352C218.89 167.61 219.208 166.057 219.844 164.693C220.488 163.33 221.371 162.254 222.492 161.466C223.613 160.678 224.894 160.284 226.333 160.284C227.31 160.284 228.234 160.481 229.106 160.875C229.984 161.261 230.757 161.822 231.424 162.557C232.098 163.292 232.625 164.178 233.003 165.216C233.39 166.254 233.583 167.42 233.583 168.716V169.58H219.765V168.318H232.197C232.197 167.053 231.939 165.913 231.424 164.898C230.909 163.883 230.208 163.076 229.322 162.477C228.435 161.879 227.439 161.58 226.333 161.58C225.174 161.58 224.14 161.905 223.231 162.557C222.329 163.201 221.613 164.072 221.083 165.17C220.56 166.269 220.287 167.496 220.265 168.852V169.42C220.265 170.875 220.519 172.182 221.026 173.341C221.541 174.492 222.276 175.405 223.231 176.08C224.185 176.746 225.329 177.08 226.662 177.08C227.617 177.08 228.431 176.92 229.106 176.602C229.787 176.277 230.344 175.883 230.776 175.42C231.208 174.958 231.534 174.511 231.753 174.08L233.015 174.591C232.75 175.174 232.337 175.758 231.776 176.341C231.223 176.917 230.519 177.398 229.662 177.784C228.814 178.17 227.814 178.364 226.662 178.364ZM255.227 160.545V161.784H247.488V160.545H255.227ZM250.033 178V157.83C250.033 156.951 250.234 156.201 250.636 155.58C251.037 154.958 251.564 154.485 252.215 154.159C252.874 153.833 253.583 153.67 254.34 153.67C254.742 153.67 255.083 153.705 255.363 153.773C255.651 153.833 255.901 153.905 256.113 153.989L255.704 155.216C255.53 155.155 255.34 155.102 255.136 155.057C254.939 155.011 254.704 154.989 254.431 154.989C253.552 154.989 252.829 155.258 252.261 155.795C251.692 156.333 251.408 157.083 251.408 158.045L251.397 178H250.033ZM276.117 184.909C275.034 184.909 274.061 184.765 273.197 184.477C272.333 184.197 271.598 183.795 270.992 183.273C270.394 182.75 269.936 182.129 269.617 181.409L270.776 180.727C271.034 181.288 271.401 181.788 271.879 182.227C272.356 182.667 272.947 183.011 273.651 183.261C274.364 183.511 275.186 183.636 276.117 183.636C277.799 183.636 279.129 183.201 280.106 182.33C281.091 181.466 281.583 180.14 281.583 178.352V174.011H281.447C281.182 174.769 280.788 175.443 280.265 176.034C279.75 176.617 279.117 177.076 278.367 177.409C277.617 177.742 276.765 177.909 275.811 177.909C274.432 177.909 273.22 177.553 272.174 176.841C271.129 176.129 270.314 175.129 269.731 173.841C269.148 172.545 268.856 171.023 268.856 169.273C268.856 167.523 269.14 165.973 269.708 164.625C270.284 163.269 271.095 162.208 272.14 161.443C273.186 160.67 274.413 160.284 275.822 160.284C276.829 160.284 277.701 160.477 278.436 160.864C279.178 161.242 279.799 161.746 280.299 162.375C280.799 163.004 281.186 163.693 281.458 164.443H281.617V160.545H282.958V178.409C282.958 179.864 282.67 181.072 282.095 182.034C281.526 182.996 280.727 183.716 279.697 184.193C278.674 184.67 277.481 184.909 276.117 184.909ZM275.936 176.625C277.102 176.625 278.106 176.33 278.947 175.739C279.795 175.14 280.447 174.292 280.901 173.193C281.364 172.087 281.595 170.777 281.595 169.261C281.595 167.792 281.371 166.477 280.924 165.318C280.477 164.159 279.829 163.246 278.981 162.58C278.132 161.913 277.117 161.58 275.936 161.58C274.731 161.58 273.704 161.92 272.856 162.602C272.007 163.277 271.356 164.193 270.901 165.352C270.454 166.511 270.231 167.814 270.231 169.261C270.231 170.716 270.458 171.996 270.913 173.102C271.367 174.201 272.019 175.064 272.867 175.693C273.716 176.314 274.739 176.625 275.936 176.625ZM300.457 166.682V178H299.071V154.727H300.457V163.307H300.593C301.002 162.398 301.654 161.674 302.548 161.136C303.449 160.591 304.529 160.318 305.787 160.318C306.961 160.318 307.995 160.568 308.889 161.068C309.783 161.561 310.48 162.269 310.98 163.193C311.487 164.11 311.741 165.208 311.741 166.489V178H310.366V166.545C310.366 165.053 309.923 163.856 309.037 162.955C308.15 162.053 306.98 161.602 305.525 161.602C304.548 161.602 303.677 161.814 302.912 162.239C302.146 162.663 301.544 163.258 301.105 164.023C300.673 164.78 300.457 165.667 300.457 166.682ZM327.825 178V160.545H329.2V178H327.825ZM328.518 157.455C328.215 157.455 327.95 157.348 327.723 157.136C327.503 156.924 327.393 156.667 327.393 156.364C327.393 156.061 327.503 155.803 327.723 155.591C327.942 155.379 328.208 155.273 328.518 155.273C328.821 155.273 329.083 155.379 329.302 155.591C329.53 155.803 329.643 156.061 329.643 156.364C329.643 156.667 329.533 156.924 329.314 157.136C329.094 157.348 328.829 157.455 328.518 157.455ZM345.355 160.545H346.73V180.125C346.73 181.027 346.544 181.807 346.173 182.466C345.802 183.133 345.291 183.644 344.639 184C343.995 184.364 343.249 184.545 342.401 184.545C342.34 184.545 342.276 184.542 342.207 184.534C342.139 184.534 342.06 184.527 341.969 184.511L342.037 183.227C342.097 183.227 342.154 183.227 342.207 183.227C342.26 183.227 342.317 183.227 342.378 183.227C343.226 183.227 343.935 182.951 344.503 182.398C345.071 181.852 345.355 181.095 345.355 180.125V160.545ZM346.037 157.455C345.726 157.455 345.461 157.348 345.241 157.136C345.022 156.924 344.912 156.667 344.912 156.364C344.912 156.061 345.022 155.803 345.241 155.591C345.461 155.379 345.726 155.273 346.037 155.273C346.34 155.273 346.601 155.379 346.821 155.591C347.041 155.803 347.151 156.061 347.151 156.364C347.151 156.667 347.041 156.924 346.821 157.136C346.601 157.348 346.34 157.455 346.037 157.455ZM364.021 171.182L363.999 169.193H364.362L373.09 160.545H374.896L366.885 168.5L366.749 168.557L364.021 171.182ZM362.817 178V154.727H364.203V178H362.817ZM373.487 178L366.124 168.693L367.124 167.773L375.26 178H373.487ZM390.671 154.727V178H389.284V154.727H390.671ZM406.689 178V160.545H408.042V163.182H408.178C408.511 162.303 409.087 161.606 409.905 161.091C410.723 160.576 411.708 160.318 412.86 160.318C414.125 160.318 415.144 160.621 415.917 161.227C416.697 161.833 417.258 162.655 417.598 163.693H417.723C418.064 162.67 418.674 161.852 419.553 161.239C420.439 160.625 421.53 160.318 422.826 160.318C424.515 160.318 425.803 160.852 426.689 161.92C427.583 162.981 428.03 164.436 428.03 166.284V178H426.644V166.284C426.644 164.83 426.295 163.686 425.598 162.852C424.901 162.019 423.879 161.602 422.53 161.602C421.091 161.602 419.985 162.053 419.212 162.955C418.439 163.856 418.053 165.004 418.053 166.398V178H416.667V166.193C416.667 164.837 416.326 163.735 415.644 162.886C414.962 162.03 413.939 161.602 412.576 161.602C411.651 161.602 410.852 161.814 410.178 162.239C409.511 162.663 408.992 163.246 408.621 163.989C408.258 164.731 408.076 165.583 408.076 166.545V178H406.689ZM445.45 166.682V178H444.063V160.545H445.415V163.307H445.552C445.961 162.405 446.616 161.682 447.518 161.136C448.419 160.591 449.491 160.318 450.734 160.318C451.908 160.318 452.938 160.568 453.825 161.068C454.718 161.568 455.415 162.28 455.915 163.205C456.423 164.121 456.677 165.216 456.677 166.489V178H455.29V166.545C455.29 165.061 454.847 163.867 453.961 162.966C453.082 162.057 451.919 161.602 450.472 161.602C449.503 161.602 448.639 161.814 447.881 162.239C447.124 162.663 446.529 163.258 446.097 164.023C445.665 164.78 445.45 165.667 445.45 166.682ZM479.207 178.364C477.767 178.364 476.487 177.977 475.366 177.205C474.245 176.424 473.362 175.352 472.718 173.989C472.074 172.625 471.752 171.072 471.752 169.33C471.752 167.58 472.074 166.027 472.718 164.67C473.362 163.307 474.245 162.235 475.366 161.455C476.487 160.674 477.767 160.284 479.207 160.284C480.646 160.284 481.926 160.674 483.048 161.455C484.169 162.235 485.051 163.307 485.695 164.67C486.339 166.034 486.661 167.587 486.661 169.33C486.661 171.072 486.339 172.625 485.695 173.989C485.051 175.352 484.169 176.424 483.048 177.205C481.926 177.977 480.646 178.364 479.207 178.364ZM479.207 177.08C480.426 177.08 481.491 176.735 482.4 176.045C483.317 175.356 484.025 174.424 484.525 173.25C485.033 172.076 485.286 170.769 485.286 169.33C485.286 167.89 485.033 166.587 484.525 165.42C484.017 164.246 483.309 163.314 482.4 162.625C481.491 161.928 480.426 161.58 479.207 161.58C477.987 161.58 476.923 161.928 476.014 162.625C475.105 163.314 474.396 164.246 473.889 165.42C473.381 166.587 473.127 167.89 473.127 169.33C473.127 170.769 473.377 172.076 473.877 173.25C474.385 174.424 475.093 175.356 476.002 176.045C476.919 176.735 477.987 177.08 479.207 177.08ZM157.897 220.545V196.545H159.249V200.443H159.42C159.692 199.693 160.075 199.004 160.567 198.375C161.067 197.746 161.685 197.242 162.42 196.864C163.162 196.477 164.033 196.284 165.033 196.284C166.442 196.284 167.67 196.67 168.715 197.443C169.761 198.216 170.571 199.284 171.147 200.648C171.723 202.004 172.011 203.561 172.011 205.318C172.011 207.076 171.719 208.636 171.136 210C170.56 211.356 169.749 212.424 168.704 213.205C167.666 213.977 166.45 214.364 165.056 214.364C164.064 214.364 163.192 214.174 162.442 213.795C161.7 213.417 161.075 212.913 160.567 212.284C160.067 211.648 159.685 210.951 159.42 210.193H159.283V220.545H157.897ZM159.261 205.307C159.261 206.792 159.488 208.121 159.942 209.295C160.397 210.462 161.048 211.386 161.897 212.068C162.745 212.742 163.757 213.08 164.931 213.08C166.12 213.08 167.139 212.739 167.988 212.057C168.844 211.367 169.495 210.436 169.942 209.261C170.397 208.087 170.624 206.769 170.624 205.307C170.624 203.845 170.401 202.53 169.954 201.364C169.507 200.197 168.859 199.277 168.011 198.602C167.162 197.92 166.136 197.58 164.931 197.58C163.742 197.58 162.723 197.917 161.874 198.591C161.033 199.258 160.386 200.174 159.931 201.341C159.484 202.5 159.261 203.822 159.261 205.307ZM198.844 220.545V210.193H198.708C198.443 210.951 198.057 211.648 197.549 212.284C197.041 212.913 196.416 213.417 195.674 213.795C194.932 214.174 194.064 214.364 193.072 214.364C191.678 214.364 190.458 213.977 189.413 213.205C188.375 212.424 187.564 211.356 186.981 210C186.405 208.636 186.117 207.076 186.117 205.318C186.117 203.561 186.405 202.004 186.981 200.648C187.557 199.284 188.367 198.216 189.413 197.443C190.458 196.67 191.682 196.284 193.083 196.284C194.091 196.284 194.962 196.477 195.697 196.864C196.432 197.242 197.049 197.746 197.549 198.375C198.049 199.004 198.435 199.693 198.708 200.443H198.879V196.545H200.219V220.545H198.844ZM193.197 213.08C194.371 213.08 195.379 212.742 196.219 212.068C197.068 211.386 197.719 210.462 198.174 209.295C198.629 208.121 198.856 206.792 198.856 205.307C198.856 203.822 198.632 202.5 198.185 201.341C197.738 200.174 197.091 199.258 196.242 198.591C195.394 197.917 194.379 197.58 193.197 197.58C191.992 197.58 190.966 197.92 190.117 198.602C189.269 199.277 188.617 200.197 188.163 201.364C187.716 202.53 187.492 203.845 187.492 205.307C187.492 206.769 187.719 208.087 188.174 209.261C188.629 210.436 189.28 211.367 190.129 212.057C190.977 212.739 192 213.08 193.197 213.08ZM216.269 214V196.545H217.622V199.273H217.747C218.125 198.379 218.766 197.663 219.667 197.125C220.569 196.58 221.595 196.307 222.747 196.307C222.868 196.307 222.989 196.307 223.11 196.307C223.232 196.307 223.345 196.311 223.451 196.318V197.716C223.36 197.708 223.25 197.697 223.122 197.682C223 197.659 222.849 197.648 222.667 197.648C221.697 197.648 220.834 197.856 220.076 198.273C219.326 198.689 218.735 199.265 218.303 200C217.872 200.727 217.656 201.561 217.656 202.5V214H216.269ZM248.547 200.307L247.262 200.648C247.058 200.011 246.766 199.462 246.387 199C246.009 198.538 245.531 198.182 244.956 197.932C244.387 197.674 243.706 197.545 242.91 197.545C241.63 197.545 240.581 197.864 239.762 198.5C238.952 199.136 238.547 199.966 238.547 200.989C238.547 201.822 238.823 202.511 239.376 203.057C239.929 203.595 240.774 204.004 241.91 204.284L244.592 204.955C245.971 205.295 247.009 205.848 247.706 206.614C248.403 207.371 248.751 208.314 248.751 209.443C248.751 210.405 248.49 211.258 247.967 212C247.444 212.742 246.721 213.322 245.797 213.739C244.88 214.155 243.812 214.364 242.592 214.364C240.963 214.364 239.626 213.985 238.581 213.227C237.535 212.462 236.865 211.367 236.569 209.943L237.899 209.602C238.149 210.739 238.668 211.606 239.456 212.205C240.251 212.795 241.293 213.091 242.581 213.091C244.005 213.091 245.153 212.754 246.024 212.08C246.903 211.405 247.342 210.542 247.342 209.489C247.342 208.686 247.084 208.008 246.569 207.455C246.054 206.902 245.274 206.496 244.228 206.239L241.444 205.557C240.02 205.208 238.952 204.652 238.24 203.886C237.528 203.114 237.172 202.163 237.172 201.034C237.172 200.095 237.418 199.269 237.91 198.557C238.403 197.845 239.081 197.288 239.944 196.886C240.808 196.485 241.797 196.284 242.91 196.284C244.387 196.284 245.592 196.633 246.524 197.33C247.456 198.027 248.13 199.019 248.547 200.307ZM270 196.545V197.784H262.375V196.545H270ZM264.954 192.364H266.329V209.875C266.329 210.587 266.466 211.17 266.738 211.625C267.019 212.072 267.382 212.405 267.829 212.625C268.284 212.837 268.769 212.943 269.284 212.943C269.534 212.943 269.75 212.924 269.932 212.886C270.121 212.848 270.299 212.799 270.466 212.739L270.807 214C270.595 214.076 270.36 214.14 270.102 214.193C269.845 214.254 269.541 214.284 269.193 214.284C268.466 214.284 267.776 214.121 267.125 213.795C266.481 213.47 265.958 212.996 265.557 212.375C265.155 211.754 264.954 211.004 264.954 210.125V192.364ZM296.604 207.807V196.545H297.99V214H296.604V211.17H296.49C296.081 212.072 295.418 212.807 294.501 213.375C293.592 213.943 292.517 214.227 291.274 214.227C290.13 214.227 289.119 213.977 288.24 213.477C287.361 212.977 286.672 212.269 286.172 211.352C285.672 210.428 285.422 209.33 285.422 208.057V196.545H286.808V208C286.808 209.455 287.248 210.633 288.126 211.534C289.013 212.428 290.157 212.875 291.558 212.875C292.467 212.875 293.304 212.67 294.07 212.261C294.835 211.852 295.448 211.269 295.911 210.511C296.373 209.746 296.604 208.845 296.604 207.807ZM326.776 196.545L320.469 214H318.901L312.594 196.545H314.083L319.628 212.216H319.742L325.287 196.545H326.776ZM345.195 214L339.968 196.545H341.422L345.922 211.966H346.047L350.559 196.545H352.002L356.502 211.955H356.615L361.115 196.545H362.57L357.343 214H355.797L351.343 198.807H351.195L346.74 214H345.195ZM377.691 196.545L382.509 204.307L387.327 196.545H388.93L383.339 205.273L388.93 214H387.327L382.509 206.364L377.691 214H376.077L381.645 205.273L376.077 196.545H377.691ZM404.968 220.545C404.62 220.545 404.275 220.508 403.934 220.432C403.593 220.356 403.286 220.258 403.013 220.136L403.423 218.92C404.135 219.193 404.779 219.292 405.354 219.216C405.938 219.14 406.453 218.875 406.9 218.42C407.347 217.966 407.726 217.299 408.036 216.42L408.832 214.239L402.434 196.545H403.923L409.468 212.216H409.582L415.127 196.545H416.616L409.252 216.966C408.972 217.754 408.62 218.413 408.195 218.943C407.771 219.473 407.286 219.871 406.741 220.136C406.203 220.409 405.612 220.545 404.968 220.545ZM430.637 214V212.83L440.91 197.989V197.864H431.205V196.545H442.671V197.739L432.489 212.557V212.682H443.08V214H430.637Z" fill="#050D08"/>
<path d="M169.679 246.727V270H168.258V248.227H168.122L162.895 251.693V250.17L168.077 246.727H169.679ZM187.433 270V268.92L194.967 260.239C196.043 258.996 196.895 257.943 197.524 257.08C198.153 256.216 198.604 255.436 198.877 254.739C199.149 254.042 199.286 253.314 199.286 252.557C199.286 251.61 199.062 250.773 198.615 250.045C198.176 249.311 197.574 248.739 196.808 248.33C196.051 247.92 195.187 247.716 194.217 247.716C193.202 247.716 192.312 247.939 191.547 248.386C190.782 248.833 190.183 249.439 189.752 250.205C189.327 250.97 189.115 251.83 189.115 252.784H187.74C187.74 251.58 188.02 250.496 188.581 249.534C189.142 248.572 189.911 247.811 190.888 247.25C191.873 246.689 192.994 246.409 194.252 246.409C195.486 246.409 196.585 246.678 197.547 247.216C198.509 247.754 199.267 248.489 199.82 249.42C200.373 250.345 200.649 251.39 200.649 252.557C200.649 253.413 200.502 254.239 200.206 255.034C199.918 255.822 199.422 256.705 198.717 257.682C198.013 258.652 197.039 259.848 195.797 261.273L189.479 268.557V268.682H201.695V270H187.433ZM224.662 270.318C223.283 270.318 222.052 270.057 220.969 269.534C219.886 269.004 219.026 268.28 218.389 267.364C217.761 266.439 217.435 265.379 217.412 264.182H218.855C218.878 265.129 219.147 265.966 219.662 266.693C220.177 267.413 220.867 267.977 221.73 268.386C222.602 268.795 223.571 269 224.639 269C225.799 269 226.814 268.773 227.685 268.318C228.564 267.864 229.249 267.25 229.742 266.477C230.234 265.697 230.48 264.826 230.48 263.864C230.48 262.833 230.211 261.932 229.674 261.159C229.136 260.379 228.386 259.773 227.424 259.341C226.461 258.902 225.344 258.682 224.071 258.682H223.208V257.364H224.071C225.155 257.364 226.124 257.167 226.98 256.773C227.836 256.371 228.511 255.807 229.003 255.08C229.503 254.352 229.753 253.492 229.753 252.5C229.753 251.568 229.537 250.742 229.105 250.023C228.674 249.303 228.075 248.739 227.31 248.33C226.552 247.92 225.662 247.716 224.639 247.716C223.655 247.716 222.761 247.917 221.958 248.318C221.162 248.72 220.53 249.284 220.06 250.011C219.59 250.739 219.352 251.583 219.344 252.545H217.946C217.961 251.341 218.264 250.277 218.855 249.352C219.454 248.428 220.253 247.708 221.253 247.193C222.261 246.67 223.397 246.409 224.662 246.409C225.95 246.409 227.079 246.678 228.049 247.216C229.026 247.754 229.783 248.481 230.321 249.398C230.867 250.314 231.139 251.333 231.139 252.455C231.139 253.803 230.764 254.958 230.014 255.92C229.272 256.875 228.264 257.538 226.992 257.909V258.034C228.499 258.367 229.693 259.053 230.571 260.091C231.45 261.129 231.889 262.386 231.889 263.864C231.889 265.076 231.579 266.17 230.958 267.148C230.336 268.125 229.48 268.898 228.389 269.466C227.306 270.034 226.064 270.318 224.662 270.318ZM246.976 264.773V263.636L257.51 246.727H258.374V248.92H257.635L248.692 263.33V263.455H262.135V264.773H246.976ZM257.749 270V264.386V263.875V246.727H259.135V270H257.749ZM283.697 270.318C282.454 270.318 281.344 270.057 280.367 269.534C279.397 269.004 278.628 268.277 278.06 267.352C277.5 266.428 277.212 265.371 277.197 264.182H278.594C278.625 265.591 279.113 266.746 280.06 267.648C281.007 268.549 282.219 269 283.697 269C284.833 269 285.833 268.727 286.697 268.182C287.568 267.629 288.25 266.879 288.742 265.932C289.235 264.985 289.477 263.917 289.469 262.727C289.469 261.47 289.204 260.371 288.674 259.432C288.144 258.492 287.435 257.765 286.549 257.25C285.663 256.735 284.682 256.473 283.606 256.466C282.757 256.466 281.962 256.621 281.219 256.932C280.477 257.235 279.844 257.625 279.322 258.102L277.719 257.875L279.094 246.727H290.003V248.045H280.31L279.242 256.761H279.356C279.901 256.277 280.549 255.886 281.299 255.591C282.057 255.288 282.878 255.136 283.765 255.136C285.068 255.136 286.257 255.455 287.333 256.091C288.416 256.727 289.276 257.614 289.913 258.75C290.557 259.886 290.875 261.208 290.867 262.716C290.86 264.17 290.549 265.47 289.935 266.614C289.322 267.758 288.473 268.663 287.39 269.33C286.314 269.989 285.083 270.318 283.697 270.318ZM313.247 270.318C312.269 270.311 311.341 270.102 310.462 269.693C309.584 269.277 308.803 268.633 308.122 267.761C307.447 266.883 306.913 265.754 306.519 264.375C306.133 262.989 305.94 261.33 305.94 259.398C305.94 257.663 306.076 256.015 306.349 254.455C306.629 252.894 307.069 251.511 307.667 250.307C308.265 249.095 309.046 248.144 310.008 247.455C310.978 246.758 312.148 246.409 313.519 246.409C314.716 246.409 315.769 246.67 316.678 247.193C317.595 247.708 318.326 248.428 318.872 249.352C319.417 250.269 319.747 251.333 319.86 252.545H318.451C318.292 251.129 317.784 249.973 316.928 249.08C316.08 248.178 314.944 247.727 313.519 247.727C311.504 247.727 309.962 248.712 308.894 250.682C307.834 252.652 307.303 255.47 307.303 259.136H307.428C307.731 258.409 308.178 257.769 308.769 257.216C309.368 256.655 310.057 256.22 310.837 255.909C311.618 255.598 312.44 255.443 313.303 255.443C314.561 255.443 315.709 255.765 316.747 256.409C317.792 257.053 318.629 257.936 319.258 259.057C319.887 260.178 320.201 261.447 320.201 262.864C320.201 264.205 319.909 265.443 319.326 266.58C318.743 267.708 317.928 268.617 316.883 269.307C315.845 269.989 314.633 270.326 313.247 270.318ZM313.247 269C314.307 269 315.254 268.723 316.087 268.17C316.928 267.617 317.591 266.879 318.076 265.955C318.561 265.023 318.803 263.992 318.803 262.864C318.803 261.727 318.553 260.697 318.053 259.773C317.553 258.848 316.875 258.117 316.019 257.58C315.171 257.034 314.216 256.761 313.156 256.761C312.322 256.761 311.55 256.932 310.837 257.273C310.125 257.606 309.512 258.068 308.997 258.659C308.489 259.25 308.114 259.928 307.872 260.693C307.637 261.451 307.572 262.25 307.678 263.091C307.853 264.311 308.194 265.364 308.701 266.25C309.216 267.129 309.86 267.807 310.633 268.284C311.413 268.761 312.284 269 313.247 269ZM336.279 270L347.086 248.17V248.045H334.666V246.727H348.632V248.091L337.813 270H336.279ZM370.65 270.318C369.241 270.318 367.972 270.038 366.843 269.477C365.715 268.909 364.821 268.144 364.162 267.182C363.51 266.22 363.188 265.14 363.196 263.943C363.188 262.996 363.389 262.106 363.798 261.273C364.215 260.439 364.783 259.731 365.503 259.148C366.222 258.557 367.044 258.163 367.968 257.966V257.864C366.794 257.492 365.836 256.807 365.093 255.807C364.359 254.807 363.991 253.674 363.991 252.409C363.991 251.28 364.283 250.265 364.866 249.364C365.457 248.455 366.256 247.735 367.264 247.205C368.272 246.674 369.4 246.409 370.65 246.409C371.878 246.409 372.995 246.674 374.003 247.205C375.01 247.727 375.809 248.443 376.4 249.352C376.999 250.254 377.298 251.273 377.298 252.409C377.298 253.667 376.931 254.799 376.196 255.807C375.468 256.807 374.514 257.492 373.332 257.864V257.966C374.249 258.155 375.063 258.545 375.775 259.136C376.495 259.72 377.059 260.432 377.468 261.273C377.885 262.106 378.097 262.996 378.105 263.943C378.097 265.14 377.764 266.22 377.105 267.182C376.453 268.144 375.563 268.909 374.434 269.477C373.313 270.038 372.052 270.318 370.65 270.318ZM370.65 269C371.809 269 372.843 268.773 373.753 268.318C374.662 267.864 375.378 267.25 375.9 266.477C376.423 265.697 376.688 264.826 376.696 263.864C376.688 262.886 376.415 262 375.878 261.205C375.347 260.409 374.628 259.777 373.718 259.307C372.809 258.837 371.787 258.602 370.65 258.602C369.506 258.602 368.476 258.837 367.559 259.307C366.65 259.777 365.927 260.409 365.389 261.205C364.859 262 364.597 262.886 364.605 263.864C364.597 264.826 364.855 265.697 365.378 266.477C365.908 267.25 366.628 267.864 367.537 268.318C368.453 268.773 369.491 269 370.65 269ZM370.65 257.375C371.628 257.375 372.51 257.155 373.298 256.716C374.093 256.277 374.726 255.686 375.196 254.943C375.665 254.201 375.9 253.375 375.9 252.466C375.9 251.557 375.665 250.746 375.196 250.034C374.734 249.314 374.105 248.75 373.309 248.341C372.522 247.924 371.635 247.716 370.65 247.716C369.658 247.716 368.764 247.924 367.968 248.341C367.173 248.75 366.544 249.314 366.082 250.034C365.62 250.746 365.389 251.557 365.389 252.466C365.389 253.375 365.62 254.201 366.082 254.943C366.552 255.686 367.184 256.277 367.98 256.716C368.775 257.155 369.665 257.375 370.65 257.375ZM399.984 246.409C400.962 246.409 401.89 246.617 402.768 247.034C403.647 247.451 404.424 248.095 405.098 248.966C405.78 249.83 406.314 250.951 406.7 252.33C407.094 253.701 407.291 255.352 407.291 257.284C407.291 259.019 407.151 260.67 406.871 262.239C406.598 263.799 406.162 265.189 405.564 266.409C404.965 267.621 404.185 268.576 403.223 269.273C402.261 269.97 401.09 270.318 399.712 270.318C398.507 270.318 397.45 270.057 396.541 269.534C395.632 269.011 394.901 268.288 394.348 267.364C393.802 266.432 393.473 265.356 393.359 264.136H394.768C394.927 265.553 395.435 266.72 396.291 267.636C397.147 268.545 398.287 269 399.712 269C401.719 269 403.257 268.011 404.325 266.034C405.393 264.057 405.927 261.227 405.927 257.545H405.802C405.499 258.273 405.049 258.917 404.45 259.477C403.859 260.03 403.174 260.462 402.393 260.773C401.613 261.083 400.791 261.239 399.927 261.239C398.662 261.239 397.507 260.917 396.462 260.273C395.416 259.629 394.583 258.746 393.962 257.625C393.34 256.504 393.03 255.235 393.03 253.818C393.03 252.485 393.318 251.254 393.893 250.125C394.477 248.996 395.287 248.095 396.325 247.42C397.371 246.739 398.59 246.402 399.984 246.409ZM399.984 247.727C398.916 247.727 397.962 248 397.121 248.545C396.287 249.091 395.628 249.826 395.143 250.75C394.666 251.674 394.427 252.697 394.427 253.818C394.427 254.962 394.674 255.996 395.166 256.92C395.666 257.837 396.34 258.568 397.189 259.114C398.045 259.652 399.007 259.92 400.075 259.92C400.909 259.92 401.681 259.754 402.393 259.42C403.105 259.08 403.715 258.614 404.223 258.023C404.738 257.424 405.117 256.746 405.359 255.989C405.602 255.223 405.662 254.424 405.541 253.591C405.374 252.379 405.034 251.337 404.518 250.466C404.011 249.587 403.367 248.913 402.587 248.443C401.814 247.966 400.946 247.727 399.984 247.727ZM429.631 270.318C428.078 270.318 426.744 269.841 425.631 268.886C424.517 267.932 423.661 266.564 423.063 264.784C422.472 262.996 422.176 260.856 422.176 258.364C422.176 255.879 422.475 253.742 423.074 251.955C423.672 250.167 424.525 248.795 425.631 247.841C426.744 246.886 428.078 246.409 429.631 246.409C431.184 246.409 432.513 246.886 433.619 247.841C434.733 248.795 435.589 250.167 436.188 251.955C436.786 253.742 437.085 255.879 437.085 258.364C437.085 260.856 436.786 262.996 436.188 264.784C435.597 266.564 434.744 267.932 433.631 268.886C432.517 269.841 431.184 270.318 429.631 270.318ZM429.631 269C431.517 269 432.998 268.064 434.074 266.193C435.15 264.314 435.688 261.705 435.688 258.364C435.688 256.136 435.441 254.227 434.949 252.636C434.464 251.045 433.771 249.83 432.869 248.989C431.968 248.14 430.888 247.716 429.631 247.716C427.744 247.716 426.263 248.655 425.188 250.534C424.112 252.413 423.574 255.023 423.574 258.364C423.574 260.591 423.816 262.5 424.301 264.091C424.786 265.674 425.479 266.89 426.381 267.739C427.29 268.58 428.373 269 429.631 269Z" fill="#050D08"/>
</svg>
