<svg width="560" height="560" viewBox="0 0 560 560" fill="none" xmlns="http://www.w3.org/2000/svg">
<circle cx="280.5" cy="217" r="100" fill="#48C072"/>
<path d="M244.209 231.674L245.054 229.5H255.894L256.83 231.674H244.209ZM242.518 236.022L243.364 233.848H257.615L258.521 236.022H242.518ZM224.855 242H222.5L242.277 192H244.632L264.378 242H262.053L243.454 194.929L224.855 242ZM243.726 200.092L244.964 202.87L229.505 242H227.18L243.726 200.092ZM246.141 205.829L247.289 208.818L234.215 242H231.86L246.141 205.829ZM248.436 211.807L249.583 214.856L238.865 242H236.54L248.436 211.807ZM278.418 242H276.063L256.316 192H258.641L278.418 242ZM253.961 192L273.738 242H271.413L251.636 192H253.961ZM249.281 192L269.058 242H266.703L246.957 192H249.281Z" fill="#F9FDFA"/>
<path d="M300.722 206.592V210.983H282.54V206.592H300.722ZM287.986 240.32V201.936C287.986 200.004 288.44 198.394 289.347 197.105C290.255 195.817 291.434 194.851 292.883 194.207C294.332 193.563 295.862 193.241 297.472 193.241C298.746 193.241 299.785 193.343 300.59 193.548C301.395 193.753 301.996 193.943 302.391 194.119L300.898 198.599C300.634 198.511 300.268 198.401 299.8 198.269C299.346 198.137 298.746 198.072 297.999 198.072C296.286 198.072 295.049 198.503 294.288 199.367C293.542 200.231 293.168 201.497 293.168 203.166V240.32H287.986Z" fill="#F9FDFA"/>
<path d="M307.985 240.32V206.592H313.167V240.32H307.985ZM310.62 200.97C309.61 200.97 308.739 200.626 308.007 199.938C307.29 199.25 306.931 198.423 306.931 197.457C306.931 196.491 307.29 195.663 308.007 194.975C308.739 194.287 309.61 193.943 310.62 193.943C311.63 193.943 312.494 194.287 313.211 194.975C313.943 195.663 314.309 196.491 314.309 197.457C314.309 198.423 313.943 199.25 313.211 199.938C312.494 200.626 311.63 200.97 310.62 200.97Z" fill="#F9FDFA"/>
<path d="M337.327 206.592V210.983H319.848V206.592H337.327ZM324.943 198.511H330.125V230.658C330.125 232.122 330.337 233.22 330.762 233.952C331.201 234.669 331.757 235.153 332.43 235.401C333.118 235.636 333.843 235.753 334.604 235.753C335.175 235.753 335.644 235.723 336.01 235.665C336.376 235.592 336.668 235.533 336.888 235.489L337.942 240.145C337.591 240.276 337.1 240.408 336.471 240.54C335.841 240.686 335.044 240.759 334.077 240.759C332.613 240.759 331.179 240.445 329.773 239.815C328.383 239.186 327.226 238.227 326.304 236.939C325.396 235.65 324.943 234.025 324.943 232.064V198.511Z" fill="#F9FDFA"/>
<path d="M166.428 386H158.19L170.743 349.636H180.651L193.186 386H184.947L175.839 357.946H175.555L166.428 386ZM165.913 371.707H185.374V377.708H165.913V371.707ZM191.735 355.975V349.636H221.6V355.975H210.467V386H202.867V355.975H191.735ZM226.518 386V349.636H234.206V364.64H249.813V349.636H257.484V386H249.813V370.979H234.206V386H226.518ZM263.823 386V349.636H271.511V379.661H287.1V386H263.823ZM292.192 386V349.636H316.695V355.975H299.88V364.64H315.434V370.979H299.88V379.661H316.766V386H292.192Z" fill="#050D08" fill-opacity="0.95"/>
<path d="M335.256 386V349.636H355.55V351.696H337.475V366.771H353.864V368.83H337.475V386H335.256ZM366.772 349.636V386H364.553V349.636H366.772ZM374.882 351.696V349.636H400.361V351.696H388.731V386H386.512V351.696H374.882Z" fill="#050D08" fill-opacity="0.95"/>
<path d="M19.358 437H17.5114L22.8523 422.455H24.6705L30.0114 437H28.1648L23.8182 424.756H23.7045L19.358 437ZM20.0398 431.318H27.483V432.881H20.0398V431.318ZM29.7823 424.017V422.455H40.6914V424.017H36.1175V437H34.3562V424.017H29.7823ZM43.4098 437V422.455H45.1712V428.932H52.9268V422.455H54.6882V437H52.9268V430.494H45.1712V437H43.4098ZM58.2145 437V422.455H59.9759V435.438H66.7372V437H58.2145ZM69.4645 437V422.455H78.2429V424.017H71.2259V428.932H77.7884V430.494H71.2259V435.438H78.3565V437H69.4645ZM81.4176 437V422.455H90.1392V424.017H83.179V428.932H89.4858V430.494H83.179V437H81.4176ZM94.9173 422.455V437H93.1559V422.455H94.9173ZM97.6534 424.017V422.455H108.562V424.017H103.989V437H102.227V424.017H97.6534ZM116.906 437V422.455H125.627V424.017H118.667V428.932H124.974V430.494H118.667V437H116.906ZM140.917 429.727C140.917 431.261 140.64 432.587 140.086 433.705C139.532 434.822 138.772 435.684 137.806 436.29C136.84 436.896 135.737 437.199 134.496 437.199C133.256 437.199 132.153 436.896 131.187 436.29C130.221 435.684 129.461 434.822 128.907 433.705C128.353 432.587 128.076 431.261 128.076 429.727C128.076 428.193 128.353 426.867 128.907 425.75C129.461 424.633 130.221 423.771 131.187 423.165C132.153 422.559 133.256 422.256 134.496 422.256C135.737 422.256 136.84 422.559 137.806 423.165C138.772 423.771 139.532 424.633 140.086 425.75C140.64 426.867 140.917 428.193 140.917 429.727ZM139.212 429.727C139.212 428.468 139.002 427.405 138.58 426.538C138.164 425.672 137.598 425.016 136.883 424.571C136.173 424.126 135.377 423.903 134.496 423.903C133.616 423.903 132.818 424.126 132.103 424.571C131.393 425.016 130.827 425.672 130.406 426.538C129.989 427.405 129.781 428.468 129.781 429.727C129.781 430.987 129.989 432.05 130.406 432.916C130.827 433.783 131.393 434.438 132.103 434.884C132.818 435.329 133.616 435.551 134.496 435.551C135.377 435.551 136.173 435.329 136.883 434.884C137.598 434.438 138.164 433.783 138.58 432.916C139.002 432.05 139.212 430.987 139.212 429.727ZM143.879 437V422.455H148.793C149.93 422.455 150.862 422.649 151.592 423.037C152.321 423.42 152.861 423.948 153.211 424.621C153.561 425.293 153.737 426.058 153.737 426.915C153.737 427.772 153.561 428.532 153.211 429.195C152.861 429.857 152.323 430.378 151.599 430.757C150.874 431.131 149.949 431.318 148.822 431.318H144.844V429.727H148.765C149.541 429.727 150.166 429.614 150.64 429.386C151.118 429.159 151.464 428.837 151.677 428.42C151.895 427.999 152.004 427.497 152.004 426.915C152.004 426.332 151.895 425.823 151.677 425.388C151.459 424.952 151.111 424.616 150.633 424.379C150.155 424.138 149.522 424.017 148.737 424.017H145.64V437H143.879ZM150.725 430.466L154.305 437H152.259L148.737 430.466H150.725ZM162.297 437V422.455H171.018V424.017H164.058V428.932H170.365V430.494H164.058V437H162.297ZM175.796 422.455V437H174.035V422.455H175.796ZM178.532 424.017V422.455H189.441V424.017H184.868V437H183.106V424.017H178.532ZM203.694 422.455V437H201.989L194.063 425.58H193.921V437H192.16V422.455H193.864L201.819 433.903H201.961V422.455H203.694ZM207.218 437V422.455H215.997V424.017H208.98V428.932H215.542V430.494H208.98V435.438H216.11V437H207.218ZM227.126 426.091C227.041 425.371 226.695 424.812 226.089 424.415C225.483 424.017 224.74 423.818 223.859 423.818C223.215 423.818 222.652 423.922 222.169 424.131C221.69 424.339 221.316 424.625 221.047 424.99C220.781 425.355 220.649 425.769 220.649 426.233C220.649 426.621 220.741 426.955 220.926 427.234C221.115 427.509 221.357 427.739 221.65 427.923C221.944 428.103 222.252 428.252 222.574 428.371C222.895 428.484 223.191 428.577 223.461 428.648L224.939 429.045C225.317 429.145 225.739 429.282 226.203 429.457C226.672 429.633 227.119 429.872 227.545 430.175C227.976 430.473 228.331 430.857 228.61 431.325C228.89 431.794 229.029 432.369 229.029 433.051C229.029 433.837 228.824 434.547 228.412 435.182C228.004 435.816 227.408 436.321 226.622 436.695C225.841 437.069 224.891 437.256 223.774 437.256C222.732 437.256 221.83 437.088 221.068 436.751C220.31 436.415 219.714 435.946 219.278 435.345C218.847 434.744 218.603 434.045 218.547 433.25H220.365C220.412 433.799 220.597 434.254 220.919 434.614C221.245 434.969 221.657 435.234 222.154 435.409C222.656 435.58 223.196 435.665 223.774 435.665C224.446 435.665 225.05 435.556 225.585 435.338C226.12 435.116 226.544 434.808 226.856 434.415C227.169 434.017 227.325 433.553 227.325 433.023C227.325 432.54 227.19 432.147 226.92 431.844C226.65 431.541 226.295 431.295 225.855 431.105C225.414 430.916 224.939 430.75 224.427 430.608L222.637 430.097C221.501 429.77 220.601 429.304 219.939 428.697C219.276 428.091 218.944 427.298 218.944 426.318C218.944 425.504 219.164 424.794 219.605 424.188C220.05 423.577 220.646 423.103 221.395 422.767C222.147 422.426 222.988 422.256 223.916 422.256C224.853 422.256 225.687 422.424 226.416 422.76C227.145 423.091 227.723 423.546 228.149 424.124C228.58 424.701 228.807 425.357 228.831 426.091H227.126ZM239.88 426.091C239.795 425.371 239.449 424.812 238.843 424.415C238.237 424.017 237.494 423.818 236.613 423.818C235.969 423.818 235.406 423.922 234.923 424.131C234.444 424.339 234.07 424.625 233.8 424.99C233.535 425.355 233.403 425.769 233.403 426.233C233.403 426.621 233.495 426.955 233.68 427.234C233.869 427.509 234.111 427.739 234.404 427.923C234.698 428.103 235.005 428.252 235.327 428.371C235.649 428.484 235.945 428.577 236.215 428.648L237.692 429.045C238.071 429.145 238.493 429.282 238.957 429.457C239.425 429.633 239.873 429.872 240.299 430.175C240.73 430.473 241.085 430.857 241.364 431.325C241.644 431.794 241.783 432.369 241.783 433.051C241.783 433.837 241.577 434.547 241.165 435.182C240.758 435.816 240.162 436.321 239.376 436.695C238.594 437.069 237.645 437.256 236.528 437.256C235.486 437.256 234.584 437.088 233.822 436.751C233.064 436.415 232.468 435.946 232.032 435.345C231.601 434.744 231.357 434.045 231.3 433.25H233.119C233.166 433.799 233.351 434.254 233.673 434.614C233.999 434.969 234.411 435.234 234.908 435.409C235.41 435.58 235.95 435.665 236.528 435.665C237.2 435.665 237.804 435.556 238.339 435.338C238.874 435.116 239.298 434.808 239.61 434.415C239.923 434.017 240.079 433.553 240.079 433.023C240.079 432.54 239.944 432.147 239.674 431.844C239.404 431.541 239.049 431.295 238.609 431.105C238.168 430.916 237.692 430.75 237.181 430.608L235.391 430.097C234.255 429.77 233.355 429.304 232.692 428.697C232.03 428.091 231.698 427.298 231.698 426.318C231.698 425.504 231.918 424.794 232.359 424.188C232.804 423.577 233.4 423.103 234.148 422.767C234.901 422.426 235.742 422.256 236.67 422.256C237.607 422.256 238.441 422.424 239.17 422.76C239.899 423.091 240.477 423.546 240.903 424.124C241.334 424.701 241.561 425.357 241.585 426.091H239.88ZM254.196 437.199C253.24 437.199 252.416 437.024 251.725 436.673C251.033 436.323 250.501 435.842 250.127 435.232C249.753 434.621 249.566 433.922 249.566 433.136C249.566 432.53 249.694 431.993 249.949 431.524C250.21 431.051 250.567 430.613 251.022 430.21C251.481 429.803 252.009 429.396 252.605 428.989L254.708 427.426C255.12 427.156 255.449 426.867 255.695 426.56C255.946 426.252 256.071 425.849 256.071 425.352C256.071 424.983 255.908 424.625 255.581 424.28C255.259 423.934 254.836 423.761 254.31 423.761C253.941 423.761 253.614 423.856 253.33 424.045C253.051 424.23 252.83 424.467 252.669 424.756C252.513 425.04 252.435 425.333 252.435 425.636C252.435 425.977 252.527 426.323 252.712 426.673C252.901 427.019 253.141 427.374 253.429 427.739C253.723 428.098 254.026 428.468 254.338 428.847L261.015 437H258.998L253.486 430.352C252.975 429.737 252.511 429.178 252.094 428.676C251.677 428.174 251.346 427.679 251.1 427.192C250.854 426.704 250.73 426.176 250.73 425.608C250.73 424.955 250.875 424.382 251.164 423.889C251.457 423.392 251.867 423.006 252.392 422.732C252.923 422.452 253.543 422.312 254.253 422.312C254.982 422.312 255.61 422.455 256.135 422.739C256.661 423.018 257.066 423.39 257.35 423.854C257.634 424.313 257.776 424.812 257.776 425.352C257.776 426.048 257.603 426.652 257.257 427.163C256.912 427.675 256.441 428.151 255.844 428.591L252.946 430.75C252.293 431.233 251.85 431.702 251.618 432.156C251.386 432.611 251.27 432.937 251.27 433.136C251.27 433.591 251.389 434.015 251.625 434.408C251.862 434.801 252.196 435.118 252.627 435.359C253.058 435.601 253.562 435.722 254.14 435.722C254.689 435.722 255.224 435.606 255.745 435.374C256.266 435.137 256.737 434.796 257.158 434.351C257.584 433.906 257.92 433.371 258.167 432.746C258.417 432.121 258.543 431.418 258.543 430.636H260.162C260.162 431.602 260.051 432.391 259.828 433.001C259.606 433.612 259.355 434.09 259.076 434.436C258.796 434.782 258.571 435.04 258.401 435.21C258.344 435.281 258.292 435.352 258.245 435.423C258.197 435.494 258.145 435.565 258.088 435.636C257.62 436.162 257.028 436.555 256.313 436.815C255.598 437.071 254.892 437.199 254.196 437.199ZM268.722 437V422.455H270.484V435.438H277.245V437H268.722ZM279.972 437V422.455H288.751V424.017H281.734V428.932H288.296V430.494H281.734V435.438H288.864V437H279.972ZM293.687 422.455V437H291.925V422.455H293.687ZM305.173 426.091C305.088 425.371 304.742 424.812 304.136 424.415C303.53 424.017 302.787 423.818 301.906 423.818C301.262 423.818 300.699 423.922 300.216 424.131C299.737 424.339 299.363 424.625 299.093 424.99C298.828 425.355 298.696 425.769 298.696 426.233C298.696 426.621 298.788 426.955 298.973 427.234C299.162 427.509 299.404 427.739 299.697 427.923C299.991 428.103 300.298 428.252 300.62 428.371C300.942 428.484 301.238 428.577 301.508 428.648L302.985 429.045C303.364 429.145 303.786 429.282 304.25 429.457C304.718 429.633 305.166 429.872 305.592 430.175C306.023 430.473 306.378 430.857 306.657 431.325C306.937 431.794 307.076 432.369 307.076 433.051C307.076 433.837 306.87 434.547 306.458 435.182C306.051 435.816 305.455 436.321 304.669 436.695C303.887 437.069 302.938 437.256 301.821 437.256C300.779 437.256 299.877 437.088 299.115 436.751C298.357 436.415 297.761 435.946 297.325 435.345C296.894 434.744 296.65 434.045 296.593 433.25H298.412C298.459 433.799 298.644 434.254 298.966 434.614C299.292 434.969 299.704 435.234 300.201 435.409C300.703 435.58 301.243 435.665 301.821 435.665C302.493 435.665 303.097 435.556 303.632 435.338C304.167 435.116 304.591 434.808 304.903 434.415C305.216 434.017 305.372 433.553 305.372 433.023C305.372 432.54 305.237 432.147 304.967 431.844C304.697 431.541 304.342 431.295 303.902 431.105C303.461 430.916 302.985 430.75 302.474 430.608L300.684 430.097C299.548 429.77 298.648 429.304 297.985 428.697C297.323 428.091 296.991 427.298 296.991 426.318C296.991 425.504 297.211 424.794 297.652 424.188C298.097 423.577 298.693 423.103 299.441 422.767C300.194 422.426 301.035 422.256 301.963 422.256C302.9 422.256 303.734 422.424 304.463 422.76C305.192 423.091 305.77 423.546 306.196 424.124C306.627 424.701 306.854 425.357 306.877 426.091H305.173ZM319.518 422.455H321.279V432.085C321.279 433.08 321.045 433.967 320.576 434.749C320.112 435.525 319.456 436.138 318.609 436.588C317.761 437.033 316.767 437.256 315.626 437.256C314.485 437.256 313.49 437.033 312.643 436.588C311.795 436.138 311.137 435.525 310.668 434.749C310.204 433.967 309.972 433.08 309.972 432.085V422.455H311.734V431.943C311.734 432.653 311.89 433.286 312.202 433.839C312.515 434.389 312.96 434.822 313.538 435.139C314.12 435.452 314.816 435.608 315.626 435.608C316.435 435.608 317.131 435.452 317.714 435.139C318.296 434.822 318.741 434.389 319.049 433.839C319.362 433.286 319.518 432.653 319.518 431.943V422.455ZM324.797 437V422.455H329.711C330.848 422.455 331.78 422.649 332.51 423.037C333.239 423.42 333.779 423.948 334.129 424.621C334.479 425.293 334.654 426.058 334.654 426.915C334.654 427.772 334.479 428.532 334.129 429.195C333.779 429.857 333.241 430.378 332.517 430.757C331.792 431.131 330.867 431.318 329.74 431.318H325.762V429.727H329.683C330.459 429.727 331.084 429.614 331.558 429.386C332.036 429.159 332.382 428.837 332.595 428.42C332.813 427.999 332.922 427.497 332.922 426.915C332.922 426.332 332.813 425.823 332.595 425.388C332.377 424.952 332.029 424.616 331.551 424.379C331.073 424.138 330.44 424.017 329.654 424.017H326.558V437H324.797ZM331.643 430.466L335.223 437H333.177L329.654 430.466H331.643ZM337.589 437V422.455H346.368V424.017H339.351V428.932H345.913V430.494H339.351V435.438H346.482V437H337.589ZM363.122 426.091C363.037 425.371 362.691 424.812 362.085 424.415C361.479 424.017 360.736 423.818 359.855 423.818C359.211 423.818 358.648 423.922 358.165 424.131C357.687 424.339 357.313 424.625 357.043 424.99C356.777 425.355 356.645 425.769 356.645 426.233C356.645 426.621 356.737 426.955 356.922 427.234C357.111 427.509 357.353 427.739 357.646 427.923C357.94 428.103 358.248 428.252 358.57 428.371C358.892 428.484 359.188 428.577 359.457 428.648L360.935 429.045C361.313 429.145 361.735 429.282 362.199 429.457C362.668 429.633 363.115 429.872 363.541 430.175C363.972 430.473 364.327 430.857 364.607 431.325C364.886 431.794 365.026 432.369 365.026 433.051C365.026 433.837 364.82 434.547 364.408 435.182C364 435.816 363.404 436.321 362.618 436.695C361.837 437.069 360.887 437.256 359.77 437.256C358.728 437.256 357.826 437.088 357.064 436.751C356.306 436.415 355.71 435.946 355.274 435.345C354.843 434.744 354.599 434.045 354.543 433.25H356.361C356.408 433.799 356.593 434.254 356.915 434.614C357.241 434.969 357.653 435.234 358.151 435.409C358.652 435.58 359.192 435.665 359.77 435.665C360.442 435.665 361.046 435.556 361.581 435.338C362.116 435.116 362.54 434.808 362.852 434.415C363.165 434.017 363.321 433.553 363.321 433.023C363.321 432.54 363.186 432.147 362.916 431.844C362.646 431.541 362.291 431.295 361.851 431.105C361.411 430.916 360.935 430.75 360.423 430.608L358.634 430.097C357.497 429.77 356.598 429.304 355.935 428.697C355.272 428.091 354.94 427.298 354.94 426.318C354.94 425.504 355.161 424.794 355.601 424.188C356.046 423.577 356.643 423.103 357.391 422.767C358.143 422.426 358.984 422.256 359.912 422.256C360.849 422.256 361.683 422.424 362.412 422.76C363.141 423.091 363.719 423.546 364.145 424.124C364.576 424.701 364.803 425.357 364.827 426.091H363.122ZM380.194 429.727C380.194 431.261 379.917 432.587 379.363 433.705C378.809 434.822 378.049 435.684 377.083 436.29C376.118 436.896 375.014 437.199 373.774 437.199C372.533 437.199 371.43 436.896 370.464 436.29C369.498 435.684 368.738 434.822 368.184 433.705C367.63 432.587 367.353 431.261 367.353 429.727C367.353 428.193 367.63 426.867 368.184 425.75C368.738 424.633 369.498 423.771 370.464 423.165C371.43 422.559 372.533 422.256 373.774 422.256C375.014 422.256 376.118 422.559 377.083 423.165C378.049 423.771 378.809 424.633 379.363 425.75C379.917 426.867 380.194 428.193 380.194 429.727ZM378.49 429.727C378.49 428.468 378.279 427.405 377.858 426.538C377.441 425.672 376.875 425.016 376.16 424.571C375.45 424.126 374.654 423.903 373.774 423.903C372.893 423.903 372.095 424.126 371.38 424.571C370.67 425.016 370.104 425.672 369.683 426.538C369.266 427.405 369.058 428.468 369.058 429.727C369.058 430.987 369.266 432.05 369.683 432.916C370.104 433.783 370.67 434.438 371.38 434.884C372.095 435.329 372.893 435.551 373.774 435.551C374.654 435.551 375.45 435.329 376.16 434.884C376.875 434.438 377.441 433.783 377.858 432.916C378.279 432.05 378.49 430.987 378.49 429.727ZM383.156 437V422.455H384.917V435.438H391.679V437H383.156ZM403.951 422.455H405.713V432.085C405.713 433.08 405.478 433.967 405.01 434.749C404.546 435.525 403.89 436.138 403.042 436.588C402.195 437.033 401.2 437.256 400.059 437.256C398.918 437.256 397.924 437.033 397.076 436.588C396.229 436.138 395.571 435.525 395.102 434.749C394.638 433.967 394.406 433.08 394.406 432.085V422.455H396.167V431.943C396.167 432.653 396.324 433.286 396.636 433.839C396.949 434.389 397.394 434.822 397.971 435.139C398.554 435.452 399.25 435.608 400.059 435.608C400.869 435.608 401.565 435.452 402.147 435.139C402.73 434.822 403.175 434.389 403.483 433.839C403.795 433.286 403.951 432.653 403.951 431.943V422.455ZM408.435 424.017V422.455H419.344V424.017H414.77V437H413.009V424.017H408.435ZM423.824 422.455V437H422.062V422.455H423.824ZM439.628 429.727C439.628 431.261 439.351 432.587 438.797 433.705C438.243 434.822 437.483 435.684 436.517 436.29C435.551 436.896 434.448 437.199 433.207 437.199C431.967 437.199 430.864 436.896 429.898 436.29C428.932 435.684 428.172 434.822 427.618 433.705C427.064 432.587 426.787 431.261 426.787 429.727C426.787 428.193 427.064 426.867 427.618 425.75C428.172 424.633 428.932 423.771 429.898 423.165C430.864 422.559 431.967 422.256 433.207 422.256C434.448 422.256 435.551 422.559 436.517 423.165C437.483 423.771 438.243 424.633 438.797 425.75C439.351 426.867 439.628 428.193 439.628 429.727ZM437.923 429.727C437.923 428.468 437.713 427.405 437.291 426.538C436.875 425.672 436.309 425.016 435.594 424.571C434.884 424.126 434.088 423.903 433.207 423.903C432.327 423.903 431.529 424.126 430.814 424.571C430.104 425.016 429.538 425.672 429.116 426.538C428.7 427.405 428.491 428.468 428.491 429.727C428.491 430.987 428.7 432.05 429.116 432.916C429.538 433.783 430.104 434.438 430.814 434.884C431.529 435.329 432.327 435.551 433.207 435.551C434.088 435.551 434.884 435.329 435.594 434.884C436.309 434.438 436.875 433.783 437.291 432.916C437.713 432.05 437.923 430.987 437.923 429.727ZM454.124 422.455V437H452.419L444.493 425.58H444.351V437H442.589V422.455H444.294L452.249 433.903H452.391V422.455H454.124ZM465.603 426.091C465.517 425.371 465.172 424.812 464.566 424.415C463.96 424.017 463.216 423.818 462.336 423.818C461.692 423.818 461.128 423.922 460.645 424.131C460.167 424.339 459.793 424.625 459.523 424.99C459.258 425.355 459.125 425.769 459.125 426.233C459.125 426.621 459.218 426.955 459.402 427.234C459.592 427.509 459.833 427.739 460.127 427.923C460.42 428.103 460.728 428.252 461.05 428.371C461.372 428.484 461.668 428.577 461.938 428.648L463.415 429.045C463.794 429.145 464.215 429.282 464.679 429.457C465.148 429.633 465.596 429.872 466.022 430.175C466.453 430.473 466.808 430.857 467.087 431.325C467.366 431.794 467.506 432.369 467.506 433.051C467.506 433.837 467.3 434.547 466.888 435.182C466.481 435.816 465.884 436.321 465.098 436.695C464.317 437.069 463.368 437.256 462.25 437.256C461.209 437.256 460.307 437.088 459.544 436.751C458.787 436.415 458.19 435.946 457.755 435.345C457.324 434.744 457.08 434.045 457.023 433.25H458.841C458.889 433.799 459.073 434.254 459.395 434.614C459.722 434.969 460.134 435.234 460.631 435.409C461.133 435.58 461.673 435.665 462.25 435.665C462.923 435.665 463.526 435.556 464.061 435.338C464.596 435.116 465.02 434.808 465.333 434.415C465.645 434.017 465.801 433.553 465.801 433.023C465.801 432.54 465.667 432.147 465.397 431.844C465.127 431.541 464.772 431.295 464.331 431.105C463.891 430.916 463.415 430.75 462.904 430.608L461.114 430.097C459.978 429.77 459.078 429.304 458.415 428.697C457.752 428.091 457.421 427.298 457.421 426.318C457.421 425.504 457.641 424.794 458.081 424.188C458.526 423.577 459.123 423.103 459.871 422.767C460.624 422.426 461.464 422.256 462.392 422.256C463.33 422.256 464.163 422.424 464.892 422.76C465.622 423.091 466.199 423.546 466.625 424.124C467.056 424.701 467.283 425.357 467.307 426.091H465.603ZM476.027 437V422.455H481.112C482.125 422.455 482.961 422.63 483.619 422.98C484.277 423.326 484.768 423.792 485.089 424.379C485.411 424.962 485.572 425.608 485.572 426.318C485.572 426.943 485.461 427.459 485.239 427.866C485.021 428.274 484.732 428.596 484.372 428.832C484.017 429.069 483.631 429.244 483.214 429.358V429.5C483.66 429.528 484.107 429.685 484.557 429.969C485.007 430.253 485.383 430.66 485.686 431.19C485.989 431.721 486.141 432.369 486.141 433.136C486.141 433.866 485.975 434.521 485.643 435.104C485.312 435.686 484.789 436.148 484.074 436.489C483.359 436.83 482.429 437 481.283 437H476.027ZM477.788 435.438H481.283C482.433 435.438 483.25 435.215 483.733 434.77C484.221 434.32 484.464 433.776 484.464 433.136C484.464 432.644 484.339 432.189 484.088 431.773C483.837 431.351 483.48 431.015 483.016 430.764C482.552 430.509 482.002 430.381 481.368 430.381H477.788V435.438ZM477.788 428.847H481.055C481.586 428.847 482.064 428.742 482.49 428.534C482.921 428.326 483.262 428.032 483.513 427.653C483.768 427.275 483.896 426.83 483.896 426.318C483.896 425.679 483.674 425.137 483.229 424.692C482.784 424.242 482.078 424.017 481.112 424.017H477.788V428.847ZM489.035 437V422.455H493.95C495.086 422.455 496.019 422.649 496.748 423.037C497.477 423.42 498.017 423.948 498.367 424.621C498.718 425.293 498.893 426.058 498.893 426.915C498.893 427.772 498.718 428.532 498.367 429.195C498.017 429.857 497.479 430.378 496.755 430.757C496.031 431.131 495.105 431.318 493.978 431.318H490.001V429.727H493.921C494.698 429.727 495.323 429.614 495.796 429.386C496.274 429.159 496.62 428.837 496.833 428.42C497.051 427.999 497.16 427.497 497.16 426.915C497.16 426.332 497.051 425.823 496.833 425.388C496.615 424.952 496.267 424.616 495.789 424.379C495.311 424.138 494.679 424.017 493.893 424.017H490.796V437H489.035ZM495.881 430.466L499.461 437H497.415L493.893 430.466H495.881ZM502.424 437H500.578L505.919 422.455H507.737L513.078 437H511.231L506.885 424.756H506.771L502.424 437ZM503.106 431.318H510.549V432.881H503.106V431.318ZM526.877 422.455V437H525.173L517.247 425.58H517.105V437H515.343V422.455H517.048L525.002 433.903H525.145V422.455H526.877ZM534.891 437H530.402V422.455H535.089C536.5 422.455 537.708 422.746 538.712 423.328C539.715 423.906 540.485 424.737 541.02 425.821C541.555 426.901 541.822 428.193 541.822 429.699C541.822 431.214 541.553 432.518 541.013 433.612C540.473 434.701 539.687 435.539 538.655 436.126C537.623 436.709 536.368 437 534.891 437ZM532.163 435.438H534.777C535.98 435.438 536.976 435.205 537.767 434.741C538.558 434.277 539.147 433.617 539.536 432.76C539.924 431.903 540.118 430.883 540.118 429.699C540.118 428.525 539.926 427.514 539.543 426.666C539.159 425.814 538.586 425.161 537.824 424.706C537.062 424.247 536.112 424.017 534.976 424.017H532.163V435.438Z" fill="#050D08" fill-opacity="0.95"/>
</svg>
