<svg width="360" height="360" viewBox="0 0 360 360" fill="none" xmlns="http://www.w3.org/2000/svg">
<path fill-rule="evenodd" clip-rule="evenodd" d="M180.5 95.5C133.556 95.5 95.5 133.556 95.5 180.5C95.5 227.444 133.556 265.5 180.5 265.5C227.444 265.5 265.5 227.444 265.5 180.5C265.5 133.556 227.444 95.5 180.5 95.5ZM90.5 180.5C90.5 130.794 130.794 90.5 180.5 90.5C230.206 90.5 270.5 130.794 270.5 180.5C270.5 230.206 230.206 270.5 180.5 270.5C130.794 270.5 90.5 230.206 90.5 180.5ZM151.365 239.68H146L154.175 216H160.627L168.79 239.68H163.425L161.672 234.28H153.122L151.365 239.68ZM157.493 221.411L160.403 230.372H154.393L157.308 221.411H157.493ZM175.603 239.68V216H188.819V217.341H177.048V227.158H187.721V228.499H177.048V239.68H175.603ZM195.127 239.68V216H193.681V239.68H195.127ZM199.408 217.341V216H216V217.341H208.427V239.68H206.981V217.341H199.408ZM182.001 111.001L180.5 109.873L178.999 111.001C155.626 128.557 140.5 156.516 140.5 188.007C140.5 189.563 140.537 191.11 140.61 192.648L140.66 193.698L141.445 194.397C144.678 197.276 148.233 199.804 152.048 201.92L153.744 202.86L155.076 201.452C161.459 194.708 170.487 190.507 180.5 190.507C190.513 190.507 199.541 194.708 205.924 201.452L207.256 202.86L208.952 201.92C212.767 199.804 216.322 197.276 219.555 194.397L220.34 193.698L220.39 192.648C220.463 191.11 220.5 189.563 220.5 188.007C220.5 156.516 205.374 128.557 182.001 111.001ZM145.5 188.007C145.5 158.834 159.187 132.859 180.5 116.151C201.813 132.859 215.5 158.834 215.5 188.007C215.5 189.127 215.48 190.242 215.44 191.353C213.167 193.298 210.731 195.058 208.155 196.607C200.974 189.733 191.229 185.507 180.5 185.507C169.771 185.507 160.026 189.733 152.845 196.607C150.269 195.058 147.833 193.298 145.56 191.353C145.52 190.242 145.5 189.127 145.5 188.007Z" fill="#48C072"/>
</svg>
