<svg width="1600" height="2560" viewBox="0 0 1600 2560" fill="none" xmlns="http://www.w3.org/2000/svg">
<rect width="1600" height="2560" fill="white"/>
<rect width="1600" height="2560" fill="#9EFF00" fill-opacity="0.1"/>
<g clip-path="url(#clip0_218_58)">
<rect width="1200" height="800" transform="translate(200 880)" fill="white"/>
<rect width="1200" height="800" transform="translate(200 880)" fill="#9EFF00" fill-opacity="0.2"/>
<path d="M614.997 647.417C646.642 675.74 666.556 716.898 666.556 762.709C666.556 808.519 646.642 849.678 614.997 878C583.353 849.678 563.438 808.519 563.438 762.709C563.438 716.898 583.353 675.74 614.997 647.417ZM614.997 647.417V543M614.997 478V543M614.997 543L574.003 478M614.997 543L655.992 478M540.625 749.537C580.297 726.632 605.985 688.806 614.69 647.24C574.34 633.997 528.739 637.329 489.066 660.234C449.393 683.14 423.706 720.966 415 762.532C455.35 775.775 500.952 772.442 540.625 749.537ZM689.375 749.537C649.703 726.632 624.015 688.806 615.31 647.24C655.66 633.997 701.261 637.329 740.934 660.234C780.607 683.14 806.294 720.966 815 762.532C774.65 775.775 729.048 772.442 689.375 749.537ZM601.826 772.994C624.731 733.321 628.064 687.719 614.82 647.369C573.254 656.075 535.428 681.762 512.523 721.435C489.618 761.108 486.285 806.709 499.529 847.06C541.095 838.354 578.921 812.667 601.826 772.994ZM628.174 772.994C605.269 733.321 601.936 687.719 615.18 647.369C656.746 656.075 694.572 681.762 717.477 721.435C740.382 761.108 743.714 806.709 730.471 847.06C688.905 838.354 651.079 812.667 628.174 772.994Z" stroke="#9EFF00" stroke-width="4"/>
<path d="M1355 647.417C1386.64 675.74 1406.56 716.898 1406.56 762.709C1406.56 808.519 1386.64 849.678 1355 878C1323.35 849.678 1303.44 808.519 1303.44 762.709C1303.44 716.898 1323.35 675.74 1355 647.417ZM1355 647.417V543M1355 478V543M1355 543L1314 478M1355 543L1395.99 478M1280.62 749.537C1320.3 726.632 1345.98 688.806 1354.69 647.24C1314.34 633.997 1268.74 637.329 1229.07 660.234C1189.39 683.14 1163.71 720.966 1155 762.532C1195.35 775.775 1240.95 772.442 1280.62 749.537ZM1429.38 749.537C1389.7 726.632 1364.02 688.806 1355.31 647.24C1395.66 633.997 1441.26 637.329 1480.93 660.234C1520.61 683.14 1546.29 720.966 1555 762.532C1514.65 775.775 1469.05 772.442 1429.38 749.537ZM1341.83 772.994C1364.73 733.321 1368.06 687.719 1354.82 647.369C1313.25 656.075 1275.43 681.762 1252.52 721.435C1229.62 761.108 1226.29 806.709 1239.53 847.06C1281.09 838.354 1318.92 812.667 1341.83 772.994ZM1368.17 772.994C1345.27 733.321 1341.94 687.719 1355.18 647.369C1396.75 656.075 1434.57 681.762 1457.48 721.435C1480.38 761.108 1483.71 806.709 1470.47 847.06C1428.9 838.354 1391.08 812.667 1368.17 772.994Z" stroke="#9EFF00" stroke-width="4"/>
<path d="M244.997 1088.58C276.642 1060.26 296.556 1019.1 296.556 973.291C296.556 927.481 276.642 886.322 244.997 858C213.353 886.322 193.438 927.481 193.438 973.291C193.438 1019.1 213.353 1060.26 244.997 1088.58ZM244.997 1088.58V1193M244.997 1258V1193M244.997 1193L204.003 1258M244.997 1193L285.992 1258M170.625 986.463C210.297 1009.37 235.985 1047.19 244.69 1088.76C204.34 1102 158.739 1098.67 119.066 1075.77C79.393 1052.86 53.7058 1015.03 45 973.468C85.3501 960.225 130.952 963.558 170.625 986.463ZM319.375 986.463C279.703 1009.37 254.015 1047.19 245.31 1088.76C285.66 1102 331.261 1098.67 370.934 1075.77C410.607 1052.86 436.294 1015.03 445 973.468C404.65 960.225 359.048 963.558 319.375 986.463ZM231.826 963.006C254.731 1002.68 258.064 1048.28 244.82 1088.63C203.254 1079.93 165.428 1054.24 142.523 1014.57C119.618 974.892 116.285 929.291 129.529 888.94C171.095 897.646 208.921 923.333 231.826 963.006ZM258.174 963.006C235.269 1002.68 231.936 1048.28 245.18 1088.63C286.746 1079.93 324.572 1054.24 347.477 1014.57C370.382 974.892 373.714 929.291 360.471 888.94C318.905 897.646 281.079 923.333 258.174 963.006Z" stroke="#9EFF00" stroke-width="4"/>
<path d="M614.997 1059.42C646.642 1087.74 666.556 1128.9 666.556 1174.71C666.556 1220.52 646.642 1261.68 614.997 1290C583.353 1261.68 563.438 1220.52 563.438 1174.71C563.438 1128.9 583.353 1087.74 614.997 1059.42ZM614.997 1059.42V955M614.997 890V955M614.997 955L574.003 890M614.997 955L655.992 890M540.625 1161.54C580.297 1138.63 605.985 1100.81 614.69 1059.24C574.34 1046 528.739 1049.33 489.066 1072.23C449.393 1095.14 423.706 1132.97 415 1174.53C455.35 1187.78 500.952 1184.44 540.625 1161.54ZM689.375 1161.54C649.703 1138.63 624.015 1100.81 615.31 1059.24C655.66 1046 701.261 1049.33 740.934 1072.23C780.607 1095.14 806.294 1132.97 815 1174.53C774.65 1187.78 729.048 1184.44 689.375 1161.54ZM601.826 1184.99C624.731 1145.32 628.064 1099.72 614.82 1059.37C573.254 1068.07 535.428 1093.76 512.523 1133.43C489.618 1173.11 486.285 1218.71 499.529 1259.06C541.095 1250.35 578.921 1224.67 601.826 1184.99ZM628.174 1184.99C605.269 1145.32 601.936 1099.72 615.18 1059.37C656.746 1068.07 694.572 1093.76 717.477 1133.43C740.382 1173.11 743.714 1218.71 730.471 1259.06C688.905 1250.35 651.079 1224.67 628.174 1184.99Z" stroke="#9EFF00" stroke-width="4"/>
<path d="M984.997 1088.58C1016.64 1060.26 1036.56 1019.1 1036.56 973.291C1036.56 927.481 1016.64 886.322 984.997 858C953.353 886.322 933.438 927.481 933.438 973.291C933.438 1019.1 953.353 1060.26 984.997 1088.58ZM984.997 1088.58V1193M984.997 1258V1193M984.997 1193L944.003 1258M984.997 1193L1025.99 1258M910.625 986.463C950.297 1009.37 975.985 1047.19 984.69 1088.76C944.34 1102 898.739 1098.67 859.066 1075.77C819.393 1052.86 793.706 1015.03 785 973.468C825.35 960.225 870.952 963.558 910.625 986.463ZM1059.38 986.463C1019.7 1009.37 994.015 1047.19 985.31 1088.76C1025.66 1102 1071.26 1098.67 1110.93 1075.77C1150.61 1052.86 1176.29 1015.03 1185 973.468C1144.65 960.225 1099.05 963.558 1059.38 986.463ZM971.826 963.006C994.731 1002.68 998.064 1048.28 984.82 1088.63C943.254 1079.93 905.428 1054.24 882.523 1014.57C859.618 974.892 856.285 929.291 869.529 888.94C911.095 897.646 948.921 923.333 971.826 963.006ZM998.174 963.006C975.269 1002.68 971.936 1048.28 985.18 1088.63C1026.75 1079.93 1064.57 1054.24 1087.48 1014.57C1110.38 974.892 1113.71 929.291 1100.47 888.94C1058.9 897.646 1021.08 923.333 998.174 963.006Z" stroke="#9EFF00" stroke-width="4"/>
<path d="M1355 1059.42C1386.64 1087.74 1406.56 1128.9 1406.56 1174.71C1406.56 1220.52 1386.64 1261.68 1355 1290C1323.35 1261.68 1303.44 1220.52 1303.44 1174.71C1303.44 1128.9 1323.35 1087.74 1355 1059.42ZM1355 1059.42V955M1355 890V955M1355 955L1314 890M1355 955L1395.99 890M1280.62 1161.54C1320.3 1138.63 1345.98 1100.81 1354.69 1059.24C1314.34 1046 1268.74 1049.33 1229.07 1072.23C1189.39 1095.14 1163.71 1132.97 1155 1174.53C1195.35 1187.78 1240.95 1184.44 1280.62 1161.54ZM1429.38 1161.54C1389.7 1138.63 1364.02 1100.81 1355.31 1059.24C1395.66 1046 1441.26 1049.33 1480.93 1072.23C1520.61 1095.14 1546.29 1132.97 1555 1174.53C1514.65 1187.78 1469.05 1184.44 1429.38 1161.54ZM1341.83 1184.99C1364.73 1145.32 1368.06 1099.72 1354.82 1059.37C1313.25 1068.07 1275.43 1093.76 1252.52 1133.43C1229.62 1173.11 1226.29 1218.71 1239.53 1259.06C1281.09 1250.35 1318.92 1224.67 1341.83 1184.99ZM1368.17 1184.99C1345.27 1145.32 1341.94 1099.72 1355.18 1059.37C1396.75 1068.07 1434.57 1093.76 1457.48 1133.43C1480.38 1173.11 1483.71 1218.71 1470.47 1259.06C1428.9 1250.35 1391.08 1224.67 1368.17 1184.99Z" stroke="#9EFF00" stroke-width="4"/>
<path d="M244.997 1500.58C276.642 1472.26 296.556 1431.1 296.556 1385.29C296.556 1339.48 276.642 1298.32 244.997 1270C213.353 1298.32 193.438 1339.48 193.438 1385.29C193.438 1431.1 213.353 1472.26 244.997 1500.58ZM244.997 1500.58V1605M244.997 1670V1605M244.997 1605L204.003 1670M244.997 1605L285.992 1670M170.625 1398.46C210.297 1421.37 235.985 1459.19 244.69 1500.76C204.34 1514 158.739 1510.67 119.066 1487.77C79.393 1464.86 53.7058 1427.03 45 1385.47C85.3501 1372.22 130.952 1375.56 170.625 1398.46ZM319.375 1398.46C279.703 1421.37 254.015 1459.19 245.31 1500.76C285.66 1514 331.261 1510.67 370.934 1487.77C410.607 1464.86 436.294 1427.03 445 1385.47C404.65 1372.22 359.048 1375.56 319.375 1398.46ZM231.826 1375.01C254.731 1414.68 258.064 1460.28 244.82 1500.63C203.254 1491.93 165.428 1466.24 142.523 1426.57C119.618 1386.89 116.285 1341.29 129.529 1300.94C171.095 1309.65 208.921 1335.33 231.826 1375.01ZM258.174 1375.01C235.269 1414.68 231.936 1460.28 245.18 1500.63C286.746 1491.93 324.572 1466.24 347.477 1426.57C370.382 1386.89 373.714 1341.29 360.471 1300.94C318.905 1309.65 281.079 1335.33 258.174 1375.01Z" stroke="#9EFF00" stroke-width="4"/>
<path d="M614.997 1471.42C646.642 1499.74 666.556 1540.9 666.556 1586.71C666.556 1632.52 646.642 1673.68 614.997 1702C583.353 1673.68 563.438 1632.52 563.438 1586.71C563.438 1540.9 583.353 1499.74 614.997 1471.42ZM614.997 1471.42V1367M614.997 1302V1367M614.997 1367L574.003 1302M614.997 1367L655.992 1302M540.625 1573.54C580.297 1550.63 605.985 1512.81 614.69 1471.24C574.34 1458 528.739 1461.33 489.066 1484.23C449.393 1507.14 423.706 1544.97 415 1586.53C455.35 1599.78 500.952 1596.44 540.625 1573.54ZM689.375 1573.54C649.703 1550.63 624.015 1512.81 615.31 1471.24C655.66 1458 701.261 1461.33 740.934 1484.23C780.607 1507.14 806.294 1544.97 815 1586.53C774.65 1599.78 729.048 1596.44 689.375 1573.54ZM601.826 1596.99C624.731 1557.32 628.064 1511.72 614.82 1471.37C573.254 1480.07 535.428 1505.76 512.523 1545.43C489.618 1585.11 486.285 1630.71 499.529 1671.06C541.095 1662.35 578.921 1636.67 601.826 1596.99ZM628.174 1596.99C605.269 1557.32 601.936 1511.72 615.18 1471.37C656.746 1480.07 694.572 1505.76 717.477 1545.43C740.382 1585.11 743.714 1630.71 730.471 1671.06C688.905 1662.35 651.079 1636.67 628.174 1596.99Z" stroke="#9EFF00" stroke-width="4"/>
<path d="M984.997 1500.58C1016.64 1472.26 1036.56 1431.1 1036.56 1385.29C1036.56 1339.48 1016.64 1298.32 984.997 1270C953.353 1298.32 933.438 1339.48 933.438 1385.29C933.438 1431.1 953.353 1472.26 984.997 1500.58ZM984.997 1500.58V1605M984.997 1670V1605M984.997 1605L944.003 1670M984.997 1605L1025.99 1670M910.625 1398.46C950.297 1421.37 975.985 1459.19 984.69 1500.76C944.34 1514 898.739 1510.67 859.066 1487.77C819.393 1464.86 793.706 1427.03 785 1385.47C825.35 1372.22 870.952 1375.56 910.625 1398.46ZM1059.38 1398.46C1019.7 1421.37 994.015 1459.19 985.31 1500.76C1025.66 1514 1071.26 1510.67 1110.93 1487.77C1150.61 1464.86 1176.29 1427.03 1185 1385.47C1144.65 1372.22 1099.05 1375.56 1059.38 1398.46ZM971.826 1375.01C994.731 1414.68 998.064 1460.28 984.82 1500.63C943.254 1491.93 905.428 1466.24 882.523 1426.57C859.618 1386.89 856.285 1341.29 869.529 1300.94C911.095 1309.65 948.921 1335.33 971.826 1375.01ZM998.174 1375.01C975.269 1414.68 971.936 1460.28 985.18 1500.63C1026.75 1491.93 1064.57 1466.24 1087.48 1426.57C1110.38 1386.89 1113.71 1341.29 1100.47 1300.94C1058.9 1309.65 1021.08 1335.33 998.174 1375.01Z" stroke="#9EFF00" stroke-width="4"/>
<path d="M1355 1471.42C1386.64 1499.74 1406.56 1540.9 1406.56 1586.71C1406.56 1632.52 1386.64 1673.68 1355 1702C1323.35 1673.68 1303.44 1632.52 1303.44 1586.71C1303.44 1540.9 1323.35 1499.74 1355 1471.42ZM1355 1471.42V1367M1355 1302V1367M1355 1367L1314 1302M1355 1367L1395.99 1302M1280.62 1573.54C1320.3 1550.63 1345.98 1512.81 1354.69 1471.24C1314.34 1458 1268.74 1461.33 1229.07 1484.23C1189.39 1507.14 1163.71 1544.97 1155 1586.53C1195.35 1599.78 1240.95 1596.44 1280.62 1573.54ZM1429.38 1573.54C1389.7 1550.63 1364.02 1512.81 1355.31 1471.24C1395.66 1458 1441.26 1461.33 1480.93 1484.23C1520.61 1507.14 1546.29 1544.97 1555 1586.53C1514.65 1599.78 1469.05 1596.44 1429.38 1573.54ZM1341.83 1596.99C1364.73 1557.32 1368.06 1511.72 1354.82 1471.37C1313.25 1480.07 1275.43 1505.76 1252.52 1545.43C1229.62 1585.11 1226.29 1630.71 1239.53 1671.06C1281.09 1662.35 1318.92 1636.67 1341.83 1596.99ZM1368.17 1596.99C1345.27 1557.32 1341.94 1511.72 1355.18 1471.37C1396.75 1480.07 1434.57 1505.76 1457.48 1545.43C1480.38 1585.11 1483.71 1630.71 1470.47 1671.06C1428.9 1662.35 1391.08 1636.67 1368.17 1596.99Z" stroke="#9EFF00" stroke-width="4"/>
<path d="M244.997 1912.58C276.642 1884.26 296.556 1843.1 296.556 1797.29C296.556 1751.48 276.642 1710.32 244.997 1682C213.353 1710.32 193.438 1751.48 193.438 1797.29C193.438 1843.1 213.353 1884.26 244.997 1912.58ZM244.997 1912.58V2017M244.997 2082V2017M244.997 2017L204.003 2082M244.997 2017L285.992 2082M170.625 1810.46C210.297 1833.37 235.985 1871.19 244.69 1912.76C204.34 1926 158.739 1922.67 119.066 1899.77C79.393 1876.86 53.7058 1839.03 45 1797.47C85.3501 1784.22 130.952 1787.56 170.625 1810.46ZM319.375 1810.46C279.703 1833.37 254.015 1871.19 245.31 1912.76C285.66 1926 331.261 1922.67 370.934 1899.77C410.607 1876.86 436.294 1839.03 445 1797.47C404.65 1784.22 359.048 1787.56 319.375 1810.46ZM231.826 1787.01C254.731 1826.68 258.064 1872.28 244.82 1912.63C203.254 1903.93 165.428 1878.24 142.523 1838.57C119.618 1798.89 116.285 1753.29 129.529 1712.94C171.095 1721.65 208.921 1747.33 231.826 1787.01ZM258.174 1787.01C235.269 1826.68 231.936 1872.28 245.18 1912.63C286.746 1903.93 324.572 1878.24 347.477 1838.57C370.382 1798.89 373.714 1753.29 360.471 1712.94C318.905 1721.65 281.079 1747.33 258.174 1787.01Z" stroke="#9EFF00" stroke-width="4"/>
<path d="M984.997 1912.58C1016.64 1884.26 1036.56 1843.1 1036.56 1797.29C1036.56 1751.48 1016.64 1710.32 984.997 1682C953.353 1710.32 933.438 1751.48 933.438 1797.29C933.438 1843.1 953.353 1884.26 984.997 1912.58ZM984.997 1912.58V2017M984.997 2082V2017M984.997 2017L944.003 2082M984.997 2017L1025.99 2082M910.625 1810.46C950.297 1833.37 975.985 1871.19 984.69 1912.76C944.34 1926 898.739 1922.67 859.066 1899.77C819.393 1876.86 793.706 1839.03 785 1797.47C825.35 1784.22 870.952 1787.56 910.625 1810.46ZM1059.38 1810.46C1019.7 1833.37 994.015 1871.19 985.31 1912.76C1025.66 1926 1071.26 1922.67 1110.93 1899.77C1150.61 1876.86 1176.29 1839.03 1185 1797.47C1144.65 1784.22 1099.05 1787.56 1059.38 1810.46ZM971.826 1787.01C994.731 1826.68 998.064 1872.28 984.82 1912.63C943.254 1903.93 905.428 1878.24 882.523 1838.57C859.618 1798.89 856.285 1753.29 869.529 1712.94C911.095 1721.65 948.921 1747.33 971.826 1787.01ZM998.174 1787.01C975.269 1826.68 971.936 1872.28 985.18 1912.63C1026.75 1903.93 1064.57 1878.24 1087.48 1838.57C1110.38 1798.89 1113.71 1753.29 1100.47 1712.94C1058.9 1721.65 1021.08 1747.33 998.174 1787.01Z" stroke="#9EFF00" stroke-width="4"/>
</g>
<path d="M452.12 544V437.6H491.716C497.441 437.6 502.635 438.791 507.296 441.172C511.957 443.503 515.631 446.847 518.316 451.204C521.052 455.561 522.42 460.679 522.42 466.556C522.42 468.937 522.091 471.395 521.432 473.928C520.824 476.461 519.76 478.792 518.24 480.92C516.771 483.048 514.744 484.669 512.16 485.784C515.504 486.595 518.189 488.115 520.216 490.344C522.243 492.523 523.788 495.056 524.852 497.944C525.916 500.781 526.625 503.695 526.98 506.684C527.335 509.673 527.512 512.384 527.512 514.816C527.512 520.288 526.093 525.228 523.256 529.636C520.419 534.044 516.593 537.54 511.78 540.124C507.017 542.708 501.748 544 495.972 544H452.12ZM473.096 526.14H493.768C496.555 526.14 499.088 525.481 501.368 524.164C503.648 522.796 505.472 520.947 506.84 518.616C508.208 516.235 508.892 513.549 508.892 510.56C508.892 508.027 508.208 505.62 506.84 503.34C505.472 501.06 503.648 499.211 501.368 497.792C499.088 496.323 496.555 495.588 493.768 495.588H473.096V526.14ZM473.096 478.108H489.284C492.628 478.108 495.491 477.019 497.872 474.84C500.253 472.661 501.444 469.849 501.444 466.404C501.444 462.857 500.253 460.172 497.872 458.348C495.491 456.473 492.628 455.536 489.284 455.536H473.096V478.108ZM542.667 468H563.643V544H542.667V468ZM553.307 459.26C550.267 459.26 547.708 458.247 545.631 456.22C543.554 454.193 542.515 451.685 542.515 448.696C542.515 445.707 543.554 443.199 545.631 441.172C547.708 439.145 550.242 438.132 553.231 438.132C556.22 438.132 558.728 439.145 560.755 441.172C562.832 443.199 563.871 445.707 563.871 448.696C563.871 451.685 562.858 454.193 560.831 456.22C558.855 458.247 556.347 459.26 553.307 459.26ZM613.216 545.976C606.224 545.976 599.84 544.177 594.064 540.58C588.339 536.983 583.754 532.169 580.308 526.14C576.914 520.06 575.216 513.347 575.216 506C575.216 500.427 576.204 495.233 578.18 490.42C580.156 485.556 582.867 481.3 586.312 477.652C589.808 473.953 593.862 471.065 598.472 468.988C603.083 466.911 607.998 465.872 613.216 465.872C620.208 465.872 626.567 467.671 632.292 471.268C638.068 474.865 642.654 479.704 646.048 485.784C649.494 491.864 651.216 498.603 651.216 506C651.216 511.523 650.228 516.691 648.252 521.504C646.276 526.317 643.54 530.573 640.044 534.272C636.599 537.92 632.571 540.783 627.96 542.86C623.4 544.937 618.486 545.976 613.216 545.976ZM613.216 525C616.459 525 619.372 524.139 621.956 522.416C624.54 520.643 626.567 518.312 628.036 515.424C629.506 512.536 630.24 509.395 630.24 506C630.24 502.504 629.455 499.312 627.884 496.424C626.364 493.485 624.312 491.155 621.728 489.432C619.144 487.709 616.307 486.848 613.216 486.848C610.024 486.848 607.136 487.735 604.552 489.508C601.968 491.281 599.916 493.612 598.396 496.5C596.927 499.388 596.192 502.555 596.192 506C596.192 509.597 596.952 512.84 598.472 515.728C600.043 518.565 602.12 520.82 604.704 522.492C607.288 524.164 610.126 525 613.216 525ZM718.523 468H739.499V545.064C739.499 550.688 738.359 555.755 736.079 560.264C733.799 564.824 730.683 568.725 726.731 571.968C722.829 575.211 718.32 577.693 713.203 579.416C708.136 581.139 702.765 582 697.091 582C691.72 582 686.577 580.936 681.663 578.808C676.748 576.731 672.391 573.843 668.591 570.144C664.791 566.445 661.827 562.189 659.699 557.376L678.851 548.636C679.915 551.169 681.359 553.348 683.183 555.172C685.057 556.996 687.185 558.389 689.567 559.352C691.999 560.365 694.507 560.872 697.091 560.872C699.877 560.872 702.537 560.543 705.071 559.884C707.655 559.225 709.96 558.237 711.987 556.92C714.013 555.603 715.609 553.956 716.775 551.98C717.94 550.004 718.523 547.699 718.523 545.064V536.248C716.192 539.136 713.355 541.492 710.011 543.316C706.717 545.089 702.892 545.976 698.535 545.976C693.063 545.976 687.92 544.937 683.107 542.86C678.344 540.783 674.139 537.92 670.491 534.272C666.843 530.573 663.98 526.317 661.903 521.504C659.825 516.691 658.787 511.523 658.787 506C658.787 500.477 659.825 495.309 661.903 490.496C663.98 485.683 666.843 481.452 670.491 477.804C674.139 474.105 678.344 471.217 683.107 469.14C687.92 467.063 693.063 466.024 698.535 466.024C702.892 466.024 706.717 466.936 710.011 468.76C713.355 470.533 716.192 472.864 718.523 475.752V468ZM698.839 525.836C702.284 525.836 705.4 524.949 708.187 523.176C710.973 521.352 713.152 518.945 714.723 515.956C716.344 512.967 717.155 509.648 717.155 506C717.155 502.352 716.344 499.033 714.723 496.044C713.152 493.004 710.973 490.597 708.187 488.824C705.4 487.051 702.284 486.164 698.839 486.164C695.444 486.164 692.328 487.051 689.491 488.824C686.704 490.597 684.475 493.004 682.803 496.044C681.131 499.033 680.295 502.352 680.295 506C680.295 509.648 681.131 512.992 682.803 516.032C684.475 519.021 686.704 521.403 689.491 523.176C692.328 524.949 695.444 525.836 698.839 525.836ZM757.829 544L757.753 468H778.729L778.805 473.624C781.338 471.192 784.302 469.292 787.697 467.924C791.142 466.556 794.765 465.872 798.565 465.872C801.351 465.872 804.138 466.277 806.925 467.088L798.641 488.292C796.817 487.532 794.967 487.152 793.093 487.152C790.458 487.152 788.051 487.785 785.873 489.052C783.694 490.319 781.971 492.041 780.705 494.22C779.438 496.348 778.805 498.755 778.805 501.44V544H757.829ZM867.42 468H888.396V544H867.344L866.356 536.096C864.38 539.035 861.846 541.416 858.756 543.24C855.665 545.064 852.042 545.976 847.888 545.976C842.213 545.976 836.918 544.912 832.004 542.784C827.089 540.656 822.757 537.717 819.008 533.968C815.258 530.219 812.32 525.887 810.192 520.972C808.114 516.007 807.076 510.687 807.076 505.012C807.076 499.591 808.064 494.524 810.04 489.812C812.016 485.1 814.802 480.945 818.4 477.348C821.997 473.751 826.126 470.939 830.788 468.912C835.5 466.885 840.566 465.872 845.988 465.872C850.649 465.872 854.829 466.86 858.528 468.836C862.277 470.812 865.545 473.32 868.332 476.36L867.42 468ZM847.356 525.836C850.801 525.836 853.917 524.949 856.704 523.176C859.49 521.403 861.694 519.021 863.316 516.032C864.937 512.992 865.748 509.648 865.748 506C865.748 502.301 864.937 498.957 863.316 495.968C861.694 492.979 859.49 490.597 856.704 488.824C853.917 487.051 850.801 486.164 847.356 486.164C843.86 486.164 840.693 487.051 837.856 488.824C835.018 490.597 832.764 493.004 831.092 496.044C829.42 499.033 828.584 502.352 828.584 506C828.584 509.648 829.42 512.992 831.092 516.032C832.814 519.021 835.094 521.403 837.932 523.176C840.769 524.949 843.91 525.836 847.356 525.836ZM924.643 582H903.667V468H924.643V476.208C927.075 473.219 929.963 470.787 933.307 468.912C936.651 466.987 940.552 466.024 945.011 466.024C950.534 466.024 955.702 467.063 960.515 469.14C965.379 471.217 969.635 474.105 973.283 477.804C976.931 481.452 979.794 485.683 981.871 490.496C983.948 495.309 984.987 500.477 984.987 506C984.987 511.523 983.948 516.716 981.871 521.58C979.794 526.444 976.931 530.725 973.283 534.424C969.635 538.072 965.379 540.935 960.515 543.012C955.702 545.089 950.534 546.128 945.011 546.128C940.552 546.128 936.651 545.165 933.307 543.24C929.963 541.315 927.075 538.883 924.643 535.944V582ZM944.707 486.164C941.262 486.164 938.146 487.076 935.359 488.9C932.623 490.673 930.444 493.055 928.823 496.044C927.252 499.033 926.467 502.352 926.467 506C926.467 509.648 927.252 512.992 928.823 516.032C930.444 519.021 932.623 521.403 935.359 523.176C938.146 524.949 941.262 525.836 944.707 525.836C948.152 525.836 951.294 524.949 954.131 523.176C957.019 521.403 959.299 519.021 960.971 516.032C962.694 513.043 963.555 509.699 963.555 506C963.555 502.403 962.719 499.109 961.047 496.12C959.375 493.08 957.095 490.673 954.207 488.9C951.37 487.076 948.203 486.164 944.707 486.164ZM1065.86 495.664V544H1044.88V501.44C1044.88 498.755 1044.22 496.348 1042.9 494.22C1041.64 492.041 1039.92 490.319 1037.74 489.052C1035.61 487.785 1033.23 487.152 1030.59 487.152C1027.96 487.152 1025.55 487.785 1023.37 489.052C1021.19 490.319 1019.47 492.041 1018.2 494.22C1016.94 496.348 1016.3 498.755 1016.3 501.44V544H995.329L995.253 430H1016.23L1016.3 473.624C1018.84 471.192 1021.8 469.292 1025.2 467.924C1028.64 466.556 1032.26 465.872 1036.06 465.872C1041.59 465.872 1046.58 467.215 1051.04 469.9C1055.55 472.585 1059.14 476.183 1061.83 480.692C1064.51 485.151 1065.86 490.141 1065.86 495.664ZM1128.44 468H1150.78L1109.13 582H1086.94L1100.62 544L1073.26 468H1096.21L1111.11 515.348L1128.44 468Z" fill="#272727"/>
<defs>
<clipPath id="clip0_218_58">
<rect width="1200" height="800" fill="white" transform="translate(200 880)"/>
</clipPath>
</defs>
</svg>
