<svg width="1600" height="2560" viewBox="0 0 1600 2560" fill="none" xmlns="http://www.w3.org/2000/svg">
<rect width="1600" height="2560" fill="white"/>
<rect width="1600" height="2560" fill="#00FF94" fill-opacity="0.1"/>
<g clip-path="url(#clip0_218_52)">
<rect width="600" height="2560" fill="white"/>
<rect width="600" height="2560" fill="#00FF94" fill-opacity="0.2"/>
<path d="M94.9975 264.583C126.642 236.26 146.556 195.102 146.556 149.291C146.556 103.481 126.642 62.3224 94.9975 34C63.3532 62.3224 43.4385 103.481 43.4385 149.291C43.4385 195.102 63.3532 236.26 94.9975 264.583ZM94.9975 264.583V369M94.9975 434V369M94.9975 369L54.0029 434M94.9975 369L135.992 434M20.6247 162.463C60.2975 185.368 85.9847 223.194 94.6905 264.76C54.3404 278.003 8.73851 274.671 -30.9342 251.766C-70.607 228.86 -96.2942 191.034 -105 149.468C-64.6499 136.225 -19.048 139.558 20.6247 162.463ZM169.375 162.463C129.703 185.368 104.015 223.194 95.3095 264.76C135.66 278.003 181.261 274.671 220.934 251.766C260.607 228.86 286.294 191.034 295 149.468C254.65 136.225 209.048 139.558 169.375 162.463ZM81.8261 139.006C104.731 178.679 108.064 224.281 94.8204 264.631C53.2544 255.925 15.4284 230.238 -7.47666 190.565C-30.3817 150.892 -33.7145 105.291 -20.471 64.9404C21.095 73.6462 58.921 99.3334 81.8261 139.006ZM108.174 139.006C85.2688 178.679 81.936 224.281 95.1796 264.631C136.746 255.925 174.572 230.238 197.477 190.565C220.382 150.892 223.714 105.291 210.471 64.9404C168.905 73.6462 131.079 99.3334 108.174 139.006Z" stroke="#00FF94" stroke-width="4"/>
<path d="M464.997 235.417C496.642 263.74 516.556 304.898 516.556 350.709C516.556 396.519 496.642 437.678 464.997 466C433.353 437.678 413.438 396.519 413.438 350.709C413.438 304.898 433.353 263.74 464.997 235.417ZM464.997 235.417V131M464.997 66V131M464.997 131L424.003 66M464.997 131L505.992 66M390.625 337.537C430.297 314.632 455.985 276.806 464.69 235.24C424.34 221.997 378.739 225.329 339.066 248.234C299.393 271.14 273.706 308.966 265 350.532C305.35 363.775 350.952 360.442 390.625 337.537ZM539.375 337.537C499.703 314.632 474.015 276.806 465.31 235.24C505.66 221.997 551.261 225.329 590.934 248.234C630.607 271.14 656.294 308.966 665 350.532C624.65 363.775 579.048 360.442 539.375 337.537ZM451.826 360.994C474.731 321.321 478.064 275.719 464.82 235.369C423.254 244.075 385.428 269.762 362.523 309.435C339.618 349.108 336.285 394.709 349.529 435.06C391.095 426.354 428.921 400.667 451.826 360.994ZM478.174 360.994C455.269 321.321 451.936 275.719 465.18 235.369C506.746 244.075 544.572 269.762 567.477 309.435C590.382 349.108 593.714 394.709 580.471 435.06C538.905 426.354 501.079 400.667 478.174 360.994Z" stroke="#00FF94" stroke-width="4"/>
<path d="M94.9975 676.583C126.642 648.26 146.556 607.102 146.556 561.291C146.556 515.481 126.642 474.322 94.9975 446C63.3532 474.322 43.4385 515.481 43.4385 561.291C43.4385 607.102 63.3532 648.26 94.9975 676.583ZM94.9975 676.583V781M94.9975 846V781M94.9975 781L54.0029 846M94.9975 781L135.992 846M20.6247 574.463C60.2975 597.368 85.9847 635.194 94.6905 676.76C54.3404 690.003 8.73851 686.671 -30.9342 663.766C-70.607 640.86 -96.2942 603.034 -105 561.468C-64.6499 548.225 -19.048 551.558 20.6247 574.463ZM169.375 574.463C129.703 597.368 104.015 635.194 95.3095 676.76C135.66 690.003 181.261 686.671 220.934 663.766C260.607 640.86 286.294 603.034 295 561.468C254.65 548.225 209.048 551.558 169.375 574.463ZM81.8261 551.006C104.731 590.679 108.064 636.281 94.8204 676.631C53.2544 667.925 15.4284 642.238 -7.47666 602.565C-30.3817 562.892 -33.7145 517.291 -20.471 476.94C21.095 485.646 58.921 511.333 81.8261 551.006ZM108.174 551.006C85.2688 590.679 81.936 636.281 95.1796 676.631C136.746 667.925 174.572 642.238 197.477 602.565C220.382 562.892 223.714 517.291 210.471 476.94C168.905 485.646 131.079 511.333 108.174 551.006Z" stroke="#00FF94" stroke-width="4"/>
<path d="M464.997 647.417C496.642 675.74 516.556 716.898 516.556 762.709C516.556 808.519 496.642 849.678 464.997 878C433.353 849.678 413.438 808.519 413.438 762.709C413.438 716.898 433.353 675.74 464.997 647.417ZM464.997 647.417V543M464.997 478V543M464.997 543L424.003 478M464.997 543L505.992 478M390.625 749.537C430.297 726.632 455.985 688.806 464.69 647.24C424.34 633.997 378.739 637.329 339.066 660.234C299.393 683.14 273.706 720.966 265 762.532C305.35 775.775 350.952 772.442 390.625 749.537ZM539.375 749.537C499.703 726.632 474.015 688.806 465.31 647.24C505.66 633.997 551.261 637.329 590.934 660.234C630.607 683.14 656.294 720.966 665 762.532C624.65 775.775 579.048 772.442 539.375 749.537ZM451.826 772.994C474.731 733.321 478.064 687.719 464.82 647.369C423.254 656.075 385.428 681.762 362.523 721.435C339.618 761.108 336.285 806.709 349.529 847.06C391.095 838.354 428.921 812.667 451.826 772.994ZM478.174 772.994C455.269 733.321 451.936 687.719 465.18 647.369C506.746 656.075 544.572 681.762 567.477 721.435C590.382 761.108 593.714 806.709 580.471 847.06C538.905 838.354 501.079 812.667 478.174 772.994Z" stroke="#00FF94" stroke-width="4"/>
<path d="M94.9975 1088.58C126.642 1060.26 146.556 1019.1 146.556 973.291C146.556 927.481 126.642 886.322 94.9975 858C63.3532 886.322 43.4385 927.481 43.4385 973.291C43.4385 1019.1 63.3532 1060.26 94.9975 1088.58ZM94.9975 1088.58V1193M94.9975 1258V1193M94.9975 1193L54.0029 1258M94.9975 1193L135.992 1258M20.6247 986.463C60.2975 1009.37 85.9847 1047.19 94.6905 1088.76C54.3404 1102 8.73851 1098.67 -30.9342 1075.77C-70.607 1052.86 -96.2942 1015.03 -105 973.468C-64.6499 960.225 -19.048 963.558 20.6247 986.463ZM169.375 986.463C129.703 1009.37 104.015 1047.19 95.3095 1088.76C135.66 1102 181.261 1098.67 220.934 1075.77C260.607 1052.86 286.294 1015.03 295 973.468C254.65 960.225 209.048 963.558 169.375 986.463ZM81.8261 963.006C104.731 1002.68 108.064 1048.28 94.8204 1088.63C53.2544 1079.93 15.4284 1054.24 -7.47666 1014.57C-30.3817 974.892 -33.7145 929.291 -20.471 888.94C21.095 897.646 58.921 923.333 81.8261 963.006ZM108.174 963.006C85.2688 1002.68 81.936 1048.28 95.1796 1088.63C136.746 1079.93 174.572 1054.24 197.477 1014.57C220.382 974.892 223.714 929.291 210.471 888.94C168.905 897.646 131.079 923.333 108.174 963.006Z" stroke="#00FF94" stroke-width="4"/>
<path d="M464.997 1059.42C496.642 1087.74 516.556 1128.9 516.556 1174.71C516.556 1220.52 496.642 1261.68 464.997 1290C433.353 1261.68 413.438 1220.52 413.438 1174.71C413.438 1128.9 433.353 1087.74 464.997 1059.42ZM464.997 1059.42V955M464.997 890V955M464.997 955L424.003 890M464.997 955L505.992 890M390.625 1161.54C430.297 1138.63 455.985 1100.81 464.69 1059.24C424.34 1046 378.739 1049.33 339.066 1072.23C299.393 1095.14 273.706 1132.97 265 1174.53C305.35 1187.78 350.952 1184.44 390.625 1161.54ZM539.375 1161.54C499.703 1138.63 474.015 1100.81 465.31 1059.24C505.66 1046 551.261 1049.33 590.934 1072.23C630.607 1095.14 656.294 1132.97 665 1174.53C624.65 1187.78 579.048 1184.44 539.375 1161.54ZM451.826 1184.99C474.731 1145.32 478.064 1099.72 464.82 1059.37C423.254 1068.07 385.428 1093.76 362.523 1133.43C339.618 1173.11 336.285 1218.71 349.529 1259.06C391.095 1250.35 428.921 1224.67 451.826 1184.99ZM478.174 1184.99C455.269 1145.32 451.936 1099.72 465.18 1059.37C506.746 1068.07 544.572 1093.76 567.477 1133.43C590.382 1173.11 593.714 1218.71 580.471 1259.06C538.905 1250.35 501.079 1224.67 478.174 1184.99Z" stroke="#00FF94" stroke-width="4"/>
<path d="M94.9975 1500.58C126.642 1472.26 146.556 1431.1 146.556 1385.29C146.556 1339.48 126.642 1298.32 94.9975 1270C63.3532 1298.32 43.4385 1339.48 43.4385 1385.29C43.4385 1431.1 63.3532 1472.26 94.9975 1500.58ZM94.9975 1500.58V1605M94.9975 1670V1605M94.9975 1605L54.0029 1670M94.9975 1605L135.992 1670M20.6247 1398.46C60.2975 1421.37 85.9847 1459.19 94.6905 1500.76C54.3404 1514 8.73851 1510.67 -30.9342 1487.77C-70.607 1464.86 -96.2942 1427.03 -105 1385.47C-64.6499 1372.22 -19.048 1375.56 20.6247 1398.46ZM169.375 1398.46C129.703 1421.37 104.015 1459.19 95.3095 1500.76C135.66 1514 181.261 1510.67 220.934 1487.77C260.607 1464.86 286.294 1427.03 295 1385.47C254.65 1372.22 209.048 1375.56 169.375 1398.46ZM81.8261 1375.01C104.731 1414.68 108.064 1460.28 94.8204 1500.63C53.2544 1491.93 15.4284 1466.24 -7.47666 1426.57C-30.3817 1386.89 -33.7145 1341.29 -20.471 1300.94C21.095 1309.65 58.921 1335.33 81.8261 1375.01ZM108.174 1375.01C85.2688 1414.68 81.936 1460.28 95.1796 1500.63C136.746 1491.93 174.572 1466.24 197.477 1426.57C220.382 1386.89 223.714 1341.29 210.471 1300.94C168.905 1309.65 131.079 1335.33 108.174 1375.01Z" stroke="#00FF94" stroke-width="4"/>
<path d="M464.997 1471.42C496.642 1499.74 516.556 1540.9 516.556 1586.71C516.556 1632.52 496.642 1673.68 464.997 1702C433.353 1673.68 413.438 1632.52 413.438 1586.71C413.438 1540.9 433.353 1499.74 464.997 1471.42ZM464.997 1471.42V1367M464.997 1302V1367M464.997 1367L424.003 1302M464.997 1367L505.992 1302M390.625 1573.54C430.297 1550.63 455.985 1512.81 464.69 1471.24C424.34 1458 378.739 1461.33 339.066 1484.23C299.393 1507.14 273.706 1544.97 265 1586.53C305.35 1599.78 350.952 1596.44 390.625 1573.54ZM539.375 1573.54C499.703 1550.63 474.015 1512.81 465.31 1471.24C505.66 1458 551.261 1461.33 590.934 1484.23C630.607 1507.14 656.294 1544.97 665 1586.53C624.65 1599.78 579.048 1596.44 539.375 1573.54ZM451.826 1596.99C474.731 1557.32 478.064 1511.72 464.82 1471.37C423.254 1480.07 385.428 1505.76 362.523 1545.43C339.618 1585.11 336.285 1630.71 349.529 1671.06C391.095 1662.35 428.921 1636.67 451.826 1596.99ZM478.174 1596.99C455.269 1557.32 451.936 1511.72 465.18 1471.37C506.746 1480.07 544.572 1505.76 567.477 1545.43C590.382 1585.11 593.714 1630.71 580.471 1671.06C538.905 1662.35 501.079 1636.67 478.174 1596.99Z" stroke="#00FF94" stroke-width="4"/>
<path d="M94.9975 1912.58C126.642 1884.26 146.556 1843.1 146.556 1797.29C146.556 1751.48 126.642 1710.32 94.9975 1682C63.3532 1710.32 43.4385 1751.48 43.4385 1797.29C43.4385 1843.1 63.3532 1884.26 94.9975 1912.58ZM94.9975 1912.58V2017M94.9975 2082V2017M94.9975 2017L54.0029 2082M94.9975 2017L135.992 2082M20.6247 1810.46C60.2975 1833.37 85.9847 1871.19 94.6905 1912.76C54.3404 1926 8.73851 1922.67 -30.9342 1899.77C-70.607 1876.86 -96.2942 1839.03 -105 1797.47C-64.6499 1784.22 -19.048 1787.56 20.6247 1810.46ZM169.375 1810.46C129.703 1833.37 104.015 1871.19 95.3095 1912.76C135.66 1926 181.261 1922.67 220.934 1899.77C260.607 1876.86 286.294 1839.03 295 1797.47C254.65 1784.22 209.048 1787.56 169.375 1810.46ZM81.8261 1787.01C104.731 1826.68 108.064 1872.28 94.8204 1912.63C53.2544 1903.93 15.4284 1878.24 -7.47666 1838.57C-30.3817 1798.89 -33.7145 1753.29 -20.471 1712.94C21.095 1721.65 58.921 1747.33 81.8261 1787.01ZM108.174 1787.01C85.2688 1826.68 81.936 1872.28 95.1796 1912.63C136.746 1903.93 174.572 1878.24 197.477 1838.57C220.382 1798.89 223.714 1753.29 210.471 1712.94C168.905 1721.65 131.079 1747.33 108.174 1787.01Z" stroke="#00FF94" stroke-width="4"/>
<path d="M464.997 1883.42C496.642 1911.74 516.556 1952.9 516.556 1998.71C516.556 2044.52 496.642 2085.68 464.997 2114C433.353 2085.68 413.438 2044.52 413.438 1998.71C413.438 1952.9 433.353 1911.74 464.997 1883.42ZM464.997 1883.42V1779M464.997 1714V1779M464.997 1779L424.003 1714M464.997 1779L505.992 1714M390.625 1985.54C430.297 1962.63 455.985 1924.81 464.69 1883.24C424.34 1870 378.739 1873.33 339.066 1896.23C299.393 1919.14 273.706 1956.97 265 1998.53C305.35 2011.78 350.952 2008.44 390.625 1985.54ZM539.375 1985.54C499.703 1962.63 474.015 1924.81 465.31 1883.24C505.66 1870 551.261 1873.33 590.934 1896.23C630.607 1919.14 656.294 1956.97 665 1998.53C624.65 2011.78 579.048 2008.44 539.375 1985.54ZM451.826 2008.99C474.731 1969.32 478.064 1923.72 464.82 1883.37C423.254 1892.07 385.428 1917.76 362.523 1957.43C339.618 1997.11 336.285 2042.71 349.529 2083.06C391.095 2074.35 428.921 2048.67 451.826 2008.99ZM478.174 2008.99C455.269 1969.32 451.936 1923.72 465.18 1883.37C506.746 1892.07 544.572 1917.76 567.477 1957.43C590.382 1997.11 593.714 2042.71 580.471 2083.06C538.905 2074.35 501.079 2048.67 478.174 2008.99Z" stroke="#00FF94" stroke-width="4"/>
<path d="M94.9975 2324.58C126.642 2296.26 146.556 2255.1 146.556 2209.29C146.556 2163.48 126.642 2122.32 94.9975 2094C63.3532 2122.32 43.4385 2163.48 43.4385 2209.29C43.4385 2255.1 63.3532 2296.26 94.9975 2324.58ZM94.9975 2324.58V2429M94.9975 2494V2429M94.9975 2429L54.0029 2494M94.9975 2429L135.992 2494M20.6247 2222.46C60.2975 2245.37 85.9847 2283.19 94.6905 2324.76C54.3404 2338 8.73851 2334.67 -30.9342 2311.77C-70.607 2288.86 -96.2942 2251.03 -105 2209.47C-64.6499 2196.22 -19.048 2199.56 20.6247 2222.46ZM169.375 2222.46C129.703 2245.37 104.015 2283.19 95.3095 2324.76C135.66 2338 181.261 2334.67 220.934 2311.77C260.607 2288.86 286.294 2251.03 295 2209.47C254.65 2196.22 209.048 2199.56 169.375 2222.46ZM81.8261 2199.01C104.731 2238.68 108.064 2284.28 94.8204 2324.63C53.2544 2315.93 15.4284 2290.24 -7.47666 2250.57C-30.3817 2210.89 -33.7145 2165.29 -20.471 2124.94C21.095 2133.65 58.921 2159.33 81.8261 2199.01ZM108.174 2199.01C85.2688 2238.68 81.936 2284.28 95.1796 2324.63C136.746 2315.93 174.572 2290.24 197.477 2250.57C220.382 2210.89 223.714 2165.29 210.471 2124.94C168.905 2133.65 131.079 2159.33 108.174 2199.01Z" stroke="#00FF94" stroke-width="4"/>
<path d="M464.997 2295.42C496.642 2323.74 516.556 2364.9 516.556 2410.71C516.556 2456.52 496.642 2497.68 464.997 2526C433.353 2497.68 413.438 2456.52 413.438 2410.71C413.438 2364.9 433.353 2323.74 464.997 2295.42ZM464.997 2295.42V2191M464.997 2126V2191M464.997 2191L424.003 2126M464.997 2191L505.992 2126M390.625 2397.54C430.297 2374.63 455.985 2336.81 464.69 2295.24C424.34 2282 378.739 2285.33 339.066 2308.23C299.393 2331.14 273.706 2368.97 265 2410.53C305.35 2423.78 350.952 2420.44 390.625 2397.54ZM539.375 2397.54C499.703 2374.63 474.015 2336.81 465.31 2295.24C505.66 2282 551.261 2285.33 590.934 2308.23C630.607 2331.14 656.294 2368.97 665 2410.53C624.65 2423.78 579.048 2420.44 539.375 2397.54ZM451.826 2420.99C474.731 2381.32 478.064 2335.72 464.82 2295.37C423.254 2304.07 385.428 2329.76 362.523 2369.43C339.618 2409.11 336.285 2454.71 349.529 2495.06C391.095 2486.35 428.921 2460.67 451.826 2420.99ZM478.174 2420.99C455.269 2381.32 451.936 2335.72 465.18 2295.37C506.746 2304.07 544.572 2329.76 567.477 2369.43C590.382 2409.11 593.714 2454.71 580.471 2495.06C538.905 2486.35 501.079 2460.67 478.174 2420.99Z" stroke="#00FF94" stroke-width="4"/>
</g>
<path d="M858.368 745.976C851.173 745.976 844.409 744.557 838.076 741.72C831.743 738.832 826.169 734.855 821.356 729.788C816.593 724.721 812.844 718.869 810.108 712.232C807.423 705.544 806.08 698.4 806.08 690.8C806.08 683.149 807.423 676.005 810.108 669.368C812.844 662.68 816.593 656.828 821.356 651.812C826.169 646.745 831.743 642.793 838.076 639.956C844.409 637.068 851.173 635.624 858.368 635.624C866.981 635.624 874.911 637.625 882.156 641.628C889.401 645.58 895.405 650.875 900.168 657.512L881.472 667.62C878.635 664.276 875.215 661.616 871.212 659.64C867.209 657.613 862.928 656.6 858.368 656.6C854.061 656.6 850.008 657.487 846.208 659.26C842.408 661.033 839.064 663.491 836.176 666.632C833.339 669.773 831.109 673.396 829.488 677.5C827.867 681.604 827.056 686.037 827.056 690.8C827.056 695.512 827.867 699.945 829.488 704.1C831.109 708.204 833.339 711.827 836.176 714.968C839.064 718.059 842.408 720.516 846.208 722.34C850.008 724.113 854.061 725 858.368 725C862.979 725 867.26 723.987 871.212 721.96C875.215 719.933 878.635 717.248 881.472 713.904L900.168 724.088C895.405 730.675 889.401 735.969 882.156 739.972C874.911 743.975 866.981 745.976 858.368 745.976ZM943.646 745.976C936.654 745.976 930.27 744.177 924.494 740.58C918.769 736.983 914.183 732.169 910.738 726.14C907.343 720.06 905.646 713.347 905.646 706C905.646 700.427 906.634 695.233 908.61 690.42C910.586 685.556 913.297 681.3 916.742 677.652C920.238 673.953 924.291 671.065 928.902 668.988C933.513 666.911 938.427 665.872 943.646 665.872C950.638 665.872 956.997 667.671 962.722 671.268C968.498 674.865 973.083 679.704 976.478 685.784C979.923 691.864 981.646 698.603 981.646 706C981.646 711.523 980.658 716.691 978.682 721.504C976.706 726.317 973.97 730.573 970.474 734.272C967.029 737.92 963.001 740.783 958.39 742.86C953.83 744.937 948.915 745.976 943.646 745.976ZM943.646 725C946.889 725 949.802 724.139 952.386 722.416C954.97 720.643 956.997 718.312 958.466 715.424C959.935 712.536 960.67 709.395 960.67 706C960.67 702.504 959.885 699.312 958.314 696.424C956.794 693.485 954.742 691.155 952.158 689.432C949.574 687.709 946.737 686.848 943.646 686.848C940.454 686.848 937.566 687.735 934.982 689.508C932.398 691.281 930.346 693.612 928.826 696.5C927.357 699.388 926.622 702.555 926.622 706C926.622 709.597 927.382 712.84 928.902 715.728C930.473 718.565 932.55 720.82 935.134 722.492C937.718 724.164 940.555 725 943.646 725ZM993.183 744V668H1014.16V673.624C1016.74 671.192 1019.73 669.292 1023.13 667.924C1026.52 666.556 1030.12 665.872 1033.92 665.872C1039.09 665.872 1043.82 667.063 1048.13 669.444C1052.49 671.825 1055.98 674.992 1058.62 678.944C1061.3 674.992 1064.8 671.825 1069.11 669.444C1073.41 667.063 1078.13 665.872 1083.24 665.872C1088.77 665.872 1093.76 667.215 1098.21 669.9C1102.72 672.585 1106.32 676.183 1109.01 680.692C1111.69 685.151 1113.03 690.141 1113.03 695.664V744H1092.06V701.44C1092.06 698.805 1091.4 696.424 1090.08 694.296C1088.82 692.117 1087.12 690.395 1084.99 689.128C1082.86 687.811 1080.48 687.152 1077.85 687.152C1075.21 687.152 1072.81 687.785 1070.63 689.052C1068.5 690.319 1066.78 692.041 1065.46 694.22C1064.19 696.348 1063.56 698.755 1063.56 701.44V744H1042.58V701.44C1042.58 698.755 1041.95 696.348 1040.68 694.22C1039.42 692.041 1037.69 690.319 1035.51 689.052C1033.39 687.785 1031.01 687.152 1028.37 687.152C1025.79 687.152 1023.41 687.811 1021.23 689.128C1019.1 690.395 1017.38 692.117 1016.06 694.296C1014.79 696.424 1014.16 698.805 1014.16 701.44V744H993.183ZM1128.26 668H1149.24V744H1128.26V668ZM1138.9 659.26C1135.86 659.26 1133.3 658.247 1131.22 656.22C1129.15 654.193 1128.11 651.685 1128.11 648.696C1128.11 645.707 1129.15 643.199 1131.22 641.172C1133.3 639.145 1135.84 638.132 1138.82 638.132C1141.81 638.132 1144.32 639.145 1146.35 641.172C1148.43 643.199 1149.46 645.707 1149.46 648.696C1149.46 651.685 1148.45 654.193 1146.42 656.22C1144.45 658.247 1141.94 659.26 1138.9 659.26ZM1210.36 719.984L1229.21 730.168C1225.71 734.931 1221.33 738.756 1216.06 741.644C1210.79 744.532 1205.04 745.976 1198.81 745.976C1191.82 745.976 1185.43 744.177 1179.66 740.58C1173.93 736.983 1169.35 732.169 1165.9 726.14C1162.51 720.06 1160.81 713.347 1160.81 706C1160.81 700.427 1161.8 695.233 1163.77 690.42C1165.75 685.556 1168.46 681.3 1171.91 677.652C1175.4 673.953 1179.46 671.065 1184.07 668.988C1188.68 666.911 1193.59 665.872 1198.81 665.872C1205.04 665.872 1210.79 667.316 1216.06 670.204C1221.33 673.092 1225.71 676.968 1229.21 681.832L1210.36 692.016C1208.79 690.344 1206.99 689.077 1204.97 688.216C1202.99 687.304 1200.94 686.848 1198.81 686.848C1195.57 686.848 1192.65 687.735 1190.07 689.508C1187.54 691.281 1185.51 693.637 1183.99 696.576C1182.52 699.464 1181.79 702.605 1181.79 706C1181.79 709.344 1182.55 712.46 1184.07 715.348C1185.59 718.236 1187.61 720.567 1190.15 722.34C1192.73 724.113 1195.62 725 1198.81 725C1200.99 725 1203.07 724.544 1205.04 723.632C1207.02 722.72 1208.79 721.504 1210.36 719.984Z" fill="#272727"/>
<defs>
<clipPath id="clip0_218_52">
<rect width="600" height="2560" fill="white"/>
</clipPath>
</defs>
</svg>
