<svg width="1600" height="2560" viewBox="0 0 1600 2560" fill="none" xmlns="http://www.w3.org/2000/svg">
<rect width="1600" height="2560" fill="white"/>
<rect width="1600" height="2560" fill="#FF8600" fill-opacity="0.1"/>
<path d="M587.12 2200V2093.6H650.2V2114.58H608.096V2132.51H642.904V2153.49H608.096V2200H587.12ZM657.034 2124H678.01V2200H657.034V2124ZM667.674 2115.26C664.634 2115.26 662.075 2114.25 659.998 2112.22C657.921 2110.19 656.882 2107.69 656.882 2104.7C656.882 2101.71 657.921 2099.2 659.998 2097.17C662.075 2095.15 664.609 2094.13 667.598 2094.13C670.587 2094.13 673.095 2095.15 675.122 2097.17C677.199 2099.2 678.238 2101.71 678.238 2104.7C678.238 2107.69 677.225 2110.19 675.198 2112.22C673.222 2114.25 670.714 2115.26 667.674 2115.26ZM739.135 2175.98L757.983 2186.17C754.487 2190.93 750.105 2194.76 744.835 2197.64C739.566 2200.53 733.815 2201.98 727.583 2201.98C720.591 2201.98 714.207 2200.18 708.431 2196.58C702.706 2192.98 698.121 2188.17 694.675 2182.14C691.281 2176.06 689.583 2169.35 689.583 2162C689.583 2156.43 690.571 2151.23 692.547 2146.42C694.523 2141.56 697.234 2137.3 700.679 2133.65C704.175 2129.95 708.229 2127.07 712.839 2124.99C717.45 2122.91 722.365 2121.87 727.583 2121.87C733.815 2121.87 739.566 2123.32 744.835 2126.2C750.105 2129.09 754.487 2132.97 757.983 2137.83L739.135 2148.02C737.565 2146.34 735.766 2145.08 733.739 2144.22C731.763 2143.3 729.711 2142.85 727.583 2142.85C724.341 2142.85 721.427 2143.73 718.843 2145.51C716.31 2147.28 714.283 2149.64 712.763 2152.58C711.294 2155.46 710.559 2158.61 710.559 2162C710.559 2165.34 711.319 2168.46 712.839 2171.35C714.359 2174.24 716.386 2176.57 718.919 2178.34C721.503 2180.11 724.391 2181 727.583 2181C729.762 2181 731.839 2180.54 733.815 2179.63C735.791 2178.72 737.565 2177.5 739.135 2175.98ZM812.972 2144.98H799.292V2200H778.316V2144.98H767.828V2124H778.316V2100.14H799.292V2124H812.972V2144.98ZM825.214 2124H846.19V2200H825.214V2124ZM835.854 2115.26C832.814 2115.26 830.255 2114.25 828.178 2112.22C826.1 2110.19 825.062 2107.69 825.062 2104.7C825.062 2101.71 826.1 2099.2 828.178 2097.17C830.255 2095.15 832.788 2094.13 835.778 2094.13C838.767 2094.13 841.275 2095.15 843.302 2097.17C845.379 2099.2 846.418 2101.71 846.418 2104.7C846.418 2107.69 845.404 2110.19 843.378 2112.22C841.402 2114.25 838.894 2115.26 835.854 2115.26ZM895.763 2201.98C888.771 2201.98 882.387 2200.18 876.611 2196.58C870.886 2192.98 866.3 2188.17 862.855 2182.14C859.46 2176.06 857.763 2169.35 857.763 2162C857.763 2156.43 858.751 2151.23 860.727 2146.42C862.703 2141.56 865.414 2137.3 868.859 2133.65C872.355 2129.95 876.408 2127.07 881.019 2124.99C885.63 2122.91 890.544 2121.87 895.763 2121.87C902.755 2121.87 909.114 2123.67 914.839 2127.27C920.615 2130.87 925.2 2135.7 928.595 2141.78C932.04 2147.86 933.763 2154.6 933.763 2162C933.763 2167.52 932.775 2172.69 930.799 2177.5C928.823 2182.32 926.087 2186.57 922.591 2190.27C919.146 2193.92 915.118 2196.78 910.507 2198.86C905.947 2200.94 901.032 2201.98 895.763 2201.98ZM895.763 2181C899.006 2181 901.919 2180.14 904.503 2178.42C907.087 2176.64 909.114 2174.31 910.583 2171.42C912.052 2168.54 912.787 2165.39 912.787 2162C912.787 2158.5 912.002 2155.31 910.431 2152.42C908.911 2149.49 906.859 2147.15 904.275 2145.43C901.691 2143.71 898.854 2142.85 895.763 2142.85C892.571 2142.85 889.683 2143.73 887.099 2145.51C884.515 2147.28 882.463 2149.61 880.943 2152.5C879.474 2155.39 878.739 2158.55 878.739 2162C878.739 2165.6 879.499 2168.84 881.019 2171.73C882.59 2174.57 884.667 2176.82 887.251 2178.49C889.835 2180.16 892.672 2181 895.763 2181ZM1015.9 2151.66V2200H994.928V2157.44C994.928 2154.75 994.269 2152.35 992.952 2150.22C991.685 2148.04 989.962 2146.32 987.784 2145.05C985.656 2143.79 983.274 2143.15 980.64 2143.15C978.005 2143.15 975.598 2143.79 973.42 2145.05C971.241 2146.32 969.518 2148.04 968.252 2150.22C966.985 2152.35 966.352 2154.75 966.352 2157.44V2200H945.376L945.3 2124H966.276L966.352 2129.62C968.885 2127.19 971.849 2125.29 975.244 2123.92C978.689 2122.56 982.312 2121.87 986.112 2121.87C991.634 2121.87 996.625 2123.21 1001.08 2125.9C1005.59 2128.59 1009.19 2132.18 1011.88 2136.69C1014.56 2141.15 1015.9 2146.14 1015.9 2151.66Z" fill="#272727"/>
<g clip-path="url(#clip0_218_2)">
<rect width="1600" height="1960" fill="white"/>
<rect width="1600" height="1960" fill="#FF8600" fill-opacity="0.2"/>
<path d="M244.997 170.583C276.642 142.26 296.556 101.102 296.556 55.2914C296.556 9.48123 276.642 -31.6776 244.997 -60C213.353 -31.6776 193.438 9.48123 193.438 55.2914C193.438 101.102 213.353 142.26 244.997 170.583ZM244.997 170.583V275M244.997 340V275M244.997 275L204.003 340M244.997 275L285.992 340M170.625 68.4628C210.297 91.3679 235.985 129.194 244.69 170.76C204.34 184.003 158.739 180.671 119.066 157.766C79.393 134.86 53.7058 97.0344 45 55.4685C85.3501 42.2249 130.952 45.5577 170.625 68.4628ZM319.375 68.4628C279.703 91.3679 254.015 129.194 245.31 170.76C285.66 184.003 331.261 180.671 370.934 157.766C410.607 134.86 436.294 97.0344 445 55.4685C404.65 42.2249 359.048 45.5577 319.375 68.4628ZM231.826 45.0062C254.731 84.679 258.064 130.281 244.82 170.631C203.254 161.925 165.428 136.238 142.523 96.5652C119.618 56.8924 116.285 11.2905 129.529 -29.0596C171.095 -20.3538 208.921 5.33344 231.826 45.0062ZM258.174 45.0062C235.269 84.679 231.936 130.281 245.18 170.631C286.746 161.925 324.572 136.238 347.477 96.5652C370.382 56.8924 373.714 11.2905 360.471 -29.0596C318.905 -20.3538 281.079 5.33344 258.174 45.0062Z" stroke="#FF8600" stroke-width="4"/>
<path d="M614.997 141.417C646.642 169.74 666.556 210.898 666.556 256.709C666.556 302.519 646.642 343.678 614.997 372C583.353 343.678 563.438 302.519 563.438 256.709C563.438 210.898 583.353 169.74 614.997 141.417ZM614.997 141.417V37M614.997 -28V37M614.997 37L574.003 -28M614.997 37L655.992 -28M540.625 243.537C580.297 220.632 605.985 182.806 614.69 141.24C574.34 127.997 528.739 131.329 489.066 154.234C449.393 177.14 423.706 214.966 415 256.532C455.35 269.775 500.952 266.442 540.625 243.537ZM689.375 243.537C649.703 220.632 624.015 182.806 615.31 141.24C655.66 127.997 701.261 131.329 740.934 154.234C780.607 177.14 806.294 214.966 815 256.532C774.65 269.775 729.048 266.442 689.375 243.537ZM601.826 266.994C624.731 227.321 628.064 181.719 614.82 141.369C573.254 150.075 535.428 175.762 512.523 215.435C489.618 255.108 486.285 300.709 499.529 341.06C541.095 332.354 578.921 306.667 601.826 266.994ZM628.174 266.994C605.269 227.321 601.936 181.719 615.18 141.369C656.746 150.075 694.572 175.762 717.477 215.435C740.382 255.108 743.714 300.709 730.471 341.06C688.905 332.354 651.079 306.667 628.174 266.994Z" stroke="#FF8600" stroke-width="4"/>
<path d="M984.997 170.583C1016.64 142.26 1036.56 101.102 1036.56 55.2914C1036.56 9.48123 1016.64 -31.6776 984.997 -60C953.353 -31.6776 933.438 9.48123 933.438 55.2914C933.438 101.102 953.353 142.26 984.997 170.583ZM984.997 170.583V275M984.997 340V275M984.997 275L944.003 340M984.997 275L1025.99 340M910.625 68.4628C950.297 91.3679 975.985 129.194 984.69 170.76C944.34 184.003 898.739 180.671 859.066 157.766C819.393 134.86 793.706 97.0344 785 55.4685C825.35 42.2249 870.952 45.5577 910.625 68.4628ZM1059.38 68.4628C1019.7 91.3679 994.015 129.194 985.31 170.76C1025.66 184.003 1071.26 180.671 1110.93 157.766C1150.61 134.86 1176.29 97.0344 1185 55.4685C1144.65 42.2249 1099.05 45.5577 1059.38 68.4628ZM971.826 45.0062C994.731 84.679 998.064 130.281 984.82 170.631C943.254 161.925 905.428 136.238 882.523 96.5652C859.618 56.8924 856.285 11.2905 869.529 -29.0596C911.095 -20.3538 948.921 5.33344 971.826 45.0062ZM998.174 45.0062C975.269 84.679 971.936 130.281 985.18 170.631C1026.75 161.925 1064.57 136.238 1087.48 96.5652C1110.38 56.8924 1113.71 11.2905 1100.47 -29.0596C1058.9 -20.3538 1021.08 5.33344 998.174 45.0062Z" stroke="#FF8600" stroke-width="4"/>
<path d="M1355 141.417C1386.64 169.74 1406.56 210.898 1406.56 256.709C1406.56 302.519 1386.64 343.678 1355 372C1323.35 343.678 1303.44 302.519 1303.44 256.709C1303.44 210.898 1323.35 169.74 1355 141.417ZM1355 141.417V37M1355 -28V37M1355 37L1314 -28M1355 37L1395.99 -28M1280.62 243.537C1320.3 220.632 1345.98 182.806 1354.69 141.24C1314.34 127.997 1268.74 131.329 1229.07 154.234C1189.39 177.14 1163.71 214.966 1155 256.532C1195.35 269.775 1240.95 266.442 1280.62 243.537ZM1429.38 243.537C1389.7 220.632 1364.02 182.806 1355.31 141.24C1395.66 127.997 1441.26 131.329 1480.93 154.234C1520.61 177.14 1546.29 214.966 1555 256.532C1514.65 269.775 1469.05 266.442 1429.38 243.537ZM1341.83 266.994C1364.73 227.321 1368.06 181.719 1354.82 141.369C1313.25 150.075 1275.43 175.762 1252.52 215.435C1229.62 255.108 1226.29 300.709 1239.53 341.06C1281.09 332.354 1318.92 306.667 1341.83 266.994ZM1368.17 266.994C1345.27 227.321 1341.94 181.719 1355.18 141.369C1396.75 150.075 1434.57 175.762 1457.48 215.435C1480.38 255.108 1483.71 300.709 1470.47 341.06C1428.9 332.354 1391.08 306.667 1368.17 266.994Z" stroke="#FF8600" stroke-width="4"/>
<path d="M244.997 582.583C276.642 554.26 296.556 513.102 296.556 467.291C296.556 421.481 276.642 380.322 244.997 352C213.353 380.322 193.438 421.481 193.438 467.291C193.438 513.102 213.353 554.26 244.997 582.583ZM244.997 582.583V687M244.997 752V687M244.997 687L204.003 752M244.997 687L285.992 752M170.625 480.463C210.297 503.368 235.985 541.194 244.69 582.76C204.34 596.003 158.739 592.671 119.066 569.766C79.393 546.86 53.7058 509.034 45 467.468C85.3501 454.225 130.952 457.558 170.625 480.463ZM319.375 480.463C279.703 503.368 254.015 541.194 245.31 582.76C285.66 596.003 331.261 592.671 370.934 569.766C410.607 546.86 436.294 509.034 445 467.468C404.65 454.225 359.048 457.558 319.375 480.463ZM231.826 457.006C254.731 496.679 258.064 542.281 244.82 582.631C203.254 573.925 165.428 548.238 142.523 508.565C119.618 468.892 116.285 423.291 129.529 382.94C171.095 391.646 208.921 417.333 231.826 457.006ZM258.174 457.006C235.269 496.679 231.936 542.281 245.18 582.631C286.746 573.925 324.572 548.238 347.477 508.565C370.382 468.892 373.714 423.291 360.471 382.94C318.905 391.646 281.079 417.333 258.174 457.006Z" stroke="#FF8600" stroke-width="4"/>
<path d="M614.997 553.417C646.642 581.74 666.556 622.898 666.556 668.709C666.556 714.519 646.642 755.678 614.997 784C583.353 755.678 563.438 714.519 563.438 668.709C563.438 622.898 583.353 581.74 614.997 553.417ZM614.997 553.417V449M614.997 384V449M614.997 449L574.003 384M614.997 449L655.992 384M540.625 655.537C580.297 632.632 605.985 594.806 614.69 553.24C574.34 539.997 528.739 543.329 489.066 566.234C449.393 589.14 423.706 626.966 415 668.532C455.35 681.775 500.952 678.442 540.625 655.537ZM689.375 655.537C649.703 632.632 624.015 594.806 615.31 553.24C655.66 539.997 701.261 543.329 740.934 566.234C780.607 589.14 806.294 626.966 815 668.532C774.65 681.775 729.048 678.442 689.375 655.537ZM601.826 678.994C624.731 639.321 628.064 593.719 614.82 553.369C573.254 562.075 535.428 587.762 512.523 627.435C489.618 667.108 486.285 712.709 499.529 753.06C541.095 744.354 578.921 718.667 601.826 678.994ZM628.174 678.994C605.269 639.321 601.936 593.719 615.18 553.369C656.746 562.075 694.572 587.762 717.477 627.435C740.382 667.108 743.714 712.709 730.471 753.06C688.905 744.354 651.079 718.667 628.174 678.994Z" stroke="#FF8600" stroke-width="4"/>
<path d="M984.997 582.583C1016.64 554.26 1036.56 513.102 1036.56 467.291C1036.56 421.481 1016.64 380.322 984.997 352C953.353 380.322 933.438 421.481 933.438 467.291C933.438 513.102 953.353 554.26 984.997 582.583ZM984.997 582.583V687M984.997 752V687M984.997 687L944.003 752M984.997 687L1025.99 752M910.625 480.463C950.297 503.368 975.985 541.194 984.69 582.76C944.34 596.003 898.739 592.671 859.066 569.766C819.393 546.86 793.706 509.034 785 467.468C825.35 454.225 870.952 457.558 910.625 480.463ZM1059.38 480.463C1019.7 503.368 994.015 541.194 985.31 582.76C1025.66 596.003 1071.26 592.671 1110.93 569.766C1150.61 546.86 1176.29 509.034 1185 467.468C1144.65 454.225 1099.05 457.558 1059.38 480.463ZM971.826 457.006C994.731 496.679 998.064 542.281 984.82 582.631C943.254 573.925 905.428 548.238 882.523 508.565C859.618 468.892 856.285 423.291 869.529 382.94C911.095 391.646 948.921 417.333 971.826 457.006ZM998.174 457.006C975.269 496.679 971.936 542.281 985.18 582.631C1026.75 573.925 1064.57 548.238 1087.48 508.565C1110.38 468.892 1113.71 423.291 1100.47 382.94C1058.9 391.646 1021.08 417.333 998.174 457.006Z" stroke="#FF8600" stroke-width="4"/>
<path d="M1355 553.417C1386.64 581.74 1406.56 622.898 1406.56 668.709C1406.56 714.519 1386.64 755.678 1355 784C1323.35 755.678 1303.44 714.519 1303.44 668.709C1303.44 622.898 1323.35 581.74 1355 553.417ZM1355 553.417V449M1355 384V449M1355 449L1314 384M1355 449L1395.99 384M1280.62 655.537C1320.3 632.632 1345.98 594.806 1354.69 553.24C1314.34 539.997 1268.74 543.329 1229.07 566.234C1189.39 589.14 1163.71 626.966 1155 668.532C1195.35 681.775 1240.95 678.442 1280.62 655.537ZM1429.38 655.537C1389.7 632.632 1364.02 594.806 1355.31 553.24C1395.66 539.997 1441.26 543.329 1480.93 566.234C1520.61 589.14 1546.29 626.966 1555 668.532C1514.65 681.775 1469.05 678.442 1429.38 655.537ZM1341.83 678.994C1364.73 639.321 1368.06 593.719 1354.82 553.369C1313.25 562.075 1275.43 587.762 1252.52 627.435C1229.62 667.108 1226.29 712.709 1239.53 753.06C1281.09 744.354 1318.92 718.667 1341.83 678.994ZM1368.17 678.994C1345.27 639.321 1341.94 593.719 1355.18 553.369C1396.75 562.075 1434.57 587.762 1457.48 627.435C1480.38 667.108 1483.71 712.709 1470.47 753.06C1428.9 744.354 1391.08 718.667 1368.17 678.994Z" stroke="#FF8600" stroke-width="4"/>
<path d="M244.997 994.583C276.642 966.26 296.556 925.102 296.556 879.291C296.556 833.481 276.642 792.322 244.997 764C213.353 792.322 193.438 833.481 193.438 879.291C193.438 925.102 213.353 966.26 244.997 994.583ZM244.997 994.583V1099M244.997 1164V1099M244.997 1099L204.003 1164M244.997 1099L285.992 1164M170.625 892.463C210.297 915.368 235.985 953.194 244.69 994.76C204.34 1008 158.739 1004.67 119.066 981.766C79.393 958.86 53.7058 921.034 45 879.468C85.3501 866.225 130.952 869.558 170.625 892.463ZM319.375 892.463C279.703 915.368 254.015 953.194 245.31 994.76C285.66 1008 331.261 1004.67 370.934 981.766C410.607 958.86 436.294 921.034 445 879.468C404.65 866.225 359.048 869.558 319.375 892.463ZM231.826 869.006C254.731 908.679 258.064 954.281 244.82 994.631C203.254 985.925 165.428 960.238 142.523 920.565C119.618 880.892 116.285 835.291 129.529 794.94C171.095 803.646 208.921 829.333 231.826 869.006ZM258.174 869.006C235.269 908.679 231.936 954.281 245.18 994.631C286.746 985.925 324.572 960.238 347.477 920.565C370.382 880.892 373.714 835.291 360.471 794.94C318.905 803.646 281.079 829.333 258.174 869.006Z" stroke="#FF8600" stroke-width="4"/>
<path d="M614.997 965.417C646.642 993.74 666.556 1034.9 666.556 1080.71C666.556 1126.52 646.642 1167.68 614.997 1196C583.353 1167.68 563.438 1126.52 563.438 1080.71C563.438 1034.9 583.353 993.74 614.997 965.417ZM614.997 965.417V861M614.997 796V861M614.997 861L574.003 796M614.997 861L655.992 796M540.625 1067.54C580.297 1044.63 605.985 1006.81 614.69 965.24C574.34 951.997 528.739 955.329 489.066 978.234C449.393 1001.14 423.706 1038.97 415 1080.53C455.35 1093.78 500.952 1090.44 540.625 1067.54ZM689.375 1067.54C649.703 1044.63 624.015 1006.81 615.31 965.24C655.66 951.997 701.261 955.329 740.934 978.234C780.607 1001.14 806.294 1038.97 815 1080.53C774.65 1093.78 729.048 1090.44 689.375 1067.54ZM601.826 1090.99C624.731 1051.32 628.064 1005.72 614.82 965.369C573.254 974.075 535.428 999.762 512.523 1039.43C489.618 1079.11 486.285 1124.71 499.529 1165.06C541.095 1156.35 578.921 1130.67 601.826 1090.99ZM628.174 1090.99C605.269 1051.32 601.936 1005.72 615.18 965.369C656.746 974.075 694.572 999.762 717.477 1039.43C740.382 1079.11 743.714 1124.71 730.471 1165.06C688.905 1156.35 651.079 1130.67 628.174 1090.99Z" stroke="#FF8600" stroke-width="4"/>
<path d="M984.997 994.583C1016.64 966.26 1036.56 925.102 1036.56 879.291C1036.56 833.481 1016.64 792.322 984.997 764C953.353 792.322 933.438 833.481 933.438 879.291C933.438 925.102 953.353 966.26 984.997 994.583ZM984.997 994.583V1099M984.997 1164V1099M984.997 1099L944.003 1164M984.997 1099L1025.99 1164M910.625 892.463C950.297 915.368 975.985 953.194 984.69 994.76C944.34 1008 898.739 1004.67 859.066 981.766C819.393 958.86 793.706 921.034 785 879.468C825.35 866.225 870.952 869.558 910.625 892.463ZM1059.38 892.463C1019.7 915.368 994.015 953.194 985.31 994.76C1025.66 1008 1071.26 1004.67 1110.93 981.766C1150.61 958.86 1176.29 921.034 1185 879.468C1144.65 866.225 1099.05 869.558 1059.38 892.463ZM971.826 869.006C994.731 908.679 998.064 954.281 984.82 994.631C943.254 985.925 905.428 960.238 882.523 920.565C859.618 880.892 856.285 835.291 869.529 794.94C911.095 803.646 948.921 829.333 971.826 869.006ZM998.174 869.006C975.269 908.679 971.936 954.281 985.18 994.631C1026.75 985.925 1064.57 960.238 1087.48 920.565C1110.38 880.892 1113.71 835.291 1100.47 794.94C1058.9 803.646 1021.08 829.333 998.174 869.006Z" stroke="#FF8600" stroke-width="4"/>
<path d="M1355 965.417C1386.64 993.74 1406.56 1034.9 1406.56 1080.71C1406.56 1126.52 1386.64 1167.68 1355 1196C1323.35 1167.68 1303.44 1126.52 1303.44 1080.71C1303.44 1034.9 1323.35 993.74 1355 965.417ZM1355 965.417V861M1355 796V861M1355 861L1314 796M1355 861L1395.99 796M1280.62 1067.54C1320.3 1044.63 1345.98 1006.81 1354.69 965.24C1314.34 951.997 1268.74 955.329 1229.07 978.234C1189.39 1001.14 1163.71 1038.97 1155 1080.53C1195.35 1093.78 1240.95 1090.44 1280.62 1067.54ZM1429.38 1067.54C1389.7 1044.63 1364.02 1006.81 1355.31 965.24C1395.66 951.997 1441.26 955.329 1480.93 978.234C1520.61 1001.14 1546.29 1038.97 1555 1080.53C1514.65 1093.78 1469.05 1090.44 1429.38 1067.54ZM1341.83 1090.99C1364.73 1051.32 1368.06 1005.72 1354.82 965.369C1313.25 974.075 1275.43 999.762 1252.52 1039.43C1229.62 1079.11 1226.29 1124.71 1239.53 1165.06C1281.09 1156.35 1318.92 1130.67 1341.83 1090.99ZM1368.17 1090.99C1345.27 1051.32 1341.94 1005.72 1355.18 965.369C1396.75 974.075 1434.57 999.762 1457.48 1039.43C1480.38 1079.11 1483.71 1124.71 1470.47 1165.06C1428.9 1156.35 1391.08 1130.67 1368.17 1090.99Z" stroke="#FF8600" stroke-width="4"/>
<path d="M244.997 1406.58C276.642 1378.26 296.556 1337.1 296.556 1291.29C296.556 1245.48 276.642 1204.32 244.997 1176C213.353 1204.32 193.438 1245.48 193.438 1291.29C193.438 1337.1 213.353 1378.26 244.997 1406.58ZM244.997 1406.58V1511M244.997 1576V1511M244.997 1511L204.003 1576M244.997 1511L285.992 1576M170.625 1304.46C210.297 1327.37 235.985 1365.19 244.69 1406.76C204.34 1420 158.739 1416.67 119.066 1393.77C79.393 1370.86 53.7058 1333.03 45 1291.47C85.3501 1278.22 130.952 1281.56 170.625 1304.46ZM319.375 1304.46C279.703 1327.37 254.015 1365.19 245.31 1406.76C285.66 1420 331.261 1416.67 370.934 1393.77C410.607 1370.86 436.294 1333.03 445 1291.47C404.65 1278.22 359.048 1281.56 319.375 1304.46ZM231.826 1281.01C254.731 1320.68 258.064 1366.28 244.82 1406.63C203.254 1397.93 165.428 1372.24 142.523 1332.57C119.618 1292.89 116.285 1247.29 129.529 1206.94C171.095 1215.65 208.921 1241.33 231.826 1281.01ZM258.174 1281.01C235.269 1320.68 231.936 1366.28 245.18 1406.63C286.746 1397.93 324.572 1372.24 347.477 1332.57C370.382 1292.89 373.714 1247.29 360.471 1206.94C318.905 1215.65 281.079 1241.33 258.174 1281.01Z" stroke="#FF8600" stroke-width="4"/>
<path d="M614.997 1377.42C646.642 1405.74 666.556 1446.9 666.556 1492.71C666.556 1538.52 646.642 1579.68 614.997 1608C583.353 1579.68 563.438 1538.52 563.438 1492.71C563.438 1446.9 583.353 1405.74 614.997 1377.42ZM614.997 1377.42V1273M614.997 1208V1273M614.997 1273L574.003 1208M614.997 1273L655.992 1208M540.625 1479.54C580.297 1456.63 605.985 1418.81 614.69 1377.24C574.34 1364 528.739 1367.33 489.066 1390.23C449.393 1413.14 423.706 1450.97 415 1492.53C455.35 1505.78 500.952 1502.44 540.625 1479.54ZM689.375 1479.54C649.703 1456.63 624.015 1418.81 615.31 1377.24C655.66 1364 701.261 1367.33 740.934 1390.23C780.607 1413.14 806.294 1450.97 815 1492.53C774.65 1505.78 729.048 1502.44 689.375 1479.54ZM601.826 1502.99C624.731 1463.32 628.064 1417.72 614.82 1377.37C573.254 1386.07 535.428 1411.76 512.523 1451.43C489.618 1491.11 486.285 1536.71 499.529 1577.06C541.095 1568.35 578.921 1542.67 601.826 1502.99ZM628.174 1502.99C605.269 1463.32 601.936 1417.72 615.18 1377.37C656.746 1386.07 694.572 1411.76 717.477 1451.43C740.382 1491.11 743.714 1536.71 730.471 1577.06C688.905 1568.35 651.079 1542.67 628.174 1502.99Z" stroke="#FF8600" stroke-width="4"/>
<path d="M984.997 1406.58C1016.64 1378.26 1036.56 1337.1 1036.56 1291.29C1036.56 1245.48 1016.64 1204.32 984.997 1176C953.353 1204.32 933.438 1245.48 933.438 1291.29C933.438 1337.1 953.353 1378.26 984.997 1406.58ZM984.997 1406.58V1511M984.997 1576V1511M984.997 1511L944.003 1576M984.997 1511L1025.99 1576M910.625 1304.46C950.297 1327.37 975.985 1365.19 984.69 1406.76C944.34 1420 898.739 1416.67 859.066 1393.77C819.393 1370.86 793.706 1333.03 785 1291.47C825.35 1278.22 870.952 1281.56 910.625 1304.46ZM1059.38 1304.46C1019.7 1327.37 994.015 1365.19 985.31 1406.76C1025.66 1420 1071.26 1416.67 1110.93 1393.77C1150.61 1370.86 1176.29 1333.03 1185 1291.47C1144.65 1278.22 1099.05 1281.56 1059.38 1304.46ZM971.826 1281.01C994.731 1320.68 998.064 1366.28 984.82 1406.63C943.254 1397.93 905.428 1372.24 882.523 1332.57C859.618 1292.89 856.285 1247.29 869.529 1206.94C911.095 1215.65 948.921 1241.33 971.826 1281.01ZM998.174 1281.01C975.269 1320.68 971.936 1366.28 985.18 1406.63C1026.75 1397.93 1064.57 1372.24 1087.48 1332.57C1110.38 1292.89 1113.71 1247.29 1100.47 1206.94C1058.9 1215.65 1021.08 1241.33 998.174 1281.01Z" stroke="#FF8600" stroke-width="4"/>
<path d="M1355 1377.42C1386.64 1405.74 1406.56 1446.9 1406.56 1492.71C1406.56 1538.52 1386.64 1579.68 1355 1608C1323.35 1579.68 1303.44 1538.52 1303.44 1492.71C1303.44 1446.9 1323.35 1405.74 1355 1377.42ZM1355 1377.42V1273M1355 1208V1273M1355 1273L1314 1208M1355 1273L1395.99 1208M1280.62 1479.54C1320.3 1456.63 1345.98 1418.81 1354.69 1377.24C1314.34 1364 1268.74 1367.33 1229.07 1390.23C1189.39 1413.14 1163.71 1450.97 1155 1492.53C1195.35 1505.78 1240.95 1502.44 1280.62 1479.54ZM1429.38 1479.54C1389.7 1456.63 1364.02 1418.81 1355.31 1377.24C1395.66 1364 1441.26 1367.33 1480.93 1390.23C1520.61 1413.14 1546.29 1450.97 1555 1492.53C1514.65 1505.78 1469.05 1502.44 1429.38 1479.54ZM1341.83 1502.99C1364.73 1463.32 1368.06 1417.72 1354.82 1377.37C1313.25 1386.07 1275.43 1411.76 1252.52 1451.43C1229.62 1491.11 1226.29 1536.71 1239.53 1577.06C1281.09 1568.35 1318.92 1542.67 1341.83 1502.99ZM1368.17 1502.99C1345.27 1463.32 1341.94 1417.72 1355.18 1377.37C1396.75 1386.07 1434.57 1411.76 1457.48 1451.43C1480.38 1491.11 1483.71 1536.71 1470.47 1577.06C1428.9 1568.35 1391.08 1542.67 1368.17 1502.99Z" stroke="#FF8600" stroke-width="4"/>
<path d="M244.997 1818.58C276.642 1790.26 296.556 1749.1 296.556 1703.29C296.556 1657.48 276.642 1616.32 244.997 1588C213.353 1616.32 193.438 1657.48 193.438 1703.29C193.438 1749.1 213.353 1790.26 244.997 1818.58ZM244.997 1818.58V1923M244.997 1988V1923M244.997 1923L204.003 1988M244.997 1923L285.992 1988M170.625 1716.46C210.297 1739.37 235.985 1777.19 244.69 1818.76C204.34 1832 158.739 1828.67 119.066 1805.77C79.393 1782.86 53.7058 1745.03 45 1703.47C85.3501 1690.22 130.952 1693.56 170.625 1716.46ZM319.375 1716.46C279.703 1739.37 254.015 1777.19 245.31 1818.76C285.66 1832 331.261 1828.67 370.934 1805.77C410.607 1782.86 436.294 1745.03 445 1703.47C404.65 1690.22 359.048 1693.56 319.375 1716.46ZM231.826 1693.01C254.731 1732.68 258.064 1778.28 244.82 1818.63C203.254 1809.93 165.428 1784.24 142.523 1744.57C119.618 1704.89 116.285 1659.29 129.529 1618.94C171.095 1627.65 208.921 1653.33 231.826 1693.01ZM258.174 1693.01C235.269 1732.68 231.936 1778.28 245.18 1818.63C286.746 1809.93 324.572 1784.24 347.477 1744.57C370.382 1704.89 373.714 1659.29 360.471 1618.94C318.905 1627.65 281.079 1653.33 258.174 1693.01Z" stroke="#FF8600" stroke-width="4"/>
<path d="M614.997 1789.42C646.642 1817.74 666.556 1858.9 666.556 1904.71C666.556 1950.52 646.642 1991.68 614.997 2020C583.353 1991.68 563.438 1950.52 563.438 1904.71C563.438 1858.9 583.353 1817.74 614.997 1789.42ZM614.997 1789.42V1685M614.997 1620V1685M614.997 1685L574.003 1620M614.997 1685L655.992 1620M540.625 1891.54C580.297 1868.63 605.985 1830.81 614.69 1789.24C574.34 1776 528.739 1779.33 489.066 1802.23C449.393 1825.14 423.706 1862.97 415 1904.53C455.35 1917.78 500.952 1914.44 540.625 1891.54ZM689.375 1891.54C649.703 1868.63 624.015 1830.81 615.31 1789.24C655.66 1776 701.261 1779.33 740.934 1802.23C780.607 1825.14 806.294 1862.97 815 1904.53C774.65 1917.78 729.048 1914.44 689.375 1891.54ZM601.826 1914.99C624.731 1875.32 628.064 1829.72 614.82 1789.37C573.254 1798.07 535.428 1823.76 512.523 1863.43C489.618 1903.11 486.285 1948.71 499.529 1989.06C541.095 1980.35 578.921 1954.67 601.826 1914.99ZM628.174 1914.99C605.269 1875.32 601.936 1829.72 615.18 1789.37C656.746 1798.07 694.572 1823.76 717.477 1863.43C740.382 1903.11 743.714 1948.71 730.471 1989.06C688.905 1980.35 651.079 1954.67 628.174 1914.99Z" stroke="#FF8600" stroke-width="4"/>
<path d="M984.997 1818.58C1016.64 1790.26 1036.56 1749.1 1036.56 1703.29C1036.56 1657.48 1016.64 1616.32 984.997 1588C953.353 1616.32 933.438 1657.48 933.438 1703.29C933.438 1749.1 953.353 1790.26 984.997 1818.58ZM984.997 1818.58V1923M984.997 1988V1923M984.997 1923L944.003 1988M984.997 1923L1025.99 1988M910.625 1716.46C950.297 1739.37 975.985 1777.19 984.69 1818.76C944.34 1832 898.739 1828.67 859.066 1805.77C819.393 1782.86 793.706 1745.03 785 1703.47C825.35 1690.22 870.952 1693.56 910.625 1716.46ZM1059.38 1716.46C1019.7 1739.37 994.015 1777.19 985.31 1818.76C1025.66 1832 1071.26 1828.67 1110.93 1805.77C1150.61 1782.86 1176.29 1745.03 1185 1703.47C1144.65 1690.22 1099.05 1693.56 1059.38 1716.46ZM971.826 1693.01C994.731 1732.68 998.064 1778.28 984.82 1818.63C943.254 1809.93 905.428 1784.24 882.523 1744.57C859.618 1704.89 856.285 1659.29 869.529 1618.94C911.095 1627.65 948.921 1653.33 971.826 1693.01ZM998.174 1693.01C975.269 1732.68 971.936 1778.28 985.18 1818.63C1026.75 1809.93 1064.57 1784.24 1087.48 1744.57C1110.38 1704.89 1113.71 1659.29 1100.47 1618.94C1058.9 1627.65 1021.08 1653.33 998.174 1693.01Z" stroke="#FF8600" stroke-width="4"/>
<path d="M1355 1789.42C1386.64 1817.74 1406.56 1858.9 1406.56 1904.71C1406.56 1950.52 1386.64 1991.68 1355 2020C1323.35 1991.68 1303.44 1950.52 1303.44 1904.71C1303.44 1858.9 1323.35 1817.74 1355 1789.42ZM1355 1789.42V1685M1355 1620V1685M1355 1685L1314 1620M1355 1685L1395.99 1620M1280.62 1891.54C1320.3 1868.63 1345.98 1830.81 1354.69 1789.24C1314.34 1776 1268.74 1779.33 1229.07 1802.23C1189.39 1825.14 1163.71 1862.97 1155 1904.53C1195.35 1917.78 1240.95 1914.44 1280.62 1891.54ZM1429.38 1891.54C1389.7 1868.63 1364.02 1830.81 1355.31 1789.24C1395.66 1776 1441.26 1779.33 1480.93 1802.23C1520.61 1825.14 1546.29 1862.97 1555 1904.53C1514.65 1917.78 1469.05 1914.44 1429.38 1891.54ZM1341.83 1914.99C1364.73 1875.32 1368.06 1829.72 1354.82 1789.37C1313.25 1798.07 1275.43 1823.76 1252.52 1863.43C1229.62 1903.11 1226.29 1948.71 1239.53 1989.06C1281.09 1980.35 1318.92 1954.67 1341.83 1914.99ZM1368.17 1914.99C1345.27 1875.32 1341.94 1829.72 1355.18 1789.37C1396.75 1798.07 1434.57 1823.76 1457.48 1863.43C1480.38 1903.11 1483.71 1948.71 1470.47 1989.06C1428.9 1980.35 1391.08 1954.67 1368.17 1914.99Z" stroke="#FF8600" stroke-width="4"/>
</g>
<defs>
<clipPath id="clip0_218_2">
<rect width="1600" height="1960" fill="white"/>
</clipPath>
</defs>
</svg>
