<svg width="1600" height="2560" viewBox="0 0 1600 2560" fill="none" xmlns="http://www.w3.org/2000/svg">
<rect width="1600" height="2560" fill="white"/>
<rect width="1600" height="2560" fill="#0066FF" fill-opacity="0.1"/>
<g clip-path="url(#clip0_218_43)">
<rect width="1400" height="1860" transform="translate(100 600)" fill="white"/>
<rect width="1400" height="1860" transform="translate(100 600)" fill="#0066FF" fill-opacity="0.2"/>
<path d="M244.997 720.583C276.642 692.26 296.556 651.102 296.556 605.291C296.556 559.481 276.642 518.322 244.997 490C213.353 518.322 193.438 559.481 193.438 605.291C193.438 651.102 213.353 692.26 244.997 720.583ZM244.997 720.583V825M244.997 890V825M244.997 825L204.003 890M244.997 825L285.992 890M170.625 618.463C210.297 641.368 235.985 679.194 244.69 720.76C204.34 734.003 158.739 730.671 119.066 707.766C79.393 684.86 53.7058 647.034 45 605.468C85.3501 592.225 130.952 595.558 170.625 618.463ZM319.375 618.463C279.703 641.368 254.015 679.194 245.31 720.76C285.66 734.003 331.261 730.671 370.934 707.766C410.607 684.86 436.294 647.034 445 605.468C404.65 592.225 359.048 595.558 319.375 618.463ZM231.826 595.006C254.731 634.679 258.064 680.281 244.82 720.631C203.254 711.925 165.428 686.238 142.523 646.565C119.618 606.892 116.285 561.291 129.529 520.94C171.095 529.646 208.921 555.333 231.826 595.006ZM258.174 595.006C235.269 634.679 231.936 680.281 245.18 720.631C286.746 711.925 324.572 686.238 347.477 646.565C370.382 606.892 373.714 561.291 360.471 520.94C318.905 529.646 281.079 555.333 258.174 595.006Z" stroke="#0066FF" stroke-width="4"/>
<path d="M614.997 691.417C646.642 719.74 666.556 760.898 666.556 806.709C666.556 852.519 646.642 893.678 614.997 922C583.353 893.678 563.438 852.519 563.438 806.709C563.438 760.898 583.353 719.74 614.997 691.417ZM614.997 691.417V587M614.997 522V587M614.997 587L574.003 522M614.997 587L655.992 522M540.625 793.537C580.297 770.632 605.985 732.806 614.69 691.24C574.34 677.997 528.739 681.329 489.066 704.234C449.393 727.14 423.706 764.966 415 806.532C455.35 819.775 500.952 816.442 540.625 793.537ZM689.375 793.537C649.703 770.632 624.015 732.806 615.31 691.24C655.66 677.997 701.261 681.329 740.934 704.234C780.607 727.14 806.294 764.966 815 806.532C774.65 819.775 729.048 816.442 689.375 793.537ZM601.826 816.994C624.731 777.321 628.064 731.719 614.82 691.369C573.254 700.075 535.428 725.762 512.523 765.435C489.618 805.108 486.285 850.709 499.529 891.06C541.095 882.354 578.921 856.667 601.826 816.994ZM628.174 816.994C605.269 777.321 601.936 731.719 615.18 691.369C656.746 700.075 694.572 725.762 717.477 765.435C740.382 805.108 743.714 850.709 730.471 891.06C688.905 882.354 651.079 856.667 628.174 816.994Z" stroke="#0066FF" stroke-width="4"/>
<path d="M984.997 720.583C1016.64 692.26 1036.56 651.102 1036.56 605.291C1036.56 559.481 1016.64 518.322 984.997 490C953.353 518.322 933.438 559.481 933.438 605.291C933.438 651.102 953.353 692.26 984.997 720.583ZM984.997 720.583V825M984.997 890V825M984.997 825L944.003 890M984.997 825L1025.99 890M910.625 618.463C950.297 641.368 975.985 679.194 984.69 720.76C944.34 734.003 898.739 730.671 859.066 707.766C819.393 684.86 793.706 647.034 785 605.468C825.35 592.225 870.952 595.558 910.625 618.463ZM1059.38 618.463C1019.7 641.368 994.015 679.194 985.31 720.76C1025.66 734.003 1071.26 730.671 1110.93 707.766C1150.61 684.86 1176.29 647.034 1185 605.468C1144.65 592.225 1099.05 595.558 1059.38 618.463ZM971.826 595.006C994.731 634.679 998.064 680.281 984.82 720.631C943.254 711.925 905.428 686.238 882.523 646.565C859.618 606.892 856.285 561.291 869.529 520.94C911.095 529.646 948.921 555.333 971.826 595.006ZM998.174 595.006C975.269 634.679 971.936 680.281 985.18 720.631C1026.75 711.925 1064.57 686.238 1087.48 646.565C1110.38 606.892 1113.71 561.291 1100.47 520.94C1058.9 529.646 1021.08 555.333 998.174 595.006Z" stroke="#0066FF" stroke-width="4"/>
<path d="M1355 691.417C1386.64 719.74 1406.56 760.898 1406.56 806.709C1406.56 852.519 1386.64 893.678 1355 922C1323.35 893.678 1303.44 852.519 1303.44 806.709C1303.44 760.898 1323.35 719.74 1355 691.417ZM1355 691.417V587M1355 522V587M1355 587L1314 522M1355 587L1395.99 522M1280.62 793.537C1320.3 770.632 1345.98 732.806 1354.69 691.24C1314.34 677.997 1268.74 681.329 1229.07 704.234C1189.39 727.14 1163.71 764.966 1155 806.532C1195.35 819.775 1240.95 816.442 1280.62 793.537ZM1429.38 793.537C1389.7 770.632 1364.02 732.806 1355.31 691.24C1395.66 677.997 1441.26 681.329 1480.93 704.234C1520.61 727.14 1546.29 764.966 1555 806.532C1514.65 819.775 1469.05 816.442 1429.38 793.537ZM1341.83 816.994C1364.73 777.321 1368.06 731.719 1354.82 691.369C1313.25 700.075 1275.43 725.762 1252.52 765.435C1229.62 805.108 1226.29 850.709 1239.53 891.06C1281.09 882.354 1318.92 856.667 1341.83 816.994ZM1368.17 816.994C1345.27 777.321 1341.94 731.719 1355.18 691.369C1396.75 700.075 1434.57 725.762 1457.48 765.435C1480.38 805.108 1483.71 850.709 1470.47 891.06C1428.9 882.354 1391.08 856.667 1368.17 816.994Z" stroke="#0066FF" stroke-width="4"/>
<path d="M244.997 1132.58C276.642 1104.26 296.556 1063.1 296.556 1017.29C296.556 971.481 276.642 930.322 244.997 902C213.353 930.322 193.438 971.481 193.438 1017.29C193.438 1063.1 213.353 1104.26 244.997 1132.58ZM244.997 1132.58V1237M244.997 1302V1237M244.997 1237L204.003 1302M244.997 1237L285.992 1302M170.625 1030.46C210.297 1053.37 235.985 1091.19 244.69 1132.76C204.34 1146 158.739 1142.67 119.066 1119.77C79.393 1096.86 53.7058 1059.03 45 1017.47C85.3501 1004.22 130.952 1007.56 170.625 1030.46ZM319.375 1030.46C279.703 1053.37 254.015 1091.19 245.31 1132.76C285.66 1146 331.261 1142.67 370.934 1119.77C410.607 1096.86 436.294 1059.03 445 1017.47C404.65 1004.22 359.048 1007.56 319.375 1030.46ZM231.826 1007.01C254.731 1046.68 258.064 1092.28 244.82 1132.63C203.254 1123.93 165.428 1098.24 142.523 1058.57C119.618 1018.89 116.285 973.291 129.529 932.94C171.095 941.646 208.921 967.333 231.826 1007.01ZM258.174 1007.01C235.269 1046.68 231.936 1092.28 245.18 1132.63C286.746 1123.93 324.572 1098.24 347.477 1058.57C370.382 1018.89 373.714 973.291 360.471 932.94C318.905 941.646 281.079 967.333 258.174 1007.01Z" stroke="#0066FF" stroke-width="4"/>
<path d="M614.997 1103.42C646.642 1131.74 666.556 1172.9 666.556 1218.71C666.556 1264.52 646.642 1305.68 614.997 1334C583.353 1305.68 563.438 1264.52 563.438 1218.71C563.438 1172.9 583.353 1131.74 614.997 1103.42ZM614.997 1103.42V999M614.997 934V999M614.997 999L574.003 934M614.997 999L655.992 934M540.625 1205.54C580.297 1182.63 605.985 1144.81 614.69 1103.24C574.34 1090 528.739 1093.33 489.066 1116.23C449.393 1139.14 423.706 1176.97 415 1218.53C455.35 1231.78 500.952 1228.44 540.625 1205.54ZM689.375 1205.54C649.703 1182.63 624.015 1144.81 615.31 1103.24C655.66 1090 701.261 1093.33 740.934 1116.23C780.607 1139.14 806.294 1176.97 815 1218.53C774.65 1231.78 729.048 1228.44 689.375 1205.54ZM601.826 1228.99C624.731 1189.32 628.064 1143.72 614.82 1103.37C573.254 1112.07 535.428 1137.76 512.523 1177.43C489.618 1217.11 486.285 1262.71 499.529 1303.06C541.095 1294.35 578.921 1268.67 601.826 1228.99ZM628.174 1228.99C605.269 1189.32 601.936 1143.72 615.18 1103.37C656.746 1112.07 694.572 1137.76 717.477 1177.43C740.382 1217.11 743.714 1262.71 730.471 1303.06C688.905 1294.35 651.079 1268.67 628.174 1228.99Z" stroke="#0066FF" stroke-width="4"/>
<path d="M984.997 1132.58C1016.64 1104.26 1036.56 1063.1 1036.56 1017.29C1036.56 971.481 1016.64 930.322 984.997 902C953.353 930.322 933.438 971.481 933.438 1017.29C933.438 1063.1 953.353 1104.26 984.997 1132.58ZM984.997 1132.58V1237M984.997 1302V1237M984.997 1237L944.003 1302M984.997 1237L1025.99 1302M910.625 1030.46C950.297 1053.37 975.985 1091.19 984.69 1132.76C944.34 1146 898.739 1142.67 859.066 1119.77C819.393 1096.86 793.706 1059.03 785 1017.47C825.35 1004.22 870.952 1007.56 910.625 1030.46ZM1059.38 1030.46C1019.7 1053.37 994.015 1091.19 985.31 1132.76C1025.66 1146 1071.26 1142.67 1110.93 1119.77C1150.61 1096.86 1176.29 1059.03 1185 1017.47C1144.65 1004.22 1099.05 1007.56 1059.38 1030.46ZM971.826 1007.01C994.731 1046.68 998.064 1092.28 984.82 1132.63C943.254 1123.93 905.428 1098.24 882.523 1058.57C859.618 1018.89 856.285 973.291 869.529 932.94C911.095 941.646 948.921 967.333 971.826 1007.01ZM998.174 1007.01C975.269 1046.68 971.936 1092.28 985.18 1132.63C1026.75 1123.93 1064.57 1098.24 1087.48 1058.57C1110.38 1018.89 1113.71 973.291 1100.47 932.94C1058.9 941.646 1021.08 967.333 998.174 1007.01Z" stroke="#0066FF" stroke-width="4"/>
<path d="M1355 1103.42C1386.64 1131.74 1406.56 1172.9 1406.56 1218.71C1406.56 1264.52 1386.64 1305.68 1355 1334C1323.35 1305.68 1303.44 1264.52 1303.44 1218.71C1303.44 1172.9 1323.35 1131.74 1355 1103.42ZM1355 1103.42V999M1355 934V999M1355 999L1314 934M1355 999L1395.99 934M1280.62 1205.54C1320.3 1182.63 1345.98 1144.81 1354.69 1103.24C1314.34 1090 1268.74 1093.33 1229.07 1116.23C1189.39 1139.14 1163.71 1176.97 1155 1218.53C1195.35 1231.78 1240.95 1228.44 1280.62 1205.54ZM1429.38 1205.54C1389.7 1182.63 1364.02 1144.81 1355.31 1103.24C1395.66 1090 1441.26 1093.33 1480.93 1116.23C1520.61 1139.14 1546.29 1176.97 1555 1218.53C1514.65 1231.78 1469.05 1228.44 1429.38 1205.54ZM1341.83 1228.99C1364.73 1189.32 1368.06 1143.72 1354.82 1103.37C1313.25 1112.07 1275.43 1137.76 1252.52 1177.43C1229.62 1217.11 1226.29 1262.71 1239.53 1303.06C1281.09 1294.35 1318.92 1268.67 1341.83 1228.99ZM1368.17 1228.99C1345.27 1189.32 1341.94 1143.72 1355.18 1103.37C1396.75 1112.07 1434.57 1137.76 1457.48 1177.43C1480.38 1217.11 1483.71 1262.71 1470.47 1303.06C1428.9 1294.35 1391.08 1268.67 1368.17 1228.99Z" stroke="#0066FF" stroke-width="4"/>
<path d="M244.997 1544.58C276.642 1516.26 296.556 1475.1 296.556 1429.29C296.556 1383.48 276.642 1342.32 244.997 1314C213.353 1342.32 193.438 1383.48 193.438 1429.29C193.438 1475.1 213.353 1516.26 244.997 1544.58ZM244.997 1544.58V1649M244.997 1714V1649M244.997 1649L204.003 1714M244.997 1649L285.992 1714M170.625 1442.46C210.297 1465.37 235.985 1503.19 244.69 1544.76C204.34 1558 158.739 1554.67 119.066 1531.77C79.393 1508.86 53.7058 1471.03 45 1429.47C85.3501 1416.22 130.952 1419.56 170.625 1442.46ZM319.375 1442.46C279.703 1465.37 254.015 1503.19 245.31 1544.76C285.66 1558 331.261 1554.67 370.934 1531.77C410.607 1508.86 436.294 1471.03 445 1429.47C404.65 1416.22 359.048 1419.56 319.375 1442.46ZM231.826 1419.01C254.731 1458.68 258.064 1504.28 244.82 1544.63C203.254 1535.93 165.428 1510.24 142.523 1470.57C119.618 1430.89 116.285 1385.29 129.529 1344.94C171.095 1353.65 208.921 1379.33 231.826 1419.01ZM258.174 1419.01C235.269 1458.68 231.936 1504.28 245.18 1544.63C286.746 1535.93 324.572 1510.24 347.477 1470.57C370.382 1430.89 373.714 1385.29 360.471 1344.94C318.905 1353.65 281.079 1379.33 258.174 1419.01Z" stroke="#0066FF" stroke-width="4"/>
<path d="M614.997 1515.42C646.642 1543.74 666.556 1584.9 666.556 1630.71C666.556 1676.52 646.642 1717.68 614.997 1746C583.353 1717.68 563.438 1676.52 563.438 1630.71C563.438 1584.9 583.353 1543.74 614.997 1515.42ZM614.997 1515.42V1411M614.997 1346V1411M614.997 1411L574.003 1346M614.997 1411L655.992 1346M540.625 1617.54C580.297 1594.63 605.985 1556.81 614.69 1515.24C574.34 1502 528.739 1505.33 489.066 1528.23C449.393 1551.14 423.706 1588.97 415 1630.53C455.35 1643.78 500.952 1640.44 540.625 1617.54ZM689.375 1617.54C649.703 1594.63 624.015 1556.81 615.31 1515.24C655.66 1502 701.261 1505.33 740.934 1528.23C780.607 1551.14 806.294 1588.97 815 1630.53C774.65 1643.78 729.048 1640.44 689.375 1617.54ZM601.826 1640.99C624.731 1601.32 628.064 1555.72 614.82 1515.37C573.254 1524.07 535.428 1549.76 512.523 1589.43C489.618 1629.11 486.285 1674.71 499.529 1715.06C541.095 1706.35 578.921 1680.67 601.826 1640.99ZM628.174 1640.99C605.269 1601.32 601.936 1555.72 615.18 1515.37C656.746 1524.07 694.572 1549.76 717.477 1589.43C740.382 1629.11 743.714 1674.71 730.471 1715.06C688.905 1706.35 651.079 1680.67 628.174 1640.99Z" stroke="#0066FF" stroke-width="4"/>
<path d="M984.997 1544.58C1016.64 1516.26 1036.56 1475.1 1036.56 1429.29C1036.56 1383.48 1016.64 1342.32 984.997 1314C953.353 1342.32 933.438 1383.48 933.438 1429.29C933.438 1475.1 953.353 1516.26 984.997 1544.58ZM984.997 1544.58V1649M984.997 1714V1649M984.997 1649L944.003 1714M984.997 1649L1025.99 1714M910.625 1442.46C950.297 1465.37 975.985 1503.19 984.69 1544.76C944.34 1558 898.739 1554.67 859.066 1531.77C819.393 1508.86 793.706 1471.03 785 1429.47C825.35 1416.22 870.952 1419.56 910.625 1442.46ZM1059.38 1442.46C1019.7 1465.37 994.015 1503.19 985.31 1544.76C1025.66 1558 1071.26 1554.67 1110.93 1531.77C1150.61 1508.86 1176.29 1471.03 1185 1429.47C1144.65 1416.22 1099.05 1419.56 1059.38 1442.46ZM971.826 1419.01C994.731 1458.68 998.064 1504.28 984.82 1544.63C943.254 1535.93 905.428 1510.24 882.523 1470.57C859.618 1430.89 856.285 1385.29 869.529 1344.94C911.095 1353.65 948.921 1379.33 971.826 1419.01ZM998.174 1419.01C975.269 1458.68 971.936 1504.28 985.18 1544.63C1026.75 1535.93 1064.57 1510.24 1087.48 1470.57C1110.38 1430.89 1113.71 1385.29 1100.47 1344.94C1058.9 1353.65 1021.08 1379.33 998.174 1419.01Z" stroke="#0066FF" stroke-width="4"/>
<path d="M1355 1515.42C1386.64 1543.74 1406.56 1584.9 1406.56 1630.71C1406.56 1676.52 1386.64 1717.68 1355 1746C1323.35 1717.68 1303.44 1676.52 1303.44 1630.71C1303.44 1584.9 1323.35 1543.74 1355 1515.42ZM1355 1515.42V1411M1355 1346V1411M1355 1411L1314 1346M1355 1411L1395.99 1346M1280.62 1617.54C1320.3 1594.63 1345.98 1556.81 1354.69 1515.24C1314.34 1502 1268.74 1505.33 1229.07 1528.23C1189.39 1551.14 1163.71 1588.97 1155 1630.53C1195.35 1643.78 1240.95 1640.44 1280.62 1617.54ZM1429.38 1617.54C1389.7 1594.63 1364.02 1556.81 1355.31 1515.24C1395.66 1502 1441.26 1505.33 1480.93 1528.23C1520.61 1551.14 1546.29 1588.97 1555 1630.53C1514.65 1643.78 1469.05 1640.44 1429.38 1617.54ZM1341.83 1640.99C1364.73 1601.32 1368.06 1555.72 1354.82 1515.37C1313.25 1524.07 1275.43 1549.76 1252.52 1589.43C1229.62 1629.11 1226.29 1674.71 1239.53 1715.06C1281.09 1706.35 1318.92 1680.67 1341.83 1640.99ZM1368.17 1640.99C1345.27 1601.32 1341.94 1555.72 1355.18 1515.37C1396.75 1524.07 1434.57 1549.76 1457.48 1589.43C1480.38 1629.11 1483.71 1674.71 1470.47 1715.06C1428.9 1706.35 1391.08 1680.67 1368.17 1640.99Z" stroke="#0066FF" stroke-width="4"/>
<path d="M244.997 1956.58C276.642 1928.26 296.556 1887.1 296.556 1841.29C296.556 1795.48 276.642 1754.32 244.997 1726C213.353 1754.32 193.438 1795.48 193.438 1841.29C193.438 1887.1 213.353 1928.26 244.997 1956.58ZM244.997 1956.58V2061M244.997 2126V2061M244.997 2061L204.003 2126M244.997 2061L285.992 2126M170.625 1854.46C210.297 1877.37 235.985 1915.19 244.69 1956.76C204.34 1970 158.739 1966.67 119.066 1943.77C79.393 1920.86 53.7058 1883.03 45 1841.47C85.3501 1828.22 130.952 1831.56 170.625 1854.46ZM319.375 1854.46C279.703 1877.37 254.015 1915.19 245.31 1956.76C285.66 1970 331.261 1966.67 370.934 1943.77C410.607 1920.86 436.294 1883.03 445 1841.47C404.65 1828.22 359.048 1831.56 319.375 1854.46ZM231.826 1831.01C254.731 1870.68 258.064 1916.28 244.82 1956.63C203.254 1947.93 165.428 1922.24 142.523 1882.57C119.618 1842.89 116.285 1797.29 129.529 1756.94C171.095 1765.65 208.921 1791.33 231.826 1831.01ZM258.174 1831.01C235.269 1870.68 231.936 1916.28 245.18 1956.63C286.746 1947.93 324.572 1922.24 347.477 1882.57C370.382 1842.89 373.714 1797.29 360.471 1756.94C318.905 1765.65 281.079 1791.33 258.174 1831.01Z" stroke="#0066FF" stroke-width="4"/>
<path d="M614.997 1927.42C646.642 1955.74 666.556 1996.9 666.556 2042.71C666.556 2088.52 646.642 2129.68 614.997 2158C583.353 2129.68 563.438 2088.52 563.438 2042.71C563.438 1996.9 583.353 1955.74 614.997 1927.42ZM614.997 1927.42V1823M614.997 1758V1823M614.997 1823L574.003 1758M614.997 1823L655.992 1758M540.625 2029.54C580.297 2006.63 605.985 1968.81 614.69 1927.24C574.34 1914 528.739 1917.33 489.066 1940.23C449.393 1963.14 423.706 2000.97 415 2042.53C455.35 2055.78 500.952 2052.44 540.625 2029.54ZM689.375 2029.54C649.703 2006.63 624.015 1968.81 615.31 1927.24C655.66 1914 701.261 1917.33 740.934 1940.23C780.607 1963.14 806.294 2000.97 815 2042.53C774.65 2055.78 729.048 2052.44 689.375 2029.54ZM601.826 2052.99C624.731 2013.32 628.064 1967.72 614.82 1927.37C573.254 1936.07 535.428 1961.76 512.523 2001.43C489.618 2041.11 486.285 2086.71 499.529 2127.06C541.095 2118.35 578.921 2092.67 601.826 2052.99ZM628.174 2052.99C605.269 2013.32 601.936 1967.72 615.18 1927.37C656.746 1936.07 694.572 1961.76 717.477 2001.43C740.382 2041.11 743.714 2086.71 730.471 2127.06C688.905 2118.35 651.079 2092.67 628.174 2052.99Z" stroke="#0066FF" stroke-width="4"/>
<path d="M984.997 1956.58C1016.64 1928.26 1036.56 1887.1 1036.56 1841.29C1036.56 1795.48 1016.64 1754.32 984.997 1726C953.353 1754.32 933.438 1795.48 933.438 1841.29C933.438 1887.1 953.353 1928.26 984.997 1956.58ZM984.997 1956.58V2061M984.997 2126V2061M984.997 2061L944.003 2126M984.997 2061L1025.99 2126M910.625 1854.46C950.297 1877.37 975.985 1915.19 984.69 1956.76C944.34 1970 898.739 1966.67 859.066 1943.77C819.393 1920.86 793.706 1883.03 785 1841.47C825.35 1828.22 870.952 1831.56 910.625 1854.46ZM1059.38 1854.46C1019.7 1877.37 994.015 1915.19 985.31 1956.76C1025.66 1970 1071.26 1966.67 1110.93 1943.77C1150.61 1920.86 1176.29 1883.03 1185 1841.47C1144.65 1828.22 1099.05 1831.56 1059.38 1854.46ZM971.826 1831.01C994.731 1870.68 998.064 1916.28 984.82 1956.63C943.254 1947.93 905.428 1922.24 882.523 1882.57C859.618 1842.89 856.285 1797.29 869.529 1756.94C911.095 1765.65 948.921 1791.33 971.826 1831.01ZM998.174 1831.01C975.269 1870.68 971.936 1916.28 985.18 1956.63C1026.75 1947.93 1064.57 1922.24 1087.48 1882.57C1110.38 1842.89 1113.71 1797.29 1100.47 1756.94C1058.9 1765.65 1021.08 1791.33 998.174 1831.01Z" stroke="#0066FF" stroke-width="4"/>
<path d="M1355 1927.42C1386.64 1955.74 1406.56 1996.9 1406.56 2042.71C1406.56 2088.52 1386.64 2129.68 1355 2158C1323.35 2129.68 1303.44 2088.52 1303.44 2042.71C1303.44 1996.9 1323.35 1955.74 1355 1927.42ZM1355 1927.42V1823M1355 1758V1823M1355 1823L1314 1758M1355 1823L1395.99 1758M1280.62 2029.54C1320.3 2006.63 1345.98 1968.81 1354.69 1927.24C1314.34 1914 1268.74 1917.33 1229.07 1940.23C1189.39 1963.14 1163.71 2000.97 1155 2042.53C1195.35 2055.78 1240.95 2052.44 1280.62 2029.54ZM1429.38 2029.54C1389.7 2006.63 1364.02 1968.81 1355.31 1927.24C1395.66 1914 1441.26 1917.33 1480.93 1940.23C1520.61 1963.14 1546.29 2000.97 1555 2042.53C1514.65 2055.78 1469.05 2052.44 1429.38 2029.54ZM1341.83 2052.99C1364.73 2013.32 1368.06 1967.72 1354.82 1927.37C1313.25 1936.07 1275.43 1961.76 1252.52 2001.43C1229.62 2041.11 1226.29 2086.71 1239.53 2127.06C1281.09 2118.35 1318.92 2092.67 1341.83 2052.99ZM1368.17 2052.99C1345.27 2013.32 1341.94 1967.72 1355.18 1927.37C1396.75 1936.07 1434.57 1961.76 1457.48 2001.43C1480.38 2041.11 1483.71 2086.71 1470.47 2127.06C1428.9 2118.35 1391.08 2092.67 1368.17 2052.99Z" stroke="#0066FF" stroke-width="4"/>
<path d="M244.997 2368.58C276.642 2340.26 296.556 2299.1 296.556 2253.29C296.556 2207.48 276.642 2166.32 244.997 2138C213.353 2166.32 193.438 2207.48 193.438 2253.29C193.438 2299.1 213.353 2340.26 244.997 2368.58ZM244.997 2368.58V2473M244.997 2538V2473M244.997 2473L204.003 2538M244.997 2473L285.992 2538M170.625 2266.46C210.297 2289.37 235.985 2327.19 244.69 2368.76C204.34 2382 158.739 2378.67 119.066 2355.77C79.393 2332.86 53.7058 2295.03 45 2253.47C85.3501 2240.22 130.952 2243.56 170.625 2266.46ZM319.375 2266.46C279.703 2289.37 254.015 2327.19 245.31 2368.76C285.66 2382 331.261 2378.67 370.934 2355.77C410.607 2332.86 436.294 2295.03 445 2253.47C404.65 2240.22 359.048 2243.56 319.375 2266.46ZM231.826 2243.01C254.731 2282.68 258.064 2328.28 244.82 2368.63C203.254 2359.93 165.428 2334.24 142.523 2294.57C119.618 2254.89 116.285 2209.29 129.529 2168.94C171.095 2177.65 208.921 2203.33 231.826 2243.01ZM258.174 2243.01C235.269 2282.68 231.936 2328.28 245.18 2368.63C286.746 2359.93 324.572 2334.24 347.477 2294.57C370.382 2254.89 373.714 2209.29 360.471 2168.94C318.905 2177.65 281.079 2203.33 258.174 2243.01Z" stroke="#0066FF" stroke-width="4"/>
<path d="M614.997 2339.42C646.642 2367.74 666.556 2408.9 666.556 2454.71C666.556 2500.52 646.642 2541.68 614.997 2570C583.353 2541.68 563.438 2500.52 563.438 2454.71C563.438 2408.9 583.353 2367.74 614.997 2339.42ZM614.997 2339.42V2235M614.997 2170V2235M614.997 2235L574.003 2170M614.997 2235L655.992 2170M540.625 2441.54C580.297 2418.63 605.985 2380.81 614.69 2339.24C574.34 2326 528.739 2329.33 489.066 2352.23C449.393 2375.14 423.706 2412.97 415 2454.53C455.35 2467.78 500.952 2464.44 540.625 2441.54ZM689.375 2441.54C649.703 2418.63 624.015 2380.81 615.31 2339.24C655.66 2326 701.261 2329.33 740.934 2352.23C780.607 2375.14 806.294 2412.97 815 2454.53C774.65 2467.78 729.048 2464.44 689.375 2441.54ZM601.826 2464.99C624.731 2425.32 628.064 2379.72 614.82 2339.37C573.254 2348.07 535.428 2373.76 512.523 2413.43C489.618 2453.11 486.285 2498.71 499.529 2539.06C541.095 2530.35 578.921 2504.67 601.826 2464.99ZM628.174 2464.99C605.269 2425.32 601.936 2379.72 615.18 2339.37C656.746 2348.07 694.572 2373.76 717.477 2413.43C740.382 2453.11 743.714 2498.71 730.471 2539.06C688.905 2530.35 651.079 2504.67 628.174 2464.99Z" stroke="#0066FF" stroke-width="4"/>
<path d="M984.997 2368.58C1016.64 2340.26 1036.56 2299.1 1036.56 2253.29C1036.56 2207.48 1016.64 2166.32 984.997 2138C953.353 2166.32 933.438 2207.48 933.438 2253.29C933.438 2299.1 953.353 2340.26 984.997 2368.58ZM984.997 2368.58V2473M984.997 2538V2473M984.997 2473L944.003 2538M984.997 2473L1025.99 2538M910.625 2266.46C950.297 2289.37 975.985 2327.19 984.69 2368.76C944.34 2382 898.739 2378.67 859.066 2355.77C819.393 2332.86 793.706 2295.03 785 2253.47C825.35 2240.22 870.952 2243.56 910.625 2266.46ZM1059.38 2266.46C1019.7 2289.37 994.015 2327.19 985.31 2368.76C1025.66 2382 1071.26 2378.67 1110.93 2355.77C1150.61 2332.86 1176.29 2295.03 1185 2253.47C1144.65 2240.22 1099.05 2243.56 1059.38 2266.46ZM971.826 2243.01C994.731 2282.68 998.064 2328.28 984.82 2368.63C943.254 2359.93 905.428 2334.24 882.523 2294.57C859.618 2254.89 856.285 2209.29 869.529 2168.94C911.095 2177.65 948.921 2203.33 971.826 2243.01ZM998.174 2243.01C975.269 2282.68 971.936 2328.28 985.18 2368.63C1026.75 2359.93 1064.57 2334.24 1087.48 2294.57C1110.38 2254.89 1113.71 2209.29 1100.47 2168.94C1058.9 2177.65 1021.08 2203.33 998.174 2243.01Z" stroke="#0066FF" stroke-width="4"/>
<path d="M1355 2339.42C1386.64 2367.74 1406.56 2408.9 1406.56 2454.71C1406.56 2500.52 1386.64 2541.68 1355 2570C1323.35 2541.68 1303.44 2500.52 1303.44 2454.71C1303.44 2408.9 1323.35 2367.74 1355 2339.42ZM1355 2339.42V2235M1355 2170V2235M1355 2235L1314 2170M1355 2235L1395.99 2170M1280.62 2441.54C1320.3 2418.63 1345.98 2380.81 1354.69 2339.24C1314.34 2326 1268.74 2329.33 1229.07 2352.23C1189.39 2375.14 1163.71 2412.97 1155 2454.53C1195.35 2467.78 1240.95 2464.44 1280.62 2441.54ZM1429.38 2441.54C1389.7 2418.63 1364.02 2380.81 1355.31 2339.24C1395.66 2326 1441.26 2329.33 1480.93 2352.23C1520.61 2375.14 1546.29 2412.97 1555 2454.53C1514.65 2467.78 1469.05 2464.44 1429.38 2441.54ZM1341.83 2464.99C1364.73 2425.32 1368.06 2379.72 1354.82 2339.37C1313.25 2348.07 1275.43 2373.76 1252.52 2413.43C1229.62 2453.11 1226.29 2498.71 1239.53 2539.06C1281.09 2530.35 1318.92 2504.67 1341.83 2464.99ZM1368.17 2464.99C1345.27 2425.32 1341.94 2379.72 1355.18 2339.37C1396.75 2348.07 1434.57 2373.76 1457.48 2413.43C1480.38 2453.11 1483.71 2498.71 1470.47 2539.06C1428.9 2530.35 1391.08 2504.67 1368.17 2464.99Z" stroke="#0066FF" stroke-width="4"/>
</g>
<path d="M433.12 466V359.6H455.768L497.264 428.076V359.6H518.24V466H495.592L454.096 397.524V466H433.12ZM568.388 467.976C561.396 467.976 555.012 466.177 549.236 462.58C543.511 458.983 538.925 454.169 535.48 448.14C532.085 442.06 530.388 435.347 530.388 428C530.388 422.427 531.376 417.233 533.352 412.42C535.328 407.556 538.039 403.3 541.484 399.652C544.98 395.953 549.033 393.065 553.644 390.988C558.255 388.911 563.169 387.872 568.388 387.872C575.38 387.872 581.739 389.671 587.464 393.268C593.24 396.865 597.825 401.704 601.22 407.784C604.665 413.864 606.388 420.603 606.388 428C606.388 433.523 605.4 438.691 603.424 443.504C601.448 448.317 598.712 452.573 595.216 456.272C591.771 459.92 587.743 462.783 583.132 464.86C578.572 466.937 573.657 467.976 568.388 467.976ZM568.388 447C571.631 447 574.544 446.139 577.128 444.416C579.712 442.643 581.739 440.312 583.208 437.424C584.677 434.536 585.412 431.395 585.412 428C585.412 424.504 584.627 421.312 583.056 418.424C581.536 415.485 579.484 413.155 576.9 411.432C574.316 409.709 571.479 408.848 568.388 408.848C565.196 408.848 562.308 409.735 559.724 411.508C557.14 413.281 555.088 415.612 553.568 418.5C552.099 421.388 551.364 424.555 551.364 428C551.364 431.597 552.124 434.84 553.644 437.728C555.215 440.565 557.292 442.82 559.876 444.492C562.46 446.164 565.297 447 568.388 447ZM688.529 417.664V466H667.553V423.44C667.553 420.755 666.894 418.348 665.577 416.22C664.31 414.041 662.587 412.319 660.409 411.052C658.281 409.785 655.899 409.152 653.265 409.152C650.63 409.152 648.223 409.785 646.045 411.052C643.866 412.319 642.143 414.041 640.877 416.22C639.61 418.348 638.977 420.755 638.977 423.44V466H618.001L617.925 390H638.901L638.977 395.624C641.51 393.192 644.474 391.292 647.869 389.924C651.314 388.556 654.937 387.872 658.737 387.872C664.259 387.872 669.25 389.215 673.709 391.9C678.218 394.585 681.815 398.183 684.501 402.692C687.186 407.151 688.529 412.141 688.529 417.664ZM740.237 466V359.6H803.317V380.576H761.213V398.512H796.021V419.488H761.213V466H740.237ZM810.151 390H831.127V466H810.151V390ZM820.791 381.26C817.751 381.26 815.193 380.247 813.115 378.22C811.038 376.193 809.999 373.685 809.999 370.696C809.999 367.707 811.038 365.199 813.115 363.172C815.193 361.145 817.726 360.132 820.715 360.132C823.705 360.132 826.213 361.145 828.239 363.172C830.317 365.199 831.355 367.707 831.355 370.696C831.355 373.685 830.342 376.193 828.315 378.22C826.339 380.247 823.831 381.26 820.791 381.26ZM892.253 441.984L911.101 452.168C907.605 456.931 903.222 460.756 897.953 463.644C892.683 466.532 886.933 467.976 880.701 467.976C873.709 467.976 867.325 466.177 861.549 462.58C855.823 458.983 851.238 454.169 847.793 448.14C844.398 442.06 842.701 435.347 842.701 428C842.701 422.427 843.689 417.233 845.665 412.42C847.641 407.556 850.351 403.3 853.797 399.652C857.293 395.953 861.346 393.065 865.957 390.988C870.567 388.911 875.482 387.872 880.701 387.872C886.933 387.872 892.683 389.316 897.953 392.204C903.222 395.092 907.605 398.968 911.101 403.832L892.253 414.016C890.682 412.344 888.883 411.077 886.857 410.216C884.881 409.304 882.829 408.848 880.701 408.848C877.458 408.848 874.545 409.735 871.961 411.508C869.427 413.281 867.401 415.637 865.881 418.576C864.411 421.464 863.677 424.605 863.677 428C863.677 431.344 864.437 434.46 865.957 437.348C867.477 440.236 869.503 442.567 872.037 444.34C874.621 446.113 877.509 447 880.701 447C882.879 447 884.957 446.544 886.933 445.632C888.909 444.72 890.682 443.504 892.253 441.984ZM966.089 410.976H952.409V466H931.433V410.976H920.945V390H931.433V366.136H952.409V390H966.089V410.976ZM978.331 390H999.307V466H978.331V390ZM988.971 381.26C985.931 381.26 983.372 380.247 981.295 378.22C979.218 376.193 978.179 373.685 978.179 370.696C978.179 367.707 979.218 365.199 981.295 363.172C983.372 361.145 985.906 360.132 988.895 360.132C991.884 360.132 994.392 361.145 996.419 363.172C998.496 365.199 999.535 367.707 999.535 370.696C999.535 373.685 998.522 376.193 996.495 378.22C994.519 380.247 992.011 381.26 988.971 381.26ZM1048.88 467.976C1041.89 467.976 1035.5 466.177 1029.73 462.58C1024 458.983 1019.42 454.169 1015.97 448.14C1012.58 442.06 1010.88 435.347 1010.88 428C1010.88 422.427 1011.87 417.233 1013.84 412.42C1015.82 407.556 1018.53 403.3 1021.98 399.652C1025.47 395.953 1029.53 393.065 1034.14 390.988C1038.75 388.911 1043.66 387.872 1048.88 387.872C1055.87 387.872 1062.23 389.671 1067.96 393.268C1073.73 396.865 1078.32 401.704 1081.71 407.784C1085.16 413.864 1086.88 420.603 1086.88 428C1086.88 433.523 1085.89 438.691 1083.92 443.504C1081.94 448.317 1079.2 452.573 1075.71 456.272C1072.26 459.92 1068.23 462.783 1063.62 464.86C1059.06 466.937 1054.15 467.976 1048.88 467.976ZM1048.88 447C1052.12 447 1055.04 446.139 1057.62 444.416C1060.2 442.643 1062.23 440.312 1063.7 437.424C1065.17 434.536 1065.9 431.395 1065.9 428C1065.9 424.504 1065.12 421.312 1063.55 418.424C1062.03 415.485 1059.98 413.155 1057.39 411.432C1054.81 409.709 1051.97 408.848 1048.88 408.848C1045.69 408.848 1042.8 409.735 1040.22 411.508C1037.63 413.281 1035.58 415.612 1034.06 418.5C1032.59 421.388 1031.86 424.555 1031.86 428C1031.86 431.597 1032.62 434.84 1034.14 437.728C1035.71 440.565 1037.78 442.82 1040.37 444.492C1042.95 446.164 1045.79 447 1048.88 447ZM1169.02 417.664V466H1148.04V423.44C1148.04 420.755 1147.39 418.348 1146.07 416.22C1144.8 414.041 1143.08 412.319 1140.9 411.052C1138.77 409.785 1136.39 409.152 1133.76 409.152C1131.12 409.152 1128.72 409.785 1126.54 411.052C1124.36 412.319 1122.64 414.041 1121.37 416.22C1120.1 418.348 1119.47 420.755 1119.47 423.44V466H1098.49L1098.42 390H1119.39L1119.47 395.624C1122 393.192 1124.97 391.292 1128.36 389.924C1131.81 388.556 1135.43 387.872 1139.23 387.872C1144.75 387.872 1149.74 389.215 1154.2 391.9C1158.71 394.585 1162.31 398.183 1164.99 402.692C1167.68 407.151 1169.02 412.141 1169.02 417.664Z" fill="#272727"/>
<defs>
<clipPath id="clip0_218_43">
<rect width="1400" height="1860" fill="white" transform="translate(100 600)"/>
</clipPath>
</defs>
</svg>
