<svg width="1600" height="2560" viewBox="0 0 1600 2560" fill="none" xmlns="http://www.w3.org/2000/svg">
<g clip-path="url(#clip0_218_61)">
<rect width="1600" height="2560" fill="white"/>
<rect width="1600" height="2560" fill="#EB00FF" fill-opacity="0.1"/>
<g clip-path="url(#clip1_218_61)">
<rect x="-800" y="-1600" width="3200" height="3200" rx="1600" fill="white"/>
<rect x="-800" y="-1600" width="3200" height="3200" rx="1600" fill="#EB00FF" fill-opacity="0.2"/>
<path d="M244.997 264.583C276.642 236.26 296.556 195.102 296.556 149.291C296.556 103.481 276.642 62.3224 244.997 34C213.353 62.3224 193.438 103.481 193.438 149.291C193.438 195.102 213.353 236.26 244.997 264.583ZM244.997 264.583V369M244.997 434V369M244.997 369L204.003 434M244.997 369L285.992 434M170.625 162.463C210.297 185.368 235.985 223.194 244.69 264.76C204.34 278.003 158.739 274.671 119.066 251.766C79.393 228.86 53.7058 191.034 45 149.468C85.3501 136.225 130.952 139.558 170.625 162.463ZM319.375 162.463C279.703 185.368 254.015 223.194 245.31 264.76C285.66 278.003 331.261 274.671 370.934 251.766C410.607 228.86 436.294 191.034 445 149.468C404.65 136.225 359.048 139.558 319.375 162.463ZM231.826 139.006C254.731 178.679 258.064 224.281 244.82 264.631C203.254 255.925 165.428 230.238 142.523 190.565C119.618 150.892 116.285 105.291 129.529 64.9404C171.095 73.6462 208.921 99.3334 231.826 139.006ZM258.174 139.006C235.269 178.679 231.936 224.281 245.18 264.631C286.746 255.925 324.572 230.238 347.477 190.565C370.382 150.892 373.714 105.291 360.471 64.9404C318.905 73.6462 281.079 99.3334 258.174 139.006Z" stroke="#EB00FF" stroke-width="4"/>
<path d="M614.997 235.417C646.642 263.74 666.556 304.898 666.556 350.709C666.556 396.519 646.642 437.678 614.997 466C583.353 437.678 563.438 396.519 563.438 350.709C563.438 304.898 583.353 263.74 614.997 235.417ZM614.997 235.417V131M614.997 66V131M614.997 131L574.003 66M614.997 131L655.992 66M540.625 337.537C580.297 314.632 605.985 276.806 614.69 235.24C574.34 221.997 528.739 225.329 489.066 248.234C449.393 271.14 423.706 308.966 415 350.532C455.35 363.775 500.952 360.442 540.625 337.537ZM689.375 337.537C649.703 314.632 624.015 276.806 615.31 235.24C655.66 221.997 701.261 225.329 740.934 248.234C780.607 271.14 806.294 308.966 815 350.532C774.65 363.775 729.048 360.442 689.375 337.537ZM601.826 360.994C624.731 321.321 628.064 275.719 614.82 235.369C573.254 244.075 535.428 269.762 512.523 309.435C489.618 349.108 486.285 394.709 499.529 435.06C541.095 426.354 578.921 400.667 601.826 360.994ZM628.174 360.994C605.269 321.321 601.936 275.719 615.18 235.369C656.746 244.075 694.572 269.762 717.477 309.435C740.382 349.108 743.714 394.709 730.471 435.06C688.905 426.354 651.079 400.667 628.174 360.994Z" stroke="#EB00FF" stroke-width="4"/>
<path d="M984.997 264.583C1016.64 236.26 1036.56 195.102 1036.56 149.291C1036.56 103.481 1016.64 62.3224 984.997 34C953.353 62.3224 933.438 103.481 933.438 149.291C933.438 195.102 953.353 236.26 984.997 264.583ZM984.997 264.583V369M984.997 434V369M984.997 369L944.003 434M984.997 369L1025.99 434M910.625 162.463C950.297 185.368 975.985 223.194 984.69 264.76C944.34 278.003 898.739 274.671 859.066 251.766C819.393 228.86 793.706 191.034 785 149.468C825.35 136.225 870.952 139.558 910.625 162.463ZM1059.38 162.463C1019.7 185.368 994.015 223.194 985.31 264.76C1025.66 278.003 1071.26 274.671 1110.93 251.766C1150.61 228.86 1176.29 191.034 1185 149.468C1144.65 136.225 1099.05 139.558 1059.38 162.463ZM971.826 139.006C994.731 178.679 998.064 224.281 984.82 264.631C943.254 255.925 905.428 230.238 882.523 190.565C859.618 150.892 856.285 105.291 869.529 64.9404C911.095 73.6462 948.921 99.3334 971.826 139.006ZM998.174 139.006C975.269 178.679 971.936 224.281 985.18 264.631C1026.75 255.925 1064.57 230.238 1087.48 190.565C1110.38 150.892 1113.71 105.291 1100.47 64.9404C1058.9 73.6462 1021.08 99.3334 998.174 139.006Z" stroke="#EB00FF" stroke-width="4"/>
<path d="M1355 235.417C1386.64 263.74 1406.56 304.898 1406.56 350.709C1406.56 396.519 1386.64 437.678 1355 466C1323.35 437.678 1303.44 396.519 1303.44 350.709C1303.44 304.898 1323.35 263.74 1355 235.417ZM1355 235.417V131M1355 66V131M1355 131L1314 66M1355 131L1395.99 66M1280.62 337.537C1320.3 314.632 1345.98 276.806 1354.69 235.24C1314.34 221.997 1268.74 225.329 1229.07 248.234C1189.39 271.14 1163.71 308.966 1155 350.532C1195.35 363.775 1240.95 360.442 1280.62 337.537ZM1429.38 337.537C1389.7 314.632 1364.02 276.806 1355.31 235.24C1395.66 221.997 1441.26 225.329 1480.93 248.234C1520.61 271.14 1546.29 308.966 1555 350.532C1514.65 363.775 1469.05 360.442 1429.38 337.537ZM1341.83 360.994C1364.73 321.321 1368.06 275.719 1354.82 235.369C1313.25 244.075 1275.43 269.762 1252.52 309.435C1229.62 349.108 1226.29 394.709 1239.53 435.06C1281.09 426.354 1318.92 400.667 1341.83 360.994ZM1368.17 360.994C1345.27 321.321 1341.94 275.719 1355.18 235.369C1396.75 244.075 1434.57 269.762 1457.48 309.435C1480.38 349.108 1483.71 394.709 1470.47 435.06C1428.9 426.354 1391.08 400.667 1368.17 360.994Z" stroke="#EB00FF" stroke-width="4"/>
<path d="M244.997 676.583C276.642 648.26 296.556 607.102 296.556 561.291C296.556 515.481 276.642 474.322 244.997 446C213.353 474.322 193.438 515.481 193.438 561.291C193.438 607.102 213.353 648.26 244.997 676.583ZM244.997 676.583V781M244.997 846V781M244.997 781L204.003 846M244.997 781L285.992 846M170.625 574.463C210.297 597.368 235.985 635.194 244.69 676.76C204.34 690.003 158.739 686.671 119.066 663.766C79.393 640.86 53.7058 603.034 45 561.468C85.3501 548.225 130.952 551.558 170.625 574.463ZM319.375 574.463C279.703 597.368 254.015 635.194 245.31 676.76C285.66 690.003 331.261 686.671 370.934 663.766C410.607 640.86 436.294 603.034 445 561.468C404.65 548.225 359.048 551.558 319.375 574.463ZM231.826 551.006C254.731 590.679 258.064 636.281 244.82 676.631C203.254 667.925 165.428 642.238 142.523 602.565C119.618 562.892 116.285 517.291 129.529 476.94C171.095 485.646 208.921 511.333 231.826 551.006ZM258.174 551.006C235.269 590.679 231.936 636.281 245.18 676.631C286.746 667.925 324.572 642.238 347.477 602.565C370.382 562.892 373.714 517.291 360.471 476.94C318.905 485.646 281.079 511.333 258.174 551.006Z" stroke="#EB00FF" stroke-width="4"/>
<path d="M614.997 647.417C646.642 675.74 666.556 716.898 666.556 762.709C666.556 808.519 646.642 849.678 614.997 878C583.353 849.678 563.438 808.519 563.438 762.709C563.438 716.898 583.353 675.74 614.997 647.417ZM614.997 647.417V543M614.997 478V543M614.997 543L574.003 478M614.997 543L655.992 478M540.625 749.537C580.297 726.632 605.985 688.806 614.69 647.24C574.34 633.997 528.739 637.329 489.066 660.234C449.393 683.14 423.706 720.966 415 762.532C455.35 775.775 500.952 772.442 540.625 749.537ZM689.375 749.537C649.703 726.632 624.015 688.806 615.31 647.24C655.66 633.997 701.261 637.329 740.934 660.234C780.607 683.14 806.294 720.966 815 762.532C774.65 775.775 729.048 772.442 689.375 749.537ZM601.826 772.994C624.731 733.321 628.064 687.719 614.82 647.369C573.254 656.075 535.428 681.762 512.523 721.435C489.618 761.108 486.285 806.709 499.529 847.06C541.095 838.354 578.921 812.667 601.826 772.994ZM628.174 772.994C605.269 733.321 601.936 687.719 615.18 647.369C656.746 656.075 694.572 681.762 717.477 721.435C740.382 761.108 743.714 806.709 730.471 847.06C688.905 838.354 651.079 812.667 628.174 772.994Z" stroke="#EB00FF" stroke-width="4"/>
<path d="M984.997 676.583C1016.64 648.26 1036.56 607.102 1036.56 561.291C1036.56 515.481 1016.64 474.322 984.997 446C953.353 474.322 933.438 515.481 933.438 561.291C933.438 607.102 953.353 648.26 984.997 676.583ZM984.997 676.583V781M984.997 846V781M984.997 781L944.003 846M984.997 781L1025.99 846M910.625 574.463C950.297 597.368 975.985 635.194 984.69 676.76C944.34 690.003 898.739 686.671 859.066 663.766C819.393 640.86 793.706 603.034 785 561.468C825.35 548.225 870.952 551.558 910.625 574.463ZM1059.38 574.463C1019.7 597.368 994.015 635.194 985.31 676.76C1025.66 690.003 1071.26 686.671 1110.93 663.766C1150.61 640.86 1176.29 603.034 1185 561.468C1144.65 548.225 1099.05 551.558 1059.38 574.463ZM971.826 551.006C994.731 590.679 998.064 636.281 984.82 676.631C943.254 667.925 905.428 642.238 882.523 602.565C859.618 562.892 856.285 517.291 869.529 476.94C911.095 485.646 948.921 511.333 971.826 551.006ZM998.174 551.006C975.269 590.679 971.936 636.281 985.18 676.631C1026.75 667.925 1064.57 642.238 1087.48 602.565C1110.38 562.892 1113.71 517.291 1100.47 476.94C1058.9 485.646 1021.08 511.333 998.174 551.006Z" stroke="#EB00FF" stroke-width="4"/>
<path d="M1355 647.417C1386.64 675.74 1406.56 716.898 1406.56 762.709C1406.56 808.519 1386.64 849.678 1355 878C1323.35 849.678 1303.44 808.519 1303.44 762.709C1303.44 716.898 1323.35 675.74 1355 647.417ZM1355 647.417V543M1355 478V543M1355 543L1314 478M1355 543L1395.99 478M1280.62 749.537C1320.3 726.632 1345.98 688.806 1354.69 647.24C1314.34 633.997 1268.74 637.329 1229.07 660.234C1189.39 683.14 1163.71 720.966 1155 762.532C1195.35 775.775 1240.95 772.442 1280.62 749.537ZM1429.38 749.537C1389.7 726.632 1364.02 688.806 1355.31 647.24C1395.66 633.997 1441.26 637.329 1480.93 660.234C1520.61 683.14 1546.29 720.966 1555 762.532C1514.65 775.775 1469.05 772.442 1429.38 749.537ZM1341.83 772.994C1364.73 733.321 1368.06 687.719 1354.82 647.369C1313.25 656.075 1275.43 681.762 1252.52 721.435C1229.62 761.108 1226.29 806.709 1239.53 847.06C1281.09 838.354 1318.92 812.667 1341.83 772.994ZM1368.17 772.994C1345.27 733.321 1341.94 687.719 1355.18 647.369C1396.75 656.075 1434.57 681.762 1457.48 721.435C1480.38 761.108 1483.71 806.709 1470.47 847.06C1428.9 838.354 1391.08 812.667 1368.17 772.994Z" stroke="#EB00FF" stroke-width="4"/>
<path d="M244.997 1088.58C276.642 1060.26 296.556 1019.1 296.556 973.291C296.556 927.481 276.642 886.322 244.997 858C213.353 886.322 193.438 927.481 193.438 973.291C193.438 1019.1 213.353 1060.26 244.997 1088.58ZM244.997 1088.58V1193M244.997 1258V1193M244.997 1193L204.003 1258M244.997 1193L285.992 1258M170.625 986.463C210.297 1009.37 235.985 1047.19 244.69 1088.76C204.34 1102 158.739 1098.67 119.066 1075.77C79.393 1052.86 53.7058 1015.03 45 973.468C85.3501 960.225 130.952 963.558 170.625 986.463ZM319.375 986.463C279.703 1009.37 254.015 1047.19 245.31 1088.76C285.66 1102 331.261 1098.67 370.934 1075.77C410.607 1052.86 436.294 1015.03 445 973.468C404.65 960.225 359.048 963.558 319.375 986.463ZM231.826 963.006C254.731 1002.68 258.064 1048.28 244.82 1088.63C203.254 1079.93 165.428 1054.24 142.523 1014.57C119.618 974.892 116.285 929.291 129.529 888.94C171.095 897.646 208.921 923.333 231.826 963.006ZM258.174 963.006C235.269 1002.68 231.936 1048.28 245.18 1088.63C286.746 1079.93 324.572 1054.24 347.477 1014.57C370.382 974.892 373.714 929.291 360.471 888.94C318.905 897.646 281.079 923.333 258.174 963.006Z" stroke="#EB00FF" stroke-width="4"/>
<path d="M614.997 1059.42C646.642 1087.74 666.556 1128.9 666.556 1174.71C666.556 1220.52 646.642 1261.68 614.997 1290C583.353 1261.68 563.438 1220.52 563.438 1174.71C563.438 1128.9 583.353 1087.74 614.997 1059.42ZM614.997 1059.42V955M614.997 890V955M614.997 955L574.003 890M614.997 955L655.992 890M540.625 1161.54C580.297 1138.63 605.985 1100.81 614.69 1059.24C574.34 1046 528.739 1049.33 489.066 1072.23C449.393 1095.14 423.706 1132.97 415 1174.53C455.35 1187.78 500.952 1184.44 540.625 1161.54ZM689.375 1161.54C649.703 1138.63 624.015 1100.81 615.31 1059.24C655.66 1046 701.261 1049.33 740.934 1072.23C780.607 1095.14 806.294 1132.97 815 1174.53C774.65 1187.78 729.048 1184.44 689.375 1161.54ZM601.826 1184.99C624.731 1145.32 628.064 1099.72 614.82 1059.37C573.254 1068.07 535.428 1093.76 512.523 1133.43C489.618 1173.11 486.285 1218.71 499.529 1259.06C541.095 1250.35 578.921 1224.67 601.826 1184.99ZM628.174 1184.99C605.269 1145.32 601.936 1099.72 615.18 1059.37C656.746 1068.07 694.572 1093.76 717.477 1133.43C740.382 1173.11 743.714 1218.71 730.471 1259.06C688.905 1250.35 651.079 1224.67 628.174 1184.99Z" stroke="#EB00FF" stroke-width="4"/>
<path d="M984.997 1088.58C1016.64 1060.26 1036.56 1019.1 1036.56 973.291C1036.56 927.481 1016.64 886.322 984.997 858C953.353 886.322 933.438 927.481 933.438 973.291C933.438 1019.1 953.353 1060.26 984.997 1088.58ZM984.997 1088.58V1193M984.997 1258V1193M984.997 1193L944.003 1258M984.997 1193L1025.99 1258M910.625 986.463C950.297 1009.37 975.985 1047.19 984.69 1088.76C944.34 1102 898.739 1098.67 859.066 1075.77C819.393 1052.86 793.706 1015.03 785 973.468C825.35 960.225 870.952 963.558 910.625 986.463ZM1059.38 986.463C1019.7 1009.37 994.015 1047.19 985.31 1088.76C1025.66 1102 1071.26 1098.67 1110.93 1075.77C1150.61 1052.86 1176.29 1015.03 1185 973.468C1144.65 960.225 1099.05 963.558 1059.38 986.463ZM971.826 963.006C994.731 1002.68 998.064 1048.28 984.82 1088.63C943.254 1079.93 905.428 1054.24 882.523 1014.57C859.618 974.892 856.285 929.291 869.529 888.94C911.095 897.646 948.921 923.333 971.826 963.006ZM998.174 963.006C975.269 1002.68 971.936 1048.28 985.18 1088.63C1026.75 1079.93 1064.57 1054.24 1087.48 1014.57C1110.38 974.892 1113.71 929.291 1100.47 888.94C1058.9 897.646 1021.08 923.333 998.174 963.006Z" stroke="#EB00FF" stroke-width="4"/>
<path d="M1355 1059.42C1386.64 1087.74 1406.56 1128.9 1406.56 1174.71C1406.56 1220.52 1386.64 1261.68 1355 1290C1323.35 1261.68 1303.44 1220.52 1303.44 1174.71C1303.44 1128.9 1323.35 1087.74 1355 1059.42ZM1355 1059.42V955M1355 890V955M1355 955L1314 890M1355 955L1395.99 890M1280.62 1161.54C1320.3 1138.63 1345.98 1100.81 1354.69 1059.24C1314.34 1046 1268.74 1049.33 1229.07 1072.23C1189.39 1095.14 1163.71 1132.97 1155 1174.53C1195.35 1187.78 1240.95 1184.44 1280.62 1161.54ZM1429.38 1161.54C1389.7 1138.63 1364.02 1100.81 1355.31 1059.24C1395.66 1046 1441.26 1049.33 1480.93 1072.23C1520.61 1095.14 1546.29 1132.97 1555 1174.53C1514.65 1187.78 1469.05 1184.44 1429.38 1161.54ZM1341.83 1184.99C1364.73 1145.32 1368.06 1099.72 1354.82 1059.37C1313.25 1068.07 1275.43 1093.76 1252.52 1133.43C1229.62 1173.11 1226.29 1218.71 1239.53 1259.06C1281.09 1250.35 1318.92 1224.67 1341.83 1184.99ZM1368.17 1184.99C1345.27 1145.32 1341.94 1099.72 1355.18 1059.37C1396.75 1068.07 1434.57 1093.76 1457.48 1133.43C1480.38 1173.11 1483.71 1218.71 1470.47 1259.06C1428.9 1250.35 1391.08 1224.67 1368.17 1184.99Z" stroke="#EB00FF" stroke-width="4"/>
<path d="M244.997 1500.58C276.642 1472.26 296.556 1431.1 296.556 1385.29C296.556 1339.48 276.642 1298.32 244.997 1270C213.353 1298.32 193.438 1339.48 193.438 1385.29C193.438 1431.1 213.353 1472.26 244.997 1500.58ZM244.997 1500.58V1605M244.997 1670V1605M244.997 1605L204.003 1670M244.997 1605L285.992 1670M170.625 1398.46C210.297 1421.37 235.985 1459.19 244.69 1500.76C204.34 1514 158.739 1510.67 119.066 1487.77C79.393 1464.86 53.7058 1427.03 45 1385.47C85.3501 1372.22 130.952 1375.56 170.625 1398.46ZM319.375 1398.46C279.703 1421.37 254.015 1459.19 245.31 1500.76C285.66 1514 331.261 1510.67 370.934 1487.77C410.607 1464.86 436.294 1427.03 445 1385.47C404.65 1372.22 359.048 1375.56 319.375 1398.46ZM231.826 1375.01C254.731 1414.68 258.064 1460.28 244.82 1500.63C203.254 1491.93 165.428 1466.24 142.523 1426.57C119.618 1386.89 116.285 1341.29 129.529 1300.94C171.095 1309.65 208.921 1335.33 231.826 1375.01ZM258.174 1375.01C235.269 1414.68 231.936 1460.28 245.18 1500.63C286.746 1491.93 324.572 1466.24 347.477 1426.57C370.382 1386.89 373.714 1341.29 360.471 1300.94C318.905 1309.65 281.079 1335.33 258.174 1375.01Z" stroke="#EB00FF" stroke-width="4"/>
<path d="M614.997 1471.42C646.642 1499.74 666.556 1540.9 666.556 1586.71C666.556 1632.52 646.642 1673.68 614.997 1702C583.353 1673.68 563.438 1632.52 563.438 1586.71C563.438 1540.9 583.353 1499.74 614.997 1471.42ZM614.997 1471.42V1367M614.997 1302V1367M614.997 1367L574.003 1302M614.997 1367L655.992 1302M540.625 1573.54C580.297 1550.63 605.985 1512.81 614.69 1471.24C574.34 1458 528.739 1461.33 489.066 1484.23C449.393 1507.14 423.706 1544.97 415 1586.53C455.35 1599.78 500.952 1596.44 540.625 1573.54ZM689.375 1573.54C649.703 1550.63 624.015 1512.81 615.31 1471.24C655.66 1458 701.261 1461.33 740.934 1484.23C780.607 1507.14 806.294 1544.97 815 1586.53C774.65 1599.78 729.048 1596.44 689.375 1573.54ZM601.826 1596.99C624.731 1557.32 628.064 1511.72 614.82 1471.37C573.254 1480.07 535.428 1505.76 512.523 1545.43C489.618 1585.11 486.285 1630.71 499.529 1671.06C541.095 1662.35 578.921 1636.67 601.826 1596.99ZM628.174 1596.99C605.269 1557.32 601.936 1511.72 615.18 1471.37C656.746 1480.07 694.572 1505.76 717.477 1545.43C740.382 1585.11 743.714 1630.71 730.471 1671.06C688.905 1662.35 651.079 1636.67 628.174 1596.99Z" stroke="#EB00FF" stroke-width="4"/>
<path d="M984.997 1500.58C1016.64 1472.26 1036.56 1431.1 1036.56 1385.29C1036.56 1339.48 1016.64 1298.32 984.997 1270C953.353 1298.32 933.438 1339.48 933.438 1385.29C933.438 1431.1 953.353 1472.26 984.997 1500.58ZM984.997 1500.58V1605M984.997 1670V1605M984.997 1605L944.003 1670M984.997 1605L1025.99 1670M910.625 1398.46C950.297 1421.37 975.985 1459.19 984.69 1500.76C944.34 1514 898.739 1510.67 859.066 1487.77C819.393 1464.86 793.706 1427.03 785 1385.47C825.35 1372.22 870.952 1375.56 910.625 1398.46ZM1059.38 1398.46C1019.7 1421.37 994.015 1459.19 985.31 1500.76C1025.66 1514 1071.26 1510.67 1110.93 1487.77C1150.61 1464.86 1176.29 1427.03 1185 1385.47C1144.65 1372.22 1099.05 1375.56 1059.38 1398.46ZM971.826 1375.01C994.731 1414.68 998.064 1460.28 984.82 1500.63C943.254 1491.93 905.428 1466.24 882.523 1426.57C859.618 1386.89 856.285 1341.29 869.529 1300.94C911.095 1309.65 948.921 1335.33 971.826 1375.01ZM998.174 1375.01C975.269 1414.68 971.936 1460.28 985.18 1500.63C1026.75 1491.93 1064.57 1466.24 1087.48 1426.57C1110.38 1386.89 1113.71 1341.29 1100.47 1300.94C1058.9 1309.65 1021.08 1335.33 998.174 1375.01Z" stroke="#EB00FF" stroke-width="4"/>
<path d="M1355 1471.42C1386.64 1499.74 1406.56 1540.9 1406.56 1586.71C1406.56 1632.52 1386.64 1673.68 1355 1702C1323.35 1673.68 1303.44 1632.52 1303.44 1586.71C1303.44 1540.9 1323.35 1499.74 1355 1471.42ZM1355 1471.42V1367M1355 1302V1367M1355 1367L1314 1302M1355 1367L1395.99 1302M1280.62 1573.54C1320.3 1550.63 1345.98 1512.81 1354.69 1471.24C1314.34 1458 1268.74 1461.33 1229.07 1484.23C1189.39 1507.14 1163.71 1544.97 1155 1586.53C1195.35 1599.78 1240.95 1596.44 1280.62 1573.54ZM1429.38 1573.54C1389.7 1550.63 1364.02 1512.81 1355.31 1471.24C1395.66 1458 1441.26 1461.33 1480.93 1484.23C1520.61 1507.14 1546.29 1544.97 1555 1586.53C1514.65 1599.78 1469.05 1596.44 1429.38 1573.54ZM1341.83 1596.99C1364.73 1557.32 1368.06 1511.72 1354.82 1471.37C1313.25 1480.07 1275.43 1505.76 1252.52 1545.43C1229.62 1585.11 1226.29 1630.71 1239.53 1671.06C1281.09 1662.35 1318.92 1636.67 1341.83 1596.99ZM1368.17 1596.99C1345.27 1557.32 1341.94 1511.72 1355.18 1471.37C1396.75 1480.07 1434.57 1505.76 1457.48 1545.43C1480.38 1585.11 1483.71 1630.71 1470.47 1671.06C1428.9 1662.35 1391.08 1636.67 1368.17 1596.99Z" stroke="#EB00FF" stroke-width="4"/>
</g>
<path d="M658.52 1945.98C651.325 1945.98 644.561 1944.56 638.228 1941.72C631.895 1938.83 626.321 1934.85 621.508 1929.79C616.695 1924.72 612.92 1918.87 610.184 1912.23C607.448 1905.54 606.08 1898.4 606.08 1890.8C606.08 1883.2 607.448 1876.08 610.184 1869.44C612.92 1862.76 616.695 1856.88 621.508 1851.81C626.321 1846.75 631.895 1842.79 638.228 1839.96C644.561 1837.07 651.325 1835.62 658.52 1835.62C665.765 1835.62 672.555 1837.07 678.888 1839.96C685.221 1842.79 690.795 1846.75 695.608 1851.81C700.421 1856.88 704.171 1862.76 706.856 1869.44C709.592 1876.08 710.96 1883.2 710.96 1890.8C710.96 1898.4 709.592 1905.54 706.856 1912.23C704.171 1918.87 700.421 1924.72 695.608 1929.79C690.795 1934.85 685.221 1938.83 678.888 1941.72C672.555 1944.56 665.765 1945.98 658.52 1945.98ZM658.52 1925C662.827 1925 666.88 1924.11 670.68 1922.34C674.48 1920.52 677.824 1918.03 680.712 1914.89C683.6 1911.75 685.855 1908.13 687.476 1904.02C689.148 1899.92 689.984 1895.51 689.984 1890.8C689.984 1886.09 689.148 1881.68 687.476 1877.58C685.855 1873.42 683.6 1869.8 680.712 1866.71C677.824 1863.57 674.48 1861.11 670.68 1859.34C666.88 1857.51 662.827 1856.6 658.52 1856.6C654.213 1856.6 650.16 1857.51 646.36 1859.34C642.56 1861.11 639.216 1863.57 636.328 1866.71C633.44 1869.85 631.16 1873.47 629.488 1877.58C627.867 1881.68 627.056 1886.09 627.056 1890.8C627.056 1895.51 627.867 1899.95 629.488 1904.1C631.16 1908.2 633.44 1911.83 636.328 1914.97C639.216 1918.06 642.56 1920.52 646.36 1922.34C650.16 1924.11 654.213 1925 658.52 1925ZM767.433 1888.98H753.753V1944H732.777V1888.98H722.289V1868H732.777V1844.14H753.753V1868H767.433V1888.98ZM851.763 1895.66V1944H830.787V1901.44C830.787 1898.75 830.128 1896.35 828.811 1894.22C827.544 1892.04 825.822 1890.32 823.643 1889.05C821.515 1887.79 819.134 1887.15 816.499 1887.15C813.864 1887.15 811.458 1887.79 809.279 1889.05C807.1 1890.32 805.378 1892.04 804.111 1894.22C802.844 1896.35 802.211 1898.75 802.211 1901.44V1944H781.235L781.159 1830H802.135L802.211 1873.62C804.744 1871.19 807.708 1869.29 811.103 1867.92C814.548 1866.56 818.171 1865.87 821.971 1865.87C827.494 1865.87 832.484 1867.21 836.943 1869.9C841.452 1872.59 845.05 1876.18 847.735 1880.69C850.42 1885.15 851.763 1890.14 851.763 1895.66ZM898.912 1945.98C891.92 1945.98 885.536 1944.18 879.76 1940.58C874.034 1936.98 869.449 1932.14 866.004 1926.06C862.609 1919.98 860.912 1913.27 860.912 1905.92C860.912 1900.4 861.9 1895.23 863.876 1890.42C865.852 1885.56 868.562 1881.3 872.008 1877.65C875.504 1873.95 879.557 1871.07 884.168 1868.99C888.778 1866.91 893.693 1865.87 898.912 1865.87C904.941 1865.87 910.438 1867.16 915.404 1869.75C920.42 1872.33 924.65 1875.85 928.096 1880.31C931.592 1884.77 934.074 1889.81 935.544 1895.44C937.064 1901.06 937.317 1906.91 936.304 1912.99H883.56C884.218 1915.22 885.232 1917.25 886.6 1919.07C888.018 1920.85 889.741 1922.26 891.768 1923.33C893.845 1924.39 896.226 1924.95 898.912 1925C901.546 1925.05 903.978 1924.44 906.208 1923.18C908.437 1921.91 910.337 1920.21 911.908 1918.08L933.34 1923.02C930.249 1929.76 925.638 1935.29 919.508 1939.59C913.377 1943.85 906.512 1945.98 898.912 1945.98ZM882.8 1897.49H915.1C914.441 1894.95 913.326 1892.67 911.756 1890.65C910.185 1888.62 908.285 1887.03 906.056 1885.86C903.877 1884.69 901.496 1884.11 898.912 1884.11C896.378 1884.11 893.997 1884.69 891.768 1885.86C889.589 1887.03 887.714 1888.62 886.144 1890.65C884.624 1892.62 883.509 1894.9 882.8 1897.49ZM948.524 1944L948.448 1868H969.424L969.5 1873.62C972.033 1871.19 974.997 1869.29 978.392 1867.92C981.837 1866.56 985.46 1865.87 989.26 1865.87C992.047 1865.87 994.833 1866.28 997.62 1867.09L989.336 1888.29C987.512 1887.53 985.663 1887.15 983.788 1887.15C981.153 1887.15 978.747 1887.79 976.568 1889.05C974.389 1890.32 972.667 1892.04 971.4 1894.22C970.133 1896.35 969.5 1898.75 969.5 1901.44V1944H948.524Z" fill="#272727"/>
</g>
<defs>
<clipPath id="clip0_218_61">
<rect width="1600" height="2560" fill="white"/>
</clipPath>
<clipPath id="clip1_218_61">
<rect x="-800" y="-1600" width="3200" height="3200" rx="1600" fill="white"/>
</clipPath>
</defs>
</svg>
