<svg width="1600" height="2560" viewBox="0 0 1600 2560" fill="none" xmlns="http://www.w3.org/2000/svg">
<rect width="1600" height="2560" fill="white"/>
<rect width="1600" height="2560" fill="#00D1FF" fill-opacity="0.1"/>
<path d="M585.12 864V757.6H624.336C630.163 757.6 635.407 759.069 640.068 762.008C644.78 764.947 648.529 768.873 651.316 773.788C654.103 778.652 655.496 784.023 655.496 789.9C655.496 795.879 654.077 801.325 651.24 806.24C648.403 811.104 644.603 814.98 639.84 817.868C635.128 820.756 629.96 822.2 624.336 822.2H606.096V864H585.12ZM606.096 801.224H621.98C624.311 801.224 626.413 800.667 628.288 799.552C630.163 798.387 631.657 796.841 632.772 794.916C633.937 792.94 634.52 790.761 634.52 788.38C634.52 786.049 633.937 783.921 632.772 781.996C631.657 780.02 630.163 778.449 628.288 777.284C626.413 776.119 624.311 775.536 621.98 775.536H606.096V801.224ZM697.529 865.976C690.537 865.976 684.153 864.177 678.377 860.58C672.651 856.983 668.066 852.169 664.621 846.14C661.226 840.06 659.529 833.347 659.529 826C659.529 820.427 660.517 815.233 662.493 810.42C664.469 805.556 667.179 801.3 670.625 797.652C674.121 793.953 678.174 791.065 682.785 788.988C687.395 786.911 692.31 785.872 697.529 785.872C704.521 785.872 710.879 787.671 716.605 791.268C722.381 794.865 726.966 799.704 730.361 805.784C733.806 811.864 735.529 818.603 735.529 826C735.529 831.523 734.541 836.691 732.565 841.504C730.589 846.317 727.853 850.573 724.357 854.272C720.911 857.92 716.883 860.783 712.273 862.86C707.713 864.937 702.798 865.976 697.529 865.976ZM697.529 845C700.771 845 703.685 844.139 706.269 842.416C708.853 840.643 710.879 838.312 712.349 835.424C713.818 832.536 714.553 829.395 714.553 826C714.553 822.504 713.767 819.312 712.197 816.424C710.677 813.485 708.625 811.155 706.041 809.432C703.457 807.709 700.619 806.848 697.529 806.848C694.337 806.848 691.449 807.735 688.865 809.508C686.281 811.281 684.229 813.612 682.709 816.5C681.239 819.388 680.505 822.555 680.505 826C680.505 829.597 681.265 832.84 682.785 835.728C684.355 838.565 686.433 840.82 689.017 842.492C691.601 844.164 694.438 845 697.529 845ZM781.099 865.976C774.107 865.976 767.723 864.177 761.947 860.58C756.222 856.983 751.636 852.144 748.191 846.064C744.796 839.984 743.099 833.271 743.099 825.924C743.099 820.401 744.087 815.233 746.063 810.42C748.039 805.556 750.75 801.3 754.195 797.652C757.691 793.953 761.744 791.065 766.355 788.988C770.966 786.911 775.88 785.872 781.099 785.872C787.128 785.872 792.626 787.164 797.591 789.748C802.607 792.332 806.838 795.853 810.283 800.312C813.779 804.771 816.262 809.812 817.731 815.436C819.251 821.06 819.504 826.912 818.491 832.992H765.747C766.406 835.221 767.419 837.248 768.787 839.072C770.206 840.845 771.928 842.264 773.955 843.328C776.032 844.392 778.414 844.949 781.099 845C783.734 845.051 786.166 844.443 788.395 843.176C790.624 841.909 792.524 840.212 794.095 838.084L815.527 843.024C812.436 849.763 807.826 855.285 801.695 859.592C795.564 863.848 788.699 865.976 781.099 865.976ZM764.987 817.488H797.287C796.628 814.955 795.514 812.675 793.943 810.648C792.372 808.621 790.472 807.025 788.243 805.86C786.064 804.695 783.683 804.112 781.099 804.112C778.566 804.112 776.184 804.695 773.955 805.86C771.776 807.025 769.902 808.621 768.331 810.648C766.811 812.624 765.696 814.904 764.987 817.488ZM872.425 808.976H858.745V864H837.769V808.976H827.281V788H837.769V764.136H858.745V788H872.425V808.976ZM886.227 864L886.151 788H907.127L907.203 793.624C909.737 791.192 912.701 789.292 916.095 787.924C919.541 786.556 923.163 785.872 926.963 785.872C929.75 785.872 932.537 786.277 935.323 787.088L927.039 808.292C925.215 807.532 923.366 807.152 921.491 807.152C918.857 807.152 916.45 807.785 914.271 809.052C912.093 810.319 910.37 812.041 909.103 814.22C907.837 816.348 907.203 818.755 907.203 821.44V864H886.227ZM995.287 788H1017.63L975.983 902H953.791L967.471 864L940.111 788H963.063L977.959 835.348L995.287 788Z" fill="#272727"/>
<g clip-path="url(#clip0_218_46)">
<rect width="1600" height="920" transform="translate(0 998)" fill="white"/>
<rect width="1600" height="920" transform="translate(0 998)" fill="#00D1FF" fill-opacity="0.2"/>
<path d="M244.997 1060.58C276.642 1032.26 296.556 991.102 296.556 945.291C296.556 899.481 276.642 858.322 244.997 830C213.353 858.322 193.438 899.481 193.438 945.291C193.438 991.102 213.353 1032.26 244.997 1060.58ZM244.997 1060.58V1165M244.997 1230V1165M244.997 1165L204.003 1230M244.997 1165L285.992 1230M170.625 958.463C210.297 981.368 235.985 1019.19 244.69 1060.76C204.34 1074 158.739 1070.67 119.066 1047.77C79.393 1024.86 53.7058 987.034 45 945.468C85.3501 932.225 130.952 935.558 170.625 958.463ZM319.375 958.463C279.703 981.368 254.015 1019.19 245.31 1060.76C285.66 1074 331.261 1070.67 370.934 1047.77C410.607 1024.86 436.294 987.034 445 945.468C404.65 932.225 359.048 935.558 319.375 958.463ZM231.826 935.006C254.731 974.679 258.064 1020.28 244.82 1060.63C203.254 1051.93 165.428 1026.24 142.523 986.565C119.618 946.892 116.285 901.291 129.529 860.94C171.095 869.646 208.921 895.333 231.826 935.006ZM258.174 935.006C235.269 974.679 231.936 1020.28 245.18 1060.63C286.746 1051.93 324.572 1026.24 347.477 986.565C370.382 946.892 373.714 901.291 360.471 860.94C318.905 869.646 281.079 895.333 258.174 935.006Z" stroke="#00D1FF" stroke-width="4"/>
<path d="M614.997 1031.42C646.642 1059.74 666.556 1100.9 666.556 1146.71C666.556 1192.52 646.642 1233.68 614.997 1262C583.353 1233.68 563.438 1192.52 563.438 1146.71C563.438 1100.9 583.353 1059.74 614.997 1031.42ZM614.997 1031.42V927M614.997 862V927M614.997 927L574.003 862M614.997 927L655.992 862M540.625 1133.54C580.297 1110.63 605.985 1072.81 614.69 1031.24C574.34 1018 528.739 1021.33 489.066 1044.23C449.393 1067.14 423.706 1104.97 415 1146.53C455.35 1159.78 500.952 1156.44 540.625 1133.54ZM689.375 1133.54C649.703 1110.63 624.015 1072.81 615.31 1031.24C655.66 1018 701.261 1021.33 740.934 1044.23C780.607 1067.14 806.294 1104.97 815 1146.53C774.65 1159.78 729.048 1156.44 689.375 1133.54ZM601.826 1156.99C624.731 1117.32 628.064 1071.72 614.82 1031.37C573.254 1040.07 535.428 1065.76 512.523 1105.43C489.618 1145.11 486.285 1190.71 499.529 1231.06C541.095 1222.35 578.921 1196.67 601.826 1156.99ZM628.174 1156.99C605.269 1117.32 601.936 1071.72 615.18 1031.37C656.746 1040.07 694.572 1065.76 717.477 1105.43C740.382 1145.11 743.714 1190.71 730.471 1231.06C688.905 1222.35 651.079 1196.67 628.174 1156.99Z" stroke="#00D1FF" stroke-width="4"/>
<path d="M984.997 1060.58C1016.64 1032.26 1036.56 991.102 1036.56 945.291C1036.56 899.481 1016.64 858.322 984.997 830C953.353 858.322 933.438 899.481 933.438 945.291C933.438 991.102 953.353 1032.26 984.997 1060.58ZM984.997 1060.58V1165M984.997 1230V1165M984.997 1165L944.003 1230M984.997 1165L1025.99 1230M910.625 958.463C950.297 981.368 975.985 1019.19 984.69 1060.76C944.34 1074 898.739 1070.67 859.066 1047.77C819.393 1024.86 793.706 987.034 785 945.468C825.35 932.225 870.952 935.558 910.625 958.463ZM1059.38 958.463C1019.7 981.368 994.015 1019.19 985.31 1060.76C1025.66 1074 1071.26 1070.67 1110.93 1047.77C1150.61 1024.86 1176.29 987.034 1185 945.468C1144.65 932.225 1099.05 935.558 1059.38 958.463ZM971.826 935.006C994.731 974.679 998.064 1020.28 984.82 1060.63C943.254 1051.93 905.428 1026.24 882.523 986.565C859.618 946.892 856.285 901.291 869.529 860.94C911.095 869.646 948.921 895.333 971.826 935.006ZM998.174 935.006C975.269 974.679 971.936 1020.28 985.18 1060.63C1026.75 1051.93 1064.57 1026.24 1087.48 986.565C1110.38 946.892 1113.71 901.291 1100.47 860.94C1058.9 869.646 1021.08 895.333 998.174 935.006Z" stroke="#00D1FF" stroke-width="4"/>
<path d="M1355 1031.42C1386.64 1059.74 1406.56 1100.9 1406.56 1146.71C1406.56 1192.52 1386.64 1233.68 1355 1262C1323.35 1233.68 1303.44 1192.52 1303.44 1146.71C1303.44 1100.9 1323.35 1059.74 1355 1031.42ZM1355 1031.42V927M1355 862V927M1355 927L1314 862M1355 927L1395.99 862M1280.62 1133.54C1320.3 1110.63 1345.98 1072.81 1354.69 1031.24C1314.34 1018 1268.74 1021.33 1229.07 1044.23C1189.39 1067.14 1163.71 1104.97 1155 1146.53C1195.35 1159.78 1240.95 1156.44 1280.62 1133.54ZM1429.38 1133.54C1389.7 1110.63 1364.02 1072.81 1355.31 1031.24C1395.66 1018 1441.26 1021.33 1480.93 1044.23C1520.61 1067.14 1546.29 1104.97 1555 1146.53C1514.65 1159.78 1469.05 1156.44 1429.38 1133.54ZM1341.83 1156.99C1364.73 1117.32 1368.06 1071.72 1354.82 1031.37C1313.25 1040.07 1275.43 1065.76 1252.52 1105.43C1229.62 1145.11 1226.29 1190.71 1239.53 1231.06C1281.09 1222.35 1318.92 1196.67 1341.83 1156.99ZM1368.17 1156.99C1345.27 1117.32 1341.94 1071.72 1355.18 1031.37C1396.75 1040.07 1434.57 1065.76 1457.48 1105.43C1480.38 1145.11 1483.71 1190.71 1470.47 1231.06C1428.9 1222.35 1391.08 1196.67 1368.17 1156.99Z" stroke="#00D1FF" stroke-width="4"/>
<path d="M244.997 1472.58C276.642 1444.26 296.556 1403.1 296.556 1357.29C296.556 1311.48 276.642 1270.32 244.997 1242C213.353 1270.32 193.438 1311.48 193.438 1357.29C193.438 1403.1 213.353 1444.26 244.997 1472.58ZM244.997 1472.58V1577M244.997 1642V1577M244.997 1577L204.003 1642M244.997 1577L285.992 1642M170.625 1370.46C210.297 1393.37 235.985 1431.19 244.69 1472.76C204.34 1486 158.739 1482.67 119.066 1459.77C79.393 1436.86 53.7058 1399.03 45 1357.47C85.3501 1344.22 130.952 1347.56 170.625 1370.46ZM319.375 1370.46C279.703 1393.37 254.015 1431.19 245.31 1472.76C285.66 1486 331.261 1482.67 370.934 1459.77C410.607 1436.86 436.294 1399.03 445 1357.47C404.65 1344.22 359.048 1347.56 319.375 1370.46ZM231.826 1347.01C254.731 1386.68 258.064 1432.28 244.82 1472.63C203.254 1463.93 165.428 1438.24 142.523 1398.57C119.618 1358.89 116.285 1313.29 129.529 1272.94C171.095 1281.65 208.921 1307.33 231.826 1347.01ZM258.174 1347.01C235.269 1386.68 231.936 1432.28 245.18 1472.63C286.746 1463.93 324.572 1438.24 347.477 1398.57C370.382 1358.89 373.714 1313.29 360.471 1272.94C318.905 1281.65 281.079 1307.33 258.174 1347.01Z" stroke="#00D1FF" stroke-width="4"/>
<path d="M614.997 1443.42C646.642 1471.74 666.556 1512.9 666.556 1558.71C666.556 1604.52 646.642 1645.68 614.997 1674C583.353 1645.68 563.438 1604.52 563.438 1558.71C563.438 1512.9 583.353 1471.74 614.997 1443.42ZM614.997 1443.42V1339M614.997 1274V1339M614.997 1339L574.003 1274M614.997 1339L655.992 1274M540.625 1545.54C580.297 1522.63 605.985 1484.81 614.69 1443.24C574.34 1430 528.739 1433.33 489.066 1456.23C449.393 1479.14 423.706 1516.97 415 1558.53C455.35 1571.78 500.952 1568.44 540.625 1545.54ZM689.375 1545.54C649.703 1522.63 624.015 1484.81 615.31 1443.24C655.66 1430 701.261 1433.33 740.934 1456.23C780.607 1479.14 806.294 1516.97 815 1558.53C774.65 1571.78 729.048 1568.44 689.375 1545.54ZM601.826 1568.99C624.731 1529.32 628.064 1483.72 614.82 1443.37C573.254 1452.07 535.428 1477.76 512.523 1517.43C489.618 1557.11 486.285 1602.71 499.529 1643.06C541.095 1634.35 578.921 1608.67 601.826 1568.99ZM628.174 1568.99C605.269 1529.32 601.936 1483.72 615.18 1443.37C656.746 1452.07 694.572 1477.76 717.477 1517.43C740.382 1557.11 743.714 1602.71 730.471 1643.06C688.905 1634.35 651.079 1608.67 628.174 1568.99Z" stroke="#00D1FF" stroke-width="4"/>
<path d="M984.997 1472.58C1016.64 1444.26 1036.56 1403.1 1036.56 1357.29C1036.56 1311.48 1016.64 1270.32 984.997 1242C953.353 1270.32 933.438 1311.48 933.438 1357.29C933.438 1403.1 953.353 1444.26 984.997 1472.58ZM984.997 1472.58V1577M984.997 1642V1577M984.997 1577L944.003 1642M984.997 1577L1025.99 1642M910.625 1370.46C950.297 1393.37 975.985 1431.19 984.69 1472.76C944.34 1486 898.739 1482.67 859.066 1459.77C819.393 1436.86 793.706 1399.03 785 1357.47C825.35 1344.22 870.952 1347.56 910.625 1370.46ZM1059.38 1370.46C1019.7 1393.37 994.015 1431.19 985.31 1472.76C1025.66 1486 1071.26 1482.67 1110.93 1459.77C1150.61 1436.86 1176.29 1399.03 1185 1357.47C1144.65 1344.22 1099.05 1347.56 1059.38 1370.46ZM971.826 1347.01C994.731 1386.68 998.064 1432.28 984.82 1472.63C943.254 1463.93 905.428 1438.24 882.523 1398.57C859.618 1358.89 856.285 1313.29 869.529 1272.94C911.095 1281.65 948.921 1307.33 971.826 1347.01ZM998.174 1347.01C975.269 1386.68 971.936 1432.28 985.18 1472.63C1026.75 1463.93 1064.57 1438.24 1087.48 1398.57C1110.38 1358.89 1113.71 1313.29 1100.47 1272.94C1058.9 1281.65 1021.08 1307.33 998.174 1347.01Z" stroke="#00D1FF" stroke-width="4"/>
<path d="M1355 1443.42C1386.64 1471.74 1406.56 1512.9 1406.56 1558.71C1406.56 1604.52 1386.64 1645.68 1355 1674C1323.35 1645.68 1303.44 1604.52 1303.44 1558.71C1303.44 1512.9 1323.35 1471.74 1355 1443.42ZM1355 1443.42V1339M1355 1274V1339M1355 1339L1314 1274M1355 1339L1395.99 1274M1280.62 1545.54C1320.3 1522.63 1345.98 1484.81 1354.69 1443.24C1314.34 1430 1268.74 1433.33 1229.07 1456.23C1189.39 1479.14 1163.71 1516.97 1155 1558.53C1195.35 1571.78 1240.95 1568.44 1280.62 1545.54ZM1429.38 1545.54C1389.7 1522.63 1364.02 1484.81 1355.31 1443.24C1395.66 1430 1441.26 1433.33 1480.93 1456.23C1520.61 1479.14 1546.29 1516.97 1555 1558.53C1514.65 1571.78 1469.05 1568.44 1429.38 1545.54ZM1341.83 1568.99C1364.73 1529.32 1368.06 1483.72 1354.82 1443.37C1313.25 1452.07 1275.43 1477.76 1252.52 1517.43C1229.62 1557.11 1226.29 1602.71 1239.53 1643.06C1281.09 1634.35 1318.92 1608.67 1341.83 1568.99ZM1368.17 1568.99C1345.27 1529.32 1341.94 1483.72 1355.18 1443.37C1396.75 1452.07 1434.57 1477.76 1457.48 1517.43C1480.38 1557.11 1483.71 1602.71 1470.47 1643.06C1428.9 1634.35 1391.08 1608.67 1368.17 1568.99Z" stroke="#00D1FF" stroke-width="4"/>
<path d="M244.997 1884.58C276.642 1856.26 296.556 1815.1 296.556 1769.29C296.556 1723.48 276.642 1682.32 244.997 1654C213.353 1682.32 193.438 1723.48 193.438 1769.29C193.438 1815.1 213.353 1856.26 244.997 1884.58ZM244.997 1884.58V1989M244.997 2054V1989M244.997 1989L204.003 2054M244.997 1989L285.992 2054M170.625 1782.46C210.297 1805.37 235.985 1843.19 244.69 1884.76C204.34 1898 158.739 1894.67 119.066 1871.77C79.393 1848.86 53.7058 1811.03 45 1769.47C85.3501 1756.22 130.952 1759.56 170.625 1782.46ZM319.375 1782.46C279.703 1805.37 254.015 1843.19 245.31 1884.76C285.66 1898 331.261 1894.67 370.934 1871.77C410.607 1848.86 436.294 1811.03 445 1769.47C404.65 1756.22 359.048 1759.56 319.375 1782.46ZM231.826 1759.01C254.731 1798.68 258.064 1844.28 244.82 1884.63C203.254 1875.93 165.428 1850.24 142.523 1810.57C119.618 1770.89 116.285 1725.29 129.529 1684.94C171.095 1693.65 208.921 1719.33 231.826 1759.01ZM258.174 1759.01C235.269 1798.68 231.936 1844.28 245.18 1884.63C286.746 1875.93 324.572 1850.24 347.477 1810.57C370.382 1770.89 373.714 1725.29 360.471 1684.94C318.905 1693.65 281.079 1719.33 258.174 1759.01Z" stroke="#00D1FF" stroke-width="4"/>
<path d="M614.997 1855.42C646.642 1883.74 666.556 1924.9 666.556 1970.71C666.556 2016.52 646.642 2057.68 614.997 2086C583.353 2057.68 563.438 2016.52 563.438 1970.71C563.438 1924.9 583.353 1883.74 614.997 1855.42ZM614.997 1855.42V1751M614.997 1686V1751M614.997 1751L574.003 1686M614.997 1751L655.992 1686M540.625 1957.54C580.297 1934.63 605.985 1896.81 614.69 1855.24C574.34 1842 528.739 1845.33 489.066 1868.23C449.393 1891.14 423.706 1928.97 415 1970.53C455.35 1983.78 500.952 1980.44 540.625 1957.54ZM689.375 1957.54C649.703 1934.63 624.015 1896.81 615.31 1855.24C655.66 1842 701.261 1845.33 740.934 1868.23C780.607 1891.14 806.294 1928.97 815 1970.53C774.65 1983.78 729.048 1980.44 689.375 1957.54ZM601.826 1980.99C624.731 1941.32 628.064 1895.72 614.82 1855.37C573.254 1864.07 535.428 1889.76 512.523 1929.43C489.618 1969.11 486.285 2014.71 499.529 2055.06C541.095 2046.35 578.921 2020.67 601.826 1980.99ZM628.174 1980.99C605.269 1941.32 601.936 1895.72 615.18 1855.37C656.746 1864.07 694.572 1889.76 717.477 1929.43C740.382 1969.11 743.714 2014.71 730.471 2055.06C688.905 2046.35 651.079 2020.67 628.174 1980.99Z" stroke="#00D1FF" stroke-width="4"/>
<path d="M984.997 1884.58C1016.64 1856.26 1036.56 1815.1 1036.56 1769.29C1036.56 1723.48 1016.64 1682.32 984.997 1654C953.353 1682.32 933.438 1723.48 933.438 1769.29C933.438 1815.1 953.353 1856.26 984.997 1884.58ZM984.997 1884.58V1989M984.997 2054V1989M984.997 1989L944.003 2054M984.997 1989L1025.99 2054M910.625 1782.46C950.297 1805.37 975.985 1843.19 984.69 1884.76C944.34 1898 898.739 1894.67 859.066 1871.77C819.393 1848.86 793.706 1811.03 785 1769.47C825.35 1756.22 870.952 1759.56 910.625 1782.46ZM1059.38 1782.46C1019.7 1805.37 994.015 1843.19 985.31 1884.76C1025.66 1898 1071.26 1894.67 1110.93 1871.77C1150.61 1848.86 1176.29 1811.03 1185 1769.47C1144.65 1756.22 1099.05 1759.56 1059.38 1782.46ZM971.826 1759.01C994.731 1798.68 998.064 1844.28 984.82 1884.63C943.254 1875.93 905.428 1850.24 882.523 1810.57C859.618 1770.89 856.285 1725.29 869.529 1684.94C911.095 1693.65 948.921 1719.33 971.826 1759.01ZM998.174 1759.01C975.269 1798.68 971.936 1844.28 985.18 1884.63C1026.75 1875.93 1064.57 1850.24 1087.48 1810.57C1110.38 1770.89 1113.71 1725.29 1100.47 1684.94C1058.9 1693.65 1021.08 1719.33 998.174 1759.01Z" stroke="#00D1FF" stroke-width="4"/>
<path d="M1355 1855.42C1386.64 1883.74 1406.56 1924.9 1406.56 1970.71C1406.56 2016.52 1386.64 2057.68 1355 2086C1323.35 2057.68 1303.44 2016.52 1303.44 1970.71C1303.44 1924.9 1323.35 1883.74 1355 1855.42ZM1355 1855.42V1751M1355 1686V1751M1355 1751L1314 1686M1355 1751L1395.99 1686M1280.62 1957.54C1320.3 1934.63 1345.98 1896.81 1354.69 1855.24C1314.34 1842 1268.74 1845.33 1229.07 1868.23C1189.39 1891.14 1163.71 1928.97 1155 1970.53C1195.35 1983.78 1240.95 1980.44 1280.62 1957.54ZM1429.38 1957.54C1389.7 1934.63 1364.02 1896.81 1355.31 1855.24C1395.66 1842 1441.26 1845.33 1480.93 1868.23C1520.61 1891.14 1546.29 1928.97 1555 1970.53C1514.65 1983.78 1469.05 1980.44 1429.38 1957.54ZM1341.83 1980.99C1364.73 1941.32 1368.06 1895.72 1354.82 1855.37C1313.25 1864.07 1275.43 1889.76 1252.52 1929.43C1229.62 1969.11 1226.29 2014.71 1239.53 2055.06C1281.09 2046.35 1318.92 2020.67 1341.83 1980.99ZM1368.17 1980.99C1345.27 1941.32 1341.94 1895.72 1355.18 1855.37C1396.75 1864.07 1434.57 1889.76 1457.48 1929.43C1480.38 1969.11 1483.71 2014.71 1470.47 2055.06C1428.9 2046.35 1391.08 2020.67 1368.17 1980.99Z" stroke="#00D1FF" stroke-width="4"/>
</g>
<defs>
<clipPath id="clip0_218_46">
<rect width="1600" height="920" fill="white" transform="translate(0 998)"/>
</clipPath>
</defs>
</svg>
