<svg width="1600" height="2560" viewBox="0 0 1600 2560" fill="none" xmlns="http://www.w3.org/2000/svg">
<rect width="1600" height="2560" fill="white"/>
<rect width="1600" height="2560" fill="#FF0000" fill-opacity="0.1"/>
<g clip-path="url(#clip0_218_55)">
<rect width="200" height="2360" transform="translate(700 100)" fill="white"/>
<rect width="200" height="2360" transform="translate(700 100)" fill="#FF0000" fill-opacity="0.2"/>
<path d="M527.997 235.417C559.642 263.74 579.556 304.898 579.556 350.709C579.556 396.519 559.642 437.678 527.997 466C496.353 437.678 476.438 396.519 476.438 350.709C476.438 304.898 496.353 263.74 527.997 235.417ZM527.997 235.417V131M527.997 66V131M527.997 131L487.003 66M527.997 131L568.992 66M453.625 337.537C493.297 314.632 518.985 276.806 527.69 235.24C487.34 221.997 441.739 225.329 402.066 248.234C362.393 271.14 336.706 308.966 328 350.532C368.35 363.775 413.952 360.442 453.625 337.537ZM602.375 337.537C562.703 314.632 537.015 276.806 528.31 235.24C568.66 221.997 614.261 225.329 653.934 248.234C693.607 271.14 719.294 308.966 728 350.532C687.65 363.775 642.048 360.442 602.375 337.537ZM514.826 360.994C537.731 321.321 541.064 275.719 527.82 235.369C486.254 244.075 448.428 269.762 425.523 309.435C402.618 349.108 399.285 394.709 412.529 435.06C454.095 426.354 491.921 400.667 514.826 360.994ZM541.174 360.994C518.269 321.321 514.936 275.719 528.18 235.369C569.746 244.075 607.572 269.762 630.477 309.435C653.382 349.108 656.714 394.709 643.471 435.06C601.905 426.354 564.079 400.667 541.174 360.994Z" stroke="#FF0000" stroke-width="4"/>
<path d="M897.997 264.583C929.642 236.26 949.556 195.102 949.556 149.291C949.556 103.481 929.642 62.3224 897.997 34C866.353 62.3224 846.438 103.481 846.438 149.291C846.438 195.102 866.353 236.26 897.997 264.583ZM897.997 264.583V369M897.997 434V369M897.997 369L857.003 434M897.997 369L938.992 434M823.625 162.463C863.297 185.368 888.985 223.194 897.69 264.76C857.34 278.003 811.739 274.671 772.066 251.766C732.393 228.86 706.706 191.034 698 149.468C738.35 136.225 783.952 139.558 823.625 162.463ZM972.375 162.463C932.703 185.368 907.015 223.194 898.31 264.76C938.66 278.003 984.261 274.671 1023.93 251.766C1063.61 228.86 1089.29 191.034 1098 149.468C1057.65 136.225 1012.05 139.558 972.375 162.463ZM884.826 139.006C907.731 178.679 911.064 224.281 897.82 264.631C856.254 255.925 818.428 230.238 795.523 190.565C772.618 150.892 769.285 105.291 782.529 64.9404C824.095 73.6462 861.921 99.3334 884.826 139.006ZM911.174 139.006C888.269 178.679 884.936 224.281 898.18 264.631C939.746 255.925 977.572 230.238 1000.48 190.565C1023.38 150.892 1026.71 105.291 1013.47 64.9404C971.905 73.6462 934.079 99.3334 911.174 139.006Z" stroke="#FF0000" stroke-width="4"/>
<path d="M527.997 647.417C559.642 675.74 579.556 716.898 579.556 762.709C579.556 808.519 559.642 849.678 527.997 878C496.353 849.678 476.438 808.519 476.438 762.709C476.438 716.898 496.353 675.74 527.997 647.417ZM527.997 647.417V543M527.997 478V543M527.997 543L487.003 478M527.997 543L568.992 478M453.625 749.537C493.297 726.632 518.985 688.806 527.69 647.24C487.34 633.997 441.739 637.329 402.066 660.234C362.393 683.14 336.706 720.966 328 762.532C368.35 775.775 413.952 772.442 453.625 749.537ZM602.375 749.537C562.703 726.632 537.015 688.806 528.31 647.24C568.66 633.997 614.261 637.329 653.934 660.234C693.607 683.14 719.294 720.966 728 762.532C687.65 775.775 642.048 772.442 602.375 749.537ZM514.826 772.994C537.731 733.321 541.064 687.719 527.82 647.369C486.254 656.075 448.428 681.762 425.523 721.435C402.618 761.108 399.285 806.709 412.529 847.06C454.095 838.354 491.921 812.667 514.826 772.994ZM541.174 772.994C518.269 733.321 514.936 687.719 528.18 647.369C569.746 656.075 607.572 681.762 630.477 721.435C653.382 761.108 656.714 806.709 643.471 847.06C601.905 838.354 564.079 812.667 541.174 772.994Z" stroke="#FF0000" stroke-width="4"/>
<path d="M897.997 676.583C929.642 648.26 949.556 607.102 949.556 561.291C949.556 515.481 929.642 474.322 897.997 446C866.353 474.322 846.438 515.481 846.438 561.291C846.438 607.102 866.353 648.26 897.997 676.583ZM897.997 676.583V781M897.997 846V781M897.997 781L857.003 846M897.997 781L938.992 846M823.625 574.463C863.297 597.368 888.985 635.194 897.69 676.76C857.34 690.003 811.739 686.671 772.066 663.766C732.393 640.86 706.706 603.034 698 561.468C738.35 548.225 783.952 551.558 823.625 574.463ZM972.375 574.463C932.703 597.368 907.015 635.194 898.31 676.76C938.66 690.003 984.261 686.671 1023.93 663.766C1063.61 640.86 1089.29 603.034 1098 561.468C1057.65 548.225 1012.05 551.558 972.375 574.463ZM884.826 551.006C907.731 590.679 911.064 636.281 897.82 676.631C856.254 667.925 818.428 642.238 795.523 602.565C772.618 562.892 769.285 517.291 782.529 476.94C824.095 485.646 861.921 511.333 884.826 551.006ZM911.174 551.006C888.269 590.679 884.936 636.281 898.18 676.631C939.746 667.925 977.572 642.238 1000.48 602.565C1023.38 562.892 1026.71 517.291 1013.47 476.94C971.905 485.646 934.079 511.333 911.174 551.006Z" stroke="#FF0000" stroke-width="4"/>
<path d="M527.997 1059.42C559.642 1087.74 579.556 1128.9 579.556 1174.71C579.556 1220.52 559.642 1261.68 527.997 1290C496.353 1261.68 476.438 1220.52 476.438 1174.71C476.438 1128.9 496.353 1087.74 527.997 1059.42ZM527.997 1059.42V955M527.997 890V955M527.997 955L487.003 890M527.997 955L568.992 890M453.625 1161.54C493.297 1138.63 518.985 1100.81 527.69 1059.24C487.34 1046 441.739 1049.33 402.066 1072.23C362.393 1095.14 336.706 1132.97 328 1174.53C368.35 1187.78 413.952 1184.44 453.625 1161.54ZM602.375 1161.54C562.703 1138.63 537.015 1100.81 528.31 1059.24C568.66 1046 614.261 1049.33 653.934 1072.23C693.607 1095.14 719.294 1132.97 728 1174.53C687.65 1187.78 642.048 1184.44 602.375 1161.54ZM514.826 1184.99C537.731 1145.32 541.064 1099.72 527.82 1059.37C486.254 1068.07 448.428 1093.76 425.523 1133.43C402.618 1173.11 399.285 1218.71 412.529 1259.06C454.095 1250.35 491.921 1224.67 514.826 1184.99ZM541.174 1184.99C518.269 1145.32 514.936 1099.72 528.18 1059.37C569.746 1068.07 607.572 1093.76 630.477 1133.43C653.382 1173.11 656.714 1218.71 643.471 1259.06C601.905 1250.35 564.079 1224.67 541.174 1184.99Z" stroke="#FF0000" stroke-width="4"/>
<path d="M897.997 1088.58C929.642 1060.26 949.556 1019.1 949.556 973.291C949.556 927.481 929.642 886.322 897.997 858C866.353 886.322 846.438 927.481 846.438 973.291C846.438 1019.1 866.353 1060.26 897.997 1088.58ZM897.997 1088.58V1193M897.997 1258V1193M897.997 1193L857.003 1258M897.997 1193L938.992 1258M823.625 986.463C863.297 1009.37 888.985 1047.19 897.69 1088.76C857.34 1102 811.739 1098.67 772.066 1075.77C732.393 1052.86 706.706 1015.03 698 973.468C738.35 960.225 783.952 963.558 823.625 986.463ZM972.375 986.463C932.703 1009.37 907.015 1047.19 898.31 1088.76C938.66 1102 984.261 1098.67 1023.93 1075.77C1063.61 1052.86 1089.29 1015.03 1098 973.468C1057.65 960.225 1012.05 963.558 972.375 986.463ZM884.826 963.006C907.731 1002.68 911.064 1048.28 897.82 1088.63C856.254 1079.93 818.428 1054.24 795.523 1014.57C772.618 974.892 769.285 929.291 782.529 888.94C824.095 897.646 861.921 923.333 884.826 963.006ZM911.174 963.006C888.269 1002.68 884.936 1048.28 898.18 1088.63C939.746 1079.93 977.572 1054.24 1000.48 1014.57C1023.38 974.892 1026.71 929.291 1013.47 888.94C971.905 897.646 934.079 923.333 911.174 963.006Z" stroke="#FF0000" stroke-width="4"/>
<path d="M527.997 1471.42C559.642 1499.74 579.556 1540.9 579.556 1586.71C579.556 1632.52 559.642 1673.68 527.997 1702C496.353 1673.68 476.438 1632.52 476.438 1586.71C476.438 1540.9 496.353 1499.74 527.997 1471.42ZM527.997 1471.42V1367M527.997 1302V1367M527.997 1367L487.003 1302M527.997 1367L568.992 1302M453.625 1573.54C493.297 1550.63 518.985 1512.81 527.69 1471.24C487.34 1458 441.739 1461.33 402.066 1484.23C362.393 1507.14 336.706 1544.97 328 1586.53C368.35 1599.78 413.952 1596.44 453.625 1573.54ZM602.375 1573.54C562.703 1550.63 537.015 1512.81 528.31 1471.24C568.66 1458 614.261 1461.33 653.934 1484.23C693.607 1507.14 719.294 1544.97 728 1586.53C687.65 1599.78 642.048 1596.44 602.375 1573.54ZM514.826 1596.99C537.731 1557.32 541.064 1511.72 527.82 1471.37C486.254 1480.07 448.428 1505.76 425.523 1545.43C402.618 1585.11 399.285 1630.71 412.529 1671.06C454.095 1662.35 491.921 1636.67 514.826 1596.99ZM541.174 1596.99C518.269 1557.32 514.936 1511.72 528.18 1471.37C569.746 1480.07 607.572 1505.76 630.477 1545.43C653.382 1585.11 656.714 1630.71 643.471 1671.06C601.905 1662.35 564.079 1636.67 541.174 1596.99Z" stroke="#FF0000" stroke-width="4"/>
<path d="M897.997 1500.58C929.642 1472.26 949.556 1431.1 949.556 1385.29C949.556 1339.48 929.642 1298.32 897.997 1270C866.353 1298.32 846.438 1339.48 846.438 1385.29C846.438 1431.1 866.353 1472.26 897.997 1500.58ZM897.997 1500.58V1605M897.997 1670V1605M897.997 1605L857.003 1670M897.997 1605L938.992 1670M823.625 1398.46C863.297 1421.37 888.985 1459.19 897.69 1500.76C857.34 1514 811.739 1510.67 772.066 1487.77C732.393 1464.86 706.706 1427.03 698 1385.47C738.35 1372.22 783.952 1375.56 823.625 1398.46ZM972.375 1398.46C932.703 1421.37 907.015 1459.19 898.31 1500.76C938.66 1514 984.261 1510.67 1023.93 1487.77C1063.61 1464.86 1089.29 1427.03 1098 1385.47C1057.65 1372.22 1012.05 1375.56 972.375 1398.46ZM884.826 1375.01C907.731 1414.68 911.064 1460.28 897.82 1500.63C856.254 1491.93 818.428 1466.24 795.523 1426.57C772.618 1386.89 769.285 1341.29 782.529 1300.94C824.095 1309.65 861.921 1335.33 884.826 1375.01ZM911.174 1375.01C888.269 1414.68 884.936 1460.28 898.18 1500.63C939.746 1491.93 977.572 1466.24 1000.48 1426.57C1023.38 1386.89 1026.71 1341.29 1013.47 1300.94C971.905 1309.65 934.079 1335.33 911.174 1375.01Z" stroke="#FF0000" stroke-width="4"/>
<path d="M527.997 1883.42C559.642 1911.74 579.556 1952.9 579.556 1998.71C579.556 2044.52 559.642 2085.68 527.997 2114C496.353 2085.68 476.438 2044.52 476.438 1998.71C476.438 1952.9 496.353 1911.74 527.997 1883.42ZM527.997 1883.42V1779M527.997 1714V1779M527.997 1779L487.003 1714M527.997 1779L568.992 1714M453.625 1985.54C493.297 1962.63 518.985 1924.81 527.69 1883.24C487.34 1870 441.739 1873.33 402.066 1896.23C362.393 1919.14 336.706 1956.97 328 1998.53C368.35 2011.78 413.952 2008.44 453.625 1985.54ZM602.375 1985.54C562.703 1962.63 537.015 1924.81 528.31 1883.24C568.66 1870 614.261 1873.33 653.934 1896.23C693.607 1919.14 719.294 1956.97 728 1998.53C687.65 2011.78 642.048 2008.44 602.375 1985.54ZM514.826 2008.99C537.731 1969.32 541.064 1923.72 527.82 1883.37C486.254 1892.07 448.428 1917.76 425.523 1957.43C402.618 1997.11 399.285 2042.71 412.529 2083.06C454.095 2074.35 491.921 2048.67 514.826 2008.99ZM541.174 2008.99C518.269 1969.32 514.936 1923.72 528.18 1883.37C569.746 1892.07 607.572 1917.76 630.477 1957.43C653.382 1997.11 656.714 2042.71 643.471 2083.06C601.905 2074.35 564.079 2048.67 541.174 2008.99Z" stroke="#FF0000" stroke-width="4"/>
<path d="M897.997 1912.58C929.642 1884.26 949.556 1843.1 949.556 1797.29C949.556 1751.48 929.642 1710.32 897.997 1682C866.353 1710.32 846.438 1751.48 846.438 1797.29C846.438 1843.1 866.353 1884.26 897.997 1912.58ZM897.997 1912.58V2017M897.997 2082V2017M897.997 2017L857.003 2082M897.997 2017L938.992 2082M823.625 1810.46C863.297 1833.37 888.985 1871.19 897.69 1912.76C857.34 1926 811.739 1922.67 772.066 1899.77C732.393 1876.86 706.706 1839.03 698 1797.47C738.35 1784.22 783.952 1787.56 823.625 1810.46ZM972.375 1810.46C932.703 1833.37 907.015 1871.19 898.31 1912.76C938.66 1926 984.261 1922.67 1023.93 1899.77C1063.61 1876.86 1089.29 1839.03 1098 1797.47C1057.65 1784.22 1012.05 1787.56 972.375 1810.46ZM884.826 1787.01C907.731 1826.68 911.064 1872.28 897.82 1912.63C856.254 1903.93 818.428 1878.24 795.523 1838.57C772.618 1798.89 769.285 1753.29 782.529 1712.94C824.095 1721.65 861.921 1747.33 884.826 1787.01ZM911.174 1787.01C888.269 1826.68 884.936 1872.28 898.18 1912.63C939.746 1903.93 977.572 1878.24 1000.48 1838.57C1023.38 1798.89 1026.71 1753.29 1013.47 1712.94C971.905 1721.65 934.079 1747.33 911.174 1787.01Z" stroke="#FF0000" stroke-width="4"/>
<path d="M527.997 2295.42C559.642 2323.74 579.556 2364.9 579.556 2410.71C579.556 2456.52 559.642 2497.68 527.997 2526C496.353 2497.68 476.438 2456.52 476.438 2410.71C476.438 2364.9 496.353 2323.74 527.997 2295.42ZM527.997 2295.42V2191M527.997 2126V2191M527.997 2191L487.003 2126M527.997 2191L568.992 2126M453.625 2397.54C493.297 2374.63 518.985 2336.81 527.69 2295.24C487.34 2282 441.739 2285.33 402.066 2308.23C362.393 2331.14 336.706 2368.97 328 2410.53C368.35 2423.78 413.952 2420.44 453.625 2397.54ZM602.375 2397.54C562.703 2374.63 537.015 2336.81 528.31 2295.24C568.66 2282 614.261 2285.33 653.934 2308.23C693.607 2331.14 719.294 2368.97 728 2410.53C687.65 2423.78 642.048 2420.44 602.375 2397.54ZM514.826 2420.99C537.731 2381.32 541.064 2335.72 527.82 2295.37C486.254 2304.07 448.428 2329.76 425.523 2369.43C402.618 2409.11 399.285 2454.71 412.529 2495.06C454.095 2486.35 491.921 2460.67 514.826 2420.99ZM541.174 2420.99C518.269 2381.32 514.936 2335.72 528.18 2295.37C569.746 2304.07 607.572 2329.76 630.477 2369.43C653.382 2409.11 656.714 2454.71 643.471 2495.06C601.905 2486.35 564.079 2460.67 541.174 2420.99Z" stroke="#FF0000" stroke-width="4"/>
<path d="M897.997 2324.58C929.642 2296.26 949.556 2255.1 949.556 2209.29C949.556 2163.48 929.642 2122.32 897.997 2094C866.353 2122.32 846.438 2163.48 846.438 2209.29C846.438 2255.1 866.353 2296.26 897.997 2324.58ZM897.997 2324.58V2429M897.997 2494V2429M897.997 2429L857.003 2494M897.997 2429L938.992 2494M823.625 2222.46C863.297 2245.37 888.985 2283.19 897.69 2324.76C857.34 2338 811.739 2334.67 772.066 2311.77C732.393 2288.86 706.706 2251.03 698 2209.47C738.35 2196.22 783.952 2199.56 823.625 2222.46ZM972.375 2222.46C932.703 2245.37 907.015 2283.19 898.31 2324.76C938.66 2338 984.261 2334.67 1023.93 2311.77C1063.61 2288.86 1089.29 2251.03 1098 2209.47C1057.65 2196.22 1012.05 2199.56 972.375 2222.46ZM884.826 2199.01C907.731 2238.68 911.064 2284.28 897.82 2324.63C856.254 2315.93 818.428 2290.24 795.523 2250.57C772.618 2210.89 769.285 2165.29 782.529 2124.94C824.095 2133.65 861.921 2159.33 884.826 2199.01ZM911.174 2199.01C888.269 2238.68 884.936 2284.28 898.18 2324.63C939.746 2315.93 977.572 2290.24 1000.48 2250.57C1023.38 2210.89 1026.71 2165.29 1013.47 2124.94C971.905 2133.65 934.079 2159.33 911.174 2199.01Z" stroke="#FF0000" stroke-width="4"/>
</g>
<path d="M507.12 744V637.6H549.376C555.152 637.6 560.371 639.069 565.032 642.008C569.744 644.896 573.468 648.797 576.204 653.712C578.991 658.576 580.384 663.972 580.384 669.9C580.384 674.561 579.573 678.893 577.952 682.896C576.331 686.848 574.051 690.319 571.112 693.308C568.173 696.297 564.753 698.628 560.852 700.3L586.16 744H561.992L537.748 702.2H528.096V744H507.12ZM528.096 681.224H546.868C549.148 681.224 551.225 680.667 553.1 679.552C555.025 678.387 556.545 676.841 557.66 674.916C558.825 672.94 559.408 670.761 559.408 668.38C559.408 666.049 558.825 663.921 557.66 661.996C556.545 660.02 555.025 658.449 553.1 657.284C551.225 656.119 549.148 655.536 546.868 655.536H528.096V681.224ZM627.396 745.976C620.404 745.976 614.02 744.177 608.244 740.58C602.519 736.983 597.933 732.144 594.488 726.064C591.093 719.984 589.396 713.271 589.396 705.924C589.396 700.401 590.384 695.233 592.36 690.42C594.336 685.556 597.047 681.3 600.492 677.652C603.988 673.953 608.041 671.065 612.652 668.988C617.263 666.911 622.177 665.872 627.396 665.872C633.425 665.872 638.923 667.164 643.888 669.748C648.904 672.332 653.135 675.853 656.58 680.312C660.076 684.771 662.559 689.812 664.028 695.436C665.548 701.06 665.801 706.912 664.788 712.992H612.044C612.703 715.221 613.716 717.248 615.084 719.072C616.503 720.845 618.225 722.264 620.252 723.328C622.329 724.392 624.711 724.949 627.396 725C630.031 725.051 632.463 724.443 634.692 723.176C636.921 721.909 638.821 720.212 640.392 718.084L661.824 723.024C658.733 729.763 654.123 735.285 647.992 739.592C641.861 743.848 634.996 745.976 627.396 745.976ZM611.284 697.488H643.584C642.925 694.955 641.811 692.675 640.24 690.648C638.669 688.621 636.769 687.025 634.54 685.86C632.361 684.695 629.98 684.112 627.396 684.112C624.863 684.112 622.481 684.695 620.252 685.86C618.073 687.025 616.199 688.621 614.628 690.648C613.108 692.624 611.993 694.904 611.284 697.488ZM675.597 744V630H696.573V744H675.597ZM714.784 668H735.76V744H714.784V668ZM725.424 659.26C722.384 659.26 719.825 658.247 717.748 656.22C715.671 654.193 714.632 651.685 714.632 648.696C714.632 645.707 715.671 643.199 717.748 641.172C719.825 639.145 722.359 638.132 725.348 638.132C728.337 638.132 730.845 639.145 732.872 641.172C734.949 643.199 735.988 645.707 735.988 648.696C735.988 651.685 734.975 654.193 732.948 656.22C730.972 658.247 728.464 659.26 725.424 659.26ZM807.069 668H828.045V745.064C828.045 750.688 826.905 755.755 824.625 760.264C822.345 764.824 819.229 768.725 815.277 771.968C811.376 775.211 806.867 777.693 801.749 779.416C796.683 781.139 791.312 782 785.637 782C780.267 782 775.124 780.936 770.209 778.808C765.295 776.731 760.937 773.843 757.137 770.144C753.337 766.445 750.373 762.189 748.245 757.376L767.397 748.636C768.461 751.169 769.905 753.348 771.729 755.172C773.604 756.996 775.732 758.389 778.113 759.352C780.545 760.365 783.053 760.872 785.637 760.872C788.424 760.872 791.084 760.543 793.617 759.884C796.201 759.225 798.507 758.237 800.533 756.92C802.56 755.603 804.156 753.956 805.321 751.98C806.487 750.004 807.069 747.699 807.069 745.064V736.248C804.739 739.136 801.901 741.492 798.557 743.316C795.264 745.089 791.439 745.976 787.081 745.976C781.609 745.976 776.467 744.937 771.653 742.86C766.891 740.783 762.685 737.92 759.037 734.272C755.389 730.573 752.527 726.317 750.449 721.504C748.372 716.691 747.333 711.523 747.333 706C747.333 700.477 748.372 695.309 750.449 690.496C752.527 685.683 755.389 681.452 759.037 677.804C762.685 674.105 766.891 671.217 771.653 669.14C776.467 667.063 781.609 666.024 787.081 666.024C791.439 666.024 795.264 666.936 798.557 668.76C801.901 670.533 804.739 672.864 807.069 675.752V668ZM787.385 725.836C790.831 725.836 793.947 724.949 796.733 723.176C799.52 721.352 801.699 718.945 803.269 715.956C804.891 712.967 805.701 709.648 805.701 706C805.701 702.352 804.891 699.033 803.269 696.044C801.699 693.004 799.52 690.597 796.733 688.824C793.947 687.051 790.831 686.164 787.385 686.164C783.991 686.164 780.875 687.051 778.037 688.824C775.251 690.597 773.021 693.004 771.349 696.044C769.677 699.033 768.841 702.352 768.841 706C768.841 709.648 769.677 712.992 771.349 716.032C773.021 719.021 775.251 721.403 778.037 723.176C780.875 724.949 783.991 725.836 787.385 725.836ZM844.222 668H865.198V744H844.222V668ZM854.862 659.26C851.822 659.26 849.263 658.247 847.186 656.22C845.108 654.193 844.07 651.685 844.07 648.696C844.07 645.707 845.108 643.199 847.186 641.172C849.263 639.145 851.796 638.132 854.786 638.132C857.775 638.132 860.283 639.145 862.31 641.172C864.387 643.199 865.426 645.707 865.426 648.696C865.426 651.685 864.412 654.193 862.386 656.22C860.41 658.247 857.902 659.26 854.862 659.26ZM914.771 745.976C907.779 745.976 901.395 744.177 895.619 740.58C889.894 736.983 885.308 732.169 881.863 726.14C878.468 720.06 876.771 713.347 876.771 706C876.771 700.427 877.759 695.233 879.735 690.42C881.711 685.556 884.422 681.3 887.867 677.652C891.363 673.953 895.416 671.065 900.027 668.988C904.638 666.911 909.552 665.872 914.771 665.872C921.763 665.872 928.122 667.671 933.847 671.268C939.623 674.865 944.208 679.704 947.603 685.784C951.048 691.864 952.771 698.603 952.771 706C952.771 711.523 951.783 716.691 949.807 721.504C947.831 726.317 945.095 730.573 941.599 734.272C938.154 737.92 934.126 740.783 929.515 742.86C924.955 744.937 920.04 745.976 914.771 745.976ZM914.771 725C918.014 725 920.927 724.139 923.511 722.416C926.095 720.643 928.122 718.312 929.591 715.424C931.06 712.536 931.795 709.395 931.795 706C931.795 702.504 931.01 699.312 929.439 696.424C927.919 693.485 925.867 691.155 923.283 689.432C920.699 687.709 917.862 686.848 914.771 686.848C911.579 686.848 908.691 687.735 906.107 689.508C903.523 691.281 901.471 693.612 899.951 696.5C898.482 699.388 897.747 702.555 897.747 706C897.747 709.597 898.507 712.84 900.027 715.728C901.598 718.565 903.675 720.82 906.259 722.492C908.843 724.164 911.68 725 914.771 725ZM959.338 716.184V668H980.314V710.408C980.314 713.093 980.947 715.525 982.214 717.704C983.531 719.832 985.279 721.529 987.458 722.796C989.636 724.063 992.018 724.696 994.602 724.696C997.236 724.696 999.643 724.063 1001.82 722.796C1004 721.529 1005.72 719.832 1006.99 717.704C1008.26 715.525 1008.89 713.093 1008.89 710.408V668H1029.87L1029.94 744H1008.97L1008.89 738.224C1006.36 740.656 1003.37 742.556 999.922 743.924C996.527 745.292 992.93 745.976 989.13 745.976C983.658 745.976 978.667 744.633 974.158 741.948C969.648 739.263 966.051 735.691 963.366 731.232C960.68 726.723 959.338 721.707 959.338 716.184ZM1067.32 745.368C1063.42 745.064 1059.67 744.253 1056.07 742.936C1052.48 741.568 1049.26 739.744 1046.42 737.464C1043.64 735.133 1041.46 732.347 1039.89 729.104L1057.52 721.504C1058.08 722.315 1058.91 723.201 1060.03 724.164C1061.14 725.076 1062.48 725.887 1064.05 726.596C1065.68 727.305 1067.55 727.66 1069.68 727.66C1071.25 727.66 1072.77 727.483 1074.24 727.128C1075.71 726.723 1076.9 726.089 1077.81 725.228C1078.72 724.316 1079.18 723.125 1079.18 721.656C1079.18 720.035 1078.6 718.793 1077.43 717.932C1076.26 717.071 1074.85 716.437 1073.17 716.032C1071.55 715.576 1069.98 715.196 1068.46 714.892C1063.8 714.081 1059.39 712.637 1055.24 710.56C1051.13 708.432 1047.79 705.696 1045.21 702.352C1042.62 699.008 1041.33 695.005 1041.33 690.344C1041.33 685.227 1042.67 680.819 1045.36 677.12C1048.04 673.371 1051.54 670.483 1055.85 668.456C1060.15 666.429 1064.81 665.416 1069.83 665.416C1075.76 665.416 1081.26 666.657 1086.32 669.14C1091.39 671.623 1095.47 675.119 1098.56 679.628L1081.99 689.432C1081.33 688.469 1080.47 687.557 1079.41 686.696C1078.39 685.784 1077.2 685.024 1075.83 684.416C1074.52 683.757 1073.1 683.377 1071.58 683.276C1069.6 683.124 1067.8 683.251 1066.18 683.656C1064.56 684.011 1063.27 684.695 1062.31 685.708C1061.39 686.721 1060.94 688.089 1060.94 689.812C1060.94 691.484 1061.67 692.725 1063.14 693.536C1064.61 694.296 1066.31 694.879 1068.23 695.284C1070.16 695.639 1071.86 696.069 1073.33 696.576C1077.73 697.995 1081.86 699.819 1085.71 702.048C1089.62 704.227 1092.76 706.912 1095.14 710.104C1097.52 713.296 1098.63 717.045 1098.48 721.352C1098.48 726.368 1096.99 730.776 1094 734.576C1091.01 738.325 1087.13 741.188 1082.37 743.164C1077.66 745.089 1072.64 745.824 1067.32 745.368Z" fill="#272727"/>
<defs>
<clipPath id="clip0_218_55">
<rect width="200" height="2360" fill="white" transform="translate(700 100)"/>
</clipPath>
</defs>
</svg>
