<svg width="1600" height="2560" viewBox="0 0 1600 2560" fill="none" xmlns="http://www.w3.org/2000/svg">
<rect width="1600" height="2560" fill="white"/>
<rect width="1600" height="2560" fill="#272727" fill-opacity="0.1"/>
<g clip-path="url(#clip0_218_49)">
<rect width="1400" height="1200" transform="translate(100 1360)" fill="white"/>
<rect width="1400" height="1200" transform="translate(100 1360)" fill="#272727" fill-opacity="0.2"/>
<path d="M244.997 1442.58C276.642 1414.26 296.556 1373.1 296.556 1327.29C296.556 1281.48 276.642 1240.32 244.997 1212C213.353 1240.32 193.438 1281.48 193.438 1327.29C193.438 1373.1 213.353 1414.26 244.997 1442.58ZM244.997 1442.58V1547M244.997 1612V1547M244.997 1547L204.003 1612M244.997 1547L285.992 1612M170.625 1340.46C210.297 1363.37 235.985 1401.19 244.69 1442.76C204.34 1456 158.739 1452.67 119.066 1429.77C79.393 1406.86 53.7058 1369.03 45 1327.47C85.3501 1314.22 130.952 1317.56 170.625 1340.46ZM319.375 1340.46C279.703 1363.37 254.015 1401.19 245.31 1442.76C285.66 1456 331.261 1452.67 370.934 1429.77C410.607 1406.86 436.294 1369.03 445 1327.47C404.65 1314.22 359.048 1317.56 319.375 1340.46ZM231.826 1317.01C254.731 1356.68 258.064 1402.28 244.82 1442.63C203.254 1433.93 165.428 1408.24 142.523 1368.57C119.618 1328.89 116.285 1283.29 129.529 1242.94C171.095 1251.65 208.921 1277.33 231.826 1317.01ZM258.174 1317.01C235.269 1356.68 231.936 1402.28 245.18 1442.63C286.746 1433.93 324.572 1408.24 347.477 1368.57C370.382 1328.89 373.714 1283.29 360.471 1242.94C318.905 1251.65 281.079 1277.33 258.174 1317.01Z" stroke="#272727" stroke-width="4"/>
<path d="M614.997 1413.42C646.642 1441.74 666.556 1482.9 666.556 1528.71C666.556 1574.52 646.642 1615.68 614.997 1644C583.353 1615.68 563.438 1574.52 563.438 1528.71C563.438 1482.9 583.353 1441.74 614.997 1413.42ZM614.997 1413.42V1309M614.997 1244V1309M614.997 1309L574.003 1244M614.997 1309L655.992 1244M540.625 1515.54C580.297 1492.63 605.985 1454.81 614.69 1413.24C574.34 1400 528.739 1403.33 489.066 1426.23C449.393 1449.14 423.706 1486.97 415 1528.53C455.35 1541.78 500.952 1538.44 540.625 1515.54ZM689.375 1515.54C649.703 1492.63 624.015 1454.81 615.31 1413.24C655.66 1400 701.261 1403.33 740.934 1426.23C780.607 1449.14 806.294 1486.97 815 1528.53C774.65 1541.78 729.048 1538.44 689.375 1515.54ZM601.826 1538.99C624.731 1499.32 628.064 1453.72 614.82 1413.37C573.254 1422.07 535.428 1447.76 512.523 1487.43C489.618 1527.11 486.285 1572.71 499.529 1613.06C541.095 1604.35 578.921 1578.67 601.826 1538.99ZM628.174 1538.99C605.269 1499.32 601.936 1453.72 615.18 1413.37C656.746 1422.07 694.572 1447.76 717.477 1487.43C740.382 1527.11 743.714 1572.71 730.471 1613.06C688.905 1604.35 651.079 1578.67 628.174 1538.99Z" stroke="#272727" stroke-width="4"/>
<path d="M984.997 1442.58C1016.64 1414.26 1036.56 1373.1 1036.56 1327.29C1036.56 1281.48 1016.64 1240.32 984.997 1212C953.353 1240.32 933.438 1281.48 933.438 1327.29C933.438 1373.1 953.353 1414.26 984.997 1442.58ZM984.997 1442.58V1547M984.997 1612V1547M984.997 1547L944.003 1612M984.997 1547L1025.99 1612M910.625 1340.46C950.297 1363.37 975.985 1401.19 984.69 1442.76C944.34 1456 898.739 1452.67 859.066 1429.77C819.393 1406.86 793.706 1369.03 785 1327.47C825.35 1314.22 870.952 1317.56 910.625 1340.46ZM1059.38 1340.46C1019.7 1363.37 994.015 1401.19 985.31 1442.76C1025.66 1456 1071.26 1452.67 1110.93 1429.77C1150.61 1406.86 1176.29 1369.03 1185 1327.47C1144.65 1314.22 1099.05 1317.56 1059.38 1340.46ZM971.826 1317.01C994.731 1356.68 998.064 1402.28 984.82 1442.63C943.254 1433.93 905.428 1408.24 882.523 1368.57C859.618 1328.89 856.285 1283.29 869.529 1242.94C911.095 1251.65 948.921 1277.33 971.826 1317.01ZM998.174 1317.01C975.269 1356.68 971.936 1402.28 985.18 1442.63C1026.75 1433.93 1064.57 1408.24 1087.48 1368.57C1110.38 1328.89 1113.71 1283.29 1100.47 1242.94C1058.9 1251.65 1021.08 1277.33 998.174 1317.01Z" stroke="#272727" stroke-width="4"/>
<path d="M1355 1413.42C1386.64 1441.74 1406.56 1482.9 1406.56 1528.71C1406.56 1574.52 1386.64 1615.68 1355 1644C1323.35 1615.68 1303.44 1574.52 1303.44 1528.71C1303.44 1482.9 1323.35 1441.74 1355 1413.42ZM1355 1413.42V1309M1355 1244V1309M1355 1309L1314 1244M1355 1309L1395.99 1244M1280.62 1515.54C1320.3 1492.63 1345.98 1454.81 1354.69 1413.24C1314.34 1400 1268.74 1403.33 1229.07 1426.23C1189.39 1449.14 1163.71 1486.97 1155 1528.53C1195.35 1541.78 1240.95 1538.44 1280.62 1515.54ZM1429.38 1515.54C1389.7 1492.63 1364.02 1454.81 1355.31 1413.24C1395.66 1400 1441.26 1403.33 1480.93 1426.23C1520.61 1449.14 1546.29 1486.97 1555 1528.53C1514.65 1541.78 1469.05 1538.44 1429.38 1515.54ZM1341.83 1538.99C1364.73 1499.32 1368.06 1453.72 1354.82 1413.37C1313.25 1422.07 1275.43 1447.76 1252.52 1487.43C1229.62 1527.11 1226.29 1572.71 1239.53 1613.06C1281.09 1604.35 1318.92 1578.67 1341.83 1538.99ZM1368.17 1538.99C1345.27 1499.32 1341.94 1453.72 1355.18 1413.37C1396.75 1422.07 1434.57 1447.76 1457.48 1487.43C1480.38 1527.11 1483.71 1572.71 1470.47 1613.06C1428.9 1604.35 1391.08 1578.67 1368.17 1538.99Z" stroke="#272727" stroke-width="4"/>
<path d="M244.997 1854.58C276.642 1826.26 296.556 1785.1 296.556 1739.29C296.556 1693.48 276.642 1652.32 244.997 1624C213.353 1652.32 193.438 1693.48 193.438 1739.29C193.438 1785.1 213.353 1826.26 244.997 1854.58ZM244.997 1854.58V1959M244.997 2024V1959M244.997 1959L204.003 2024M244.997 1959L285.992 2024M170.625 1752.46C210.297 1775.37 235.985 1813.19 244.69 1854.76C204.34 1868 158.739 1864.67 119.066 1841.77C79.393 1818.86 53.7058 1781.03 45 1739.47C85.3501 1726.22 130.952 1729.56 170.625 1752.46ZM319.375 1752.46C279.703 1775.37 254.015 1813.19 245.31 1854.76C285.66 1868 331.261 1864.67 370.934 1841.77C410.607 1818.86 436.294 1781.03 445 1739.47C404.65 1726.22 359.048 1729.56 319.375 1752.46ZM231.826 1729.01C254.731 1768.68 258.064 1814.28 244.82 1854.63C203.254 1845.93 165.428 1820.24 142.523 1780.57C119.618 1740.89 116.285 1695.29 129.529 1654.94C171.095 1663.65 208.921 1689.33 231.826 1729.01ZM258.174 1729.01C235.269 1768.68 231.936 1814.28 245.18 1854.63C286.746 1845.93 324.572 1820.24 347.477 1780.57C370.382 1740.89 373.714 1695.29 360.471 1654.94C318.905 1663.65 281.079 1689.33 258.174 1729.01Z" stroke="#272727" stroke-width="4"/>
<path d="M614.997 1825.42C646.642 1853.74 666.556 1894.9 666.556 1940.71C666.556 1986.52 646.642 2027.68 614.997 2056C583.353 2027.68 563.438 1986.52 563.438 1940.71C563.438 1894.9 583.353 1853.74 614.997 1825.42ZM614.997 1825.42V1721M614.997 1656V1721M614.997 1721L574.003 1656M614.997 1721L655.992 1656M540.625 1927.54C580.297 1904.63 605.985 1866.81 614.69 1825.24C574.34 1812 528.739 1815.33 489.066 1838.23C449.393 1861.14 423.706 1898.97 415 1940.53C455.35 1953.78 500.952 1950.44 540.625 1927.54ZM689.375 1927.54C649.703 1904.63 624.015 1866.81 615.31 1825.24C655.66 1812 701.261 1815.33 740.934 1838.23C780.607 1861.14 806.294 1898.97 815 1940.53C774.65 1953.78 729.048 1950.44 689.375 1927.54ZM601.826 1950.99C624.731 1911.32 628.064 1865.72 614.82 1825.37C573.254 1834.07 535.428 1859.76 512.523 1899.43C489.618 1939.11 486.285 1984.71 499.529 2025.06C541.095 2016.35 578.921 1990.67 601.826 1950.99ZM628.174 1950.99C605.269 1911.32 601.936 1865.72 615.18 1825.37C656.746 1834.07 694.572 1859.76 717.477 1899.43C740.382 1939.11 743.714 1984.71 730.471 2025.06C688.905 2016.35 651.079 1990.67 628.174 1950.99Z" stroke="#272727" stroke-width="4"/>
<path d="M984.997 1854.58C1016.64 1826.26 1036.56 1785.1 1036.56 1739.29C1036.56 1693.48 1016.64 1652.32 984.997 1624C953.353 1652.32 933.438 1693.48 933.438 1739.29C933.438 1785.1 953.353 1826.26 984.997 1854.58ZM984.997 1854.58V1959M984.997 2024V1959M984.997 1959L944.003 2024M984.997 1959L1025.99 2024M910.625 1752.46C950.297 1775.37 975.985 1813.19 984.69 1854.76C944.34 1868 898.739 1864.67 859.066 1841.77C819.393 1818.86 793.706 1781.03 785 1739.47C825.35 1726.22 870.952 1729.56 910.625 1752.46ZM1059.38 1752.46C1019.7 1775.37 994.015 1813.19 985.31 1854.76C1025.66 1868 1071.26 1864.67 1110.93 1841.77C1150.61 1818.86 1176.29 1781.03 1185 1739.47C1144.65 1726.22 1099.05 1729.56 1059.38 1752.46ZM971.826 1729.01C994.731 1768.68 998.064 1814.28 984.82 1854.63C943.254 1845.93 905.428 1820.24 882.523 1780.57C859.618 1740.89 856.285 1695.29 869.529 1654.94C911.095 1663.65 948.921 1689.33 971.826 1729.01ZM998.174 1729.01C975.269 1768.68 971.936 1814.28 985.18 1854.63C1026.75 1845.93 1064.57 1820.24 1087.48 1780.57C1110.38 1740.89 1113.71 1695.29 1100.47 1654.94C1058.9 1663.65 1021.08 1689.33 998.174 1729.01Z" stroke="#272727" stroke-width="4"/>
<path d="M1355 1825.42C1386.64 1853.74 1406.56 1894.9 1406.56 1940.71C1406.56 1986.52 1386.64 2027.68 1355 2056C1323.35 2027.68 1303.44 1986.52 1303.44 1940.71C1303.44 1894.9 1323.35 1853.74 1355 1825.42ZM1355 1825.42V1721M1355 1656V1721M1355 1721L1314 1656M1355 1721L1395.99 1656M1280.62 1927.54C1320.3 1904.63 1345.98 1866.81 1354.69 1825.24C1314.34 1812 1268.74 1815.33 1229.07 1838.23C1189.39 1861.14 1163.71 1898.97 1155 1940.53C1195.35 1953.78 1240.95 1950.44 1280.62 1927.54ZM1429.38 1927.54C1389.7 1904.63 1364.02 1866.81 1355.31 1825.24C1395.66 1812 1441.26 1815.33 1480.93 1838.23C1520.61 1861.14 1546.29 1898.97 1555 1940.53C1514.65 1953.78 1469.05 1950.44 1429.38 1927.54ZM1341.83 1950.99C1364.73 1911.32 1368.06 1865.72 1354.82 1825.37C1313.25 1834.07 1275.43 1859.76 1252.52 1899.43C1229.62 1939.11 1226.29 1984.71 1239.53 2025.06C1281.09 2016.35 1318.92 1990.67 1341.83 1950.99ZM1368.17 1950.99C1345.27 1911.32 1341.94 1865.72 1355.18 1825.37C1396.75 1834.07 1434.57 1859.76 1457.48 1899.43C1480.38 1939.11 1483.71 1984.71 1470.47 2025.06C1428.9 2016.35 1391.08 1990.67 1368.17 1950.99Z" stroke="#272727" stroke-width="4"/>
<path d="M244.997 2266.58C276.642 2238.26 296.556 2197.1 296.556 2151.29C296.556 2105.48 276.642 2064.32 244.997 2036C213.353 2064.32 193.438 2105.48 193.438 2151.29C193.438 2197.1 213.353 2238.26 244.997 2266.58ZM244.997 2266.58V2371M244.997 2436V2371M244.997 2371L204.003 2436M244.997 2371L285.992 2436M170.625 2164.46C210.297 2187.37 235.985 2225.19 244.69 2266.76C204.34 2280 158.739 2276.67 119.066 2253.77C79.393 2230.86 53.7058 2193.03 45 2151.47C85.3501 2138.22 130.952 2141.56 170.625 2164.46ZM319.375 2164.46C279.703 2187.37 254.015 2225.19 245.31 2266.76C285.66 2280 331.261 2276.67 370.934 2253.77C410.607 2230.86 436.294 2193.03 445 2151.47C404.65 2138.22 359.048 2141.56 319.375 2164.46ZM231.826 2141.01C254.731 2180.68 258.064 2226.28 244.82 2266.63C203.254 2257.93 165.428 2232.24 142.523 2192.57C119.618 2152.89 116.285 2107.29 129.529 2066.94C171.095 2075.65 208.921 2101.33 231.826 2141.01ZM258.174 2141.01C235.269 2180.68 231.936 2226.28 245.18 2266.63C286.746 2257.93 324.572 2232.24 347.477 2192.57C370.382 2152.89 373.714 2107.29 360.471 2066.94C318.905 2075.65 281.079 2101.33 258.174 2141.01Z" stroke="#272727" stroke-width="4"/>
<path d="M614.997 2237.42C646.642 2265.74 666.556 2306.9 666.556 2352.71C666.556 2398.52 646.642 2439.68 614.997 2468C583.353 2439.68 563.438 2398.52 563.438 2352.71C563.438 2306.9 583.353 2265.74 614.997 2237.42ZM614.997 2237.42V2133M614.997 2068V2133M614.997 2133L574.003 2068M614.997 2133L655.992 2068M540.625 2339.54C580.297 2316.63 605.985 2278.81 614.69 2237.24C574.34 2224 528.739 2227.33 489.066 2250.23C449.393 2273.14 423.706 2310.97 415 2352.53C455.35 2365.78 500.952 2362.44 540.625 2339.54ZM689.375 2339.54C649.703 2316.63 624.015 2278.81 615.31 2237.24C655.66 2224 701.261 2227.33 740.934 2250.23C780.607 2273.14 806.294 2310.97 815 2352.53C774.65 2365.78 729.048 2362.44 689.375 2339.54ZM601.826 2362.99C624.731 2323.32 628.064 2277.72 614.82 2237.37C573.254 2246.07 535.428 2271.76 512.523 2311.43C489.618 2351.11 486.285 2396.71 499.529 2437.06C541.095 2428.35 578.921 2402.67 601.826 2362.99ZM628.174 2362.99C605.269 2323.32 601.936 2277.72 615.18 2237.37C656.746 2246.07 694.572 2271.76 717.477 2311.43C740.382 2351.11 743.714 2396.71 730.471 2437.06C688.905 2428.35 651.079 2402.67 628.174 2362.99Z" stroke="#272727" stroke-width="4"/>
<path d="M984.997 2266.58C1016.64 2238.26 1036.56 2197.1 1036.56 2151.29C1036.56 2105.48 1016.64 2064.32 984.997 2036C953.353 2064.32 933.438 2105.48 933.438 2151.29C933.438 2197.1 953.353 2238.26 984.997 2266.58ZM984.997 2266.58V2371M984.997 2436V2371M984.997 2371L944.003 2436M984.997 2371L1025.99 2436M910.625 2164.46C950.297 2187.37 975.985 2225.19 984.69 2266.76C944.34 2280 898.739 2276.67 859.066 2253.77C819.393 2230.86 793.706 2193.03 785 2151.47C825.35 2138.22 870.952 2141.56 910.625 2164.46ZM1059.38 2164.46C1019.7 2187.37 994.015 2225.19 985.31 2266.76C1025.66 2280 1071.26 2276.67 1110.93 2253.77C1150.61 2230.86 1176.29 2193.03 1185 2151.47C1144.65 2138.22 1099.05 2141.56 1059.38 2164.46ZM971.826 2141.01C994.731 2180.68 998.064 2226.28 984.82 2266.63C943.254 2257.93 905.428 2232.24 882.523 2192.57C859.618 2152.89 856.285 2107.29 869.529 2066.94C911.095 2075.65 948.921 2101.33 971.826 2141.01ZM998.174 2141.01C975.269 2180.68 971.936 2226.28 985.18 2266.63C1026.75 2257.93 1064.57 2232.24 1087.48 2192.57C1110.38 2152.89 1113.71 2107.29 1100.47 2066.94C1058.9 2075.65 1021.08 2101.33 998.174 2141.01Z" stroke="#272727" stroke-width="4"/>
<path d="M1355 2237.42C1386.64 2265.74 1406.56 2306.9 1406.56 2352.71C1406.56 2398.52 1386.64 2439.68 1355 2468C1323.35 2439.68 1303.44 2398.52 1303.44 2352.71C1303.44 2306.9 1323.35 2265.74 1355 2237.42ZM1355 2237.42V2133M1355 2068V2133M1355 2133L1314 2068M1355 2133L1395.99 2068M1280.62 2339.54C1320.3 2316.63 1345.98 2278.81 1354.69 2237.24C1314.34 2224 1268.74 2227.33 1229.07 2250.23C1189.39 2273.14 1163.71 2310.97 1155 2352.53C1195.35 2365.78 1240.95 2362.44 1280.62 2339.54ZM1429.38 2339.54C1389.7 2316.63 1364.02 2278.81 1355.31 2237.24C1395.66 2224 1441.26 2227.33 1480.93 2250.23C1520.61 2273.14 1546.29 2310.97 1555 2352.53C1514.65 2365.78 1469.05 2362.44 1429.38 2339.54ZM1341.83 2362.99C1364.73 2323.32 1368.06 2277.72 1354.82 2237.37C1313.25 2246.07 1275.43 2271.76 1252.52 2311.43C1229.62 2351.11 1226.29 2396.71 1239.53 2437.06C1281.09 2428.35 1318.92 2402.67 1341.83 2362.99ZM1368.17 2362.99C1345.27 2323.32 1341.94 2277.72 1355.18 2237.37C1396.75 2246.07 1434.57 2271.76 1457.48 2311.43C1480.38 2351.11 1483.71 2396.71 1470.47 2437.06C1428.9 2428.35 1391.08 2402.67 1368.17 2362.99Z" stroke="#272727" stroke-width="4"/>
<path d="M244.997 2678.58C276.642 2650.26 296.556 2609.1 296.556 2563.29C296.556 2517.48 276.642 2476.32 244.997 2448C213.353 2476.32 193.438 2517.48 193.438 2563.29C193.438 2609.1 213.353 2650.26 244.997 2678.58ZM244.997 2678.58V2783M244.997 2848V2783M244.997 2783L204.003 2848M244.997 2783L285.992 2848M170.625 2576.46C210.297 2599.37 235.985 2637.19 244.69 2678.76C204.34 2692 158.739 2688.67 119.066 2665.77C79.393 2642.86 53.7058 2605.03 45 2563.47C85.3501 2550.22 130.952 2553.56 170.625 2576.46ZM319.375 2576.46C279.703 2599.37 254.015 2637.19 245.31 2678.76C285.66 2692 331.261 2688.67 370.934 2665.77C410.607 2642.86 436.294 2605.03 445 2563.47C404.65 2550.22 359.048 2553.56 319.375 2576.46ZM231.826 2553.01C254.731 2592.68 258.064 2638.28 244.82 2678.63C203.254 2669.93 165.428 2644.24 142.523 2604.57C119.618 2564.89 116.285 2519.29 129.529 2478.94C171.095 2487.65 208.921 2513.33 231.826 2553.01ZM258.174 2553.01C235.269 2592.68 231.936 2638.28 245.18 2678.63C286.746 2669.93 324.572 2644.24 347.477 2604.57C370.382 2564.89 373.714 2519.29 360.471 2478.94C318.905 2487.65 281.079 2513.33 258.174 2553.01Z" stroke="#272727" stroke-width="4"/>
<path d="M614.997 2649.42C646.642 2677.74 666.556 2718.9 666.556 2764.71C666.556 2810.52 646.642 2851.68 614.997 2880C583.353 2851.68 563.438 2810.52 563.438 2764.71C563.438 2718.9 583.353 2677.74 614.997 2649.42ZM614.997 2649.42V2545M614.997 2480V2545M614.997 2545L574.003 2480M614.997 2545L655.992 2480M540.625 2751.54C580.297 2728.63 605.985 2690.81 614.69 2649.24C574.34 2636 528.739 2639.33 489.066 2662.23C449.393 2685.14 423.706 2722.97 415 2764.53C455.35 2777.78 500.952 2774.44 540.625 2751.54ZM689.375 2751.54C649.703 2728.63 624.015 2690.81 615.31 2649.24C655.66 2636 701.261 2639.33 740.934 2662.23C780.607 2685.14 806.294 2722.97 815 2764.53C774.65 2777.78 729.048 2774.44 689.375 2751.54ZM601.826 2774.99C624.731 2735.32 628.064 2689.72 614.82 2649.37C573.254 2658.07 535.428 2683.76 512.523 2723.43C489.618 2763.11 486.285 2808.71 499.529 2849.06C541.095 2840.35 578.921 2814.67 601.826 2774.99ZM628.174 2774.99C605.269 2735.32 601.936 2689.72 615.18 2649.37C656.746 2658.07 694.572 2683.76 717.477 2723.43C740.382 2763.11 743.714 2808.71 730.471 2849.06C688.905 2840.35 651.079 2814.67 628.174 2774.99Z" stroke="#272727" stroke-width="4"/>
<path d="M984.997 2678.58C1016.64 2650.26 1036.56 2609.1 1036.56 2563.29C1036.56 2517.48 1016.64 2476.32 984.997 2448C953.353 2476.32 933.438 2517.48 933.438 2563.29C933.438 2609.1 953.353 2650.26 984.997 2678.58ZM984.997 2678.58V2783M984.997 2848V2783M984.997 2783L944.003 2848M984.997 2783L1025.99 2848M910.625 2576.46C950.297 2599.37 975.985 2637.19 984.69 2678.76C944.34 2692 898.739 2688.67 859.066 2665.77C819.393 2642.86 793.706 2605.03 785 2563.47C825.35 2550.22 870.952 2553.56 910.625 2576.46ZM1059.38 2576.46C1019.7 2599.37 994.015 2637.19 985.31 2678.76C1025.66 2692 1071.26 2688.67 1110.93 2665.77C1150.61 2642.86 1176.29 2605.03 1185 2563.47C1144.65 2550.22 1099.05 2553.56 1059.38 2576.46ZM971.826 2553.01C994.731 2592.68 998.064 2638.28 984.82 2678.63C943.254 2669.93 905.428 2644.24 882.523 2604.57C859.618 2564.89 856.285 2519.29 869.529 2478.94C911.095 2487.65 948.921 2513.33 971.826 2553.01ZM998.174 2553.01C975.269 2592.68 971.936 2638.28 985.18 2678.63C1026.75 2669.93 1064.57 2644.24 1087.48 2604.57C1110.38 2564.89 1113.71 2519.29 1100.47 2478.94C1058.9 2487.65 1021.08 2513.33 998.174 2553.01Z" stroke="#272727" stroke-width="4"/>
<path d="M1355 2649.42C1386.64 2677.74 1406.56 2718.9 1406.56 2764.71C1406.56 2810.52 1386.64 2851.68 1355 2880C1323.35 2851.68 1303.44 2810.52 1303.44 2764.71C1303.44 2718.9 1323.35 2677.74 1355 2649.42ZM1355 2649.42V2545M1355 2480V2545M1355 2545L1314 2480M1355 2545L1395.99 2480M1280.62 2751.54C1320.3 2728.63 1345.98 2690.81 1354.69 2649.24C1314.34 2636 1268.74 2639.33 1229.07 2662.23C1189.39 2685.14 1163.71 2722.97 1155 2764.53C1195.35 2777.78 1240.95 2774.44 1280.62 2751.54ZM1429.38 2751.54C1389.7 2728.63 1364.02 2690.81 1355.31 2649.24C1395.66 2636 1441.26 2639.33 1480.93 2662.23C1520.61 2685.14 1546.29 2722.97 1555 2764.53C1514.65 2777.78 1469.05 2774.44 1429.38 2751.54ZM1341.83 2774.99C1364.73 2735.32 1368.06 2689.72 1354.82 2649.37C1313.25 2658.07 1275.43 2683.76 1252.52 2723.43C1229.62 2763.11 1226.29 2808.71 1239.53 2849.06C1281.09 2840.35 1318.92 2814.67 1341.83 2774.99ZM1368.17 2774.99C1345.27 2735.32 1341.94 2689.72 1355.18 2649.37C1396.75 2658.07 1434.57 2683.76 1457.48 2723.43C1480.38 2763.11 1483.71 2808.71 1470.47 2849.06C1428.9 2840.35 1391.08 2814.67 1368.17 2774.99Z" stroke="#272727" stroke-width="4"/>
</g>
<path d="M147.804 1143.98C141.825 1143.98 136.1 1143.04 130.628 1141.16C125.207 1139.29 120.444 1136.58 116.34 1133.03C112.287 1129.49 109.373 1125.28 107.6 1120.42L127.284 1113.12C127.892 1114.84 129.159 1116.46 131.084 1117.98C133.009 1119.45 135.416 1120.67 138.304 1121.63C141.192 1122.54 144.359 1123 147.804 1123C151.097 1123 154.188 1122.52 157.076 1121.56C160.015 1120.54 162.371 1119.15 164.144 1117.38C165.968 1115.6 166.88 1113.53 166.88 1111.14C166.88 1108.76 165.943 1106.79 164.068 1105.22C162.193 1103.65 159.787 1102.4 156.848 1101.49C153.909 1100.53 150.895 1099.79 147.804 1099.29C140.153 1098.17 133.288 1096.37 127.208 1093.89C121.179 1091.36 116.416 1087.89 112.92 1083.48C109.424 1079.02 107.676 1073.37 107.676 1066.53C107.676 1059.95 109.525 1054.19 113.224 1049.28C116.973 1044.37 121.888 1040.54 127.968 1037.8C134.099 1035.07 140.711 1033.7 147.804 1033.7C153.681 1033.7 159.356 1034.64 164.828 1036.51C170.3 1038.39 175.063 1041.1 179.116 1044.64C183.22 1048.19 186.159 1052.45 187.932 1057.41L168.248 1064.56C167.64 1062.83 166.373 1061.24 164.448 1059.77C162.523 1058.3 160.116 1057.11 157.228 1056.2C154.34 1055.28 151.199 1054.83 147.804 1054.83C144.561 1054.78 141.471 1055.26 138.532 1056.27C135.644 1057.29 133.263 1058.68 131.388 1060.45C129.564 1062.23 128.652 1064.25 128.652 1066.53C128.652 1069.52 129.513 1071.78 131.236 1073.3C133.009 1074.82 135.34 1075.91 138.228 1076.56C141.116 1077.22 144.308 1077.81 147.804 1078.31C154.999 1079.38 161.636 1081.28 167.716 1084.01C173.796 1086.7 178.66 1090.29 182.308 1094.8C186.007 1099.26 187.856 1104.71 187.856 1111.14C187.856 1117.73 186.007 1123.48 182.308 1128.4C178.609 1133.31 173.72 1137.14 167.64 1139.87C161.56 1142.61 154.948 1143.98 147.804 1143.98ZM246.885 1117.98L265.733 1128.17C262.237 1132.93 257.855 1136.76 252.585 1139.64C247.316 1142.53 241.565 1143.98 235.333 1143.98C228.341 1143.98 221.957 1142.18 216.181 1138.58C210.456 1134.98 205.871 1130.17 202.425 1124.14C199.031 1118.06 197.333 1111.35 197.333 1104C197.333 1098.43 198.321 1093.23 200.297 1088.42C202.273 1083.56 204.984 1079.3 208.429 1075.65C211.925 1071.95 215.979 1069.07 220.589 1066.99C225.2 1064.91 230.115 1063.87 235.333 1063.87C241.565 1063.87 247.316 1065.32 252.585 1068.2C257.855 1071.09 262.237 1074.97 265.733 1079.83L246.885 1090.02C245.315 1088.34 243.516 1087.08 241.489 1086.22C239.513 1085.3 237.461 1084.85 235.333 1084.85C232.091 1084.85 229.177 1085.73 226.593 1087.51C224.06 1089.28 222.033 1091.64 220.513 1094.58C219.044 1097.46 218.309 1100.61 218.309 1104C218.309 1107.34 219.069 1110.46 220.589 1113.35C222.109 1116.24 224.136 1118.57 226.669 1120.34C229.253 1122.11 232.141 1123 235.333 1123C237.512 1123 239.589 1122.54 241.565 1121.63C243.541 1120.72 245.315 1119.5 246.885 1117.98ZM275.964 1066H296.94V1142H275.964V1066ZM286.604 1057.26C283.564 1057.26 281.005 1056.25 278.928 1054.22C276.85 1052.19 275.812 1049.69 275.812 1046.7C275.812 1043.71 276.85 1041.2 278.928 1039.17C281.005 1037.15 283.538 1036.13 286.528 1036.13C289.517 1036.13 292.025 1037.15 294.052 1039.17C296.129 1041.2 297.168 1043.71 297.168 1046.7C297.168 1049.69 296.154 1052.19 294.128 1054.22C292.152 1056.25 289.644 1057.26 286.604 1057.26ZM351.667 1142V1035.6H414.747V1056.58H372.643V1074.51H407.451V1095.49H372.643V1142H351.667ZM421.581 1066H442.557V1142H421.581V1066ZM432.221 1057.26C429.181 1057.26 426.622 1056.25 424.545 1054.22C422.468 1052.19 421.429 1049.69 421.429 1046.7C421.429 1043.71 422.468 1041.2 424.545 1039.17C426.622 1037.15 429.156 1036.13 432.145 1036.13C435.134 1036.13 437.642 1037.15 439.669 1039.17C441.746 1041.2 442.785 1043.71 442.785 1046.7C442.785 1049.69 441.772 1052.19 439.745 1054.22C437.769 1056.25 435.261 1057.26 432.221 1057.26Z" fill="#272727"/>
<defs>
<clipPath id="clip0_218_49">
<rect width="1400" height="1200" fill="white" transform="translate(100 1360)"/>
</clipPath>
</defs>
</svg>
